<?xml version="1.0" encoding="utf-8"?>
<!-- Generator: Adobe Illustrator 25.2.3, SVG Export Plug-In . SVG Version: 6.00 Build 0)  -->
<svg version="1.1" id="Layer_1" xmlns="http://www.w3.org/2000/svg" xmlns:xlink="http://www.w3.org/1999/xlink" x="0px" y="0px"
	 viewBox="0 0 259.9 170.2" style="enable-background:new 0 0 259.9 170.2;" xml:space="preserve">
<style type="text/css">
	.st0{fill:#060315;}
</style>
<path class="st0" d="M170.2,74.1c-0.4,0.6-0.6,1.4-0.6,2.2c0,0.8,0.2,1.5,0.6,2.2c0.4,0.6,0.9,1.1,1.6,1.5c0.7,0.4,1.4,0.5,2.3,0.5
	c0.8,0,1.6-0.2,2.3-0.5c0.7-0.4,1.2-0.9,1.6-1.5c0.4-0.6,0.6-1.4,0.6-2.2c0-0.8-0.2-1.5-0.6-2.2c-0.4-0.6-0.9-1.1-1.6-1.5
	c-0.7-0.4-1.4-0.5-2.3-0.5c-0.8,0-1.6,0.2-2.3,0.5C171.1,73,170.6,73.5,170.2,74.1z M172.3,74.4c0.5-0.5,1.1-0.7,1.8-0.7
	s1.3,0.2,1.8,0.7s0.7,1.1,0.7,1.9s-0.2,1.4-0.7,1.9s-1.1,0.7-1.8,0.7s-1.3-0.2-1.8-0.7s-0.7-1.1-0.7-1.9S171.8,74.9,172.3,74.4z
	 M123.2,80.5h1.9v-6.7h2.9v-1.6h-7.7v1.6h2.9C123.2,73.8,123.2,80.5,123.2,80.5z M69.9,79.7c0.6-0.5,0.9-1.2,0.9-2.1s-0.3-1.5-0.8-2
	c-0.6-0.5-1.4-0.7-2.4-0.7h-2.1v-2.7h-1.9v8.3h3.7C68.4,80.5,69.3,80.2,69.9,79.7z M65.5,79v-2.8h1.6c0.6,0,1,0.1,1.3,0.3
	c0.3,0.2,0.4,0.6,0.4,1c0,0.5-0.1,0.8-0.4,1.1c-0.3,0.2-0.7,0.4-1.3,0.4H65.5z M39.3,80c0.7-0.4,1.2-0.9,1.6-1.5
	c0.4-0.6,0.6-1.4,0.6-2.2c0-0.8-0.2-1.5-0.6-2.2c-0.4-0.6-0.9-1.1-1.6-1.5c-0.7-0.4-1.4-0.5-2.3-0.5c-0.8,0-1.6,0.2-2.3,0.5
	c-0.7,0.4-1.2,0.9-1.6,1.5c-0.4,0.6-0.6,1.4-0.6,2.2c0,0.8,0.2,1.5,0.6,2.2c0.4,0.6,0.9,1.1,1.6,1.5c0.7,0.4,1.4,0.5,2.3,0.5
	C37.8,80.6,38.6,80.4,39.3,80z M34.5,76.3c0-0.8,0.2-1.4,0.7-1.9s1.1-0.7,1.8-0.7s1.3,0.2,1.8,0.7s0.7,1.1,0.7,1.9s-0.2,1.4-0.7,1.9
	s-1.1,0.7-1.8,0.7s-1.3-0.2-1.8-0.7C34.8,77.7,34.5,77.1,34.5,76.3z M101.1,72.2v11.3h1.9v-4c0.6,0.7,1.5,1.1,2.6,1.1
	c0.8,0,1.5-0.2,2.2-0.5c0.6-0.4,1.1-0.8,1.5-1.5c0.4-0.6,0.5-1.4,0.5-2.2c0-0.8-0.2-1.6-0.5-2.2c-0.4-0.6-0.9-1.1-1.5-1.5
	s-1.3-0.5-2.2-0.5c-0.6,0-1.1,0.1-1.6,0.3c-0.5,0.2-0.9,0.5-1.2,0.9v-1.1h-1.7L101.1,72.2z M103.3,75c0.2-0.4,0.5-0.7,0.9-0.9
	c0.4-0.2,0.8-0.3,1.3-0.3c0.7,0,1.3,0.2,1.7,0.7c0.5,0.5,0.7,1.1,0.7,1.9s-0.2,1.4-0.7,1.9s-1,0.7-1.7,0.7c-0.5,0-0.9-0.1-1.3-0.3
	c-0.4-0.2-0.7-0.5-0.9-0.9c-0.2-0.4-0.3-0.8-0.3-1.4S103.1,75.3,103.3,75L103.3,75z M19.6,80.1c0.6-0.3,1.1-0.8,1.4-1.4l-1.5-0.9
	c-0.2,0.4-0.5,0.7-0.9,0.9c-0.4,0.2-0.7,0.3-1.2,0.3c-0.7,0-1.3-0.2-1.8-0.7c-0.5-0.5-0.7-1.1-0.7-1.9s0.2-1.4,0.7-1.9
	c0.5-0.5,1.1-0.7,1.8-0.7c0.4,0,0.8,0.1,1.2,0.3c0.4,0.2,0.7,0.5,0.9,0.9l1.5-1c-0.3-0.6-0.8-1.1-1.4-1.4s-1.3-0.5-2.1-0.5
	c-0.9,0-1.6,0.2-2.3,0.5c-0.7,0.4-1.2,0.9-1.6,1.5c-0.4,0.6-0.6,1.4-0.6,2.2c0,0.8,0.2,1.5,0.6,2.2c0.4,0.6,0.9,1.1,1.6,1.5
	c0.7,0.4,1.4,0.5,2.3,0.5C18.3,80.6,19,80.4,19.6,80.1z M98.4,80.5v-8.3h-7.9v8.3h2v-6.7h4v6.7H98.4z M54.8,77.2H59v3.3h1.9v-8.3H59
	v3.3h-4.2v-3.3h-1.9v8.3h1.9V77.2z M71.9,72.2h1.9v8.3h-1.9V72.2z M77.8,80c0.7,0.4,1.5,0.5,2.4,0.5c0.7,0,1.4-0.1,1.9-0.3
	c0.6-0.2,1-0.6,1.4-1l-1-1.2c-0.6,0.6-1.3,0.9-2.2,0.9c-0.7,0-1.3-0.2-1.8-0.5c-0.5-0.4-0.8-0.8-0.9-1.5h6.5v-0.6
	c0-0.8-0.2-1.6-0.5-2.2c-0.4-0.6-0.8-1.2-1.5-1.5c-0.6-0.4-1.3-0.5-2.2-0.5c-0.8,0-1.5,0.2-2.2,0.5c-0.6,0.4-1.2,0.9-1.5,1.5
	c-0.4,0.6-0.5,1.4-0.5,2.2c0,0.8,0.2,1.5,0.6,2.2C76.6,79.2,77.2,79.7,77.8,80z M78.4,74.2c0.4-0.4,1-0.6,1.6-0.6s1.2,0.2,1.6,0.6
	s0.7,0.9,0.8,1.5h-4.7C77.7,75,77.9,74.6,78.4,74.2z M50,79.8c0.6-0.4,0.8-1,0.8-1.7c0-1-0.5-1.7-1.5-2c0.4-0.2,0.7-0.4,0.9-0.7
	c0.2-0.3,0.3-0.7,0.3-1.1c0-0.7-0.3-1.2-0.9-1.6c-0.6-0.4-1.4-0.6-2.4-0.6h-4v8.3h4.2C48.6,80.5,49.4,80.2,50,79.8L50,79.8z
	 M45.2,73.6h2c1,0,1.5,0.3,1.5,1s-0.5,1-1.5,1h-2V73.6z M45.2,79v-2.1h2.3c0.5,0,0.9,0.1,1.2,0.3c0.2,0.2,0.4,0.4,0.4,0.8
	c0,0.7-0.5,1-1.6,1C47.5,79,45.2,79,45.2,79z M113.2,80c0.7,0.4,1.4,0.5,2.3,0.5c0.8,0,1.6-0.2,2.3-0.5c0.7-0.4,1.2-0.9,1.6-1.5
	s0.6-1.4,0.6-2.2c0-0.8-0.2-1.5-0.6-2.2c-0.4-0.6-0.9-1.1-1.6-1.5s-1.4-0.5-2.3-0.5c-0.8,0-1.6,0.2-2.3,0.5
	c-0.7,0.4-1.2,0.9-1.6,1.5s-0.6,1.4-0.6,2.2c0,0.8,0.2,1.5,0.6,2.2S112.5,79.7,113.2,80z M113.7,74.4c0.5-0.5,1.1-0.7,1.8-0.7
	s1.3,0.2,1.8,0.7s0.7,1.1,0.7,1.9s-0.2,1.4-0.7,1.9s-1.1,0.7-1.8,0.7s-1.3-0.2-1.8-0.7s-0.7-1.1-0.7-1.9S113.2,74.9,113.7,74.4z
	 M28.8,80.5h1.9v-8.3h-1.9v3.3h-4.2v-3.3h-1.9v8.3h1.9v-3.3h4.2V80.5z M155.8,80c0.7-0.4,1.2-0.9,1.6-1.5c0.4-0.6,0.6-1.4,0.6-2.2
	c0-0.8-0.2-1.5-0.6-2.2c-0.4-0.6-0.9-1.1-1.6-1.5c-0.7-0.4-1.4-0.5-2.3-0.5c-0.8,0-1.6,0.2-2.3,0.5c-0.7,0.4-1.2,0.9-1.6,1.5
	c-0.4,0.6-0.6,1.4-0.6,2.2c0,0.8,0.2,1.5,0.6,2.2c0.4,0.6,0.9,1.1,1.6,1.5c0.7,0.4,1.4,0.5,2.3,0.5C154.4,80.6,155.1,80.4,155.8,80z
	 M151.1,76.3c0-0.8,0.2-1.4,0.7-1.9s1.1-0.7,1.8-0.7s1.3,0.2,1.8,0.7s0.7,1.1,0.7,1.9s-0.2,1.4-0.7,1.9s-1.1,0.7-1.8,0.7
	s-1.3-0.2-1.8-0.7S151.1,77.1,151.1,76.3z M167.8,80.5v-8.3h-8v8.3h2v-6.7h4.1v6.7H167.8z M224.8,80.5v-8.3h-2v3.3h-4.1v-3.3h-2v8.3
	h2v-3.3h4.1v3.3H224.8z M2.9,79.9c0.9,0.5,1.9,0.7,3,0.7s2.1-0.2,3-0.7s1.6-1.2,2.1-2s0.8-1.8,0.8-2.9s-0.3-2-0.8-2.9
	c-0.5-0.8-1.2-1.5-2.1-2s-1.9-0.7-3-0.7s-2.1,0.2-3,0.7s-1.6,1.1-2.1,2S0,74,0,75c0,1.1,0.3,2,0.8,2.9C1.3,78.7,2,79.4,2.9,79.9z
	 M2.5,73.1c0.3-0.6,0.8-1,1.4-1.4c0.6-0.3,1.2-0.5,1.9-0.5s1.4,0.2,1.9,0.5c0.6,0.3,1,0.8,1.4,1.4c0.3,0.6,0.5,1.2,0.5,1.9
	s-0.2,1.4-0.5,2s-0.8,1-1.4,1.4c-0.6,0.3-1.2,0.5-1.9,0.5s-1.4-0.2-1.9-0.5c-0.6-0.3-1-0.8-1.4-1.4C2.2,76.4,2,75.8,2,75
	C2,74.3,2.2,73.7,2.5,73.1z M192.6,75.6c-1.2,0-2.1,0.2-2.6,0.7c-0.5,0.4-0.8,1-0.8,1.8c0,0.5,0.1,0.9,0.4,1.3
	c0.3,0.4,0.6,0.7,1.1,0.9c0.5,0.2,1,0.3,1.6,0.3s1.1-0.1,1.6-0.3c0.4-0.2,0.8-0.5,1-0.8v1h1.8v-4.8c0-1.2-0.3-2.1-1-2.6
	c-0.6-0.6-1.6-0.9-2.8-0.9c-0.7,0-1.3,0.1-1.9,0.3c-0.6,0.2-1.1,0.4-1.6,0.8l0.8,1.4c0.3-0.3,0.7-0.5,1.1-0.6
	c0.5-0.1,0.9-0.2,1.4-0.2c0.7,0,1.2,0.2,1.5,0.5c0.4,0.3,0.5,0.8,0.5,1.3v0.1h-2.1V75.6z M194.7,77.9c-0.2,0.4-0.4,0.7-0.8,1
	c-0.4,0.2-0.8,0.3-1.3,0.3s-0.9-0.1-1.2-0.3c-0.3-0.2-0.4-0.5-0.4-0.8c0-0.7,0.6-1.1,1.7-1.1h2V77.9z M248.4,74.7
	c0.4,0,0.7-0.1,0.9-0.4c0.2-0.2,0.4-0.6,0.4-0.9c0-0.4-0.1-0.7-0.4-0.9c-0.2-0.2-0.5-0.4-0.9-0.4s-0.7,0.1-0.9,0.4
	c-0.2,0.2-0.4,0.5-0.4,0.9s0.1,0.7,0.4,0.9C247.7,74.5,248,74.7,248.4,74.7z M235.6,80.5v-8.3h-1.8l-4.5,5.4v-5.4h-1.9v8.3h1.7
	l4.6-5.5v5.5H235.6z M247.5,80.2c0.2,0.2,0.5,0.4,0.9,0.4s0.7-0.1,0.9-0.4c0.2-0.2,0.4-0.6,0.4-0.9c0-0.4-0.1-0.7-0.4-0.9
	c-0.2-0.2-0.5-0.4-0.9-0.4s-0.7,0.1-0.9,0.4c-0.2,0.2-0.4,0.5-0.4,0.9C247.1,79.6,247.2,80,247.5,80.2z M245.2,80.5v-8.3h-3.8
	c-1.2,0-2.1,0.3-2.8,0.8s-1,1.2-1,2.2c0,0.6,0.2,1.2,0.5,1.6s0.8,0.7,1.4,0.9l-1.9,2.8h2.1l1.7-2.5h2.2v2.5H245.2z M241.4,76.6
	c-1.2,0-1.8-0.5-1.8-1.4s0.6-1.4,1.9-1.4h2v2.8H241.4L241.4,76.6z M186.3,72.2l-2.4,3.3h-1.6v-3.3h-1.9v8.3h1.9v-3.4h1.5l2.5,3.4
	h2.3l-3.2-4.3l3-4H186.3z M129.4,72.2v8.3h1.8l4.5-5.5v5.5h2v-8.3h-1.8l-4.6,5.4v-5.4H129.4z M210.3,75.6c-1.2,0-2.1,0.2-2.6,0.7
	c-0.5,0.4-0.8,1-0.8,1.8c0,0.5,0.1,0.9,0.4,1.3c0.3,0.4,0.6,0.7,1.1,0.9c0.5,0.2,1,0.3,1.6,0.3s1.1-0.1,1.6-0.3
	c0.4-0.2,0.8-0.5,1-0.8v1h1.8v-4.8c0-1.2-0.3-2.1-1-2.6c-0.6-0.6-1.6-0.9-2.8-0.9c-0.7,0-1.3,0.1-1.9,0.3c-0.6,0.2-1.1,0.4-1.6,0.8
	l0.8,1.4c0.3-0.3,0.7-0.5,1.1-0.6c0.5-0.1,0.9-0.2,1.4-0.2c0.7,0,1.2,0.2,1.5,0.5c0.4,0.3,0.5,0.8,0.5,1.3v0.1h-2.1V75.6z
	 M212.4,77.9c-0.2,0.4-0.4,0.7-0.8,1c-0.4,0.2-0.8,0.3-1.3,0.3s-0.9-0.1-1.2-0.3c-0.3-0.2-0.4-0.5-0.4-0.8c0-0.7,0.6-1.1,1.7-1.1h2
	V77.9z M203,78.7c-0.4,0.2-0.9,0.3-1.5,0.3c-0.5,0-1-0.1-1.5-0.2s-1-0.3-1.4-0.5l-0.6,1.4c0.5,0.3,1,0.5,1.7,0.6
	c0.6,0.1,1.2,0.2,1.9,0.2c0.8,0,1.4-0.1,2-0.3c0.6-0.2,1.1-0.5,1.4-0.9c0.3-0.4,0.5-0.8,0.5-1.3s-0.1-0.8-0.4-1.2
	c-0.3-0.3-0.7-0.6-1.2-0.7c0.4-0.2,0.8-0.4,1-0.7c0.2-0.3,0.4-0.7,0.4-1.1s-0.2-0.8-0.5-1.2c-0.3-0.4-0.7-0.6-1.3-0.8
	c-0.6-0.2-1.2-0.3-1.9-0.3c-1.1,0-2.2,0.3-3.3,0.8l0.5,1.4c0.9-0.4,1.8-0.6,2.6-0.6c0.6,0,1,0.1,1.4,0.3c0.3,0.2,0.5,0.4,0.5,0.7
	c0,0.3-0.1,0.5-0.4,0.7c-0.3,0.2-0.6,0.2-1.1,0.2h-1.5v1.3h1.6c0.5,0,0.9,0.1,1.2,0.3c0.3,0.2,0.4,0.4,0.4,0.7
	C203.5,78.2,203.3,78.5,203,78.7L203,78.7z M147.2,75.4c0.2-0.3,0.3-0.7,0.3-1.1c0-0.7-0.3-1.2-0.9-1.6c-0.6-0.4-1.4-0.6-2.4-0.6h-4
	v8.3h4.2c1.1,0,1.9-0.2,2.5-0.6s0.8-1,0.8-1.7c0-1-0.5-1.7-1.5-2C146.7,76,147,75.7,147.2,75.4L147.2,75.4z M142.1,73.6h2
	c1,0,1.5,0.3,1.5,1s-0.5,1-1.5,1h-2V73.6z M144.3,79h-2.2v-2.1h2.3c0.5,0,0.9,0.1,1.2,0.3c0.2,0.2,0.4,0.4,0.4,0.8
	C145.9,78.7,145.4,79,144.3,79z M133.7,105.5h1v-7.4h-1v3.2h-4.6v-3.2h-1v7.4h1v-3.3h4.6V105.5z M184.5,152c-0.6,0-1.1,0.1-1.7,0.3
	c-0.5,0.2-1,0.4-1.3,0.7l0.4,0.7c0.3-0.3,0.7-0.5,1.1-0.6c0.4-0.2,0.9-0.2,1.3-0.2c0.7,0,1.2,0.2,1.6,0.5c0.4,0.3,0.5,0.8,0.5,1.4
	v0.4h-2.3c-1,0-1.7,0.2-2.2,0.6c-0.4,0.4-0.7,0.9-0.7,1.5s0.2,1.2,0.7,1.6c0.5,0.4,1.1,0.6,2,0.6c0.6,0,1.1-0.1,1.5-0.3
	s0.8-0.5,1-0.9v1.1h1v-4.6c0-0.9-0.3-1.7-0.8-2.1C186.2,152.3,185.5,152,184.5,152z M186.5,157.2c-0.2,0.5-0.5,0.9-0.9,1.1
	c-0.4,0.3-0.9,0.4-1.4,0.4c-0.6,0-1-0.1-1.4-0.4c-0.3-0.3-0.5-0.6-0.5-1c0-0.9,0.6-1.3,1.9-1.3h2.3L186.5,157.2L186.5,157.2z
	 M206.6,138.2h4.6v3.3h1v-7.4h-1v3.2h-4.6v-3.2h-1v7.4h1V138.2z M169.1,137.6c0.4-0.1,0.7-0.4,0.9-0.6c0.2-0.3,0.3-0.6,0.3-1
	c0-0.6-0.2-1.1-0.7-1.4c-0.5-0.3-1.1-0.5-2-0.5h-3.2v7.4h3.3c0.9,0,1.7-0.2,2.1-0.5c0.5-0.3,0.7-0.8,0.7-1.5
	C170.6,138.5,170.1,137.9,169.1,137.6L169.1,137.6z M165.4,134.9h2.2c0.6,0,1,0.1,1.3,0.3s0.5,0.5,0.5,0.9s-0.2,0.7-0.5,0.9
	s-0.7,0.3-1.3,0.3h-2.2V134.9z M169.2,140.4c-0.3,0.2-0.8,0.3-1.4,0.3h-2.3v-2.6h2.4c0.6,0,1.1,0.1,1.4,0.3c0.3,0.2,0.4,0.5,0.4,1
	C169.7,139.8,169.5,140.2,169.2,140.4L169.2,140.4z M95.7,101.3c-0.5-0.4-1.2-0.6-2.1-0.6h-2.2v-2.6h-1v7.4h3c1,0,1.7-0.2,2.2-0.6
	s0.8-1,0.8-1.8S96.2,101.7,95.7,101.3z M94.9,104.3c-0.3,0.3-0.9,0.4-1.5,0.4h-1.9v-3.3h1.9c0.7,0,1.2,0.1,1.6,0.4
	c0.3,0.3,0.5,0.7,0.5,1.2C95.4,103.6,95.2,104,94.9,104.3z M123.6,122.1c0.3,0.5,0.7,0.8,1.2,1.1c0.5,0.2,1,0.4,1.6,0.4
	c0.7,0,1.3-0.2,1.9-0.5c0.6-0.3,1-0.8,1.3-1.3c0.3-0.6,0.5-1.2,0.5-2c0-0.7-0.2-1.4-0.5-1.9c-0.3-0.6-0.8-1-1.3-1.3
	c-0.6-0.3-1.2-0.5-1.9-0.5c-0.6,0-1.2,0.1-1.7,0.4s-0.9,0.6-1.2,1.1v-1.5h-1v10.1h1L123.6,122.1L123.6,122.1z M124,118.3
	c0.2-0.4,0.6-0.8,1-1s0.9-0.4,1.4-0.4s1,0.1,1.4,0.4c0.4,0.2,0.7,0.6,1,1c0.2,0.4,0.4,0.9,0.4,1.5c0,0.6-0.1,1.1-0.4,1.5
	c-0.2,0.4-0.6,0.8-1,1c-0.4,0.2-0.9,0.3-1.4,0.3s-1-0.1-1.4-0.3s-0.7-0.6-1-1c-0.2-0.4-0.3-0.9-0.3-1.5S123.7,118.7,124,118.3z
	 M108.1,123.5c0.7,0,1.4-0.2,1.9-0.5c0.6-0.3,1-0.7,1.3-1.3s0.5-1.2,0.5-1.9s-0.1-1.3-0.4-1.9s-0.7-1-1.3-1.3
	c-0.5-0.3-1.1-0.5-1.8-0.5s-1.3,0.2-1.8,0.5s-0.9,0.8-1.2,1.3c0-1.2,0.3-2,0.8-2.6s1.3-1,2.3-1.2l3.1-0.7l-0.2-0.9l-3.3,0.8
	c-1.3,0.3-2.2,0.9-2.8,1.7c-0.6,0.8-0.9,2-0.9,3.6c0,1.5,0.3,2.7,1,3.6S106.9,123.5,108.1,123.5z M105.8,118.5c0.2-0.4,0.6-0.7,1-1
	c0.4-0.2,0.9-0.3,1.4-0.3s1,0.1,1.4,0.3c0.4,0.2,0.7,0.5,1,1s0.3,0.9,0.3,1.4c0,0.5-0.1,1-0.3,1.5c-0.2,0.4-0.5,0.8-1,1
	c-0.4,0.2-0.9,0.3-1.4,0.3s-1-0.1-1.4-0.3s-0.7-0.6-1-1c-0.2-0.4-0.3-0.9-0.3-1.5C105.5,119.4,105.6,118.9,105.8,118.5z M95.5,118
	c0-0.6-0.2-1.1-0.7-1.4s-1.1-0.5-2-0.5h-3.2v7.4H93c0.9,0,1.7-0.2,2.1-0.5c0.5-0.3,0.7-0.8,0.7-1.5c0-1-0.5-1.6-1.5-1.8
	c0.4-0.1,0.7-0.4,0.9-0.6C95.4,118.7,95.5,118.4,95.5,118L95.5,118z M94.4,120.4c0.3,0.2,0.4,0.5,0.4,1c0,0.4-0.2,0.8-0.5,1
	s-0.8,0.3-1.4,0.3h-2.3v-2.6H93C93.6,120.1,94.1,120.2,94.4,120.4L94.4,120.4z M94.1,119c-0.3,0.2-0.7,0.3-1.3,0.3h-2.2v-2.5h2.2
	c0.6,0,1,0.1,1.3,0.3c0.3,0.2,0.5,0.5,0.5,0.9S94.4,118.8,94.1,119z M198.1,141c0.6,0.3,1.3,0.5,2,0.5c0.6,0,1.1-0.1,1.6-0.3
	s0.9-0.5,1.2-0.9l-0.6-0.6c-0.3,0.3-0.6,0.6-1,0.7c-0.4,0.2-0.8,0.2-1.3,0.2c-0.8,0-1.5-0.2-2-0.7s-0.8-1.1-0.9-1.9h6.2v-0.3
	c0-0.7-0.2-1.4-0.5-1.9c-0.3-0.6-0.7-1-1.3-1.3c-0.5-0.3-1.2-0.5-1.8-0.5c-0.7,0-1.3,0.2-1.8,0.5s-1,0.8-1.3,1.3
	c-0.3,0.6-0.5,1.2-0.5,1.9s0.2,1.4,0.5,1.9C197.1,140.3,197.5,140.7,198.1,141L198.1,141z M198.1,135.6c0.5-0.5,1.1-0.7,1.8-0.7
	s1.3,0.2,1.8,0.7c0.5,0.4,0.8,1,0.8,1.8h-5.2C197.3,136.6,197.6,136,198.1,135.6L198.1,135.6z M156.8,105c0.6,0.3,1.3,0.5,2,0.5
	c0.6,0,1.1-0.1,1.6-0.3c0.5-0.2,0.9-0.5,1.2-0.9l-0.6-0.6c-0.3,0.3-0.6,0.6-1,0.7c-0.4,0.2-0.8,0.2-1.3,0.2c-0.8,0-1.5-0.2-2-0.7
	s-0.8-1.1-0.9-1.9h6.2v-0.3c0-0.7-0.2-1.4-0.5-1.9c-0.3-0.6-0.7-1-1.3-1.3c-0.5-0.3-1.2-0.5-1.8-0.5c-0.7,0-1.3,0.2-1.8,0.5
	s-1,0.8-1.3,1.3c-0.3,0.6-0.5,1.2-0.5,1.9s0.2,1.4,0.5,1.9C155.7,104.3,156.2,104.7,156.8,105L156.8,105z M156.7,99.6
	c0.5-0.5,1.1-0.7,1.8-0.7s1.3,0.2,1.8,0.7c0.5,0.4,0.8,1,0.8,1.8h-5.2C156,100.6,156.2,100,156.7,99.6L156.7,99.6z M108.6,98.3
	c-0.5,0.2-1,0.4-1.3,0.7l0.4,0.7c0.3-0.3,0.7-0.5,1.1-0.6c0.4-0.2,0.9-0.2,1.3-0.2c0.7,0,1.2,0.2,1.6,0.5s0.5,0.8,0.5,1.4v0.4h-2.3
	c-1,0-1.7,0.2-2.2,0.6c-0.4,0.4-0.7,0.9-0.7,1.5s0.2,1.2,0.7,1.6s1.1,0.6,2,0.6c0.6,0,1.1-0.1,1.5-0.3c0.4-0.2,0.8-0.5,1-0.9v1.1h1
	v-4.6c0-0.9-0.3-1.7-0.8-2.1c-0.5-0.5-1.3-0.7-2.2-0.7C109.7,98,109.2,98.1,108.6,98.3z M112.3,103.2c-0.2,0.5-0.5,0.9-0.9,1.1
	c-0.4,0.3-0.9,0.4-1.4,0.4c-0.6,0-1-0.1-1.4-0.4c-0.3-0.3-0.5-0.6-0.5-1c0-0.9,0.6-1.3,1.9-1.3h2.3
	C112.3,102,112.3,103.2,112.3,103.2z M193.6,155.6c0.4-0.1,0.8-0.4,1-0.6c0.3-0.3,0.4-0.6,0.4-1s-0.1-0.7-0.4-1
	c-0.3-0.3-0.6-0.5-1.1-0.7c-0.4-0.2-1-0.3-1.5-0.3c-0.9,0-1.9,0.2-2.7,0.7l0.3,0.8c0.8-0.4,1.6-0.6,2.4-0.6c0.6,0,1.1,0.1,1.5,0.3
	s0.6,0.5,0.6,0.9s-0.2,0.6-0.5,0.9c-0.3,0.2-0.8,0.3-1.3,0.3H191v0.7h1.3c0.6,0,1.1,0.1,1.5,0.3s0.5,0.5,0.5,0.9s-0.2,0.8-0.7,1
	c-0.4,0.3-1,0.4-1.7,0.4c-0.5,0-0.9-0.1-1.4-0.2c-0.4-0.1-0.8-0.3-1.2-0.6l-0.3,0.7c0.4,0.3,0.8,0.5,1.3,0.7c0.5,0.1,1,0.2,1.6,0.2
	s1.2-0.1,1.7-0.3s0.9-0.4,1.2-0.8c0.3-0.3,0.4-0.7,0.4-1.1s-0.1-0.8-0.4-1.1C194.5,155.9,194.1,155.7,193.6,155.6L193.6,155.6z
	 M178.1,152.5c-0.6-0.3-1.2-0.5-1.9-0.5c-0.6,0-1.2,0.1-1.7,0.4c-0.5,0.3-0.9,0.6-1.2,1.1V152h-1v10.1h1V158
	c0.3,0.5,0.7,0.8,1.2,1.1c0.5,0.2,1,0.4,1.6,0.4c0.7,0,1.3-0.2,1.9-0.5c0.6-0.3,1-0.8,1.3-1.3c0.3-0.6,0.5-1.2,0.5-2
	c0-0.7-0.2-1.4-0.5-1.9C179.1,153.3,178.7,152.8,178.1,152.5L178.1,152.5z M178.5,157.3c-0.2,0.4-0.6,0.8-1,1s-0.9,0.3-1.4,0.3
	s-1-0.1-1.4-0.3s-0.7-0.6-1-1c-0.2-0.4-0.3-0.9-0.3-1.5s0.1-1.1,0.3-1.5s0.6-0.8,1-1s0.9-0.4,1.4-0.4s1,0.1,1.4,0.4
	c0.4,0.2,0.7,0.6,1,1c0.2,0.4,0.4,0.9,0.4,1.5S178.8,156.8,178.5,157.3z M180.1,134.1h1v7.4h-1V134.1z M169.9,105.1
	c0.6-0.3,1-0.8,1.3-1.3c0.3-0.6,0.5-1.2,0.5-2c0-0.7-0.2-1.4-0.5-1.9c-0.3-0.6-0.8-1-1.3-1.3c-0.6-0.3-1.2-0.5-1.9-0.5
	c-0.6,0-1.2,0.1-1.7,0.4s-0.9,0.6-1.2,1.1v-1.5h-1v10.1h1v-4.1c0.3,0.5,0.7,0.8,1.2,1.1c0.5,0.2,1,0.4,1.6,0.4
	C168.8,105.5,169.4,105.4,169.9,105.1L169.9,105.1z M166.6,104.3c-0.4-0.2-0.7-0.6-1-1c-0.2-0.4-0.4-0.9-0.4-1.5s0.1-1.1,0.4-1.5
	c0.2-0.4,0.6-0.8,1-1s0.9-0.4,1.4-0.4s1,0.1,1.4,0.4c0.4,0.2,0.7,0.6,1,1c0.2,0.4,0.4,0.9,0.4,1.5s-0.1,1.1-0.4,1.5
	c-0.2,0.4-0.6,0.8-1,1s-0.9,0.3-1.4,0.3S167,104.5,166.6,104.3z M175.7,123.5h1v-7.4h-1v3.2H171v-3.2h-0.9v7.4h0.9v-3.3h4.7V123.5z
	 M202.4,152.5c-0.6-0.3-1.2-0.5-1.9-0.5s-1.3,0.2-1.9,0.5c-0.6,0.3-1,0.8-1.3,1.3c-0.3,0.6-0.5,1.2-0.5,1.9s0.2,1.4,0.5,1.9
	c0.3,0.6,0.8,1,1.3,1.3c0.6,0.3,1.2,0.5,1.9,0.5s1.3-0.2,1.9-0.5c0.6-0.3,1-0.8,1.3-1.3c0.3-0.6,0.5-1.2,0.5-1.9s-0.2-1.4-0.5-1.9
	S203,152.8,202.4,152.5z M202.9,157.3c-0.2,0.4-0.6,0.8-1,1s-0.9,0.3-1.4,0.3s-1-0.1-1.4-0.3s-0.7-0.6-1-1c-0.2-0.4-0.4-0.9-0.4-1.5
	s0.1-1.1,0.4-1.5c0.2-0.4,0.6-0.8,1-1s0.9-0.4,1.4-0.4s1,0.1,1.4,0.4c0.4,0.2,0.7,0.6,1,1c0.2,0.4,0.3,0.9,0.3,1.5
	S203.1,156.8,202.9,157.3z M152.8,105.5v-7.4h-6.6v7.4h1V99h4.6v6.5H152.8z M174.9,98.5c-0.5,0.3-1,0.8-1.3,1.3
	c-0.3,0.6-0.5,1.2-0.5,1.9s0.2,1.4,0.5,1.9c0.3,0.6,0.8,1,1.4,1.3c0.6,0.3,1.3,0.5,2,0.5c0.6,0,1.1-0.1,1.6-0.3
	c0.5-0.2,0.9-0.5,1.2-0.9l-0.6-0.6c-0.3,0.3-0.6,0.6-1,0.7c-0.4,0.2-0.8,0.2-1.3,0.2c-0.8,0-1.5-0.2-2-0.7s-0.8-1.1-0.9-1.9h6.2
	v-0.3c0-0.7-0.2-1.4-0.5-1.9c-0.3-0.6-0.7-1-1.3-1.3c-0.5-0.3-1.2-0.5-1.8-0.5C176.1,98,175.5,98.2,174.9,98.5L174.9,98.5z
	 M179.4,101.3h-5.2c0.1-0.7,0.3-1.3,0.8-1.8s1.1-0.7,1.8-0.7s1.3,0.2,1.8,0.7C179,100,179.3,100.6,179.4,101.3L179.4,101.3z
	 M180.6,123c0.6,0.3,1.2,0.5,1.9,0.5s1.3-0.2,1.9-0.5c0.6-0.3,1-0.8,1.3-1.3c0.3-0.6,0.5-1.2,0.5-1.9s-0.2-1.4-0.5-1.9
	c-0.3-0.6-0.8-1-1.3-1.3c-0.6-0.3-1.2-0.5-1.9-0.5s-1.3,0.2-1.9,0.5c-0.6,0.3-1,0.8-1.3,1.3c-0.3,0.6-0.5,1.2-0.5,1.9
	s0.2,1.4,0.5,1.9C179.6,122.3,180.1,122.7,180.6,123z M180.1,118.3c0.2-0.4,0.6-0.8,1-1s0.9-0.4,1.4-0.4s1,0.1,1.4,0.4
	c0.4,0.2,0.7,0.6,1,1c0.2,0.4,0.3,0.9,0.3,1.5c0,0.6-0.1,1.1-0.3,1.5s-0.6,0.8-1,1s-0.9,0.3-1.4,0.3s-1-0.1-1.4-0.3s-0.7-0.6-1-1
	c-0.2-0.4-0.4-0.9-0.4-1.5S179.9,118.7,180.1,118.3z M250.3,152.5c-0.6-0.3-1.2-0.5-1.9-0.5c-0.6,0-1.2,0.1-1.8,0.4
	c-0.5,0.3-1,0.7-1.3,1.1c-0.3,0.5-0.5,1-0.6,1.7H243V152h-1v7.4h1v-3.3h1.7c0.1,0.7,0.2,1.2,0.6,1.7c0.3,0.5,0.8,0.9,1.3,1.2
	s1.1,0.4,1.8,0.4s1.3-0.2,1.9-0.5c0.6-0.3,1-0.8,1.3-1.3c0.3-0.6,0.5-1.2,0.5-1.9s-0.2-1.4-0.5-1.9S250.9,152.8,250.3,152.5
	L250.3,152.5z M250.8,157.3c-0.2,0.4-0.6,0.8-1,1s-0.9,0.4-1.4,0.4s-1-0.1-1.4-0.4c-0.4-0.2-0.7-0.6-1-1c-0.2-0.4-0.4-0.9-0.4-1.5
	s0.1-1.1,0.4-1.5c0.2-0.4,0.5-0.8,1-1c0.4-0.2,0.9-0.4,1.4-0.4s1,0.1,1.4,0.4c0.4,0.2,0.7,0.6,1,1c0.2,0.4,0.4,0.9,0.4,1.5
	S251,156.8,250.8,157.3z M188.2,101.3h-4.7v-3.2h-1v7.4h1v-3.3h4.7v3.3h0.9v-7.4h-0.9V101.3z M244.3,104.1l-0.7-0.5
	c-0.2,0.4-0.6,0.6-0.9,0.8c-0.4,0.2-0.8,0.3-1.2,0.3c-0.5,0-1-0.1-1.4-0.3c-0.4-0.2-0.8-0.6-1-1s-0.3-0.9-0.3-1.5s0.1-1.1,0.3-1.5
	s0.6-0.8,1-1s0.9-0.4,1.4-0.4c0.4,0,0.8,0.1,1.2,0.3c0.4,0.2,0.7,0.4,0.9,0.8l0.7-0.5c-0.3-0.5-0.7-0.8-1.2-1.1
	c-0.5-0.3-1.1-0.4-1.7-0.4c-0.7,0-1.4,0.2-2,0.5s-1,0.8-1.3,1.3c-0.3,0.6-0.5,1.2-0.5,1.9s0.2,1.4,0.5,1.9c0.3,0.6,0.8,1,1.3,1.3
	c0.6,0.3,1.2,0.5,2,0.5c0.6,0,1.2-0.1,1.7-0.4C243.6,104.9,244,104.5,244.3,104.1L244.3,104.1z M196.9,105c0.6-0.3,1-0.8,1.3-1.3
	c0.3-0.6,0.5-1.2,0.5-1.9s-0.2-1.4-0.5-1.9c-0.3-0.6-0.8-1-1.3-1.3c-0.6-0.3-1.2-0.5-1.9-0.5s-1.3,0.2-1.9,0.5
	c-0.6,0.3-1,0.8-1.3,1.3c-0.3,0.6-0.5,1.2-0.5,1.9s0.2,1.4,0.5,1.9c0.3,0.6,0.8,1,1.3,1.3c0.6,0.3,1.2,0.5,1.9,0.5
	S196.4,105.4,196.9,105z M192.6,103.3c-0.2-0.4-0.4-0.9-0.4-1.5s0.1-1.1,0.4-1.5c0.2-0.4,0.6-0.8,1-1s0.9-0.4,1.4-0.4s1,0.1,1.4,0.4
	c0.4,0.2,0.7,0.6,1,1c0.2,0.4,0.3,0.9,0.3,1.5s-0.1,1.1-0.3,1.5s-0.6,0.8-1,1s-0.9,0.3-1.4,0.3s-1-0.1-1.4-0.3
	C193.2,104,192.9,103.7,192.6,103.3z M194.1,134.1h-1v6.5h-3.5v-6.5h-1v6.5H185v-6.5h-1v7.4h10.1V134.1z M204,105.5
	c0.6,0,1.2-0.1,1.7-0.4s0.9-0.6,1.2-1.1l-0.7-0.5c-0.2,0.4-0.5,0.6-0.9,0.8c-0.4,0.2-0.8,0.3-1.2,0.3c-0.5,0-1-0.1-1.4-0.3
	c-0.4-0.2-0.8-0.6-1-1s-0.3-0.9-0.3-1.5s0.1-1.1,0.3-1.5s0.6-0.8,1-1s0.9-0.4,1.4-0.4c0.4,0,0.8,0.1,1.2,0.3
	c0.4,0.2,0.7,0.4,0.9,0.8l0.7-0.5c-0.3-0.5-0.7-0.8-1.2-1.1c-0.5-0.3-1.1-0.4-1.7-0.4c-0.7,0-1.4,0.2-2,0.5s-1,0.8-1.3,1.3
	c-0.3,0.6-0.5,1.2-0.5,1.9s0.2,1.4,0.5,1.9c0.3,0.6,0.8,1,1.3,1.3C202.6,105.4,203.2,105.5,204,105.5L204,105.5z M233.5,157.9v-5.8
	h-1v7.4h0.9l4.9-5.9v5.9h1v-7.4h-0.9L233.5,157.9z M198.5,123.5V117h2.8v-0.9h-6.5v0.9h2.8v6.5H198.5z M255.9,100.7h-2.2v-2.6h-1
	v7.4h3c1,0,1.7-0.2,2.2-0.6s0.8-1,0.8-1.8s-0.2-1.3-0.7-1.7C257.5,100.9,256.8,100.7,255.9,100.7L255.9,100.7z M257.2,104.3
	c-0.3,0.3-0.9,0.4-1.5,0.4h-1.9v-3.3h1.9c0.7,0,1.2,0.1,1.6,0.4c0.3,0.3,0.5,0.7,0.5,1.2C257.7,103.6,257.5,104,257.2,104.3z
	 M98.2,125.5l0.6-1.9c0.1-0.2,0.1-0.3,0.1-0.4c0-0.1,0.1-0.3,0.1-0.4c0-0.2-0.1-0.4-0.2-0.5s-0.3-0.2-0.5-0.2s-0.4,0.1-0.5,0.2
	c-0.1,0.1-0.2,0.3-0.2,0.5s0,0.3,0.1,0.5c0.1,0.1,0.2,0.2,0.4,0.3l-0.5,2h0.6V125.5z M210.6,125.5l0.6-1.9c0.1-0.2,0.1-0.3,0.1-0.4
	c0-0.1,0.1-0.3,0.1-0.4c0-0.2-0.1-0.4-0.2-0.5c-0.1-0.1-0.3-0.2-0.5-0.2s-0.4,0.1-0.5,0.2c-0.1,0.1-0.2,0.3-0.2,0.5s0,0.3,0.1,0.5
	c0.1,0.1,0.2,0.2,0.4,0.3l-0.5,2h0.6L210.6,125.5z M244.7,99h2.8v6.5h1V99h2.8v-0.9h-6.6V99z M215.5,105.5v-7.4h-0.8l-4.9,5.8v-5.8
	h-1v7.4h0.9l4.9-5.9v5.9H215.5z M173,134.1v7.4h2.9c1,0,1.7-0.2,2.2-0.6c0.5-0.4,0.8-1,0.8-1.8s-0.2-1.3-0.7-1.7s-1.2-0.6-2.1-0.6
	H174v-2.6L173,134.1L173,134.1z M175.8,137.4c0.7,0,1.2,0.1,1.6,0.4c0.3,0.3,0.5,0.7,0.5,1.2c0,0.6-0.2,1-0.5,1.3s-0.9,0.4-1.5,0.4
	H174v-3.3L175.8,137.4L175.8,137.4z M233.1,141.5l1.7-2.4h2.6v2.4h0.9v-7.4h-3.1c-1,0-1.7,0.2-2.3,0.6c-0.6,0.4-0.8,1.1-0.8,1.9
	c0,0.6,0.2,1.1,0.5,1.5s0.7,0.7,1.3,0.8l-1.8,2.6L233.1,141.5L233.1,141.5z M233.1,136.6c0-1.1,0.7-1.7,2.2-1.7h2.2v3.3h-2.2
	C233.8,138.3,233.1,137.7,233.1,136.6z M190,117.3c0.4-0.2,0.9-0.4,1.4-0.4c0.4,0,0.8,0.1,1.2,0.3c0.4,0.2,0.7,0.4,0.9,0.8l0.7-0.5
	c-0.3-0.5-0.7-0.8-1.2-1.1c-0.5-0.3-1.1-0.4-1.7-0.4c-0.7,0-1.4,0.2-2,0.5s-1,0.8-1.3,1.3c-0.3,0.6-0.5,1.2-0.5,1.9
	c0,0.7,0.2,1.4,0.5,1.9c0.3,0.6,0.8,1,1.3,1.3c0.6,0.3,1.2,0.5,2,0.5c0.6,0,1.2-0.1,1.7-0.4c0.5-0.3,0.9-0.6,1.2-1.1l-0.7-0.5
	c-0.2,0.4-0.6,0.6-0.9,0.8c-0.4,0.2-0.8,0.3-1.2,0.3c-0.5,0-1-0.1-1.4-0.3s-0.8-0.6-1-1s-0.3-0.9-0.3-1.5s0.1-1.1,0.3-1.5
	C189.3,117.8,189.6,117.5,190,117.3z M254.1,158c-0.2,0-0.4,0.1-0.5,0.2c-0.1,0.1-0.2,0.3-0.2,0.5s0.1,0.4,0.2,0.5
	c0.1,0.1,0.3,0.2,0.5,0.2s0.4-0.1,0.5-0.2s0.2-0.3,0.2-0.5s-0.1-0.4-0.2-0.5C254.5,158.1,254.3,158,254.1,158z M121.6,105.5v-7.4
	h-3.1c-1,0-1.7,0.2-2.3,0.6c-0.6,0.4-0.8,1.1-0.8,1.9c0,0.6,0.2,1.1,0.5,1.5s0.7,0.7,1.3,0.8l-1.8,2.6h1.1l1.7-2.4h2.6v2.4
	C120.8,105.5,121.6,105.5,121.6,105.5z M118.4,102.3c-1.4,0-2.1-0.5-2.1-1.6s0.7-1.7,2.2-1.7h2.2v3.3
	C120.7,102.3,118.4,102.3,118.4,102.3z M217.4,152c-0.6,0-1.1,0.1-1.7,0.3c-0.5,0.2-1,0.4-1.3,0.7l0.4,0.7c0.3-0.3,0.7-0.5,1.1-0.6
	c0.4-0.2,0.9-0.2,1.3-0.2c0.7,0,1.2,0.2,1.6,0.5c0.4,0.3,0.5,0.8,0.5,1.4v0.4H217c-1,0-1.7,0.2-2.2,0.6c-0.4,0.4-0.7,0.9-0.7,1.5
	s0.2,1.2,0.7,1.6c0.5,0.4,1.1,0.6,2,0.6c0.6,0,1.1-0.1,1.5-0.3s0.8-0.5,1-0.9v1.1h1v-4.6c0-0.9-0.3-1.7-0.8-2.1
	C219.1,152.3,218.4,152,217.4,152L217.4,152z M219.4,157.2c-0.2,0.5-0.5,0.9-0.9,1.1c-0.4,0.3-0.9,0.4-1.4,0.4c-0.6,0-1-0.1-1.4-0.4
	c-0.3-0.3-0.5-0.6-0.5-1c0-0.9,0.6-1.3,1.9-1.3h2.3L219.4,157.2L219.4,157.2z M138.7,119.8c0-0.7-0.2-1.4-0.5-1.9
	c-0.3-0.6-0.7-1-1.3-1.3c-0.5-0.3-1.2-0.5-1.8-0.5c-0.7,0-1.3,0.2-1.8,0.5s-1,0.8-1.3,1.3c-0.3,0.6-0.5,1.2-0.5,1.9
	c0,0.7,0.2,1.4,0.5,1.9c0.3,0.6,0.8,1,1.4,1.3c0.6,0.3,1.3,0.5,2,0.5c0.6,0,1.1-0.1,1.6-0.3s0.9-0.5,1.2-0.9l-0.6-0.6
	c-0.3,0.3-0.6,0.6-1,0.7c-0.4,0.2-0.8,0.2-1.3,0.2c-0.8,0-1.5-0.2-2-0.7s-0.8-1.1-0.9-1.9h6.2L138.7,119.8L138.7,119.8z
	 M132.5,119.3c0.1-0.7,0.3-1.3,0.8-1.8s1.1-0.7,1.8-0.7s1.3,0.2,1.8,0.7c0.5,0.4,0.8,1,0.8,1.8H132.5L132.5,119.3z M120.4,119.8
	c0-0.7-0.2-1.4-0.5-1.9c-0.3-0.6-0.7-1-1.3-1.3c-0.5-0.3-1.2-0.5-1.8-0.5c-0.7,0-1.3,0.2-1.8,0.5s-1,0.8-1.3,1.3
	c-0.3,0.6-0.5,1.2-0.5,1.9c0,0.7,0.2,1.4,0.5,1.9c0.3,0.6,0.8,1,1.4,1.3s1.3,0.5,2,0.5c0.6,0,1.1-0.1,1.6-0.3s0.9-0.5,1.2-0.9
	l-0.6-0.6c-0.3,0.3-0.6,0.6-1,0.7c-0.4,0.2-0.8,0.2-1.3,0.2c-0.8,0-1.5-0.2-2-0.7s-0.8-1.1-0.9-1.9h6.2L120.4,119.8L120.4,119.8z
	 M114.3,119.3c0.1-0.7,0.3-1.3,0.8-1.8s1.1-0.7,1.8-0.7s1.3,0.2,1.8,0.7c0.5,0.4,0.8,1,0.8,1.8H114.3L114.3,119.3z M211.1,155.6
	c0.4-0.1,0.7-0.4,0.9-0.6c0.2-0.3,0.3-0.6,0.3-1c0-0.6-0.2-1.1-0.7-1.4c-0.5-0.3-1.1-0.5-2-0.5h-3.2v7.4h3.3c0.9,0,1.7-0.2,2.1-0.5
	c0.5-0.3,0.7-0.8,0.7-1.5C212.6,156.5,212.1,155.9,211.1,155.6L211.1,155.6z M207.3,152.9h2.2c0.6,0,1,0.1,1.3,0.3s0.5,0.5,0.5,0.9
	s-0.2,0.7-0.5,0.9s-0.7,0.3-1.3,0.3h-2.2V152.9z M211.1,158.4c-0.3,0.2-0.8,0.3-1.4,0.3h-2.3v-2.6h2.4c0.6,0,1.1,0.1,1.4,0.3
	c0.3,0.2,0.4,0.5,0.4,1C211.6,157.8,211.4,158.2,211.1,158.4L211.1,158.4z M104.9,105.5v-7.4h-1v3.2h-4.6v-3.2h-1v7.4h1v-3.3h4.6
	v3.3H104.9z M117.8,143.2v-2.6h-1.1v-6.5h-5.4l-0.1,2.5c-0.1,1.3-0.2,2.2-0.4,2.9c-0.2,0.7-0.5,1.1-1,1.1h-0.4v2.6h0.9v-1.8h6.6v1.8
	H117.8z M115.6,140.6H111c0.3-0.3,0.6-0.7,0.7-1.4s0.2-1.5,0.3-2.6l0.1-1.6h3.5V140.6L115.6,140.6z M220.7,137.3h-4.6v-3.2h-1v7.4h1
	v-3.3h4.6v3.3h1v-7.4h-1V137.3z M208,122.8c0.5-0.4,0.8-1,0.8-1.8s-0.2-1.3-0.7-1.7c-0.5-0.4-1.2-0.6-2.1-0.6h-2.2v-2.6h-1v7.4h3
	C206.7,123.5,207.5,123.3,208,122.8z M203.8,122.7v-3.3h1.9c0.7,0,1.2,0.1,1.6,0.4c0.3,0.3,0.5,0.7,0.5,1.2c0,0.6-0.2,1-0.5,1.3
	s-0.9,0.4-1.5,0.4H203.8z M227,134c-0.6,0-1.1,0.1-1.7,0.3c-0.5,0.2-1,0.4-1.3,0.7l0.4,0.7c0.3-0.3,0.7-0.5,1.1-0.6
	c0.4-0.2,0.9-0.2,1.3-0.2c0.7,0,1.2,0.2,1.6,0.5c0.4,0.3,0.5,0.8,0.5,1.4v0.4h-2.3c-1,0-1.7,0.2-2.2,0.6c-0.4,0.4-0.7,0.9-0.7,1.5
	s0.2,1.2,0.7,1.6c0.5,0.4,1.1,0.6,2,0.6c0.6,0,1.1-0.1,1.5-0.3s0.8-0.5,1-0.9v1.1h1v-4.6c0-0.9-0.3-1.7-0.8-2.1
	C228.7,134.3,228,134,227,134z M229,139.2c-0.2,0.5-0.5,0.9-0.9,1.1c-0.4,0.3-0.9,0.4-1.4,0.4c-0.6,0-1-0.1-1.4-0.4
	c-0.3-0.3-0.5-0.6-0.5-1c0-0.9,0.6-1.3,1.9-1.3h2.3L229,139.2L229,139.2z M167.2,123.5v-7.4h-1v3.2h-4.6v-3.2h-1v7.4h1v-3.3h4.6v3.3
	H167.2z M228.7,155.3h-4.6v-3.2h-1v7.4h1v-3.3h4.6v3.3h1v-7.4h-1V155.3z M234.4,105c0.6-0.3,1-0.8,1.3-1.3c0.3-0.6,0.5-1.2,0.5-1.9
	s-0.2-1.4-0.5-1.9c-0.3-0.6-0.8-1-1.3-1.3c-0.6-0.3-1.2-0.5-1.9-0.5s-1.3,0.2-1.9,0.5c-0.6,0.3-1,0.8-1.3,1.3
	c-0.3,0.6-0.5,1.2-0.5,1.9s0.2,1.4,0.5,1.9c0.3,0.6,0.8,1,1.3,1.3c0.6,0.3,1.2,0.5,1.9,0.5S233.8,105.4,234.4,105z M230.1,103.3
	c-0.2-0.4-0.3-0.9-0.3-1.5s0.1-1.1,0.3-1.5s0.6-0.8,1-1s0.9-0.4,1.4-0.4s1,0.1,1.4,0.4c0.4,0.2,0.7,0.6,1,1c0.2,0.4,0.4,0.9,0.4,1.5
	s-0.1,1.1-0.4,1.5c-0.2,0.4-0.6,0.8-1,1s-0.9,0.3-1.4,0.3s-1-0.1-1.4-0.3C230.7,104,230.3,103.7,230.1,103.3z M139.5,143.5l0.6-1.9
	c0.1-0.2,0.1-0.3,0.1-0.4c0-0.1,0.1-0.3,0.1-0.4c0-0.2-0.1-0.4-0.2-0.5c-0.1-0.1-0.3-0.2-0.5-0.2s-0.4,0.1-0.5,0.2
	c-0.1,0.1-0.2,0.3-0.2,0.5s0,0.3,0.1,0.5c0.1,0.1,0.2,0.2,0.4,0.3l-0.5,2h0.6L139.5,143.5z M149.1,123.5v-7.4h-0.9l-3.2,5.3
	l-3.1-5.3h-1v7.4h0.9v-5.9l3,5h0.4l3-5v5.9L149.1,123.5z M225.7,105.5h0.9v-7.4h-0.9l-3.2,5.3l-3.1-5.3h-1v7.4h0.9v-5.9l3,5h0.4l3-5
	L225.7,105.5z M142.3,105.2c0.5-0.2,0.9-0.5,1.2-0.9l-0.6-0.6c-0.3,0.3-0.6,0.6-1,0.7c-0.4,0.2-0.8,0.2-1.3,0.2
	c-0.8,0-1.5-0.2-2-0.7s-0.8-1.1-0.9-1.9h6.2v-0.3c0-0.7-0.2-1.4-0.5-1.9c-0.3-0.6-0.7-1-1.3-1.3c-0.5-0.3-1.2-0.5-1.8-0.5
	c-0.7,0-1.3,0.2-1.8,0.5s-1,0.8-1.3,1.3c-0.3,0.6-0.5,1.2-0.5,1.9s0.2,1.4,0.5,1.9c0.3,0.6,0.8,1,1.4,1.3c0.6,0.3,1.3,0.5,2,0.5
	C141.3,105.5,141.8,105.4,142.3,105.2L142.3,105.2z M138.6,99.6c0.5-0.5,1.1-0.7,1.8-0.7s1.3,0.2,1.8,0.7c0.5,0.4,0.8,1,0.8,1.8
	h-5.2C137.9,100.6,138.1,100,138.6,99.6L138.6,99.6z M79.8,154.7h-2.2v-2.6h-1v7.4h3c1,0,1.7-0.2,2.2-0.6c0.5-0.4,0.8-1,0.8-1.8
	s-0.2-1.3-0.7-1.7C81.4,154.9,80.7,154.7,79.8,154.7L79.8,154.7z M81.1,158.3c-0.3,0.3-0.9,0.4-1.5,0.4h-1.9v-3.3h1.9
	c0.7,0,1.2,0.1,1.6,0.4s0.5,0.7,0.5,1.2C81.6,157.6,81.5,158,81.1,158.3L81.1,158.3z M44.5,100c0-0.6-0.2-1.1-0.7-1.4
	s-1.1-0.5-2-0.5h-3.2v7.4h3.3c0.9,0,1.7-0.2,2.1-0.5c0.5-0.3,0.7-0.8,0.7-1.5c0-1-0.5-1.6-1.5-1.8c0.4-0.1,0.7-0.4,0.9-0.6
	C44.4,100.7,44.5,100.4,44.5,100z M43.3,102.4c0.3,0.2,0.4,0.5,0.4,1c0,0.4-0.2,0.8-0.5,1s-0.8,0.3-1.4,0.3h-2.3v-2.6H42
	C42.6,102.1,43,102.2,43.3,102.4z M43,101c-0.3,0.2-0.7,0.3-1.3,0.3h-2.2v-2.5h2.2c0.6,0,1,0.1,1.3,0.3c0.3,0.2,0.5,0.5,0.5,0.9
	S43.3,100.8,43,101z M17,105.5v-7.4h-1v3.2h-4.7v-3.2h-0.9v7.4h0.9v-3.3H16v3.3H17z M137.1,139.7c0.3-0.6,0.5-1.2,0.5-1.9
	s-0.2-1.4-0.5-1.9c-0.3-0.6-0.8-1-1.3-1.3c-0.6-0.3-1.2-0.5-1.9-0.5c-0.6,0-1.2,0.1-1.8,0.4c-0.5,0.3-1,0.7-1.3,1.1
	c-0.3,0.5-0.5,1-0.6,1.7h-1.7v-3.2h-1v7.4h1v-3.3h1.7c0.1,0.7,0.2,1.2,0.6,1.7c0.3,0.5,0.8,0.9,1.3,1.2s1.1,0.4,1.8,0.4
	s1.3-0.2,1.9-0.5C136.3,140.7,136.8,140.3,137.1,139.7L137.1,139.7z M133.9,140.7c-0.5,0-1-0.1-1.4-0.4c-0.4-0.2-0.7-0.6-1-1
	c-0.2-0.4-0.3-0.9-0.3-1.5s0.1-1.1,0.3-1.5s0.6-0.8,1-1s0.9-0.4,1.4-0.4s1,0.1,1.4,0.4c0.4,0.2,0.7,0.6,1,1c0.2,0.4,0.3,0.9,0.3,1.5
	s-0.1,1.1-0.3,1.5s-0.6,0.8-1,1S134.4,140.7,133.9,140.7z M35.7,98.1h-0.9l-4.9,5.8v-5.8h-1v7.4h0.9l4.9-5.9v5.9h1V98.1z
	 M129.2,157.4l-3.1-5.3h-1v7.4h0.9v-5.9l3,5h0.5l2.9-5v5.9h0.9v-7.4h-0.9L129.2,157.4z M121.2,152.5c-0.6-0.3-1.2-0.5-1.9-0.5
	s-1.3,0.2-1.9,0.5s-1,0.8-1.3,1.3c-0.3,0.6-0.5,1.2-0.5,1.9s0.2,1.4,0.5,1.9c0.3,0.6,0.8,1,1.3,1.3c0.6,0.3,1.2,0.5,1.9,0.5
	s1.3-0.2,1.9-0.5s1-0.8,1.3-1.3c0.3-0.6,0.5-1.2,0.5-1.9s-0.2-1.4-0.5-1.9S121.7,152.8,121.2,152.5z M121.6,157.3
	c-0.2,0.4-0.6,0.8-1,1s-0.9,0.3-1.4,0.3s-1-0.1-1.4-0.3s-0.7-0.6-1-1c-0.2-0.4-0.3-0.9-0.3-1.5s0.1-1.1,0.3-1.5c0.2-0.4,0.6-0.8,1-1
	s0.9-0.4,1.4-0.4s1,0.1,1.4,0.4c0.4,0.2,0.7,0.6,1,1c0.2,0.4,0.3,0.9,0.3,1.5S121.9,156.8,121.6,157.3z M39.1,123
	c0.6,0.3,1.2,0.5,1.9,0.5s1.3-0.2,1.9-0.5c0.6-0.3,1-0.8,1.3-1.3c0.3-0.6,0.5-1.2,0.5-1.9s-0.2-1.4-0.5-1.9c-0.3-0.6-0.8-1-1.3-1.3
	c-0.6-0.3-1.2-0.5-1.9-0.5s-1.3,0.2-1.9,0.5c-0.6,0.3-1,0.8-1.3,1.3c-0.3,0.6-0.5,1.2-0.5,1.9s0.2,1.4,0.5,1.9
	C38.1,122.3,38.5,122.7,39.1,123z M38.6,118.3c0.2-0.4,0.6-0.8,1-1s0.9-0.4,1.4-0.4s1,0.1,1.4,0.4c0.4,0.2,0.7,0.6,1,1
	c0.2,0.4,0.3,0.9,0.3,1.5c0,0.6-0.1,1.1-0.3,1.5s-0.6,0.8-1,1s-0.9,0.3-1.4,0.3s-1-0.1-1.4-0.3s-0.7-0.6-1-1
	c-0.2-0.4-0.4-0.9-0.4-1.5S38.4,118.7,38.6,118.3z M125,137.3c-0.5-0.4-1.2-0.6-2.1-0.6h-2.2v-2.6h-1v7.4h3c1,0,1.7-0.2,2.2-0.6
	c0.5-0.4,0.8-1,0.8-1.8S125.4,137.7,125,137.3L125,137.3z M124.1,140.3c-0.3,0.3-0.9,0.4-1.5,0.4h-1.9v-3.3h1.9
	c0.7,0,1.2,0.1,1.6,0.4c0.3,0.3,0.5,0.7,0.5,1.2C124.7,139.6,124.5,140,124.1,140.3L124.1,140.3z M53.5,123.5v-7.4h-1v3.2h-4.6v-3.2
	h-1v7.4h1v-3.3h4.6v3.3H53.5z M25.7,123.5v-7.4h-0.9l-3.2,5.3l-3.1-5.3h-1v7.4h0.9v-5.9l3,5h0.4l3-5v5.9L25.7,123.5z M141.6,152.7
	c-0.5-0.3-1.1-0.5-1.8-0.5s-1.3,0.2-1.8,0.5s-0.9,0.8-1.2,1.3c0-1.2,0.3-2,0.8-2.6s1.3-1,2.3-1.2l3.1-0.7l-0.2-0.9l-3.3,0.8
	c-1.3,0.3-2.2,0.9-2.8,1.7s-0.9,2-0.9,3.6c0,1.5,0.3,2.7,1,3.6c0.7,0.9,1.6,1.3,2.8,1.3c0.7,0,1.4-0.2,1.9-0.5
	c0.6-0.3,1-0.7,1.3-1.3s0.5-1.2,0.5-1.9s-0.1-1.3-0.4-1.9C142.5,153.5,142.1,153,141.6,152.7L141.6,152.7z M141.9,157.3
	c-0.2,0.4-0.5,0.8-1,1c-0.4,0.2-0.9,0.3-1.4,0.3s-1-0.1-1.4-0.3s-0.7-0.6-1-1c-0.2-0.4-0.3-0.9-0.3-1.5c0-0.5,0.1-1,0.3-1.4
	s0.6-0.7,1-1c0.4-0.2,0.9-0.3,1.4-0.3s1,0.1,1.4,0.3s0.7,0.5,1,1s0.3,0.9,0.3,1.4C142.3,156.4,142.1,156.9,141.9,157.3z M63.9,107.2
	v-2.6h-1.1v-6.5h-5.4l-0.1,2.5c-0.1,1.3-0.2,2.2-0.4,2.9s-0.5,1.1-1,1.1h-0.4v2.6h0.9v-1.8H63v1.8H63.9z M61.8,104.6h-4.6
	c0.3-0.3,0.6-0.7,0.7-1.4c0.1-0.7,0.2-1.5,0.3-2.6l0.1-1.6h3.5V104.6z M62.8,119.8c0-0.7-0.2-1.4-0.5-1.9c-0.3-0.6-0.7-1-1.3-1.3
	c-0.5-0.3-1.2-0.5-1.8-0.5c-0.7,0-1.3,0.2-1.8,0.5s-1,0.8-1.3,1.3c-0.3,0.6-0.5,1.2-0.5,1.9c0,0.7,0.2,1.4,0.5,1.9
	c0.3,0.6,0.8,1,1.4,1.3c0.6,0.3,1.3,0.5,2,0.5c0.6,0,1.1-0.1,1.6-0.3s0.9-0.5,1.2-0.9l-0.6-0.6c-0.3,0.3-0.6,0.6-1,0.7
	c-0.4,0.2-0.8,0.2-1.3,0.2c-0.8,0-1.5-0.2-2-0.7s-0.8-1.1-0.9-1.9h6.2C62.7,120,62.8,119.8,62.8,119.8z M56.6,119.3
	c0.1-0.7,0.3-1.3,0.8-1.8s1.1-0.7,1.8-0.7s1.3,0.2,1.8,0.7c0.5,0.4,0.8,1,0.8,1.8C61.8,119.3,56.6,119.3,56.6,119.3z M27,107.2v-2.6
	h-1.1v-6.5h-5.4l-0.1,2.5c-0.1,1.3-0.2,2.2-0.4,2.9c-0.2,0.7-0.5,1.1-1,1.1h-0.4v2.6h0.9v-1.8H26v1.8H27z M24.8,104.6h-4.6
	c0.3-0.3,0.6-0.7,0.7-1.4c0.1-0.7,0.2-1.5,0.3-2.6l0.1-1.6h3.5V104.6z M35.2,123.5v-7.4h-6.7v7.4h1V117h4.7v6.5H35.2z M53.9,98.1H53
	l-4.9,5.8v-5.8h-1v7.4H48l4.9-5.9v5.9h1V98.1z M112.3,152.5c-0.6-0.3-1.2-0.5-1.9-0.5c-0.6,0-1.2,0.1-1.7,0.4
	c-0.5,0.3-0.9,0.6-1.2,1.1V152h-1v10.1h1V158c0.3,0.5,0.7,0.8,1.2,1.1c0.5,0.2,1,0.4,1.6,0.4c0.7,0,1.3-0.2,1.9-0.5s1-0.8,1.3-1.3
	c0.3-0.6,0.5-1.2,0.5-2c0-0.7-0.2-1.4-0.5-1.9C113.3,153.3,112.8,152.8,112.3,152.5z M112.7,157.3c-0.2,0.4-0.6,0.8-1,1
	s-0.9,0.3-1.4,0.3s-1-0.1-1.4-0.3s-0.7-0.6-1-1c-0.2-0.4-0.3-0.9-0.3-1.5s0.1-1.1,0.3-1.5c0.2-0.4,0.6-0.8,1-1s0.9-0.4,1.4-0.4
	s1,0.1,1.4,0.4c0.4,0.2,0.7,0.6,1,1c0.2,0.4,0.4,0.9,0.4,1.5S113,156.8,112.7,157.3z M87,117.8c-0.3-0.6-0.8-1-1.3-1.3
	c-0.6-0.3-1.2-0.5-1.9-0.5s-1.3,0.2-1.9,0.5s-1,0.8-1.3,1.3c-0.3,0.6-0.5,1.2-0.5,1.9s0.2,1.4,0.5,1.9c0.3,0.6,0.8,1,1.3,1.3
	c0.6,0.3,1.2,0.5,1.9,0.5s1.3-0.2,1.9-0.5s1-0.8,1.3-1.3c0.3-0.6,0.5-1.2,0.5-1.9S87.3,118.4,87,117.8z M86.1,121.3
	c-0.2,0.4-0.6,0.8-1,1s-0.9,0.3-1.4,0.3s-1-0.1-1.4-0.3s-0.7-0.6-1-1c-0.2-0.4-0.4-0.9-0.4-1.5s0.1-1.1,0.4-1.5c0.2-0.4,0.6-0.8,1-1
	s0.9-0.4,1.4-0.4s1,0.1,1.4,0.4c0.4,0.2,0.7,0.6,1,1c0.2,0.4,0.3,0.9,0.3,1.5C86.4,120.4,86.4,120.8,86.1,121.3z M98.6,153h2.8v6.5
	h1V153h2.8v-0.9h-6.6L98.6,153z M2.4,153.3c0.4-0.2,0.9-0.4,1.4-0.4c0.4,0,0.8,0.1,1.2,0.3s0.7,0.4,0.9,0.8l0.7-0.5
	c-0.3-0.5-0.7-0.8-1.2-1.1c-0.4-0.2-1-0.4-1.6-0.4c-0.7,0-1.4,0.2-2,0.5s-1,0.8-1.3,1.3c-0.3,0.6-0.5,1.2-0.5,2s0.2,1.4,0.5,1.9
	c0.3,0.6,0.8,1,1.3,1.3c0.6,0.3,1.2,0.5,2,0.5c0.6,0,1.2-0.1,1.7-0.4c0.5-0.3,0.9-0.6,1.2-1.1L6,157.5c-0.2,0.4-0.6,0.6-0.9,0.8
	c-0.4,0.2-0.8,0.3-1.2,0.3c-0.5,0-1-0.1-1.4-0.3s-0.8-0.6-1-1s-0.3-0.9-0.3-1.5s0.1-1.1,0.3-1.5C1.6,153.8,1.9,153.5,2.4,153.3
	L2.4,153.3z M108.4,134.1l-2.8,6.3l-2.8-6.3h-1l3.3,7.3l-0.3,0.7c-0.2,0.4-0.4,0.8-0.7,1c-0.2,0.2-0.5,0.3-0.9,0.3
	c-0.5,0-1-0.2-1.3-0.6l-0.5,0.7c0.2,0.2,0.5,0.4,0.8,0.5s0.6,0.2,1,0.2c0.6,0,1-0.1,1.4-0.4c0.4-0.3,0.7-0.8,1-1.5l3.7-8.2
	C109.3,134.1,108.4,134.1,108.4,134.1z M92.3,134.1h-5.2v7.4H88V135h4.3V134.1z M100.7,139.7c0.3-0.6,0.5-1.2,0.5-2
	c0-0.7-0.2-1.4-0.5-1.9c-0.3-0.6-0.8-1-1.3-1.3c-0.6-0.3-1.2-0.5-1.9-0.5c-0.6,0-1.2,0.1-1.7,0.4c-0.5,0.3-0.9,0.6-1.2,1.1V134h-1
	v10.1h1V140c0.3,0.5,0.7,0.8,1.2,1.1c0.5,0.2,1,0.4,1.6,0.4c0.7,0,1.3-0.2,1.9-0.5S100.4,140.3,100.7,139.7L100.7,139.7z
	 M97.4,140.6c-0.5,0-1-0.1-1.4-0.3s-0.7-0.6-1-1c-0.2-0.4-0.3-0.9-0.3-1.5s0.1-1.1,0.3-1.5c0.2-0.4,0.6-0.8,1-1s0.9-0.4,1.4-0.4
	s1,0.1,1.4,0.4c0.4,0.2,0.7,0.6,1,1c0.2,0.4,0.4,0.9,0.4,1.5s-0.1,1.1-0.4,1.5c-0.2,0.4-0.6,0.8-1,1S97.9,140.6,97.4,140.6z
	 M94.6,152.1h-1.1l-2.6,3.2h-1.7v-3.2h-1v7.4h1v-3.3h1.7l2.7,3.3h1.2l-3.1-3.8L94.6,152.1z M15,152.1h-1.1l-2.6,3.2H9.6v-3.2h-1v7.4
	h1v-3.3h1.7l2.7,3.3h1.2l-3.1-3.8L15,152.1z M13.5,134.5c-0.6-0.3-1.2-0.5-1.9-0.5s-1.3,0.2-1.9,0.5c-0.6,0.3-1,0.8-1.3,1.3
	c-0.3,0.6-0.5,1.2-0.5,1.9s0.2,1.4,0.5,1.9c0.3,0.6,0.8,1,1.3,1.3c0.6,0.3,1.2,0.5,1.9,0.5s1.3-0.2,1.9-0.5c0.6-0.3,1-0.8,1.3-1.3
	c0.3-0.6,0.5-1.2,0.5-1.9s-0.2-1.4-0.5-1.9C14.6,135.3,14.1,134.8,13.5,134.5z M14,139.3c-0.2,0.4-0.6,0.8-1,1s-0.9,0.3-1.4,0.3
	s-1-0.1-1.4-0.3s-0.7-0.6-1-1c-0.2-0.4-0.3-0.9-0.3-1.5s0.1-1.1,0.3-1.5s0.6-0.8,1-1s0.9-0.4,1.4-0.4s1,0.1,1.4,0.4
	c0.4,0.2,0.7,0.6,1,1c0.2,0.4,0.4,0.9,0.4,1.5S14.2,138.8,14,139.3z M75.6,101.3c-1,0-1.7,0.2-2.2,0.6c-0.4,0.4-0.7,0.9-0.7,1.5
	s0.2,1.2,0.7,1.6s1.1,0.6,2,0.6c0.6,0,1.1-0.1,1.5-0.3c0.4-0.2,0.8-0.5,1-0.9v1.1h1v-4.6c0-0.9-0.3-1.7-0.8-2.1
	c-0.5-0.5-1.3-0.7-2.2-0.7c-0.6,0-1.1,0.1-1.7,0.3c-0.5,0.2-1,0.4-1.3,0.7l0.4,0.7c0.3-0.3,0.7-0.5,1.1-0.6c0.4-0.2,0.9-0.2,1.3-0.2
	c0.7,0,1.2,0.2,1.6,0.5s0.5,0.8,0.5,1.4v0.4H75.6z M77.9,103.2c-0.2,0.5-0.5,0.9-0.9,1.1c-0.4,0.3-0.9,0.4-1.4,0.4
	c-0.6,0-1-0.1-1.4-0.4c-0.3-0.3-0.5-0.6-0.5-1c0-0.9,0.6-1.3,1.9-1.3h2.3C77.9,102,77.9,103.2,77.9,103.2z M7.1,134.1H6l-2.6,3.2
	H1.7v-3.2h-1v7.4h1v-3.3h1.7l2.7,3.3h1.2l-3.1-3.8L7.1,134.1z M62.3,141.5v-7.4h-1v3.2h-4.7v-3.2h-1v7.4h1v-3.3h4.7v3.3H62.3z
	 M7.1,116.1H6l-2.6,3.2H1.7v-3.2h-1v7.4h1v-3.3h1.7l2.7,3.3h1.2l-3.1-3.8L7.1,116.1z M1.7,103.9v-5.8h-1v7.4h0.9l4.9-5.9v5.9h1v-7.4
	H6.6L1.7,103.9z M71.1,98.1l-2.8,6.3l-2.8-6.3h-1l3.3,7.4l-0.3,0.7c-0.2,0.4-0.4,0.8-0.7,1c-0.2,0.2-0.5,0.3-0.9,0.3
	c-0.5,0-1-0.2-1.3-0.6l-0.5,0.7c0.2,0.2,0.5,0.4,0.8,0.5s0.6,0.2,1,0.2c0.6,0,1-0.1,1.4-0.4s0.7-0.8,1-1.5l3.7-8.2L71.1,98.1
	L71.1,98.1z M146.1,141.5h1V135h4.6v6.5h1v-7.4h-6.6V141.5z M159.3,152.5c-0.6-0.3-1.2-0.5-1.9-0.5s-1.3,0.2-1.9,0.5
	c-0.6,0.3-1,0.8-1.3,1.3c-0.3,0.6-0.5,1.2-0.5,1.9s0.2,1.4,0.5,1.9c0.3,0.6,0.8,1,1.3,1.3c0.6,0.3,1.2,0.5,1.9,0.5s1.3-0.2,1.9-0.5
	c0.6-0.3,1-0.8,1.3-1.3c0.3-0.6,0.5-1.2,0.5-1.9s-0.2-1.4-0.5-1.9S159.8,152.8,159.3,152.5z M159.7,157.3c-0.2,0.4-0.6,0.8-1,1
	s-0.9,0.3-1.4,0.3s-1-0.1-1.4-0.3s-0.7-0.6-1-1c-0.2-0.4-0.3-0.9-0.3-1.5s0.1-1.1,0.3-1.5s0.6-0.8,1-1s0.9-0.4,1.4-0.4
	s1,0.1,1.4,0.4c0.4,0.2,0.7,0.6,1,1c0.2,0.4,0.4,0.9,0.4,1.5S160,156.8,159.7,157.3z M63.9,153.3c0.4-0.2,0.9-0.4,1.4-0.4
	c0.4,0,0.8,0.1,1.2,0.3c0.4,0.2,0.7,0.4,0.9,0.8l0.7-0.5c-0.3-0.5-0.7-0.8-1.2-1.1s-1.1-0.4-1.7-0.4c-0.7,0-1.4,0.2-2,0.5
	s-1,0.8-1.3,1.3c-0.3,0.6-0.5,1.2-0.5,1.9s0.2,1.4,0.5,1.9c0.3,0.6,0.8,1,1.3,1.3c0.6,0.3,1.2,0.5,2,0.5c0.6,0,1.2-0.1,1.7-0.4
	c0.5-0.3,0.9-0.6,1.2-1.1l-0.7-0.5c-0.2,0.4-0.6,0.6-0.9,0.8c-0.4,0.2-0.8,0.3-1.2,0.3c-0.5,0-1-0.1-1.4-0.3s-0.8-0.6-1-1
	s-0.3-0.9-0.3-1.5s0.1-1.1,0.3-1.5C63.2,153.8,63.5,153.5,63.9,153.3L63.9,153.3z M40.1,155.3h-4.6v-3.2h-1v7.4h1v-3.3h4.6v3.3h1
	v-7.4h-1V155.3z M35.3,141.5v-7.4h-0.9l-3.2,5.3l-3.1-5.3h-1v7.4H28v-5.9l3,5h0.4l3-5v5.9H35.3z M156.7,123.2
	c0.5-0.2,0.9-0.5,1.2-0.9l-0.6-0.6c-0.3,0.3-0.6,0.6-1,0.7c-0.4,0.2-0.8,0.2-1.3,0.2c-0.8,0-1.5-0.2-2-0.7s-0.8-1.1-0.9-1.9h6.2
	v-0.3c0-0.7-0.2-1.4-0.5-1.9c-0.3-0.6-0.7-1-1.3-1.3c-0.5-0.3-1.2-0.5-1.8-0.5c-0.7,0-1.3,0.2-1.8,0.5s-1,0.8-1.3,1.3
	c-0.3,0.6-0.5,1.2-0.5,1.9s0.2,1.4,0.5,1.9c0.3,0.6,0.8,1,1.4,1.3c0.6,0.3,1.3,0.5,2,0.5C155.7,123.5,156.2,123.4,156.7,123.2
	L156.7,123.2z M153,117.6c0.5-0.5,1.1-0.7,1.8-0.7s1.3,0.2,1.8,0.7c0.5,0.4,0.8,1,0.8,1.8h-5.2C152.3,118.6,152.6,118,153,117.6
	L153,117.6z M58.3,152.5c-0.6-0.3-1.2-0.5-1.9-0.5s-1.3,0.2-1.9,0.5c-0.6,0.3-1,0.8-1.3,1.3c-0.3,0.6-0.5,1.2-0.5,1.9
	s0.2,1.4,0.5,1.9c0.3,0.6,0.8,1,1.3,1.3c0.6,0.3,1.2,0.5,1.9,0.5s1.3-0.2,1.9-0.5c0.6-0.3,1-0.8,1.3-1.3c0.3-0.6,0.5-1.2,0.5-1.9
	s-0.2-1.4-0.5-1.9S58.9,152.8,58.3,152.5z M58.8,157.3c-0.2,0.4-0.6,0.8-1,1s-0.9,0.3-1.4,0.3s-1-0.1-1.4-0.3s-0.7-0.6-1-1
	c-0.2-0.4-0.3-0.9-0.3-1.5s0.1-1.1,0.3-1.5s0.6-0.8,1-1s0.9-0.4,1.4-0.4s1,0.1,1.4,0.4c0.4,0.2,0.7,0.6,1,1c0.2,0.4,0.4,0.9,0.4,1.5
	S59,156.8,58.8,157.3z M160.5,134.5c-0.6-0.3-1.2-0.5-1.9-0.5s-1.3,0.2-1.9,0.5c-0.6,0.3-1,0.8-1.3,1.3c-0.3,0.6-0.5,1.2-0.5,1.9
	s0.2,1.4,0.5,1.9c0.3,0.6,0.8,1,1.3,1.3c0.6,0.3,1.2,0.5,1.9,0.5s1.3-0.2,1.9-0.5c0.6-0.3,1-0.8,1.3-1.3c0.3-0.6,0.5-1.2,0.5-1.9
	s-0.2-1.4-0.5-1.9S161.1,134.8,160.5,134.5z M161,139.3c-0.2,0.4-0.6,0.8-1,1s-0.9,0.3-1.4,0.3s-1-0.1-1.4-0.3s-0.7-0.6-1-1
	c-0.2-0.4-0.4-0.9-0.4-1.5s0.1-1.1,0.4-1.5c0.2-0.4,0.6-0.8,1-1s0.9-0.4,1.4-0.4s1,0.1,1.4,0.4c0.4,0.2,0.7,0.6,1,1
	c0.2,0.4,0.3,0.9,0.3,1.5S161.2,138.8,161,139.3z M49.6,155.3h-4.7v-3.2h-1v7.4h1v-3.3h4.7v3.3h1v-7.4h-1V155.3z M168.6,152.7
	c-0.5-0.3-1.1-0.5-1.8-0.5s-1.3,0.2-1.8,0.5s-0.9,0.8-1.2,1.3c0-1.2,0.3-2,0.8-2.6s1.3-1,2.3-1.2l3.1-0.7l-0.2-0.9l-3.3,0.8
	c-1.3,0.3-2.2,0.9-2.8,1.7s-0.9,2-0.9,3.6c0,1.5,0.3,2.7,1,3.6c0.7,0.9,1.6,1.3,2.8,1.3c0.7,0,1.4-0.2,1.9-0.5
	c0.6-0.3,1-0.7,1.3-1.3s0.5-1.2,0.5-1.9s-0.1-1.3-0.4-1.9C169.6,153.5,169.1,153,168.6,152.7L168.6,152.7z M168.9,157.3
	c-0.2,0.4-0.5,0.8-1,1c-0.4,0.2-0.9,0.3-1.4,0.3s-1-0.1-1.4-0.3s-0.7-0.6-1-1c-0.2-0.4-0.3-0.9-0.3-1.5c0-0.5,0.1-1,0.3-1.4
	s0.6-0.7,1-1c0.4-0.2,0.9-0.3,1.4-0.3s1,0.1,1.4,0.3s0.7,0.5,1,1s0.3,0.9,0.3,1.4C169.3,156.4,169.2,156.9,168.9,157.3z M65,116.1
	v7.4h1v-3.3h4.6v3.3h1v-7.4h-1v3.2H66v-3.2H65z M52.4,139.7c-0.3,0.3-0.6,0.6-1,0.7c-0.4,0.2-0.8,0.2-1.3,0.2c-0.8,0-1.5-0.2-2-0.7
	s-0.8-1.1-0.9-1.9h6.2v-0.3c0-0.7-0.2-1.4-0.5-1.9c-0.3-0.6-0.7-1-1.3-1.3c-0.5-0.3-1.2-0.5-1.8-0.5c-0.7,0-1.3,0.2-1.8,0.5
	s-1,0.8-1.3,1.3c-0.3,0.6-0.5,1.2-0.5,1.9s0.2,1.4,0.5,1.9c0.3,0.6,0.8,1,1.4,1.3c0.6,0.3,1.3,0.5,2,0.5c0.6,0,1.1-0.1,1.6-0.3
	s0.9-0.5,1.2-0.9C52.9,140.2,52.4,139.7,52.4,139.7z M48.1,135.6c0.5-0.5,1.1-0.7,1.8-0.7s1.3,0.2,1.8,0.7c0.5,0.4,0.8,1,0.8,1.8
	h-5.2C47.3,136.6,47.6,136,48.1,135.6z M44.2,141.5v-7.4h-5.4l-0.1,2.6c0,0.9-0.1,1.5-0.2,2.1c-0.1,0.5-0.2,1-0.4,1.3
	c-0.2,0.4-0.5,0.5-0.9,0.5c-0.1,0-0.2,0-0.3-0.1l-0.1,0.9c0.3,0.1,0.5,0.1,0.7,0.1c0.7,0,1.2-0.4,1.5-1.2s0.5-2,0.5-3.5l0.1-1.8h3.5
	v6.5L44.2,141.5L44.2,141.5z M17.2,154.7c0,0.9-0.1,1.5-0.2,2.1c-0.1,0.5-0.2,1-0.4,1.3c-0.2,0.4-0.5,0.5-0.9,0.5
	c-0.1,0-0.2,0-0.4-0.1l-0.1,0.9c0.3,0.1,0.5,0.1,0.7,0.1c0.7,0,1.2-0.4,1.5-1.2c0.3-0.8,0.5-2,0.5-3.5L18,153h3.5v6.5h1v-7.4h-5.4
	L17.2,154.7L17.2,154.7z M150.4,152.5c-0.6-0.3-1.2-0.5-1.9-0.5s-1.3,0.2-1.9,0.5c-0.6,0.3-1,0.8-1.3,1.3c-0.3,0.6-0.5,1.2-0.5,1.9
	s0.2,1.4,0.5,1.9c0.3,0.6,0.8,1,1.3,1.3c0.6,0.3,1.2,0.5,1.9,0.5s1.3-0.2,1.9-0.5c0.6-0.3,1-0.8,1.3-1.3c0.3-0.6,0.5-1.2,0.5-1.9
	s-0.2-1.4-0.5-1.9S150.9,152.8,150.4,152.5z M150.8,157.3c-0.2,0.4-0.6,0.8-1,1s-0.9,0.3-1.4,0.3s-1-0.1-1.4-0.3s-0.7-0.6-1-1
	c-0.2-0.4-0.3-0.9-0.3-1.5s0.1-1.1,0.3-1.5s0.6-0.8,1-1s0.9-0.4,1.4-0.4s1,0.1,1.4,0.4c0.4,0.2,0.7,0.6,1,1c0.2,0.4,0.4,0.9,0.4,1.5
	S151.1,156.8,150.8,157.3z M13.5,116.5c-0.6-0.3-1.2-0.5-1.9-0.5s-1.3,0.2-1.9,0.5c-0.6,0.3-1,0.8-1.3,1.3c-0.3,0.6-0.5,1.2-0.5,1.9
	s0.2,1.4,0.5,1.9c0.3,0.6,0.8,1,1.3,1.3c0.6,0.3,1.2,0.5,1.9,0.5s1.3-0.2,1.9-0.5c0.6-0.3,1-0.8,1.3-1.3c0.3-0.6,0.5-1.2,0.5-1.9
	s-0.2-1.4-0.5-1.9C14.6,117.3,14.1,116.8,13.5,116.5z M14,121.3c-0.2,0.4-0.6,0.8-1,1s-0.9,0.3-1.4,0.3s-1-0.1-1.4-0.3s-0.7-0.6-1-1
	c-0.2-0.4-0.3-0.9-0.3-1.5s0.1-1.1,0.3-1.5s0.6-0.8,1-1s0.9-0.4,1.4-0.4s1,0.1,1.4,0.4c0.4,0.2,0.7,0.6,1,1c0.2,0.4,0.4,0.9,0.4,1.5
	C14.4,120.4,14.2,120.8,14,121.3z M30.5,152.5c-0.6-0.3-1.2-0.5-1.9-0.5s-1.3,0.2-1.9,0.5s-1,0.8-1.3,1.3c-0.3,0.6-0.5,1.2-0.5,1.9
	s0.2,1.4,0.5,1.9c0.3,0.6,0.8,1,1.3,1.3c0.6,0.3,1.2,0.5,1.9,0.5s1.3-0.2,1.9-0.5s1-0.8,1.3-1.3c0.3-0.6,0.5-1.2,0.5-1.9
	s-0.2-1.4-0.5-1.9C31.6,153.3,31.1,152.8,30.5,152.5z M31,157.3c-0.2,0.4-0.6,0.8-1,1s-0.9,0.3-1.4,0.3s-1-0.1-1.4-0.3s-0.7-0.6-1-1
	c-0.2-0.4-0.4-0.9-0.4-1.5s0.1-1.1,0.4-1.5c0.2-0.4,0.6-0.8,1-1s0.9-0.4,1.4-0.4s1,0.1,1.4,0.4c0.4,0.2,0.7,0.6,1,1
	c0.2,0.4,0.3,0.9,0.3,1.5S31.2,156.8,31,157.3z M76.8,123.5V117h2.8v-0.9H73v0.9h2.8v6.5H76.8z M71.9,141.5v-7.4H71l-4.9,5.8v-5.8
	h-1v7.4H66l4.9-5.9v5.9H71.9z M68.6,153h2.8v6.5h1V153h2.8v-0.9h-6.6L68.6,153z M79.5,141.2c0.5-0.2,0.9-0.5,1.2-0.9l-0.6-0.6
	c-0.3,0.3-0.6,0.6-1,0.7c-0.4,0.2-0.8,0.2-1.3,0.2c-0.8,0-1.5-0.2-2-0.7s-0.8-1.1-0.9-1.9h6.2v-0.3c0-0.7-0.2-1.4-0.5-1.9
	c-0.3-0.6-0.7-1-1.3-1.3c-0.5-0.3-1.2-0.5-1.8-0.5c-0.7,0-1.3,0.2-1.8,0.5s-1,0.8-1.3,1.3c-0.3,0.6-0.5,1.2-0.5,1.9s0.2,1.4,0.5,1.9
	c0.3,0.6,0.8,1,1.4,1.3s1.3,0.5,2,0.5C78.5,141.5,79,141.4,79.5,141.2L79.5,141.2z M75.8,135.6c0.5-0.5,1.1-0.7,1.8-0.7
	s1.3,0.2,1.8,0.7c0.5,0.4,0.8,1,0.8,1.8H75C75.1,136.6,75.3,136,75.8,135.6z M24.5,135.8c-0.3-0.6-0.8-1-1.3-1.3
	c-0.6-0.3-1.2-0.5-1.9-0.5c-0.6,0-1.2,0.1-1.7,0.4c-0.5,0.3-0.9,0.6-1.2,1.1V134h-1v10.1h1V140c0.3,0.5,0.7,0.8,1.2,1.1
	c0.5,0.2,1,0.4,1.6,0.4c0.7,0,1.3-0.2,1.9-0.5s1-0.8,1.3-1.3c0.3-0.6,0.5-1.2,0.5-2C25,137,24.8,136.4,24.5,135.8L24.5,135.8z
	 M23.6,139.3c-0.2,0.4-0.6,0.8-1,1s-0.9,0.3-1.4,0.3s-1-0.1-1.4-0.3s-0.7-0.6-1-1c-0.2-0.4-0.4-0.9-0.4-1.5s0.1-1.1,0.4-1.5
	c0.2-0.4,0.6-0.8,1-1s0.9-0.4,1.4-0.4s1,0.1,1.4,0.4c0.4,0.2,0.7,0.6,1,1c0.2,0.4,0.4,0.9,0.4,1.5S23.8,138.8,23.6,139.3z
	 M87.6,105.5v-7.4h-5.4l-0.1,2.6c0,0.9-0.1,1.5-0.2,2.1c-0.1,0.5-0.2,1-0.4,1.3s-0.5,0.5-0.9,0.5c-0.1,0-0.2,0-0.4-0.1l-0.1,0.9
	c0.3,0.1,0.5,0.1,0.7,0.1c0.7,0,1.2-0.4,1.5-1.2c0.3-0.8,0.5-2,0.5-3.5l0.1-1.8h3.5v6.5C86.4,105.5,87.6,105.5,87.6,105.5z
	 M10.7,35.1c0.3,0.5,0.7,0.8,1.1,1.1c0.5,0.2,1,0.4,1.6,0.4c0.7,0,1.3-0.1,1.8-0.4s1-0.7,1.3-1.3c0.3-0.5,0.5-1.2,0.5-1.9
	c0-0.7-0.2-1.3-0.5-1.9c-0.3-0.5-0.7-1-1.3-1.3c-0.5-0.3-1.1-0.5-1.8-0.5c-0.6,0-1.1,0.1-1.6,0.4s-0.8,0.6-1.1,1.1v-1.4H9.8v9.7h1
	L10.7,35.1L10.7,35.1z M11,31.5c0.2-0.4,0.5-0.8,0.9-1s0.9-0.4,1.4-0.4s0.9,0.1,1.3,0.4c0.4,0.2,0.7,0.6,0.9,1s0.4,0.9,0.4,1.4
	s-0.1,1-0.4,1.4c-0.2,0.4-0.5,0.8-0.9,1s-0.9,0.3-1.3,0.3c-0.5,0-1-0.1-1.4-0.3s-0.7-0.6-0.9-1c-0.2-0.4-0.3-0.9-0.3-1.4
	S10.8,31.9,11,31.5z M20.1,36.1c0.5,0.3,1.2,0.5,1.8,0.5s1.3-0.2,1.8-0.5s1-0.7,1.3-1.3c0.3-0.5,0.5-1.2,0.5-1.9
	c0-0.7-0.2-1.3-0.5-1.9c-0.3-0.5-0.7-1-1.3-1.3c-0.5-0.3-1.2-0.5-1.8-0.5s-1.3,0.2-1.8,0.5s-1,0.7-1.3,1.3s-0.5,1.2-0.5,1.9
	c0,0.7,0.2,1.3,0.5,1.9C19.1,35.4,19.5,35.7,20.1,36.1z M19.6,31.5c0.2-0.4,0.5-0.7,0.9-1c0.4-0.2,0.9-0.4,1.4-0.4s1,0.1,1.4,0.4
	c0.4,0.2,0.7,0.5,0.9,1c0.2,0.4,0.3,0.9,0.3,1.4s-0.1,1-0.3,1.4c-0.2,0.4-0.5,0.8-0.9,1s-0.8,0.3-1.4,0.3c-0.5,0-1-0.1-1.4-0.3
	s-0.7-0.6-0.9-1c-0.2-0.4-0.3-0.9-0.3-1.4S19.4,31.9,19.6,31.5z M1.9,9.9h6v8.6h0.9V9H0.9v9.5h1V9.9z M242.4,18.5h0.9v-6.3h2.7v-0.9
	h-6.3v0.9h2.7L242.4,18.5z M12.9,18.1c0.6,0.3,1.2,0.5,1.9,0.5c0.6,0,1.1-0.1,1.6-0.3c0.5-0.2,0.9-0.5,1.2-0.9L17,16.7
	c-0.3,0.3-0.6,0.5-1,0.7s-0.8,0.2-1.2,0.2c-0.8,0-1.4-0.2-1.9-0.7s-0.8-1.1-0.9-1.8h6v-0.3c0-0.7-0.1-1.3-0.4-1.9
	c-0.3-0.5-0.7-1-1.2-1.3s-1.1-0.5-1.8-0.5s-1.3,0.2-1.8,0.5s-0.9,0.7-1.2,1.3c-0.3,0.5-0.4,1.2-0.4,1.9s0.2,1.3,0.5,1.9
	S12.3,17.7,12.9,18.1z M12.9,12.8c0.5-0.4,1-0.7,1.7-0.7s1.3,0.2,1.7,0.7c0.5,0.4,0.7,1,0.8,1.7h-5C12.1,13.8,12.4,13.2,12.9,12.8z
	 M21.1,17.1c0.3,0.5,0.7,0.8,1.1,1.1c0.5,0.2,1,0.4,1.6,0.4c0.7,0,1.3-0.1,1.8-0.4s1-0.7,1.3-1.3c0.3-0.5,0.5-1.2,0.5-1.9
	s-0.2-1.3-0.5-1.9c-0.3-0.5-0.7-1-1.3-1.3c-0.5-0.3-1.1-0.5-1.8-0.5c-0.6,0-1.1,0.1-1.6,0.4c-0.5,0.3-0.8,0.6-1.1,1.1v-1.5h-0.9V21
	h1v-3.9H21.1z M21.4,13.5c0.2-0.4,0.5-0.8,0.9-1s0.9-0.4,1.4-0.4s0.9,0.1,1.4,0.4c0.4,0.2,0.7,0.6,0.9,1c0.2,0.4,0.4,0.9,0.4,1.4
	s-0.1,1-0.4,1.4c-0.2,0.4-0.5,0.8-0.9,1s-0.9,0.3-1.4,0.3s-1-0.1-1.4-0.3s-0.7-0.6-0.9-1c-0.2-0.4-0.3-0.9-0.3-1.4
	S21.2,13.9,21.4,13.5z M234.1,18.1c0.6,0.3,1.2,0.5,1.9,0.5c0.6,0,1.1-0.1,1.6-0.3c0.5-0.2,0.9-0.5,1.2-0.9l-0.5-0.6
	c-0.3,0.3-0.6,0.5-1,0.7c-0.4,0.2-0.8,0.2-1.2,0.2c-0.8,0-1.4-0.2-1.9-0.7s-0.8-1.1-0.9-1.8h5.9v-0.3c0-0.7-0.1-1.3-0.4-1.9
	c-0.3-0.5-0.7-1-1.2-1.3s-1.1-0.5-1.8-0.5s-1.3,0.2-1.8,0.5s-0.9,0.7-1.2,1.3c-0.3,0.5-0.4,1.2-0.4,1.9s0.2,1.3,0.5,1.9
	C233.2,17.4,233.5,17.7,234.1,18.1L234.1,18.1z M234.1,12.8c0.5-0.4,1-0.7,1.7-0.7s1.3,0.2,1.7,0.7c0.5,0.4,0.7,1,0.8,1.7h-5
	C233.3,13.8,233.6,13.2,234.1,12.8z M226.6,20c-0.2,0.2-0.5,0.3-0.8,0.3c-0.5,0-0.9-0.2-1.3-0.5l-0.4,0.7c0.2,0.2,0.5,0.4,0.8,0.5
	s0.6,0.2,1,0.2c0.5,0,1-0.1,1.4-0.4s0.7-0.8,1-1.4l3.6-8H231l-2.7,6l-2.7-6h-1l3.2,7.1l-0.3,0.7C227.1,19.6,226.9,19.9,226.6,20
	L226.6,20z M226.7,36.5v-7.2h-0.9l-3,5.2l-3-5.2h-1v7.2h0.9v-5.7l2.9,4.8h0.4l2.9-4.8v5.7H226.7z M1.6,30.2h4.5v6.3H7v-7.2H0.7v7.2
	h0.9L1.6,30.2z M28.6,33.3h1.6l2.6,3.2h1.1l-3-3.7l2.8-3.5h-1l-2.5,3.2h-1.6v-3.2h-1v7.2h1L28.6,33.3z M211.3,29.8
	c-0.5,0.3-1,0.7-1.3,1.3s-0.5,1.2-0.5,1.9c0,0.7,0.2,1.3,0.5,1.9s0.7,1,1.3,1.3c0.5,0.3,1.2,0.5,1.8,0.5s1.3-0.2,1.8-0.5
	s1-0.7,1.3-1.3c0.3-0.5,0.5-1.2,0.5-1.9c0-0.7-0.2-1.3-0.5-1.9c-0.3-0.5-0.7-1-1.3-1.3c-0.5-0.3-1.2-0.5-1.8-0.5
	S211.8,29.4,211.3,29.8z M215.4,31.5c0.2,0.4,0.3,0.9,0.3,1.4s-0.1,1-0.3,1.4c-0.2,0.4-0.5,0.8-0.9,1s-0.8,0.3-1.3,0.3
	s-1-0.1-1.4-0.3s-0.7-0.6-0.9-1c-0.2-0.4-0.3-0.9-0.3-1.4s0.1-1,0.3-1.4s0.5-0.7,0.9-1c0.4-0.2,0.9-0.4,1.4-0.4s1,0.1,1.3,0.4
	C214.9,30.7,215.2,31,215.4,31.5z M216.5,18.5h6.4v1.7h0.9v-2.6h-1.1v-6.3h-5.2l-0.1,2.4c-0.1,1.2-0.2,2.2-0.4,2.8
	c-0.2,0.7-0.5,1-1,1.1h-0.4v2.6h0.9L216.5,18.5L216.5,18.5z M218,16.3c0.1-0.7,0.2-1.5,0.3-2.5l0.1-1.6h3.4v5.4h-4.4
	C217.6,17.4,217.9,16.9,218,16.3L218,16.3z M182.6,31.2c0-0.6-0.2-1-0.7-1.3s-1.1-0.5-1.9-0.5h-3.1v7.1h3.2c0.9,0,1.6-0.2,2.1-0.5
	s0.7-0.8,0.7-1.4c0-0.9-0.5-1.5-1.4-1.7c0.4-0.1,0.7-0.3,0.9-0.6C182.5,31.9,182.6,31.6,182.6,31.2z M181.4,33.5
	c0.3,0.2,0.4,0.5,0.4,0.9s-0.2,0.7-0.5,0.9s-0.8,0.3-1.4,0.3h-2.3v-2.5h2.3C180.7,33.2,181.2,33.3,181.4,33.5z M181.2,32.2
	c-0.3,0.2-0.7,0.3-1.3,0.3h-2.1v-2.4h2.1c0.5,0,1,0.1,1.3,0.3c0.3,0.2,0.4,0.5,0.4,0.9S181.5,32,181.2,32.2z M256.9,11.3
	c-0.9,0-1.7,0.2-2.2,0.6c-0.5,0.4-0.8,1-0.8,1.8c0,0.6,0.1,1,0.4,1.4c0.3,0.4,0.7,0.6,1.3,0.8l-1.8,2.5h1l1.6-2.3h2.5v2.3h0.9v-7.1
	H256.9z M259,15.4h-2.1c-1.3,0-2-0.5-2-1.6s0.7-1.6,2.1-1.6h2.1v3.2C259.1,15.4,259,15.4,259,15.4z M252.1,16.6
	c-0.2,0.4-0.5,0.6-0.9,0.8c-0.4,0.2-0.8,0.3-1.2,0.3c-0.5,0-1-0.1-1.4-0.3c-0.4-0.2-0.7-0.6-1-1c-0.2-0.4-0.3-0.9-0.3-1.5
	c0-0.5,0.1-1,0.3-1.4s0.6-0.7,1-1c0.4-0.2,0.9-0.4,1.4-0.4c0.4,0,0.8,0.1,1.2,0.3s0.7,0.4,0.9,0.8l0.7-0.5c-0.3-0.5-0.7-0.8-1.1-1
	c-0.5-0.2-1-0.4-1.6-0.4c-0.7,0-1.3,0.2-1.9,0.5c-0.5,0.3-1,0.7-1.3,1.3s-0.5,1.2-0.5,1.9s0.2,1.3,0.5,1.9c0.3,0.5,0.7,1,1.3,1.3
	s1.2,0.5,1.9,0.5c0.6,0,1.1-0.1,1.6-0.4c0.5-0.2,0.9-0.6,1.1-1.1C252.8,17.2,252.1,16.6,252.1,16.6z M230,36.3
	c0.1-0.1,0.2-0.3,0.2-0.5s-0.1-0.4-0.2-0.5c-0.1-0.1-0.3-0.2-0.5-0.2s-0.4,0.1-0.5,0.2s-0.2,0.3-0.2,0.5s0.1,0.4,0.2,0.5
	c0.1,0.1,0.3,0.2,0.5,0.2S229.9,36.4,230,36.3z M73.9,12.8v5.7h0.9v-7.2H74L69.2,17v-5.7h-0.9v7.2h0.8L73.9,12.8z M115,15.3h4.5v3.2
	h0.9v-7.2h-0.9v3.2H115v-3.2h-1v7.2h1V15.3z M109,29.8c-0.5,0.3-1,0.7-1.3,1.3c-0.3,0.5-0.5,1.2-0.5,1.9c0,0.7,0.2,1.3,0.5,1.9
	c0.3,0.5,0.7,1,1.3,1.3c0.5,0.3,1.2,0.5,1.8,0.5c0.7,0,1.3-0.2,1.9-0.5c0.5-0.3,1-0.7,1.3-1.3c0.3-0.5,0.5-1.2,0.5-1.9
	c0-0.7-0.2-1.3-0.5-1.9c-0.3-0.5-0.7-1-1.3-1.3c-0.5-0.3-1.2-0.5-1.9-0.5C110.2,29.3,109.6,29.4,109,29.8z M113.2,31.5
	c0.2,0.4,0.3,0.9,0.3,1.4s-0.1,1-0.3,1.4c-0.2,0.4-0.5,0.8-0.9,1s-0.8,0.3-1.4,0.3c-0.5,0-1-0.1-1.4-0.3s-0.7-0.6-0.9-1
	c-0.2-0.4-0.3-0.9-0.3-1.4s0.1-1,0.3-1.4c0.2-0.4,0.5-0.7,0.9-1c0.4-0.2,0.9-0.4,1.4-0.4s1,0.1,1.4,0.4
	C112.6,30.7,113,31,113.2,31.5z M106.8,18.1c0.6,0.3,1.2,0.5,1.9,0.5c0.6,0,1.1-0.1,1.6-0.3c0.5-0.2,0.9-0.5,1.2-0.9l-0.5-0.6
	c-0.3,0.3-0.6,0.5-1,0.7c-0.4,0.2-0.8,0.2-1.2,0.2c-0.8,0-1.4-0.2-1.9-0.7s-0.8-1.1-0.9-1.8h5.9v-0.3c0-0.7-0.1-1.3-0.4-1.9
	c-0.3-0.5-0.7-1-1.2-1.3s-1.1-0.5-1.8-0.5s-1.3,0.2-1.8,0.5s-0.9,0.7-1.2,1.3c-0.3,0.5-0.4,1.2-0.4,1.9s0.2,1.3,0.5,1.9
	C105.9,17.4,106.2,17.7,106.8,18.1z M106.8,12.8c0.5-0.4,1-0.7,1.7-0.7s1.3,0.2,1.7,0.7c0.5,0.4,0.7,1,0.8,1.7h-5
	C106,13.8,106.3,13.2,106.8,12.8z M116.5,29.3v7.1h3.2c0.9,0,1.6-0.2,2.1-0.5s0.7-0.8,0.7-1.4c0-0.9-0.5-1.5-1.4-1.7
	c0.4-0.1,0.7-0.3,0.9-0.6c0.2-0.3,0.3-0.6,0.3-1c0-0.6-0.2-1-0.7-1.3s-1.1-0.5-1.9-0.5L116.5,29.3L116.5,29.3z M121.1,33.5
	c0.3,0.2,0.4,0.5,0.4,0.9s-0.2,0.7-0.5,0.9s-0.8,0.3-1.4,0.3h-2.3v-2.5h2.3C120.4,33.2,120.9,33.3,121.1,33.5z M121.3,31.3
	c0,0.4-0.1,0.7-0.4,0.9c-0.3,0.2-0.7,0.3-1.3,0.3h-2.1v-2.4h2.1c0.5,0,1,0.1,1.3,0.3C121.2,30.6,121.3,30.9,121.3,31.3z M100.7,29.7
	c-0.5,0.3-0.8,0.6-1.1,1.1v-1.4h-0.9v9.7h1v-4c0.3,0.5,0.7,0.8,1.1,1.1c0.5,0.2,1,0.4,1.6,0.4c0.7,0,1.3-0.1,1.8-0.4
	c0.5-0.3,1-0.7,1.3-1.3c0.3-0.5,0.5-1.2,0.5-1.9c0-0.7-0.2-1.3-0.5-1.9c-0.3-0.5-0.7-1-1.3-1.3c-0.5-0.3-1.1-0.5-1.8-0.5
	C101.8,29.3,101.2,29.4,100.7,29.7z M104.6,31.5c0.2,0.4,0.4,0.9,0.4,1.4s-0.1,1-0.4,1.4c-0.2,0.4-0.5,0.8-0.9,1s-0.9,0.3-1.4,0.3
	s-1-0.1-1.4-0.3s-0.7-0.6-0.9-1c-0.2-0.4-0.3-0.9-0.3-1.4s0.1-1,0.3-1.4c0.2-0.4,0.5-0.8,0.9-1s0.9-0.4,1.4-0.4s0.9,0.1,1.4,0.4
	C104,30.7,104.4,31,104.6,31.5z M89.3,18.1c0.6,0.3,1.2,0.5,1.9,0.5c0.6,0,1.1-0.1,1.6-0.3c0.5-0.3,0.9-0.6,1.2-0.9l-0.5-0.6
	c-0.3,0.3-0.6,0.5-1,0.7c-0.4,0.2-0.8,0.2-1.2,0.2c-0.8,0-1.4-0.2-1.9-0.7s-0.8-1.1-0.9-1.8h5.9v-0.3c0-0.7-0.1-1.3-0.4-1.9
	c-0.3-0.5-0.7-1-1.2-1.3s-1.1-0.5-1.8-0.5s-1.3,0.2-1.8,0.5c-0.5,0.4-0.9,0.8-1.2,1.3c-0.3,0.5-0.4,1.2-0.4,1.9s0.2,1.3,0.5,1.9
	C88.3,17.3,88.8,17.7,89.3,18.1z M89.3,12.8c0.5-0.4,1-0.7,1.7-0.7s1.3,0.2,1.7,0.7c0.5,0.4,0.7,1,0.8,1.7h-5
	C88.6,13.8,88.8,13.2,89.3,12.8z M88,29.3h-6.3v0.9h2.7v6.3h0.9v-6.3H88V29.3z M30.5,18.1c0.6,0.3,1.2,0.5,1.9,0.5
	c0.6,0,1.1-0.1,1.6-0.3c0.5-0.2,0.9-0.5,1.2-0.9l-0.5-0.6c-0.3,0.3-0.6,0.5-1,0.7c-0.4,0.2-0.8,0.2-1.2,0.2c-0.8,0-1.4-0.2-1.9-0.7
	s-0.8-1.1-0.9-1.8h5.9v-0.3c0-0.7-0.1-1.3-0.4-1.9c-0.3-0.5-0.7-1-1.2-1.3s-1.1-0.5-1.8-0.5s-1.3,0.2-1.8,0.5s-0.9,0.7-1.2,1.3
	c-0.3,0.5-0.4,1.2-0.4,1.9s0.2,1.3,0.5,1.9C29.6,17.4,29.9,17.7,30.5,18.1z M30.5,12.8c0.5-0.4,1-0.7,1.7-0.7s1.3,0.2,1.7,0.7
	c0.5,0.4,0.7,1,0.8,1.7h-5C29.7,13.8,30,13.2,30.5,12.8z M97.5,15.3h4.5v3.2h1v-7.2h-1v3.2h-4.5v-3.2h-0.9v7.2h0.9V15.3z M90.4,29.3
	h-1v7.2h0.9l4.7-5.7v5.7h0.9v-7.2h-0.8L90.4,35V29.3z M155.9,17.1c0.3,0.5,0.7,0.8,1.1,1.1c0.5,0.2,1,0.4,1.6,0.4
	c0.7,0,1.3-0.1,1.8-0.4s1-0.7,1.3-1.3c0.3-0.5,0.5-1.2,0.5-1.9s-0.2-1.3-0.5-1.9c-0.3-0.5-0.7-1-1.3-1.3c-0.5-0.3-1.1-0.5-1.8-0.5
	c-0.6,0-1.1,0.1-1.6,0.4s-0.8,0.6-1.1,1.1v-1.5H155V21h1v-3.9H155.9z M156.3,13.5c0.2-0.4,0.5-0.8,0.9-1s0.9-0.4,1.4-0.4
	s0.9,0.1,1.4,0.4c0.4,0.2,0.7,0.6,0.9,1s0.4,0.9,0.4,1.4s-0.1,1-0.4,1.4c-0.2,0.4-0.5,0.8-0.9,1s-0.9,0.3-1.4,0.3s-1-0.1-1.4-0.3
	s-0.7-0.6-0.9-1s-0.3-0.9-0.3-1.4C155.9,14.4,156,13.9,156.3,13.5z M146.4,31c-0.3,0.5-0.5,1.2-0.5,1.9c0,0.7,0.2,1.3,0.5,1.9
	c0.3,0.5,0.7,1,1.3,1.3s1.2,0.5,1.9,0.5c0.6,0,1.1-0.1,1.6-0.4c0.5-0.2,0.9-0.6,1.1-1.1l-0.7-0.5c-0.2,0.4-0.5,0.6-0.9,0.8
	s-0.8,0.3-1.2,0.3c-0.5,0-1-0.1-1.4-0.3s-0.7-0.6-1-1c-0.2-0.4-0.3-0.9-0.3-1.5c0-0.5,0.1-1,0.3-1.4s0.6-0.7,1-1
	c0.4-0.2,0.9-0.4,1.4-0.4c0.4,0,0.8,0.1,1.2,0.3c0.4,0.2,0.7,0.4,0.9,0.8l0.7-0.5c-0.3-0.5-0.7-0.8-1.1-1c-0.5-0.2-1-0.4-1.6-0.4
	c-0.7,0-1.3,0.2-1.9,0.5C147.1,30.1,146.7,30.5,146.4,31z M154.4,36.5l1.6-2.3h2.5v2.3h0.9v-7.1h-3c-0.9,0-1.7,0.2-2.2,0.6
	s-0.8,1-0.8,1.8c0,0.6,0.1,1,0.4,1.4c0.3,0.4,0.7,0.6,1.3,0.8l-1.8,2.5C153.3,36.5,154.4,36.5,154.4,36.5z M154.4,31.8
	c0-1.1,0.7-1.6,2.1-1.6h2.1v3.2h-2.1C155.1,33.4,154.4,32.9,154.4,31.8z M141.7,12.8l2.8,4.8h0.5l2.9-4.8v5.7h0.8v-7.2h-0.9l-3,5.2
	l-3-5.2h-1v7.2h0.9V12.8z M168.7,29.3c-0.7,0-1.3,0.2-1.9,0.5c-0.5,0.3-1,0.7-1.3,1.3S165,32.3,165,33s0.2,1.3,0.5,1.9
	c0.3,0.5,0.7,1,1.3,1.3s1.2,0.5,1.9,0.5c0.6,0,1.1-0.1,1.6-0.4c0.5-0.2,0.9-0.6,1.1-1.1l-0.7-0.5c-0.2,0.4-0.5,0.6-0.9,0.8
	s-0.8,0.3-1.2,0.3c-0.5,0-1-0.1-1.4-0.3s-0.7-0.6-1-1c-0.2-0.4-0.3-0.9-0.3-1.5c0-0.5,0.1-1,0.3-1.4s0.6-0.7,1-1
	c0.4-0.2,0.9-0.4,1.4-0.4c0.4,0,0.8,0.1,1.2,0.3c0.4,0.2,0.7,0.4,0.9,0.8l0.7-0.5c-0.3-0.5-0.7-0.8-1.1-1
	C169.8,29.4,169.3,29.3,168.7,29.3z M133.5,18.1c0.6,0.3,1.2,0.5,1.9,0.5c0.6,0,1.1-0.1,1.6-0.3c0.5-0.2,0.9-0.5,1.2-0.9l-0.5-0.6
	c-0.3,0.3-0.6,0.5-1,0.7c-0.4,0.2-0.8,0.2-1.2,0.2c-0.8,0-1.4-0.2-1.9-0.7s-0.8-1.1-0.9-1.8h5.9v-0.3c0-0.7-0.1-1.3-0.4-1.9
	c-0.3-0.5-0.7-1-1.2-1.3s-1.1-0.5-1.8-0.5s-1.3,0.2-1.8,0.5s-0.9,0.7-1.2,1.3c-0.3,0.5-0.4,1.2-0.4,1.9s0.2,1.3,0.5,1.9
	C132.6,17.4,133,17.7,133.5,18.1L133.5,18.1z M133.5,12.8c0.5-0.4,1-0.7,1.7-0.7s1.3,0.2,1.7,0.7c0.5,0.4,0.7,1,0.8,1.7h-5
	C132.8,13.8,133,13.2,133.5,12.8z M134,36.5h0.9v-6.3h2.7v-0.9h-6.3v0.9h2.7L134,36.5z M127.2,29.3c-0.6,0-1.1,0.1-1.6,0.3
	c-0.5,0.2-0.9,0.4-1.3,0.7l0.4,0.7c0.3-0.3,0.7-0.5,1.1-0.6c0.4-0.2,0.8-0.2,1.3-0.2c0.7,0,1.2,0.2,1.5,0.5s0.5,0.8,0.5,1.4v0.4
	h-2.3c-1,0-1.7,0.2-2.1,0.6s-0.6,0.9-0.6,1.5s0.2,1.1,0.7,1.5s1.1,0.6,1.9,0.6c0.6,0,1.1-0.1,1.5-0.3c0.4-0.2,0.7-0.5,1-0.9v1.1h0.9
	V32c0-0.9-0.2-1.6-0.7-2.1C128.8,29.5,128.1,29.3,127.2,29.3L127.2,29.3z M129.1,34.3c-0.2,0.5-0.5,0.8-0.9,1.1
	c-0.4,0.2-0.9,0.4-1.4,0.4c-0.6,0-1-0.1-1.3-0.4c-0.3-0.2-0.5-0.6-0.5-1c0-0.8,0.6-1.3,1.8-1.3h2.2L129.1,34.3L129.1,34.3z
	 M165.3,18.1c0.6,0.3,1.2,0.5,1.9,0.5c0.6,0,1.1-0.1,1.6-0.3c0.5-0.2,0.9-0.5,1.2-0.9l-0.5-0.6c-0.3,0.3-0.6,0.5-1,0.7
	c-0.4,0.2-0.8,0.2-1.2,0.2c-0.8,0-1.4-0.2-1.9-0.7s-0.8-1.1-0.8-1.8h5.9v-0.3c0-0.7-0.1-1.3-0.4-1.9c-0.3-0.5-0.7-1-1.2-1.3
	s-1.1-0.5-1.8-0.5s-1.3,0.2-1.8,0.5s-0.9,0.7-1.2,1.3c-0.3,0.5-0.4,1.2-0.4,1.9s0.2,1.3,0.5,1.9C164.5,17.4,164.8,17.7,165.3,18.1
	L165.3,18.1z M165.3,12.8c0.5-0.4,1-0.7,1.7-0.7s1.3,0.2,1.7,0.7c0.5,0.4,0.7,1,0.8,1.7h-5C164.6,13.8,164.8,13.2,165.3,12.8z
	 M128.7,12.8v5.7h1v-7.2h-0.9l-4.7,5.7v-5.7h-0.9v7.2h0.8L128.7,12.8z M43.8,29.3v7.2h0.9v-3.2h4.5v3.2h1v-7.2h-1v3.2h-4.5v-3.2
	H43.8z M189.6,12.8l2.9,4.8h0.5l2.8-4.8v5.7h0.9v-7.2h-0.9l-3,5.2l-3.1-5.2h-0.9v7.2h0.8V12.8z M186,30.8v-1.4h-1v9.7h1v-4
	c0.3,0.5,0.7,0.8,1.1,1.1c0.5,0.2,1,0.4,1.6,0.4c0.7,0,1.3-0.1,1.8-0.4c0.5-0.3,1-0.7,1.3-1.3c0.3-0.5,0.5-1.2,0.5-1.9
	c0-0.7-0.2-1.3-0.5-1.9c-0.3-0.5-0.7-1-1.3-1.3c-0.5-0.3-1.1-0.5-1.8-0.5c-0.6,0-1.1,0.1-1.6,0.4C186.6,29.9,186.3,30.3,186,30.8z
	 M187.3,30.5c0.4-0.2,0.9-0.4,1.4-0.4s0.9,0.1,1.3,0.4c0.4,0.2,0.7,0.6,0.9,1s0.4,0.9,0.4,1.4s-0.1,1-0.4,1.4
	c-0.2,0.4-0.5,0.8-0.9,1s-0.9,0.3-1.3,0.3c-0.5,0-1-0.1-1.4-0.3s-0.7-0.6-0.9-1c-0.2-0.4-0.3-0.9-0.3-1.4s0.1-1,0.3-1.4
	C186.6,31,186.9,30.7,187.3,30.5z M37.3,18.5h6.4v1.7h0.9v-2.6h-1.1v-6.3h-5.2l-0.1,2.4c-0.1,1.2-0.2,2.2-0.4,2.8
	c-0.2,0.6-0.5,1-1,1.1h-0.4v2.6h0.9C37.3,20.2,37.3,18.5,37.3,18.5z M38.7,16.3c0.1-0.7,0.2-1.5,0.3-2.5v-1.6h3.4v5.4H38
	C38.4,17.4,38.6,16.9,38.7,16.3z M193.8,30.3l0.4,0.7c0.3-0.3,0.7-0.5,1.1-0.6c0.4-0.2,0.8-0.2,1.3-0.2c0.7,0,1.2,0.2,1.5,0.5
	s0.5,0.8,0.5,1.4v0.4h-2.3c-1,0-1.7,0.2-2.1,0.6c-0.4,0.4-0.6,0.9-0.6,1.5s0.2,1.1,0.7,1.5s1.1,0.6,1.9,0.6c0.6,0,1.1-0.1,1.5-0.3
	s0.7-0.5,1-0.9v1.1h0.9V32c0-0.9-0.2-1.6-0.7-2.1s-1.2-0.7-2.1-0.7c-0.6,0-1.1,0.1-1.6,0.3C194.6,29.7,194.2,29.9,193.8,30.3
	L193.8,30.3z M198.6,34.3c-0.2,0.5-0.5,0.8-0.9,1.1c-0.4,0.2-0.8,0.4-1.4,0.4c-0.6,0-1-0.1-1.3-0.4c-0.3-0.2-0.5-0.6-0.5-1
	c0-0.8,0.6-1.3,1.8-1.3h2.2L198.6,34.3L198.6,34.3z M35,31c-0.3,0.5-0.5,1.2-0.5,1.9c0,0.7,0.2,1.3,0.5,1.9s0.7,1,1.3,1.3
	c0.5,0.3,1.2,0.5,1.8,0.5s1.3-0.2,1.8-0.5s1-0.7,1.3-1.3c0.3-0.5,0.5-1.2,0.5-1.9c0-0.7-0.2-1.3-0.5-1.9c-0.3-0.5-0.7-1-1.3-1.3
	c-0.5-0.3-1.2-0.5-1.8-0.5s-1.3,0.2-1.8,0.5C35.7,30.1,35.3,30.5,35,31z M36.8,30.5c0.4-0.2,0.9-0.4,1.4-0.4s1,0.1,1.3,0.4
	c0.4,0.2,0.7,0.5,0.9,1c0.2,0.4,0.3,0.9,0.3,1.4s-0.1,1-0.3,1.4c-0.2,0.4-0.5,0.8-0.9,1s-0.8,0.3-1.3,0.3s-1-0.1-1.4-0.3
	s-0.7-0.6-0.9-1c-0.2-0.4-0.3-0.9-0.3-1.4s0.1-1,0.3-1.4C36,31,36.4,30.7,36.8,30.5z M200.5,18.1c0.6,0.3,1.2,0.5,1.9,0.5
	c0.6,0,1.1-0.1,1.6-0.3c0.5-0.2,0.9-0.5,1.2-0.9l-0.5-0.6c-0.3,0.3-0.6,0.5-1,0.7c-0.4,0.2-0.8,0.2-1.2,0.2c-0.8,0-1.4-0.2-1.9-0.7
	s-0.8-1.1-0.8-1.8h5.9v-0.3c0-0.7-0.1-1.3-0.4-1.9c-0.3-0.5-0.7-1-1.2-1.3s-1.1-0.5-1.8-0.5s-1.3,0.2-1.8,0.5s-0.9,0.7-1.2,1.3
	c-0.3,0.5-0.4,1.2-0.4,1.9s0.2,1.3,0.5,1.9C199.7,17.4,200,17.7,200.5,18.1L200.5,18.1z M200.5,12.8c0.5-0.4,1-0.7,1.7-0.7
	s1.3,0.2,1.7,0.7c0.5,0.4,0.7,1,0.8,1.7h-5C199.8,13.8,200,13.2,200.5,12.8z M208.7,15.3h4.5v3.2h1v-7.2h-1v3.2h-4.5v-3.2h-0.9v7.2
	h0.9V15.3z M202.9,32.8c-0.3-0.3-0.5-0.7-0.5-1.2v-2.3h-1v2.3c0,0.8,0.2,1.4,0.7,1.8s1.1,0.6,2,0.6c0.8,0,1.6-0.2,2.4-0.5v3h1v-7.1
	h-1v3.4c-0.8,0.4-1.6,0.5-2.2,0.5S203.2,33.1,202.9,32.8z M50.9,12.2h4.4v6.3h1v-7.2h-6.4v7.2h1V12.2z M60,17.1
	c0.3,0.5,0.7,0.8,1.1,1.1c0.5,0.2,1,0.4,1.6,0.4c0.7,0,1.3-0.1,1.8-0.4c0.5-0.3,1-0.7,1.3-1.3c0.3-0.5,0.5-1.2,0.5-1.9
	s-0.2-1.3-0.5-1.9c-0.3-0.5-0.7-1-1.3-1.3c-0.5-0.3-1.1-0.5-1.8-0.5c-0.6,0-1.1,0.1-1.6,0.4c-0.5,0.3-0.8,0.6-1.1,1.1v-1.5h-1V21h1
	C60,21,60,17.1,60,17.1z M60.3,13.5c0.2-0.4,0.5-0.8,0.9-1s0.9-0.4,1.4-0.4s0.9,0.1,1.3,0.4c0.4,0.2,0.7,0.6,0.9,1
	c0.2,0.4,0.4,0.9,0.4,1.4s-0.1,1-0.4,1.4c-0.2,0.4-0.5,0.8-0.9,1s-0.9,0.3-1.3,0.3c-0.5,0-1-0.1-1.4-0.3s-0.7-0.6-0.9-1
	S60,15.4,60,14.9S60.1,13.9,60.3,13.5z M144,35.9c0.5-0.4,0.8-1,0.8-1.7s-0.2-1.3-0.7-1.7s-1.1-0.6-2-0.6H140v-2.5h-1v7.1h2.9
	C142.8,36.5,143.5,36.3,144,35.9z M140,35.7v-3.2h1.9c0.7,0,1.2,0.1,1.5,0.4c0.3,0.3,0.5,0.6,0.5,1.2c0,0.5-0.2,0.9-0.5,1.2
	s-0.8,0.4-1.5,0.4H140z M66.3,36.4c0.3,0.1,0.5,0.1,0.7,0.1c0.7,0,1.2-0.4,1.4-1.2s0.4-1.9,0.5-3.4l0.1-1.8h3.4v6.3h1v-7.1h-5.2
	l-0.1,2.5c0,0.8-0.1,1.5-0.2,2s-0.2,0.9-0.4,1.3c-0.2,0.3-0.5,0.5-0.8,0.5c-0.1,0-0.2,0-0.3-0.1L66.3,36.4z M81.1,35.9
	c0.5-0.4,0.8-1,0.8-1.7s-0.2-1.3-0.7-1.7s-1.1-0.6-2-0.6h-2.1v-2.5h-1v7.1H79C79.9,36.5,80.7,36.3,81.1,35.9z M77.1,35.7v-3.2h1.8
	c0.7,0,1.2,0.1,1.5,0.4c0.3,0.3,0.5,0.6,0.5,1.2c0,0.5-0.2,0.9-0.5,1.2s-0.8,0.4-1.5,0.4H77.1z M173.5,15.3h1.7l2.6,3.2h1.1l-3-3.7
	l2.8-3.5h-1l-2.5,3.2h-1.7v-3.2h-0.9v7.2h0.9L173.5,15.3z M60.5,39.1c0.5,0,1-0.1,1.4-0.4c0.4-0.3,0.7-0.8,1-1.4l3.6-8h-0.9l-2.7,6
	l-2.7-6h-1l3.2,7.1L62,37.1c-0.2,0.4-0.4,0.7-0.6,0.9c-0.2,0.2-0.5,0.3-0.8,0.3c-0.5,0-0.9-0.2-1.3-0.5l-0.4,0.7
	c0.2,0.2,0.5,0.4,0.8,0.5C59.8,39.1,60.2,39.1,60.5,39.1z M78.5,12.8l2.8,4.8h0.5l2.8-4.8v5.7h0.9v-7.2h-0.9l-3,5.2l-3.1-5.2h-0.9
	v7.2h0.9L78.5,12.8z M181.3,18.1c0.5,0.3,1.2,0.5,1.9,0.5s1.3-0.2,1.8-0.5c0.5-0.3,1-0.7,1.3-1.3c0.3-0.5,0.5-1.2,0.5-1.9
	s-0.2-1.3-0.5-1.9c-0.3-0.5-0.7-1-1.3-1.3c-0.5-0.3-1.2-0.5-1.8-0.5c-0.7,0-1.3,0.2-1.9,0.5c-0.5,0.3-1,0.7-1.3,1.3
	s-0.5,1.2-0.5,1.9s0.2,1.3,0.5,1.9C180.3,17.4,180.7,17.7,181.3,18.1z M180.8,13.5c0.2-0.4,0.5-0.7,0.9-1c0.4-0.2,0.9-0.4,1.4-0.4
	s1,0.1,1.3,0.4c0.4,0.2,0.7,0.5,0.9,1c0.2,0.4,0.3,0.9,0.3,1.4s-0.1,1-0.3,1.4s-0.5,0.8-0.9,1s-0.8,0.3-1.3,0.3s-1-0.1-1.4-0.3
	s-0.7-0.6-0.9-1s-0.3-0.9-0.3-1.4S180.6,13.9,180.8,13.5z M54,29.8c-0.5,0.3-1,0.7-1.3,1.3s-0.5,1.2-0.5,1.9c0,0.7,0.2,1.3,0.5,1.9
	c0.3,0.5,0.7,1,1.3,1.3s1.2,0.5,1.9,0.5c0.6,0,1.1-0.1,1.6-0.4c0.5-0.2,0.9-0.6,1.1-1.1l-0.7-0.5c-0.2,0.4-0.5,0.6-0.9,0.8
	s-0.8,0.3-1.2,0.3c-0.5,0-1-0.1-1.4-0.3s-0.7-0.6-1-1c-0.2-0.4-0.3-0.9-0.3-1.5c0-0.5,0.1-1,0.3-1.4s0.6-0.7,1-1
	c0.4-0.2,0.9-0.4,1.4-0.4c0.4,0,0.8,0.1,1.2,0.3c0.4,0.2,0.7,0.4,0.9,0.8l0.7-0.5c-0.3-0.5-0.7-0.8-1.1-1c-0.5-0.2-1-0.4-1.6-0.4
	C55.2,29.3,54.5,29.4,54,29.8z"/>
</svg>
