<svg version="1.1" id="Layer_1" xmlns="http://www.w3.org/2000/svg" x="0" y="0" viewBox="0 0 205 72.7" style="enable-background:new 0 0 205 72.7" xml:space="preserve"><style>.st0{fill:#060315}</style><path class="st0" d="M41.4 48.3c-.7-.5-1.5-.8-2.4-1-.9-.2-1.8-.3-2.7-.3-1.3 0-2.5.2-3.5.6-1.1.4-2 .9-2.7 1.7-.7.8-1.3 1.7-1.6 2.8l4.1.6c.2-.6.6-1.2 1.3-1.7.6-.5 1.5-.7 2.5-.7s1.8.2 2.3.7c.5.5.8 1.2.8 2.1v.1c0 .4-.2.7-.5.9-.3.2-.8.3-1.5.4-.7.1-1.6.2-2.6.3-.9.1-1.8.3-2.6.5s-1.6.5-2.3.9c-.7.4-1.2 1-1.6 1.6-.4.7-.6 1.5-.6 2.6 0 1.2.3 2.2.8 3.1.5.8 1.3 1.5 2.2 1.9.9.4 2 .6 3.2.6 1 0 1.8-.1 2.5-.4.7-.3 1.3-.6 1.8-1.1.5-.5.9-.9 1.1-1.4h.1v2.5h4.2V53.3c0-1.2-.2-2.3-.7-3.1-.3-.8-.9-1.4-1.6-1.9zm-2 10.8c0 .7-.2 1.3-.5 1.9-.3.6-.8 1-1.5 1.4-.6.3-1.4.5-2.3.5-.9 0-1.7-.2-2.2-.6-.6-.4-.9-1-.9-1.8 0-.6.1-1 .4-1.4.3-.4.7-.6 1.2-.8.5-.2 1.1-.3 1.8-.4.3 0 .6-.1 1-.1.4-.1.8-.1 1.2-.2.4-.1.8-.2 1.1-.3.3-.1.6-.2.7-.3v2.1zM33.6 23.9c1.2-.7 2.1-1.8 2.7-3.3.7-1.4 1-3.2 1-5.2 0-2.1-.3-3.8-1-5.2-.7-1.4-1.6-2.5-2.8-3.2-1.2-.7-2.4-1.1-3.9-1.1-1.1 0-2 .2-2.7.6-.7.4-1.3.8-1.7 1.3-.4.5-.7 1-1 1.4h-.3v-3h-4.3v25.5H24v-9.9h.2c.2.5.6.9 1 1.4.4.5 1 .9 1.7 1.3s1.6.5 2.6.5c1.6.1 2.9-.3 4.1-1.1zm-7.5-3.2c-.6-.5-1.1-1.2-1.5-2.1-.3-.9-.5-2-.5-3.2 0-1.2.2-2.2.5-3.1.3-.9.8-1.6 1.5-2.1s1.4-.7 2.4-.7 1.8.3 2.4.8c.7.5 1.1 1.2 1.5 2.1.3.9.5 1.9.5 3.1 0 1.2-.2 2.2-.5 3.1-.3.9-.8 1.6-1.5 2.1s-1.5.8-2.4.8c-1 0-1.8-.3-2.4-.8zM4.5 14.2h10.7v-3.7H4.5V3.8h11.6V0H0v24.7h16.2V21H4.5zM43.7 23.9c1.4.8 3 1.2 4.8 1.2 1.4 0 2.7-.2 3.8-.7 1.1-.4 2-1.1 2.8-1.9.7-.8 1.2-1.7 1.5-2.8l-4.1-.5c-.2.5-.5 1-.9 1.3-.4.4-.8.6-1.3.8-.5.2-1.1.3-1.7.3-.9 0-1.8-.2-2.5-.6-.7-.4-1.3-1-1.7-1.8-.4-.7-.6-1.6-.6-2.7h12.9v-1.3c0-1.6-.2-3-.7-4.2-.5-1.2-1.1-2.2-1.9-2.9-.8-.8-1.7-1.3-2.7-1.7-1-.4-2.1-.6-3.2-.6-1.8 0-3.3.4-4.6 1.2-1.3.8-2.3 1.9-3.1 3.4-.7 1.4-1.1 3.1-1.1 5s.4 3.6 1.1 5.1c.9 1.5 1.9 2.6 3.2 3.4zM46 10c.7-.4 1.5-.7 2.4-.7.8 0 1.6.2 2.2.6.6.4 1.1.9 1.5 1.6.4.7.5 1.4.5 2.2h-8.7c0-.7.2-1.4.5-2 .4-.7 1-1.3 1.6-1.7zM121.9 24.7h4.2V9.8h6V6.2h-16.2v3.6h6zM82.2 23.9c1.4.8 3 1.2 4.8 1.2 1.4 0 2.7-.2 3.8-.7 1.1-.4 2-1.1 2.8-1.9.7-.8 1.2-1.7 1.5-2.8l-4.1-.4c-.2.5-.5 1-.9 1.3s-.8.6-1.3.8c-.5.2-1.1.3-1.7.3-.9 0-1.8-.2-2.5-.6-.7-.4-1.3-1-1.7-1.8-.4-.7-.6-1.6-.6-2.7h12.9v-1.3c0-1.6-.2-3-.7-4.2-.5-1.2-1.1-2.2-1.9-2.9-.7-.8-1.6-1.3-2.6-1.7-1-.4-2.1-.6-3.2-.6-1.8 0-3.3.4-4.6 1.2-1.3.8-2.3 1.9-3.1 3.4-.7 1.4-1.1 3.1-1.1 5s.4 3.6 1.1 5.1c.7 1.4 1.7 2.5 3.1 3.3zM84.5 10c.7-.4 1.5-.7 2.4-.7.8 0 1.6.2 2.2.6.6.4 1.1.9 1.5 1.6.4.7.5 1.4.5 2.2h-8.7c0-.7.2-1.4.6-2 .2-.7.8-1.3 1.5-1.7zM137.6 23.9c1.4.8 3 1.2 4.8 1.2 1.4 0 2.7-.2 3.8-.7 1.1-.4 2-1.1 2.8-1.9.7-.8 1.2-1.7 1.5-2.8l-4.1-.5c-.2.5-.5 1-.9 1.3-.4.4-.8.6-1.3.8-.5.2-1.1.3-1.7.3-.9 0-1.8-.2-2.5-.6-.7-.4-1.3-1-1.7-1.8-.4-.7-.6-1.6-.6-2.7h12.9v-1.3c0-1.6-.2-3-.7-4.2-.5-1.2-1.1-2.2-1.9-2.9-.8-.8-1.7-1.3-2.7-1.7-1-.4-2.1-.6-3.2-.6-1.8 0-3.3.4-4.6 1.2-1.3.8-2.3 1.9-3.1 3.4-.7 1.4-1.1 3.1-1.1 5s.4 3.6 1.1 5.1c.8 1.5 1.8 2.6 3.2 3.4zm2.3-13.9c.7-.4 1.5-.7 2.4-.7.8 0 1.6.2 2.2.6.6.4 1.1.9 1.5 1.6.4.7.5 1.4.5 2.2h-8.7c0-.7.2-1.4.5-2 .4-.7.9-1.3 1.6-1.7zM100.1 48.3c-.7-.5-1.5-.8-2.4-1-.9-.2-1.8-.3-2.7-.3-1.3 0-2.5.2-3.5.6-1.1.4-2 .9-2.7 1.7-.7.8-1.3 1.7-1.6 2.8l4.1.6c.2-.6.6-1.2 1.3-1.7.6-.5 1.5-.7 2.5-.7s1.8.2 2.3.7c.5.5.8 1.2.8 2.1v.1c0 .4-.2.7-.5.9-.3.2-.8.3-1.5.4-.7.1-1.6.2-2.6.3-.9.1-1.8.3-2.6.5s-1.6.5-2.3.9c-.7.4-1.2 1-1.6 1.6-.4.7-.6 1.5-.6 2.6 0 1.2.3 2.2.8 3.1.5.8 1.3 1.5 2.2 1.9.9.4 2 .6 3.2.6 1 0 1.8-.1 2.5-.4.7-.3 1.3-.6 1.8-1.1.5-.5.9-.9 1.1-1.4h.1v2.5h4.2V53.3c0-1.2-.2-2.3-.7-3.1-.3-.8-.9-1.4-1.6-1.9zm-1.9 10.8c0 .7-.2 1.3-.5 1.9-.3.6-.8 1-1.5 1.4-.6.3-1.4.5-2.3.5-.9 0-1.7-.2-2.2-.6-.6-.4-.9-1-.9-1.8 0-.6.1-1 .4-1.4.3-.4.7-.6 1.2-.8.5-.2 1.1-.3 1.8-.4.3 0 .6-.1 1-.1.4-.1.8-.1 1.2-.2.4-.1.8-.2 1.1-.3.3-.1.6-.2.7-.3v2.1zM160.9 24.5c.7.4 1.6.5 2.6.5 1.5 0 2.8-.4 3.9-1.1s2.1-1.8 2.7-3.3c.7-1.4 1-3.2 1-5.2 0-2.1-.3-3.8-1-5.2-.7-1.4-1.6-2.5-2.8-3.2-1.2-.7-2.4-1.1-3.9-1.1-1.1 0-2 .2-2.7.6-.7.4-1.3.8-1.7 1.3-.4.5-.7 1-1 1.4h-.3v-3h-4.3v25.5h4.4v-9.9h.2c.2.5.6.9 1 1.4.6.5 1.2 1 1.9 1.3zm-3-9c0-1.2.2-2.2.5-3.1.3-.9.8-1.6 1.5-2.1s1.4-.7 2.4-.7 1.8.3 2.4.8c.7.5 1.1 1.2 1.5 2.1s.5 1.9.5 3.1c0 1.2-.2 2.2-.5 3.1-.3.9-.8 1.6-1.5 2.1s-1.5.8-2.4.8c-.9 0-1.7-.2-2.4-.7-.6-.5-1.1-1.2-1.5-2.1-.3-1.1-.5-2.1-.5-3.3zM153 48.3c-.7-.5-1.5-.8-2.4-1-.9-.2-1.8-.3-2.7-.3-1.3 0-2.5.2-3.5.6-1.1.4-2 .9-2.7 1.7-.7.8-1.3 1.7-1.6 2.8l4.1.6c.2-.6.6-1.2 1.3-1.7.6-.5 1.5-.7 2.5-.7s1.8.2 2.3.7c.5.5.8 1.2.8 2.1v.1c0 .4-.2.7-.5.9-.3.2-.8.3-1.5.4-.7.1-1.6.2-2.6.3-.9.1-1.8.3-2.6.5s-1.6.5-2.3.9c-.7.4-1.2 1-1.6 1.6-.4.7-.6 1.5-.6 2.6 0 1.2.3 2.2.8 3.1.5.8 1.3 1.5 2.2 1.9.9.4 2 .6 3.2.6 1 0 1.8-.1 2.5-.4.7-.3 1.3-.6 1.8-1.1.5-.5.9-.9 1.1-1.4h.1v2.5h4.2V53.3c0-1.2-.2-2.3-.7-3.1-.3-.8-.9-1.4-1.6-1.9zm-1.9 10.8c0 .7-.2 1.3-.5 1.9-.3.6-.8 1-1.5 1.4-.6.3-1.4.5-2.3.5-.9 0-1.7-.2-2.2-.6-.6-.4-.9-1-.9-1.8 0-.6.1-1 .4-1.4.3-.4.7-.6 1.2-.8.5-.2 1.1-.3 1.8-.4.3 0 .6-.1 1-.1.4-.1.8-.1 1.2-.2.4-.1.8-.2 1.1-.3.3-.1.6-.2.7-.3v2.1zM170.5 54.6h-7.1v-7.4h-4.3v18.5h4.3v-7.5h7.1v7.5h4.2V47.2h-4.2zM174.2 24.7h4.3V9.8h8V6.2h-12.3zM205 15.3c0-1.6-.2-3-.7-4.2-.5-1.2-1.1-2.2-1.9-2.9-.8-.8-1.7-1.3-2.7-1.7-1-.4-2.1-.6-3.2-.6-1.8 0-3.3.4-4.6 1.2-1.3.8-2.3 1.9-3.1 3.4-.7 1.4-1.1 3.1-1.1 5s.4 3.6 1.1 5.1c.7 1.4 1.8 2.5 3.1 3.3 1.4.8 3 1.2 4.8 1.2 1.4 0 2.7-.2 3.8-.7 1.1-.4 2-1.1 2.8-1.9.7-.8 1.2-1.7 1.5-2.8l-4.1-.5c-.2.5-.5 1-.9 1.3-.4.4-.8.6-1.3.8-.5.2-1.1.3-1.7.3-1 0-1.8-.2-2.5-.6-.7-.4-1.3-1-1.7-1.8-.4-.7-.6-1.6-.6-2.7h13v-1.2zm-12.9-1.6c0-.7.2-1.4.5-2 .4-.7.9-1.3 1.6-1.7.7-.4 1.5-.7 2.4-.7.8 0 1.6.2 2.2.6.6.4 1.1.9 1.5 1.6.4.7.5 1.4.5 2.2h-8.7zM61.2 48c-1.2-.7-2.4-1.1-3.9-1.1-1.1 0-2 .2-2.7.6-.7.4-1.3.8-1.7 1.3-.4.5-.7 1-1 1.4h-.3v-3.1h-4.3v25.5h4.4v-9.9h.2c.2.5.6.9 1 1.4.4.5 1 .9 1.7 1.3s1.6.5 2.6.5c1.5 0 2.8-.4 3.9-1.1 1.2-.7 2.1-1.8 2.7-3.3.7-1.4 1-3.2 1-5.2 0-2.1-.3-3.8-1-5.2-.5-1.3-1.4-2.3-2.6-3.1zM60 59.6c-.3.9-.8 1.6-1.5 2.1s-1.5.8-2.4.8c-.9 0-1.7-.2-2.4-.7-.6-.5-1.1-1.2-1.5-2.1-.3-.9-.5-2-.5-3.2 0-1.2.2-2.2.5-3.1.3-.9.8-1.6 1.5-2.1s1.4-.7 2.4-.7 1.8.3 2.4.8c.7.5 1.1 1.2 1.5 2.1.3.9.5 1.9.5 3.1.1 1-.1 2-.5 3zM79.5 54.6h-7.2v-7.4h-4.2v18.5h4.2v-7.5h7.2v7.5h4.2V47.2h-4.2zM74.7 21.9c.7-1 1.1-2.2 1.2-3.5h-4.2c-.1.7-.4 1.2-.7 1.7-.3.5-.8.8-1.3 1.1-.5.2-1.1.4-1.7.4-.9 0-1.7-.2-2.4-.7-.7-.5-1.2-1.2-1.6-2.1-.4-.9-.6-2-.6-3.3 0-1.2.2-2.3.6-3.2.4-.9.9-1.6 1.6-2.1.7-.5 1.5-.7 2.4-.7 1.1 0 1.9.3 2.5.9.6.6 1 1.3 1.2 2.2h4.2c-.1-1.3-.5-2.5-1.2-3.5s-1.6-1.8-2.8-2.3c-1.2-.6-2.5-.8-4-.8-1.8 0-3.4.4-4.7 1.2-1.3.8-2.3 1.9-3.1 3.4-.7 1.4-1.1 3.1-1.1 5s.4 3.5 1.1 5c.7 1.4 1.7 2.6 3.1 3.4 1.3.8 2.9 1.2 4.8 1.2 1.6 0 2.9-.3 4.1-.8 1-.7 1.9-1.5 2.6-2.5zM126 54.6h-3.7v2.7h3.7v8.4h4.2v-8.4h3.7v-2.7h-3.7v-3.8h8v-3.6H126zM115.1 24.7l-6.9-9.4 6.8-9.1h-5.2l-5.6 7.5h-1.6V6.2h-4.4v18.5h4.4v-7h2.1l5.1 7zM108.4 55.4c0 1.3-.1 2.4-.3 3.2-.1.9-.3 1.6-.5 2.1s-.5.9-.8 1.1-.7.3-1.2.3h-.6v3.6h1.4c1 0 1.9-.2 2.6-.5.7-.4 1.3-.9 1.8-1.6.5-.7.9-1.7 1.1-2.8.3-1.1.4-2.5.5-4l.3-6h5.3v15h4.2V47.2h-13.5l-.3 8.2z"/></svg>