<svg version="1.1" id="Layer_1" xmlns="http://www.w3.org/2000/svg" x="0" y="0" viewBox="0 0 249 73.9" style="enable-background:new 0 0 249 73.9" xml:space="preserve"><style>.st0{fill:#060315}</style><path class="st0" d="m56 25.9-6.9-9.4L56 7.4h-5.3l-5.6 7.5h-1.6V7.4h-4.3v18.5h4.3v-7h2.2l5 7zM28.4 20.6l-4-13.2h-4.5l6.4 18.3v7.2h4.2v-7.2l6.3-18.3h-4.5zM14.1 11.7c-1.4-.6-3-.9-4.9-.9H4.5V5h11.4V1.2H0v24.7h9.2c1.9 0 3.5-.3 4.9-1 1.4-.7 2.4-1.6 3.1-2.7.7-1.2 1.1-2.5 1.1-4s-.4-2.8-1.1-3.9c-.7-1.1-1.7-2-3.1-2.6zm-.7 8.5c-.4.6-.9 1.1-1.6 1.5-.7.4-1.5.6-2.5.6H4.5v-7.9h4.8c1.5 0 2.6.4 3.4 1.1.8.7 1.2 1.6 1.2 2.7 0 .7-.2 1.4-.5 2zM63.7 49.5c-.7-.5-1.5-.8-2.4-1-.9-.2-1.8-.3-2.7-.3-1.3 0-2.5.2-3.5.6-1.1.4-2 .9-2.7 1.7-.7.8-1.3 1.7-1.6 2.8l4.1.6c.2-.6.6-1.2 1.3-1.7.6-.5 1.5-.7 2.5-.7s1.8.2 2.3.7c.5.5.8 1.2.8 2.1v.1c0 .4-.2.7-.5.9-.3.2-.8.3-1.5.4-.7.1-1.6.2-2.6.3-.9.1-1.8.3-2.6.5s-1.6.5-2.3.9c-.7.4-1.2 1-1.6 1.6s-.6 1.5-.6 2.6c0 1.2.3 2.2.8 3.1.5.8 1.3 1.5 2.2 1.9.9.4 2 .6 3.2.6 1 0 1.8-.1 2.5-.4.7-.3 1.3-.6 1.8-1.1.5-.5.9-.9 1.1-1.4h.1v2.5H66V54.5c0-1.2-.2-2.3-.7-3.1-.3-.8-.9-1.4-1.6-1.9zm-1.9 10.8c0 .7-.2 1.3-.5 1.9-.3.6-.8 1-1.5 1.4-.6.3-1.4.5-2.3.5-.9 0-1.7-.2-2.2-.6-.6-.4-.9-1-.9-1.8 0-.6.1-1 .4-1.4.3-.4.7-.6 1.2-.8.5-.2 1.1-.3 1.8-.4.3 0 .6-.1 1-.1.4-.1.8-.1 1.2-.2.4-.1.8-.2 1.1-.3.3-.1.6-.2.7-.3v2.1zM57.8 7.4h4.4v18.5h-4.4zM117.4 25.9h4.3V11h6V7.4h-16.3V11h6zM248.3 10.4c-.4-.8-1-1.5-1.8-1.9-.7-.5-1.5-.8-2.4-1-.9-.2-1.8-.3-2.7-.3-1.3 0-2.5.2-3.5.6-1.1.4-2 .9-2.7 1.7-.7.8-1.3 1.7-1.6 2.8l4.1.6c.2-.6.6-1.2 1.3-1.7.6-.5 1.5-.7 2.5-.7s1.8.2 2.3.7c.5.5.8 1.2.8 2.1v.1c0 .4-.2.7-.5.9-.3.2-.8.3-1.5.4-.7.1-1.6.2-2.6.3-.9.1-1.8.3-2.6.5s-1.6.5-2.3.9c-.7.4-1.2 1-1.6 1.6-.4.7-.6 1.5-.6 2.6 0 1.2.3 2.2.8 3.1.5.8 1.3 1.5 2.2 1.9.9.4 2 .6 3.2.6 1 0 1.8-.1 2.5-.4.7-.3 1.3-.6 1.8-1.1.5-.5.9-.9 1.1-1.4h.1v2.5h4.2V13.5c.2-1.2 0-2.2-.5-3.1zm-3.6 8.9c0 .7-.2 1.3-.5 1.9-.3.6-.8 1-1.5 1.4-.6.3-1.4.5-2.3.5-.9 0-1.7-.2-2.2-.6s-.9-1-.9-1.8c0-.6.1-1 .4-1.4.3-.4.7-.6 1.2-.8.5-.2 1.1-.3 1.8-.4.3 0 .6-.1 1-.1.4-.1.8-.1 1.2-.2.4-.1.8-.2 1.1-.3.3-.1.6-.2.7-.3v2.1zM133.8 25.1c1.3.8 2.9 1.2 4.7 1.2 1.8 0 3.4-.4 4.7-1.1 1.3-.8 2.3-1.8 3.1-3.2.7-1.4 1.1-3.1 1.1-5s-.3-3.4-1-4.7c-.7-1.3-1.6-2.3-2.8-3-1.2-.7-2.5-1-4.1-1-1.4 0-2.6.3-3.7.9-1 .6-1.9 1.5-2.4 2.6h-.2c.1-1.5.5-2.8.9-3.8.5-1 1.1-1.7 2-2.2.9-.5 2-.8 3.4-.8 1.2 0 2.3-.1 3.2-.1.9-.1 1.7-.2 2.4-.4s1.3-.5 1.8-1L145.4.7c-.4.3-.9.5-1.4.6-.6.1-1.2.1-2 .1h-2.5c-3.2 0-5.6 1.1-7.2 3.3-1.6 2.1-2.4 5.4-2.4 9.8v1.7c0 2.3.4 4.2 1.1 5.7.5 1.3 1.5 2.4 2.8 3.2zm.7-10.3c.2-.7.5-1.2.9-1.7s.8-.8 1.4-1.1c.5-.2 1.1-.4 1.8-.4.9 0 1.7.2 2.3.6.7.4 1.2 1 1.5 1.9.4.8.5 1.8.5 2.9 0 1.2-.2 2.2-.5 3-.3.9-.8 1.5-1.5 2s-1.4.7-2.3.7c-1.4 0-2.4-.5-3.2-1.5-.8-1-1.2-2.4-1.2-4.2 0-.8.1-1.6.3-2.2zM60 4.7c.7 0 1.3-.2 1.8-.7.5-.5.7-1 .7-1.7s-.2-1.2-.7-1.7C61.3.2 60.7 0 60 0s-1.3.2-1.8.7c-.5.5-.7 1-.7 1.7s.2 1.2.7 1.7c.5.4 1.1.6 1.8.6zM71.6 21c.3-1.1.4-2.5.5-4l.3-6h5.3v15H82V7.4H68.5l-.3 8.2c0 1.3-.1 2.4-.3 3.2-.1.9-.3 1.6-.5 2.1s-.5.9-.8 1.1-.7.3-1.2.3h-.6v3.6h1.4c1 0 1.9-.2 2.6-.5.7-.4 1.3-.9 1.8-1.6.4-.8.8-1.7 1-2.8zM225.9 14.8h-7.1V7.4h-4.3v18.5h4.3v-7.5h7.1v7.5h4.2V7.4h-4.2zM148.3 55.8h-3.6v2.7h3.6v8.4h4.3v-8.4h3.7v-2.7h-3.7V52h8v-3.6h-12.3zM130.8 56.6c0 1.3-.1 2.4-.3 3.2-.1.9-.3 1.6-.5 2.1s-.5.9-.8 1.1c-.3.2-.7.3-1.2.3h-.6v3.6h1.4c1 0 1.9-.2 2.6-.5.7-.4 1.3-.9 1.8-1.6.5-.7.9-1.7 1.1-2.8.3-1.1.4-2.5.5-4l.3-6h5.3v15h4.2V48.4h-13.5l-.3 8.2zM165.5 25.9V13.5c0-1.2-.2-2.3-.7-3.1-.4-.8-1-1.5-1.8-1.9-.7-.5-1.5-.8-2.4-1-.9-.2-1.8-.3-2.7-.3-1.3 0-2.5.2-3.5.6-1.1.4-2 .9-2.7 1.7-.7.8-1.3 1.7-1.6 2.8l4.1.6c.2-.6.6-1.2 1.3-1.7.6-.5 1.5-.7 2.5-.7s1.8.2 2.3.7c.5.5.8 1.2.8 2.1v.1c0 .4-.2.7-.5.9-.3.2-.8.3-1.5.4-.7.1-1.6.2-2.6.3-.9.1-1.8.3-2.6.5s-1.6.5-2.3.9c-.7.4-1.2 1-1.6 1.6-.4.7-.6 1.5-.6 2.6 0 1.2.3 2.2.8 3.1.5.8 1.3 1.5 2.2 1.9.9.4 2 .6 3.2.6 1 0 1.8-.1 2.5-.4.7-.3 1.3-.6 1.8-1.1.5-.5.9-.9 1.1-1.4h.1v2.5h4.4zm-4.4-6.6c0 .7-.2 1.3-.5 1.9-.3.6-.8 1-1.5 1.4-.6.3-1.4.5-2.3.5-.9 0-1.7-.2-2.2-.6-.6-.4-.9-1-.9-1.8 0-.6.1-1 .4-1.4.3-.4.7-.6 1.2-.8.5-.2 1.1-.3 1.8-.4.3 0 .6-.1 1-.1.4-.1.8-.1 1.2-.2.4-.1.8-.2 1.1-.3.3-.1.6-.2.7-.3v2.1zM192.9 55.8h-7.2v-7.4h-4.2v18.5h4.2v-7.5h7.2v7.5h4.2V48.4h-4.2zM122.5 49.5c-.7-.5-1.5-.8-2.4-1-.9-.2-1.8-.3-2.7-.3-1.3 0-2.5.2-3.5.6-1.1.4-2 .9-2.7 1.7-.7.8-1.3 1.7-1.6 2.8l4.1.6c.2-.6.6-1.2 1.3-1.7.6-.5 1.5-.7 2.5-.7s1.8.2 2.3.7c.5.5.8 1.2.8 2.1v.1c0 .4-.2.7-.5.9-.3.2-.8.3-1.5.4-.7.1-1.6.2-2.6.3-.9.1-1.8.3-2.6.5s-1.6.5-2.3.9c-.7.4-1.2 1-1.6 1.6-.4.7-.6 1.5-.6 2.6 0 1.2.3 2.2.8 3.1.5.8 1.3 1.5 2.2 1.9.9.4 2 .6 3.2.6 1 0 1.8-.1 2.5-.4.7-.3 1.3-.6 1.8-1.1.5-.5.9-.9 1.1-1.4h.1v2.5h4.2V54.5c0-1.2-.2-2.3-.7-3.1-.3-.8-.9-1.4-1.6-1.9zm-2 10.8c0 .7-.2 1.3-.5 1.9-.3.6-.8 1-1.5 1.4-.6.3-1.4.5-2.3.5-.9 0-1.7-.2-2.2-.6-.6-.4-.9-1-.9-1.8 0-.6.1-1 .4-1.4.3-.4.7-.6 1.2-.8.5-.2 1.1-.3 1.8-.4.3 0 .6-.1 1-.1.4-.1.8-.1 1.2-.2.4-.1.8-.2 1.1-.3.3-.1.6-.2.7-.3v2.1zM175.3 49.5c-.7-.5-1.5-.8-2.4-1-.9-.2-1.8-.3-2.7-.3-1.3 0-2.5.2-3.5.6-1.1.4-2 .9-2.7 1.7-.7.8-1.3 1.7-1.6 2.8l4.1.6c.2-.6.6-1.2 1.3-1.7.6-.5 1.5-.7 2.5-.7s1.8.2 2.3.7c.5.5.8 1.2.8 2.1v.1c0 .4-.2.7-.5.9-.3.2-.8.3-1.5.4-.7.1-1.6.2-2.6.3-.9.1-1.8.3-2.6.5s-1.6.5-2.3.9c-.7.4-1.2 1-1.6 1.6s-.6 1.5-.6 2.6c0 1.2.3 2.2.8 3.1.5.8 1.3 1.5 2.2 1.9.9.4 2 .6 3.2.6 1 0 1.8-.1 2.5-.4.7-.3 1.3-.6 1.8-1.1.5-.5.9-.9 1.1-1.4h.1v2.5h4.2V54.5c0-1.2-.2-2.3-.7-3.1-.2-.8-.8-1.4-1.6-1.9zm-1.9 10.8c0 .7-.2 1.3-.5 1.9-.3.6-.8 1-1.5 1.4-.6.3-1.4.5-2.3.5-.9 0-1.7-.2-2.2-.6-.6-.4-.9-1-.9-1.8 0-.6.1-1 .4-1.4.3-.4.7-.6 1.2-.8.5-.2 1.1-.3 1.8-.4.3 0 .6-.1 1-.1.4-.1.8-.1 1.2-.2.4-.1.8-.2 1.1-.3.3-.1.6-.2.7-.3v2.1zM184.1 23.1c.7-1 1.1-2.2 1.2-3.5h-4.2c-.1.7-.4 1.2-.7 1.7-.3.5-.8.8-1.3 1.1-.5.2-1.1.4-1.7.4-.9 0-1.7-.2-2.4-.7-.7-.5-1.2-1.2-1.6-2.1-.4-.9-.6-2-.6-3.3 0-1.2.2-2.3.6-3.2.4-.9.9-1.6 1.6-2.1.7-.5 1.5-.7 2.4-.7 1.1 0 1.9.3 2.5.9.6.6 1 1.3 1.2 2.2h4.2c-.1-1.3-.5-2.5-1.2-3.5s-1.6-1.8-2.8-2.3c-1.2-.6-2.5-.8-4-.8-1.8 0-3.4.4-4.7 1.2-1.3.8-2.3 1.9-3.1 3.4-.7 1.4-1.1 3.1-1.1 5s.4 3.5 1.1 5c.7 1.4 1.7 2.6 3.1 3.4 1.3.8 2.9 1.2 4.8 1.2 1.6 0 2.9-.3 4.1-.8 1-.7 1.9-1.5 2.6-2.5zM202.1 15.1c-1.3-1.2-3.1-1.7-5.5-1.7h-4.2v-6h-4.2v18.5h8.4c1.6 0 2.9-.3 4-.8s2-1.3 2.5-2.2c.6-.9.9-2 .9-3.2 0-1.9-.6-3.4-1.9-4.6zm-3.2 6.5c-.6.5-1.4.7-2.3.7h-4.2V17h4.2c.9 0 1.7.3 2.3.8s.9 1.2.9 2c0 .7-.3 1.3-.9 1.8zM83.6 49.2c-1.2-.7-2.4-1.1-3.9-1.1-1.1 0-2 .2-2.7.6-.7.4-1.3.8-1.7 1.3-.4.5-.7 1-1 1.4H74v-3.1h-4.3v25.5h4.4V64h.2c.2.5.6.9 1 1.4.4.5 1 .9 1.7 1.3s1.6.5 2.6.5c1.5 0 2.8-.4 3.9-1.1 1.2-.7 2.1-1.8 2.7-3.3.7-1.4 1-3.2 1-5.2 0-2.1-.3-3.8-1-5.2-.5-1.4-1.5-2.4-2.6-3.2zm-1.2 11.6c-.3.9-.8 1.6-1.5 2.1s-1.5.8-2.4.8c-.9 0-1.7-.2-2.4-.7-.6-.5-1.1-1.2-1.5-2.1-.3-.9-.5-2-.5-3.2 0-1.2.2-2.2.5-3.1.3-.9.8-1.6 1.5-2.1s1.4-.7 2.4-.7 1.8.3 2.4.8c.7.5 1.1 1.2 1.5 2.1.3.9.5 1.9.5 3.1 0 1-.2 2-.5 3zM101.8 55.8h-7.2v-7.4h-4.2v18.5h4.2v-7.5h7.2v7.5h4.2V48.4h-4.2zM206.3 7.4h4.4v18.5h-4.4zM110.5 16.7c0-1.9-.4-3.6-1.1-5-.7-1.4-1.8-2.6-3.1-3.4-1.3-.8-2.9-1.2-4.7-1.2-1.8 0-3.4.4-4.7 1.2-1.3.8-2.4 1.9-3.1 3.4-.7 1.4-1.1 3.1-1.1 5s.4 3.6 1.1 5c.7 1.4 1.8 2.5 3.1 3.3 1.3.8 2.9 1.2 4.7 1.2 1.8 0 3.4-.4 4.7-1.2s2.4-1.9 3.1-3.3c.7-1.4 1.1-3.1 1.1-5zm-5 3.1c-.3.9-.8 1.7-1.5 2.2-.7.5-1.5.8-2.5.8s-1.8-.3-2.5-.8-1.2-1.3-1.5-2.2c-.3-.9-.5-1.9-.5-3.1 0-1.1.2-2.2.5-3.1.3-.9.8-1.7 1.5-2.2.7-.5 1.5-.8 2.5-.8s1.8.3 2.5.8 1.2 1.3 1.5 2.2c.3.9.5 1.9.5 3.1 0 1.1-.1 2.2-.5 3.1z"/></svg>