<svg version="1.1" id="Layer_1" xmlns="http://www.w3.org/2000/svg" x="0" y="0" viewBox="0 0 228 73" style="enable-background:new 0 0 228 73" xml:space="preserve"><style>.st0{fill:#060315}</style><path class="st0" d="M62.2 25V6.5h-8.1c-1.5 0-2.8.2-3.9.7-1.1.5-1.9 1.2-2.5 2.1-.6.9-.9 1.9-.9 3.1 0 1.1.3 2.1.9 3 .6.9 1.4 1.5 2.5 2h.1L46.1 25h4.3l3.8-7h3.9v7h4.1zM54 14.8c-1 0-1.7-.2-2.2-.7-.5-.5-.8-1-.8-1.7s.3-1.3.8-1.7c.5-.5 1.3-.7 2.3-.7h4v4.8H54zM54.5 57c-.7-.4-1.6-.7-2.6-.7 1.2-.2 2.2-.7 2.9-1.3.7-.7 1.1-1.5 1.1-2.5 0-1.6-.6-2.8-1.9-3.7-1.3-.9-3-1.3-5.2-1.3H41V66h9c1.4 0 2.7-.2 3.7-.6 1-.4 1.8-1 2.3-1.8.5-.8.8-1.6.8-2.7 0-.9-.2-1.6-.6-2.3-.4-.6-1-1.1-1.7-1.6zm-9.4-6h3.7c.9 0 1.6.2 2.1.5.5.4.8.9.8 1.5 0 .4-.1.8-.3 1.1-.2.3-.6.6-1 .7-.4.2-.9.3-1.5.3h-3.8V51zm6.8 11c-.5.4-1.1.6-1.9.6h-4.9V58H50c.8 0 1.4.2 1.9.7.5.4.7 1 .7 1.8 0 .6-.2 1.1-.7 1.5zM173.2 6.5H169v14.9h-5.8V6.5H159v14.9h-5.9V6.5h-4.2V25h24.3zM97.3 25h4.2V10h6V6.5H91.3V10h6zM21.9.3H6.1l-.7 10.4c-.1 2.2-.4 4-.7 5.4-.3 1.4-.7 2.5-1.2 3.3-.5.8-1 1.4-1.6 1.9H.3V31h4.3v-6h15.8v5.9h4.3v-9.6h-2.8V.3zm-4.3 21H7.2c.4-.7.8-1.6 1.2-2.6.4-1 .6-2.2.9-3.5.2-1.3.4-2.8.5-4.5l.3-6.7h7.5v17.3zM43.4 25V6.5H29.9l-.3 8.2c0 1.3-.1 2.4-.3 3.2-.1.9-.3 1.6-.5 2.1s-.5.9-.8 1.1c-.3.2-.7.3-1.2.3h-.6V25h1.4c1 0 1.9-.2 2.6-.5.7-.4 1.3-.9 1.8-1.6.5-.7.9-1.7 1.1-2.8.3-1.1.4-2.5.5-4l.3-6h5.3v15h4.2zM72.6 48.4c-1.3-.8-2.9-1.2-4.7-1.2-1.8 0-3.4.4-4.7 1.2-1.3.8-2.4 1.9-3.1 3.4-.7 1.4-1.1 3.1-1.1 5s.4 3.6 1.1 5c.7 1.4 1.8 2.5 3.1 3.3 1.3.8 2.9 1.2 4.7 1.2 1.8 0 3.4-.4 4.7-1.2 1.3-.8 2.4-1.9 3.1-3.3.7-1.4 1.1-3.1 1.1-5s-.4-3.6-1.1-5c-.8-1.5-1.8-2.6-3.1-3.4zm-.8 11.5c-.3.9-.8 1.7-1.5 2.2-.7.5-1.5.8-2.5.8s-1.8-.3-2.5-.8-1.2-1.3-1.5-2.2c-.3-.9-.5-1.9-.5-3.1 0-1.1.2-2.2.5-3.1.3-.9.8-1.7 1.5-2.2.7-.5 1.5-.8 2.5-.8s1.8.3 2.5.8 1.2 1.3 1.5 2.2c.3.9.5 1.9.5 3.1 0 1.1-.1 2.1-.5 3.1zM119.2 23.9c.5-.5.9-.9 1.1-1.4h.1V25h4.2V12.6c0-1.2-.2-2.3-.7-3.1-.4-.8-1-1.5-1.8-1.9-.7-.5-1.5-.8-2.4-1-.9-.2-1.8-.3-2.7-.3-1.3 0-2.5.2-3.5.6-1.1.4-2 .9-2.7 1.7-.7.8-1.3 1.7-1.6 2.8l4.1.6c.2-.6.6-1.2 1.3-1.7.6-.5 1.5-.7 2.5-.7s1.8.2 2.3.7c.5.5.8 1.2.8 2.1v.1c0 .4-.2.7-.5.9-.3.2-.8.3-1.5.4-.7.1-1.6.2-2.6.3-.9.1-1.8.3-2.6.5s-1.6.5-2.3.9c-.7.4-1.2 1-1.6 1.6-.4.7-.6 1.5-.6 2.6 0 1.2.3 2.2.8 3.1.5.8 1.3 1.5 2.2 1.9.9.4 2 .6 3.2.6 1 0 1.8-.1 2.5-.4.9-.2 1.5-.6 2-1zm-5.5-2.4c-.6-.4-.9-1-.9-1.8 0-.6.1-1 .4-1.4.3-.4.7-.6 1.2-.8.5-.2 1.1-.3 1.8-.4.3 0 .6-.1 1-.1.4-.1.8-.1 1.2-.2.4-.1.8-.2 1.1-.3.3-.1.6-.2.7-.3v2.2c0 .7-.2 1.3-.5 1.9-.3.6-.8 1-1.5 1.4-.6.3-1.4.5-2.3.5-.8 0-1.6-.2-2.2-.7zM190.9 8.5c-.8-.8-1.7-1.3-2.7-1.7-1-.4-2.1-.6-3.2-.6-1.8 0-3.3.4-4.6 1.2-1.3.8-2.3 1.9-3.1 3.4-.7 1.4-1.1 3.1-1.1 5s.4 3.6 1.1 5.1c.7 1.4 1.8 2.5 3.1 3.3 1.4.8 3 1.2 4.8 1.2 1.4 0 2.7-.2 3.8-.7 1.1-.4 2-1.1 2.8-1.9.7-.8 1.2-1.7 1.5-2.8l-4.1-.5c-.2.5-.5 1-.9 1.3-.4.4-.8.6-1.3.8-.5.2-1.1.3-1.7.3-1 0-1.8-.2-2.5-.6-.7-.4-1.3-1-1.7-1.8-.4-.7-.6-1.6-.6-2.7h12.9v-1.3c0-1.6-.2-3-.7-4.2-.4-1.1-1-2.1-1.8-2.8zM180.5 14c0-.7.2-1.4.5-2 .4-.7.9-1.3 1.6-1.7.7-.4 1.5-.7 2.4-.7.8 0 1.6.2 2.2.6.6.4 1.1.9 1.5 1.6.4.7.5 1.4.5 2.2h-8.7zM153.7 51h6v15h4.2V51h6v-3.5h-16.2zM184.6 48.6c-.7-.5-1.5-.8-2.4-1-.9-.2-1.8-.3-2.7-.3-1.3 0-2.5.2-3.5.6-1.1.4-2 .9-2.7 1.7-.7.8-1.3 1.7-1.6 2.8l4.1.6c.2-.6.6-1.2 1.3-1.7.6-.5 1.5-.7 2.5-.7s1.8.2 2.3.7c.5.5.8 1.2.8 2.1v.1c0 .4-.2.7-.5.9-.3.2-.8.3-1.5.4-.7.1-1.6.2-2.6.3-.9.1-1.8.3-2.6.5s-1.6.5-2.3.9c-.7.4-1.2 1-1.6 1.6-.4.7-.6 1.5-.6 2.6 0 1.2.3 2.2.8 3.1.5.8 1.3 1.5 2.2 1.9.9.4 2 .6 3.2.6 1 0 1.8-.1 2.5-.4.7-.3 1.3-.6 1.8-1.1.5-.5.9-.9 1.1-1.4h.1V66h4.2V53.6c0-1.2-.2-2.3-.7-3.1-.3-.8-.9-1.5-1.6-1.9zm-1.9 10.7c0 .7-.2 1.3-.5 1.9-.3.6-.8 1-1.5 1.4-.6.3-1.4.5-2.3.5-.9 0-1.7-.2-2.2-.6-.6-.4-.9-1-.9-1.8 0-.6.1-1 .4-1.4.3-.4.7-.6 1.2-.8.5-.2 1.1-.3 1.8-.4.3 0 .6-.1 1-.1.4-.1.8-.1 1.2-.2.4-.1.8-.2 1.1-.3.3-.1.6-.2.7-.3v2.1zM226.7 10.8c-.7-1.4-1.8-2.6-3.1-3.4s-2.9-1.2-4.7-1.2c-1.8 0-3.4.4-4.7 1.2s-2.4 1.9-3.1 3.4c-.7 1.4-1.1 3.1-1.1 5s.4 3.6 1.1 5c.7 1.4 1.8 2.5 3.1 3.3 1.3.8 2.9 1.2 4.7 1.2 1.8 0 3.4-.4 4.7-1.2 1.3-.8 2.4-1.9 3.1-3.3.7-1.4 1.1-3.1 1.1-5s-.4-3.6-1.1-5zm-3.9 8.1c-.3.9-.8 1.7-1.5 2.2-.7.5-1.5.8-2.5.8s-1.8-.3-2.5-.8-1.2-1.3-1.5-2.2c-.3-.9-.5-1.9-.5-3.1 0-1.1.2-2.2.5-3.1.3-.9.8-1.7 1.5-2.2.7-.5 1.5-.8 2.5-.8s1.8.3 2.5.8 1.2 1.3 1.5 2.2c.3.9.5 1.9.5 3.1 0 1.1-.1 2.1-.5 3.1zM196.5 25h4.2V10h8V6.5h-12.2zM110.4 48.3c-1.2-.7-2.4-1.1-3.9-1.1-1.1 0-2 .2-2.7.6-.7.4-1.3.8-1.7 1.3-.4.5-.7 1-1 1.4h-.3v-3.1h-4.3V73h4.4v-9.9h.2c.2.5.6.9 1 1.4.4.5 1 .9 1.7 1.3s1.6.5 2.6.5c1.5 0 2.8-.4 3.9-1.1 1.2-.7 2.1-1.8 2.7-3.3.7-1.4 1-3.2 1-5.2 0-2.1-.3-3.8-1-5.2-.5-1.4-1.5-2.5-2.6-3.2zm-1.2 11.5c-.3.9-.8 1.6-1.5 2.1s-1.5.8-2.4.8c-.9 0-1.7-.2-2.4-.7-.6-.5-1.1-1.2-1.5-2.1-.3-.9-.5-2-.5-3.2 0-1.2.2-2.2.5-3.1.3-.9.8-1.6 1.5-2.1s1.4-.7 2.4-.7 1.8.3 2.4.8c.7.5 1.1 1.2 1.5 2.1.3.9.5 1.9.5 3.1 0 1.1-.2 2.1-.5 3zM85.8 24.5c1.2-.6 2.1-1.4 2.7-2.4.7-1 1.1-2.2 1.2-3.5h-4.2c-.1.7-.4 1.2-.7 1.7-.3.5-.8.8-1.3 1.1-.5.2-1.1.4-1.7.4-.9 0-1.7-.2-2.4-.7-.7-.5-1.2-1.2-1.6-2.1-.4-.9-.6-2-.6-3.3 0-1.2.2-2.3.6-3.2.4-.9.9-1.6 1.6-2.1.7-.5 1.5-.7 2.4-.7 1.1 0 1.9.3 2.5.9.6.6 1 1.3 1.2 2.2h4.2c-.1-1.3-.5-2.5-1.2-3.5S86.9 7.5 85.7 7c-1.2-.6-2.5-.8-4-.8-1.8 0-3.4.4-4.7 1.2-1.3.8-2.3 1.9-3.1 3.4-.7 1.4-1.1 3.1-1.1 5s.4 3.5 1.1 5c.7 1.4 1.7 2.6 3.1 3.4 1.3.8 2.9 1.2 4.8 1.2 1.5 0 2.9-.3 4-.9zM92 57.1c-.6-.4-1.2-.6-2-.6v-.2c1.1-.3 1.9-.7 2.5-1.4.6-.7.9-1.5.9-2.5s-.3-2-.9-2.7c-.6-.8-1.4-1.4-2.4-1.8-1.1-.4-2.3-.7-3.8-.7-1.4 0-2.6.2-3.6.7-1.1.4-1.9 1.1-2.6 1.9-.6.8-.9 1.7-1 2.8h4.3c0-.6.3-1.1.9-1.5.6-.4 1.3-.6 2.2-.6.9 0 1.5.2 2 .6.5.4.7 1 .7 1.7 0 .6-.2 1.2-.7 1.6-.5.4-1.2.6-2.1.6h-2.8v3.1h2.8c.6 0 1.1.1 1.6.3.5.2.8.5 1.1.9.2.4.4.8.4 1.3 0 .8-.3 1.5-1 1.9-.6.4-1.4.6-2.4.6-.9 0-1.7-.2-2.3-.6-.6-.4-.9-.9-.9-1.6h-4.3c0 1.1.4 2.1 1.1 2.9.7.8 1.5 1.4 2.7 1.9 1.1.4 2.4.6 3.8.6 1.5 0 2.8-.2 3.9-.7 1.1-.4 2-1.1 2.7-1.9.7-.8 1-1.8 1-2.9 0-.8-.2-1.6-.5-2.2-.3-.6-.7-1.1-1.3-1.5zM141.8 51.5c.7-.5 1.5-.7 2.4-.7 1.1 0 1.9.3 2.5.9.6.6 1 1.3 1.2 2.2h4.2c-.1-1.3-.5-2.5-1.2-3.5s-1.6-1.8-2.8-2.3c-1.2-.6-2.5-.8-4-.8-1.8 0-3.4.4-4.7 1.2-1.3.8-2.3 1.9-3.1 3.4-.7 1.4-1.1 3.1-1.1 5s.4 3.5 1.1 5c.7 1.4 1.7 2.6 3.1 3.4 1.3.8 2.9 1.2 4.8 1.2 1.6 0 2.9-.3 4.1-.8 1.2-.6 2.1-1.4 2.7-2.4.7-1 1.1-2.2 1.2-3.5H148c-.1.7-.4 1.2-.7 1.7-.3.5-.8.8-1.3 1.1-.5.2-1.1.4-1.7.4-.9 0-1.7-.2-2.4-.7-.7-.5-1.2-1.2-1.6-2.1-.4-.9-.6-2-.6-3.3 0-1.2.2-2.3.6-3.2.3-1.1.9-1.8 1.5-2.2zM129.9 48.6c-.7-.5-1.5-.8-2.4-1-.9-.2-1.8-.3-2.7-.3-1.3 0-2.5.2-3.5.6-1.1.4-2 .9-2.7 1.7-.7.8-1.3 1.7-1.6 2.8l4.1.6c.2-.6.6-1.2 1.3-1.7.6-.5 1.5-.7 2.5-.7s1.8.2 2.3.7c.5.5.8 1.2.8 2.1v.1c0 .4-.2.7-.5.9-.3.2-.8.3-1.5.4-.7.1-1.6.2-2.6.3-.9.1-1.8.3-2.6.5s-1.6.5-2.3.9c-.7.4-1.2 1-1.6 1.6-.4.7-.6 1.5-.6 2.6 0 1.2.3 2.2.8 3.1.5.8 1.3 1.5 2.2 1.9.9.4 2 .6 3.2.6 1 0 1.8-.1 2.5-.4.7-.3 1.3-.6 1.8-1.1.5-.5.9-.9 1.1-1.4h.1V66h4.2V53.6c0-1.2-.2-2.3-.7-3.1-.3-.8-.9-1.5-1.6-1.9zM128 59.3c0 .7-.2 1.3-.5 1.9-.3.6-.8 1-1.5 1.4-.6.3-1.4.5-2.3.5-.9 0-1.7-.2-2.2-.6-.6-.4-.9-1-.9-1.8 0-.6.1-1 .4-1.4.3-.4.7-.6 1.2-.8.5-.2 1.1-.3 1.8-.4.3 0 .6-.1 1-.1.4-.1.8-.1 1.2-.2.4-.1.8-.2 1.1-.3.3-.1.6-.2.7-.3v2.1zM138.2 25.3c1.5 0 2.8-.4 3.9-1.1s2.1-1.8 2.7-3.3c.7-1.4 1-3.2 1-5.2 0-2.1-.3-3.8-1-5.2-.7-1.4-1.6-2.5-2.8-3.2-1.2-.7-2.4-1.1-3.9-1.1-1.1 0-2 .2-2.7.6-.7.4-1.3.8-1.7 1.3-.4.5-.7 1-1 1.4h-.3v-3h-4.3V32h4.4v-9.9h.2c.2.5.6.9 1 1.4.4.5 1 .9 1.7 1.3.9.3 1.8.5 2.8.5zm-5-6.4c-.3-.9-.5-2-.5-3.2 0-1.2.2-2.2.5-3.1.3-.9.8-1.6 1.5-2.1s1.4-.7 2.4-.7 1.8.3 2.4.8c.7.5 1.1 1.2 1.5 2.1s.5 1.9.5 3.1c0 1.2-.2 2.2-.5 3.1-.3.9-.8 1.6-1.5 2.1s-1.5.8-2.4.8c-.9 0-1.7-.2-2.4-.7-.7-.6-1.2-1.3-1.5-2.2z"/></svg>