<svg xmlns="http://www.w3.org/2000/svg" viewBox="0 0 265 36.6" style="enable-background:new 0 0 265 36.6" xml:space="preserve"><path d="M31.7.3v2c-3.2 0-4.7 0-4.7 3.4 0 .6 0 1.1.3 1.7L32 18l4.9-10.9c.3-.6.3-.9.3-1.4 0-3.1-2.3-3.4-4.1-3.4V.6H46v1.7c-2.9 0-5.8 0-8.4 6.6L25.9 35.2c-.6 1.1-.9 1.1-3.8 1.1-.6 0-.9-.3-1.2-1.1L7.9 5.4C6.4 2.3 2.6 2.3 0 2.3V.6h31.7V.3zM46.8 34.3c5.2 0 6.4 0 6.4-3.7V5.4c0-3.4-.6-3.7-5.8-3.7V0H75v2.3c-4.9 0-6.4 0-6.4 4.3v24.3c0 3.7 1.5 3.7 6.1 3.7v1.7H46.5v-2h.3zM76.2 1.7c0-.9.3-1.4.9-1.4h42.5c.3 0 .9.6.9 1.1v16c0 .6 0 .6-.3.6s-.3 0-.3-.6c-.6-.9-7.6-15.1-13.7-15.1V30c0 3.7.6 3.7 6.4 3.7v2H84.1v-2h4.4c1.7 0 2.6-2.3 2.6-4.9V2.3c-4.4 0-4.9.3-14 14.6-.3.3-.3.3-.6.3V1.7h-.3zM172.2 19.4c0 17.1-7.9 17.1-14.3 17.1-7 0-7.6-4.9-8.4-12.6-.6-4.9-4.1-4.9-7.3-4.9v12.3c0 2.9.6 2.9 6.1 2.9V36h-27.1v-1.7c4.4 0 5.8 0 5.8-4V4.9c0-2.9-.6-2.9-5.5-2.9V.3h35.2c7 0 11.3 4.3 11.3 9.4 0 4.6-4.1 7.1-6.4 7.7 5.2 1.4 5.8 6 6.1 10 0 1.1.3 1.7.9 1.7 1.5 0 2.9-4.6 2.9-10.3h.6v.6zm-29.9-2h3.2c3.8 0 5.5-4.3 5.5-8 0-7.1-5.2-7.1-8.4-7.1v15.1h-.3zM203.9 19.4c0 16.3-4.9 17.1-14.3 17.1-8.7 0-14.5 0-14.5-11.4V5.7c0-3.4-2.9-3.4-5.5-3.4V.6h26.2v1.7c-3.5 0-5.5 0-5.5 6v14.9c0 9.1 2.9 10.9 5.8 10.9 4.1 0 6.7-4.3 6.7-13.4v-14c0-4.3-3.2-4.6-5.2-4.6V.3h11.9v2c-1.7 0-5.5 0-5.5 4.6v12.5h-.1zM210.6 34.3c3.8 0 5.2 0 5.2-4.3V5.4c0-3.1-.6-3.1-5.5-3.1v-2h21.5c.6 0 .9.3 1.2.9l5.2 12.6 5.2-12.3c.3-.6.6-1.1 1.2-1.1h20.1v2c-3.2 0-5.8 0-5.8 5.7v22.6c0 3.7 1.5 3.7 6.1 3.7V36h-27.3v-1.7c4.1 0 5.5 0 5.5-3.4V6l-11.9 29.7c-.3.6-.3.6-2 .6-.3 0-.3 0-.6-.6l-11.3-28V30c0 4.6 1.5 4.6 5.8 4.6v1.7H211v-2h-.4z"/></svg>