<?xml version="1.0" encoding="utf-8"?>
<!-- Generator: Adobe Illustrator 25.2.3, SVG Export Plug-In . SVG Version: 6.00 Build 0)  -->
<svg version="1.1" id="Layer_1" xmlns="http://www.w3.org/2000/svg" xmlns:xlink="http://www.w3.org/1999/xlink" x="0px" y="0px"
	 viewBox="0 0 259.9 170.2" style="enable-background:new 0 0 259.9 170.2;" xml:space="preserve">
<style type="text/css">
	.st0{fill:#060315;}
</style>
<path class="st0" d="M170.2,68.3c-0.4,0.6-0.6,1.4-0.6,2.2c0,0.8,0.2,1.5,0.6,2.2c0.4,0.6,0.9,1.1,1.6,1.5c0.7,0.4,1.4,0.5,2.3,0.5
	c0.8,0,1.6-0.2,2.3-0.5c0.7-0.4,1.2-0.9,1.6-1.5c0.4-0.6,0.6-1.4,0.6-2.2s-0.2-1.5-0.6-2.2c-0.4-0.6-0.9-1.1-1.6-1.5
	c-0.7-0.4-1.4-0.5-2.3-0.5c-0.8,0-1.6,0.2-2.3,0.5C171.1,67.2,170.6,67.8,170.2,68.3z M172.3,68.6c0.5-0.5,1.1-0.7,1.8-0.7
	s1.3,0.2,1.8,0.7s0.7,1.1,0.7,1.9s-0.2,1.4-0.7,1.9s-1.1,0.7-1.8,0.7s-1.3-0.2-1.8-0.7s-0.7-1.1-0.7-1.9S171.8,69.1,172.3,68.6z
	 M123.2,74.8h1.9v-6.7h2.9v-1.6h-7.7v1.6h2.9L123.2,74.8z M69.9,73.9c0.6-0.5,0.9-1.2,0.9-2.1c0-0.9-0.3-1.5-0.8-2
	c-0.6-0.5-1.4-0.7-2.4-0.7h-2.1v-2.7h-1.9v8.3h3.7C68.4,74.8,69.3,74.4,69.9,73.9z M65.5,73.2v-2.8h1.6c0.6,0,1,0.1,1.3,0.3
	c0.3,0.2,0.4,0.6,0.4,1c0,0.5-0.1,0.8-0.4,1.1c-0.3,0.2-0.7,0.4-1.3,0.4H65.5z M39.3,74.2c0.7-0.4,1.2-0.9,1.6-1.5
	c0.4-0.6,0.6-1.4,0.6-2.2c0-0.8-0.2-1.5-0.6-2.2c-0.4-0.6-0.9-1.1-1.6-1.5c-0.7-0.4-1.4-0.5-2.3-0.5c-0.8,0-1.6,0.2-2.3,0.5
	c-0.7,0.4-1.2,0.9-1.6,1.5c-0.4,0.6-0.6,1.4-0.6,2.2s0.2,1.5,0.6,2.2c0.4,0.6,0.9,1.1,1.6,1.5c0.7,0.4,1.4,0.5,2.3,0.5
	C37.8,74.8,38.6,74.6,39.3,74.2z M34.5,70.6c0-0.8,0.2-1.4,0.7-1.9s1.1-0.7,1.8-0.7s1.3,0.2,1.8,0.7s0.7,1.1,0.7,1.9
	s-0.2,1.4-0.7,1.9s-1.1,0.7-1.8,0.7s-1.3-0.2-1.8-0.7C34.8,71.9,34.5,71.4,34.5,70.6z M101.1,66.4v11.3h1.9v-4
	c0.6,0.7,1.5,1.1,2.6,1.1c0.8,0,1.5-0.2,2.2-0.5c0.6-0.4,1.1-0.8,1.5-1.5c0.4-0.6,0.5-1.4,0.5-2.2s-0.2-1.6-0.5-2.2
	c-0.4-0.6-0.9-1.1-1.5-1.5c-0.6-0.4-1.3-0.5-2.2-0.5c-0.6,0-1.1,0.1-1.6,0.3s-0.9,0.5-1.2,0.9v-1.1h-1.7L101.1,66.4z M103.3,69.2
	c0.2-0.4,0.5-0.7,0.9-0.9c0.4-0.2,0.8-0.3,1.3-0.3c0.7,0,1.3,0.2,1.7,0.7c0.5,0.5,0.7,1.1,0.7,1.9s-0.2,1.4-0.7,1.9s-1,0.7-1.7,0.7
	c-0.5,0-0.9-0.1-1.3-0.3c-0.4-0.2-0.7-0.5-0.9-0.9c-0.2-0.4-0.3-0.8-0.3-1.4C103,70,103.1,69.5,103.3,69.2L103.3,69.2z M19.6,74.3
	c0.6-0.3,1.1-0.8,1.4-1.4L19.5,72c-0.2,0.4-0.5,0.7-0.9,0.9c-0.4,0.2-0.7,0.3-1.2,0.3c-0.7,0-1.3-0.2-1.8-0.7
	c-0.5-0.5-0.7-1.1-0.7-1.9s0.2-1.4,0.7-1.9c0.5-0.5,1.1-0.7,1.8-0.7c0.4,0,0.8,0.1,1.2,0.3c0.4,0.2,0.7,0.5,0.9,0.9l1.5-1
	c-0.3-0.6-0.8-1.1-1.4-1.4s-1.3-0.5-2.1-0.5c-0.9,0-1.6,0.2-2.3,0.5c-0.7,0.4-1.2,0.9-1.6,1.5c-0.4,0.6-0.6,1.4-0.6,2.2
	s0.2,1.5,0.6,2.2c0.4,0.6,0.9,1.1,1.6,1.5c0.7,0.4,1.4,0.5,2.3,0.5C18.3,74.8,19,74.6,19.6,74.3z M98.4,74.8v-8.3h-7.9v8.3h2v-6.7h4
	v6.7H98.4z M54.8,71.4H59v3.3h1.9v-8.3H59v3.3h-4.2v-3.3h-1.9v8.3h1.9V71.4z M71.9,66.4h1.9v8.3h-1.9V66.4z M77.8,74.2
	c0.7,0.4,1.5,0.5,2.4,0.5c0.7,0,1.4-0.1,1.9-0.3c0.6-0.2,1-0.6,1.4-1l-1-1.2c-0.6,0.6-1.3,0.9-2.2,0.9c-0.7,0-1.3-0.2-1.8-0.5
	c-0.5-0.4-0.8-0.8-0.9-1.5h6.5v-0.6c0-0.8-0.2-1.6-0.5-2.2c-0.4-0.6-0.8-1.2-1.5-1.5c-0.6-0.4-1.3-0.5-2.2-0.5
	c-0.8,0-1.5,0.2-2.2,0.5c-0.6,0.4-1.2,0.9-1.5,1.5c-0.4,0.6-0.5,1.4-0.5,2.2s0.2,1.5,0.6,2.2C76.6,73.4,77.2,73.9,77.8,74.2z
	 M78.4,68.4c0.4-0.4,1-0.6,1.6-0.6s1.2,0.2,1.6,0.6c0.4,0.4,0.7,0.9,0.8,1.5h-4.7C77.7,69.2,77.9,68.8,78.4,68.4z M50,74.1
	c0.6-0.4,0.8-1,0.8-1.7c0-1-0.5-1.7-1.5-2c0.4-0.2,0.7-0.4,0.9-0.7c0.2-0.3,0.3-0.7,0.3-1.1c0-0.7-0.3-1.2-0.9-1.6
	c-0.6-0.4-1.4-0.6-2.4-0.6h-4v8.3h4.2C48.6,74.8,49.4,74.5,50,74.1L50,74.1z M45.2,67.9h2c1,0,1.5,0.3,1.5,1s-0.5,1-1.5,1h-2V67.9z
	 M45.2,73.2v-2.1h2.3c0.5,0,0.9,0.1,1.2,0.3c0.2,0.2,0.4,0.4,0.4,0.8c0,0.7-0.5,1-1.6,1C47.5,73.3,45.2,73.3,45.2,73.2z M113.2,74.2
	c0.7,0.4,1.4,0.5,2.3,0.5c0.8,0,1.6-0.2,2.3-0.5c0.7-0.4,1.2-0.9,1.6-1.5c0.4-0.6,0.6-1.4,0.6-2.2c0-0.8-0.2-1.5-0.6-2.2
	c-0.4-0.6-0.9-1.1-1.6-1.5c-0.7-0.4-1.4-0.5-2.3-0.5c-0.8,0-1.6,0.2-2.3,0.5c-0.7,0.4-1.2,0.9-1.6,1.5c-0.4,0.6-0.6,1.4-0.6,2.2
	s0.2,1.5,0.6,2.2S112.5,73.9,113.2,74.2z M113.7,68.6c0.5-0.5,1.1-0.7,1.8-0.7s1.3,0.2,1.8,0.7s0.7,1.1,0.7,1.9s-0.2,1.4-0.7,1.9
	s-1.1,0.7-1.8,0.7s-1.3-0.2-1.8-0.7s-0.7-1.1-0.7-1.9S113.2,69.1,113.7,68.6z M28.8,74.8h1.9v-8.3h-1.9v3.3h-4.2v-3.3h-1.9v8.3h1.9
	v-3.3h4.2V74.8z M155.8,74.2c0.7-0.4,1.2-0.9,1.6-1.5c0.4-0.6,0.6-1.4,0.6-2.2c0-0.8-0.2-1.5-0.6-2.2c-0.4-0.6-0.9-1.1-1.6-1.5
	c-0.7-0.4-1.4-0.5-2.3-0.5c-0.8,0-1.6,0.2-2.3,0.5c-0.7,0.4-1.2,0.9-1.6,1.5c-0.4,0.6-0.6,1.4-0.6,2.2s0.2,1.5,0.6,2.2
	c0.4,0.6,0.9,1.1,1.6,1.5c0.7,0.4,1.4,0.5,2.3,0.5C154.4,74.8,155.1,74.6,155.8,74.2z M151.1,70.6c0-0.8,0.2-1.4,0.7-1.9
	s1.1-0.7,1.8-0.7s1.3,0.2,1.8,0.7s0.7,1.1,0.7,1.9s-0.2,1.4-0.7,1.9s-1.1,0.7-1.8,0.7s-1.3-0.2-1.8-0.7S151.1,71.4,151.1,70.6z
	 M167.8,74.8v-8.3h-8v8.3h2v-6.7h4.1v6.7H167.8z M224.8,74.8v-8.3h-2v3.3h-4.1v-3.3h-2v8.3h2v-3.3h4.1v3.3H224.8z M2.9,74.1
	c0.9,0.5,1.9,0.7,3,0.7s2.1-0.2,3-0.7s1.6-1.2,2.1-2s0.8-1.8,0.8-2.9c0-1.1-0.3-2-0.8-2.9c-0.5-0.8-1.2-1.5-2.1-2
	c-0.9-0.5-1.9-0.7-3-0.7s-2.1,0.2-3,0.7c-0.9,0.5-1.6,1.1-2.1,2C0.3,67.2,0,68.2,0,69.2c0,1.1,0.3,2,0.8,2.9
	C1.3,72.9,2,73.6,2.9,74.1z M2.5,67.3c0.3-0.6,0.8-1,1.4-1.4c0.6-0.3,1.2-0.5,1.9-0.5s1.4,0.2,1.9,0.5c0.6,0.3,1,0.8,1.4,1.4
	c0.3,0.6,0.5,1.2,0.5,1.9c0,0.7-0.2,1.4-0.5,2c-0.3,0.6-0.8,1-1.4,1.4c-0.6,0.3-1.2,0.5-1.9,0.5s-1.4-0.2-1.9-0.5
	c-0.6-0.3-1-0.8-1.4-1.4c-0.3-0.6-0.5-1.2-0.5-2C2,68.6,2.2,67.9,2.5,67.3z M192.6,69.8c-1.2,0-2.1,0.2-2.6,0.7
	c-0.5,0.4-0.8,1-0.8,1.8c0,0.5,0.1,0.9,0.4,1.3c0.3,0.4,0.6,0.7,1.1,0.9c0.5,0.2,1,0.3,1.6,0.3s1.1-0.1,1.6-0.3
	c0.4-0.2,0.8-0.5,1-0.8v1h1.8v-4.8c0-1.2-0.3-2.1-1-2.6c-0.6-0.6-1.6-0.9-2.8-0.9c-0.7,0-1.3,0.1-1.9,0.3c-0.6,0.2-1.1,0.4-1.6,0.8
	l0.8,1.4c0.3-0.3,0.7-0.5,1.1-0.6c0.5-0.1,0.9-0.2,1.4-0.2c0.7,0,1.2,0.2,1.5,0.5c0.4,0.3,0.5,0.8,0.5,1.3v0.1h-2.1V69.8z
	 M194.7,72.1c-0.2,0.4-0.4,0.7-0.8,1c-0.4,0.2-0.8,0.3-1.3,0.3s-0.9-0.1-1.2-0.3c-0.3-0.2-0.4-0.5-0.4-0.8c0-0.7,0.6-1.1,1.7-1.1h2
	V72.1z M248.4,68.9c0.4,0,0.7-0.1,0.9-0.4c0.2-0.2,0.4-0.6,0.4-0.9c0-0.4-0.1-0.7-0.4-0.9c-0.2-0.2-0.5-0.4-0.9-0.4
	s-0.7,0.1-0.9,0.4c-0.2,0.2-0.4,0.5-0.4,0.9c0,0.4,0.1,0.7,0.4,0.9C247.7,68.7,248,68.9,248.4,68.9z M235.6,74.8v-8.3h-1.8l-4.5,5.4
	v-5.4h-1.9v8.3h1.7l4.6-5.5v5.5H235.6z M247.5,74.4c0.2,0.2,0.5,0.4,0.9,0.4s0.7-0.1,0.9-0.4c0.2-0.2,0.4-0.6,0.4-0.9
	c0-0.4-0.1-0.7-0.4-0.9c-0.2-0.2-0.5-0.4-0.9-0.4s-0.7,0.1-0.9,0.4c-0.2,0.2-0.4,0.5-0.4,0.9C247.1,73.8,247.2,74.2,247.5,74.4z
	 M245.2,74.8v-8.3h-3.8c-1.2,0-2.1,0.3-2.8,0.8s-1,1.2-1,2.2c0,0.6,0.2,1.2,0.5,1.6c0.3,0.4,0.8,0.7,1.4,0.9l-1.9,2.8h2.1l1.7-2.5
	h2.2v2.5H245.2z M241.4,70.8c-1.2,0-1.8-0.5-1.8-1.4c0-0.9,0.6-1.4,1.9-1.4h2v2.8H241.4L241.4,70.8z M186.3,66.4l-2.4,3.3h-1.6v-3.3
	h-1.9v8.3h1.9v-3.4h1.5l2.5,3.4h2.3l-3.2-4.3l3-4H186.3z M129.4,66.4v8.3h1.8l4.5-5.5v5.5h2v-8.3h-1.8l-4.6,5.4v-5.4H129.4z
	 M210.3,69.8c-1.2,0-2.1,0.2-2.6,0.7c-0.5,0.4-0.8,1-0.8,1.8c0,0.5,0.1,0.9,0.4,1.3c0.3,0.4,0.6,0.7,1.1,0.9c0.5,0.2,1,0.3,1.6,0.3
	s1.1-0.1,1.6-0.3c0.4-0.2,0.8-0.5,1-0.8v1h1.8v-4.8c0-1.2-0.3-2.1-1-2.6c-0.6-0.6-1.6-0.9-2.8-0.9c-0.7,0-1.3,0.1-1.9,0.3
	c-0.6,0.2-1.1,0.4-1.6,0.8l0.8,1.4c0.3-0.3,0.7-0.5,1.1-0.6c0.5-0.1,0.9-0.2,1.4-0.2c0.7,0,1.2,0.2,1.5,0.5c0.4,0.3,0.5,0.8,0.5,1.3
	v0.1h-2.1V69.8z M212.4,72.1c-0.2,0.4-0.4,0.7-0.8,1c-0.4,0.2-0.8,0.3-1.3,0.3s-0.9-0.1-1.2-0.3c-0.3-0.2-0.4-0.5-0.4-0.8
	c0-0.7,0.6-1.1,1.7-1.1h2V72.1z M203,72.9c-0.4,0.2-0.9,0.3-1.5,0.3c-0.5,0-1-0.1-1.5-0.2c-0.5-0.1-1-0.3-1.4-0.5l-0.6,1.4
	c0.5,0.3,1,0.5,1.7,0.6c0.6,0.1,1.2,0.2,1.9,0.2c0.8,0,1.4-0.1,2-0.3s1.1-0.5,1.4-0.9c0.3-0.4,0.5-0.8,0.5-1.3s-0.1-0.8-0.4-1.2
	c-0.3-0.3-0.7-0.6-1.2-0.7c0.4-0.2,0.8-0.4,1-0.7s0.4-0.7,0.4-1.1c0-0.4-0.2-0.8-0.5-1.2c-0.3-0.4-0.7-0.6-1.3-0.8s-1.2-0.3-1.9-0.3
	c-1.1,0-2.2,0.3-3.3,0.8l0.5,1.4c0.9-0.4,1.8-0.6,2.6-0.6c0.6,0,1,0.1,1.4,0.3c0.3,0.2,0.5,0.4,0.5,0.7s-0.1,0.5-0.4,0.7
	c-0.3,0.2-0.6,0.2-1.1,0.2h-1.5v1.3h1.6c0.5,0,0.9,0.1,1.2,0.3c0.3,0.2,0.4,0.4,0.4,0.7C203.5,72.4,203.3,72.8,203,72.9L203,72.9z
	 M147.2,69.6c0.2-0.3,0.3-0.7,0.3-1.1c0-0.7-0.3-1.2-0.9-1.6c-0.6-0.4-1.4-0.6-2.4-0.6h-4v8.3h4.2c1.1,0,1.9-0.2,2.5-0.6
	c0.6-0.4,0.8-1,0.8-1.7c0-1-0.5-1.7-1.5-2C146.7,70.3,147,70,147.2,69.6L147.2,69.6z M142.1,67.8h2c1,0,1.5,0.3,1.5,1s-0.5,1-1.5,1
	h-2V67.8z M144.3,73.2h-2.2v-2.1h2.3c0.5,0,0.9,0.1,1.2,0.3c0.2,0.2,0.4,0.4,0.4,0.8C145.9,72.9,145.4,73.2,144.3,73.2z
	 M133.7,105.8h1v-7.4h-1v3.2h-4.6v-3.2h-1v7.4h1v-3.3h4.6V105.8z M184.5,152.2c-0.6,0-1.1,0.1-1.7,0.3c-0.5,0.2-1,0.4-1.3,0.7
	l0.4,0.7c0.3-0.3,0.7-0.5,1.1-0.6c0.4-0.2,0.9-0.2,1.3-0.2c0.7,0,1.2,0.2,1.6,0.5c0.4,0.3,0.5,0.8,0.5,1.4v0.4h-2.3
	c-1,0-1.7,0.2-2.2,0.6c-0.4,0.4-0.7,0.9-0.7,1.5s0.2,1.2,0.7,1.6c0.5,0.4,1.1,0.6,2,0.6c0.6,0,1.1-0.1,1.5-0.3s0.8-0.5,1-0.9v1.1h1
	v-4.6c0-0.9-0.3-1.7-0.8-2.1C186.2,152.6,185.5,152.2,184.5,152.2z M186.5,157.4c-0.2,0.5-0.5,0.9-0.9,1.1c-0.4,0.3-0.9,0.4-1.4,0.4
	c-0.6,0-1-0.1-1.4-0.4c-0.3-0.3-0.5-0.6-0.5-1c0-0.9,0.6-1.3,1.9-1.3h2.3L186.5,157.4L186.5,157.4z M206.6,138.4h4.6v3.3h1v-7.4h-1
	v3.2h-4.6v-3.2h-1v7.4h1V138.4z M169.1,137.9c0.4-0.1,0.7-0.4,0.9-0.6c0.2-0.3,0.3-0.6,0.3-1c0-0.6-0.2-1.1-0.7-1.4
	c-0.5-0.3-1.1-0.5-2-0.5h-3.2v7.4h3.3c0.9,0,1.7-0.2,2.1-0.5c0.5-0.3,0.7-0.8,0.7-1.5C170.6,138.8,170.1,138.1,169.1,137.9
	L169.1,137.9z M165.4,135.2h2.2c0.6,0,1,0.1,1.3,0.3s0.5,0.5,0.5,0.9s-0.2,0.7-0.5,0.9s-0.7,0.3-1.3,0.3h-2.2V135.2z M169.2,140.7
	c-0.3,0.2-0.8,0.3-1.4,0.3h-2.3v-2.6h2.4c0.6,0,1.1,0.1,1.4,0.3c0.3,0.2,0.4,0.5,0.4,1C169.7,140.1,169.5,140.5,169.2,140.7
	L169.2,140.7z M95.7,101.6c-0.5-0.4-1.2-0.6-2.1-0.6h-2.2v-2.6h-1v7.4h3c1,0,1.7-0.2,2.2-0.6c0.5-0.4,0.8-1,0.8-1.8
	S96.2,101.9,95.7,101.6z M94.9,104.6c-0.3,0.3-0.9,0.4-1.5,0.4h-1.9v-3.3h1.9c0.7,0,1.2,0.1,1.6,0.4c0.3,0.3,0.5,0.7,0.5,1.2
	C95.4,103.8,95.2,104.2,94.9,104.6z M123.6,122.4c0.3,0.5,0.7,0.8,1.2,1.1c0.5,0.2,1,0.4,1.6,0.4c0.7,0,1.3-0.2,1.9-0.5
	c0.6-0.3,1-0.8,1.3-1.3c0.3-0.6,0.5-1.2,0.5-2c0-0.7-0.2-1.4-0.5-1.9c-0.3-0.6-0.8-1-1.3-1.3c-0.6-0.3-1.2-0.5-1.9-0.5
	c-0.6,0-1.2,0.1-1.7,0.4s-0.9,0.6-1.2,1.1v-1.5h-1v10.1h1v-4.1L123.6,122.4z M124,118.6c0.2-0.4,0.6-0.8,1-1s0.9-0.4,1.4-0.4
	s1,0.1,1.4,0.4c0.4,0.2,0.7,0.6,1,1c0.2,0.4,0.4,0.9,0.4,1.5c0,0.6-0.1,1.1-0.4,1.5c-0.2,0.4-0.6,0.8-1,1c-0.4,0.2-0.9,0.3-1.4,0.3
	s-1-0.1-1.4-0.3s-0.7-0.6-1-1c-0.2-0.4-0.3-0.9-0.3-1.5S123.7,118.9,124,118.6z M108.1,123.8c0.7,0,1.4-0.2,1.9-0.5
	c0.6-0.3,1-0.7,1.3-1.3s0.5-1.2,0.5-1.9c0-0.7-0.1-1.3-0.4-1.9c-0.3-0.6-0.7-1-1.3-1.3c-0.5-0.3-1.1-0.5-1.8-0.5s-1.3,0.2-1.8,0.5
	s-0.9,0.8-1.2,1.3c0-1.2,0.3-2,0.8-2.6c0.5-0.6,1.3-1,2.3-1.2l3.1-0.7l-0.2-0.9l-3.3,0.8c-1.3,0.3-2.2,0.9-2.8,1.7
	c-0.6,0.8-0.9,2-0.9,3.6c0,1.5,0.3,2.7,1,3.6S106.9,123.8,108.1,123.8z M105.8,118.8c0.2-0.4,0.6-0.7,1-1c0.4-0.2,0.9-0.3,1.4-0.3
	s1,0.1,1.4,0.3c0.4,0.2,0.7,0.5,1,1s0.3,0.9,0.3,1.4s-0.1,1-0.3,1.5c-0.2,0.4-0.5,0.8-1,1c-0.4,0.2-0.9,0.3-1.4,0.3s-1-0.1-1.4-0.3
	s-0.7-0.6-1-1c-0.2-0.4-0.3-0.9-0.3-1.5C105.5,119.6,105.6,119.1,105.8,118.8z M95.5,118.2c0-0.6-0.2-1.1-0.7-1.4s-1.1-0.5-2-0.5
	h-3.2v7.4H93c0.9,0,1.7-0.2,2.1-0.5c0.5-0.3,0.7-0.8,0.7-1.5c0-1-0.5-1.6-1.5-1.8c0.4-0.1,0.7-0.4,0.9-0.6
	C95.4,118.9,95.5,118.6,95.5,118.2z M94.4,120.6c0.3,0.2,0.4,0.5,0.4,1c0,0.4-0.2,0.8-0.5,1s-0.8,0.3-1.4,0.3h-2.3v-2.6H93
	C93.6,120.3,94.1,120.4,94.4,120.6z M94.1,119.2c-0.3,0.2-0.7,0.3-1.3,0.3h-2.2V117h2.2c0.6,0,1,0.1,1.3,0.3s0.5,0.5,0.5,0.9
	C94.6,118.6,94.4,119.1,94.1,119.2z M198.1,141.2c0.6,0.3,1.3,0.5,2,0.5c0.6,0,1.1-0.1,1.6-0.3s0.9-0.5,1.2-0.9l-0.6-0.6
	c-0.3,0.3-0.6,0.6-1,0.7c-0.4,0.2-0.8,0.2-1.3,0.2c-0.8,0-1.5-0.2-2-0.7s-0.8-1.1-0.9-1.9h6.2v-0.3c0-0.7-0.2-1.4-0.5-1.9
	c-0.3-0.6-0.7-1-1.3-1.3c-0.5-0.3-1.2-0.5-1.8-0.5c-0.7,0-1.3,0.2-1.8,0.5s-1,0.8-1.3,1.3c-0.3,0.6-0.5,1.2-0.5,1.9s0.2,1.4,0.5,1.9
	C197.1,140.5,197.5,140.9,198.1,141.2L198.1,141.2z M198.1,135.9c0.5-0.5,1.1-0.7,1.8-0.7s1.3,0.2,1.8,0.7c0.5,0.4,0.8,1,0.8,1.8
	h-5.2C197.3,136.9,197.6,136.3,198.1,135.9L198.1,135.9z M156.8,105.2c0.6,0.3,1.3,0.5,2,0.5c0.6,0,1.1-0.1,1.6-0.3s0.9-0.5,1.2-0.9
	l-0.6-0.6c-0.3,0.3-0.6,0.6-1,0.7c-0.4,0.2-0.8,0.2-1.3,0.2c-0.8,0-1.5-0.2-2-0.7s-0.8-1.1-0.9-1.9h6.2v-0.3c0-0.7-0.2-1.4-0.5-1.9
	c-0.3-0.6-0.7-1-1.3-1.3c-0.5-0.3-1.2-0.5-1.8-0.5c-0.7,0-1.3,0.2-1.8,0.5s-1,0.8-1.3,1.3c-0.3,0.6-0.5,1.2-0.5,1.9
	c0,0.7,0.2,1.4,0.5,1.9C155.7,104.5,156.2,104.9,156.8,105.2L156.8,105.2z M156.7,99.8c0.5-0.5,1.1-0.7,1.8-0.7s1.3,0.2,1.8,0.7
	c0.5,0.4,0.8,1,0.8,1.8h-5.2C156,100.8,156.2,100.2,156.7,99.8L156.7,99.8z M108.6,98.6c-0.5,0.2-1,0.4-1.3,0.7l0.4,0.7
	c0.3-0.3,0.7-0.5,1.1-0.6c0.4-0.2,0.9-0.2,1.3-0.2c0.7,0,1.2,0.2,1.6,0.5s0.5,0.8,0.5,1.4v0.4h-2.3c-1,0-1.7,0.2-2.2,0.6
	c-0.4,0.4-0.7,0.9-0.7,1.5c0,0.6,0.2,1.2,0.7,1.6c0.5,0.4,1.1,0.6,2,0.6c0.6,0,1.1-0.1,1.5-0.3s0.8-0.5,1-0.9v1.1h1V101
	c0-0.9-0.3-1.7-0.8-2.1c-0.5-0.5-1.3-0.7-2.2-0.7C109.7,98.2,109.2,98.3,108.6,98.6z M112.3,103.4c-0.2,0.5-0.5,0.9-0.9,1.1
	c-0.4,0.3-0.9,0.4-1.4,0.4c-0.6,0-1-0.1-1.4-0.4c-0.3-0.3-0.5-0.6-0.5-1c0-0.9,0.6-1.3,1.9-1.3h2.3
	C112.3,102.2,112.3,103.4,112.3,103.4z M193.6,155.9c0.4-0.1,0.8-0.4,1-0.6c0.3-0.3,0.4-0.6,0.4-1s-0.1-0.7-0.4-1
	c-0.3-0.3-0.6-0.5-1.1-0.7c-0.4-0.2-1-0.3-1.5-0.3c-0.9,0-1.9,0.2-2.7,0.7l0.3,0.8c0.8-0.4,1.6-0.6,2.4-0.6c0.6,0,1.1,0.1,1.5,0.3
	s0.6,0.5,0.6,0.9s-0.2,0.6-0.5,0.9c-0.3,0.2-0.8,0.3-1.3,0.3H191v0.7h1.3c0.6,0,1.1,0.1,1.5,0.3s0.5,0.5,0.5,0.9s-0.2,0.8-0.7,1
	c-0.4,0.3-1,0.4-1.7,0.4c-0.5,0-0.9-0.1-1.4-0.2c-0.4-0.1-0.8-0.3-1.2-0.6l-0.3,0.7c0.4,0.3,0.8,0.5,1.3,0.7c0.5,0.1,1,0.2,1.6,0.2
	s1.2-0.1,1.7-0.3s0.9-0.4,1.2-0.8c0.3-0.3,0.4-0.7,0.4-1.1s-0.1-0.8-0.4-1.1C194.5,156.1,194.1,155.9,193.6,155.9L193.6,155.9z
	 M178.1,152.8c-0.6-0.3-1.2-0.5-1.9-0.5c-0.6,0-1.2,0.1-1.7,0.4c-0.5,0.3-0.9,0.6-1.2,1.1v-1.5h-1v10.1h1v-4.1
	c0.3,0.5,0.7,0.8,1.2,1.1c0.5,0.2,1,0.4,1.6,0.4c0.7,0,1.3-0.2,1.9-0.5c0.6-0.3,1-0.8,1.3-1.3c0.3-0.6,0.5-1.2,0.5-2
	c0-0.7-0.2-1.4-0.5-1.9C179.1,153.6,178.7,153.1,178.1,152.8L178.1,152.8z M178.5,157.6c-0.2,0.4-0.6,0.8-1,1s-0.9,0.3-1.4,0.3
	s-1-0.1-1.4-0.3s-0.7-0.6-1-1c-0.2-0.4-0.3-0.9-0.3-1.5s0.1-1.1,0.3-1.5s0.6-0.8,1-1s0.9-0.4,1.4-0.4s1,0.1,1.4,0.4
	c0.4,0.2,0.7,0.6,1,1c0.2,0.4,0.4,0.9,0.4,1.5S178.8,157.1,178.5,157.6z M180.1,134.4h1v7.4h-1V134.4z M169.9,105.3
	c0.6-0.3,1-0.8,1.3-1.3c0.3-0.6,0.5-1.2,0.5-2c0-0.7-0.2-1.4-0.5-1.9c-0.3-0.6-0.8-1-1.3-1.3c-0.6-0.3-1.2-0.5-1.9-0.5
	c-0.6,0-1.2,0.1-1.7,0.4s-0.9,0.6-1.2,1.1v-1.5h-1v10.1h1v-4.1c0.3,0.5,0.7,0.8,1.2,1.1c0.5,0.2,1,0.4,1.6,0.4
	C168.8,105.7,169.4,105.6,169.9,105.3L169.9,105.3z M166.6,104.5c-0.4-0.2-0.7-0.6-1-1c-0.2-0.4-0.4-0.9-0.4-1.5
	c0-0.6,0.1-1.1,0.4-1.5c0.2-0.4,0.6-0.8,1-1s0.9-0.4,1.4-0.4s1,0.1,1.4,0.4c0.4,0.2,0.7,0.6,1,1c0.2,0.4,0.4,0.9,0.4,1.5
	c0,0.6-0.1,1.1-0.4,1.5c-0.2,0.4-0.6,0.8-1,1s-0.9,0.3-1.4,0.3S167,104.8,166.6,104.5z M175.7,123.8h1v-7.4h-1v3.2H171v-3.2h-0.9
	v7.4h0.9v-3.3h4.7V123.8z M202.4,152.8c-0.6-0.3-1.2-0.5-1.9-0.5s-1.3,0.2-1.9,0.5c-0.6,0.3-1,0.8-1.3,1.3c-0.3,0.6-0.5,1.2-0.5,1.9
	s0.2,1.4,0.5,1.9c0.3,0.6,0.8,1,1.3,1.3c0.6,0.3,1.2,0.5,1.9,0.5s1.3-0.2,1.9-0.5c0.6-0.3,1-0.8,1.3-1.3c0.3-0.6,0.5-1.2,0.5-1.9
	s-0.2-1.4-0.5-1.9S203,153.1,202.4,152.8z M202.9,157.6c-0.2,0.4-0.6,0.8-1,1s-0.9,0.3-1.4,0.3s-1-0.1-1.4-0.3s-0.7-0.6-1-1
	c-0.2-0.4-0.4-0.9-0.4-1.5s0.1-1.1,0.4-1.5c0.2-0.4,0.6-0.8,1-1s0.9-0.4,1.4-0.4s1,0.1,1.4,0.4c0.4,0.2,0.7,0.6,1,1
	c0.2,0.4,0.3,0.9,0.3,1.5S203.1,157.1,202.9,157.6z M152.8,105.8v-7.4h-6.6v7.4h1v-6.5h4.6v6.5H152.8z M174.9,98.8
	c-0.5,0.3-1,0.8-1.3,1.3c-0.3,0.6-0.5,1.2-0.5,1.9c0,0.7,0.2,1.4,0.5,1.9c0.3,0.6,0.8,1,1.4,1.3c0.6,0.3,1.3,0.5,2,0.5
	c0.6,0,1.1-0.1,1.6-0.3s0.9-0.5,1.2-0.9l-0.6-0.6c-0.3,0.3-0.6,0.6-1,0.7c-0.4,0.2-0.8,0.2-1.3,0.2c-0.8,0-1.5-0.2-2-0.7
	s-0.8-1.1-0.9-1.9h6.2v-0.3c0-0.7-0.2-1.4-0.5-1.9c-0.3-0.6-0.7-1-1.3-1.3c-0.5-0.3-1.2-0.5-1.8-0.5
	C176.1,98.2,175.5,98.4,174.9,98.8L174.9,98.8z M179.4,101.6h-5.2c0.1-0.7,0.3-1.3,0.8-1.8s1.1-0.7,1.8-0.7s1.3,0.2,1.8,0.7
	C179,100.2,179.3,100.8,179.4,101.6L179.4,101.6z M180.6,123.2c0.6,0.3,1.2,0.5,1.9,0.5s1.3-0.2,1.9-0.5c0.6-0.3,1-0.8,1.3-1.3
	c0.3-0.6,0.5-1.2,0.5-1.9c0-0.7-0.2-1.4-0.5-1.9c-0.3-0.6-0.8-1-1.3-1.3c-0.6-0.3-1.2-0.5-1.9-0.5s-1.3,0.2-1.9,0.5
	c-0.6,0.3-1,0.8-1.3,1.3c-0.3,0.6-0.5,1.2-0.5,1.9c0,0.7,0.2,1.4,0.5,1.9C179.6,122.6,180.1,122.9,180.6,123.2z M180.1,118.6
	c0.2-0.4,0.6-0.8,1-1s0.9-0.4,1.4-0.4s1,0.1,1.4,0.4c0.4,0.2,0.7,0.6,1,1c0.2,0.4,0.3,0.9,0.3,1.5c0,0.6-0.1,1.1-0.3,1.5
	s-0.6,0.8-1,1s-0.9,0.3-1.4,0.3s-1-0.1-1.4-0.3s-0.7-0.6-1-1c-0.2-0.4-0.4-0.9-0.4-1.5S179.9,118.9,180.1,118.6z M250.3,152.8
	c-0.6-0.3-1.2-0.5-1.9-0.5c-0.6,0-1.2,0.1-1.8,0.4c-0.5,0.3-1,0.7-1.3,1.1c-0.3,0.5-0.5,1-0.6,1.7H243v-3.2h-1v7.4h1v-3.3h1.7
	c0.1,0.7,0.2,1.2,0.6,1.7c0.3,0.5,0.8,0.9,1.3,1.2s1.1,0.4,1.8,0.4s1.3-0.2,1.9-0.5c0.6-0.3,1-0.8,1.3-1.3c0.3-0.6,0.5-1.2,0.5-1.9
	s-0.2-1.4-0.5-1.9S250.9,153,250.3,152.8L250.3,152.8z M250.8,157.6c-0.2,0.4-0.6,0.8-1,1s-0.9,0.4-1.4,0.4s-1-0.1-1.4-0.4
	c-0.4-0.2-0.7-0.6-1-1c-0.2-0.4-0.4-0.9-0.4-1.5s0.1-1.1,0.4-1.5c0.2-0.4,0.5-0.8,1-1c0.4-0.2,0.9-0.4,1.4-0.4s1,0.1,1.4,0.4
	c0.4,0.2,0.7,0.6,1,1c0.2,0.4,0.4,0.9,0.4,1.5S251,157.1,250.8,157.6z M188.2,101.6h-4.7v-3.2h-1v7.4h1v-3.3h4.7v3.3h0.9v-7.4h-0.9
	V101.6z M244.3,104.3l-0.7-0.5c-0.2,0.4-0.6,0.6-0.9,0.8c-0.4,0.2-0.8,0.3-1.2,0.3c-0.5,0-1-0.1-1.4-0.3c-0.4-0.2-0.8-0.6-1-1
	c-0.2-0.4-0.3-0.9-0.3-1.5c0-0.6,0.1-1.1,0.3-1.5c0.2-0.4,0.6-0.8,1-1s0.9-0.4,1.4-0.4c0.4,0,0.8,0.1,1.2,0.3
	c0.4,0.2,0.7,0.4,0.9,0.8l0.7-0.5c-0.3-0.5-0.7-0.8-1.2-1.1s-1.1-0.4-1.7-0.4c-0.7,0-1.4,0.2-2,0.5s-1,0.8-1.3,1.3
	c-0.3,0.6-0.5,1.2-0.5,1.9c0,0.7,0.2,1.4,0.5,1.9c0.3,0.6,0.8,1,1.3,1.3c0.6,0.3,1.2,0.5,2,0.5c0.6,0,1.2-0.1,1.7-0.4
	C243.6,105.2,244,104.8,244.3,104.3L244.3,104.3z M196.9,105.2c0.6-0.3,1-0.8,1.3-1.3c0.3-0.6,0.5-1.2,0.5-1.9
	c0-0.7-0.2-1.4-0.5-1.9c-0.3-0.6-0.8-1-1.3-1.3c-0.6-0.3-1.2-0.5-1.9-0.5s-1.3,0.2-1.9,0.5c-0.6,0.3-1,0.8-1.3,1.3
	c-0.3,0.6-0.5,1.2-0.5,1.9c0,0.7,0.2,1.4,0.5,1.9c0.3,0.6,0.8,1,1.3,1.3c0.6,0.3,1.2,0.5,1.9,0.5S196.4,105.6,196.9,105.2z
	 M192.6,103.6c-0.2-0.4-0.4-0.9-0.4-1.5c0-0.6,0.1-1.1,0.4-1.5c0.2-0.4,0.6-0.8,1-1s0.9-0.4,1.4-0.4s1,0.1,1.4,0.4
	c0.4,0.2,0.7,0.6,1,1c0.2,0.4,0.3,0.9,0.3,1.5c0,0.6-0.1,1.1-0.3,1.5c-0.2,0.4-0.6,0.8-1,1s-0.9,0.3-1.4,0.3s-1-0.1-1.4-0.3
	C193.2,104.2,192.9,103.9,192.6,103.6z M194.1,134.4h-1v6.5h-3.5v-6.5h-1v6.5H185v-6.5h-1v7.4h10.1V134.4z M204,105.8
	c0.6,0,1.2-0.1,1.7-0.4s0.9-0.6,1.2-1.1l-0.7-0.5c-0.2,0.4-0.5,0.6-0.9,0.8c-0.4,0.2-0.8,0.3-1.2,0.3c-0.5,0-1-0.1-1.4-0.3
	s-0.8-0.6-1-1c-0.2-0.4-0.3-0.9-0.3-1.5c0-0.6,0.1-1.1,0.3-1.5c0.2-0.4,0.6-0.8,1-1s0.9-0.4,1.4-0.4c0.4,0,0.8,0.1,1.2,0.3
	s0.7,0.4,0.9,0.8l0.7-0.5c-0.3-0.5-0.7-0.8-1.2-1.1c-0.5-0.3-1.1-0.4-1.7-0.4c-0.7,0-1.4,0.2-2,0.5s-1,0.8-1.3,1.3
	c-0.3,0.6-0.5,1.2-0.5,1.9c0,0.7,0.2,1.4,0.5,1.9c0.3,0.6,0.8,1,1.3,1.3C202.6,105.7,203.2,105.8,204,105.8L204,105.8z M233.5,158.1
	v-5.8h-1v7.4h0.9l4.9-5.9v5.9h1v-7.4h-0.9L233.5,158.1z M198.5,123.8v-6.5h2.8v-0.9h-6.5v0.9h2.8v6.5H198.5z M255.9,100.9h-2.2v-2.6
	h-1v7.4h3c1,0,1.7-0.2,2.2-0.6c0.5-0.4,0.8-1,0.8-1.8s-0.2-1.3-0.7-1.7C257.5,101.1,256.8,100.9,255.9,100.9L255.9,100.9z
	 M257.2,104.5c-0.3,0.3-0.9,0.4-1.5,0.4h-1.9v-3.3h1.9c0.7,0,1.2,0.1,1.6,0.4c0.3,0.3,0.5,0.7,0.5,1.2
	C257.7,103.8,257.5,104.2,257.2,104.5z M98.2,125.8l0.6-1.9c0.1-0.2,0.1-0.3,0.1-0.4c0-0.1,0.1-0.3,0.1-0.4c0-0.2-0.1-0.4-0.2-0.5
	s-0.3-0.2-0.5-0.2s-0.4,0.1-0.5,0.2c-0.1,0.1-0.2,0.3-0.2,0.5s0,0.3,0.1,0.5c0.1,0.1,0.2,0.2,0.4,0.3l-0.5,2h0.6V125.8z
	 M210.6,125.8l0.6-1.9c0.1-0.2,0.1-0.3,0.1-0.4c0-0.1,0.1-0.3,0.1-0.4c0-0.2-0.1-0.4-0.2-0.5c-0.1-0.1-0.3-0.2-0.5-0.2
	s-0.4,0.1-0.5,0.2c-0.1,0.1-0.2,0.3-0.2,0.5s0,0.3,0.1,0.5c0.1,0.1,0.2,0.2,0.4,0.3l-0.5,2h0.6L210.6,125.8z M244.7,99.2h2.8v6.5h1
	v-6.5h2.8v-0.9h-6.6V99.2z M215.5,105.8v-7.4h-0.8l-4.9,5.8v-5.8h-1v7.4h0.9l4.9-5.9v5.9H215.5z M173,134.4v7.4h2.9
	c1,0,1.7-0.2,2.2-0.6c0.5-0.4,0.8-1,0.8-1.8s-0.2-1.3-0.7-1.7s-1.2-0.6-2.1-0.6H174v-2.6L173,134.4L173,134.4z M175.8,137.7
	c0.7,0,1.2,0.1,1.6,0.4c0.3,0.3,0.5,0.7,0.5,1.2c0,0.6-0.2,1-0.5,1.3s-0.9,0.4-1.5,0.4H174v-3.3L175.8,137.7L175.8,137.7z
	 M233.1,141.8l1.7-2.4h2.6v2.4h0.9v-7.4h-3.1c-1,0-1.7,0.2-2.3,0.6c-0.6,0.4-0.8,1.1-0.8,1.9c0,0.6,0.2,1.1,0.5,1.5s0.7,0.7,1.3,0.8
	l-1.8,2.6L233.1,141.8L233.1,141.8z M233.1,136.9c0-1.1,0.7-1.7,2.2-1.7h2.2v3.3h-2.2C233.8,138.6,233.1,138,233.1,136.9z
	 M190,117.6c0.4-0.2,0.9-0.4,1.4-0.4c0.4,0,0.8,0.1,1.2,0.3s0.7,0.4,0.9,0.8l0.7-0.5c-0.3-0.5-0.7-0.8-1.2-1.1
	c-0.5-0.3-1.1-0.4-1.7-0.4c-0.7,0-1.4,0.2-2,0.5s-1,0.8-1.3,1.3c-0.3,0.6-0.5,1.2-0.5,1.9s0.2,1.4,0.5,1.9c0.3,0.6,0.8,1,1.3,1.3
	c0.6,0.3,1.2,0.5,2,0.5c0.6,0,1.2-0.1,1.7-0.4c0.5-0.3,0.9-0.6,1.2-1.1l-0.7-0.5c-0.2,0.4-0.6,0.6-0.9,0.8c-0.4,0.2-0.8,0.3-1.2,0.3
	c-0.5,0-1-0.1-1.4-0.3s-0.8-0.6-1-1s-0.3-0.9-0.3-1.5s0.1-1.1,0.3-1.5C189.3,118.1,189.6,117.8,190,117.6z M254.1,158.2
	c-0.2,0-0.4,0.1-0.5,0.2c-0.1,0.1-0.2,0.3-0.2,0.5s0.1,0.4,0.2,0.5c0.1,0.1,0.3,0.2,0.5,0.2s0.4-0.1,0.5-0.2s0.2-0.3,0.2-0.5
	s-0.1-0.4-0.2-0.5C254.5,158.3,254.3,158.2,254.1,158.2z M121.6,105.8v-7.4h-3.1c-1,0-1.7,0.2-2.3,0.6c-0.6,0.4-0.8,1.1-0.8,1.9
	c0,0.6,0.2,1.1,0.5,1.5c0.3,0.4,0.7,0.7,1.3,0.8l-1.8,2.6h1.1l1.7-2.4h2.6v2.4C120.8,105.8,121.6,105.8,121.6,105.8z M118.4,102.6
	c-1.4,0-2.1-0.5-2.1-1.6c0-1.1,0.7-1.7,2.2-1.7h2.2v3.3C120.7,102.6,118.4,102.6,118.4,102.6z M217.4,152.2c-0.6,0-1.1,0.1-1.7,0.3
	c-0.5,0.2-1,0.4-1.3,0.7l0.4,0.7c0.3-0.3,0.7-0.5,1.1-0.6c0.4-0.2,0.9-0.2,1.3-0.2c0.7,0,1.2,0.2,1.6,0.5c0.4,0.3,0.5,0.8,0.5,1.4
	v0.4H217c-1,0-1.7,0.2-2.2,0.6c-0.4,0.4-0.7,0.9-0.7,1.5s0.2,1.2,0.7,1.6c0.5,0.4,1.1,0.6,2,0.6c0.6,0,1.1-0.1,1.5-0.3
	s0.8-0.5,1-0.9v1.1h1v-4.6c0-0.9-0.3-1.7-0.8-2.1C219.1,152.6,218.4,152.2,217.4,152.2z M219.4,157.4c-0.2,0.5-0.5,0.9-0.9,1.1
	c-0.4,0.3-0.9,0.4-1.4,0.4c-0.6,0-1-0.1-1.4-0.4c-0.3-0.3-0.5-0.6-0.5-1c0-0.9,0.6-1.3,1.9-1.3h2.3L219.4,157.4L219.4,157.4z
	 M138.7,120.1c0-0.7-0.2-1.4-0.5-1.9c-0.3-0.6-0.7-1-1.3-1.3c-0.5-0.3-1.2-0.5-1.8-0.5c-0.7,0-1.3,0.2-1.8,0.5s-1,0.8-1.3,1.3
	c-0.3,0.6-0.5,1.2-0.5,1.9c0,0.7,0.2,1.4,0.5,1.9c0.3,0.6,0.8,1,1.4,1.3c0.6,0.3,1.3,0.5,2,0.5c0.6,0,1.1-0.1,1.6-0.3
	s0.9-0.5,1.2-0.9l-0.6-0.6c-0.3,0.3-0.6,0.6-1,0.7c-0.4,0.2-0.8,0.2-1.3,0.2c-0.8,0-1.5-0.2-2-0.7s-0.8-1.1-0.9-1.9h6.2L138.7,120.1
	L138.7,120.1z M132.5,119.6c0.1-0.7,0.3-1.3,0.8-1.8s1.1-0.7,1.8-0.7s1.3,0.2,1.8,0.7c0.5,0.4,0.8,1,0.8,1.8H132.5L132.5,119.6z
	 M120.4,120.1c0-0.7-0.2-1.4-0.5-1.9c-0.3-0.6-0.7-1-1.3-1.3c-0.5-0.3-1.2-0.5-1.8-0.5c-0.7,0-1.3,0.2-1.8,0.5s-1,0.8-1.3,1.3
	c-0.3,0.6-0.5,1.2-0.5,1.9c0,0.7,0.2,1.4,0.5,1.9c0.3,0.6,0.8,1,1.4,1.3s1.3,0.5,2,0.5c0.6,0,1.1-0.1,1.6-0.3s0.9-0.5,1.2-0.9
	l-0.6-0.6c-0.3,0.3-0.6,0.6-1,0.7c-0.4,0.2-0.8,0.2-1.3,0.2c-0.8,0-1.5-0.2-2-0.7s-0.8-1.1-0.9-1.9h6.2L120.4,120.1L120.4,120.1z
	 M114.3,119.6c0.1-0.7,0.3-1.3,0.8-1.8s1.1-0.7,1.8-0.7s1.3,0.2,1.8,0.7c0.5,0.4,0.8,1,0.8,1.8H114.3L114.3,119.6z M211.1,155.9
	c0.4-0.1,0.7-0.4,0.9-0.6c0.2-0.3,0.3-0.6,0.3-1c0-0.6-0.2-1.1-0.7-1.4c-0.5-0.3-1.1-0.5-2-0.5h-3.2v7.4h3.3c0.9,0,1.7-0.2,2.1-0.5
	c0.5-0.3,0.7-0.8,0.7-1.5C212.6,156.8,212.1,156.1,211.1,155.9L211.1,155.9z M207.3,153.2h2.2c0.6,0,1,0.1,1.3,0.3s0.5,0.5,0.5,0.9
	s-0.2,0.7-0.5,0.9s-0.7,0.3-1.3,0.3h-2.2V153.2z M211.1,158.7c-0.3,0.2-0.8,0.3-1.4,0.3h-2.3v-2.6h2.4c0.6,0,1.1,0.1,1.4,0.3
	c0.3,0.2,0.4,0.5,0.4,1C211.6,158.1,211.4,158.5,211.1,158.7L211.1,158.7z M104.9,105.8v-7.4h-1v3.2h-4.6v-3.2h-1v7.4h1v-3.3h4.6
	v3.3H104.9z M117.8,143.4v-2.6h-1.1v-6.5h-5.4l-0.1,2.5c-0.1,1.3-0.2,2.2-0.4,2.9c-0.2,0.7-0.5,1.1-1,1.1h-0.4v2.6h0.9v-1.8h6.6v1.8
	H117.8z M115.6,140.8H111c0.3-0.3,0.6-0.7,0.7-1.4s0.2-1.5,0.3-2.6l0.1-1.6h3.5C115.6,135.2,115.6,140.8,115.6,140.8z M220.7,137.6
	h-4.6v-3.2h-1v7.4h1v-3.3h4.6v3.3h1v-7.4h-1V137.6z M208,123.1c0.5-0.4,0.8-1,0.8-1.8s-0.2-1.3-0.7-1.7c-0.5-0.4-1.2-0.6-2.1-0.6
	h-2.2v-2.6h-1v7.4h3C206.7,123.8,207.5,123.6,208,123.1z M203.8,122.9v-3.3h1.9c0.7,0,1.2,0.1,1.6,0.4c0.3,0.3,0.5,0.7,0.5,1.2
	c0,0.6-0.2,1-0.5,1.3s-0.9,0.4-1.5,0.4H203.8z M227,134.2c-0.6,0-1.1,0.1-1.7,0.3c-0.5,0.2-1,0.4-1.3,0.7l0.4,0.7
	c0.3-0.3,0.7-0.5,1.1-0.6c0.4-0.2,0.9-0.2,1.3-0.2c0.7,0,1.2,0.2,1.6,0.5c0.4,0.3,0.5,0.8,0.5,1.4v0.4h-2.3c-1,0-1.7,0.2-2.2,0.6
	c-0.4,0.4-0.7,0.9-0.7,1.5s0.2,1.2,0.7,1.6c0.5,0.4,1.1,0.6,2,0.6c0.6,0,1.1-0.1,1.5-0.3s0.8-0.5,1-0.9v1.1h1v-4.6
	c0-0.9-0.3-1.7-0.8-2.1C228.7,134.6,228,134.2,227,134.2z M229,139.4c-0.2,0.5-0.5,0.9-0.9,1.1c-0.4,0.3-0.9,0.4-1.4,0.4
	c-0.6,0-1-0.1-1.4-0.4c-0.3-0.3-0.5-0.6-0.5-1c0-0.9,0.6-1.3,1.9-1.3h2.3L229,139.4L229,139.4z M167.2,123.8v-7.4h-1v3.2h-4.6v-3.2
	h-1v7.4h1v-3.3h4.6v3.3H167.2z M228.7,155.6h-4.6v-3.2h-1v7.4h1v-3.3h4.6v3.3h1v-7.4h-1V155.6z M234.4,105.2c0.6-0.3,1-0.8,1.3-1.3
	c0.3-0.6,0.5-1.2,0.5-1.9c0-0.7-0.2-1.4-0.5-1.9c-0.3-0.6-0.8-1-1.3-1.3c-0.6-0.3-1.2-0.5-1.9-0.5s-1.3,0.2-1.9,0.5
	c-0.6,0.3-1,0.8-1.3,1.3c-0.3,0.6-0.5,1.2-0.5,1.9c0,0.7,0.2,1.4,0.5,1.9c0.3,0.6,0.8,1,1.3,1.3c0.6,0.3,1.2,0.5,1.9,0.5
	S233.8,105.6,234.4,105.2z M230.1,103.6c-0.2-0.4-0.3-0.9-0.3-1.5c0-0.6,0.1-1.1,0.3-1.5c0.2-0.4,0.6-0.8,1-1s0.9-0.4,1.4-0.4
	s1,0.1,1.4,0.4c0.4,0.2,0.7,0.6,1,1c0.2,0.4,0.4,0.9,0.4,1.5c0,0.6-0.1,1.1-0.4,1.5c-0.2,0.4-0.6,0.8-1,1s-0.9,0.3-1.4,0.3
	s-1-0.1-1.4-0.3C230.7,104.2,230.3,103.9,230.1,103.6z M139.5,143.8l0.6-1.9c0.1-0.2,0.1-0.3,0.1-0.4c0-0.1,0.1-0.3,0.1-0.4
	c0-0.2-0.1-0.4-0.2-0.5c-0.1-0.1-0.3-0.2-0.5-0.2s-0.4,0.1-0.5,0.2c-0.1,0.1-0.2,0.3-0.2,0.5s0,0.3,0.1,0.5c0.1,0.1,0.2,0.2,0.4,0.3
	l-0.5,2h0.6L139.5,143.8z M149.1,123.8v-7.4h-0.9l-3.2,5.3l-3.1-5.3h-1v7.4h0.9v-5.9l3,5h0.4l3-5v5.9L149.1,123.8z M225.7,105.8h0.9
	v-7.4h-0.9l-3.2,5.3l-3.1-5.3h-1v7.4h0.9v-5.9l3,5h0.4l3-5L225.7,105.8z M142.3,105.4c0.5-0.2,0.9-0.5,1.2-0.9l-0.6-0.6
	c-0.3,0.3-0.6,0.6-1,0.7c-0.4,0.2-0.8,0.2-1.3,0.2c-0.8,0-1.5-0.2-2-0.7s-0.8-1.1-0.9-1.9h6.2v-0.3c0-0.7-0.2-1.4-0.5-1.9
	c-0.3-0.6-0.7-1-1.3-1.3c-0.5-0.3-1.2-0.5-1.8-0.5c-0.7,0-1.3,0.2-1.8,0.5s-1,0.8-1.3,1.3c-0.3,0.6-0.5,1.2-0.5,1.9
	c0,0.7,0.2,1.4,0.5,1.9c0.3,0.6,0.8,1,1.4,1.3c0.6,0.3,1.3,0.5,2,0.5C141.3,105.7,141.8,105.6,142.3,105.4L142.3,105.4z M138.6,99.8
	c0.5-0.5,1.1-0.7,1.8-0.7s1.3,0.2,1.8,0.7c0.5,0.4,0.8,1,0.8,1.8h-5.2C137.9,100.8,138.1,100.2,138.6,99.8L138.6,99.8z M79.8,154.9
	h-2.2v-2.6h-1v7.4h3c1,0,1.7-0.2,2.2-0.6c0.5-0.4,0.8-1,0.8-1.8s-0.2-1.3-0.7-1.7C81.4,155.1,80.7,154.9,79.8,154.9L79.8,154.9z
	 M81.1,158.6c-0.3,0.3-0.9,0.4-1.5,0.4h-1.9v-3.3h1.9c0.7,0,1.2,0.1,1.6,0.4s0.5,0.7,0.5,1.2C81.6,157.8,81.5,158.2,81.1,158.6
	L81.1,158.6z M44.5,100.2c0-0.6-0.2-1.1-0.7-1.4s-1.1-0.5-2-0.5h-3.2v7.4h3.3c0.9,0,1.7-0.2,2.1-0.5c0.5-0.3,0.7-0.8,0.7-1.5
	c0-1-0.5-1.6-1.5-1.8c0.4-0.1,0.7-0.4,0.9-0.6C44.4,100.9,44.5,100.6,44.5,100.2z M43.3,102.6c0.3,0.2,0.4,0.5,0.4,1
	c0,0.4-0.2,0.8-0.5,1s-0.8,0.3-1.4,0.3h-2.3v-2.6H42C42.6,102.4,43,102.4,43.3,102.6z M43,101.2c-0.3,0.2-0.7,0.3-1.3,0.3h-2.2v-2.5
	h2.2c0.6,0,1,0.1,1.3,0.3c0.3,0.2,0.5,0.5,0.5,0.9C43.5,100.7,43.3,101.1,43,101.2z M17,105.8v-7.4h-1v3.2h-4.7v-3.2h-0.9v7.4h0.9
	v-3.3H16v3.3H17z M137.1,139.9c0.3-0.6,0.5-1.2,0.5-1.9s-0.2-1.4-0.5-1.9c-0.3-0.6-0.8-1-1.3-1.3c-0.6-0.3-1.2-0.5-1.9-0.5
	c-0.6,0-1.2,0.1-1.8,0.4c-0.5,0.3-1,0.7-1.3,1.1c-0.3,0.5-0.5,1-0.6,1.7h-1.7v-3.2h-1v7.4h1v-3.3h1.7c0.1,0.7,0.2,1.2,0.6,1.7
	c0.3,0.5,0.8,0.9,1.3,1.2s1.1,0.4,1.8,0.4s1.3-0.2,1.9-0.5C136.3,140.9,136.8,140.5,137.1,139.9L137.1,139.9z M133.9,140.9
	c-0.5,0-1-0.1-1.4-0.4c-0.4-0.2-0.7-0.6-1-1c-0.2-0.4-0.3-0.9-0.3-1.5s0.1-1.1,0.3-1.5s0.6-0.8,1-1s0.9-0.4,1.4-0.4s1,0.1,1.4,0.4
	c0.4,0.2,0.7,0.6,1,1c0.2,0.4,0.3,0.9,0.3,1.5s-0.1,1.1-0.3,1.5s-0.6,0.8-1,1S134.4,140.9,133.9,140.9z M35.7,98.3h-0.9l-4.9,5.8
	v-5.8h-1v7.4h0.9l4.9-5.9v5.9h1V98.3z M129.2,157.6l-3.1-5.3h-1v7.4h0.9v-5.9l3,5h0.5l2.9-5v5.9h0.9v-7.4h-0.9L129.2,157.6z
	 M121.2,152.8c-0.6-0.3-1.2-0.5-1.9-0.5s-1.3,0.2-1.9,0.5s-1,0.8-1.3,1.3c-0.3,0.6-0.5,1.2-0.5,1.9s0.2,1.4,0.5,1.9
	c0.3,0.6,0.8,1,1.3,1.3c0.6,0.3,1.2,0.5,1.9,0.5s1.3-0.2,1.9-0.5s1-0.8,1.3-1.3c0.3-0.6,0.5-1.2,0.5-1.9s-0.2-1.4-0.5-1.9
	S121.7,153.1,121.2,152.8z M121.6,157.6c-0.2,0.4-0.6,0.8-1,1s-0.9,0.3-1.4,0.3s-1-0.1-1.4-0.3s-0.7-0.6-1-1
	c-0.2-0.4-0.3-0.9-0.3-1.5s0.1-1.1,0.3-1.5c0.2-0.4,0.6-0.8,1-1s0.9-0.4,1.4-0.4s1,0.1,1.4,0.4c0.4,0.2,0.7,0.6,1,1
	c0.2,0.4,0.3,0.9,0.3,1.5S121.9,157.1,121.6,157.6z M39.1,123.2c0.6,0.3,1.2,0.5,1.9,0.5s1.3-0.2,1.9-0.5c0.6-0.3,1-0.8,1.3-1.3
	c0.3-0.6,0.5-1.2,0.5-1.9c0-0.7-0.2-1.4-0.5-1.9c-0.3-0.6-0.8-1-1.3-1.3c-0.6-0.3-1.2-0.5-1.9-0.5s-1.3,0.2-1.9,0.5
	c-0.6,0.3-1,0.8-1.3,1.3c-0.3,0.6-0.5,1.2-0.5,1.9c0,0.7,0.2,1.4,0.5,1.9C38.1,122.6,38.5,122.9,39.1,123.2z M38.6,118.6
	c0.2-0.4,0.6-0.8,1-1s0.9-0.4,1.4-0.4s1,0.1,1.4,0.4c0.4,0.2,0.7,0.6,1,1c0.2,0.4,0.3,0.9,0.3,1.5c0,0.6-0.1,1.1-0.3,1.5
	s-0.6,0.8-1,1s-0.9,0.3-1.4,0.3s-1-0.1-1.4-0.3s-0.7-0.6-1-1c-0.2-0.4-0.4-0.9-0.4-1.5S38.4,118.9,38.6,118.6z M125,137.6
	c-0.5-0.4-1.2-0.6-2.1-0.6h-2.2v-2.6h-1v7.4h3c1,0,1.7-0.2,2.2-0.6c0.5-0.4,0.8-1,0.8-1.8S125.4,137.9,125,137.6L125,137.6z
	 M124.1,140.6c-0.3,0.3-0.9,0.4-1.5,0.4h-1.9v-3.3h1.9c0.7,0,1.2,0.1,1.6,0.4c0.3,0.3,0.5,0.7,0.5,1.2
	C124.7,139.8,124.5,140.2,124.1,140.6L124.1,140.6z M53.5,123.8v-7.4h-1v3.2h-4.6v-3.2h-1v7.4h1v-3.3h4.6v3.3H53.5z M25.7,123.8
	v-7.4h-0.9l-3.2,5.3l-3.1-5.3h-1v7.4h0.9v-5.9l3,5h0.4l3-5v5.9L25.7,123.8z M141.6,152.9c-0.5-0.3-1.1-0.5-1.8-0.5s-1.3,0.2-1.8,0.5
	s-0.9,0.8-1.2,1.3c0-1.2,0.3-2,0.8-2.6s1.3-1,2.3-1.2l3.1-0.7l-0.2-0.9l-3.3,0.8c-1.3,0.3-2.2,0.9-2.8,1.7s-0.9,2-0.9,3.6
	c0,1.5,0.3,2.7,1,3.6c0.7,0.9,1.6,1.3,2.8,1.3c0.7,0,1.4-0.2,1.9-0.5c0.6-0.3,1-0.7,1.3-1.3s0.5-1.2,0.5-1.9s-0.1-1.3-0.4-1.9
	C142.5,153.8,142.1,153.3,141.6,152.9L141.6,152.9z M141.9,157.6c-0.2,0.4-0.5,0.8-1,1c-0.4,0.2-0.9,0.3-1.4,0.3s-1-0.1-1.4-0.3
	s-0.7-0.6-1-1c-0.2-0.4-0.3-0.9-0.3-1.5c0-0.5,0.1-1,0.3-1.4s0.6-0.7,1-1c0.4-0.2,0.9-0.3,1.4-0.3s1,0.1,1.4,0.3s0.7,0.5,1,1
	s0.3,0.9,0.3,1.4C142.3,156.7,142.1,157.2,141.9,157.6z M63.9,107.4v-2.6h-1.1v-6.5h-5.4l-0.1,2.5c-0.1,1.3-0.2,2.2-0.4,2.9
	c-0.2,0.7-0.5,1.1-1,1.1h-0.4v2.6h0.9v-1.8H63v1.8H63.9z M61.8,104.8h-4.6c0.3-0.3,0.6-0.7,0.7-1.4c0.1-0.7,0.2-1.5,0.3-2.6l0.1-1.6
	h3.5V104.8z M62.8,120.1c0-0.7-0.2-1.4-0.5-1.9c-0.3-0.6-0.7-1-1.3-1.3c-0.5-0.3-1.2-0.5-1.8-0.5c-0.7,0-1.3,0.2-1.8,0.5
	s-1,0.8-1.3,1.3c-0.3,0.6-0.5,1.2-0.5,1.9c0,0.7,0.2,1.4,0.5,1.9c0.3,0.6,0.8,1,1.4,1.3c0.6,0.3,1.3,0.5,2,0.5
	c0.6,0,1.1-0.1,1.6-0.3s0.9-0.5,1.2-0.9l-0.6-0.6c-0.3,0.3-0.6,0.6-1,0.7c-0.4,0.2-0.8,0.2-1.3,0.2c-0.8,0-1.5-0.2-2-0.7
	s-0.8-1.1-0.9-1.9h6.2C62.7,120.2,62.8,120,62.8,120.1z M56.6,119.6c0.1-0.7,0.3-1.3,0.8-1.8s1.1-0.7,1.8-0.7s1.3,0.2,1.8,0.7
	c0.5,0.4,0.8,1,0.8,1.8C61.8,119.6,56.6,119.6,56.6,119.6z M27,107.4v-2.6h-1.1v-6.5h-5.4l-0.1,2.5c-0.1,1.3-0.2,2.2-0.4,2.9
	c-0.2,0.7-0.5,1.1-1,1.1h-0.4v2.6h0.9v-1.8H26v1.8H27z M24.8,104.8h-4.6c0.3-0.3,0.6-0.7,0.7-1.4s0.2-1.5,0.3-2.6l0.1-1.6h3.5V104.8
	z M35.2,123.8v-7.4h-6.7v7.4h1v-6.5h4.7v6.5H35.2z M53.9,98.3H53l-4.9,5.8v-5.8h-1v7.4H48l4.9-5.9v5.9h1V98.3z M112.3,152.8
	c-0.6-0.3-1.2-0.5-1.9-0.5c-0.6,0-1.2,0.1-1.7,0.4c-0.5,0.3-0.9,0.6-1.2,1.1v-1.5h-1v10.1h1v-4.1c0.3,0.5,0.7,0.8,1.2,1.1
	c0.5,0.2,1,0.4,1.6,0.4c0.7,0,1.3-0.2,1.9-0.5s1-0.8,1.3-1.3c0.3-0.6,0.5-1.2,0.5-2c0-0.7-0.2-1.4-0.5-1.9
	C113.3,153.6,112.8,153.1,112.3,152.8z M112.7,157.6c-0.2,0.4-0.6,0.8-1,1s-0.9,0.3-1.4,0.3s-1-0.1-1.4-0.3s-0.7-0.6-1-1
	c-0.2-0.4-0.3-0.9-0.3-1.5s0.1-1.1,0.3-1.5c0.2-0.4,0.6-0.8,1-1s0.9-0.4,1.4-0.4s1,0.1,1.4,0.4c0.4,0.2,0.7,0.6,1,1
	c0.2,0.4,0.4,0.9,0.4,1.5S113,157.1,112.7,157.6z M87,118.1c-0.3-0.6-0.8-1-1.3-1.3c-0.6-0.3-1.2-0.5-1.9-0.5s-1.3,0.2-1.9,0.5
	s-1,0.8-1.3,1.3c-0.3,0.6-0.5,1.2-0.5,1.9c0,0.7,0.2,1.4,0.5,1.9c0.3,0.6,0.8,1,1.3,1.3c0.6,0.3,1.2,0.5,1.9,0.5s1.3-0.2,1.9-0.5
	s1-0.8,1.3-1.3c0.3-0.6,0.5-1.2,0.5-1.9C87.5,119.2,87.3,118.6,87,118.1z M86.1,121.6c-0.2,0.4-0.6,0.8-1,1s-0.9,0.3-1.4,0.3
	s-1-0.1-1.4-0.3s-0.7-0.6-1-1c-0.2-0.4-0.4-0.9-0.4-1.5s0.1-1.1,0.4-1.5c0.2-0.4,0.6-0.8,1-1s0.9-0.4,1.4-0.4s1,0.1,1.4,0.4
	c0.4,0.2,0.7,0.6,1,1c0.2,0.4,0.3,0.9,0.3,1.5C86.4,120.6,86.4,121.1,86.1,121.6z M98.6,153.2h2.8v6.5h1v-6.5h2.8v-0.9h-6.6
	L98.6,153.2z M2.4,153.6c0.4-0.2,0.9-0.4,1.4-0.4c0.4,0,0.8,0.1,1.2,0.3c0.4,0.2,0.7,0.4,0.9,0.8l0.7-0.5c-0.3-0.5-0.7-0.8-1.2-1.1
	c-0.4-0.2-1-0.4-1.6-0.4c-0.7,0-1.4,0.2-2,0.5s-1,0.8-1.3,1.3c-0.3,0.6-0.5,1.2-0.5,2s0.2,1.4,0.5,1.9c0.3,0.6,0.8,1,1.3,1.3
	c0.6,0.3,1.2,0.5,2,0.5c0.6,0,1.2-0.1,1.7-0.4c0.5-0.3,0.9-0.6,1.2-1.1L6,157.8c-0.2,0.4-0.6,0.6-0.9,0.8c-0.4,0.2-0.8,0.3-1.2,0.3
	c-0.5,0-1-0.1-1.4-0.3s-0.8-0.6-1-1s-0.3-0.9-0.3-1.5s0.1-1.1,0.3-1.5C1.6,154.1,1.9,153.8,2.4,153.6L2.4,153.6z M108.4,134.4
	l-2.8,6.3l-2.8-6.3h-1l3.3,7.3l-0.3,0.7c-0.2,0.4-0.4,0.8-0.7,1c-0.2,0.2-0.5,0.3-0.9,0.3c-0.5,0-1-0.2-1.3-0.6l-0.5,0.7
	c0.2,0.2,0.5,0.4,0.8,0.5s0.6,0.2,1,0.2c0.6,0,1-0.1,1.4-0.4c0.4-0.3,0.7-0.8,1-1.5l3.7-8.2C109.3,134.4,108.4,134.4,108.4,134.4z
	 M92.3,134.4h-5.2v7.4H88v-6.5h4.3L92.3,134.4z M100.7,139.9c0.3-0.6,0.5-1.2,0.5-2c0-0.7-0.2-1.4-0.5-1.9c-0.3-0.6-0.8-1-1.3-1.3
	c-0.6-0.3-1.2-0.5-1.9-0.5c-0.6,0-1.2,0.1-1.7,0.4c-0.5,0.3-0.9,0.6-1.2,1.1v-1.5h-1v10.1h1v-4.1c0.3,0.5,0.7,0.8,1.2,1.1
	c0.5,0.2,1,0.4,1.6,0.4c0.7,0,1.3-0.2,1.9-0.5S100.4,140.6,100.7,139.9z M97.4,140.8c-0.5,0-1-0.1-1.4-0.3s-0.7-0.6-1-1
	c-0.2-0.4-0.3-0.9-0.3-1.5s0.1-1.1,0.3-1.5c0.2-0.4,0.6-0.8,1-1s0.9-0.4,1.4-0.4s1,0.1,1.4,0.4c0.4,0.2,0.7,0.6,1,1
	c0.2,0.4,0.4,0.9,0.4,1.5s-0.1,1.1-0.4,1.5c-0.2,0.4-0.6,0.8-1,1S97.9,140.8,97.4,140.8z M94.6,152.4h-1.1l-2.6,3.2h-1.7v-3.2h-1
	v7.4h1v-3.3h1.7l2.7,3.3h1.2l-3.1-3.8L94.6,152.4z M15,152.4h-1.1l-2.6,3.2H9.6v-3.2h-1v7.4h1v-3.3h1.7l2.7,3.3h1.2l-3.1-3.8
	L15,152.4z M13.5,134.8c-0.6-0.3-1.2-0.5-1.9-0.5s-1.3,0.2-1.9,0.5c-0.6,0.3-1,0.8-1.3,1.3c-0.3,0.6-0.5,1.2-0.5,1.9
	s0.2,1.4,0.5,1.9c0.3,0.6,0.8,1,1.3,1.3c0.6,0.3,1.2,0.5,1.9,0.5s1.3-0.2,1.9-0.5c0.6-0.3,1-0.8,1.3-1.3c0.3-0.6,0.5-1.2,0.5-1.9
	s-0.2-1.4-0.5-1.9C14.6,135.6,14.1,135.1,13.5,134.8z M14,139.6c-0.2,0.4-0.6,0.8-1,1s-0.9,0.3-1.4,0.3s-1-0.1-1.4-0.3s-0.7-0.6-1-1
	c-0.2-0.4-0.3-0.9-0.3-1.5s0.1-1.1,0.3-1.5s0.6-0.8,1-1s0.9-0.4,1.4-0.4s1,0.1,1.4,0.4c0.4,0.2,0.7,0.6,1,1c0.2,0.4,0.4,0.9,0.4,1.5
	S14.2,139.1,14,139.6z M75.6,101.6c-1,0-1.7,0.2-2.2,0.6c-0.4,0.4-0.7,0.9-0.7,1.5c0,0.6,0.2,1.2,0.7,1.6c0.5,0.4,1.1,0.6,2,0.6
	c0.6,0,1.1-0.1,1.5-0.3c0.4-0.2,0.8-0.5,1-0.9v1.1h1v-4.6c0-0.9-0.3-1.7-0.8-2.1c-0.5-0.5-1.3-0.7-2.2-0.7c-0.6,0-1.1,0.1-1.7,0.3
	c-0.5,0.2-1,0.4-1.3,0.7l0.4,0.7c0.3-0.3,0.7-0.5,1.1-0.6c0.4-0.2,0.9-0.2,1.3-0.2c0.7,0,1.2,0.2,1.6,0.5s0.5,0.8,0.5,1.4v0.4
	C77.8,101.6,75.6,101.6,75.6,101.6z M77.9,103.4c-0.2,0.5-0.5,0.9-0.9,1.1c-0.4,0.3-0.9,0.4-1.4,0.4c-0.6,0-1-0.1-1.4-0.4
	c-0.3-0.3-0.5-0.6-0.5-1c0-0.9,0.6-1.3,1.9-1.3h2.3C77.9,102.2,77.9,103.4,77.9,103.4z M7.1,134.4H6l-2.6,3.2H1.7v-3.2h-1v7.4h1
	v-3.3h1.7l2.7,3.3h1.2l-3.1-3.8L7.1,134.4z M62.3,141.8v-7.4h-1v3.2h-4.7v-3.2h-1v7.4h1v-3.3h4.7v3.3H62.3z M7.1,116.3H6l-2.6,3.2
	H1.7v-3.2h-1v7.4h1v-3.3h1.7l2.7,3.3h1.2l-3.1-3.8L7.1,116.3z M1.7,104.1v-5.8h-1v7.4h0.9l4.9-5.9v5.9h1v-7.4H6.6L1.7,104.1z
	 M71.1,98.3l-2.8,6.3l-2.8-6.3h-1l3.3,7.4l-0.3,0.7c-0.2,0.4-0.4,0.8-0.7,1c-0.2,0.2-0.5,0.3-0.9,0.3c-0.5,0-1-0.2-1.3-0.6l-0.5,0.7
	c0.2,0.2,0.5,0.4,0.8,0.5c0.3,0.1,0.6,0.2,1,0.2c0.6,0,1-0.1,1.4-0.4s0.7-0.8,1-1.5l3.7-8.2h-0.9L71.1,98.3z M146.1,141.8h1v-6.5
	h4.6v6.5h1v-7.4h-6.6V141.8z M159.3,152.8c-0.6-0.3-1.2-0.5-1.9-0.5s-1.3,0.2-1.9,0.5c-0.6,0.3-1,0.8-1.3,1.3
	c-0.3,0.6-0.5,1.2-0.5,1.9s0.2,1.4,0.5,1.9c0.3,0.6,0.8,1,1.3,1.3c0.6,0.3,1.2,0.5,1.9,0.5s1.3-0.2,1.9-0.5c0.6-0.3,1-0.8,1.3-1.3
	c0.3-0.6,0.5-1.2,0.5-1.9s-0.2-1.4-0.5-1.9S159.8,153.1,159.3,152.8z M159.7,157.6c-0.2,0.4-0.6,0.8-1,1s-0.9,0.3-1.4,0.3
	s-1-0.1-1.4-0.3s-0.7-0.6-1-1c-0.2-0.4-0.3-0.9-0.3-1.5s0.1-1.1,0.3-1.5s0.6-0.8,1-1s0.9-0.4,1.4-0.4s1,0.1,1.4,0.4
	c0.4,0.2,0.7,0.6,1,1c0.2,0.4,0.4,0.9,0.4,1.5S160,157.1,159.7,157.6z M63.9,153.6c0.4-0.2,0.9-0.4,1.4-0.4c0.4,0,0.8,0.1,1.2,0.3
	c0.4,0.2,0.7,0.4,0.9,0.8l0.7-0.5c-0.3-0.5-0.7-0.8-1.2-1.1s-1.1-0.4-1.7-0.4c-0.7,0-1.4,0.2-2,0.5s-1,0.8-1.3,1.3
	c-0.3,0.6-0.5,1.2-0.5,1.9s0.2,1.4,0.5,1.9c0.3,0.6,0.8,1,1.3,1.3c0.6,0.3,1.2,0.5,2,0.5c0.6,0,1.2-0.1,1.7-0.4
	c0.5-0.3,0.9-0.6,1.2-1.1l-0.7-0.5c-0.2,0.4-0.6,0.6-0.9,0.8c-0.4,0.2-0.8,0.3-1.2,0.3c-0.5,0-1-0.1-1.4-0.3s-0.8-0.6-1-1
	s-0.3-0.9-0.3-1.5s0.1-1.1,0.3-1.5C63.2,154.1,63.5,153.8,63.9,153.6L63.9,153.6z M40.1,155.6h-4.6v-3.2h-1v7.4h1v-3.3h4.6v3.3h1
	v-7.4h-1V155.6z M35.3,141.8v-7.4h-0.9l-3.2,5.3l-3.1-5.3h-1v7.4H28v-5.9l3,5h0.4l3-5v5.9H35.3z M156.7,123.4
	c0.5-0.2,0.9-0.5,1.2-0.9l-0.6-0.6c-0.3,0.3-0.6,0.6-1,0.7c-0.4,0.2-0.8,0.2-1.3,0.2c-0.8,0-1.5-0.2-2-0.7s-0.8-1.1-0.9-1.9h6.2
	v-0.3c0-0.7-0.2-1.4-0.5-1.9c-0.3-0.6-0.7-1-1.3-1.3c-0.5-0.3-1.2-0.5-1.8-0.5c-0.7,0-1.3,0.2-1.8,0.5s-1,0.8-1.3,1.3
	c-0.3,0.6-0.5,1.2-0.5,1.9c0,0.7,0.2,1.4,0.5,1.9c0.3,0.6,0.8,1,1.4,1.3c0.6,0.3,1.3,0.5,2,0.5C155.7,123.8,156.2,123.6,156.7,123.4
	L156.7,123.4z M153,117.8c0.5-0.5,1.1-0.7,1.8-0.7s1.3,0.2,1.8,0.7c0.5,0.4,0.8,1,0.8,1.8h-5.2C152.3,118.8,152.6,118.2,153,117.8
	L153,117.8z M58.3,152.8c-0.6-0.3-1.2-0.5-1.9-0.5s-1.3,0.2-1.9,0.5c-0.6,0.3-1,0.8-1.3,1.3c-0.3,0.6-0.5,1.2-0.5,1.9
	s0.2,1.4,0.5,1.9c0.3,0.6,0.8,1,1.3,1.3c0.6,0.3,1.2,0.5,1.9,0.5s1.3-0.2,1.9-0.5c0.6-0.3,1-0.8,1.3-1.3c0.3-0.6,0.5-1.2,0.5-1.9
	s-0.2-1.4-0.5-1.9S58.9,153.1,58.3,152.8z M58.8,157.6c-0.2,0.4-0.6,0.8-1,1s-0.9,0.3-1.4,0.3s-1-0.1-1.4-0.3s-0.7-0.6-1-1
	c-0.2-0.4-0.3-0.9-0.3-1.5s0.1-1.1,0.3-1.5s0.6-0.8,1-1s0.9-0.4,1.4-0.4s1,0.1,1.4,0.4c0.4,0.2,0.7,0.6,1,1c0.2,0.4,0.4,0.9,0.4,1.5
	S59,157.1,58.8,157.6z M160.5,134.8c-0.6-0.3-1.2-0.5-1.9-0.5s-1.3,0.2-1.9,0.5c-0.6,0.3-1,0.8-1.3,1.3c-0.3,0.6-0.5,1.2-0.5,1.9
	s0.2,1.4,0.5,1.9c0.3,0.6,0.8,1,1.3,1.3c0.6,0.3,1.2,0.5,1.9,0.5s1.3-0.2,1.9-0.5c0.6-0.3,1-0.8,1.3-1.3c0.3-0.6,0.5-1.2,0.5-1.9
	s-0.2-1.4-0.5-1.9S161.1,135.1,160.5,134.8z M161,139.6c-0.2,0.4-0.6,0.8-1,1s-0.9,0.3-1.4,0.3s-1-0.1-1.4-0.3s-0.7-0.6-1-1
	c-0.2-0.4-0.4-0.9-0.4-1.5s0.1-1.1,0.4-1.5c0.2-0.4,0.6-0.8,1-1s0.9-0.4,1.4-0.4s1,0.1,1.4,0.4c0.4,0.2,0.7,0.6,1,1
	c0.2,0.4,0.3,0.9,0.3,1.5S161.2,139.1,161,139.6z M49.6,155.6h-4.7v-3.2h-1v7.4h1v-3.3h4.7v3.3h1v-7.4h-1V155.6z M168.6,152.9
	c-0.5-0.3-1.1-0.5-1.8-0.5s-1.3,0.2-1.8,0.5s-0.9,0.8-1.2,1.3c0-1.2,0.3-2,0.8-2.6s1.3-1,2.3-1.2l3.1-0.7l-0.2-0.9l-3.3,0.8
	c-1.3,0.3-2.2,0.9-2.8,1.7s-0.9,2-0.9,3.6c0,1.5,0.3,2.7,1,3.6c0.7,0.9,1.6,1.3,2.8,1.3c0.7,0,1.4-0.2,1.9-0.5
	c0.6-0.3,1-0.7,1.3-1.3s0.5-1.2,0.5-1.9s-0.1-1.3-0.4-1.9C169.6,153.8,169.1,153.3,168.6,152.9L168.6,152.9z M168.9,157.6
	c-0.2,0.4-0.5,0.8-1,1c-0.4,0.2-0.9,0.3-1.4,0.3s-1-0.1-1.4-0.3s-0.7-0.6-1-1c-0.2-0.4-0.3-0.9-0.3-1.5c0-0.5,0.1-1,0.3-1.4
	s0.6-0.7,1-1c0.4-0.2,0.9-0.3,1.4-0.3s1,0.1,1.4,0.3s0.7,0.5,1,1s0.3,0.9,0.3,1.4C169.3,156.7,169.2,157.2,168.9,157.6z M65,116.3
	v7.4h1v-3.3h4.6v3.3h1v-7.4h-1v3.2H66v-3.2H65z M52.4,139.9c-0.3,0.3-0.6,0.6-1,0.7c-0.4,0.2-0.8,0.2-1.3,0.2c-0.8,0-1.5-0.2-2-0.7
	s-0.8-1.1-0.9-1.9h6.2v-0.3c0-0.7-0.2-1.4-0.5-1.9c-0.3-0.6-0.7-1-1.3-1.3c-0.5-0.3-1.2-0.5-1.8-0.5c-0.7,0-1.3,0.2-1.8,0.5
	s-1,0.8-1.3,1.3c-0.3,0.6-0.5,1.2-0.5,1.9s0.2,1.4,0.5,1.9c0.3,0.6,0.8,1,1.4,1.3c0.6,0.3,1.3,0.5,2,0.5c0.6,0,1.1-0.1,1.6-0.3
	s0.9-0.5,1.2-0.9C52.9,140.4,52.4,139.9,52.4,139.9z M48.1,135.8c0.5-0.5,1.1-0.7,1.8-0.7s1.3,0.2,1.8,0.7c0.5,0.4,0.8,1,0.8,1.8
	h-5.2C47.3,136.8,47.6,136.2,48.1,135.8z M44.2,141.8v-7.4h-5.4l-0.1,2.6c0,0.9-0.1,1.5-0.2,2.1c-0.1,0.5-0.2,1-0.4,1.3
	c-0.2,0.4-0.5,0.5-0.9,0.5c-0.1,0-0.2,0-0.3-0.1l-0.1,0.9c0.3,0.1,0.5,0.1,0.7,0.1c0.7,0,1.2-0.4,1.5-1.2s0.5-2,0.5-3.5l0.1-1.8h3.5
	v6.5L44.2,141.8L44.2,141.8z M17.2,154.9c0,0.9-0.1,1.5-0.2,2.1c-0.1,0.5-0.2,1-0.4,1.3c-0.2,0.4-0.5,0.5-0.9,0.5
	c-0.1,0-0.2,0-0.4-0.1l-0.1,0.9c0.3,0.1,0.5,0.1,0.7,0.1c0.7,0,1.2-0.4,1.5-1.2c0.3-0.8,0.5-2,0.5-3.5l0.1-1.8h3.5v6.5h1v-7.4h-5.4
	L17.2,154.9L17.2,154.9z M150.4,152.8c-0.6-0.3-1.2-0.5-1.9-0.5s-1.3,0.2-1.9,0.5c-0.6,0.3-1,0.8-1.3,1.3c-0.3,0.6-0.5,1.2-0.5,1.9
	s0.2,1.4,0.5,1.9c0.3,0.6,0.8,1,1.3,1.3c0.6,0.3,1.2,0.5,1.9,0.5s1.3-0.2,1.9-0.5c0.6-0.3,1-0.8,1.3-1.3c0.3-0.6,0.5-1.2,0.5-1.9
	s-0.2-1.4-0.5-1.9S150.9,153.1,150.4,152.8z M150.8,157.6c-0.2,0.4-0.6,0.8-1,1s-0.9,0.3-1.4,0.3s-1-0.1-1.4-0.3s-0.7-0.6-1-1
	c-0.2-0.4-0.3-0.9-0.3-1.5s0.1-1.1,0.3-1.5s0.6-0.8,1-1s0.9-0.4,1.4-0.4s1,0.1,1.4,0.4c0.4,0.2,0.7,0.6,1,1c0.2,0.4,0.4,0.9,0.4,1.5
	S151.1,157.1,150.8,157.6z M13.5,116.8c-0.6-0.3-1.2-0.5-1.9-0.5s-1.3,0.2-1.9,0.5c-0.6,0.3-1,0.8-1.3,1.3c-0.3,0.6-0.5,1.2-0.5,1.9
	c0,0.7,0.2,1.4,0.5,1.9c0.3,0.6,0.8,1,1.3,1.3c0.6,0.3,1.2,0.5,1.9,0.5s1.3-0.2,1.9-0.5c0.6-0.3,1-0.8,1.3-1.3
	c0.3-0.6,0.5-1.2,0.5-1.9c0-0.7-0.2-1.4-0.5-1.9C14.6,117.6,14.1,117.1,13.5,116.8z M14,121.6c-0.2,0.4-0.6,0.8-1,1
	s-0.9,0.3-1.4,0.3s-1-0.1-1.4-0.3s-0.7-0.6-1-1c-0.2-0.4-0.3-0.9-0.3-1.5s0.1-1.1,0.3-1.5c0.2-0.4,0.6-0.8,1-1s0.9-0.4,1.4-0.4
	s1,0.1,1.4,0.4c0.4,0.2,0.7,0.6,1,1c0.2,0.4,0.4,0.9,0.4,1.5C14.4,120.6,14.2,121.1,14,121.6z M30.5,152.8c-0.6-0.3-1.2-0.5-1.9-0.5
	s-1.3,0.2-1.9,0.5s-1,0.8-1.3,1.3c-0.3,0.6-0.5,1.2-0.5,1.9s0.2,1.4,0.5,1.9c0.3,0.6,0.8,1,1.3,1.3c0.6,0.3,1.2,0.5,1.9,0.5
	s1.3-0.2,1.9-0.5s1-0.8,1.3-1.3c0.3-0.6,0.5-1.2,0.5-1.9s-0.2-1.4-0.5-1.9C31.6,153.6,31.1,153.1,30.5,152.8z M31,157.6
	c-0.2,0.4-0.6,0.8-1,1s-0.9,0.3-1.4,0.3s-1-0.1-1.4-0.3s-0.7-0.6-1-1c-0.2-0.4-0.4-0.9-0.4-1.5s0.1-1.1,0.4-1.5c0.2-0.4,0.6-0.8,1-1
	s0.9-0.4,1.4-0.4s1,0.1,1.4,0.4c0.4,0.2,0.7,0.6,1,1c0.2,0.4,0.3,0.9,0.3,1.5S31.2,157.1,31,157.6z M76.8,123.8v-6.5h2.8v-0.9H73
	v0.9h2.8v6.5H76.8z M71.9,141.8v-7.4H71l-4.9,5.8v-5.8h-1v7.4H66l4.9-5.9v5.9H71.9z M68.6,153.2h2.8v6.5h1v-6.5h2.8v-0.9h-6.6
	L68.6,153.2z M79.5,141.4c0.5-0.2,0.9-0.5,1.2-0.9l-0.6-0.6c-0.3,0.3-0.6,0.6-1,0.7c-0.4,0.2-0.8,0.2-1.3,0.2c-0.8,0-1.5-0.2-2-0.7
	s-0.8-1.1-0.9-1.9h6.2v-0.3c0-0.7-0.2-1.4-0.5-1.9c-0.3-0.6-0.7-1-1.3-1.3c-0.5-0.3-1.2-0.5-1.8-0.5c-0.7,0-1.3,0.2-1.8,0.5
	s-1,0.8-1.3,1.3c-0.3,0.6-0.5,1.2-0.5,1.9s0.2,1.4,0.5,1.9c0.3,0.6,0.8,1,1.4,1.3s1.3,0.5,2,0.5C78.5,141.8,79,141.6,79.5,141.4
	L79.5,141.4z M75.8,135.8c0.5-0.5,1.1-0.7,1.8-0.7s1.3,0.2,1.8,0.7c0.5,0.4,0.8,1,0.8,1.8H75C75.1,136.8,75.3,136.2,75.8,135.8z
	 M24.5,136.1c-0.3-0.6-0.8-1-1.3-1.3c-0.6-0.3-1.2-0.5-1.9-0.5c-0.6,0-1.2,0.1-1.7,0.4c-0.5,0.3-0.9,0.6-1.2,1.1v-1.5h-1v10.1h1
	v-4.1c0.3,0.5,0.7,0.8,1.2,1.1c0.5,0.2,1,0.4,1.6,0.4c0.7,0,1.3-0.2,1.9-0.5s1-0.8,1.3-1.3c0.3-0.6,0.5-1.2,0.5-2
	C25,137.2,24.8,136.6,24.5,136.1z M23.6,139.6c-0.2,0.4-0.6,0.8-1,1s-0.9,0.3-1.4,0.3s-1-0.1-1.4-0.3s-0.7-0.6-1-1
	c-0.2-0.4-0.4-0.9-0.4-1.5s0.1-1.1,0.4-1.5c0.2-0.4,0.6-0.8,1-1s0.9-0.4,1.4-0.4s1,0.1,1.4,0.4c0.4,0.2,0.7,0.6,1,1
	c0.2,0.4,0.4,0.9,0.4,1.5S23.8,139.1,23.6,139.6z M87.6,105.8v-7.4h-5.4l-0.1,2.6c0,0.9-0.1,1.5-0.2,2.1c-0.1,0.5-0.2,1-0.4,1.3
	s-0.5,0.5-0.9,0.5c-0.1,0-0.2,0-0.4-0.1l-0.1,0.9c0.3,0.1,0.5,0.1,0.7,0.1c0.7,0,1.2-0.4,1.5-1.2c0.3-0.8,0.5-2,0.5-3.5l0.1-1.8h3.5
	v6.5C86.4,105.8,87.6,105.8,87.6,105.8z M10.7,26.1c0.3,0.5,0.7,0.8,1.1,1.1c0.5,0.2,1,0.4,1.6,0.4c0.7,0,1.3-0.1,1.8-0.4
	s1-0.7,1.3-1.3c0.3-0.5,0.5-1.2,0.5-1.9s-0.2-1.3-0.5-1.9c-0.3-0.5-0.7-1-1.3-1.3c-0.5-0.3-1.1-0.5-1.8-0.5c-0.6,0-1.1,0.1-1.6,0.4
	s-0.8,0.6-1.1,1.1v-1.4H9.8v9.7h1L10.7,26.1L10.7,26.1z M11,22.5c0.2-0.4,0.5-0.8,0.9-1s0.9-0.4,1.4-0.4s0.9,0.1,1.3,0.4
	c0.4,0.2,0.7,0.6,0.9,1s0.4,0.9,0.4,1.4s-0.1,1-0.4,1.4c-0.2,0.4-0.5,0.8-0.9,1s-0.9,0.3-1.3,0.3c-0.5,0-1-0.1-1.4-0.3
	c-0.4-0.2-0.7-0.6-0.9-1s-0.3-0.9-0.3-1.4S10.8,22.9,11,22.5z M20.1,27.1c0.5,0.3,1.2,0.5,1.8,0.5s1.3-0.2,1.8-0.5s1-0.7,1.3-1.3
	c0.3-0.5,0.5-1.2,0.5-1.9S25.3,22.6,25,22c-0.3-0.5-0.7-1-1.3-1.3c-0.5-0.3-1.2-0.5-1.8-0.5s-1.3,0.2-1.8,0.5s-1,0.7-1.3,1.3
	s-0.5,1.2-0.5,1.9s0.2,1.3,0.5,1.9S19.5,26.7,20.1,27.1z M19.6,22.5c0.2-0.4,0.5-0.7,0.9-1c0.4-0.2,0.9-0.4,1.4-0.4s1,0.1,1.4,0.4
	c0.4,0.2,0.7,0.5,0.9,1c0.2,0.4,0.3,0.9,0.3,1.4s-0.1,1-0.3,1.4c-0.2,0.4-0.5,0.8-0.9,1s-0.8,0.3-1.4,0.3c-0.5,0-1-0.1-1.4-0.3
	c-0.4-0.2-0.7-0.6-0.9-1c-0.2-0.4-0.3-0.9-0.3-1.4S19.4,22.9,19.6,22.5z M1.9,0.9h6v8.6h0.9V0H0.9v9.5h1V0.9z M242.4,9.5h0.9V3.2
	h2.7V2.3h-6.3v0.9h2.7L242.4,9.5z M12.9,9.1c0.6,0.3,1.2,0.5,1.9,0.5c0.6,0,1.1-0.1,1.6-0.3s0.9-0.5,1.2-0.9L17,7.7
	c-0.3,0.3-0.6,0.5-1,0.7s-0.8,0.2-1.2,0.2c-0.8,0-1.4-0.2-1.9-0.7S12.1,6.8,12,6.1h6V5.8c0-0.7-0.1-1.3-0.4-1.9
	c-0.3-0.5-0.7-1-1.2-1.3s-1.1-0.5-1.8-0.5s-1.3,0.2-1.8,0.5s-0.9,0.7-1.2,1.3c-0.3,0.5-0.4,1.2-0.4,1.9s0.2,1.3,0.5,1.9
	S12.3,8.7,12.9,9.1z M12.9,3.8c0.5-0.4,1-0.7,1.7-0.7s1.3,0.2,1.7,0.7c0.5,0.4,0.7,1,0.8,1.7h-5C12.1,4.8,12.4,4.2,12.9,3.8z
	 M21.1,8.1c0.3,0.5,0.7,0.8,1.1,1.1c0.5,0.2,1,0.4,1.6,0.4c0.7,0,1.3-0.1,1.8-0.4c0.5-0.3,1-0.7,1.3-1.3c0.3-0.5,0.5-1.2,0.5-1.9
	s-0.2-1.3-0.5-1.9c-0.3-0.5-0.7-1-1.3-1.3c-0.5-0.3-1.1-0.5-1.8-0.5c-0.6,0-1.1,0.1-1.6,0.4s-0.8,0.6-1.1,1.1V2.3h-0.9V12h1V8.1
	H21.1z M21.4,4.5c0.2-0.4,0.5-0.8,0.9-1s0.9-0.4,1.4-0.4s0.9,0.1,1.4,0.4c0.4,0.2,0.7,0.6,0.9,1c0.2,0.4,0.4,0.9,0.4,1.4
	s-0.1,1-0.4,1.4c-0.2,0.4-0.5,0.8-0.9,1c-0.4,0.2-0.9,0.3-1.4,0.3s-1-0.1-1.4-0.3s-0.7-0.6-0.9-1c-0.2-0.4-0.3-0.9-0.3-1.4
	S21.2,4.9,21.4,4.5z M234.1,9.1c0.6,0.3,1.2,0.5,1.9,0.5c0.6,0,1.1-0.1,1.6-0.3s0.9-0.5,1.2-0.9l-0.5-0.6c-0.3,0.3-0.6,0.5-1,0.7
	s-0.8,0.2-1.2,0.2c-0.8,0-1.4-0.2-1.9-0.7s-0.8-1.1-0.9-1.8h5.9V5.9c0-0.7-0.1-1.3-0.4-1.9c-0.3-0.5-0.7-1-1.2-1.3s-1.1-0.5-1.8-0.5
	s-1.3,0.2-1.8,0.5s-0.9,0.7-1.2,1.3c-0.3,0.5-0.4,1.2-0.4,1.9s0.2,1.3,0.5,1.9S233.5,8.7,234.1,9.1L234.1,9.1z M234.1,3.8
	c0.5-0.4,1-0.7,1.7-0.7s1.3,0.2,1.7,0.7c0.5,0.4,0.7,1,0.8,1.7h-5C233.3,4.8,233.6,4.2,234.1,3.8z M226.6,11
	c-0.2,0.2-0.5,0.3-0.8,0.3c-0.5,0-0.9-0.2-1.3-0.5l-0.4,0.7c0.2,0.2,0.5,0.4,0.8,0.5s0.6,0.2,1,0.2c0.5,0,1-0.1,1.4-0.4
	s0.7-0.8,1-1.4l3.6-8H231l-2.7,6l-2.7-6h-1l3.2,7.1l-0.3,0.7C227.1,10.6,226.9,10.9,226.6,11L226.6,11z M226.7,27.5v-7.2h-0.9
	l-3,5.2l-3-5.2h-1v7.2h0.9v-5.7l2.9,4.8h0.4l2.9-4.8v5.7H226.7z M1.6,21.2h4.5v6.3H7v-7.2H0.7v7.2h0.9L1.6,21.2z M28.6,24.3h1.6
	l2.6,3.2h1.1l-3-3.7l2.8-3.5h-1l-2.5,3.2h-1.6v-3.2h-1v7.2h1L28.6,24.3z M211.3,20.8c-0.5,0.3-1,0.7-1.3,1.3s-0.5,1.2-0.5,1.9
	s0.2,1.3,0.5,1.9s0.7,1,1.3,1.3c0.5,0.3,1.2,0.5,1.8,0.5s1.3-0.2,1.8-0.5s1-0.7,1.3-1.3c0.3-0.5,0.5-1.2,0.5-1.9s-0.2-1.3-0.5-1.9
	c-0.3-0.5-0.7-1-1.3-1.3c-0.5-0.3-1.2-0.5-1.8-0.5S211.8,20.4,211.3,20.8z M215.4,22.5c0.2,0.4,0.3,0.9,0.3,1.4s-0.1,1-0.3,1.4
	s-0.5,0.8-0.9,1s-0.8,0.3-1.3,0.3s-1-0.1-1.4-0.3c-0.4-0.2-0.7-0.6-0.9-1s-0.3-0.9-0.3-1.4s0.1-1,0.3-1.4s0.5-0.7,0.9-1
	c0.4-0.2,0.9-0.4,1.4-0.4s1,0.1,1.3,0.4C214.9,21.7,215.2,22,215.4,22.5z M216.5,9.5h6.4v1.7h0.9V8.6h-1.1V2.3h-5.2l-0.1,2.4
	c-0.1,1.2-0.2,2.2-0.4,2.8c-0.2,0.7-0.5,1-1,1.1h-0.4v2.6h0.9L216.5,9.5L216.5,9.5z M218,7.3c0.1-0.7,0.2-1.5,0.3-2.5l0.1-1.6h3.4
	v5.4h-4.4C217.6,8.4,217.9,7.9,218,7.3L218,7.3z M182.6,22.2c0-0.6-0.2-1-0.7-1.3s-1.1-0.5-1.9-0.5h-3.1v7.1h3.2
	c0.9,0,1.6-0.2,2.1-0.5s0.7-0.8,0.7-1.4c0-0.9-0.5-1.5-1.4-1.7c0.4-0.1,0.7-0.3,0.9-0.6C182.5,22.9,182.6,22.6,182.6,22.2z
	 M181.4,24.5c0.3,0.2,0.4,0.5,0.4,0.9s-0.2,0.7-0.5,0.9c-0.3,0.2-0.8,0.3-1.4,0.3h-2.3v-2.5h2.3C180.7,24.2,181.2,24.3,181.4,24.5z
	 M181.2,23.2c-0.3,0.2-0.7,0.3-1.3,0.3h-2.1v-2.4h2.1c0.5,0,1,0.1,1.3,0.3c0.3,0.2,0.4,0.5,0.4,0.9S181.5,23,181.2,23.2z M256.9,2.3
	c-0.9,0-1.7,0.2-2.2,0.6s-0.8,1-0.8,1.8c0,0.6,0.1,1,0.4,1.4c0.3,0.4,0.7,0.6,1.3,0.8l-1.8,2.5h1l1.6-2.3h2.5v2.3h0.9V2.3H256.9z
	 M259,6.4h-2.1c-1.3,0-2-0.5-2-1.6s0.7-1.6,2.1-1.6h2.1v3.2H259z M252.1,7.6c-0.2,0.4-0.5,0.6-0.9,0.8s-0.8,0.3-1.2,0.3
	c-0.5,0-1-0.1-1.4-0.3s-0.7-0.6-1-1c-0.2-0.4-0.3-0.9-0.3-1.5c0-0.5,0.1-1,0.3-1.4s0.6-0.7,1-1c0.4-0.2,0.9-0.4,1.4-0.4
	c0.4,0,0.8,0.1,1.2,0.3s0.7,0.4,0.9,0.8l0.7-0.5c-0.3-0.5-0.7-0.8-1.1-1c-0.5-0.2-1-0.4-1.6-0.4c-0.7,0-1.3,0.2-1.9,0.5
	c-0.5,0.3-1,0.7-1.3,1.3s-0.5,1.2-0.5,1.9s0.2,1.3,0.5,1.9c0.3,0.5,0.7,1,1.3,1.3s1.2,0.5,1.9,0.5c0.6,0,1.1-0.1,1.6-0.4
	c0.5-0.2,0.9-0.6,1.1-1.1L252.1,7.6z M230,27.3c0.1-0.1,0.2-0.3,0.2-0.5s-0.1-0.4-0.2-0.5c-0.1-0.1-0.3-0.2-0.5-0.2
	s-0.4,0.1-0.5,0.2s-0.2,0.3-0.2,0.5s0.1,0.4,0.2,0.5c0.1,0.1,0.3,0.2,0.5,0.2S229.9,27.4,230,27.3z M73.9,3.8v5.7h0.9V2.3H74L69.2,8
	V2.3h-0.9v7.2h0.8L73.9,3.8z M115,6.3h4.5v3.2h0.9V2.3h-0.9v3.2H115V2.3h-1v7.2h1V6.3z M109,20.8c-0.5,0.3-1,0.7-1.3,1.3
	c-0.3,0.5-0.5,1.2-0.5,1.9s0.2,1.3,0.5,1.9c0.3,0.5,0.7,1,1.3,1.3c0.5,0.3,1.2,0.5,1.8,0.5c0.7,0,1.3-0.2,1.9-0.5
	c0.5-0.3,1-0.7,1.3-1.3c0.3-0.5,0.5-1.2,0.5-1.9s-0.2-1.3-0.5-1.9c-0.3-0.5-0.7-1-1.3-1.3c-0.5-0.3-1.2-0.5-1.9-0.5
	C110.2,20.3,109.6,20.4,109,20.8z M113.2,22.5c0.2,0.4,0.3,0.9,0.3,1.4s-0.1,1-0.3,1.4c-0.2,0.4-0.5,0.8-0.9,1s-0.8,0.3-1.4,0.3
	c-0.5,0-1-0.1-1.4-0.3c-0.4-0.2-0.7-0.6-0.9-1c-0.2-0.4-0.3-0.9-0.3-1.4s0.1-1,0.3-1.4c0.2-0.4,0.5-0.7,0.9-1
	c0.4-0.2,0.9-0.4,1.4-0.4s1,0.1,1.4,0.4C112.6,21.7,113,22,113.2,22.5z M106.8,9.1c0.6,0.3,1.2,0.5,1.9,0.5c0.6,0,1.1-0.1,1.6-0.3
	s0.9-0.5,1.2-0.9L111,7.8c-0.3,0.3-0.6,0.5-1,0.7s-0.8,0.2-1.2,0.2c-0.8,0-1.4-0.2-1.9-0.7s-0.8-1.1-0.9-1.8h5.9V5.9
	c0-0.7-0.1-1.3-0.4-1.9c-0.3-0.5-0.7-1-1.2-1.3s-1.1-0.5-1.8-0.5s-1.3,0.2-1.8,0.5s-0.9,0.7-1.2,1.3c-0.3,0.5-0.4,1.2-0.4,1.9
	s0.2,1.3,0.5,1.9S106.2,8.7,106.8,9.1z M106.8,3.8c0.5-0.4,1-0.7,1.7-0.7s1.3,0.2,1.7,0.7c0.5,0.4,0.7,1,0.8,1.7h-5
	C106,4.8,106.3,4.2,106.8,3.8z M116.5,20.3v7.1h3.2c0.9,0,1.6-0.2,2.1-0.5s0.7-0.8,0.7-1.4c0-0.9-0.5-1.5-1.4-1.7
	c0.4-0.1,0.7-0.3,0.9-0.6c0.2-0.3,0.3-0.6,0.3-1c0-0.6-0.2-1-0.7-1.3s-1.1-0.5-1.9-0.5h-3.2V20.3z M121.1,24.5
	c0.3,0.2,0.4,0.5,0.4,0.9s-0.2,0.7-0.5,0.9c-0.3,0.2-0.8,0.3-1.4,0.3h-2.3v-2.5h2.3C120.4,24.2,120.9,24.3,121.1,24.5z M121.3,22.3
	c0,0.4-0.1,0.7-0.4,0.9c-0.3,0.2-0.7,0.3-1.3,0.3h-2.1v-2.4h2.1c0.5,0,1,0.1,1.3,0.3C121.2,21.6,121.3,21.9,121.3,22.3z M100.7,20.7
	c-0.5,0.3-0.8,0.6-1.1,1.1v-1.4h-0.9v9.7h1v-4c0.3,0.5,0.7,0.8,1.1,1.1c0.5,0.2,1,0.4,1.6,0.4c0.7,0,1.3-0.1,1.8-0.4s1-0.7,1.3-1.3
	c0.3-0.5,0.5-1.2,0.5-1.9s-0.2-1.3-0.5-1.9c-0.3-0.5-0.7-1-1.3-1.3c-0.5-0.3-1.1-0.5-1.8-0.5C101.8,20.3,101.2,20.4,100.7,20.7z
	 M104.6,22.5c0.2,0.4,0.4,0.9,0.4,1.4s-0.1,1-0.4,1.4c-0.2,0.4-0.5,0.8-0.9,1s-0.9,0.3-1.4,0.3s-1-0.1-1.4-0.3
	c-0.4-0.2-0.7-0.6-0.9-1c-0.2-0.4-0.3-0.9-0.3-1.4s0.1-1,0.3-1.4c0.2-0.4,0.5-0.8,0.9-1s0.9-0.4,1.4-0.4s0.9,0.1,1.4,0.4
	C104,21.7,104.4,22,104.6,22.5z M89.3,9.1c0.6,0.3,1.2,0.5,1.9,0.5c0.6,0,1.1-0.1,1.6-0.3C93.3,9,93.7,8.7,94,8.4l-0.5-0.6
	c-0.3,0.3-0.6,0.5-1,0.7s-0.8,0.2-1.2,0.2c-0.8,0-1.4-0.2-1.9-0.7s-0.8-1.1-0.9-1.8h5.9V5.9c0-0.7-0.1-1.3-0.4-1.9
	c-0.3-0.5-0.7-1-1.2-1.3S91.7,2.2,91,2.2s-1.3,0.2-1.8,0.5C88.7,3.1,88.3,3.5,88,4c-0.3,0.5-0.4,1.2-0.4,1.9s0.2,1.3,0.5,1.9
	C88.3,8.3,88.8,8.7,89.3,9.1z M89.3,3.8c0.5-0.4,1-0.7,1.7-0.7s1.3,0.2,1.7,0.7c0.5,0.4,0.7,1,0.8,1.7h-5
	C88.6,4.8,88.8,4.2,89.3,3.8z M88,20.3h-6.3v0.9h2.7v6.3h0.9v-6.3H88V20.3z M30.5,9.1c0.6,0.3,1.2,0.5,1.9,0.5
	c0.6,0,1.1-0.1,1.6-0.3s0.9-0.5,1.2-0.9l-0.5-0.6c-0.3,0.3-0.6,0.5-1,0.7s-0.8,0.2-1.2,0.2c-0.8,0-1.4-0.2-1.9-0.7s-0.8-1.1-0.9-1.8
	h5.9V5.9c0-0.7-0.1-1.3-0.4-1.9c-0.3-0.5-0.7-1-1.2-1.3s-1.1-0.5-1.8-0.5s-1.3,0.2-1.8,0.5S29.5,3.4,29.2,4
	c-0.3,0.5-0.4,1.2-0.4,1.9s0.2,1.3,0.5,1.9S29.9,8.7,30.5,9.1z M30.5,3.8c0.5-0.4,1-0.7,1.7-0.7s1.3,0.2,1.7,0.7
	c0.5,0.4,0.7,1,0.8,1.7h-5C29.7,4.8,30,4.2,30.5,3.8z M97.5,6.3h4.5v3.2h1V2.3h-1v3.2h-4.5V2.3h-0.9v7.2h0.9V6.3z M90.4,20.3h-1v7.2
	h0.9l4.7-5.7v5.7h0.9v-7.2h-0.8L90.4,26V20.3z M155.9,8.1c0.3,0.5,0.7,0.8,1.1,1.1c0.5,0.2,1,0.4,1.6,0.4c0.7,0,1.3-0.1,1.8-0.4
	c0.5-0.3,1-0.7,1.3-1.3c0.3-0.5,0.5-1.2,0.5-1.9s-0.2-1.3-0.5-1.9c-0.3-0.5-0.7-1-1.3-1.3c-0.5-0.3-1.1-0.5-1.8-0.5
	c-0.6,0-1.1,0.1-1.6,0.4s-0.8,0.6-1.1,1.1V2.3H155V12h1V8.1H155.9z M156.3,4.5c0.2-0.4,0.5-0.8,0.9-1s0.9-0.4,1.4-0.4
	s0.9,0.1,1.4,0.4c0.4,0.2,0.7,0.6,0.9,1s0.4,0.9,0.4,1.4s-0.1,1-0.4,1.4c-0.2,0.4-0.5,0.8-0.9,1c-0.4,0.2-0.9,0.3-1.4,0.3
	s-1-0.1-1.4-0.3s-0.7-0.6-0.9-1S156,6.4,156,5.9C155.9,5.4,156,4.9,156.3,4.5z M146.4,22c-0.3,0.5-0.5,1.2-0.5,1.9s0.2,1.3,0.5,1.9
	c0.3,0.5,0.7,1,1.3,1.3s1.2,0.5,1.9,0.5c0.6,0,1.1-0.1,1.6-0.4c0.5-0.2,0.9-0.6,1.1-1.1l-0.7-0.5c-0.2,0.4-0.5,0.6-0.9,0.8
	c-0.4,0.2-0.8,0.3-1.2,0.3c-0.5,0-1-0.1-1.4-0.3c-0.4-0.2-0.7-0.6-1-1c-0.2-0.4-0.3-0.9-0.3-1.5c0-0.5,0.1-1,0.3-1.4s0.6-0.7,1-1
	c0.4-0.2,0.9-0.4,1.4-0.4c0.4,0,0.8,0.1,1.2,0.3c0.4,0.2,0.7,0.4,0.9,0.8l0.7-0.5c-0.3-0.5-0.7-0.8-1.1-1c-0.5-0.2-1-0.4-1.6-0.4
	c-0.7,0-1.3,0.2-1.9,0.5C147.1,21.1,146.7,21.5,146.4,22z M154.4,27.5l1.6-2.3h2.5v2.3h0.9v-7.1h-3c-0.9,0-1.7,0.2-2.2,0.6
	s-0.8,1-0.8,1.8c0,0.6,0.1,1,0.4,1.4c0.3,0.4,0.7,0.6,1.3,0.8l-1.8,2.5C153.3,27.5,154.4,27.5,154.4,27.5z M154.4,22.8
	c0-1.1,0.7-1.6,2.1-1.6h2.1v3.2h-2.1C155.1,24.4,154.4,23.9,154.4,22.8z M141.7,3.8l2.8,4.8h0.5l2.9-4.8v5.7h0.8V2.3h-0.9l-3,5.2
	l-3-5.2h-1v7.2h0.9V3.8z M168.7,20.3c-0.7,0-1.3,0.2-1.9,0.5c-0.5,0.3-1,0.7-1.3,1.3S165,23.3,165,24s0.2,1.3,0.5,1.9
	c0.3,0.5,0.7,1,1.3,1.3s1.2,0.5,1.9,0.5c0.6,0,1.1-0.1,1.6-0.4c0.5-0.2,0.9-0.6,1.1-1.1l-0.7-0.5c-0.2,0.4-0.5,0.6-0.9,0.8
	c-0.4,0.2-0.8,0.3-1.2,0.3c-0.5,0-1-0.1-1.4-0.3c-0.4-0.2-0.7-0.6-1-1c-0.2-0.4-0.3-0.9-0.3-1.5c0-0.5,0.1-1,0.3-1.4s0.6-0.7,1-1
	c0.4-0.2,0.9-0.4,1.4-0.4c0.4,0,0.8,0.1,1.2,0.3c0.4,0.2,0.7,0.4,0.9,0.8l0.7-0.5c-0.3-0.5-0.7-0.8-1.1-1
	C169.8,20.4,169.3,20.3,168.7,20.3z M133.5,9.1c0.6,0.3,1.2,0.5,1.9,0.5c0.6,0,1.1-0.1,1.6-0.3s0.9-0.5,1.2-0.9l-0.5-0.6
	c-0.3,0.3-0.6,0.5-1,0.7s-0.8,0.2-1.2,0.2c-0.8,0-1.4-0.2-1.9-0.7s-0.8-1.1-0.9-1.8h5.9V5.9c0-0.7-0.1-1.3-0.4-1.9
	c-0.3-0.5-0.7-1-1.2-1.3s-1.1-0.5-1.8-0.5s-1.3,0.2-1.8,0.5s-0.9,0.7-1.2,1.3c-0.3,0.5-0.4,1.2-0.4,1.9s0.2,1.3,0.5,1.9
	S133,8.7,133.5,9.1L133.5,9.1z M133.5,3.8c0.5-0.4,1-0.7,1.7-0.7s1.3,0.2,1.7,0.7c0.5,0.4,0.7,1,0.8,1.7h-5
	C132.8,4.8,133,4.2,133.5,3.8z M134,27.5h0.9v-6.3h2.7v-0.9h-6.3v0.9h2.7L134,27.5z M127.2,20.3c-0.6,0-1.1,0.1-1.6,0.3
	c-0.5,0.2-0.9,0.4-1.3,0.7l0.4,0.7c0.3-0.3,0.7-0.5,1.1-0.6c0.4-0.2,0.8-0.2,1.3-0.2c0.7,0,1.2,0.2,1.5,0.5s0.5,0.8,0.5,1.4v0.4
	h-2.3c-1,0-1.7,0.2-2.1,0.6s-0.6,0.9-0.6,1.5s0.2,1.1,0.7,1.5s1.1,0.6,1.9,0.6c0.6,0,1.1-0.1,1.5-0.3c0.4-0.2,0.7-0.5,1-0.9v1.1h0.9
	V23c0-0.9-0.2-1.6-0.7-2.1C128.8,20.5,128.1,20.3,127.2,20.3L127.2,20.3z M129.1,25.3c-0.2,0.5-0.5,0.8-0.9,1.1
	c-0.4,0.2-0.9,0.4-1.4,0.4c-0.6,0-1-0.1-1.3-0.4c-0.3-0.2-0.5-0.6-0.5-1c0-0.8,0.6-1.3,1.8-1.3h2.2L129.1,25.3L129.1,25.3z
	 M165.3,9.1c0.6,0.3,1.2,0.5,1.9,0.5c0.6,0,1.1-0.1,1.6-0.3s0.9-0.5,1.2-0.9l-0.5-0.6c-0.3,0.3-0.6,0.5-1,0.7s-0.8,0.2-1.2,0.2
	c-0.8,0-1.4-0.2-1.9-0.7s-0.8-1.1-0.8-1.8h5.9V5.9c0-0.7-0.1-1.3-0.4-1.9c-0.3-0.5-0.7-1-1.2-1.3s-1.1-0.5-1.8-0.5s-1.3,0.2-1.8,0.5
	s-0.9,0.7-1.2,1.3c-0.3,0.5-0.4,1.2-0.4,1.9s0.2,1.3,0.5,1.9S164.8,8.7,165.3,9.1L165.3,9.1z M165.3,3.8c0.5-0.4,1-0.7,1.7-0.7
	s1.3,0.2,1.7,0.7c0.5,0.4,0.7,1,0.8,1.7h-5C164.6,4.8,164.8,4.2,165.3,3.8z M128.7,3.8v5.7h1V2.3h-0.9L124.1,8V2.3h-0.9v7.2h0.8
	L128.7,3.8z M43.8,20.3v7.2h0.9v-3.2h4.5v3.2h1v-7.2h-1v3.2h-4.5v-3.2H43.8z M189.6,3.8l2.9,4.8h0.5l2.8-4.8v5.7h0.9V2.3h-0.9
	l-3,5.2l-3.1-5.2h-0.9v7.2h0.8V3.8z M186,21.8v-1.4h-1v9.7h1v-4c0.3,0.5,0.7,0.8,1.1,1.1c0.5,0.2,1,0.4,1.6,0.4
	c0.7,0,1.3-0.1,1.8-0.4s1-0.7,1.3-1.3c0.3-0.5,0.5-1.2,0.5-1.9s-0.2-1.3-0.5-1.9c-0.3-0.5-0.7-1-1.3-1.3c-0.5-0.3-1.1-0.5-1.8-0.5
	c-0.6,0-1.1,0.1-1.6,0.4C186.6,20.9,186.3,21.3,186,21.8z M187.3,21.5c0.4-0.2,0.9-0.4,1.4-0.4s0.9,0.1,1.3,0.4
	c0.4,0.2,0.7,0.6,0.9,1s0.4,0.9,0.4,1.4s-0.1,1-0.4,1.4c-0.2,0.4-0.5,0.8-0.9,1s-0.9,0.3-1.3,0.3c-0.5,0-1-0.1-1.4-0.3
	c-0.4-0.2-0.7-0.6-0.9-1s-0.3-0.9-0.3-1.4s0.1-1,0.3-1.4C186.6,22,186.9,21.7,187.3,21.5z M37.3,9.5h6.4v1.7h0.9V8.6h-1.1V2.3h-5.2
	l-0.1,2.4c-0.1,1.2-0.2,2.2-0.4,2.8s-0.5,1-1,1.1h-0.4v2.6h0.9C37.3,11.2,37.3,9.5,37.3,9.5z M38.7,7.3c0.1-0.7,0.2-1.5,0.3-2.5V3.2
	h3.4v5.4H38C38.4,8.4,38.6,7.9,38.7,7.3z M193.8,21.3l0.4,0.7c0.3-0.3,0.7-0.5,1.1-0.6c0.4-0.2,0.8-0.2,1.3-0.2
	c0.7,0,1.2,0.2,1.5,0.5s0.5,0.8,0.5,1.4v0.4h-2.3c-1,0-1.7,0.2-2.1,0.6c-0.4,0.4-0.6,0.9-0.6,1.5s0.2,1.1,0.7,1.5s1.1,0.6,1.9,0.6
	c0.6,0,1.1-0.1,1.5-0.3c0.4-0.2,0.7-0.5,1-0.9v1.1h0.9V23c0-0.9-0.2-1.6-0.7-2.1s-1.2-0.7-2.1-0.7c-0.6,0-1.1,0.1-1.6,0.3
	C194.6,20.7,194.2,20.9,193.8,21.3L193.8,21.3z M198.6,25.3c-0.2,0.5-0.5,0.8-0.9,1.1c-0.4,0.2-0.8,0.4-1.4,0.4
	c-0.6,0-1-0.1-1.3-0.4c-0.3-0.2-0.5-0.6-0.5-1c0-0.8,0.6-1.3,1.8-1.3h2.2L198.6,25.3L198.6,25.3z M35,22c-0.3,0.5-0.5,1.2-0.5,1.9
	s0.2,1.3,0.5,1.9s0.7,1,1.3,1.3c0.5,0.3,1.2,0.5,1.8,0.5s1.3-0.2,1.8-0.5s1-0.7,1.3-1.3c0.3-0.5,0.5-1.2,0.5-1.9s-0.2-1.3-0.5-1.9
	c-0.3-0.5-0.7-1-1.3-1.3c-0.5-0.3-1.2-0.5-1.8-0.5s-1.3,0.2-1.8,0.5C35.7,21.1,35.3,21.5,35,22z M36.8,21.5c0.4-0.2,0.9-0.4,1.4-0.4
	s1,0.1,1.3,0.4c0.4,0.2,0.7,0.5,0.9,1c0.2,0.4,0.3,0.9,0.3,1.4s-0.1,1-0.3,1.4s-0.5,0.8-0.9,1s-0.8,0.3-1.3,0.3s-1-0.1-1.4-0.3
	c-0.4-0.2-0.7-0.6-0.9-1s-0.3-0.9-0.3-1.4s0.1-1,0.3-1.4C36,22,36.4,21.7,36.8,21.5z M200.5,9.1c0.6,0.3,1.2,0.5,1.9,0.5
	c0.6,0,1.1-0.1,1.6-0.3s0.9-0.5,1.2-0.9l-0.5-0.6c-0.3,0.3-0.6,0.5-1,0.7s-0.8,0.2-1.2,0.2c-0.8,0-1.4-0.2-1.9-0.7s-0.8-1.1-0.8-1.8
	h5.9V5.9c0-0.7-0.1-1.3-0.4-1.9c-0.3-0.5-0.7-1-1.2-1.3s-1.1-0.5-1.8-0.5s-1.3,0.2-1.8,0.5s-0.9,0.7-1.2,1.3
	c-0.3,0.5-0.4,1.2-0.4,1.9s0.2,1.3,0.5,1.9S200,8.7,200.5,9.1L200.5,9.1z M200.5,3.8c0.5-0.4,1-0.7,1.7-0.7s1.3,0.2,1.7,0.7
	c0.5,0.4,0.7,1,0.8,1.7h-5C199.8,4.8,200,4.2,200.5,3.8z M208.7,6.3h4.5v3.2h1V2.3h-1v3.2h-4.5V2.3h-0.9v7.2h0.9V6.3z M202.9,23.8
	c-0.3-0.3-0.5-0.7-0.5-1.2v-2.3h-1v2.3c0,0.8,0.2,1.4,0.7,1.8s1.1,0.6,2,0.6c0.8,0,1.6-0.2,2.4-0.5v3h1v-7.1h-1v3.4
	c-0.8,0.4-1.6,0.5-2.2,0.5C203.7,24.3,203.2,24.1,202.9,23.8z M50.9,3.2h4.4v6.3h1V2.3h-6.4v7.2h1V3.2z M60,8.1
	c0.3,0.5,0.7,0.8,1.1,1.1c0.5,0.2,1,0.4,1.6,0.4c0.7,0,1.3-0.1,1.8-0.4c0.5-0.3,1-0.7,1.3-1.3c0.3-0.5,0.5-1.2,0.5-1.9
	s-0.2-1.3-0.5-1.9c-0.3-0.5-0.7-1-1.3-1.3c-0.5-0.3-1.1-0.5-1.8-0.5c-0.6,0-1.1,0.1-1.6,0.4S60.3,3.3,60,3.8V2.3h-1V12h1
	C60,12,60,8.1,60,8.1z M60.3,4.5c0.2-0.4,0.5-0.8,0.9-1s0.9-0.4,1.4-0.4s0.9,0.1,1.3,0.4c0.4,0.2,0.7,0.6,0.9,1
	c0.2,0.4,0.4,0.9,0.4,1.4s-0.1,1-0.4,1.4c-0.2,0.4-0.5,0.8-0.9,1c-0.4,0.2-0.9,0.3-1.3,0.3c-0.5,0-1-0.1-1.4-0.3s-0.7-0.6-0.9-1
	S60,6.4,60,5.9S60.1,4.9,60.3,4.5z M144,26.9c0.5-0.4,0.8-1,0.8-1.7s-0.2-1.3-0.7-1.7c-0.5-0.4-1.1-0.6-2-0.6H140v-2.5h-1v7.1h2.9
	C142.8,27.5,143.5,27.3,144,26.9z M140,26.7v-3.2h1.9c0.7,0,1.2,0.1,1.5,0.4s0.5,0.6,0.5,1.2c0,0.5-0.2,0.9-0.5,1.2
	c-0.3,0.3-0.8,0.4-1.5,0.4H140z M66.3,27.4c0.3,0.1,0.5,0.1,0.7,0.1c0.7,0,1.2-0.4,1.4-1.2s0.4-1.9,0.5-3.4l0.1-1.8h3.4v6.3h1v-7.1
	h-5.2l-0.1,2.5c0,0.8-0.1,1.5-0.2,2s-0.2,0.9-0.4,1.3c-0.2,0.3-0.5,0.5-0.8,0.5c-0.1,0-0.2,0-0.3-0.1L66.3,27.4z M81.1,26.9
	c0.5-0.4,0.8-1,0.8-1.7s-0.2-1.3-0.7-1.7c-0.5-0.4-1.1-0.6-2-0.6h-2.1v-2.5h-1v7.1H79C79.9,27.5,80.7,27.3,81.1,26.9z M77.1,26.7
	v-3.2h1.8c0.7,0,1.2,0.1,1.5,0.4s0.5,0.6,0.5,1.2c0,0.5-0.2,0.9-0.5,1.2c-0.3,0.3-0.8,0.4-1.5,0.4H77.1z M173.5,6.3h1.7l2.6,3.2h1.1
	l-3-3.7l2.8-3.5h-1l-2.5,3.2h-1.7V2.3h-0.9v7.2h0.9L173.5,6.3z M60.5,30.1c0.5,0,1-0.1,1.4-0.4s0.7-0.8,1-1.4l3.6-8h-0.9l-2.7,6
	l-2.7-6h-1l3.2,7.1L62,28.1c-0.2,0.4-0.4,0.7-0.6,0.9c-0.2,0.2-0.5,0.3-0.8,0.3c-0.5,0-0.9-0.2-1.3-0.5l-0.4,0.7
	c0.2,0.2,0.5,0.4,0.8,0.5C59.8,30.1,60.2,30.1,60.5,30.1z M78.5,3.8l2.8,4.8h0.5l2.8-4.8v5.7h0.9V2.3h-0.9l-3,5.2l-3.1-5.2h-0.9v7.2
	h0.9L78.5,3.8z M181.3,9.1c0.5,0.3,1.2,0.5,1.9,0.5s1.3-0.2,1.8-0.5s1-0.7,1.3-1.3c0.3-0.5,0.5-1.2,0.5-1.9s-0.2-1.3-0.5-1.9
	c-0.3-0.5-0.7-1-1.3-1.3c-0.5-0.3-1.2-0.5-1.8-0.5c-0.7,0-1.3,0.2-1.9,0.5c-0.5,0.3-1,0.7-1.3,1.3s-0.5,1.2-0.5,1.9s0.2,1.3,0.5,1.9
	S180.7,8.7,181.3,9.1z M180.8,4.5c0.2-0.4,0.5-0.7,0.9-1c0.4-0.2,0.9-0.4,1.4-0.4s1,0.1,1.3,0.4c0.4,0.2,0.7,0.5,0.9,1
	c0.2,0.4,0.3,0.9,0.3,1.4s-0.1,1-0.3,1.4s-0.5,0.8-0.9,1c-0.4,0.2-0.8,0.3-1.3,0.3s-1-0.1-1.4-0.3s-0.7-0.6-0.9-1s-0.3-0.9-0.3-1.4
	S180.6,4.9,180.8,4.5z M54,20.8c-0.5,0.3-1,0.7-1.3,1.3s-0.5,1.2-0.5,1.9s0.2,1.3,0.5,1.9c0.3,0.5,0.7,1,1.3,1.3s1.2,0.5,1.9,0.5
	c0.6,0,1.1-0.1,1.6-0.4c0.5-0.2,0.9-0.6,1.1-1.1l-0.7-0.5c-0.2,0.4-0.5,0.6-0.9,0.8c-0.4,0.2-0.8,0.3-1.2,0.3c-0.5,0-1-0.1-1.4-0.3
	c-0.4-0.2-0.7-0.6-1-1c-0.2-0.4-0.3-0.9-0.3-1.5c0-0.5,0.1-1,0.3-1.4s0.6-0.7,1-1c0.4-0.2,0.9-0.4,1.4-0.4c0.4,0,0.8,0.1,1.2,0.3
	c0.4,0.2,0.7,0.4,0.9,0.8l0.7-0.5c-0.3-0.5-0.7-0.8-1.1-1c-0.5-0.2-1-0.4-1.6-0.4C55.2,20.3,54.5,20.4,54,20.8z"/>
</svg>
