<svg version="1.1" id="Layer_1" xmlns="http://www.w3.org/2000/svg" x="0" y="0" viewBox="0 0 266 37" style="enable-background:new 0 0 266 37" xml:space="preserve"><style>.st0{fill:#7d7d7d}</style><path class="st0" d="M5.4 12.6c.5-.6.7-1.4.7-2.4V8.7c0-1.1-.3-1.9-.8-2.4-.4-.4-1.2-.7-2.3-.7H1.5V1.5h4.1V.1H0v13.3h3.1c1.1 0 1.8-.2 2.3-.8zM1.5 7H3c.5 0 1 .1 1.2.4.4.2.5.6.5 1.2v1.7c0 .6-.1 1.1-.4 1.4-.3.3-.7.4-1.2.4H1.5V7zM10.7 5.9 9.3 10V.1H8v13.3h1.5l2-6.1 1.4-4.5v10.6h1.4V.1h-1.7zM21.4 12.7c.5-.6.8-1.4.8-2.4v-7c0-1-.3-1.8-.8-2.4-.5-.6-1.3-.9-2.3-.9s-1.8.3-2.3.9c-.5.6-.8 1.4-.8 2.4v6.9c0 1 .2 1.8.7 2.4.5.6 1.3.9 2.3.9s1.9-.2 2.4-.8zm-3.9-2.4v-7c0-.6.1-1.1.4-1.4.3-.3.7-.5 1.2-.5s.9.2 1.2.5c.3.3.4.8.4 1.4v7c0 .6-.1 1.1-.4 1.4-.3.3-.7.5-1.2.5s-.9-.2-1.2-.5c-.3-.3-.4-.8-.4-1.4zM29.3 1.5v11.9h1.5V.1h-5.4L25 10.2c0 .3 0 .6-.1.8 0 .2-.1.4-.2.6-.1.2-.2.3-.4.3-.2.1-.4.1-.7.1v1.3h.2c.5 0 .9-.1 1.3-.2.3-.2.6-.4.8-.6.2-.3.3-.6.4-1 .1-.4.1-.9.2-1.4l.3-8.6h2.5zM38 12.7c.5-.6.8-1.4.8-2.4v-7c0-1-.3-1.8-.8-2.4-.5-.6-1.3-.9-2.3-.9-1 0-1.8.3-2.3.9-.5.6-.7 1.4-.7 2.4v6.9c0 1 .2 1.8.7 2.4.5.6 1.3.9 2.3.9 1 .1 1.8-.2 2.3-.8zm-3.9-2.4v-7c0-.6.1-1.1.4-1.4.3-.3.7-.5 1.2-.5s.9.2 1.2.5c.3.3.4.8.4 1.4v7c0 .6-.1 1.1-.4 1.4-.3.3-.7.5-1.2.5s-.9-.2-1.2-.5c-.3-.3-.4-.8-.4-1.4zM45.8.1h-5.3v13.3H42V1.5h3.8zM52.6 2.8v10.6h1.3V.1h-1.6l-2 5.8L49 10V.1h-1.3v13.3h1.5l2-6.1zM59.5 8.3c.4-.2.7-.4.9-.8v5.9h1.5V.1h-1.5v5.5c-.2 1-.7 1.6-1.6 1.6-.5 0-.9-.2-1.2-.5-.3-.4-.4-.8-.4-1.4V.1h-1.5v5.3c0 .4.1.9.2 1.3s.3.7.5 1c.2.3.5.5.8.7.3.2.7.2 1.2.2.4 0 .7-.1 1.1-.3zM69.3 12.1h-4V7.4h3.2V6h-3.2V1.5h4V.1h-5.5v13.3h5.5zM76.2 12.7c.5-.6.7-1.4.7-2.4V8.6h-1.4v1.7c0 .6-.1 1.1-.4 1.4-.2.3-.6.5-1.2.5-.5 0-.9-.2-1.2-.5-.3-.3-.4-.8-.4-1.4v-7c0-.6.1-1.1.4-1.4.3-.3.6-.5 1.2-.5.5 0 .9.2 1.2.5.3.3.4.8.4 1.4v1.3h1.4V3.3c0-1-.2-1.8-.7-2.4-.5-.6-1.3-.9-2.3-.9-.5 0-.9.1-1.3.2-.4.2-.7.4-.9.7-.2.3-.4.6-.6 1.1-.1.4-.2.9-.2 1.4v6.9c0 1 .2 1.8.7 2.4.5.6 1.2.9 2.3.9 1 0 1.8-.3 2.3-.9zM81.8 6.2 85.2.1h-1.5l-3.6 6.5V.1h-1.5v13.3h1.5V9l.8-1.3 2.8 5.7h1.6zM91.1.1H89l-2.5 13.3h1.4l.5-2.7h3.4l.5 2.7h1.5L91.1.1zm-2.6 9.4L90 1.8l1.5 7.7h-3zM101.2 13.4V.1h-3c-1.1 0-1.8.3-2.3.8-.5.5-.7 1.3-.7 2.3v1.1c0 1.5.5 2.4 1.6 2.7-.6.2-1 .5-1.3 1-.2.5-.4 1.1-.4 1.8v2.1c0 .3 0 .6-.1.9 0 .3-.1.5-.2.7h1.5c.1-.2.2-.4.2-.6 0-.2.1-.6.1-1V9.7c0-.7.2-1.3.5-1.5.3-.3.8-.4 1.4-.4h1v5.7h1.7zm-2.7-7c-.6 0-1-.1-1.4-.4-.3-.3-.5-.7-.5-1.5V3.3c0-.6.1-1.1.3-1.4.2-.3.6-.5 1.2-.5h1.4v4.9h-1zM112.9 15.3h1.4v-3.1h-1V.2H108l-.5 10c0 .4-.1.8-.2 1.1-.1.3-.2.6-.4.9h-.9v3.1h1.4v-1.8h5.4v1.8zm-1-3.2h-3.5c.2-.2.4-.5.4-.8.1-.3.1-.7.2-1.2l.4-8.7h2.5v10.7zM121.3 12.7c.5-.6.8-1.4.8-2.4v-7c0-1-.3-1.8-.8-2.4-.5-.6-1.3-.9-2.3-.9s-1.8.3-2.3.9c-.5.6-.7 1.4-.7 2.4v6.9c0 1 .2 1.8.7 2.4.5.6 1.3.9 2.3.9s1.8-.2 2.3-.8zm-3.9-2.4v-7c0-.6.1-1.1.4-1.4.3-.3.7-.5 1.2-.5s.9.2 1.2.5c.3.3.4.8.4 1.4v7c0 .6-.1 1.1-.4 1.4-.3.3-.7.5-1.2.5s-.9-.2-1.2-.5c-.3-.3-.4-.8-.4-1.4zM129.2 12.6c.5-.6.7-1.4.7-2.4V8.7c0-1.1-.3-1.9-.8-2.4s-1.3-.8-2.3-.8h-1.6v-4h4.1V.1h-5.6v13.3h3.1c1.2 0 2-.2 2.4-.8zM125.3 7h1.6c.5 0 1 .1 1.2.4.3.2.4.7.4 1.3v1.7c0 .6-.1 1.1-.4 1.4-.3.3-.7.4-1.2.4h-1.6V7zM134 .1l-2.5 13.3h1.4l.5-2.7h3.4l.5 2.7h1.5L136.3.1H134zm-.5 9.4 1.5-7.7 1.5 7.7h-3zM144.5 6.3c.6-.2 1-.5 1.2-.9.2-.4.3-1 .3-1.7v-.6c0-1-.2-1.7-.7-2.2-.4-.5-1.2-.7-2.2-.7h-3v13.3h3.1c1 0 1.8-.3 2.3-.8.5-.5.7-1.3.7-2.3V9.2c0-.7-.1-1.3-.4-1.8-.2-.5-.6-.9-1.3-1.1zm-2.8-4.8h1.5c.5 0 .9.1 1.1.4.2.3.3.7.3 1.3V4c0 .7-.2 1.2-.5 1.4-.3.2-.7.4-1.3.4h-1.1V1.5zm3.1 8.8c0 1.2-.5 1.8-1.6 1.8h-1.6v-5h1.3c.6 0 1.1.1 1.4.4.3.3.5.8.5 1.5v1.3zM151.2 6.2l3.3-6.1H153l-3.5 6.5V.1H148v13.3h1.5V9l.8-1.3 2.8 5.7h1.6zM160.5.1h-2.1l-2.5 13.3h1.4l.5-2.7h3.4l.5 2.7h1.5L160.5.1zm-2.6 9.4 1.5-7.7 1.5 7.7h-3zM174.5 13.4l-3.4-7.2 3.3-6.1h-1.5l-3.5 6.5V.1h-1.5v13.3h1.5V9l.8-1.3 2.8 5.7zM184.1 13.4h1.5V.1h-6.2v13.3h1.5V1.5h3.2zM190.2 5.9l-1.4 4.1V.1h-1.3v13.3h1.6l1.9-6.1 1.5-4.5v10.6h1.3V.1h-1.7zM204.8 15.2h1.4v-3.1h-1V.1h-1.5v12h-2.5V.1h-1.5v12h-2.5V.1h-1.5v13.3h9.1zM213.3 12.1h-3.9V7.4h3.2V6h-3.2V1.5h3.9V.1h-5.4v13.3h5.4zM215.2 13.4h.5l-.4 1.7h.6l.7-1.8v-1.7h-1.4zM4.7 27.9H1.5v-6H0v13.3h1.5v-6h3.2v6h1.5V21.9H4.7zM8.1 35.2h5.5v-1.4h-4v-4.7h3.3v-1.3H9.6v-4.6h4v-1.3H8.1zM19.4 22.7c-.5.5-.7 1.3-.7 2.3v1c0 1.5.5 2.4 1.6 2.7-.6.2-1 .5-1.3 1-.2.5-.4 1.1-.4 1.8v2.1c0 .3 0 .6-.1.9 0 .3-.1.5-.2.7h1.5c.1-.2.2-.4.2-.6 0-.2.1-.6.1-1v-2.1c0-.7.2-1.3.5-1.5.3-.3.8-.4 1.4-.4h1v5.7h1.5V21.9h-3c-.9 0-1.6.2-2.1.8zm3.8.5v4.9h-1.1c-.6 0-1-.1-1.4-.4-.3-.3-.5-.7-.5-1.5v-1.3c0-.6.1-1.1.3-1.4.2-.3.6-.5 1.2-.5h1.5zM30.9 28.1c.6-.2 1-.5 1.2-.9.2-.4.3-1 .3-1.7v-.6c0-1-.2-1.7-.7-2.2-.4-.5-1.2-.7-2.2-.7h-3v13.3h3.1c1 0 1.8-.3 2.3-.8.5-.5.7-1.3.7-2.3v-1.1c0-.7-.1-1.3-.4-1.8-.2-.7-.7-1-1.3-1.2zM28 23.2h1.5c.5 0 .9.1 1.1.4.2.3.3.7.3 1.3v.8c0 .7-.2 1.2-.5 1.4-.3.2-.7.4-1.3.4H28v-4.3zm3.2 8.8c0 1.2-.5 1.8-1.6 1.8H28v-5h1.3c.6 0 1.1.1 1.4.4.3.3.5.8.5 1.5V32zM35.4 31.9c0 .3 0 .6-.1.8 0 .2-.1.4-.2.6-.1.2-.2.3-.4.3-.2.1-.4.1-.7.1V35h.2c.5 0 .9-.1 1.3-.2.3-.2.6-.4.8-.6.2-.3.3-.6.4-1 .1-.4.1-.9.2-1.4l.3-8.6h2.5v11.9h1.5V21.9h-5.4l-.4 10zM43.9 22.7c-.5.5-.7 1.3-.7 2.3v1c0 1.5.5 2.4 1.6 2.7-.6.2-1 .5-1.3 1-.2.5-.4 1.1-.4 1.8v2.1c0 .3 0 .6-.1.9 0 .3-.1.5-.2.7h1.5c.1-.2.2-.4.2-.6 0-.2.1-.6.1-1v-2.1c0-.7.2-1.3.5-1.5.3-.3.8-.4 1.4-.4h1v5.7H49V21.9h-3c-.9 0-1.6.2-2.1.8zm3.8.5v4.9h-1.1c-.6 0-1-.1-1.4-.4-.3-.3-.5-.7-.5-1.5v-1.3c0-.6.1-1.1.3-1.4.2-.3.6-.5 1.2-.5h1.5zM51 35.2h5.5v-1.4h-4v-4.7h3.3v-1.3h-3.3v-4.6h4v-1.3H51zM57.9 23.2h2.4v12h1.5v-12h2.4v-1.3h-6.3zM68.6 21.7c-.5 0-.9.1-1.3.2-.4.2-.7.4-.9.7-.2.3-.4.6-.6 1.1-.1.4-.2.9-.2 1.4V32c0 1 .2 1.8.7 2.4.5.6 1.2.9 2.3.9 1 0 1.8-.3 2.3-.9.5-.6.7-1.4.7-2.4v-1.7h-1.4V32c0 .6-.1 1.1-.4 1.4-.2.3-.6.5-1.2.5-.5 0-.9-.2-1.2-.5-.3-.3-.4-.8-.4-1.4v-7c0-.6.1-1.1.4-1.4.3-.3.6-.5 1.2-.5.5 0 .9.2 1.2.5.3.3.4.8.4 1.4v1.3h1.4v-1.2c0-1-.2-1.8-.7-2.4-.5-.7-1.3-1-2.3-1zM74 22.7c-.5.5-.7 1.3-.7 2.3v1c0 1.5.5 2.4 1.6 2.7-.6.2-1 .5-1.3 1-.2.5-.4 1.1-.4 1.8v2.1c0 .3 0 .6-.1.9 0 .3-.1.5-.2.7h1.5c.1-.2.2-.4.2-.6 0-.2.1-.6.1-1v-2.1c0-.7.2-1.3.5-1.5.3-.3.8-.4 1.4-.4h1v5.7h1.5V21.9h-3c-.8 0-1.6.2-2.1.8zm3.8.5v4.9h-1.1c-.6 0-1-.1-1.4-.4-.3-.3-.5-.7-.5-1.5v-1.3c0-.6.1-1.1.3-1.4.2-.3.6-.5 1.2-.5h1.5zM85.6 31.9c0 .3 0 .6-.1.8 0 .2-.1.4-.2.6-.1.2-.2.3-.4.3-.2.1-.4.1-.7.1V35h.2c.5 0 .9-.1 1.3-.2.3-.2.6-.4.8-.6.2-.3.3-.6.4-1 .1-.4.1-.9.2-1.4l.3-8.6h2.5v11.9h1.5V21.9H86l-.4 10zM93.3 35.2h5.5v-1.4h-4v-4.7h3.3v-1.3h-3.3v-4.6h4v-1.3h-5.5zM107.1 21.9h-1.5l-3.6 6.4v-6.4h-1.5v13.3h1.5v-4.5l.8-1.3 2.9 5.8h1.5l-3.5-7.3zM110.9 21.9l-2.5 13.3h1.4l.5-2.7h3.4l.5 2.7h1.5L113 21.9h-2.1zm-.5 9.3 1.5-7.7 1.5 7.7h-3zM120 21.9h-2.9v13.3h1.5V30h1.3c1.1 0 1.8-.3 2.3-.8.5-.5.8-1.3.8-2.4v-1.6c0-1-.2-1.8-.7-2.4-.5-.6-1.2-.9-2.3-.9zm1.5 4.9c0 .6-.1 1.1-.4 1.4-.3.3-.7.4-1.2.4h-1.3v-5.4h1.4c.5 0 .9.2 1.2.5.2.3.4.8.4 1.4v1.7zM127.4 21.7c-.5 0-.9.1-1.3.2-.4.2-.7.4-.9.7-.2.3-.4.6-.6 1.1-.1.4-.2.9-.2 1.4V32c0 1 .2 1.8.7 2.4.5.6 1.2.9 2.3.9 1 0 1.8-.3 2.3-.9.5-.6.7-1.4.7-2.4v-1.7H129V32c0 .6-.1 1.1-.4 1.4-.2.3-.6.5-1.2.5-.5 0-.9-.2-1.2-.5-.3-.3-.4-.8-.4-1.4v-7c0-.6.1-1.1.4-1.4.3-.3.6-.5 1.2-.5.5 0 .9.2 1.2.5.3.3.4.8.4 1.4v1.3h1.4v-1.2c0-1-.2-1.8-.7-2.4-.5-.7-1.3-1-2.3-1zM131.7 23.2h2.5v12h1.4v-12h2.5v-1.3h-6.4zM143.9 28.1c.6-.2 1-.5 1.2-.9.2-.4.3-1 .3-1.7v-.6c0-1-.2-1.7-.7-2.2-.4-.5-1.2-.7-2.2-.7h-3v13.3h3.1c1 0 1.8-.3 2.3-.8.5-.5.7-1.3.7-2.3v-1.1c0-.7-.1-1.3-.4-1.8-.2-.7-.7-1-1.3-1.2zm-2.8-4.9h1.5c.5 0 .9.1 1.1.4.2.3.3.7.3 1.3v.8c0 .7-.2 1.2-.5 1.4-.3.2-.7.4-1.3.4h-1.1v-4.3zm3.1 8.8c0 1.2-.5 1.8-1.6 1.8H141v-5h1.3c.6 0 1.1.1 1.4.4.3.3.5.8.5 1.5V32zM147.4 35.2h5.5v-1.4h-4v-4.7h3.2v-1.3h-3.2v-4.6h4v-1.3h-5.5zM159.4 27.9h-3.3v-6h-1.5v13.3h1.5v-6h3.3v6h1.4V21.9h-1.4zM167.5 27.9h-3.3v-6h-1.4v13.3h1.4v-6h3.3v6h1.5V21.9h-1.5zM173.7 27.1h-1.3v-5.2h-1.5v13.3h2.9c1 0 1.8-.3 2.3-.9.5-.6.7-1.4.7-2.4v-1.6c0-1.1-.3-1.9-.8-2.4s-1.3-.8-2.3-.8zm1.6 4.9c0 .6-.1 1.1-.4 1.4-.2.3-.6.5-1.2.5h-1.4v-5.4h1.3c.6 0 1 .1 1.2.4.3.3.4.7.4 1.4V32zM178 21.9h1.5v13.3H178zM185.6 32.5l-2.2-10.6h-2v13.3h1.2V24.6l2.3 10.6h1.4l2.1-10.7v10.7h1.4V21.9h-2.1zM197.9 21.7c-.5 0-1 .1-1.3.2-.4.2-.7.4-.9.7-.2.3-.4.6-.6 1.1-.1.4-.2.9-.2 1.4V32c0 1 .2 1.8.7 2.4.5.6 1.2.9 2.3.9 1 0 1.8-.3 2.3-.9.5-.6.7-1.4.7-2.4v-1.7h-1.4V32c0 .6-.1 1.1-.4 1.4-.2.3-.6.5-1.2.5-.5 0-.9-.2-1.2-.5-.3-.3-.4-.8-.4-1.4v-7c0-.6.1-1.1.4-1.4.3-.3.6-.5 1.2-.5.5 0 .9.2 1.2.5.3.3.4.8.4 1.4v1.3h1.4v-1.2c0-1-.2-1.8-.7-2.4-.5-.7-1.3-1-2.3-1zM205.5 21.9h-2.9v13.3h1.5V30h1.3c1.1 0 1.8-.3 2.3-.8.5-.5.8-1.3.8-2.4v-1.6c0-1-.2-1.8-.7-2.4-.5-.6-1.2-.9-2.3-.9zm1.6 4.9c0 .6-.1 1.1-.4 1.4-.3.3-.7.4-1.2.4h-1.3v-5.4h1.4c.5 0 .9.2 1.2.5.2.3.4.8.4 1.4v1.7zM210.1 35.2h5.4v-1.4h-4v-4.7h3.3v-1.3h-3.3v-4.6h4v-1.3h-5.4zM224.3 21.9H219l-.5 10c0 .4-.1.8-.2 1.1-.1.3-.2.6-.4.9h-.9V37h1.4v-1.8h5.4V37h1.4v-3.1h-1v-12zm-1.5 12h-3.5c.2-.2.4-.5.4-.8.1-.3.1-.7.2-1.2l.4-8.7h2.5v10.7zM229.8 21.7c-.5 0-1 .1-1.3.2-.4.2-.7.4-.9.7-.2.3-.4.6-.6 1.1-.1.4-.2.9-.2 1.4V32c0 1 .2 1.8.7 2.4.5.6 1.2.9 2.3.9 1 0 1.8-.3 2.3-.9.5-.6.7-1.4.7-2.4v-1.7h-1.4V32c0 .6-.1 1.1-.4 1.4-.2.3-.6.5-1.2.5-.5 0-.9-.2-1.2-.5-.3-.3-.4-.8-.4-1.4v-7c0-.6.1-1.1.4-1.4.3-.3.6-.5 1.2-.5.5 0 .9.2 1.2.5.3.3.4.8.4 1.4v1.3h1.4v-1.2c0-1-.2-1.8-.7-2.4-.5-.7-1.2-1-2.3-1zM234.1 23.2h2.5v12h1.5v-12h2.4v-1.3h-6.4zM246.3 28.1c.6-.2 1-.5 1.2-.9.2-.4.3-1 .3-1.7v-.6c0-1-.2-1.7-.7-2.2-.4-.5-1.2-.7-2.2-.7h-3v13.3h3.1c1 0 1.8-.3 2.3-.8.5-.5.7-1.3.7-2.3v-1.1c0-.7-.1-1.3-.4-1.8-.2-.7-.6-1-1.3-1.2zm-2.8-4.9h1.5c.5 0 .9.1 1.1.4.2.3.3.7.3 1.3v.8c0 .7-.2 1.2-.5 1.4-.3.2-.7.4-1.3.4h-1.1v-4.3zm3.1 8.8c0 1.2-.5 1.8-1.6 1.8h-1.6v-5h1.3c.6 0 1.1.1 1.4.4.3.3.5.8.5 1.5V32zM252.7 21.7c-1 0-1.8.3-2.3.9-.5.6-.7 1.4-.7 2.4v7c0 1 .2 1.8.7 2.4.5.6 1.3.9 2.3.9s1.8-.3 2.3-.9c.5-.6.8-1.4.8-2.4v-6.9c0-1-.3-1.8-.8-2.4-.5-.7-1.2-1-2.3-1zm1.6 10.3c0 .6-.1 1.1-.4 1.4-.3.3-.7.5-1.2.5s-.9-.2-1.2-.5c-.3-.3-.4-.8-.4-1.4v-7c0-.6.1-1.1.4-1.4.3-.3.7-.5 1.2-.5s.9.2 1.2.5c.3.3.4.8.4 1.4v7zM263.9 21.9l-2.1 10.6-2.2-10.6h-2v13.3h1.3V24.6l2.2 10.6h1.4l2.1-10.7v10.7h1.4V21.9z"/></svg>