<svg version="1.1" id="Layer_1" xmlns="http://www.w3.org/2000/svg" x="0" y="0" viewBox="0 0 232 32" style="enable-background:new 0 0 232 32" xml:space="preserve"><style>.st0{fill:#060315}</style><path class="st0" d="M87.6 16c-.7-.4-1.6-.7-2.6-.7 1.2-.2 2.2-.7 2.9-1.3.7-.7 1.1-1.5 1.1-2.5 0-1.6-.6-2.8-1.9-3.7-1.3-.9-3-1.3-5.2-1.3h-7.8V25h9c1.4 0 2.7-.2 3.7-.6 1-.4 1.8-1 2.3-1.8.6-.7.9-1.6.9-2.6 0-.9-.2-1.6-.6-2.3-.4-.7-1-1.2-1.8-1.7zm-9.3-6H82c.9 0 1.6.2 2.1.5.5.4.8.9.8 1.5 0 .4-.1.8-.3 1.1-.2.3-.6.6-1 .7-.4.2-.9.3-1.5.3h-3.8V10zm6.8 11c-.5.4-1.1.6-1.9.6h-4.9V17h4.9c.8 0 1.4.2 1.9.7.5.4.7 1 .7 1.8 0 .6-.3 1.1-.7 1.5zM50.7 7.2c-1.1.5-1.9 1.2-2.5 2.1-.6.9-.9 1.9-.9 3.1 0 1.1.3 2.1.9 3 .6.9 1.4 1.5 2.5 2h.1L46.7 25H51l3.8-7h3.9v7h4.1V6.5h-8.1c-1.5 0-2.8.2-4 .7zm7.9 7.6h-4.1c-1 0-1.7-.2-2.2-.7-.5-.5-.8-1-.8-1.7s.3-1.3.8-1.7c.5-.5 1.3-.7 2.3-.7h4v4.8zM22.4.3H6.6L6 10.7c-.1 2.2-.4 4-.7 5.4-.3 1.4-.7 2.5-1.2 3.3-.5.8-1 1.4-1.6 1.9H.8V31h4.3v-6h15.8v5.9h4.3v-9.6h-2.8V.3zm-4.3 21H7.7c.4-.7.8-1.6 1.2-2.6.4-1 .6-2.2.9-3.5.2-1.3.4-2.8.5-4.5l.4-6.7h7.5v17.3zM30.1 14.7c0 1.3-.1 2.4-.3 3.2-.1.9-.3 1.6-.5 2.1s-.5.9-.8 1.1c-.3.2-.7.3-1.2.3h-.6V25H28c1 0 1.9-.2 2.6-.5.7-.4 1.3-.9 1.8-1.6.5-.7.9-1.7 1.1-2.8.3-1.1.4-2.5.5-4l.3-6h5.3v15h4.2V6.5H30.4l-.3 8.2zM123.5 7.3c-1.2-.7-2.4-1.1-3.9-1.1-1.1 0-2 .2-2.7.6-.7.4-1.3.8-1.7 1.3-.4.5-.7 1-1 1.4h-.3v-3h-4.3V32h4.4v-9.9h.2c.2.5.6.9 1 1.4.4.5 1 .9 1.7 1.3s1.6.5 2.6.5c1.5 0 2.8-.4 3.9-1.1s2.1-1.8 2.7-3.3c.7-1.4 1-3.2 1-5.2 0-2.1-.3-3.8-1-5.2-.5-1.4-1.4-2.5-2.6-3.2zm-1.2 11.5c-.3.9-.8 1.6-1.5 2.1s-1.5.8-2.4.8c-.9 0-1.7-.2-2.4-.7-.6-.5-1.1-1.2-1.5-2.1-.3-.9-.5-2-.5-3.2 0-1.2.2-2.2.5-3.1.3-.9.8-1.6 1.5-2.1s1.4-.7 2.4-.7 1.8.3 2.4.8c.7.5 1.1 1.2 1.5 2.1s.5 1.9.5 3.1c0 1.1-.1 2.1-.5 3zM207.2 6.5h4.4V25h-4.4zM225.6 15.7l5.5-9.2h-4.6l-3.8 6.8-3.7-6.8h-4.7l5.5 9.2-5.6 9.3h4.6l3.9-6.7 3.9 6.7h4.6zM202.9 14.2c-1.3-1.2-3.1-1.7-5.5-1.7h-4.2v-6H189V25h8.4c1.6 0 2.9-.3 4-.8s2-1.3 2.5-2.2c.6-.9.9-2 .9-3.2.1-1.9-.6-3.4-1.9-4.6zm-3.1 6.5c-.6.5-1.4.7-2.3.7h-4.2v-5.3h4.2c.9 0 1.7.3 2.3.8.6.5.9 1.2.9 2 0 .7-.3 1.3-.9 1.8zM105.1 16.1c-.6-.4-1.2-.6-2-.6v-.2c1.1-.3 1.9-.7 2.5-1.4.6-.7.9-1.5.9-2.5s-.3-2-.9-2.7c-.6-.8-1.4-1.4-2.4-1.8-1.1-.4-2.3-.7-3.8-.7-1.4 0-2.6.2-3.6.7-1.1.4-1.9 1.1-2.6 1.9-.6.8-.9 1.7-1 2.8h4.3c0-.6.3-1.1.9-1.5.6-.4 1.3-.6 2.2-.6.9 0 1.5.2 2 .6.5.4.7 1 .7 1.7 0 .6-.2 1.2-.7 1.6-.5.4-1.2.6-2.1.6h-2.8v3.1h2.8c.6 0 1.1.1 1.6.3.5.2.8.5 1 .9.2.4.4.8.4 1.3 0 .8-.3 1.5-1 1.9-.6.4-1.4.6-2.4.6-.9 0-1.7-.2-2.3-.6-.6-.4-.9-.9-.9-1.6h-4.3c0 1.1.4 2.1 1.1 2.9.7.8 1.5 1.4 2.7 1.9 1.1.4 2.4.6 3.8.6 1.5 0 2.8-.2 3.9-.7 1.1-.4 2-1.1 2.7-1.9.7-.8 1-1.8 1-2.9 0-.8-.2-1.6-.5-2.2-.1-.6-.6-1.1-1.2-1.5zM171.5 14.7c0 1.3-.1 2.4-.3 3.2-.1.9-.3 1.6-.5 2.1s-.5.9-.8 1.1-.7.3-1.2.3h-.7V25h1.4c1 0 1.9-.2 2.6-.5.7-.4 1.3-.9 1.8-1.6.5-.7.9-1.7 1.1-2.8.3-1.1.4-2.5.5-4l.3-6h5.3v15h4.2V6.5h-13.5l-.2 8.2zM143.2 7.4c-1.3-.8-2.9-1.2-4.7-1.2-1.8 0-3.4.4-4.7 1.2s-2.4 1.9-3.1 3.4c-.7 1.4-1.1 3.1-1.1 5s.4 3.6 1.1 5c.7 1.4 1.8 2.5 3.1 3.3 1.3.8 2.9 1.2 4.7 1.2 1.8 0 3.4-.4 4.7-1.2 1.3-.8 2.4-1.9 3.1-3.3.7-1.4 1.1-3.1 1.1-5s-.4-3.6-1.1-5c-.8-1.5-1.8-2.6-3.1-3.4zm-.8 11.5c-.3.9-.8 1.7-1.5 2.2-.7.5-1.5.8-2.5.8s-1.8-.3-2.5-.8-1.2-1.3-1.5-2.2c-.3-.9-.5-1.9-.5-3.1 0-1.1.2-2.2.5-3.1.3-.9.8-1.7 1.5-2.2.7-.5 1.5-.8 2.5-.8s1.8.3 2.5.8 1.2 1.3 1.5 2.2c.3.9.5 1.9.5 3.1 0 1.1-.2 2.1-.5 3.1zM156.1 10.5c.7-.5 1.5-.7 2.4-.7 1.1 0 1.9.3 2.5.9.6.6 1 1.3 1.2 2.2h4.2c-.1-1.3-.5-2.5-1.2-3.5s-1.6-1.8-2.8-2.3c-1.2-.6-2.5-.8-4-.8-1.8 0-3.4.4-4.7 1.2-1.3.8-2.3 1.9-3.1 3.4-.7 1.4-1.1 3.1-1.1 5s.4 3.5 1.1 5c.7 1.4 1.7 2.6 3.1 3.4 1.3.8 2.9 1.2 4.8 1.2 1.6 0 2.9-.3 4.1-.8 1.2-.6 2.1-1.4 2.7-2.4.7-1 1.1-2.2 1.2-3.5h-4.2c-.1.7-.4 1.2-.7 1.7-.3.5-.8.8-1.3 1.1-.5.2-1.1.4-1.7.4-.9 0-1.7-.2-2.4-.7-.7-.5-1.2-1.2-1.6-2.1-.4-.9-.6-2-.6-3.3 0-1.2.2-2.3.6-3.2.3-1.1.9-1.8 1.5-2.2z"/></svg>