<?xml version="1.0" encoding="utf-8"?>
<!-- Generator: Adobe Illustrator 25.2.3, SVG Export Plug-In . SVG Version: 6.00 Build 0)  -->
<svg version="1.1" id="Layer_1" xmlns="http://www.w3.org/2000/svg" xmlns:xlink="http://www.w3.org/1999/xlink" x="0px" y="0px"
	 viewBox="0 0 1930 367" style="enable-background:new 0 0 1930 367;" xml:space="preserve">
<style type="text/css">
	.st0{fill:#060315;}
</style>
<path class="st0" d="M34.3,9.3v35.9h-6.7V29.8H9.1v15.4H2.5V9.3h6.7v14.8h18.5V9.3H34.3z"/>
<path class="st0" d="M69.3,31.7c0,0.4,0,1.1-0.1,1.9H47.7c0.4,2,1.3,3.6,2.9,4.8c1.6,1.2,3.6,1.7,5.9,1.7c3,0,5.5-1,7.4-3l3.4,3.9
	c-1.2,1.5-2.8,2.6-4.7,3.3c-1.9,0.8-4,1.1-6.4,1.1c-3,0-5.7-0.6-7.9-1.8c-2.3-1.2-4.1-2.9-5.3-5c-1.2-2.2-1.8-4.6-1.8-7.3
	c0-2.7,0.6-5.1,1.8-7.2c1.2-2.2,2.9-3.8,5.1-5c2.2-1.2,4.6-1.8,7.3-1.8c2.7,0,5,0.6,7.1,1.8c2.1,1.2,3.8,2.8,4.9,5
	C68.7,26.4,69.3,28.9,69.3,31.7z M55.5,22.7c-2,0-3.8,0.6-5.2,1.8c-1.4,1.2-2.3,2.8-2.6,4.8h15.5c-0.3-2-1.1-3.6-2.5-4.8
	C59.3,23.3,57.6,22.7,55.5,22.7z"/>
<path class="st0" d="M97.3,23.3H82.7v21.9h-6.4V17.8h21V23.3z"/>
<path class="st0" d="M102,17.8h6.4v27.4H102V17.8z M105.2,13.3c-1.2,0-2.1-0.4-2.9-1.1c-0.8-0.8-1.2-1.7-1.2-2.8s0.4-2,1.2-2.7
	c0.8-0.8,1.8-1.1,2.9-1.1c1.2,0,2.1,0.4,2.9,1.1c0.8,0.7,1.2,1.6,1.2,2.6c0,1.1-0.4,2.1-1.2,2.9C107.4,13,106.4,13.3,105.2,13.3z"/>
<path class="st0" d="M133,31c1.7,0.5,3,1.3,3.9,2.4c1,1.1,1.4,2.3,1.4,3.8c0,1.7-0.6,3.2-1.7,4.5c-1.1,1.3-2.7,2.3-4.7,3
	c-2,0.7-4.2,1.1-6.8,1.1c-2.1,0-4.2-0.2-6.2-0.7c-2-0.5-3.8-1.2-5.5-2.2l1.8-4.8c1.3,0.8,2.8,1.3,4.5,1.7c1.7,0.4,3.3,0.6,5,0.6
	c2.2,0,3.8-0.3,5-1c1.2-0.7,1.8-1.6,1.8-2.8c0-1.1-0.5-1.9-1.4-2.5c-0.9-0.6-2.2-0.9-3.9-0.9h-5.3V29h4.8c1.6,0,2.9-0.3,3.7-0.8
	c0.9-0.5,1.4-1.3,1.4-2.3s-0.5-1.8-1.6-2.4s-2.6-0.9-4.5-0.9c-2.7,0-5.6,0.7-8.7,2l-1.6-4.7c3.6-1.7,7.2-2.5,10.9-2.5
	c2.3,0,4.4,0.3,6.3,1c1.8,0.6,3.3,1.5,4.3,2.7c1.1,1.1,1.6,2.4,1.6,3.9c0,1.3-0.4,2.5-1.2,3.6C135.6,29.6,134.5,30.4,133,31z"/>
<path class="st0" d="M166.1,23.3h-14.6v21.9h-6.4V17.8h21V23.3z"/>
<path class="st0" d="M170.7,17.8h6.4v27.4h-6.4V17.8z M174,13.3c-1.2,0-2.1-0.4-2.9-1.1c-0.8-0.8-1.2-1.7-1.2-2.8s0.4-2,1.2-2.7
	c0.8-0.8,1.8-1.1,2.9-1.1c1.2,0,2.1,0.4,2.9,1.1c0.8,0.7,1.2,1.6,1.2,2.6c0,1.1-0.4,2.1-1.2,2.9C176.1,13,175.2,13.3,174,13.3z"/>
<path class="st0" d="M211.3,34.2h-5v11H200V17.8h6.4v11.1h5.1l8.1-11.1h6.9L216.5,31l10.6,14.2h-7.5L211.3,34.2z M228.8,39.9v11H223
	v-5.7h-3.4v-5.3H228.8z"/>
<path class="st0" d="M242.9,45.6c-2.8,0-5.3-0.6-7.5-1.8c-2.2-1.2-4-2.9-5.2-5c-1.2-2.2-1.8-4.6-1.8-7.3s0.6-5.1,1.8-7.2
	c1.3-2.1,3-3.8,5.2-5c2.2-1.2,4.7-1.8,7.5-1.8c2.8,0,5.3,0.6,7.5,1.8c2.2,1.2,3.9,2.9,5.2,5c1.3,2.1,1.9,4.5,1.9,7.2
	s-0.6,5.1-1.9,7.3c-1.2,2.1-3,3.8-5.2,5C248.2,45,245.7,45.6,242.9,45.6z M242.9,40.1c2.4,0,4.3-0.8,5.8-2.4
	c1.5-1.6,2.3-3.6,2.3-6.2c0-2.6-0.8-4.6-2.3-6.2c-1.5-1.6-3.5-2.4-5.8-2.4c-2.4,0-4.3,0.8-5.8,2.4c-1.5,1.6-2.3,3.6-2.3,6.2
	c0,2.6,0.8,4.6,2.3,6.2C238.6,39.3,240.6,40.1,242.9,40.1z"/>
<path class="st0" d="M288.4,17.8v27.4H282V23.3h-10.2l-0.3,5.4c-0.2,3.6-0.5,6.7-1,9.1c-0.5,2.4-1.3,4.4-2.5,5.8
	c-1.2,1.4-2.8,2.1-4.8,2.1c-1,0-2.1-0.2-3.5-0.6l0.3-5.4c0.5,0.1,0.9,0.2,1.2,0.2c1.3,0,2.3-0.5,2.9-1.5c0.6-1.1,1.1-2.3,1.2-3.7
	c0.2-1.5,0.4-3.6,0.5-6.3l0.5-10.6H288.4z"/>
<path class="st0" d="M326.2,39.8v11.5h-6v-6.1h-21.1v6.1h-5.9V39.8h1.3c1.7-0.1,2.9-1.2,3.5-3.3c0.6-2.2,1.1-5.3,1.3-9.2l0.4-9.4
	h22.5v21.9H326.2z M305.1,27.7c-0.1,3.1-0.4,5.7-0.8,7.7c-0.4,2-1.1,3.5-2,4.4h13.5V23.3h-10.5L305.1,27.7z"/>
<path class="st0" d="M342.1,17.5c4,0,7.1,1,9.2,2.9c2.2,1.9,3.2,4.8,3.2,8.7v16h-6v-3.3c-0.8,1.2-1.9,2.1-3.4,2.8
	c-1.4,0.6-3.2,0.9-5.2,0.9c-2.1,0-3.8-0.3-5.4-1c-1.5-0.7-2.7-1.7-3.6-2.9c-0.8-1.3-1.2-2.7-1.2-4.3c0-2.5,0.9-4.4,2.7-5.9
	c1.8-1.5,4.7-2.3,8.7-2.3h7.1v-0.4c0-1.9-0.6-3.4-1.7-4.4c-1.1-1-2.8-1.5-5.1-1.5c-1.5,0-3.1,0.2-4.6,0.7c-1.5,0.5-2.7,1.1-3.7,2
	l-2.5-4.7c1.4-1.1,3.2-1.9,5.2-2.5C337.7,17.8,339.9,17.5,342.1,17.5z M341.2,40.9c1.6,0,3-0.4,4.3-1.1c1.3-0.8,2.2-1.8,2.7-3.2
	v-3.2h-6.6c-3.7,0-5.5,1.2-5.5,3.6c0,1.2,0.5,2.1,1.4,2.8C338.3,40.6,339.6,40.9,341.2,40.9z"/>
<path class="st0" d="M362.5,17.8h6.4V29h13.8V17.8h6.4v27.4h-6.4V34.4h-13.8v10.8h-6.4V17.8z"/>
<path class="st0" d="M423.5,17.8l-12.8,29.6c-1.2,3-2.6,5.1-4.4,6.3c-1.7,1.2-3.8,1.8-6.2,1.8c-1.4,0-2.7-0.2-4-0.7
	c-1.3-0.4-2.4-1.1-3.3-1.8l2.6-4.7c0.6,0.6,1.3,1,2.2,1.4c0.9,0.3,1.7,0.5,2.6,0.5c1.1,0,2-0.3,2.8-0.9c0.8-0.6,1.4-1.6,2-2.9
	l0.5-1.1l-11.9-27.5h6.7l8.6,20.2l8.7-20.2H423.5z"/>
<path class="st0" d="M435.4,23.3v8.2h11v4.2h-11v9.5H429v-9.5h-3.4v-4.2h3.4V17.8h21v5.4H435.4z"/>
<path class="st0" d="M465.4,17.5c4,0,7.1,1,9.2,2.9c2.2,1.9,3.2,4.8,3.2,8.7v16h-6v-3.3c-0.8,1.2-1.9,2.1-3.4,2.8
	c-1.4,0.6-3.2,0.9-5.2,0.9c-2,0-3.8-0.3-5.4-1c-1.5-0.7-2.7-1.7-3.6-2.9c-0.8-1.3-1.2-2.7-1.2-4.3c0-2.5,0.9-4.4,2.7-5.9
	c1.8-1.5,4.7-2.3,8.7-2.3h7.1v-0.4c0-1.9-0.6-3.4-1.7-4.4c-1.1-1-2.8-1.5-5.1-1.5c-1.5,0-3.1,0.2-4.6,0.7c-1.5,0.5-2.7,1.1-3.7,2
	l-2.5-4.7c1.4-1.1,3.2-1.9,5.2-2.5C461,17.8,463.2,17.5,465.4,17.5z M464.5,40.9c1.6,0,3-0.4,4.3-1.1c1.3-0.8,2.2-1.8,2.7-3.2v-3.2
	h-6.6c-3.7,0-5.5,1.2-5.5,3.6c0,1.2,0.5,2.1,1.4,2.8C461.6,40.6,462.9,40.9,464.5,40.9z"/>
<path class="st0" d="M16.6,78.2c2.6,0,4.9,0.6,6.9,1.7c2,1.1,3.5,2.6,4.6,4.6c1.1,2,1.7,4.3,1.7,6.8c0,2.6-0.6,5-1.8,7
	c-1.2,2-3,3.6-5.2,4.7c-2.2,1.1-4.7,1.7-7.6,1.7c-4.7,0-8.4-1.6-11-4.7c-2.6-3.1-3.9-7.7-3.9-13.6c0-5.5,1.2-9.9,3.5-13.1
	c2.4-3.2,6-5.3,10.8-6.4l12.7-2.7l0.9,5.7l-11.5,2.4c-3.3,0.7-5.8,1.8-7.4,3.5c-1.6,1.6-2.6,3.9-2.9,6.9c1.2-1.5,2.7-2.6,4.5-3.4
	C12.6,78.6,14.5,78.2,16.6,78.2z M15.3,99.5c2.4,0,4.3-0.8,5.7-2.3c1.5-1.5,2.2-3.5,2.2-5.8c0-2.4-0.7-4.3-2.2-5.7
	c-1.4-1.4-3.3-2.2-5.7-2.2c-2.4,0-4.3,0.7-5.8,2.2c-1.5,1.4-2.2,3.3-2.2,5.7c0,2.4,0.7,4.3,2.2,5.8C11,98.8,12.9,99.5,15.3,99.5z"/>
<path class="st0" d="M48.1,104.6c-2.8,0-5.3-0.6-7.5-1.8c-2.2-1.2-4-2.9-5.2-5c-1.2-2.2-1.8-4.6-1.8-7.3c0-2.7,0.6-5.1,1.8-7.2
	c1.3-2.1,3-3.8,5.2-5c2.2-1.2,4.7-1.8,7.5-1.8c2.8,0,5.3,0.6,7.5,1.8c2.2,1.2,3.9,2.9,5.2,5c1.3,2.1,1.9,4.5,1.9,7.2
	c0,2.7-0.6,5.1-1.9,7.3c-1.2,2.1-3,3.8-5.2,5C53.4,104,50.9,104.6,48.1,104.6z M48.1,99.1c2.4,0,4.3-0.8,5.8-2.4
	c1.5-1.6,2.3-3.6,2.3-6.2c0-2.6-0.8-4.6-2.3-6.2c-1.5-1.6-3.5-2.4-5.8-2.4c-2.4,0-4.3,0.8-5.8,2.4C40.8,85.9,40,88,40,90.5
	c0,2.6,0.8,4.6,2.3,6.2C43.8,98.3,45.8,99.1,48.1,99.1z"/>
<path class="st0" d="M93.6,76.8v27.4h-6.4V82.3H76.9l-0.3,5.4c-0.2,3.6-0.5,6.7-1,9.1c-0.5,2.4-1.3,4.4-2.5,5.8
	c-1.2,1.4-2.8,2.1-4.8,2.1c-1,0-2.1-0.2-3.5-0.6l0.3-5.4c0.5,0.1,0.9,0.2,1.2,0.2c1.3,0,2.3-0.5,2.9-1.5c0.6-1.1,1.1-2.3,1.2-3.7
	c0.2-1.5,0.4-3.6,0.5-6.3l0.5-10.6H93.6z"/>
<path class="st0" d="M129.1,104.2V86.1l-9.2,15.3h-2.8L108,86v18.2h-5.8V76.8h6.7l9.7,17.1l10.2-17.1h6l0.1,27.4H129.1z"/>
<path class="st0" d="M153.7,76.5c4,0,7.1,1,9.2,2.9c2.2,1.9,3.2,4.8,3.2,8.7v16h-6v-3.3c-0.8,1.2-1.9,2.1-3.4,2.8
	c-1.4,0.6-3.2,0.9-5.2,0.9c-2,0-3.8-0.3-5.4-1c-1.5-0.7-2.7-1.7-3.6-2.9c-0.8-1.3-1.2-2.7-1.2-4.3c0-2.5,0.9-4.4,2.7-5.9
	c1.8-1.5,4.7-2.3,8.7-2.3h7.1v-0.4c0-1.9-0.6-3.4-1.7-4.4c-1.1-1-2.8-1.5-5.1-1.5c-1.5,0-3.1,0.2-4.6,0.7c-1.5,0.5-2.7,1.1-3.7,2
	l-2.5-4.7c1.4-1.1,3.2-1.9,5.2-2.5C149.3,76.8,151.4,76.5,153.7,76.5z M152.8,99.9c1.6,0,3-0.4,4.3-1.1c1.3-0.8,2.2-1.8,2.7-3.2
	v-3.2h-6.6c-3.7,0-5.5,1.2-5.5,3.6c0,1.2,0.5,2.1,1.4,2.8C149.9,99.6,151.2,99.9,152.8,99.9z"/>
<path class="st0" d="M174,76.8h6.4v18l15.1-18h5.8v27.4H195v-18l-15.1,18H174V76.8z M187.3,73.6c-2.8,0-4.9-0.6-6.4-1.9
	c-1.4-1.3-2.2-3.2-2.2-5.6h4.3c0,1.2,0.4,2.2,1.1,2.9c0.8,0.7,1.8,1.1,3.1,1.1c1.3,0,2.3-0.4,3.1-1.1c0.8-0.7,1.2-1.7,1.2-2.9h4.4
	c0,2.5-0.8,4.3-2.3,5.6C192.2,73,190.1,73.6,187.3,73.6z"/>
<path class="st0" d="M231.7,82.3h-9.6v21.9h-6.4V82.3h-9.6v-5.4h25.6V82.3z"/>
<path class="st0" d="M249.7,85.9c3.5,0,6.1,0.8,8,2.4c1.8,1.6,2.8,3.8,2.8,6.7c0,3-1,5.3-3.1,7c-2,1.6-4.9,2.4-8.6,2.4l-12.4-0.1
	V76.8h6.4v9L249.7,85.9z M264,76.8h6.4v27.4H264V76.8z M248.2,99.5c1.9,0,3.3-0.4,4.3-1.2c1-0.8,1.5-2,1.5-3.6
	c0-1.5-0.5-2.7-1.4-3.4c-1-0.7-2.4-1.1-4.4-1.1l-5.4-0.1v9.3L248.2,99.5z"/>
<path class="st0" d="M279,76.8h6.4V88h13.8V76.8h6.4v27.4h-6.4V93.4h-13.8v10.8H279V76.8z"/>
<path class="st0" d="M354.3,93.2h-4.6v11h-6.4v-11h-4.6l-6.7,11h-7.6l9-14.1l-8.3-13.2h6.8l6.7,11.1h4.7V76.8h6.4v11.1h4.7l6.7-11.1
	h6.8l-8.3,13.2l9,14.1H361L354.3,93.2z"/>
<path class="st0" d="M383.1,76.5c4,0,7.1,1,9.2,2.9c2.2,1.9,3.2,4.8,3.2,8.7v16h-6v-3.3c-0.8,1.2-1.9,2.1-3.4,2.8
	c-1.4,0.6-3.2,0.9-5.2,0.9c-2,0-3.8-0.3-5.4-1c-1.5-0.7-2.7-1.7-3.6-2.9c-0.8-1.3-1.2-2.7-1.2-4.3c0-2.5,0.9-4.4,2.7-5.9
	c1.8-1.5,4.7-2.3,8.7-2.3h7.1v-0.4c0-1.9-0.6-3.4-1.7-4.4c-1.1-1-2.8-1.5-5.1-1.5c-1.5,0-3.1,0.2-4.6,0.7c-1.5,0.5-2.7,1.1-3.7,2
	l-2.5-4.7c1.4-1.1,3.2-1.9,5.2-2.5C378.7,76.8,380.8,76.5,383.1,76.5z M382.2,99.9c1.6,0,3-0.4,4.3-1.1c1.3-0.8,2.2-1.8,2.7-3.2
	v-3.2h-6.6c-3.7,0-5.5,1.2-5.5,3.6c0,1.2,0.5,2.1,1.4,2.8C379.3,99.6,380.5,99.9,382.2,99.9z"/>
<path class="st0" d="M410.9,82.3v8.2h11v4.2h-11v9.5h-6.4v-9.5h-3.4v-4.2h3.4V76.8h21v5.4H410.9z"/>
<path class="st0" d="M458.1,98.8v11.5h-6v-6.1H431v6.1H425V98.8h1.3c1.7-0.1,2.9-1.2,3.5-3.3c0.6-2.2,1.1-5.3,1.3-9.2l0.4-9.4H454
	v21.9H458.1z M436.9,86.7c-0.1,3.1-0.4,5.7-0.8,7.7c-0.4,2-1.1,3.5-2.1,4.4h13.5V82.3h-10.5L436.9,86.7z"/>
<path class="st0" d="M474,76.5c4,0,7.1,1,9.2,2.9c2.2,1.9,3.2,4.8,3.2,8.7v16h-6v-3.3c-0.8,1.2-1.9,2.1-3.4,2.8
	c-1.4,0.6-3.2,0.9-5.2,0.9c-2,0-3.8-0.3-5.4-1c-1.5-0.7-2.7-1.7-3.6-2.9c-0.8-1.3-1.2-2.7-1.2-4.3c0-2.5,0.9-4.4,2.7-5.9
	c1.8-1.5,4.7-2.3,8.7-2.3h7.1v-0.4c0-1.9-0.6-3.4-1.7-4.4c-1.1-1-2.8-1.5-5.1-1.5c-1.5,0-3.1,0.2-4.6,0.7c-1.5,0.5-2.7,1.1-3.7,2
	l-2.5-4.7c1.4-1.1,3.2-1.9,5.2-2.5C469.6,76.8,471.7,76.5,474,76.5z M473.1,99.9c1.6,0,3-0.4,4.3-1.1c1.3-0.8,2.2-1.8,2.7-3.2v-3.2
	h-6.6c-3.7,0-5.5,1.2-5.5,3.6c0,1.2,0.5,2.1,1.4,2.8C470.2,99.6,471.5,99.9,473.1,99.9z"/>
<path class="st0" d="M494.4,76.8h6.4v18l15.1-18h5.8v27.4h-6.4v-18l-15.1,18h-5.9V76.8z M507.6,73.6c-2.8,0-4.9-0.6-6.4-1.9
	c-1.4-1.3-2.2-3.2-2.2-5.6h4.3c0,1.2,0.4,2.2,1.1,2.9c0.8,0.7,1.8,1.1,3.1,1.1c1.3,0,2.3-0.4,3.1-1.1c0.8-0.7,1.2-1.7,1.2-2.9h4.4
	c0,2.5-0.8,4.3-2.3,5.6C512.5,73,510.4,73.6,507.6,73.6z"/>
<path class="st0" d="M555.1,76.8v27.4h-6.4V82.3h-10.2l-0.3,5.4c-0.2,3.6-0.5,6.7-1,9.1c-0.5,2.4-1.3,4.4-2.5,5.8
	c-1.2,1.4-2.8,2.1-4.8,2.1c-1,0-2.1-0.2-3.5-0.6l0.3-5.4c0.5,0.1,0.9,0.2,1.2,0.2c1.3,0,2.3-0.5,2.9-1.5c0.6-1.1,1.1-2.3,1.2-3.7
	c0.2-1.5,0.4-3.6,0.5-6.3l0.5-10.6H555.1z"/>
<path class="st0" d="M574,76.5c4,0,7.1,1,9.2,2.9c2.2,1.9,3.2,4.8,3.2,8.7v16h-6v-3.3c-0.8,1.2-1.9,2.1-3.4,2.8
	c-1.4,0.6-3.2,0.9-5.2,0.9c-2.1,0-3.8-0.3-5.4-1c-1.5-0.7-2.7-1.7-3.6-2.9c-0.8-1.3-1.2-2.7-1.2-4.3c0-2.5,0.9-4.4,2.7-5.9
	c1.8-1.5,4.7-2.3,8.7-2.3h7.1v-0.4c0-1.9-0.6-3.4-1.7-4.4c-1.1-1-2.8-1.5-5.1-1.5c-1.5,0-3.1,0.2-4.6,0.7c-1.5,0.5-2.7,1.1-3.7,2
	l-2.5-4.7c1.4-1.1,3.2-1.9,5.2-2.5C569.6,76.8,571.7,76.5,574,76.5z M573.1,99.9c1.6,0,3-0.4,4.3-1.1c1.3-0.8,2.2-1.8,2.7-3.2v-3.2
	h-6.6c-3.7,0-5.5,1.2-5.5,3.6c0,1.2,0.5,2.1,1.4,2.8C570.2,99.6,571.4,99.9,573.1,99.9z"/>
<path class="st0" d="M609.5,76.5c2.7,0,5,0.6,7.1,1.7c2.1,1.2,3.8,2.8,5,4.9c1.2,2.1,1.8,4.6,1.8,7.3c0,2.8-0.6,5.2-1.8,7.4
	c-1.2,2.1-2.9,3.8-5,4.9c-2.1,1.2-4.5,1.7-7.1,1.7c-3.7,0-6.6-1.2-8.8-3.7v13.3h-6.4V76.8h6.1v3.6c1.1-1.3,2.4-2.3,3.9-2.9
	C605.9,76.9,607.6,76.5,609.5,76.5z M608.8,99.1c2.4,0,4.3-0.8,5.8-2.4c1.5-1.6,2.3-3.6,2.3-6.2c0-2.6-0.8-4.6-2.3-6.2
	c-1.5-1.6-3.4-2.4-5.8-2.4c-1.5,0-2.9,0.4-4.1,1.1c-1.2,0.7-2.2,1.7-2.9,3c-0.7,1.3-1.1,2.8-1.1,4.5c0,1.7,0.4,3.2,1.1,4.5
	c0.7,1.3,1.7,2.3,2.9,3C605.9,98.7,607.2,99.1,608.8,99.1z"/>
<path class="st0" d="M631.7,85c-1.2,0-2.2-0.4-3-1.2c-0.8-0.8-1.2-1.8-1.2-3.1c0-1.3,0.4-2.3,1.2-3.1c0.8-0.8,1.8-1.2,3-1.2
	s2.2,0.4,3,1.2c0.8,0.8,1.2,1.8,1.2,3.1c0,1.2-0.4,2.3-1.2,3.1C633.9,84.7,632.9,85,631.7,85z M631.7,104.6c-1.2,0-2.2-0.4-3-1.2
	c-0.8-0.8-1.2-1.8-1.2-3.1c0-1.3,0.4-2.3,1.2-3.1c0.8-0.8,1.8-1.2,3-1.2s2.2,0.4,3,1.2c0.8,0.8,1.2,1.8,1.2,3.1
	c0,1.2-0.4,2.3-1.2,3.1C633.9,104.2,632.9,104.6,631.7,104.6z"/>
<path class="st0" d="M13.7,169H8.1v10.8H4.8v-24.4h3.3v10.7h5.6l8.6-10.7h3.6l-9.6,11.8l10.3,12.6h-3.9L13.7,169z M28.8,177.1v8.2
	h-3v-5.4h-3.1v-2.8H28.8z"/>
<path class="st0" d="M40.3,180v8.9H37V180l-10.8-24.5h3.5l9.1,20.8l9.2-20.8h3.2L40.3,180z M29,178.4h19.1v2.4H29V178.4z"/>
<path class="st0" d="M68.8,155.3c2.3,0,4.4,0.5,6.2,1.6c1.9,1,3.3,2.5,4.4,4.4c1.1,1.9,1.6,4,1.6,6.4c0,2.4-0.5,4.6-1.6,6.5
	c-1.1,1.9-2.5,3.4-4.4,4.4c-1.8,1-3.9,1.5-6.2,1.5c-2,0-3.8-0.4-5.4-1.2c-1.6-0.8-2.9-2-3.9-3.6v13.6h-3.3v-33.4h3.2v4.8
	c1-1.6,2.3-2.8,3.9-3.7C64.9,155.7,66.8,155.3,68.8,155.3z M68.6,177.2c1.7,0,3.2-0.4,4.6-1.2c1.4-0.8,2.5-1.9,3.2-3.4
	c0.8-1.5,1.2-3.1,1.2-5c0-1.9-0.4-3.5-1.2-4.9c-0.8-1.5-1.9-2.6-3.2-3.4c-1.4-0.8-2.9-1.2-4.6-1.2c-1.7,0-3.3,0.4-4.7,1.2
	c-1.4,0.8-2.4,1.9-3.2,3.4c-0.8,1.4-1.2,3.1-1.2,4.9c0,1.9,0.4,3.5,1.2,5c0.8,1.5,1.9,2.6,3.2,3.4C65.3,176.8,66.8,177.2,68.6,177.2
	z"/>
<path class="st0" d="M96.3,155.3c3.2,0,5.6,0.8,7.3,2.4c1.7,1.6,2.6,3.9,2.6,7v15.1H103v-3.8c-0.7,1.3-1.8,2.3-3.3,3
	c-1.4,0.7-3.1,1.1-5.1,1.1c-2.7,0-4.9-0.6-6.5-1.9s-2.4-3-2.4-5.1c0-2.1,0.7-3.7,2.2-5c1.5-1.3,3.9-1.9,7.2-1.9h7.7v-1.5
	c0-2.1-0.6-3.7-1.8-4.8c-1.2-1.1-2.9-1.7-5.1-1.7c-1.5,0-3,0.3-4.5,0.8c-1.4,0.5-2.6,1.2-3.7,2.1l-1.5-2.5c1.2-1.1,2.7-1.9,4.5-2.4
	C92.5,155.6,94.4,155.3,96.3,155.3z M95.1,177.5c1.9,0,3.4-0.4,4.8-1.3c1.3-0.9,2.3-2.1,3-3.7v-4h-7.6c-4.2,0-6.3,1.5-6.3,4.4
	c0,1.4,0.5,2.6,1.6,3.4C91.7,177.1,93.2,177.5,95.1,177.5z"/>
<path class="st0" d="M142.2,155.5v24.4h-3v-19.3l-9.9,16.3h-1.5l-9.9-16.4v19.3h-3v-24.4h3.3l10.3,17.6l10.5-17.6H142.2z"/>
<path class="st0" d="M175.3,177v8.8h-3.1v-5.9h-21.8v5.9h-3.1V177h1.4c1.6-0.1,2.8-1.3,3.3-3.6c0.6-2.3,1-5.6,1.2-9.7l0.3-8.2h18
	V177H175.3z M156.2,163.8c-0.2,3.5-0.4,6.3-0.9,8.6c-0.4,2.2-1.2,3.8-2.3,4.6h15.2v-18.6h-11.7L156.2,163.8z"/>
<path class="st0" d="M190.1,155.3c3.2,0,5.6,0.8,7.3,2.4c1.7,1.6,2.6,3.9,2.6,7v15.1h-3.2v-3.8c-0.7,1.3-1.8,2.3-3.3,3
	c-1.4,0.7-3.1,1.1-5.1,1.1c-2.7,0-4.9-0.6-6.5-1.9c-1.6-1.3-2.4-3-2.4-5.1c0-2.1,0.7-3.7,2.2-5c1.5-1.3,3.9-1.9,7.2-1.9h7.7v-1.5
	c0-2.1-0.6-3.7-1.8-4.8c-1.2-1.1-2.9-1.7-5.1-1.7c-1.5,0-3,0.3-4.4,0.8c-1.4,0.5-2.6,1.2-3.7,2.1l-1.5-2.5c1.2-1.1,2.7-1.9,4.4-2.4
	C186.4,155.6,188.2,155.3,190.1,155.3z M189,177.5c1.9,0,3.4-0.4,4.8-1.3c1.3-0.9,2.3-2.1,3-3.7v-4h-7.6c-4.2,0-6.3,1.5-6.3,4.4
	c0,1.4,0.5,2.6,1.6,3.4C185.5,177.1,187,177.5,189,177.5z"/>
<path class="st0" d="M219,180.1c-2.4,0-4.6-0.5-6.5-1.6c-1.9-1.1-3.4-2.5-4.5-4.4c-1.1-1.9-1.6-4.1-1.6-6.4s0.5-4.5,1.6-6.4
	c1.1-1.9,2.6-3.4,4.5-4.4c1.9-1.1,4.1-1.6,6.5-1.6c2.1,0,4,0.4,5.6,1.3c1.7,0.8,3,2,3.9,3.6l-2.5,1.7c-0.8-1.2-1.8-2.1-3.1-2.7
	c-1.2-0.6-2.6-0.9-4-0.9c-1.8,0-3.4,0.4-4.8,1.2c-1.4,0.8-2.5,1.9-3.3,3.3c-0.8,1.5-1.2,3.1-1.2,5c0,1.9,0.4,3.6,1.2,5
	c0.8,1.4,1.9,2.5,3.3,3.3c1.4,0.8,3,1.2,4.8,1.2c1.5,0,2.8-0.3,4-0.9c1.2-0.6,2.3-1.5,3.1-2.7l2.5,1.7c-1,1.6-2.3,2.8-3.9,3.6
	C222.9,179.7,221,180.1,219,180.1z"/>
<path class="st0" d="M258.8,156.1c2.3,0,4.3,0.5,6,1.5c1.8,1,3.2,2.4,4.2,4.2c1,1.8,1.5,3.8,1.5,6.2c0,2.4-0.5,4.5-1.6,6.4
	c-1,1.8-2.5,3.2-4.3,4.3c-1.9,1-4,1.5-6.4,1.5c-4,0-7.2-1.4-9.4-4.3c-2.2-2.8-3.3-6.8-3.3-11.8c0-5.2,1-9.2,3-12
	c2-2.8,5.1-4.7,9.4-5.7l10.9-2.5l0.6,3l-10.3,2.4c-3.5,0.8-6.1,2.1-7.7,4.1c-1.6,1.9-2.5,4.8-2.7,8.7c1-1.9,2.4-3.4,4.1-4.4
	C254.5,156.6,256.6,156.1,258.8,156.1z M258.3,177.4c1.7,0,3.2-0.4,4.5-1.2c1.4-0.8,2.4-1.9,3.2-3.3c0.8-1.4,1.2-3,1.2-4.8
	c0-1.8-0.4-3.4-1.1-4.7c-0.7-1.4-1.8-2.4-3.2-3.2c-1.3-0.8-2.9-1.2-4.6-1.2c-1.7,0-3.3,0.4-4.6,1.2c-1.3,0.7-2.4,1.8-3.2,3.2
	c-0.7,1.4-1.1,2.9-1.1,4.7c0,1.8,0.4,3.4,1.1,4.8c0.8,1.4,1.8,2.5,3.2,3.3C255.1,177,256.6,177.4,258.3,177.4z"/>
<path class="st0" d="M287.9,155.3c2.4,0,4.6,0.5,6.5,1.6c1.9,1.1,3.4,2.5,4.5,4.4c1.1,1.9,1.7,4,1.7,6.4s-0.6,4.5-1.7,6.4
	c-1.1,1.9-2.6,3.4-4.5,4.5c-1.9,1.1-4.1,1.6-6.5,1.6s-4.6-0.5-6.5-1.6c-1.9-1.1-3.4-2.6-4.5-4.5c-1.1-1.9-1.6-4-1.6-6.4
	s0.5-4.5,1.6-6.4c1.1-1.9,2.6-3.4,4.5-4.4C283.3,155.8,285.5,155.3,287.9,155.3z M287.9,158c-2.6,0-4.7,0.8-6.5,2.4
	c-1.7,1.5-2.7,3.6-3,6.2h18.9c-0.3-2.6-1.3-4.6-3-6.2C292.6,158.7,290.4,158,287.9,158z M287.9,177.4c2.6,0,4.7-0.8,6.4-2.4
	c1.8-1.6,2.8-3.6,3-6.2h-18.9c0.2,2.6,1.2,4.6,3,6.2C283.1,176.6,285.3,177.4,287.9,177.4z"/>
<path class="st0" d="M327.4,155.5v24.4h-3.3v-21.5h-11.7l-0.3,6c-0.2,5.1-0.8,9-1.8,11.7s-2.6,4.1-5,4.1c-0.6,0-1.4-0.1-2.4-0.4
	l0.2-2.8c0.6,0.1,0.9,0.2,1.2,0.2c1.3,0,2.2-0.6,2.9-1.8c0.6-1.2,1.1-2.6,1.3-4.4c0.2-1.7,0.4-4,0.6-6.9l0.4-8.7H327.4z"/>
<path class="st0" d="M336.7,155.5h3.3v24.4h-3.3V155.5z M338.4,150.2c-0.7,0-1.3-0.2-1.7-0.7c-0.5-0.5-0.7-1-0.7-1.7
	c0-0.6,0.2-1.2,0.7-1.6c0.5-0.5,1-0.7,1.7-0.7c0.7,0,1.3,0.2,1.7,0.7c0.5,0.4,0.7,1,0.7,1.6c0,0.7-0.2,1.3-0.7,1.7
	C339.6,149.9,339.1,150.2,338.4,150.2z"/>
<path class="st0" d="M358.2,169h-5.6v10.8h-3.3v-24.4h3.3v10.7h5.6l8.6-10.7h3.6l-9.6,11.8l10.3,12.6h-3.9L358.2,169z"/>
<path class="st0" d="M393,158.4h-9.2v21.5h-3.3v-21.5h-9.2v-2.9H393V158.4z"/>
<path class="st0" d="M417.9,168.7h-20.4c0.2,2.5,1.2,4.6,2.9,6.2c1.8,1.5,4,2.3,6.7,2.3c1.5,0,2.9-0.3,4.2-0.8
	c1.3-0.6,2.4-1.4,3.3-2.4l1.9,2.1c-1.1,1.3-2.4,2.3-4.1,3c-1.6,0.7-3.4,1-5.3,1c-2.5,0-4.7-0.5-6.7-1.6c-1.9-1.1-3.4-2.6-4.5-4.5
	c-1.1-1.9-1.6-4-1.6-6.4s0.5-4.5,1.5-6.4c1.1-1.9,2.5-3.4,4.3-4.4c1.8-1.1,3.9-1.6,6.1-1.6c2.3,0,4.3,0.5,6.1,1.6
	c1.8,1.1,3.2,2.5,4.2,4.4c1,1.9,1.5,4,1.5,6.4L417.9,168.7z M406.2,158.1c-2.3,0-4.3,0.8-5.9,2.3c-1.6,1.5-2.5,3.4-2.7,5.8h17.3
	c-0.2-2.4-1.1-4.4-2.7-5.8C410.5,158.9,408.5,158.1,406.2,158.1z"/>
<path class="st0" d="M437.8,155.3c2.3,0,4.4,0.5,6.2,1.6c1.9,1,3.3,2.5,4.4,4.4c1.1,1.9,1.6,4,1.6,6.4c0,2.4-0.5,4.6-1.6,6.5
	c-1.1,1.9-2.5,3.4-4.4,4.4c-1.8,1-3.9,1.5-6.2,1.5c-2,0-3.8-0.4-5.4-1.2c-1.6-0.8-2.9-2-3.9-3.6v13.6h-3.3v-33.4h3.2v4.8
	c1-1.6,2.3-2.8,3.9-3.7C434,155.7,435.8,155.3,437.8,155.3z M437.6,177.2c1.7,0,3.2-0.4,4.6-1.2c1.4-0.8,2.5-1.9,3.2-3.4
	c0.8-1.5,1.2-3.1,1.2-5c0-1.9-0.4-3.5-1.2-4.9c-0.8-1.5-1.9-2.6-3.2-3.4c-1.4-0.8-2.9-1.2-4.6-1.2c-1.7,0-3.3,0.4-4.7,1.2
	c-1.4,0.8-2.4,1.9-3.2,3.4c-0.8,1.4-1.2,3.1-1.2,4.9c0,1.9,0.4,3.5,1.2,5c0.8,1.5,1.9,2.6,3.2,3.4
	C434.3,176.8,435.9,177.2,437.6,177.2z"/>
<path class="st0" d="M457.1,155.5h3.3v24.4h-3.3V155.5z M458.7,150.2c-0.7,0-1.3-0.2-1.7-0.7c-0.5-0.5-0.7-1-0.7-1.7
	c0-0.6,0.2-1.2,0.7-1.6c0.5-0.5,1-0.7,1.7-0.7c0.7,0,1.3,0.2,1.7,0.7c0.5,0.4,0.7,1,0.7,1.6c0,0.7-0.2,1.3-0.7,1.7
	C460,149.9,459.4,150.2,458.7,150.2z"/>
<path class="st0" d="M469.7,155.5h3.3v10.8h15.3v-10.8h3.3v24.4h-3.3v-10.8H473v10.8h-3.3V155.5z"/>
<path class="st0" d="M501,155.5h3.3v24.4H501V155.5z M502.7,150.2c-0.7,0-1.3-0.2-1.7-0.7c-0.5-0.5-0.7-1-0.7-1.7
	c0-0.6,0.2-1.2,0.7-1.6c0.5-0.5,1-0.7,1.7-0.7c0.7,0,1.3,0.2,1.7,0.7c0.5,0.4,0.7,1,0.7,1.6c0,0.7-0.2,1.3-0.7,1.7
	C503.9,149.9,503.4,150.2,502.7,150.2z"/>
<path class="st0" d="M513.7,155.5h3.3v10.8h15.3v-10.8h3.3v24.4h-3.3v-10.8H517v10.8h-3.3V155.5z M539.6,177v8.2h-3.1v-5.3h-4.1V177
	H539.6z"/>
<path class="st0" d="M579.4,169h-5.3v10.8h-3.3V169h-5.3l-7.5,10.8h-3.9l8.8-12.6l-8.1-11.8h3.6l7.1,10.7h5.3v-10.7h3.3v10.7h5.3
	l7.2-10.7h3.6l-8.1,11.9l8.8,12.5h-3.9L579.4,169z"/>
<path class="st0" d="M616.8,168.7h-20.4c0.2,2.5,1.2,4.6,2.9,6.2c1.8,1.5,4,2.3,6.7,2.3c1.5,0,2.9-0.3,4.2-0.8
	c1.3-0.6,2.4-1.4,3.3-2.4l1.9,2.1c-1.1,1.3-2.4,2.3-4.1,3c-1.6,0.7-3.4,1-5.3,1c-2.5,0-4.7-0.5-6.7-1.6c-1.9-1.1-3.4-2.6-4.5-4.5
	c-1.1-1.9-1.6-4-1.6-6.4s0.5-4.5,1.5-6.4c1.1-1.9,2.5-3.4,4.3-4.4c1.8-1.1,3.9-1.6,6.1-1.6c2.3,0,4.3,0.5,6.1,1.6
	c1.8,1.1,3.2,2.5,4.2,4.4c1,1.9,1.5,4,1.5,6.4L616.8,168.7z M605,158.1c-2.3,0-4.3,0.8-5.9,2.3c-1.6,1.5-2.5,3.4-2.7,5.8h17.3
	c-0.2-2.4-1.1-4.4-2.7-5.8C609.4,158.9,607.4,158.1,605,158.1z"/>
<path class="st0" d="M633,169h-5.6v10.8h-3.3v-24.4h3.3v10.7h5.6l8.6-10.7h3.6l-9.6,11.8l10.3,12.6H642L633,169z"/>
<path class="st0" d="M671.5,168.7h-20.4c0.2,2.5,1.2,4.6,2.9,6.2c1.8,1.5,4,2.3,6.7,2.3c1.5,0,2.9-0.3,4.2-0.8
	c1.3-0.6,2.4-1.4,3.3-2.4l1.9,2.1c-1.1,1.3-2.4,2.3-4.1,3c-1.6,0.7-3.4,1-5.3,1c-2.5,0-4.7-0.5-6.7-1.6c-1.9-1.1-3.4-2.6-4.5-4.5
	c-1.1-1.9-1.6-4-1.6-6.4s0.5-4.5,1.5-6.4c1.1-1.9,2.5-3.4,4.3-4.4c1.8-1.1,3.9-1.6,6.1-1.6s4.3,0.5,6.1,1.6c1.8,1.1,3.2,2.5,4.2,4.4
	c1,1.9,1.5,4,1.5,6.4L671.5,168.7z M659.8,158.1c-2.3,0-4.3,0.8-5.9,2.3c-1.6,1.5-2.5,3.4-2.7,5.8h17.3c-0.2-2.4-1.1-4.4-2.7-5.8
	C664.1,158.9,662.1,158.1,659.8,158.1z"/>
<path class="st0" d="M13.2,214.3c3.2,0,5.6,0.8,7.3,2.4c1.7,1.6,2.5,3.9,2.5,7v15.1h-3.2v-3.8c-0.7,1.3-1.8,2.3-3.3,3
	c-1.4,0.7-3.1,1.1-5.1,1.1c-2.7,0-4.9-0.6-6.5-1.9s-2.4-3-2.4-5.1c0-2.1,0.7-3.7,2.2-5c1.5-1.3,3.9-1.9,7.2-1.9h7.7v-1.5
	c0-2.1-0.6-3.7-1.8-4.8c-1.2-1.1-2.9-1.7-5.1-1.7c-1.5,0-3,0.3-4.5,0.8c-1.4,0.5-2.6,1.2-3.7,2.1l-1.5-2.5c1.2-1.1,2.7-1.9,4.5-2.4
	C9.5,214.6,11.3,214.3,13.2,214.3z M12,236.5c1.9,0,3.4-0.4,4.8-1.3c1.3-0.9,2.3-2.1,3-3.7v-4h-7.6c-4.2,0-6.3,1.5-6.3,4.4
	c0,1.4,0.5,2.6,1.6,3.4C8.6,236.1,10.1,236.5,12,236.5z"/>
<path class="st0" d="M55.6,236v8.8h-3.1v-5.9H30.7v5.9h-3.1V236H29c1.6-0.1,2.8-1.3,3.3-3.6c0.6-2.3,1-5.6,1.2-9.7l0.3-8.2h18V236
	H55.6z M36.5,222.9c-0.2,3.5-0.4,6.3-0.9,8.6c-0.4,2.2-1.2,3.8-2.3,4.6h15.2v-18.6H36.8L36.5,222.9z"/>
<path class="st0" d="M70.4,214.3c3.2,0,5.6,0.8,7.3,2.4c1.7,1.6,2.5,3.9,2.5,7v15.1h-3.2v-3.8c-0.7,1.3-1.8,2.3-3.3,3
	c-1.4,0.7-3.1,1.1-5.1,1.1c-2.7,0-4.9-0.6-6.5-1.9c-1.6-1.3-2.4-3-2.4-5.1c0-2.1,0.7-3.7,2.2-5c1.5-1.3,3.9-1.9,7.2-1.9H77v-1.5
	c0-2.1-0.6-3.7-1.8-4.8c-1.2-1.1-2.9-1.7-5.1-1.7c-1.5,0-3,0.3-4.5,0.8c-1.4,0.5-2.6,1.2-3.7,2.1l-1.5-2.5c1.2-1.1,2.7-1.9,4.5-2.4
	C66.7,214.6,68.5,214.3,70.4,214.3z M69.3,236.5c1.9,0,3.4-0.4,4.8-1.3c1.3-0.9,2.3-2.1,3-3.7v-4h-7.6c-4.2,0-6.3,1.5-6.3,4.4
	c0,1.4,0.5,2.6,1.6,3.4C65.8,236.1,67.3,236.5,69.3,236.5z"/>
<path class="st0" d="M116.3,214.5v24.4h-3v-19.3l-9.9,16.3h-1.5l-9.9-16.4v19.3h-3v-24.4h3.3l10.3,17.6l10.5-17.6H116.3z"/>
<path class="st0" d="M149.5,236v8.8h-3.1v-5.9h-21.8v5.9h-3.1V236h1.4c1.6-0.1,2.8-1.3,3.3-3.6c0.6-2.3,1-5.6,1.2-9.7l0.3-8.2h18
	V236H149.5z M130.4,222.9c-0.2,3.5-0.4,6.3-0.9,8.6c-0.4,2.2-1.2,3.8-2.3,4.6h15.2v-18.6h-11.7L130.4,222.9z"/>
<path class="st0" d="M164.3,214.3c3.2,0,5.6,0.8,7.3,2.4c1.7,1.6,2.6,3.9,2.6,7v15.1H171v-3.8c-0.7,1.3-1.8,2.3-3.3,3
	c-1.4,0.7-3.1,1.1-5.1,1.1c-2.7,0-4.9-0.6-6.5-1.9c-1.6-1.3-2.4-3-2.4-5.1c0-2.1,0.7-3.7,2.2-5c1.5-1.3,3.9-1.9,7.2-1.9h7.7v-1.5
	c0-2.1-0.6-3.7-1.8-4.8c-1.2-1.1-2.9-1.7-5.1-1.7c-1.5,0-3,0.3-4.4,0.8c-1.4,0.5-2.6,1.2-3.7,2.1l-1.5-2.5c1.2-1.1,2.7-1.9,4.4-2.4
	C160.5,214.6,162.4,214.3,164.3,214.3z M163.1,236.5c1.9,0,3.4-0.4,4.8-1.3c1.3-0.9,2.3-2.1,3-3.7v-4h-7.6c-4.2,0-6.3,1.5-6.3,4.4
	c0,1.4,0.5,2.6,1.6,3.4C159.7,236.1,161.2,236.5,163.1,236.5z"/>
<path class="st0" d="M195.5,214.3c2.3,0,4.4,0.5,6.2,1.6c1.9,1,3.3,2.5,4.4,4.4c1.1,1.9,1.6,4,1.6,6.4c0,2.4-0.5,4.6-1.6,6.5
	c-1.1,1.9-2.5,3.4-4.4,4.4c-1.8,1-3.9,1.5-6.2,1.5c-2,0-3.8-0.4-5.4-1.2c-1.6-0.8-2.9-2-3.9-3.6v13.6h-3.3v-33.4h3.2v4.8
	c1-1.6,2.3-2.8,3.9-3.7C191.6,214.8,193.4,214.3,195.5,214.3z M195.2,236.2c1.7,0,3.2-0.4,4.6-1.2c1.4-0.8,2.5-1.9,3.2-3.4
	c0.8-1.5,1.2-3.1,1.2-5c0-1.9-0.4-3.5-1.2-4.9c-0.8-1.5-1.9-2.6-3.2-3.4c-1.4-0.8-2.9-1.2-4.6-1.2c-1.7,0-3.3,0.4-4.7,1.2
	c-1.4,0.8-2.4,1.9-3.2,3.4c-0.8,1.4-1.2,3.1-1.2,4.9c0,1.9,0.4,3.5,1.2,5c0.8,1.5,1.9,2.6,3.2,3.4
	C192,235.8,193.5,236.2,195.2,236.2z"/>
<path class="st0" d="M218.7,217.4v9.5h10.7v2.4h-10.7v9.6h-3.3v-9.6h-3.2v-2.4h3.2v-12.4h17.2v2.9H218.7z"/>
<path class="st0" d="M246.4,214.3c3.2,0,5.6,0.8,7.3,2.4c1.7,1.6,2.5,3.9,2.5,7v15.1h-3.2v-3.8c-0.7,1.3-1.8,2.3-3.3,3
	c-1.4,0.7-3.1,1.1-5.1,1.1c-2.7,0-4.9-0.6-6.5-1.9c-1.6-1.3-2.4-3-2.4-5.1c0-2.1,0.7-3.7,2.2-5c1.5-1.3,3.9-1.9,7.2-1.9h7.7v-1.5
	c0-2.1-0.6-3.7-1.8-4.8c-1.2-1.1-2.9-1.7-5.1-1.7c-1.5,0-3,0.3-4.5,0.8c-1.4,0.5-2.6,1.2-3.7,2.1l-1.5-2.5c1.2-1.1,2.7-1.9,4.5-2.4
	C242.6,214.6,244.4,214.3,246.4,214.3z M245.2,236.5c1.9,0,3.4-0.4,4.8-1.3c1.3-0.9,2.3-2.1,3-3.7v-4h-7.6c-4.2,0-6.3,1.5-6.3,4.4
	c0,1.4,0.5,2.6,1.6,3.4C241.7,236.1,243.3,236.5,245.2,236.5z"/>
<path class="st0" d="M298.5,228.1h-5.3v10.8h-3.3v-10.8h-5.3l-7.5,10.8h-3.9l8.8-12.6l-8.1-11.8h3.6l7.1,10.7h5.3v-10.7h3.3v10.7
	h5.3l7.2-10.7h3.6l-8.1,11.9l8.8,12.5H306L298.5,228.1z"/>
<path class="st0" d="M323.4,214.3c3.2,0,5.6,0.8,7.3,2.4c1.7,1.6,2.5,3.9,2.5,7v15.1h-3.2v-3.8c-0.7,1.3-1.8,2.3-3.3,3
	c-1.4,0.7-3.1,1.1-5.1,1.1c-2.7,0-4.9-0.6-6.5-1.9c-1.6-1.3-2.4-3-2.4-5.1c0-2.1,0.7-3.7,2.2-5c1.5-1.3,3.9-1.9,7.2-1.9h7.7v-1.5
	c0-2.1-0.6-3.7-1.8-4.8c-1.2-1.1-2.9-1.7-5.1-1.7c-1.5,0-3,0.3-4.5,0.8c-1.4,0.5-2.6,1.2-3.7,2.1l-1.5-2.5c1.2-1.1,2.7-1.9,4.5-2.4
	C319.6,214.6,321.5,214.3,323.4,214.3z M322.2,236.5c1.9,0,3.4-0.4,4.8-1.3c1.3-0.9,2.3-2.1,3-3.7v-4h-7.7c-4.2,0-6.3,1.5-6.3,4.4
	c0,1.4,0.5,2.6,1.6,3.4C318.8,236.1,320.3,236.5,322.2,236.5z"/>
<path class="st0" d="M350.9,228.1h-5.6v10.8H342v-24.4h3.3v10.7h5.6l8.6-10.7h3.6l-9.6,11.8l10.3,12.6h-3.9L350.9,228.1z M366,236.1
	v8.2h-3v-5.4h-3.1v-2.8H366z"/>
<path class="st0" d="M390.8,214.5v24.4h-3.3v-21.5h-15.3v21.5H369v-24.4H390.8z"/>
<path class="st0" d="M408.6,214.3c3.2,0,5.6,0.8,7.3,2.4c1.7,1.6,2.6,3.9,2.6,7v15.1h-3.2v-3.8c-0.7,1.3-1.8,2.3-3.3,3
	c-1.4,0.7-3.1,1.1-5.1,1.1c-2.7,0-4.9-0.6-6.5-1.9s-2.4-3-2.4-5.1c0-2.1,0.7-3.7,2.2-5c1.5-1.3,3.9-1.9,7.2-1.9h7.7v-1.5
	c0-2.1-0.6-3.7-1.8-4.8c-1.2-1.1-2.9-1.7-5.1-1.7c-1.5,0-3,0.3-4.5,0.8c-1.4,0.5-2.6,1.2-3.7,2.1l-1.5-2.5c1.2-1.1,2.7-1.9,4.5-2.4
	C404.8,214.6,406.7,214.3,408.6,214.3z M407.4,236.5c1.9,0,3.4-0.4,4.8-1.3c1.3-0.9,2.3-2.1,3-3.7v-4h-7.6c-4.2,0-6.3,1.5-6.3,4.4
	c0,1.4,0.5,2.6,1.6,3.4C404,236.1,405.5,236.5,407.4,236.5z"/>
<path class="st0" d="M447.9,214.5l-12.2,27.3c-1,2.3-2.1,3.9-3.4,4.9c-1.3,1-2.9,1.4-4.7,1.4c-1.2,0-2.3-0.2-3.3-0.6
	c-1-0.4-1.9-0.9-2.6-1.7l1.5-2.5c1.2,1.2,2.7,1.9,4.5,1.9c1.1,0,2.1-0.3,2.8-0.9c0.8-0.6,1.5-1.7,2.2-3.2l1.1-2.4l-10.9-24.3h3.4
	l9.2,20.7l9.2-20.7H447.9z"/>
<path class="st0" d="M463.3,223.1c3.1,0,5.4,0.7,7,2c1.6,1.3,2.4,3.2,2.4,5.7c0,2.6-0.9,4.6-2.6,6c-1.7,1.4-4.2,2.1-7.4,2l-9.6,0
	v-24.4h3.3v8.5L463.3,223.1z M476.8,214.5h3.3v24.4h-3.3V214.5z M462.5,236.4c2.3,0,4-0.4,5.1-1.3c1.2-1,1.8-2.3,1.8-4.2
	c0-1.8-0.6-3.1-1.7-4c-1.1-0.9-2.9-1.3-5.1-1.3l-6.2-0.1v10.8L462.5,236.4z"/>
<path class="st0" d="M489.8,234.1c0.7,0,1.3,0.2,1.8,0.7c0.5,0.5,0.7,1.1,0.7,1.8c0,0.4-0.1,0.8-0.2,1.2c-0.1,0.4-0.2,0.9-0.5,1.5
	l-1.9,6.4h-2.2l1.6-6.7c-0.5-0.2-0.9-0.4-1.2-0.8c-0.3-0.4-0.5-0.9-0.5-1.5c0-0.7,0.2-1.3,0.7-1.8
	C488.5,234.3,489,234.1,489.8,234.1z"/>
<path class="st0" d="M532.8,228.1h-5.3v10.8h-3.3v-10.8h-5.3l-7.5,10.8h-3.9l8.8-12.6l-8.1-11.8h3.6l7.1,10.7h5.3v-10.7h3.3v10.7
	h5.3l7.2-10.7h3.6l-8.1,11.9l8.8,12.5h-3.9L532.8,228.1z"/>
<path class="st0" d="M558.3,239v8.9H555V239l-10.8-24.5h3.5l9.1,20.8l9.2-20.8h3.2L558.3,239z"/>
<path class="st0" d="M583.1,228.1h-5.6v10.8h-3.3v-24.4h3.3v10.7h5.6l8.6-10.7h3.6l-9.6,11.8l10.3,12.6h-3.9L583.1,228.1z"/>
<path class="st0" d="M617.8,217.4h-9.2v21.5h-3.3v-21.5h-9.2v-2.9h21.7V217.4z"/>
<path class="st0" d="M622.6,214.5h3.3v24.4h-3.3V214.5z M624.3,209.2c-0.7,0-1.3-0.2-1.7-0.7c-0.5-0.5-0.7-1-0.7-1.7
	c0-0.6,0.2-1.2,0.7-1.6c0.5-0.5,1-0.7,1.7-0.7c0.7,0,1.3,0.2,1.7,0.7c0.5,0.4,0.7,1,0.7,1.6c0,0.7-0.2,1.3-0.7,1.7
	C625.5,208.9,624.9,209.2,624.3,209.2z"/>
<path class="st0" d="M655.2,214.5v24.4h-3.3v-21.5h-11.7l-0.3,6c-0.2,5.1-0.8,9-1.8,11.7c-0.9,2.7-2.6,4.1-5,4.1
	c-0.6,0-1.4-0.1-2.4-0.4l0.2-2.8c0.6,0.1,0.9,0.2,1.2,0.2c1.3,0,2.2-0.6,2.9-1.8c0.7-1.2,1.1-2.6,1.3-4.4c0.2-1.7,0.4-4,0.6-6.9
	l0.4-8.7H655.2z"/>
<path class="st0" d="M664.6,214.5h3.3v24.4h-3.3V214.5z M666.2,209.2c-0.7,0-1.3-0.2-1.7-0.7c-0.5-0.5-0.7-1-0.7-1.7
	c0-0.6,0.2-1.2,0.7-1.6c0.5-0.5,1-0.7,1.7-0.7s1.3,0.2,1.7,0.7c0.5,0.4,0.7,1,0.7,1.6c0,0.7-0.2,1.3-0.7,1.7
	C667.5,208.9,666.9,209.2,666.2,209.2z"/>
<path class="st0" d="M686.1,228.1h-5.6v10.8h-3.3v-24.4h3.3v10.7h5.6l8.6-10.7h3.6l-9.6,11.8l10.3,12.6h-3.9L686.1,228.1z"/>
<path class="st0" d="M704.4,234.1c0.7,0,1.3,0.2,1.8,0.7c0.5,0.5,0.7,1.1,0.7,1.8c0,0.4-0.1,0.8-0.2,1.2c-0.1,0.4-0.2,0.9-0.5,1.5
	l-1.9,6.4h-2.2l1.6-6.7c-0.5-0.2-0.9-0.4-1.2-0.8c-0.3-0.4-0.5-0.9-0.5-1.5c0-0.7,0.2-1.3,0.7-1.8
	C703.1,234.3,703.7,234.1,704.4,234.1z"/>
<path class="st0" d="M26.1,286.7H5.7c0.2,2.5,1.2,4.6,2.9,6.2c1.8,1.5,4,2.3,6.7,2.3c1.5,0,2.9-0.3,4.2-0.8c1.3-0.6,2.4-1.4,3.3-2.4
	l1.9,2.1c-1.1,1.3-2.4,2.3-4.1,3c-1.6,0.7-3.4,1-5.3,1c-2.5,0-4.7-0.5-6.7-1.6c-1.9-1.1-3.4-2.6-4.5-4.5c-1.1-1.9-1.6-4-1.6-6.4
	c0-2.4,0.5-4.5,1.5-6.4c1.1-1.9,2.5-3.4,4.3-4.4c1.8-1.1,3.9-1.6,6.1-1.6c2.3,0,4.3,0.5,6.1,1.6c1.8,1.1,3.2,2.5,4.2,4.4
	c1,1.9,1.5,4,1.5,6.4L26.1,286.7z M14.4,276.2c-2.3,0-4.3,0.8-5.9,2.3c-1.6,1.5-2.5,3.4-2.7,5.8H23c-0.2-2.4-1.1-4.4-2.7-5.8
	C18.7,276.9,16.7,276.2,14.4,276.2z"/>
<path class="st0" d="M60.7,273.5v24.4h-3v-19.3l-9.9,16.3h-1.5l-9.9-16.4v19.3h-3v-24.4h3.3l10.3,17.6l10.5-17.6H60.7z"/>
<path class="st0" d="M103.8,273.5v24.4H70.1v-24.4h3.3V295h12v-21.5h3.3V295h11.8v-21.5H103.8z"/>
<path class="st0" d="M134.5,286.7h-20.4c0.2,2.5,1.2,4.6,2.9,6.2c1.8,1.5,4,2.3,6.7,2.3c1.5,0,2.9-0.3,4.2-0.8
	c1.3-0.6,2.4-1.4,3.3-2.4l1.9,2.1c-1.1,1.3-2.4,2.3-4.1,3c-1.6,0.7-3.4,1-5.3,1c-2.5,0-4.7-0.5-6.7-1.6c-1.9-1.1-3.4-2.6-4.5-4.5
	c-1.1-1.9-1.6-4-1.6-6.4c0-2.4,0.5-4.5,1.5-6.4c1.1-1.9,2.5-3.4,4.3-4.4c1.8-1.1,3.9-1.6,6.1-1.6c2.3,0,4.3,0.5,6.1,1.6
	c1.8,1.1,3.2,2.5,4.2,4.4c1,1.9,1.5,4,1.5,6.4L134.5,286.7z M122.7,276.2c-2.3,0-4.3,0.8-5.9,2.3c-1.6,1.5-2.5,3.4-2.7,5.8h17.3
	c-0.2-2.4-1.1-4.4-2.7-5.8C127.1,276.9,125.1,276.2,122.7,276.2z"/>
<path class="st0" d="M150.7,287.1h-5.6v10.8h-3.3v-24.4h3.3v10.7h5.6l8.6-10.7h3.6l-9.6,11.8l10.3,12.6h-3.9L150.7,287.1z"/>
<path class="st0" d="M202.2,286.7h-20.4c0.2,2.5,1.2,4.6,2.9,6.2c1.8,1.5,4,2.3,6.7,2.3c1.5,0,2.9-0.3,4.2-0.8
	c1.3-0.6,2.4-1.4,3.3-2.4l1.9,2.1c-1.1,1.3-2.4,2.3-4.1,3c-1.6,0.7-3.4,1-5.3,1c-2.5,0-4.7-0.5-6.7-1.6c-1.9-1.1-3.4-2.6-4.5-4.5
	c-1.1-1.9-1.6-4-1.6-6.4c0-2.4,0.5-4.5,1.5-6.4c1.1-1.9,2.5-3.4,4.3-4.4c1.8-1.1,3.9-1.6,6.1-1.6c2.3,0,4.3,0.5,6.1,1.6
	s3.2,2.5,4.2,4.4c1,1.9,1.5,4,1.5,6.4L202.2,286.7z M190.4,276.2c-2.3,0-4.3,0.8-5.9,2.3c-1.6,1.5-2.5,3.4-2.7,5.8h17.3
	c-0.2-2.4-1.1-4.4-2.7-5.8C194.8,276.9,192.8,276.2,190.4,276.2z"/>
<path class="st0" d="M236.8,273.5v24.4h-3v-19.3l-9.9,16.3h-1.5l-9.9-16.4v19.3h-3v-24.4h3.3l10.3,17.6l10.5-17.6H236.8z"/>
<path class="st0" d="M246.2,273.5h3.3v24.4h-3.3V273.5z M247.8,268.2c-0.7,0-1.3-0.2-1.7-0.7c-0.5-0.5-0.7-1-0.7-1.7
	c0-0.6,0.2-1.2,0.7-1.6c0.5-0.5,1-0.7,1.7-0.7c0.7,0,1.3,0.2,1.7,0.7c0.5,0.4,0.7,1,0.7,1.6c0,0.7-0.2,1.3-0.7,1.7
	C249.1,268,248.5,268.2,247.8,268.2z"/>
<path class="st0" d="M270.2,285.2c1.7,0.4,3.1,1.1,4,2.1c1,1,1.4,2.2,1.4,3.6c0,1.4-0.5,2.7-1.5,3.8c-1,1.1-2.3,2-3.9,2.6
	c-1.7,0.6-3.5,0.9-5.5,0.9c-1.8,0-3.5-0.2-5.2-0.7c-1.7-0.5-3.2-1.3-4.5-2.3l1.1-2.5c1.1,0.8,2.4,1.5,3.9,1.9c1.5,0.5,3,0.7,4.5,0.7
	c2.3,0,4.1-0.4,5.5-1.3c1.5-0.9,2.2-2,2.2-3.5c0-1.3-0.6-2.3-1.8-3c-1.2-0.7-2.8-1.1-4.8-1.1h-4.2v-2.4h4c1.8,0,3.3-0.3,4.4-1
	c1.1-0.7,1.7-1.7,1.7-2.8c0-1.3-0.6-2.3-1.9-3.1c-1.2-0.7-2.9-1.1-4.9-1.1c-2.6,0-5.2,0.7-7.8,2l-0.9-2.5c2.9-1.5,5.9-2.3,9-2.3
	c1.9,0,3.5,0.3,5,0.8c1.5,0.5,2.7,1.3,3.5,2.3c0.9,1,1.3,2.1,1.3,3.4c0,1.2-0.4,2.3-1.3,3.3C272.8,284,271.7,284.7,270.2,285.2z"/>
<path class="st0" d="M303.8,273.5l-12.2,27.3c-1,2.3-2.1,3.9-3.4,4.9s-2.9,1.4-4.7,1.4c-1.2,0-2.3-0.2-3.3-0.6
	c-1-0.4-1.9-0.9-2.6-1.7l1.5-2.5c1.2,1.2,2.7,1.9,4.5,1.9c1.1,0,2.1-0.3,2.8-0.9c0.8-0.6,1.5-1.7,2.2-3.2l1.1-2.4l-10.9-24.3h3.4
	l9.2,20.7l9.2-20.7H303.8z"/>
<path class="st0" d="M307.7,293.1c0.7,0,1.3,0.2,1.8,0.7c0.5,0.5,0.7,1.1,0.7,1.8c0,0.4-0.1,0.8-0.2,1.2c-0.1,0.4-0.2,0.9-0.5,1.5
	l-1.9,6.4h-2.2l1.6-6.7c-0.5-0.2-0.9-0.4-1.2-0.8c-0.3-0.4-0.5-0.9-0.5-1.5c0-0.7,0.2-1.3,0.7-1.8
	C306.4,293.3,306.9,293.1,307.7,293.1z"/>
<path class="st0" d="M346.5,276.4h-9.2v21.5H334v-21.5h-9.2v-2.9h21.7V276.4z"/>
<path class="st0" d="M363.8,273.3c2.3,0,4.4,0.5,6.2,1.6c1.9,1,3.3,2.5,4.4,4.4c1.1,1.9,1.6,4,1.6,6.4c0,2.4-0.5,4.6-1.6,6.5
	c-1,1.9-2.5,3.4-4.4,4.4c-1.8,1-3.9,1.5-6.2,1.5c-2,0-3.8-0.4-5.4-1.2c-1.6-0.8-2.9-2-3.9-3.6v13.6h-3.3v-33.4h3.2v4.8
	c1-1.6,2.3-2.8,3.9-3.7C359.9,273.8,361.8,273.3,363.8,273.3z M363.6,295.2c1.7,0,3.2-0.4,4.6-1.2c1.4-0.8,2.5-1.9,3.2-3.4
	c0.8-1.5,1.2-3.1,1.2-5c0-1.9-0.4-3.5-1.2-4.9c-0.8-1.5-1.9-2.6-3.2-3.4c-1.4-0.8-2.9-1.2-4.6-1.2c-1.7,0-3.3,0.4-4.7,1.2
	c-1.4,0.8-2.4,1.9-3.2,3.4c-0.8,1.4-1.2,3.1-1.2,4.9c0,1.9,0.4,3.5,1.2,5c0.8,1.5,1.9,2.6,3.2,3.4
	C360.3,294.8,361.9,295.2,363.6,295.2z"/>
<path class="st0" d="M393.1,298.1c-2.3,0-4.5-0.5-6.4-1.6c-1.9-1.1-3.4-2.6-4.5-4.5c-1.1-1.9-1.6-4-1.6-6.4c0-2.4,0.5-4.5,1.6-6.4
	c1.1-1.9,2.6-3.4,4.5-4.4s4-1.6,6.4-1.6c2.3,0,4.5,0.5,6.4,1.6s3.4,2.5,4.4,4.4c1.1,1.9,1.6,4,1.6,6.4c0,2.4-0.5,4.5-1.6,6.4
	c-1,1.9-2.5,3.4-4.4,4.5C397.6,297.6,395.4,298.1,393.1,298.1z M393.1,295.2c1.7,0,3.3-0.4,4.6-1.2c1.4-0.8,2.5-1.9,3.2-3.4
	s1.2-3.1,1.2-5c0-1.9-0.4-3.5-1.2-5c-0.8-1.5-1.9-2.6-3.2-3.3c-1.4-0.8-2.9-1.2-4.6-1.2c-1.7,0-3.3,0.4-4.7,1.2
	c-1.4,0.8-2.4,1.9-3.2,3.3c-0.8,1.5-1.2,3.1-1.2,5c0,1.9,0.4,3.5,1.2,5c0.8,1.5,1.9,2.6,3.2,3.4
	C389.8,294.8,391.4,295.2,393.1,295.2z"/>
<path class="st0" d="M439.8,273.5v24.4h-3v-19.3l-9.9,16.3h-1.5l-9.9-16.4v19.3h-3v-24.4h3.3l10.3,17.6l10.5-17.6H439.8z"/>
<path class="st0" d="M461,274.1c2.3,0,4.3,0.5,6,1.5c1.8,1,3.2,2.4,4.2,4.2c1,1.8,1.5,3.8,1.5,6.2c0,2.4-0.5,4.5-1.6,6.4
	c-1,1.8-2.5,3.2-4.3,4.3c-1.9,1-4,1.5-6.4,1.5c-4,0-7.2-1.4-9.4-4.3c-2.2-2.8-3.3-6.8-3.3-11.8c0-5.2,1-9.2,3-12
	c2-2.8,5.1-4.7,9.4-5.7l10.9-2.5l0.6,3l-10.3,2.4c-3.5,0.8-6.1,2.1-7.7,4.1c-1.6,1.9-2.5,4.8-2.7,8.7c1-1.9,2.4-3.4,4.1-4.4
	C456.6,274.7,458.7,274.1,461,274.1z M460.4,295.5c1.7,0,3.2-0.4,4.5-1.2c1.4-0.8,2.4-1.9,3.2-3.3c0.8-1.4,1.2-3,1.2-4.8
	c0-1.8-0.4-3.4-1.1-4.7c-0.7-1.4-1.8-2.4-3.2-3.2c-1.3-0.8-2.9-1.2-4.6-1.2c-1.7,0-3.3,0.4-4.6,1.2c-1.3,0.7-2.4,1.8-3.2,3.2
	c-0.7,1.4-1.1,2.9-1.1,4.7c0,1.8,0.4,3.4,1.1,4.8c0.8,1.4,1.8,2.5,3.2,3.3C457.2,295.1,458.7,295.5,460.4,295.5z"/>
<path class="st0" d="M495.9,276.4h-9.2v21.5h-3.3v-21.5h-9.2v-2.9h21.7V276.4z"/>
<path class="st0" d="M509.1,273.3c3.2,0,5.6,0.8,7.3,2.4c1.7,1.6,2.5,3.9,2.5,7v15.1h-3.2v-3.8c-0.7,1.3-1.8,2.3-3.3,3
	c-1.4,0.7-3.1,1.1-5.1,1.1c-2.7,0-4.9-0.6-6.5-1.9c-1.6-1.3-2.4-3-2.4-5.1c0-2.1,0.7-3.7,2.2-5c1.5-1.3,3.9-1.9,7.2-1.9h7.7v-1.5
	c0-2.1-0.6-3.7-1.8-4.8c-1.2-1.1-2.9-1.7-5.1-1.7c-1.5,0-3,0.3-4.5,0.8c-1.4,0.5-2.6,1.2-3.7,2.1l-1.5-2.5c1.2-1.1,2.7-1.9,4.5-2.4
	C505.4,273.6,507.2,273.3,509.1,273.3z M507.9,295.5c1.9,0,3.4-0.4,4.8-1.3c1.3-0.9,2.3-2.1,3-3.7v-4H508c-4.2,0-6.3,1.5-6.3,4.4
	c0,1.4,0.5,2.6,1.6,3.4C504.5,295.1,506,295.5,507.9,295.5z"/>
<path class="st0" d="M540.3,273.3c2.3,0,4.4,0.5,6.2,1.6c1.9,1,3.3,2.5,4.4,4.4c1.1,1.9,1.6,4,1.6,6.4c0,2.4-0.5,4.6-1.6,6.5
	c-1.1,1.9-2.5,3.4-4.4,4.4c-1.8,1-3.9,1.5-6.2,1.5c-2,0-3.8-0.4-5.4-1.2c-1.6-0.8-2.9-2-3.9-3.6v13.6h-3.3v-33.4h3.2v4.8
	c1-1.6,2.3-2.8,3.9-3.7C536.4,273.8,538.3,273.3,540.3,273.3z M540.1,295.2c1.7,0,3.2-0.4,4.6-1.2c1.4-0.8,2.5-1.9,3.2-3.4
	c0.8-1.5,1.2-3.1,1.2-5c0-1.9-0.4-3.5-1.2-4.9c-0.8-1.5-1.9-2.6-3.2-3.4c-1.4-0.8-2.9-1.2-4.6-1.2c-1.7,0-3.3,0.4-4.7,1.2
	c-1.4,0.8-2.4,1.9-3.2,3.4c-0.8,1.4-1.2,3.1-1.2,4.9c0,1.9,0.4,3.5,1.2,5c0.8,1.5,1.9,2.6,3.2,3.4
	C536.8,294.8,538.3,295.2,540.1,295.2z"/>
<path class="st0" d="M583.2,295v8.8h-3.1v-5.9h-21.8v5.9h-3.1V295h1.4c1.6-0.1,2.8-1.3,3.3-3.6c0.6-2.3,1-5.6,1.2-9.7l0.3-8.2h18
	V295H583.2z M564.1,281.9c-0.2,3.5-0.4,6.3-0.9,8.6c-0.4,2.2-1.2,3.8-2.3,4.6h15.2v-18.6h-11.7L564.1,281.9z"/>
<path class="st0" d="M599.8,282.1c3.1,0,5.4,0.7,7,2c1.6,1.3,2.4,3.2,2.4,5.7c0,2.6-0.9,4.6-2.6,6c-1.7,1.4-4.2,2.1-7.4,2l-9.6,0
	v-24.4h3.3v8.5L599.8,282.1z M613.3,273.5h3.3v24.4h-3.3V273.5z M599,295.5c2.3,0,4-0.4,5.1-1.3c1.2-1,1.8-2.3,1.8-4.2
	c0-1.8-0.6-3.1-1.7-4c-1.1-0.9-2.9-1.3-5.1-1.3l-6.2-0.1v10.8L599,295.5z"/>
<path class="st0" d="M626,273.5h3.3v10.8h15.3v-10.8h3.3v24.4h-3.3v-10.8h-15.3v10.8H626V273.5z M651.8,295v8.2h-3.1v-5.3h-4.1V295
	H651.8z"/>
<path class="st0" d="M22,335.5h-9.2v21.5H9.4v-21.5H0.2v-2.9H22V335.5z"/>
<path class="st0" d="M36.7,357.1v8.9h-3.3v-8.9l-10.8-24.5h3.5l9.1,20.8l9.2-20.8h3.2L36.7,357.1z"/>
<path class="st0" d="M63.9,344.2c1.7,0.4,3.1,1.1,4,2.1c1,1,1.4,2.2,1.4,3.6c0,1.4-0.5,2.7-1.5,3.8c-1,1.1-2.3,2-3.9,2.6
	c-1.7,0.6-3.5,0.9-5.5,0.9c-1.8,0-3.5-0.2-5.2-0.7c-1.7-0.5-3.2-1.3-4.5-2.3l1.1-2.5c1.1,0.8,2.4,1.5,3.9,1.9c1.5,0.5,3,0.7,4.5,0.7
	c2.3,0,4.1-0.4,5.5-1.3c1.5-0.9,2.2-2,2.2-3.5c0-1.3-0.6-2.3-1.8-3c-1.2-0.7-2.8-1.1-4.8-1.1h-4.2v-2.4h4c1.8,0,3.3-0.3,4.4-1
	c1.1-0.7,1.7-1.7,1.7-2.8c0-1.3-0.6-2.3-1.9-3.1c-1.2-0.7-2.9-1.1-4.9-1.1c-2.6,0-5.2,0.7-7.8,2l-0.9-2.6c2.9-1.5,5.9-2.3,9-2.3
	c1.9,0,3.5,0.3,5,0.8c1.5,0.5,2.7,1.3,3.5,2.3c0.9,1,1.3,2.1,1.3,3.4c0,1.2-0.4,2.3-1.3,3.3C66.5,343,65.4,343.8,63.9,344.2z"/>
<path class="st0" d="M76.8,332.5h3.3v24.4h-3.3V332.5z M78.5,327.2c-0.7,0-1.3-0.2-1.7-0.7c-0.5-0.5-0.7-1-0.7-1.7
	c0-0.6,0.2-1.2,0.7-1.6c0.5-0.5,1-0.7,1.7-0.7s1.3,0.2,1.7,0.7c0.5,0.4,0.7,1,0.7,1.6c0,0.7-0.2,1.3-0.7,1.7
	C79.8,327,79.2,327.2,78.5,327.2z"/>
<path class="st0" d="M109.4,332.5v24.4h-3.3v-21.5H94.5l-0.3,6c-0.2,5.1-0.8,9-1.8,11.7s-2.6,4.1-5,4.1c-0.6,0-1.4-0.1-2.4-0.4
	l0.2-2.8c0.6,0.1,0.9,0.2,1.2,0.2c1.3,0,2.2-0.6,2.9-1.8c0.6-1.2,1.1-2.6,1.3-4.4c0.2-1.7,0.4-4,0.6-6.9l0.4-8.7H109.4z"/>
<path class="st0" d="M139.5,332.5l-12.2,27.3c-1,2.3-2.1,3.9-3.4,4.9c-1.3,1-2.9,1.4-4.7,1.4c-1.2,0-2.3-0.2-3.3-0.6
	c-1-0.4-1.9-0.9-2.6-1.7l1.5-2.5c1.2,1.2,2.7,1.9,4.5,1.9c1.1,0,2.1-0.3,2.8-0.9c0.8-0.6,1.5-1.7,2.2-3.2l1.1-2.4l-10.9-24.3h3.4
	l9.2,20.7l9.2-20.7H139.5z"/>
<path class="st0" d="M144.7,332.5h3.3v24.4h-3.3V332.5z M146.3,327.2c-0.7,0-1.3-0.2-1.7-0.7c-0.5-0.5-0.7-1-0.7-1.7
	c0-0.6,0.2-1.2,0.7-1.6c0.5-0.5,1-0.7,1.7-0.7c0.7,0,1.3,0.2,1.7,0.7c0.5,0.4,0.7,1,0.7,1.6c0,0.7-0.2,1.3-0.7,1.7
	C147.6,327,147,327.2,146.3,327.2z"/>
<path class="st0" d="M157.3,332.5h3.3v10.8H176v-10.8h3.3v24.4H176v-10.8h-15.3v10.8h-3.3V332.5z"/>
<path class="st0" d="M209.9,345.7h-20.4c0.2,2.5,1.2,4.6,2.9,6.2c1.8,1.5,4,2.3,6.7,2.3c1.5,0,2.9-0.3,4.2-0.8
	c1.3-0.6,2.4-1.4,3.3-2.4l1.9,2.1c-1.1,1.3-2.4,2.3-4.1,3c-1.6,0.7-3.4,1-5.3,1c-2.5,0-4.7-0.5-6.7-1.6c-1.9-1.1-3.4-2.6-4.5-4.5
	c-1.1-1.9-1.6-4-1.6-6.4s0.5-4.5,1.5-6.4c1.1-1.9,2.5-3.4,4.3-4.4c1.8-1.1,3.9-1.6,6.1-1.6s4.3,0.5,6.1,1.6c1.8,1.1,3.2,2.5,4.2,4.4
	c1,1.9,1.5,4,1.5,6.4L209.9,345.7z M198.2,335.2c-2.3,0-4.3,0.8-5.9,2.3c-1.6,1.5-2.5,3.4-2.7,5.8h17.3c-0.2-2.4-1.1-4.4-2.7-5.8
	C202.5,335.9,200.6,335.2,198.2,335.2z"/>
<path class="st0" d="M250.8,346.1h-5.3v10.8h-3.3v-10.8h-5.3l-7.5,10.8h-3.9l8.8-12.6l-8.1-11.8h3.6l7.1,10.7h5.3v-10.7h3.3v10.7
	h5.3l7.2-10.7h3.6l-8.1,11.9l8.8,12.5h-3.9L250.8,346.1z"/>
<path class="st0" d="M276.9,357.2c-2.3,0-4.5-0.5-6.4-1.6c-1.9-1.1-3.4-2.6-4.5-4.5c-1.1-1.9-1.6-4-1.6-6.4s0.5-4.5,1.6-6.4
	c1.1-1.9,2.6-3.4,4.5-4.4c1.9-1.1,4-1.6,6.4-1.6s4.5,0.5,6.4,1.6c1.9,1.1,3.4,2.5,4.4,4.4c1.1,1.9,1.6,4,1.6,6.4s-0.5,4.5-1.6,6.4
	c-1.1,1.9-2.5,3.4-4.4,4.5C281.4,356.6,279.3,357.2,276.9,357.2z M276.9,354.2c1.7,0,3.3-0.4,4.6-1.2c1.4-0.8,2.5-1.9,3.2-3.4
	c0.8-1.5,1.2-3.1,1.2-5c0-1.9-0.4-3.5-1.2-5c-0.8-1.5-1.9-2.6-3.2-3.3c-1.4-0.8-2.9-1.2-4.6-1.2c-1.7,0-3.3,0.4-4.7,1.2
	c-1.4,0.8-2.4,1.9-3.2,3.3c-0.8,1.5-1.2,3.1-1.2,5c0,1.9,0.4,3.5,1.2,5c0.8,1.5,1.9,2.6,3.2,3.4
	C273.6,353.8,275.2,354.2,276.9,354.2z"/>
<path class="st0" d="M300.3,335.5v9.5H311v2.4h-10.7v9.6H297v-9.6h-3.2v-2.4h3.2v-12.4h17.2v2.9H300.3z"/>
<path class="st0" d="M328,332.4c3.2,0,5.6,0.8,7.3,2.4c1.7,1.6,2.6,3.9,2.6,7v15.1h-3.2v-3.8c-0.7,1.3-1.8,2.3-3.3,3
	c-1.4,0.7-3.1,1.1-5.1,1.1c-2.7,0-4.9-0.6-6.5-1.9c-1.6-1.3-2.4-3-2.4-5.1c0-2.1,0.7-3.7,2.2-5c1.5-1.3,3.9-1.9,7.2-1.9h7.7v-1.5
	c0-2.1-0.6-3.7-1.8-4.8c-1.2-1.1-2.9-1.7-5.1-1.7c-1.5,0-3,0.3-4.5,0.8c-1.4,0.5-2.6,1.2-3.7,2.1l-1.5-2.5c1.2-1.1,2.7-1.9,4.5-2.4
	C324.3,332.6,326.1,332.4,328,332.4z M326.8,354.6c1.9,0,3.4-0.4,4.8-1.3c1.3-0.9,2.3-2.1,3-3.7v-4h-7.6c-4.2,0-6.3,1.5-6.3,4.4
	c0,1.4,0.5,2.6,1.6,3.4C323.4,354.2,324.9,354.6,326.8,354.6z"/>
<path class="st0" d="M359.2,332.4c2.3,0,4.4,0.5,6.2,1.6c1.9,1,3.3,2.5,4.4,4.4c1.1,1.9,1.6,4,1.6,6.4c0,2.4-0.5,4.6-1.6,6.5
	c-1.1,1.9-2.5,3.4-4.4,4.4c-1.8,1-3.9,1.5-6.2,1.5c-2,0-3.8-0.4-5.4-1.2c-1.6-0.8-2.9-2-3.9-3.6v13.6h-3.3v-33.4h3.2v4.8
	c1-1.6,2.3-2.8,3.9-3.7C355.3,332.8,357.2,332.4,359.2,332.4z M359,354.2c1.7,0,3.2-0.4,4.6-1.2c1.4-0.8,2.5-1.9,3.2-3.4
	c0.8-1.5,1.2-3.1,1.2-5c0-1.9-0.4-3.5-1.2-4.9c-0.8-1.5-1.9-2.6-3.2-3.4c-1.4-0.8-2.9-1.2-4.6-1.2c-1.7,0-3.3,0.4-4.7,1.2
	c-1.4,0.8-2.4,1.9-3.2,3.4c-0.8,1.4-1.2,3.1-1.2,4.9c0,1.9,0.4,3.5,1.2,5c0.8,1.5,1.9,2.6,3.2,3.4
	C355.7,353.8,357.2,354.2,359,354.2z"/>
<path class="st0" d="M388.7,341.2c3.1,0,5.4,0.7,7,2c1.6,1.3,2.4,3.2,2.4,5.7c0,2.6-0.9,4.6-2.6,6c-1.7,1.4-4.2,2.1-7.4,2l-9.6,0
	v-24.4h3.3v8.5L388.7,341.2z M402.2,332.5h3.3v24.4h-3.3V332.5z M387.9,354.5c2.3,0,4-0.4,5.1-1.3c1.2-1,1.8-2.3,1.8-4.2
	c0-1.8-0.6-3.1-1.7-4c-1.1-0.9-2.9-1.3-5.1-1.3l-6.2-0.1v10.8L387.9,354.5z"/>
<path class="st0" d="M438.8,333.1c2.3,0,4.3,0.5,6,1.5c1.8,1,3.2,2.4,4.2,4.2c1,1.8,1.5,3.8,1.5,6.2c0,2.4-0.5,4.5-1.6,6.4
	c-1,1.8-2.5,3.2-4.3,4.3c-1.9,1-4,1.5-6.4,1.5c-4,0-7.2-1.4-9.4-4.3c-2.2-2.8-3.3-6.8-3.3-11.8c0-5.2,1-9.2,3-12
	c2-2.8,5.1-4.7,9.4-5.7l10.9-2.5l0.6,3l-10.3,2.4c-3.5,0.8-6.1,2.1-7.7,4.1c-1.6,1.9-2.5,4.8-2.7,8.7c1-1.9,2.4-3.4,4.1-4.4
	C434.5,333.7,436.5,333.1,438.8,333.1z M438.3,354.5c1.7,0,3.2-0.4,4.5-1.2c1.4-0.8,2.4-1.9,3.2-3.3c0.8-1.4,1.2-3,1.2-4.8
	c0-1.8-0.4-3.4-1.1-4.7c-0.7-1.4-1.8-2.4-3.2-3.2c-1.3-0.8-2.9-1.2-4.6-1.2c-1.7,0-3.3,0.4-4.6,1.2c-1.3,0.7-2.4,1.8-3.2,3.2
	c-0.7,1.4-1.1,2.9-1.1,4.7c0,1.8,0.4,3.4,1.1,4.8c0.8,1.4,1.8,2.5,3.2,3.3C435,354.1,436.6,354.5,438.3,354.5z"/>
<path class="st0" d="M478.8,345.7h-20.4c0.2,2.5,1.2,4.6,2.9,6.2c1.8,1.5,4,2.3,6.7,2.3c1.5,0,2.9-0.3,4.2-0.8
	c1.3-0.6,2.4-1.4,3.3-2.4l1.9,2.1c-1.1,1.3-2.4,2.3-4.1,3c-1.6,0.7-3.4,1-5.3,1c-2.5,0-4.7-0.5-6.7-1.6c-1.9-1.1-3.4-2.6-4.5-4.5
	c-1.1-1.9-1.6-4-1.6-6.4s0.5-4.5,1.5-6.4c1.1-1.9,2.5-3.4,4.3-4.4c1.8-1.1,3.9-1.6,6.1-1.6s4.3,0.5,6.1,1.6c1.8,1.1,3.2,2.5,4.2,4.4
	c1,1.9,1.5,4,1.5,6.4L478.8,345.7z M467.1,335.2c-2.3,0-4.3,0.8-5.9,2.3c-1.6,1.5-2.5,3.4-2.7,5.8h17.3c-0.2-2.4-1.1-4.4-2.7-5.8
	C471.4,335.9,469.4,335.2,467.1,335.2z"/>
<path class="st0" d="M486.2,332.5h3.3v19.4l16.3-19.4h2.9v24.4h-3.3v-19.4l-16.2,19.4h-3V332.5z M497.2,329c-2.1,0-3.8-0.5-5-1.6
	s-1.9-2.5-1.9-4.5h2.4c0,1.2,0.5,2.2,1.3,2.9c0.8,0.7,1.9,1.1,3.2,1.1c1.3,0,2.4-0.4,3.2-1.1c0.9-0.7,1.3-1.7,1.3-2.9h2.4
	c0,1.9-0.7,3.4-1.9,4.5C501,328.5,499.4,329,497.2,329z"/>
<path class="st0" d="M518.1,332.5h3.3v24.4h-3.3V332.5z M519.8,327.2c-0.7,0-1.3-0.2-1.7-0.7c-0.5-0.5-0.7-1-0.7-1.7
	c0-0.6,0.2-1.2,0.7-1.6c0.5-0.5,1-0.7,1.7-0.7s1.3,0.2,1.7,0.7c0.5,0.4,0.7,1,0.7,1.6c0,0.7-0.2,1.3-0.7,1.7
	C521,327,520.4,327.2,519.8,327.2z"/>
<path class="st0" d="M558,332.5v24.4h-3v-19.3l-9.9,16.3h-1.5l-9.9-16.4v19.3h-3v-24.4h3.3l10.3,17.6l10.5-17.6H558z"/>
<path class="st0" d="M591.2,354v8.8h-3.1v-5.9h-21.8v5.9h-3.1V354h1.4c1.6-0.1,2.8-1.3,3.3-3.6c0.6-2.3,1-5.6,1.2-9.7l0.3-8.2h18
	V354H591.2z M572.1,340.9c-0.2,3.5-0.4,6.3-0.9,8.6c-0.4,2.2-1.2,3.8-2.3,4.6h15.2v-18.6h-11.7L572.1,340.9z"/>
<path class="st0" d="M597.6,332.5h3.3v24.4h-3.3V332.5z M599.3,327.2c-0.7,0-1.3-0.2-1.7-0.7c-0.5-0.5-0.7-1-0.7-1.7
	c0-0.6,0.2-1.2,0.7-1.6c0.5-0.5,1-0.7,1.7-0.7c0.7,0,1.3,0.2,1.7,0.7c0.5,0.4,0.7,1,0.7,1.6c0,0.7-0.2,1.3-0.7,1.7
	C600.5,327,599.9,327.2,599.3,327.2z"/>
<path class="st0" d="M630.2,332.5v24.4h-3.3v-21.5h-11.7l-0.3,6c-0.2,5.1-0.8,9-1.8,11.7c-0.9,2.7-2.6,4.1-5,4.1
	c-0.6,0-1.4-0.1-2.4-0.4l0.2-2.8c0.6,0.1,0.9,0.2,1.2,0.2c1.3,0,2.2-0.6,2.9-1.8c0.6-1.2,1.1-2.6,1.3-4.4c0.2-1.7,0.4-4,0.6-6.9
	l0.4-8.7H630.2z"/>
<path class="st0" d="M639.6,332.5h3.3v24.4h-3.3V332.5z M641.2,327.2c-0.7,0-1.3-0.2-1.7-0.7c-0.5-0.5-0.7-1-0.7-1.7
	c0-0.6,0.2-1.2,0.7-1.6c0.5-0.5,1-0.7,1.7-0.7s1.3,0.2,1.7,0.7c0.5,0.4,0.7,1,0.7,1.6c0,0.7-0.2,1.3-0.7,1.7
	C642.5,327,641.9,327.2,641.2,327.2z"/>
<path class="st0" d="M661.1,346.1h-5.6v10.8h-3.3v-24.4h3.3v10.7h5.6l8.6-10.7h3.6l-9.6,11.8l10.3,12.6h-3.9L661.1,346.1z"/>
<path class="st0" d="M679.4,357.2c-0.7,0-1.3-0.2-1.8-0.7c-0.5-0.5-0.7-1.1-0.7-1.8s0.2-1.3,0.7-1.8c0.5-0.5,1.1-0.7,1.8-0.7
	c0.7,0,1.3,0.2,1.8,0.7c0.5,0.5,0.7,1.1,0.7,1.8s-0.2,1.3-0.7,1.8C680.7,356.9,680.1,357.2,679.4,357.2z"/>
<path class="st0" d="M1116.2,23.4h-9.9v19.8h-4.4V0h4.4v19.4h9.9L1130.8,0h4.9l-16,21l17,22.2h-5.2L1116.2,23.4z M1139.9,39.2v13.6
	h-4.3v-9.7h-4.2v-3.9H1139.9z"/>
<path class="st0" d="M1158.5,43.5c-3.1,0-6-0.7-8.5-2.1c-2.5-1.4-4.5-3.4-5.9-5.9c-1.4-2.5-2.2-5.3-2.2-8.5s0.7-6,2.2-8.5
	c1.4-2.5,3.4-4.5,5.9-5.9c2.5-1.4,5.3-2.1,8.5-2.1c3.1,0,5.9,0.7,8.4,2.1s4.5,3.4,5.9,5.9c1.4,2.5,2.2,5.3,2.2,8.5s-0.7,6-2.2,8.5
	c-1.4,2.5-3.3,4.5-5.9,5.9C1164.5,42.8,1161.7,43.5,1158.5,43.5z M1158.5,39.6c2.3,0,4.4-0.5,6.2-1.5c1.9-1.1,3.3-2.6,4.3-4.5
	c1-1.9,1.5-4.1,1.5-6.6s-0.5-4.7-1.5-6.6s-2.5-3.4-4.3-4.4c-1.8-1.1-3.9-1.6-6.2-1.6c-2.3,0-4.4,0.5-6.2,1.6c-1.8,1-3.2,2.5-4.3,4.4
	c-1,1.9-1.5,4.1-1.5,6.6s0.5,4.7,1.5,6.6c1.1,1.9,2.5,3.4,4.3,4.5C1154.2,39.1,1156.2,39.6,1158.5,39.6z"/>
<path class="st0" d="M1210.7,10.7v32.5h-4.4V14.6h-15.5l-0.4,8c-0.3,6.7-1.1,11.9-2.3,15.6c-1.2,3.6-3.4,5.4-6.6,5.4
	c-0.9,0-1.9-0.2-3.2-0.5l0.3-3.8c0.7,0.2,1.3,0.2,1.5,0.2c1.7,0,3-0.8,3.8-2.3c0.9-1.6,1.4-3.5,1.7-5.8c0.3-2.3,0.5-5.3,0.7-9.1
	l0.5-11.6H1210.7z"/>
<path class="st0" d="M1254.8,39.4V51h-4.1v-7.8h-29.1V51h-4.1V39.4h1.8c2.2-0.1,3.7-1.7,4.4-4.8c0.8-3.1,1.3-7.4,1.6-13l0.4-10.9
	h23.9v28.6H1254.8z M1229.4,21.8c-0.2,4.6-0.6,8.4-1.2,11.4c-0.6,3-1.6,5-3.1,6.1h20.2V14.6h-15.6L1229.4,21.8z"/>
<path class="st0" d="M1274.5,10.5c4.2,0,7.5,1.1,9.8,3.2c2.3,2.1,3.4,5.2,3.4,9.4v20.1h-4.2v-5.1c-1,1.7-2.4,3-4.4,3.9
	c-1.9,0.9-4.2,1.4-6.8,1.4c-3.6,0-6.5-0.9-8.6-2.6c-2.1-1.7-3.2-4-3.2-6.8c0-2.8,1-5,3-6.7c2-1.7,5.2-2.5,9.6-2.5h10.3v-2
	c0-2.8-0.8-4.9-2.4-6.4c-1.6-1.5-3.8-2.2-6.8-2.2c-2.1,0-4,0.3-5.9,1c-1.9,0.7-3.5,1.6-4.9,2.8l-2-3.3c1.7-1.4,3.6-2.5,5.9-3.2
	C1269.6,10.9,1272,10.5,1274.5,10.5z M1273,40c2.5,0,4.6-0.6,6.4-1.7c1.8-1.2,3.1-2.8,4-4.9v-5.3h-10.2c-5.6,0-8.3,1.9-8.3,5.8
	c0,1.9,0.7,3.4,2.2,4.5C1268.4,39.5,1270.4,40,1273,40z"/>
<path class="st0" d="M1299.3,10.7h4.4v14.4h20.4V10.7h4.4v32.5h-4.4V28.9h-20.4v14.3h-4.4V10.7z"/>
<path class="st0" d="M1352.2,10.5c4.2,0,7.5,1.1,9.8,3.2c2.3,2.1,3.4,5.2,3.4,9.4v20.1h-4.2v-5.1c-1,1.7-2.4,3-4.4,3.9
	c-1.9,0.9-4.2,1.4-6.8,1.4c-3.6,0-6.5-0.9-8.6-2.6c-2.1-1.7-3.2-4-3.2-6.8c0-2.8,1-5,3-6.7c2-1.7,5.2-2.5,9.6-2.5h10.3v-2
	c0-2.8-0.8-4.9-2.4-6.4c-1.6-1.5-3.8-2.2-6.8-2.2c-2.1,0-4,0.3-5.9,1c-1.9,0.7-3.5,1.6-4.9,2.8l-2-3.3c1.6-1.4,3.6-2.5,5.9-3.2
	C1347.2,10.9,1349.6,10.5,1352.2,10.5z M1350.6,40c2.5,0,4.6-0.6,6.4-1.7c1.8-1.2,3.1-2.8,4-4.9v-5.3h-10.2c-5.5,0-8.3,1.9-8.3,5.8
	c0,1.9,0.7,3.4,2.2,4.5C1346,39.5,1348,40,1350.6,40z"/>
<path class="st0" d="M1393.7,10.5c3,0,5.8,0.7,8.3,2.1c2.5,1.4,4.4,3.3,5.8,5.8c1.4,2.5,2.1,5.4,2.1,8.6c0,3.2-0.7,6.1-2.1,8.6
	s-3.3,4.5-5.8,5.9c-2.4,1.4-5.2,2-8.3,2c-2.6,0-5-0.5-7.2-1.6c-2.1-1.1-3.8-2.7-5.2-4.8v18.1h-4.4V10.7h4.2v6.4
	c1.3-2.1,3-3.8,5.2-4.9C1388.5,11.1,1391,10.5,1393.7,10.5z M1393.4,39.6c2.3,0,4.3-0.5,6.2-1.5c1.9-1.1,3.3-2.6,4.3-4.5
	c1.1-1.9,1.6-4.1,1.6-6.6s-0.5-4.6-1.6-6.5c-1-1.9-2.5-3.4-4.3-4.5c-1.9-1.1-3.9-1.6-6.2-1.6c-2.3,0-4.4,0.5-6.2,1.6
	c-1.8,1.1-3.2,2.6-4.3,4.5c-1,1.9-1.5,4.1-1.5,6.5s0.5,4.7,1.5,6.6c1.1,1.9,2.5,3.4,4.3,4.5C1389,39.1,1391.1,39.6,1393.4,39.6z"/>
<path class="st0" d="M1446.6,10.5c4.2,0,7.5,1.1,9.8,3.2c2.3,2.1,3.4,5.2,3.4,9.4v20.1h-4.2v-5.1c-1,1.7-2.5,3-4.4,3.9
	c-1.9,0.9-4.2,1.4-6.8,1.4c-3.6,0-6.5-0.9-8.6-2.6c-2.1-1.7-3.2-4-3.2-6.8c0-2.8,1-5,3-6.7c2-1.7,5.2-2.5,9.6-2.5h10.3v-2
	c0-2.8-0.8-4.9-2.3-6.4c-1.6-1.5-3.8-2.2-6.8-2.2c-2.1,0-4,0.3-5.9,1c-1.9,0.7-3.5,1.6-4.9,2.8l-2-3.3c1.6-1.4,3.6-2.5,5.9-3.2
	C1441.6,10.9,1444,10.5,1446.6,10.5z M1445,40c2.5,0,4.6-0.6,6.3-1.7c1.8-1.2,3.1-2.8,3.9-4.9v-5.3h-10.2c-5.6,0-8.3,1.9-8.3,5.8
	c0,1.9,0.7,3.4,2.2,4.5C1440.4,39.5,1442.4,40,1445,40z"/>
<path class="st0" d="M1497.9,10.7v32.5h-4.4V14.6H1478l-0.4,8c-0.3,6.7-1.1,11.9-2.4,15.6c-1.2,3.6-3.4,5.4-6.6,5.4
	c-0.9,0-1.9-0.2-3.2-0.5l0.3-3.8c0.7,0.2,1.3,0.2,1.5,0.2c1.7,0,3-0.8,3.8-2.3c0.9-1.6,1.4-3.5,1.7-5.8s0.5-5.3,0.7-9.1l0.6-11.6
	H1497.9z"/>
<path class="st0" d="M1542,39.4V51h-4.1v-7.8h-29.1V51h-4.1V39.4h1.9c2.2-0.1,3.7-1.7,4.4-4.8c0.8-3.1,1.3-7.4,1.6-13l0.4-10.9h23.9
	v28.6H1542z M1516.6,21.8c-0.2,4.6-0.6,8.4-1.2,11.4c-0.6,3-1.6,5-3.1,6.1h20.2V14.6H1517L1516.6,21.8z"/>
<path class="st0" d="M1564.2,22.2c4.1,0,7.2,0.9,9.3,2.7c2.1,1.8,3.2,4.3,3.2,7.7c0,3.5-1.2,6.1-3.4,8c-2.3,1.9-5.6,2.8-9.9,2.7
	l-12.8-0.1V10.7h4.4v11.4L1564.2,22.2z M1582.2,10.7h4.4v32.5h-4.4V10.7z M1563.2,39.9c3,0,5.3-0.6,6.8-1.8c1.6-1.3,2.3-3.1,2.3-5.6
	c0-2.4-0.8-4.2-2.3-5.3c-1.5-1.2-3.8-1.7-6.8-1.8l-8.2-0.1v14.4L1563.2,39.9z"/>
<path class="st0" d="M1599,10.7h4.4v14.4h20.4V10.7h4.4v32.5h-4.4V28.9h-20.4v14.3h-4.4V10.7z"/>
<path class="st0" d="M1672.3,39.4V51h-4.1v-7.8h-29.1V51h-4.1V39.4h1.8c2.2-0.1,3.7-1.7,4.5-4.8c0.8-3.1,1.3-7.4,1.6-13l0.4-10.9
	h23.9v28.6H1672.3z M1646.9,21.8c-0.2,4.6-0.6,8.4-1.2,11.4c-0.6,3-1.6,5-3.1,6.1h20.2V14.6h-15.6L1646.9,21.8z"/>
<path class="st0" d="M1692,10.5c4.2,0,7.5,1.1,9.8,3.2c2.3,2.1,3.4,5.2,3.4,9.4v20.1h-4.2v-5.1c-1,1.7-2.4,3-4.4,3.9
	c-1.9,0.9-4.2,1.4-6.8,1.4c-3.6,0-6.5-0.9-8.6-2.6c-2.1-1.7-3.2-4-3.2-6.8c0-2.8,1-5,3-6.7c2-1.7,5.2-2.5,9.6-2.5h10.3v-2
	c0-2.8-0.8-4.9-2.4-6.4c-1.6-1.5-3.8-2.2-6.8-2.2c-2.1,0-4,0.3-5.9,1c-1.9,0.7-3.5,1.6-4.9,2.8l-2-3.3c1.6-1.4,3.6-2.5,5.9-3.2
	C1687.1,10.9,1689.5,10.5,1692,10.5z M1690.5,40c2.5,0,4.6-0.6,6.4-1.7c1.8-1.2,3.1-2.8,4-4.9v-5.3h-10.2c-5.5,0-8.3,1.9-8.3,5.8
	c0,1.9,0.7,3.4,2.2,4.5C1685.9,39.5,1687.9,40,1690.5,40z"/>
<path class="st0" d="M1132.5,119.8v11.7h-4.1v-7.8h-29.1v7.8h-4.1v-11.7h1.8c2.2-0.1,3.7-1.7,4.4-4.8c0.8-3.1,1.3-7.4,1.6-13
	l0.4-10.9h23.9v28.6H1132.5z M1107.1,102.3c-0.2,4.6-0.6,8.4-1.2,11.4c-0.6,3-1.6,5-3.1,6.1h20.2V95.1h-15.6L1107.1,102.3z"/>
<path class="st0" d="M1152.8,90.9c3.3,0,6.3,0.7,8.8,2.2c2.6,1.4,4.6,3.4,6.1,5.9c1.4,2.5,2.2,5.3,2.2,8.5c0,3.2-0.7,6-2.1,8.5
	c-1.4,2.5-3.2,4.5-5.7,5.9c-2.4,1.4-5.1,2.1-8.1,2.1c-3,0-5.7-0.7-8.1-2.1c-2.4-1.4-4.3-3.3-5.6-5.8c-1.4-2.5-2-5.4-2-8.6l0.1-1.4
	h27.2c-0.2-3.4-1.5-6.1-3.9-8.1c-2.3-2.1-5.3-3.1-8.9-3.1c-2,0-3.9,0.4-5.6,1.1c-1.7,0.7-3.2,1.7-4.4,3.1l-2.5-2.8
	c1.4-1.7,3.2-3,5.4-3.9C1147.8,91.4,1150.2,90.9,1152.8,90.9z M1153.9,120.1c3.1,0,5.7-1,7.8-3c2.1-2,3.4-4.6,3.6-7.8h-23
	c0.3,3.2,1.5,5.8,3.6,7.8C1148.1,119.2,1150.8,120.1,1153.9,120.1z"/>
<path class="st0" d="M1195.8,91c3,0,5.8,0.7,8.3,2.1c2.5,1.4,4.4,3.3,5.8,5.8c1.4,2.5,2.1,5.4,2.1,8.6c0,3.2-0.7,6.1-2.1,8.6
	c-1.4,2.5-3.3,4.5-5.8,5.9c-2.4,1.4-5.2,2-8.3,2c-2.6,0-5-0.5-7.2-1.6c-2.1-1.1-3.8-2.7-5.2-4.8v18.1h-4.4V91.2h4.2v6.4
	c1.3-2.1,3-3.8,5.2-4.9C1190.7,91.5,1193.1,91,1195.8,91z M1195.5,120.1c2.3,0,4.3-0.5,6.2-1.5c1.9-1.1,3.3-2.6,4.3-4.5
	c1.1-1.9,1.6-4.1,1.6-6.6c0-2.5-0.5-4.6-1.6-6.5c-1-1.9-2.5-3.4-4.3-4.5c-1.8-1.1-3.9-1.6-6.2-1.6c-2.3,0-4.4,0.5-6.2,1.6
	c-1.8,1.1-3.2,2.6-4.3,4.5c-1,1.9-1.6,4.1-1.6,6.5c0,2.5,0.5,4.7,1.6,6.6c1.1,1.9,2.5,3.4,4.3,4.5
	C1191.2,119.6,1193.2,120.1,1195.5,120.1z"/>
<path class="st0" d="M1221.4,91.2h4.4v32.5h-4.4V91.2z M1223.7,84.1c-0.9,0-1.7-0.3-2.3-0.9c-0.6-0.6-0.9-1.4-0.9-2.2
	c0-0.8,0.3-1.5,0.9-2.2c0.6-0.6,1.4-0.9,2.3-0.9c0.9,0,1.7,0.3,2.3,0.9c0.6,0.6,0.9,1.3,0.9,2.1c0,0.9-0.3,1.7-0.9,2.3
	C1225.3,83.8,1224.6,84.1,1223.7,84.1z"/>
<path class="st0" d="M1261.3,95.1h-18.6v28.6h-4.4V91.2h23V95.1z"/>
<path class="st0" d="M1294.5,108.8h-27.2c0.2,3.4,1.5,6.1,3.9,8.2c2.4,2.1,5.3,3.1,8.9,3.1c2,0,3.9-0.3,5.6-1
	c1.7-0.7,3.2-1.8,4.4-3.2l2.5,2.8c-1.4,1.7-3.2,3-5.4,3.9c-2.1,0.9-4.5,1.4-7.1,1.4c-3.3,0-6.3-0.7-8.9-2.1c-2.5-1.4-4.5-3.4-6-5.9
	c-1.4-2.5-2.2-5.3-2.2-8.5c0-3.2,0.7-6,2-8.5c1.4-2.5,3.3-4.5,5.7-5.9c2.4-1.4,5.1-2.1,8.1-2.1s5.7,0.7,8.1,2.1
	c2.4,1.4,4.2,3.4,5.6,5.9c1.4,2.5,2,5.3,2,8.5L1294.5,108.8z M1278.8,94.7c-3.1,0-5.8,1-7.9,3c-2.1,2-3.3,4.6-3.6,7.8h23
	c-0.3-3.2-1.5-5.8-3.6-7.8C1284.6,95.7,1282,94.7,1278.8,94.7z"/>
<path class="st0" d="M1320.9,91c3,0,5.8,0.7,8.3,2.1c2.5,1.4,4.4,3.3,5.8,5.8c1.4,2.5,2.1,5.4,2.1,8.6c0,3.2-0.7,6.1-2.1,8.6
	c-1.4,2.5-3.3,4.5-5.8,5.9c-2.4,1.4-5.2,2-8.3,2c-2.6,0-5-0.5-7.2-1.6c-2.1-1.1-3.8-2.7-5.2-4.8v18.1h-4.4V91.2h4.2v6.4
	c1.3-2.1,3-3.8,5.2-4.9C1315.8,91.5,1318.2,91,1320.9,91z M1320.6,120.1c2.3,0,4.3-0.5,6.2-1.5c1.8-1.1,3.3-2.6,4.3-4.5
	c1.1-1.9,1.6-4.1,1.6-6.6c0-2.5-0.5-4.6-1.6-6.5c-1-1.9-2.5-3.4-4.3-4.5c-1.9-1.1-3.9-1.6-6.2-1.6c-2.3,0-4.4,0.5-6.2,1.6
	c-1.8,1.1-3.2,2.6-4.3,4.5c-1,1.9-1.5,4.1-1.5,6.5c0,2.5,0.5,4.7,1.5,6.6c1.1,1.9,2.5,3.4,4.3,4.5
	C1316.3,119.6,1318.3,120.1,1320.6,120.1z"/>
<path class="st0" d="M1382.8,91.2v32.5h-4V98l-13.1,21.7h-2l-13.1-21.8v25.7h-4V91.2h4.4l13.8,23.4l14-23.4H1382.8z"/>
<path class="st0" d="M1423.7,108.8h-27.2c0.2,3.4,1.6,6.1,3.9,8.2c2.3,2.1,5.3,3.1,8.9,3.1c2,0,3.9-0.3,5.5-1
	c1.7-0.7,3.2-1.8,4.4-3.2l2.5,2.8c-1.4,1.7-3.2,3-5.4,3.9c-2.1,0.9-4.5,1.4-7.1,1.4c-3.3,0-6.3-0.7-8.9-2.1c-2.6-1.4-4.6-3.4-6-5.9
	c-1.4-2.5-2.2-5.3-2.2-8.5c0-3.2,0.7-6,2-8.5c1.4-2.5,3.3-4.5,5.7-5.9c2.4-1.4,5.1-2.1,8.1-2.1s5.7,0.7,8.1,2.1
	c2.4,1.4,4.3,3.4,5.6,5.9c1.4,2.5,2,5.3,2,8.5L1423.7,108.8z M1408,94.7c-3.1,0-5.8,1-7.9,3c-2.1,2-3.3,4.6-3.6,7.8h23
	c-0.3-3.2-1.5-5.8-3.6-7.8C1413.8,95.7,1411.2,94.7,1408,94.7z"/>
<path class="st0" d="M1433.4,91.2h4.4v14.4h20.4V91.2h4.4v32.5h-4.4v-14.3h-20.4v14.3h-4.4V91.2z"/>
<path class="st0" d="M1503,109.2h-7.4v14.4h-4.4V91.2h4.4v14.3h7.5l11.4-14.3h4.8l-12.8,15.7l13.7,16.7h-5.2L1503,109.2z"/>
<path class="st0" d="M1554.3,108.8h-27.2c0.2,3.4,1.5,6.1,3.9,8.2c2.3,2.1,5.3,3.1,8.9,3.1c2,0,3.9-0.3,5.6-1
	c1.7-0.7,3.1-1.8,4.4-3.2l2.5,2.8c-1.4,1.7-3.2,3-5.4,3.9c-2.1,0.9-4.5,1.4-7.1,1.4c-3.3,0-6.3-0.7-8.9-2.1c-2.6-1.4-4.5-3.4-6-5.9
	c-1.4-2.5-2.2-5.3-2.2-8.5c0-3.2,0.7-6,2-8.5c1.4-2.5,3.3-4.5,5.7-5.9c2.4-1.4,5.1-2.1,8.2-2.1c3,0,5.7,0.7,8.1,2.1
	c2.4,1.4,4.3,3.4,5.6,5.9c1.4,2.5,2,5.3,2,8.5L1554.3,108.8z M1538.6,94.7c-3.1,0-5.8,1-7.9,3c-2.1,2-3.3,4.6-3.6,7.8h23
	c-0.3-3.2-1.5-5.8-3.6-7.8C1544.4,95.7,1541.8,94.7,1538.6,94.7z"/>
<path class="st0" d="M1564.1,91.2h4.4v14.4h20.4V91.2h4.4v32.5h-4.4v-14.3h-20.4v14.3h-4.4V91.2z M1598.5,119.8v10.9h-4.1v-7.1h-5.5
	v-3.8H1598.5z"/>
<path class="st0" d="M1635.3,108.8h-27.2c0.2,3.4,1.5,6.1,3.9,8.2c2.3,2.1,5.3,3.1,8.9,3.1c2,0,3.9-0.3,5.6-1
	c1.7-0.7,3.1-1.8,4.4-3.2l2.5,2.8c-1.4,1.7-3.2,3-5.4,3.9c-2.1,0.9-4.5,1.4-7.1,1.4c-3.3,0-6.3-0.7-8.9-2.1c-2.6-1.4-4.5-3.4-6-5.9
	c-1.4-2.5-2.2-5.3-2.2-8.5c0-3.2,0.7-6,2-8.5c1.4-2.5,3.3-4.5,5.7-5.9c2.4-1.4,5.1-2.1,8.2-2.1c3,0,5.7,0.7,8.1,2.1
	c2.4,1.4,4.3,3.4,5.6,5.9c1.4,2.5,2,5.3,2,8.5L1635.3,108.8z M1619.6,94.7c-3.1,0-5.8,1-7.9,3c-2.1,2-3.3,4.6-3.6,7.8h23
	c-0.3-3.2-1.5-5.8-3.7-7.8C1625.4,95.7,1622.8,94.7,1619.6,94.7z"/>
<path class="st0" d="M1658.6,124c-3.2,0-6.1-0.7-8.6-2.1c-2.5-1.4-4.5-3.4-5.9-5.9c-1.4-2.6-2.2-5.4-2.2-8.6c0-3.2,0.7-6,2.2-8.5
	c1.4-2.5,3.4-4.5,5.9-5.9c2.6-1.4,5.4-2.1,8.6-2.1c2.8,0,5.3,0.6,7.5,1.7c2.2,1.1,4,2.7,5.2,4.8l-3.3,2.2c-1.1-1.6-2.4-2.8-4.1-3.6
	c-1.6-0.8-3.4-1.2-5.4-1.2c-2.3,0-4.5,0.5-6.3,1.6c-1.8,1-3.3,2.5-4.4,4.4c-1,1.9-1.5,4.1-1.5,6.6c0,2.5,0.5,4.7,1.5,6.7
	c1.1,1.9,2.5,3.4,4.4,4.4c1.9,1,4,1.5,6.3,1.5c1.9,0,3.7-0.4,5.4-1.2c1.7-0.8,3-2,4.1-3.6l3.3,2.2c-1.3,2.1-3,3.7-5.2,4.8
	C1663.9,123.4,1661.4,124,1658.6,124z"/>
<path class="st0" d="M1691.6,109.2h-7.4v14.4h-4.4V91.2h4.4v14.3h7.5l11.4-14.3h4.8l-12.8,15.7l13.7,16.7h-5.2L1691.6,109.2z"/>
<path class="st0" d="M1742.9,108.8h-27.2c0.2,3.4,1.5,6.1,3.9,8.2c2.3,2.1,5.3,3.1,8.9,3.1c2,0,3.9-0.3,5.5-1
	c1.7-0.7,3.2-1.8,4.4-3.2l2.5,2.8c-1.4,1.7-3.2,3-5.4,3.9c-2.1,0.9-4.5,1.4-7.1,1.4c-3.3,0-6.3-0.7-8.9-2.1c-2.6-1.4-4.6-3.4-6-5.9
	c-1.4-2.5-2.2-5.3-2.2-8.5c0-3.2,0.7-6,2-8.5c1.4-2.5,3.3-4.5,5.7-5.9c2.4-1.4,5.1-2.1,8.1-2.1s5.7,0.7,8.1,2.1
	c2.4,1.4,4.2,3.4,5.6,5.9c1.4,2.5,2,5.3,2,8.5L1742.9,108.8z M1727.2,94.7c-3.1,0-5.8,1-7.9,3c-2.1,2-3.3,4.6-3.6,7.8h23
	c-0.3-3.2-1.5-5.8-3.6-7.8C1733.1,95.7,1730.4,94.7,1727.2,94.7z"/>
<path class="st0" d="M1752.7,91.2h4.4v14.4h20.4V91.2h4.4v32.5h-4.4v-14.3h-20.4v14.3h-4.4V91.2z"/>
<path class="st0" d="M1838.9,109.2h-7v14.4h-4.4v-14.4h-7l-9.9,14.4h-5.2l11.7-16.7l-10.7-15.7h4.8l9.5,14.3h7V91.2h4.4v14.3h7
	l9.6-14.3h4.8l-10.7,15.8l11.7,16.7h-5.2L1838.9,109.2z"/>
<path class="st0" d="M1874,91c3.2,0,6.1,0.7,8.6,2.1c2.5,1.4,4.5,3.4,6,5.9c1.5,2.5,2.2,5.3,2.2,8.5c0,3.2-0.8,6-2.2,8.5
	c-1.4,2.5-3.4,4.5-6,5.9c-2.6,1.4-5.4,2.1-8.6,2.1s-6.1-0.7-8.7-2.1c-2.6-1.4-4.6-3.4-6-5.9c-1.4-2.5-2.2-5.3-2.2-8.5
	c0-3.2,0.7-6,2.2-8.5c1.4-2.5,3.4-4.5,6-5.9C1867.9,91.7,1870.8,91,1874,91z M1874,94.5c-3.4,0-6.3,1-8.6,3.1
	c-2.3,2.1-3.6,4.8-3.9,8.2h25.2c-0.4-3.4-1.7-6.2-4-8.2C1880.3,95.5,1877.4,94.5,1874,94.5z M1874,120.4c3.4,0,6.3-1,8.6-3.1
	c2.3-2.1,3.7-4.9,4-8.3h-25.2c0.3,3.4,1.6,6.2,3.9,8.3C1867.7,119.3,1870.6,120.4,1874,120.4z"/>
<path class="st0" d="M1900.2,91.2h4.4v14.4h20.4V91.2h4.4v32.5h-4.4v-14.3h-20.4v14.3h-4.4V91.2z"/>
</svg>
