<?xml version="1.0" encoding="utf-8"?>
<!-- Generator: Adobe Illustrator 25.2.3, SVG Export Plug-In . SVG Version: 6.00 Build 0)  -->
<svg version="1.1" id="Layer_1" xmlns="http://www.w3.org/2000/svg" xmlns:xlink="http://www.w3.org/1999/xlink" x="0px" y="0px"
	 viewBox="0 0 260.4 24.8" style="enable-background:new 0 0 260.4 24.8;" xml:space="preserve">
<style type="text/css">
	.st0{fill:#060315;}
</style>
<path class="st0" d="M0,20v-3l0.6,0c0.8,0,1.4-0.3,1.8-0.8c0.5-0.5,0.8-1.3,1-2.4c0.2-1.1,0.4-2.6,0.4-4.5l0.3-9.1h13V20h-3.5V3.1
	H7.5l-0.3,7.2c-0.1,2.2-0.3,4-0.7,5.4c-0.4,1.4-1,2.5-1.9,3.2C3.7,19.7,2.5,20,1,20H0z M24.7,20.3c-0.9,0-1.8-0.2-2.6-0.5
	c-0.8-0.3-1.3-0.8-1.8-1.5c-0.4-0.7-0.7-1.5-0.7-2.5c0-0.8,0.2-1.5,0.5-2.1c0.3-0.5,0.7-1,1.3-1.3c0.5-0.3,1.1-0.6,1.8-0.7
	c0.7-0.2,1.4-0.3,2.1-0.4c0.9-0.1,1.6-0.2,2.1-0.2c0.5-0.1,0.9-0.2,1.2-0.3c0.3-0.2,0.4-0.4,0.4-0.7V9.9c0-0.7-0.2-1.3-0.7-1.7
	c-0.4-0.4-1.1-0.6-1.9-0.6c-0.9,0-1.5,0.2-2,0.6c-0.5,0.4-0.8,0.8-1,1.3L20.2,9c0.3-0.9,0.7-1.7,1.3-2.3c0.6-0.6,1.3-1.1,2.2-1.4
	c0.9-0.3,1.8-0.5,2.9-0.5c0.7,0,1.4,0.1,2.1,0.3c0.7,0.2,1.4,0.4,2,0.8c0.6,0.4,1.1,0.9,1.4,1.6c0.4,0.7,0.5,1.5,0.5,2.5v10h-3.4v-2
	H29c-0.2,0.4-0.5,0.8-0.9,1.2c-0.4,0.4-0.9,0.6-1.4,0.9C26.1,20.2,25.4,20.3,24.7,20.3z M25.6,17.7c0.7,0,1.3-0.1,1.8-0.4
	c0.5-0.3,0.9-0.7,1.2-1.1c0.3-0.5,0.4-1,0.4-1.5v-1.8c-0.1,0.1-0.3,0.2-0.6,0.3c-0.3,0.1-0.5,0.1-0.9,0.2c-0.3,0.1-0.6,0.1-1,0.2
	c-0.3,0-0.6,0.1-0.8,0.1c-0.5,0.1-1,0.2-1.4,0.3c-0.4,0.2-0.7,0.4-1,0.7c-0.2,0.3-0.4,0.7-0.4,1.1c0,0.6,0.2,1.1,0.7,1.5
	C24.3,17.6,24.9,17.7,25.6,17.7z M38.9,15.3l6-10.1h3.6V20h-3.4V9.9L39.1,20h-3.6V5.1h3.4V15.3z M43.9,0h2.6c0,1.1-0.4,2.1-1.2,2.8
	c-0.8,0.7-1.9,1-3.3,1c-1.4,0-2.5-0.3-3.3-1c-0.8-0.7-1.2-1.6-1.2-2.8h2.6c0,0.5,0.1,0.9,0.4,1.3c0.3,0.4,0.8,0.5,1.5,0.5
	c0.7,0,1.2-0.2,1.5-0.5C43.8,0.9,43.9,0.5,43.9,0z M53.9,10h4.4c1.9,0,3.4,0.5,4.4,1.4c1,0.9,1.6,2.1,1.6,3.6c0,1-0.2,1.8-0.7,2.6
	c-0.5,0.8-1.1,1.4-2,1.8c-0.9,0.4-2,0.6-3.2,0.6h-6.8V5.1h3.4v12h3.4c0.8,0,1.4-0.2,1.9-0.6c0.5-0.4,0.7-0.9,0.7-1.5
	c0-0.6-0.2-1.2-0.7-1.6c-0.5-0.4-1.1-0.6-1.9-0.6h-4.4V10z M66.2,20V5.1h3.5V20H66.2z M72.7,20V5.1h3.5v6h1.3l4.5-6h4.2l-5.5,7.3
	l5.6,7.6h-4.2L78,14.4h-1.7V20H72.7z M87.7,17.4v7.4h-3.4v-7.4H87.7z M89.1,8V5.1h13V8h-4.8v12h-3.4V8H89.1z M106.8,10h4.4
	c1.9,0,3.4,0.5,4.4,1.4c1,0.9,1.6,2.1,1.6,3.6c0,1-0.2,1.8-0.7,2.6c-0.5,0.8-1.1,1.4-2,1.8c-0.9,0.4-2,0.6-3.2,0.6h-6.8V5.1h3.4v12
	h3.4c0.8,0,1.4-0.2,1.9-0.6c0.5-0.4,0.7-0.9,0.7-1.5c0-0.6-0.2-1.2-0.7-1.6c-0.5-0.4-1.1-0.6-1.9-0.6h-4.4V10z M119,20V5.1h3.5V20
	H119z M132.1,20.3c-1.5,0-2.8-0.3-3.8-1c-1.1-0.7-1.9-1.6-2.5-2.7c-0.6-1.2-0.9-2.5-0.9-4c0-1.5,0.3-2.8,0.9-4
	c0.6-1.2,1.4-2.1,2.5-2.7c1.1-0.7,2.3-1,3.8-1c1.2,0,2.3,0.2,3.2,0.7c0.9,0.4,1.7,1.1,2.2,1.9c0.6,0.8,0.9,1.7,1,2.8h-3.4
	c-0.1-0.7-0.5-1.3-1-1.8c-0.5-0.5-1.2-0.7-2-0.7c-0.7,0-1.3,0.2-1.9,0.6c-0.5,0.4-1,0.9-1.3,1.6c-0.3,0.7-0.4,1.6-0.4,2.6
	c0,1,0.1,1.9,0.4,2.6c0.3,0.7,0.7,1.3,1.3,1.7c0.5,0.4,1.2,0.6,1.9,0.6c0.5,0,1-0.1,1.4-0.3c0.4-0.2,0.8-0.5,1-0.9
	c0.3-0.4,0.5-0.8,0.6-1.4h3.4c-0.1,1.1-0.4,2-0.9,2.8c-0.5,0.8-1.3,1.4-2.2,1.9C134.4,20.1,133.3,20.3,132.1,20.3z M143.2,10h4.4
	c1.9,0,3.4,0.5,4.4,1.4c1,0.9,1.6,2.1,1.6,3.6c0,1-0.2,1.8-0.7,2.6c-0.5,0.8-1.1,1.4-2,1.8c-0.9,0.4-2,0.6-3.2,0.6h-6.8V5.1h3.4v12
	h3.4c0.8,0,1.4-0.2,1.9-0.6c0.5-0.4,0.7-0.9,0.7-1.5c0-0.6-0.2-1.2-0.7-1.6c-0.5-0.4-1.1-0.6-1.9-0.6h-4.4V10z M155.4,20V5.1h3.5V20
	H155.4z M172.2,11.1V14h-7.9v-2.9H172.2z M165.4,5.1V20H162V5.1H165.4z M174.5,5.1V20h-3.4V5.1H174.5z M183,8V5.1h13V8h-4.8v12h-3.4
	V8H183z M201.9,20.3c-0.9,0-1.8-0.2-2.6-0.5c-0.8-0.3-1.3-0.8-1.8-1.5c-0.4-0.7-0.7-1.5-0.7-2.5c0-0.8,0.2-1.5,0.5-2.1
	c0.3-0.5,0.7-1,1.3-1.3c0.5-0.3,1.1-0.6,1.8-0.7c0.7-0.2,1.4-0.3,2.1-0.4c0.9-0.1,1.6-0.2,2.1-0.2c0.5-0.1,0.9-0.2,1.2-0.3
	c0.3-0.2,0.4-0.4,0.4-0.7V9.9c0-0.7-0.2-1.3-0.6-1.7c-0.4-0.4-1.1-0.6-1.9-0.6c-0.9,0-1.5,0.2-2,0.6c-0.5,0.4-0.8,0.8-1,1.3L197.4,9
	c0.3-0.9,0.7-1.7,1.3-2.3c0.6-0.6,1.3-1.1,2.2-1.4c0.9-0.3,1.8-0.5,2.9-0.5c0.7,0,1.4,0.1,2.1,0.3c0.7,0.2,1.4,0.4,1.9,0.8
	c0.6,0.4,1.1,0.9,1.4,1.6c0.4,0.7,0.5,1.5,0.5,2.5v10h-3.4v-2h-0.1c-0.2,0.4-0.5,0.8-0.9,1.2c-0.4,0.4-0.9,0.6-1.4,0.9
	C203.4,20.2,202.7,20.3,201.9,20.3z M202.8,17.7c0.7,0,1.3-0.1,1.8-0.4c0.5-0.3,0.9-0.7,1.2-1.1c0.3-0.5,0.4-1,0.4-1.5v-1.8
	c-0.1,0.1-0.3,0.2-0.6,0.3c-0.3,0.1-0.6,0.1-0.9,0.2c-0.3,0.1-0.6,0.1-1,0.2c-0.3,0-0.6,0.1-0.8,0.1c-0.5,0.1-1,0.2-1.4,0.3
	c-0.4,0.2-0.7,0.4-1,0.7c-0.2,0.3-0.4,0.7-0.4,1.1c0,0.6,0.2,1.1,0.7,1.5C201.5,17.6,202.1,17.7,202.8,17.7z M223,11.1V14h-7.9v-2.9
	H223z M216.2,5.1V20h-3.4V5.1H216.2z M225.3,5.1V20h-3.4V5.1H225.3z M228.7,17.4v7.4h-3.4v-7.4H228.7z M229.6,24.4v-7.2h1.2
	c0.3-0.2,0.6-0.6,0.8-1c0.2-0.4,0.4-0.9,0.5-1.5c0.1-0.6,0.3-1.2,0.4-2c0.1-0.7,0.2-1.5,0.2-2.3l0.4-5.2h10.8v12h2.3v7.2h-3.4V20
	h-9.8v4.3H229.6z M234.4,17.1h6.1V8h-4.4l-0.2,2.4c-0.1,1.6-0.3,2.9-0.5,4.1C235.2,15.5,234.9,16.4,234.4,17.1z M252.6,20.3
	c-0.9,0-1.8-0.2-2.6-0.5c-0.8-0.3-1.3-0.8-1.8-1.5c-0.4-0.7-0.7-1.5-0.7-2.5c0-0.8,0.2-1.5,0.5-2.1c0.3-0.5,0.7-1,1.3-1.3
	c0.5-0.3,1.1-0.6,1.8-0.7c0.7-0.2,1.4-0.3,2.1-0.4c0.9-0.1,1.6-0.2,2.1-0.2c0.5-0.1,0.9-0.2,1.2-0.3c0.3-0.2,0.4-0.4,0.4-0.7V9.9
	c0-0.7-0.2-1.3-0.7-1.7c-0.4-0.4-1.1-0.6-1.9-0.6c-0.9,0-1.5,0.2-2,0.6c-0.5,0.4-0.8,0.8-1,1.3L248.1,9c0.3-0.9,0.7-1.7,1.3-2.3
	c0.6-0.6,1.3-1.1,2.2-1.4c0.9-0.3,1.8-0.5,2.9-0.5c0.7,0,1.4,0.1,2.1,0.3c0.7,0.2,1.4,0.4,1.9,0.8c0.6,0.4,1.1,0.9,1.4,1.6
	c0.4,0.7,0.5,1.5,0.5,2.5v10h-3.4v-2H257c-0.2,0.4-0.5,0.8-0.9,1.2c-0.4,0.4-0.9,0.6-1.4,0.9C254,20.2,253.4,20.3,252.6,20.3z
	 M253.5,17.7c0.7,0,1.3-0.1,1.8-0.4c0.5-0.3,0.9-0.7,1.2-1.1c0.3-0.5,0.4-1,0.4-1.5v-1.8c-0.1,0.1-0.3,0.2-0.6,0.3
	c-0.3,0.1-0.6,0.1-0.9,0.2c-0.3,0.1-0.6,0.1-1,0.2c-0.3,0-0.6,0.1-0.8,0.1c-0.5,0.1-1,0.2-1.4,0.3c-0.4,0.2-0.7,0.4-1,0.7
	c-0.2,0.3-0.4,0.7-0.4,1.1c0,0.6,0.2,1.1,0.7,1.5C252.2,17.6,252.8,17.7,253.5,17.7z"/>
</svg>
