<svg xmlns="http://www.w3.org/2000/svg" viewBox="0 0 259.9 170.2" style="enable-background:new 0 0 259.9 170.2" xml:space="preserve"><path d="M170.2 76.1c-.4.6-.6 1.4-.6 2.2 0 .8.2 1.5.6 2.2.4.6.9 1.1 1.6 1.5.7.4 1.4.5 2.3.5.8 0 1.6-.2 2.3-.5.7-.4 1.2-.9 1.6-1.5.4-.6.6-1.4.6-2.2 0-.8-.2-1.5-.6-2.2-.4-.6-.9-1.1-1.6-1.5-.7-.4-1.4-.5-2.3-.5-.8 0-1.6.2-2.3.5-.7.4-1.2.9-1.6 1.5zm2.1.3c.5-.5 1.1-.7 1.8-.7s1.3.2 1.8.7c.5.5.7 1.1.7 1.9 0 .8-.2 1.4-.7 1.9-.5.5-1.1.7-1.8.7s-1.3-.2-1.8-.7c-.5-.5-.7-1.1-.7-1.9 0-.8.2-1.4.7-1.9zm-49.1 6.1h1.9v-6.7h2.9v-1.6h-7.7v1.6h2.9zm-53.3-.8c.6-.5.9-1.2.9-2.1 0-.9-.3-1.5-.8-2-.6-.5-1.4-.7-2.4-.7h-2.1v-2.7h-1.9v8.3h3.7c1.1 0 2-.3 2.6-.8zm-4.4-.7v-2.8h1.6c.6 0 1 .1 1.3.3.3.2.4.6.4 1 0 .5-.1.8-.4 1.1-.3.2-.7.4-1.3.4h-1.6zm-26.2 1c.7-.4 1.2-.9 1.6-1.5.4-.6.6-1.4.6-2.2 0-.8-.2-1.5-.6-2.2-.4-.6-.9-1.1-1.6-1.5-.7-.4-1.4-.5-2.3-.5-.8 0-1.6.2-2.3.5-.7.4-1.2.9-1.6 1.5-.4.6-.6 1.4-.6 2.2 0 .8.2 1.5.6 2.2.4.6.9 1.1 1.6 1.5.7.4 1.4.5 2.3.5.8.1 1.6-.1 2.3-.5zm-4.8-3.7c0-.8.2-1.4.7-1.9.5-.5 1.1-.7 1.8-.7s1.3.2 1.8.7c.5.5.7 1.1.7 1.9 0 .8-.2 1.4-.7 1.9-.5.5-1.1.7-1.8.7s-1.3-.2-1.8-.7c-.4-.5-.7-1.1-.7-1.9zm66.6-4.1v11.3h1.9v-4c.6.7 1.5 1.1 2.6 1.1.8 0 1.5-.2 2.2-.5.6-.4 1.1-.8 1.5-1.5.4-.6.5-1.4.5-2.2 0-.8-.2-1.6-.5-2.2-.4-.6-.9-1.1-1.5-1.5-.6-.4-1.3-.5-2.2-.5-.6 0-1.1.1-1.6.3-.5.2-.9.5-1.2.9v-1.1h-1.7zm2.2 2.8c.2-.4.5-.7.9-.9.4-.2.8-.3 1.3-.3.7 0 1.3.2 1.7.7.5.5.7 1.1.7 1.9 0 .8-.2 1.4-.7 1.9-.5.5-1 .7-1.7.7-.5 0-.9-.1-1.3-.3-.4-.2-.7-.5-.9-.9-.2-.4-.3-.8-.3-1.4 0-.6.1-1.1.3-1.4zm-83.7 5.1c.6-.3 1.1-.8 1.4-1.4l-1.5-.9c-.2.4-.5.7-.9.9-.4.2-.7.3-1.2.3-.7 0-1.3-.2-1.8-.7-.5-.5-.7-1.1-.7-1.9s.2-1.4.7-1.9c.5-.5 1.1-.7 1.8-.7.4 0 .8.1 1.2.3.4.2.7.5.9.9l1.5-1c-.3-.6-.8-1.1-1.4-1.4-.6-.3-1.3-.5-2.1-.5-.9 0-1.6.2-2.3.5-.7.4-1.2.9-1.6 1.5-.4.6-.6 1.4-.6 2.2 0 .8.2 1.5.6 2.2.4.6.9 1.1 1.6 1.5.7.4 1.4.5 2.3.5.8.1 1.5-.1 2.1-.4zm78.8.4v-8.3h-7.9v8.3h2v-6.7h4v6.7zm-43.6-3.3H59v3.3h1.9v-8.3H59v3.3h-4.2v-3.3h-1.9v8.3h1.9zm17.1-5h1.9v8.3h-1.9zm5.9 7.8c.7.4 1.5.5 2.4.5.7 0 1.4-.1 1.9-.3.6-.2 1-.6 1.4-1l-1-1.2c-.6.6-1.3.9-2.2.9-.7 0-1.3-.2-1.8-.5-.5-.4-.8-.8-.9-1.5h6.5v-.6c0-.8-.2-1.6-.5-2.2-.4-.6-.8-1.2-1.5-1.5-.6-.4-1.3-.5-2.2-.5-.8 0-1.5.2-2.2.5-.6.4-1.2.9-1.5 1.5-.4.6-.5 1.4-.5 2.2 0 .8.2 1.5.6 2.2.3.7.9 1.2 1.5 1.5zm.6-5.8c.4-.4 1-.6 1.6-.6.6 0 1.2.2 1.6.6.4.4.7.9.8 1.5h-4.7c0-.7.2-1.1.7-1.5zM50 81.8c.6-.4.8-1 .8-1.7 0-1-.5-1.7-1.5-2 .4-.2.7-.4.9-.7.2-.3.3-.7.3-1.1 0-.7-.3-1.2-.9-1.6-.6-.4-1.4-.6-2.4-.6h-4v8.3h4.2c1.2.1 2-.2 2.6-.6zm-4.8-6.2h2c1 0 1.5.3 1.5 1s-.5 1-1.5 1h-2v-2zm0 5.4v-2.1h2.3c.5 0 .9.1 1.2.3.2.2.4.4.4.8 0 .7-.5 1-1.6 1h-2.3zm68 1c.7.4 1.4.5 2.3.5.8 0 1.6-.2 2.3-.5.7-.4 1.2-.9 1.6-1.5.4-.6.6-1.4.6-2.2 0-.8-.2-1.5-.6-2.2-.4-.6-.9-1.1-1.6-1.5-.7-.4-1.4-.5-2.3-.5-.8 0-1.6.2-2.3.5-.7.4-1.2.9-1.6 1.5-.4.6-.6 1.4-.6 2.2 0 .8.2 1.5.6 2.2.4.7.9 1.2 1.6 1.5zm.5-5.6c.5-.5 1.1-.7 1.8-.7s1.3.2 1.8.7c.5.5.7 1.1.7 1.9 0 .8-.2 1.4-.7 1.9-.5.5-1.1.7-1.8.7s-1.3-.2-1.8-.7c-.5-.5-.7-1.1-.7-1.9 0-.8.2-1.4.7-1.9zm-84.9 6.1h1.9v-8.3h-1.9v3.3h-4.2v-3.3h-1.9v8.3h1.9v-3.3h4.2zm127-.5c.7-.4 1.2-.9 1.6-1.5.4-.6.6-1.4.6-2.2 0-.8-.2-1.5-.6-2.2-.4-.6-.9-1.1-1.6-1.5-.7-.4-1.4-.5-2.3-.5-.8 0-1.6.2-2.3.5-.7.4-1.2.9-1.6 1.5-.4.6-.6 1.4-.6 2.2 0 .8.2 1.5.6 2.2.4.6.9 1.1 1.6 1.5.7.4 1.4.5 2.3.5.9.1 1.6-.1 2.3-.5zm-4.7-3.7c0-.8.2-1.4.7-1.9.5-.5 1.1-.7 1.8-.7s1.3.2 1.8.7c.5.5.7 1.1.7 1.9 0 .8-.2 1.4-.7 1.9-.5.5-1.1.7-1.8.7s-1.3-.2-1.8-.7c-.5-.5-.7-1.1-.7-1.9zm16.7 4.2v-8.3h-8v8.3h2v-6.7h4.1v6.7zm57 0v-8.3h-2v3.3h-4.1v-3.3h-2v8.3h2v-3.3h4.1v3.3zM2.9 81.9c.9.5 1.9.7 3 .7s2.1-.2 3-.7c.9-.5 1.6-1.2 2.1-2s.8-1.8.8-2.9-.3-2-.8-2.9c-.5-.8-1.2-1.5-2.1-2-.9-.5-1.9-.7-3-.7s-2.1.2-3 .7c-.9.5-1.6 1.1-2.1 2C.3 75 0 76 0 77c0 1.1.3 2 .8 2.9.5.8 1.2 1.5 2.1 2zm-.4-6.8c.3-.6.8-1 1.4-1.4.6-.3 1.2-.5 1.9-.5s1.4.2 1.9.5c.6.3 1 .8 1.4 1.4.3.6.5 1.2.5 1.9s-.2 1.4-.5 2c-.3.6-.8 1-1.4 1.4-.6.3-1.2.5-1.9.5s-1.4-.2-1.9-.5c-.6-.3-1-.8-1.4-1.4-.3-.6-.5-1.2-.5-2 0-.7.2-1.3.5-1.9zm190.1 2.5c-1.2 0-2.1.2-2.6.7-.5.4-.8 1-.8 1.8 0 .5.1.9.4 1.3.3.4.6.7 1.1.9.5.2 1 .3 1.6.3s1.1-.1 1.6-.3c.4-.2.8-.5 1-.8v1h1.8v-4.8c0-1.2-.3-2.1-1-2.6-.6-.6-1.6-.9-2.8-.9-.7 0-1.3.1-1.9.3-.6.2-1.1.4-1.6.8l.8 1.4c.3-.3.7-.5 1.1-.6.5-.1.9-.2 1.4-.2.7 0 1.2.2 1.5.5.4.3.5.8.5 1.3v.1h-2.1zm2.1 2.3c-.2.4-.4.7-.8 1-.4.2-.8.3-1.3.3s-.9-.1-1.2-.3c-.3-.2-.4-.5-.4-.8 0-.7.6-1.1 1.7-1.1h2v.9zm53.7-3.2c.4 0 .7-.1.9-.4.2-.2.4-.6.4-.9 0-.4-.1-.7-.4-.9-.2-.2-.5-.4-.9-.4s-.7.1-.9.4c-.2.2-.4.5-.4.9s.1.7.4.9c.2.2.5.4.9.4zm-12.8 5.8v-8.3h-1.8l-4.5 5.4v-5.4h-1.9v8.3h1.7l4.6-5.5v5.5zm11.9-.3c.2.2.5.4.9.4s.7-.1.9-.4c.2-.2.4-.6.4-.9 0-.4-.1-.7-.4-.9-.2-.2-.5-.4-.9-.4s-.7.1-.9.4c-.2.2-.4.5-.4.9 0 .3.1.7.4.9zm-2.3.3v-8.3h-3.8c-1.2 0-2.1.3-2.8.8-.7.5-1 1.2-1 2.2 0 .6.2 1.2.5 1.6.3.4.8.7 1.4.9l-1.9 2.8h2.1l1.7-2.5h2.2v2.5h1.6zm-3.8-3.9c-1.2 0-1.8-.5-1.8-1.4 0-.9.6-1.4 1.9-1.4h2v2.8h-2.1zm-55.1-4.4-2.4 3.3h-1.6v-3.3h-1.9v8.3h1.9v-3.4h1.5l2.5 3.4h2.3l-3.2-4.3 3-4zm-56.9 0v8.3h1.8l4.5-5.5v5.5h2v-8.3h-1.8l-4.6 5.4v-5.4zm80.9 3.4c-1.2 0-2.1.2-2.6.7-.5.4-.8 1-.8 1.8 0 .5.1.9.4 1.3.3.4.6.7 1.1.9.5.2 1 .3 1.6.3s1.1-.1 1.6-.3c.4-.2.8-.5 1-.8v1h1.8v-4.8c0-1.2-.3-2.1-1-2.6-.6-.6-1.6-.9-2.8-.9-.7 0-1.3.1-1.9.3-.6.2-1.1.4-1.6.8l.8 1.4c.3-.3.7-.5 1.1-.6.5-.1.9-.2 1.4-.2.7 0 1.2.2 1.5.5.4.3.5.8.5 1.3v.1h-2.1zm2.1 2.3c-.2.4-.4.7-.8 1-.4.2-.8.3-1.3.3s-.9-.1-1.2-.3c-.3-.2-.4-.5-.4-.8 0-.7.6-1.1 1.7-1.1h2v.9zm-9.4.8c-.4.2-.9.3-1.5.3-.5 0-1-.1-1.5-.2s-1-.3-1.4-.5l-.6 1.4c.5.3 1 .5 1.7.6.6.1 1.2.2 1.9.2.8 0 1.4-.1 2-.3.6-.2 1.1-.5 1.4-.9.3-.4.5-.8.5-1.3s-.1-.8-.4-1.2c-.3-.3-.7-.6-1.2-.7.4-.2.8-.4 1-.7.2-.3.4-.7.4-1.1 0-.4-.2-.8-.5-1.2-.3-.4-.7-.6-1.3-.8-.6-.2-1.2-.3-1.9-.3-1.1 0-2.2.3-3.3.8l.5 1.4c.9-.4 1.8-.6 2.6-.6.6 0 1 .1 1.4.3.3.2.5.4.5.7 0 .3-.1.5-.4.7-.3.2-.6.2-1.1.2h-1.5v1.3h1.6c.5 0 .9.1 1.2.3.3.2.4.4.4.7 0 .4-.2.7-.5.9zm-55.8-3.3c.2-.3.3-.7.3-1.1 0-.7-.3-1.2-.9-1.6-.6-.4-1.4-.6-2.4-.6h-4v8.3h4.2c1.1 0 1.9-.2 2.5-.6s.8-1 .8-1.7c0-1-.5-1.7-1.5-2 .5-.1.8-.4 1-.7zm-5.1-1.8h2c1 0 1.5.3 1.5 1s-.5 1-1.5 1h-2v-2zm2.2 5.4h-2.2v-2.1h2.3c.5 0 .9.1 1.2.3.2.2.4.4.4.8-.1.7-.6 1-1.7 1zm-10.6 32.5h1v-7.4h-1v3.2h-4.6v-3.2h-1v7.4h1v-3.3h4.6zm50.8 46.5c-.6 0-1.1.1-1.7.3-.5.2-1 .4-1.3.7l.4.7c.3-.3.7-.5 1.1-.6.4-.2.9-.2 1.3-.2.7 0 1.2.2 1.6.5.4.3.5.8.5 1.4v.4h-2.3c-1 0-1.7.2-2.2.6-.4.4-.7.9-.7 1.5s.2 1.2.7 1.6c.5.4 1.1.6 2 .6.6 0 1.1-.1 1.5-.3.4-.2.8-.5 1-.9v1.1h1v-4.6c0-.9-.3-1.7-.8-2.1-.4-.4-1.1-.7-2.1-.7zm2 5.2c-.2.5-.5.9-.9 1.1-.4.3-.9.4-1.4.4-.6 0-1-.1-1.4-.4-.3-.3-.5-.6-.5-1 0-.9.6-1.3 1.9-1.3h2.3v1.2zm20.1-19h4.6v3.3h1v-7.4h-1v3.2h-4.6v-3.2h-1v7.4h1zm-37.5-.6c.4-.1.7-.4.9-.6.2-.3.3-.6.3-1 0-.6-.2-1.1-.7-1.4-.5-.3-1.1-.5-2-.5h-3.2v7.4h3.3c.9 0 1.7-.2 2.1-.5.5-.3.7-.8.7-1.5.1-1-.4-1.6-1.4-1.9zm-3.7-2.7h2.2c.6 0 1 .1 1.3.3.3.2.5.5.5.9s-.2.7-.5.9c-.3.2-.7.3-1.3.3h-2.2v-2.4zm3.8 5.5c-.3.2-.8.3-1.4.3h-2.3v-2.6h2.4c.6 0 1.1.1 1.4.3.3.2.4.5.4 1 0 .4-.2.8-.5 1zm-73.5-39.1c-.5-.4-1.2-.6-2.1-.6h-2.2v-2.6h-1v7.4h3c1 0 1.7-.2 2.2-.6.5-.4.8-1 .8-1.8s-.2-1.4-.7-1.8zm-.8 3c-.3.3-.9.4-1.5.4h-1.9v-3.3h1.9c.7 0 1.2.1 1.6.4.3.3.5.7.5 1.2-.1.6-.3 1-.6 1.3zm28.7 17.8c.3.5.7.8 1.2 1.1.5.2 1 .4 1.6.4.7 0 1.3-.2 1.9-.5.6-.3 1-.8 1.3-1.3.3-.6.5-1.2.5-2 0-.7-.2-1.4-.5-1.9-.3-.6-.8-1-1.3-1.3-.6-.3-1.2-.5-1.9-.5-.6 0-1.2.1-1.7.4-.5.3-.9.6-1.2 1.1v-1.5h-1v10.1h1v-4.1zm.4-3.8c.2-.4.6-.8 1-1 .4-.2.9-.4 1.4-.4.5 0 1 .1 1.4.4.4.2.7.6 1 1 .2.4.4.9.4 1.5s-.1 1.1-.4 1.5c-.2.4-.6.8-1 1-.4.2-.9.3-1.4.3-.5 0-1-.1-1.4-.3-.4-.2-.7-.6-1-1-.2-.4-.3-.9-.3-1.5s0-1.1.3-1.5zm-15.9 5.2c.7 0 1.4-.2 1.9-.5.6-.3 1-.7 1.3-1.3.3-.6.5-1.2.5-1.9s-.1-1.3-.4-1.9c-.3-.6-.7-1-1.3-1.3-.5-.3-1.1-.5-1.8-.5s-1.3.2-1.8.5-.9.8-1.2 1.3c0-1.2.3-2 .8-2.6.5-.6 1.3-1 2.3-1.2l3.1-.7-.2-.9-3.3.8c-1.3.3-2.2.9-2.8 1.7-.6.8-.9 2-.9 3.6 0 1.5.3 2.7 1 3.6.7.9 1.6 1.3 2.8 1.3zm-2.3-5c.2-.4.6-.7 1-1 .4-.2.9-.3 1.4-.3s1 .1 1.4.3c.4.2.7.5 1 1s.3.9.3 1.4c0 .5-.1 1-.3 1.5-.2.4-.5.8-1 1-.4.2-.9.3-1.4.3s-1-.1-1.4-.3c-.4-.2-.7-.6-1-1-.2-.4-.3-.9-.3-1.5 0-.5.1-1 .3-1.4zm-10.3-.5c0-.6-.2-1.1-.7-1.4-.5-.3-1.1-.5-2-.5h-3.2v7.4H93c.9 0 1.7-.2 2.1-.5.5-.3.7-.8.7-1.5 0-1-.5-1.6-1.5-1.8.4-.1.7-.4.9-.6.2-.4.3-.7.3-1.1zm-1.1 2.4c.3.2.4.5.4 1 0 .4-.2.8-.5 1-.3.2-.8.3-1.4.3h-2.3v-2.6H93c.6 0 1.1.1 1.4.3zm-.3-1.4c-.3.2-.7.3-1.3.3h-2.2v-2.5h2.2c.6 0 1 .1 1.3.3.3.2.5.5.5.9s-.2.8-.5 1zm104 22c.6.3 1.3.5 2 .5.6 0 1.1-.1 1.6-.3.5-.2.9-.5 1.2-.9l-.6-.6c-.3.3-.6.6-1 .7-.4.2-.8.2-1.3.2-.8 0-1.5-.2-2-.7-.5-.5-.8-1.1-.9-1.9h6.2v-.3c0-.7-.2-1.4-.5-1.9-.3-.6-.7-1-1.3-1.3-.5-.3-1.2-.5-1.8-.5-.7 0-1.3.2-1.8.5s-1 .8-1.3 1.3c-.3.6-.5 1.2-.5 1.9s.2 1.4.5 1.9c.5.7.9 1.1 1.5 1.4zm0-5.4c.5-.5 1.1-.7 1.8-.7s1.3.2 1.8.7c.5.4.8 1 .8 1.8h-5.2c0-.8.3-1.4.8-1.8zM156.8 113c.6.3 1.3.5 2 .5.6 0 1.1-.1 1.6-.3.5-.2.9-.5 1.2-.9l-.6-.6c-.3.3-.6.6-1 .7-.4.2-.8.2-1.3.2-.8 0-1.5-.2-2-.7-.5-.5-.8-1.1-.9-1.9h6.2v-.3c0-.7-.2-1.4-.5-1.9-.3-.6-.7-1-1.3-1.3-.5-.3-1.2-.5-1.8-.5-.7 0-1.3.2-1.8.5s-1 .8-1.3 1.3c-.3.6-.5 1.2-.5 1.9s.2 1.4.5 1.9c.4.7.9 1.1 1.5 1.4zm-.1-5.4c.5-.5 1.1-.7 1.8-.7s1.3.2 1.8.7c.5.4.8 1 .8 1.8h-5.2c.1-.8.3-1.4.8-1.8zm-48.1-1.3c-.5.2-1 .4-1.3.7l.4.7c.3-.3.7-.5 1.1-.6.4-.2.9-.2 1.3-.2.7 0 1.2.2 1.6.5.4.3.5.8.5 1.4v.4h-2.3c-1 0-1.7.2-2.2.6-.4.4-.7.9-.7 1.5s.2 1.2.7 1.6c.5.4 1.1.6 2 .6.6 0 1.1-.1 1.5-.3.4-.2.8-.5 1-.9v1.1h1v-4.6c0-.9-.3-1.7-.8-2.1-.5-.5-1.3-.7-2.2-.7-.5 0-1 .1-1.6.3zm3.7 4.9c-.2.5-.5.9-.9 1.1-.4.3-.9.4-1.4.4-.6 0-1-.1-1.4-.4-.3-.3-.5-.6-.5-1 0-.9.6-1.3 1.9-1.3h2.3v1.2zm81.3 52.4c.4-.1.8-.4 1-.6.3-.3.4-.6.4-1s-.1-.7-.4-1c-.3-.3-.6-.5-1.1-.7-.4-.2-1-.3-1.5-.3-.9 0-1.9.2-2.7.7l.3.8c.8-.4 1.6-.6 2.4-.6.6 0 1.1.1 1.5.3.4.2.6.5.6.9s-.2.6-.5.9c-.3.2-.8.3-1.3.3H191v.7h1.3c.6 0 1.1.1 1.5.3.4.2.5.5.5.9s-.2.8-.7 1c-.4.3-1 .4-1.7.4-.5 0-.9-.1-1.4-.2-.4-.1-.8-.3-1.2-.6l-.3.7c.4.3.8.5 1.3.7.5.1 1 .2 1.6.2.6 0 1.2-.1 1.7-.3.5-.2.9-.4 1.2-.8.3-.3.4-.7.4-1.1s-.1-.8-.4-1.1c-.3-.2-.7-.4-1.2-.5zm-15.5-3.1c-.6-.3-1.2-.5-1.9-.5-.6 0-1.2.1-1.7.4-.5.3-.9.6-1.2 1.1V160h-1v10.1h1V166c.3.5.7.8 1.2 1.1.5.2 1 .4 1.6.4.7 0 1.3-.2 1.9-.5.6-.3 1-.8 1.3-1.3.3-.6.5-1.2.5-2 0-.7-.2-1.4-.5-1.9-.2-.5-.6-1-1.2-1.3zm.4 4.8c-.2.4-.6.8-1 1-.4.2-.9.3-1.4.3-.5 0-1-.1-1.4-.3-.4-.2-.7-.6-1-1-.2-.4-.3-.9-.3-1.5s.1-1.1.3-1.5c.2-.4.6-.8 1-1 .4-.2.9-.4 1.4-.4.5 0 1 .1 1.4.4.4.2.7.6 1 1 .2.4.4.9.4 1.5s-.1 1-.4 1.5zm1.6-23.2h1v7.4h-1zm-10.2-29c.6-.3 1-.8 1.3-1.3.3-.6.5-1.2.5-2 0-.7-.2-1.4-.5-1.9-.3-.6-.8-1-1.3-1.3-.6-.3-1.2-.5-1.9-.5-.6 0-1.2.1-1.7.4-.5.3-.9.6-1.2 1.1v-1.5h-1v10.1h1v-4.1c.3.5.7.8 1.2 1.1.5.2 1 .4 1.6.4.9-.1 1.5-.2 2-.5zm-3.3-.8c-.4-.2-.7-.6-1-1-.2-.4-.4-.9-.4-1.5s.1-1.1.4-1.5c.2-.4.6-.8 1-1 .4-.2.9-.4 1.4-.4.5 0 1 .1 1.4.4.4.2.7.6 1 1 .2.4.4.9.4 1.5s-.1 1.1-.4 1.5c-.2.4-.6.8-1 1-.4.2-.9.3-1.4.3-.5 0-1-.1-1.4-.3zm9.1 19.2h1v-7.4h-1v3.2H171v-3.2h-.9v7.4h.9v-3.3h4.7zm26.7 29c-.6-.3-1.2-.5-1.9-.5s-1.3.2-1.9.5c-.6.3-1 .8-1.3 1.3-.3.6-.5 1.2-.5 1.9s.2 1.4.5 1.9c.3.6.8 1 1.3 1.3.6.3 1.2.5 1.9.5s1.3-.2 1.9-.5c.6-.3 1-.8 1.3-1.3.3-.6.5-1.2.5-1.9s-.2-1.4-.5-1.9-.7-1-1.3-1.3zm.5 4.8c-.2.4-.6.8-1 1-.4.2-.9.3-1.4.3-.5 0-1-.1-1.4-.3-.4-.2-.7-.6-1-1-.2-.4-.4-.9-.4-1.5s.1-1.1.4-1.5c.2-.4.6-.8 1-1 .4-.2.9-.4 1.4-.4.5 0 1 .1 1.4.4.4.2.7.6 1 1 .2.4.3.9.3 1.5s-.1 1-.3 1.5zm-50.1-51.8v-7.4h-6.6v7.4h1V107h4.6v6.5zm22.1-7c-.5.3-1 .8-1.3 1.3-.3.6-.5 1.2-.5 1.9s.2 1.4.5 1.9c.3.6.8 1 1.4 1.3.6.3 1.3.5 2 .5.6 0 1.1-.1 1.6-.3.5-.2.9-.5 1.2-.9l-.6-.6c-.3.3-.6.6-1 .7-.4.2-.8.2-1.3.2-.8 0-1.5-.2-2-.7-.5-.5-.8-1.1-.9-1.9h6.2v-.3c0-.7-.2-1.4-.5-1.9-.3-.6-.7-1-1.3-1.3-.5-.3-1.2-.5-1.8-.5-.5.1-1.1.3-1.7.6zm4.5 2.8h-5.2c.1-.7.3-1.3.8-1.8s1.1-.7 1.8-.7 1.3.2 1.8.7c.4.5.7 1.1.8 1.8zm1.2 21.7c.6.3 1.2.5 1.9.5s1.3-.2 1.9-.5c.6-.3 1-.8 1.3-1.3.3-.6.5-1.2.5-1.9s-.2-1.4-.5-1.9c-.3-.6-.8-1-1.3-1.3-.6-.3-1.2-.5-1.9-.5s-1.3.2-1.9.5c-.6.3-1 .8-1.3 1.3-.3.6-.5 1.2-.5 1.9s.2 1.4.5 1.9c.3.6.8 1 1.3 1.3zm-.5-4.7c.2-.4.6-.8 1-1 .4-.2.9-.4 1.4-.4s1 .1 1.4.4c.4.2.7.6 1 1 .2.4.3.9.3 1.5s-.1 1.1-.3 1.5c-.2.4-.6.8-1 1-.4.2-.9.3-1.4.3s-1-.1-1.4-.3c-.4-.2-.7-.6-1-1-.2-.4-.4-.9-.4-1.5s.2-1.1.4-1.5zm70.2 34.2c-.6-.3-1.2-.5-1.9-.5-.6 0-1.2.1-1.8.4-.5.3-1 .7-1.3 1.1-.3.5-.5 1-.6 1.7H243V160h-1v7.4h1v-3.3h1.7c.1.7.2 1.2.6 1.7.3.5.8.9 1.3 1.2.5.3 1.1.4 1.8.4s1.3-.2 1.9-.5c.6-.3 1-.8 1.3-1.3.3-.6.5-1.2.5-1.9s-.2-1.4-.5-1.9-.7-1-1.3-1.3zm.5 4.8c-.2.4-.6.8-1 1-.4.2-.9.4-1.4.4-.5 0-1-.1-1.4-.4-.4-.2-.7-.6-1-1-.2-.4-.4-.9-.4-1.5s.1-1.1.4-1.5c.2-.4.5-.8 1-1 .4-.2.9-.4 1.4-.4.5 0 1 .1 1.4.4.4.2.7.6 1 1 .2.4.4.9.4 1.5s-.2 1-.4 1.5zm-62.6-56h-4.7v-3.2h-1v7.4h1v-3.3h4.7v3.3h.9v-7.4h-.9zm56.1 2.8-.7-.5c-.2.4-.6.6-.9.8-.4.2-.8.3-1.2.3-.5 0-1-.1-1.4-.3-.4-.2-.8-.6-1-1-.2-.4-.3-.9-.3-1.5s.1-1.1.3-1.5c.2-.4.6-.8 1-1 .4-.2.9-.4 1.4-.4.4 0 .8.1 1.2.3.4.2.7.4.9.8l.7-.5c-.3-.5-.7-.8-1.2-1.1-.5-.3-1.1-.4-1.7-.4-.7 0-1.4.2-2 .5-.6.3-1 .8-1.3 1.3-.3.6-.5 1.2-.5 1.9s.2 1.4.5 1.9c.3.6.8 1 1.3 1.3.6.3 1.2.5 2 .5.6 0 1.2-.1 1.7-.4.5-.2.9-.6 1.2-1zm-47.4.9c.6-.3 1-.8 1.3-1.3.3-.6.5-1.2.5-1.9s-.2-1.4-.5-1.9c-.3-.6-.8-1-1.3-1.3-.6-.3-1.2-.5-1.9-.5s-1.3.2-1.9.5c-.6.3-1 .8-1.3 1.3-.3.6-.5 1.2-.5 1.9s.2 1.4.5 1.9c.3.6.8 1 1.3 1.3.6.3 1.2.5 1.9.5s1.4-.1 1.9-.5zm-4.3-1.7c-.2-.4-.4-.9-.4-1.5s.1-1.1.4-1.5c.2-.4.6-.8 1-1 .4-.2.9-.4 1.4-.4s1 .1 1.4.4c.4.2.7.6 1 1 .2.4.3.9.3 1.5s-.1 1.1-.3 1.5c-.2.4-.6.8-1 1-.4.2-.9.3-1.4.3s-1-.1-1.4-.3c-.4-.3-.7-.6-1-1zm1.5 30.8h-1v6.5h-3.5v-6.5h-1v6.5H185v-6.5h-1v7.4h10.1zm9.9-28.6c.6 0 1.2-.1 1.7-.4.5-.3.9-.6 1.2-1.1l-.7-.5c-.2.4-.5.6-.9.8-.4.2-.8.3-1.2.3-.5 0-1-.1-1.4-.3-.4-.2-.8-.6-1-1-.2-.4-.3-.9-.3-1.5s.1-1.1.3-1.5c.2-.4.6-.8 1-1 .4-.2.9-.4 1.4-.4.4 0 .8.1 1.2.3.4.2.7.4.9.8l.7-.5c-.3-.5-.7-.8-1.2-1.1-.5-.3-1.1-.4-1.7-.4-.7 0-1.4.2-2 .5-.6.3-1 .8-1.3 1.3-.3.6-.5 1.2-.5 1.9s.2 1.4.5 1.9c.3.6.8 1 1.3 1.3.6.5 1.2.6 2 .6zm29.5 52.4v-5.8h-1v7.4h.9l4.9-5.9v5.9h1v-7.4h-.9zm-35-34.4V125h2.8v-.9h-6.5v.9h2.8v6.5zm57.4-22.8h-2.2v-2.6h-1v7.4h3c1 0 1.7-.2 2.2-.6.5-.4.8-1 .8-1.8s-.2-1.3-.7-1.7c-.5-.5-1.2-.7-2.1-.7zm1.3 3.6c-.3.3-.9.4-1.5.4h-1.9v-3.3h1.9c.7 0 1.2.1 1.6.4.3.3.5.7.5 1.2-.1.6-.3 1-.6 1.3zm-159 21.2.6-1.9c.1-.2.1-.3.1-.4 0-.1.1-.3.1-.4 0-.2-.1-.4-.2-.5-.1-.1-.3-.2-.5-.2s-.4.1-.5.2c-.1.1-.2.3-.2.5s0 .3.1.5c.1.1.2.2.4.3l-.5 2h.6zm112.4 0 .6-1.9c.1-.2.1-.3.1-.4 0-.1.1-.3.1-.4 0-.2-.1-.4-.2-.5-.1-.1-.3-.2-.5-.2s-.4.1-.5.2c-.1.1-.2.3-.2.5s0 .3.1.5c.1.1.2.2.4.3l-.5 2h.6zm34.1-26.5h2.8v6.5h1V107h2.8v-.9h-6.6zm-29.2 6.5v-7.4h-.8l-4.9 5.8v-5.8h-1v7.4h.9l4.9-5.9v5.9zM173 142.1v7.4h2.9c1 0 1.7-.2 2.2-.6.5-.4.8-1 .8-1.8s-.2-1.3-.7-1.7-1.2-.6-2.1-.6H174v-2.6h-1zm2.8 3.3c.7 0 1.2.1 1.6.4.3.3.5.7.5 1.2 0 .6-.2 1-.5 1.3-.3.3-.9.4-1.5.4H174v-3.3h1.8zm57.3 4.1 1.7-2.4h2.6v2.4h.9v-7.4h-3.1c-1 0-1.7.2-2.3.6-.6.4-.8 1.1-.8 1.9 0 .6.2 1.1.5 1.5.3.4.7.7 1.3.8l-1.8 2.6h1zm0-4.9c0-1.1.7-1.7 2.2-1.7h2.2v3.3h-2.2c-1.5.1-2.2-.5-2.2-1.6zM190 125.3c.4-.2.9-.4 1.4-.4.4 0 .8.1 1.2.3.4.2.7.4.9.8l.7-.5c-.3-.5-.7-.8-1.2-1.1-.5-.3-1.1-.4-1.7-.4-.7 0-1.4.2-2 .5-.6.3-1 .8-1.3 1.3-.3.6-.5 1.2-.5 1.9s.2 1.4.5 1.9c.3.6.8 1 1.3 1.3.6.3 1.2.5 2 .5.6 0 1.2-.1 1.7-.4.5-.3.9-.6 1.2-1.1l-.7-.5c-.2.4-.6.6-.9.8-.4.2-.8.3-1.2.3-.5 0-1-.1-1.4-.3-.4-.2-.8-.6-1-1-.2-.4-.3-.9-.3-1.5s.1-1.1.3-1.5c.3-.4.6-.7 1-.9zm64.1 40.7c-.2 0-.4.1-.5.2-.1.1-.2.3-.2.5s.1.4.2.5c.1.1.3.2.5.2s.4-.1.5-.2.2-.3.2-.5-.1-.4-.2-.5c-.1-.1-.3-.2-.5-.2zm-132.5-52.5v-7.4h-3.1c-1 0-1.7.2-2.3.6-.6.4-.8 1.1-.8 1.9 0 .6.2 1.1.5 1.5s.7.7 1.3.8l-1.8 2.6h1.1l1.7-2.4h2.6v2.4h.8zm-3.2-3.2c-1.4 0-2.1-.5-2.1-1.6s.7-1.7 2.2-1.7h2.2v3.3h-2.3zm99 49.7c-.6 0-1.1.1-1.7.3-.5.2-1 .4-1.3.7l.4.7c.3-.3.7-.5 1.1-.6.4-.2.9-.2 1.3-.2.7 0 1.2.2 1.6.5.4.3.5.8.5 1.4v.4H217c-1 0-1.7.2-2.2.6-.4.4-.7.9-.7 1.5s.2 1.2.7 1.6c.5.4 1.1.6 2 .6.6 0 1.1-.1 1.5-.3.4-.2.8-.5 1-.9v1.1h1v-4.6c0-.9-.3-1.7-.8-2.1-.4-.4-1.1-.7-2.1-.7zm2 5.2c-.2.5-.5.9-.9 1.1-.4.3-.9.4-1.4.4-.6 0-1-.1-1.4-.4-.3-.3-.5-.6-.5-1 0-.9.6-1.3 1.9-1.3h2.3v1.2zm-80.7-37.4c0-.7-.2-1.4-.5-1.9-.3-.6-.7-1-1.3-1.3-.5-.3-1.2-.5-1.8-.5-.7 0-1.3.2-1.8.5s-1 .8-1.3 1.3c-.3.6-.5 1.2-.5 1.9s.2 1.4.5 1.9c.3.6.8 1 1.4 1.3.6.3 1.3.5 2 .5.6 0 1.1-.1 1.6-.3.5-.2.9-.5 1.2-.9l-.6-.6c-.3.3-.6.6-1 .7-.4.2-.8.2-1.3.2-.8 0-1.5-.2-2-.7-.5-.5-.8-1.1-.9-1.9h6.2l.1-.2zm-6.2-.5c.1-.7.3-1.3.8-1.8s1.1-.7 1.8-.7 1.3.2 1.8.7c.5.4.8 1 .8 1.8h-5.2zm-12.1.5c0-.7-.2-1.4-.5-1.9-.3-.6-.7-1-1.3-1.3-.5-.3-1.2-.5-1.8-.5-.7 0-1.3.2-1.8.5s-1 .8-1.3 1.3c-.3.6-.5 1.2-.5 1.9s.2 1.4.5 1.9c.3.6.8 1 1.4 1.3.6.3 1.3.5 2 .5.6 0 1.1-.1 1.6-.3.5-.2.9-.5 1.2-.9l-.6-.6c-.3.3-.6.6-1 .7-.4.2-.8.2-1.3.2-.8 0-1.5-.2-2-.7-.5-.5-.8-1.1-.9-1.9h6.2l.1-.2zm-6.1-.5c.1-.7.3-1.3.8-1.8s1.1-.7 1.8-.7 1.3.2 1.8.7c.5.4.8 1 .8 1.8h-5.2zm96.8 36.3c.4-.1.7-.4.9-.6.2-.3.3-.6.3-1 0-.6-.2-1.1-.7-1.4-.5-.3-1.1-.5-2-.5h-3.2v7.4h3.3c.9 0 1.7-.2 2.1-.5.5-.3.7-.8.7-1.5.1-1-.4-1.6-1.4-1.9zm-3.8-2.7h2.2c.6 0 1 .1 1.3.3.3.2.5.5.5.9s-.2.7-.5.9c-.3.2-.7.3-1.3.3h-2.2v-2.4zm3.8 5.5c-.3.2-.8.3-1.4.3h-2.3v-2.6h2.4c.6 0 1.1.1 1.4.3.3.2.4.5.4 1 0 .4-.2.8-.5 1zm-106.2-52.9v-7.4h-1v3.2h-4.6v-3.2h-1v7.4h1v-3.3h4.6v3.3zm12.9 37.7v-2.6h-1.1v-6.5h-5.4l-.1 2.5c-.1 1.3-.2 2.2-.4 2.9-.2.7-.5 1.1-1 1.1h-.4v2.6h.9v-1.8h6.6v1.8h.9zm-2.2-2.6H111c.3-.3.6-.7.7-1.4.1-.7.2-1.5.3-2.6l.1-1.6h3.5v5.6zm105.1-3.3h-4.6v-3.2h-1v7.4h1v-3.3h4.6v3.3h1v-7.4h-1zM208 130.8c.5-.4.8-1 .8-1.8s-.2-1.3-.7-1.7c-.5-.4-1.2-.6-2.1-.6h-2.2v-2.6h-1v7.4h3c.9 0 1.7-.2 2.2-.7zm-4.2-.1v-3.3h1.9c.7 0 1.2.1 1.6.4.3.3.5.7.5 1.2 0 .6-.2 1-.5 1.3-.3.3-.9.4-1.5.4h-2zM227 142c-.6 0-1.1.1-1.7.3-.5.2-1 .4-1.3.7l.4.7c.3-.3.7-.5 1.1-.6.4-.2.9-.2 1.3-.2.7 0 1.2.2 1.6.5.4.3.5.8.5 1.4v.4h-2.3c-1 0-1.7.2-2.2.6-.4.4-.7.9-.7 1.5s.2 1.2.7 1.6c.5.4 1.1.6 2 .6.6 0 1.1-.1 1.5-.3.4-.2.8-.5 1-.9v1.1h1v-4.6c0-.9-.3-1.7-.8-2.1-.4-.4-1.1-.7-2.1-.7zm2 5.2c-.2.5-.5.9-.9 1.1-.4.3-.9.4-1.4.4-.6 0-1-.1-1.4-.4-.3-.3-.5-.6-.5-1 0-.9.6-1.3 1.9-1.3h2.3v1.2zm-61.8-15.7v-7.4h-1v3.2h-4.6v-3.2h-1v7.4h1v-3.3h4.6v3.3zm61.5 31.8h-4.6v-3.2h-1v7.4h1v-3.3h4.6v3.3h1v-7.4h-1zm5.7-50.3c.6-.3 1-.8 1.3-1.3.3-.6.5-1.2.5-1.9s-.2-1.4-.5-1.9c-.3-.6-.8-1-1.3-1.3-.6-.3-1.2-.5-1.9-.5s-1.3.2-1.9.5c-.6.3-1 .8-1.3 1.3-.3.6-.5 1.2-.5 1.9s.2 1.4.5 1.9c.3.6.8 1 1.3 1.3.6.3 1.2.5 1.9.5s1.3-.1 1.9-.5zm-4.3-1.7c-.2-.4-.3-.9-.3-1.5s.1-1.1.3-1.5c.2-.4.6-.8 1-1 .4-.2.9-.4 1.4-.4.5 0 1 .1 1.4.4.4.2.7.6 1 1 .2.4.4.9.4 1.5s-.1 1.1-.4 1.5c-.2.4-.6.8-1 1-.4.2-.9.3-1.4.3-.5 0-1-.1-1.4-.3-.4-.3-.8-.6-1-1zm-90.6 40.2.6-1.9c.1-.2.1-.3.1-.4 0-.1.1-.3.1-.4 0-.2-.1-.4-.2-.5-.1-.1-.3-.2-.5-.2s-.4.1-.5.2c-.1.1-.2.3-.2.5s0 .3.1.5c.1.1.2.2.4.3l-.5 2h.6zm9.6-20v-7.4h-.9l-3.2 5.3-3.1-5.3h-1v7.4h.9v-5.9l3 5h.4l3-5v5.9zm76.6-18h.9v-7.4h-.9l-3.2 5.3-3.1-5.3h-1v7.4h.9v-5.9l3 5h.4l3-5zm-83.4-.3c.5-.2.9-.5 1.2-.9l-.6-.6c-.3.3-.6.6-1 .7-.4.2-.8.2-1.3.2-.8 0-1.5-.2-2-.7-.5-.5-.8-1.1-.9-1.9h6.2v-.3c0-.7-.2-1.4-.5-1.9-.3-.6-.7-1-1.3-1.3-.5-.3-1.2-.5-1.8-.5-.7 0-1.3.2-1.8.5s-1 .8-1.3 1.3c-.3.6-.5 1.2-.5 1.9s.2 1.4.5 1.9c.3.6.8 1 1.4 1.3.6.3 1.3.5 2 .5.7.1 1.2 0 1.7-.2zm-3.7-5.6c.5-.5 1.1-.7 1.8-.7s1.3.2 1.8.7c.5.4.8 1 .8 1.8h-5.2c.1-.8.3-1.4.8-1.8zm-58.8 55.1h-2.2v-2.6h-1v7.4h3c1 0 1.7-.2 2.2-.6.5-.4.8-1 .8-1.8s-.2-1.3-.7-1.7c-.5-.5-1.2-.7-2.1-.7zm1.3 3.6c-.3.3-.9.4-1.5.4h-1.9v-3.3h1.9c.7 0 1.2.1 1.6.4s.5.7.5 1.2c-.1.6-.2 1-.6 1.3zM44.5 108c0-.6-.2-1.1-.7-1.4-.5-.3-1.1-.5-2-.5h-3.2v7.4h3.3c.9 0 1.7-.2 2.1-.5.5-.3.7-.8.7-1.5 0-1-.5-1.6-1.5-1.8.4-.1.7-.4.9-.6.3-.4.4-.7.4-1.1zm-1.2 2.4c.3.2.4.5.4 1 0 .4-.2.8-.5 1-.3.2-.8.3-1.4.3h-2.3v-2.6H42c.6 0 1 .1 1.3.3zM43 109c-.3.2-.7.3-1.3.3h-2.2v-2.5h2.2c.6 0 1 .1 1.3.3.3.2.5.5.5.9s-.2.8-.5 1zm-26 4.5v-7.4h-1v3.2h-4.7v-3.2h-.9v7.4h.9v-3.3H16v3.3zm120.1 34.2c.3-.6.5-1.2.5-1.9s-.2-1.4-.5-1.9c-.3-.6-.8-1-1.3-1.3-.6-.3-1.2-.5-1.9-.5-.6 0-1.2.1-1.8.4-.5.3-1 .7-1.3 1.1-.3.5-.5 1-.6 1.7h-1.7v-3.2h-1v7.4h1v-3.3h1.7c.1.7.2 1.2.6 1.7.3.5.8.9 1.3 1.2.5.3 1.1.4 1.8.4s1.3-.2 1.9-.5c.5-.3 1-.7 1.3-1.3zm-3.2 1c-.5 0-1-.1-1.4-.4-.4-.2-.7-.6-1-1-.2-.4-.3-.9-.3-1.5s.1-1.1.3-1.5c.2-.4.6-.8 1-1 .4-.2.9-.4 1.4-.4.5 0 1 .1 1.4.4.4.2.7.6 1 1 .2.4.3.9.3 1.5s-.1 1.1-.3 1.5c-.2.4-.6.8-1 1-.4.2-.9.4-1.4.4zm-98.2-42.6h-.9l-4.9 5.8v-5.8h-1v7.4h.9l4.9-5.9v5.9h1zm93.5 59.3-3.1-5.3h-1v7.4h.9v-5.9l3 5h.5l2.9-5v5.9h.9v-7.4h-.9zm-8-4.9c-.6-.3-1.2-.5-1.9-.5s-1.3.2-1.9.5c-.6.3-1 .8-1.3 1.3-.3.6-.5 1.2-.5 1.9s.2 1.4.5 1.9c.3.6.8 1 1.3 1.3.6.3 1.2.5 1.9.5s1.3-.2 1.9-.5c.6-.3 1-.8 1.3-1.3.3-.6.5-1.2.5-1.9s-.2-1.4-.5-1.9-.8-1-1.3-1.3zm.4 4.8c-.2.4-.6.8-1 1-.4.2-.9.3-1.4.3-.5 0-1-.1-1.4-.3-.4-.2-.7-.6-1-1-.2-.4-.3-.9-.3-1.5s.1-1.1.3-1.5c.2-.4.6-.8 1-1 .4-.2.9-.4 1.4-.4.5 0 1 .1 1.4.4.4.2.7.6 1 1 .2.4.3.9.3 1.5s0 1-.3 1.5zM39.1 131c.6.3 1.2.5 1.9.5s1.3-.2 1.9-.5c.6-.3 1-.8 1.3-1.3.3-.6.5-1.2.5-1.9s-.2-1.4-.5-1.9c-.3-.6-.8-1-1.3-1.3-.6-.3-1.2-.5-1.9-.5s-1.3.2-1.9.5c-.6.3-1 .8-1.3 1.3-.3.6-.5 1.2-.5 1.9s.2 1.4.5 1.9c.3.6.7 1 1.3 1.3zm-.5-4.7c.2-.4.6-.8 1-1 .4-.2.9-.4 1.4-.4.5 0 1 .1 1.4.4.4.2.7.6 1 1 .2.4.3.9.3 1.5s-.1 1.1-.3 1.5c-.2.4-.6.8-1 1-.4.2-.9.3-1.4.3-.5 0-1-.1-1.4-.3-.4-.2-.7-.6-1-1-.2-.4-.4-.9-.4-1.5s.2-1.1.4-1.5zm86.4 19c-.5-.4-1.2-.6-2.1-.6h-2.2v-2.6h-1v7.4h3c1 0 1.7-.2 2.2-.6.5-.4.8-1 .8-1.8s-.3-1.4-.7-1.8zm-.9 3c-.3.3-.9.4-1.5.4h-1.9v-3.3h1.9c.7 0 1.2.1 1.6.4.3.3.5.7.5 1.2 0 .6-.2 1-.6 1.3zm-70.6-16.8v-7.4h-1v3.2h-4.6v-3.2h-1v7.4h1v-3.3h4.6v3.3zm-27.8 0v-7.4h-.9l-3.2 5.3-3.1-5.3h-1v7.4h.9v-5.9l3 5h.4l3-5v5.9zm115.9 29.2c-.5-.3-1.1-.5-1.8-.5s-1.3.2-1.8.5-.9.8-1.2 1.3c0-1.2.3-2 .8-2.6.5-.6 1.3-1 2.3-1.2l3.1-.7-.2-.9-3.3.8c-1.3.3-2.2.9-2.8 1.7-.6.8-.9 2-.9 3.6 0 1.5.3 2.7 1 3.6.7.9 1.6 1.3 2.8 1.3.7 0 1.4-.2 1.9-.5.6-.3 1-.7 1.3-1.3.3-.6.5-1.2.5-1.9s-.1-1.3-.4-1.9c-.4-.5-.8-1-1.3-1.3zm.3 4.6c-.2.4-.5.8-1 1-.4.2-.9.3-1.4.3s-1-.1-1.4-.3c-.4-.2-.7-.6-1-1-.2-.4-.3-.9-.3-1.5 0-.5.1-1 .3-1.4.2-.4.6-.7 1-1 .4-.2.9-.3 1.4-.3s1 .1 1.4.3c.4.2.7.5 1 1s.3.9.3 1.4c.1.6-.1 1.1-.3 1.5zm-78-50.1v-2.6h-1.1v-6.5h-5.4l-.1 2.5c-.1 1.3-.2 2.2-.4 2.9s-.5 1.1-1 1.1h-.4v2.6h.9v-1.8H63v1.8h.9zm-2.1-2.6h-4.6c.3-.3.6-.7.7-1.4.1-.7.2-1.5.3-2.6l.1-1.6h3.5v5.6zm1 15.2c0-.7-.2-1.4-.5-1.9-.3-.6-.7-1-1.3-1.3-.5-.3-1.2-.5-1.8-.5-.7 0-1.3.2-1.8.5s-1 .8-1.3 1.3c-.3.6-.5 1.2-.5 1.9s.2 1.4.5 1.9c.3.6.8 1 1.4 1.3.6.3 1.3.5 2 .5.6 0 1.1-.1 1.6-.3.5-.2.9-.5 1.2-.9l-.6-.6c-.3.3-.6.6-1 .7-.4.2-.8.2-1.3.2-.8 0-1.5-.2-2-.7-.5-.5-.8-1.1-.9-1.9h6.2l.1-.2zm-6.2-.5c.1-.7.3-1.3.8-1.8s1.1-.7 1.8-.7 1.3.2 1.8.7c.5.4.8 1 .8 1.8h-5.2zM27 115.2v-2.6h-1.1v-6.5h-5.4l-.1 2.5c-.1 1.3-.2 2.2-.4 2.9-.2.7-.5 1.1-1 1.1h-.4v2.6h.9v-1.8H26v1.8h1zm-2.2-2.6h-4.6c.3-.3.6-.7.7-1.4.1-.7.2-1.5.3-2.6l.1-1.6h3.5v5.6zm10.4 18.9v-7.4h-6.7v7.4h1V125h4.7v6.5zm18.7-25.4H53l-4.9 5.8v-5.8h-1v7.4h.9l4.9-5.9v5.9h1zm58.4 54.4c-.6-.3-1.2-.5-1.9-.5-.6 0-1.2.1-1.7.4-.5.3-.9.6-1.2 1.1V160h-1v10.1h1V166c.3.5.7.8 1.2 1.1.5.2 1 .4 1.6.4.7 0 1.3-.2 1.9-.5.6-.3 1-.8 1.3-1.3.3-.6.5-1.2.5-2 0-.7-.2-1.4-.5-1.9-.2-.5-.7-1-1.2-1.3zm.4 4.8c-.2.4-.6.8-1 1-.4.2-.9.3-1.4.3-.5 0-1-.1-1.4-.3-.4-.2-.7-.6-1-1-.2-.4-.3-.9-.3-1.5s.1-1.1.3-1.5c.2-.4.6-.8 1-1 .4-.2.9-.4 1.4-.4.5 0 1 .1 1.4.4.4.2.7.6 1 1 .2.4.4.9.4 1.5s-.1 1-.4 1.5zM87 125.8c-.3-.6-.8-1-1.3-1.3-.6-.3-1.2-.5-1.9-.5s-1.3.2-1.9.5c-.6.3-1 .8-1.3 1.3-.3.6-.5 1.2-.5 1.9s.2 1.4.5 1.9c.3.6.8 1 1.3 1.3.6.3 1.2.5 1.9.5s1.3-.2 1.9-.5c.6-.3 1-.8 1.3-1.3.3-.6.5-1.2.5-1.9s-.2-1.3-.5-1.9zm-.9 3.5c-.2.4-.6.8-1 1-.4.2-.9.3-1.4.3-.5 0-1-.1-1.4-.3-.4-.2-.7-.6-1-1-.2-.4-.4-.9-.4-1.5s.1-1.1.4-1.5c.2-.4.6-.8 1-1 .4-.2.9-.4 1.4-.4.5 0 1 .1 1.4.4.4.2.7.6 1 1 .2.4.3.9.3 1.5s0 1-.3 1.5zM98.6 161h2.8v6.5h1V161h2.8v-.9h-6.6zm-96.2.3c.4-.2.9-.4 1.4-.4.4 0 .8.1 1.2.3.4.2.7.4.9.8l.7-.5c-.3-.5-.7-.8-1.2-1.1-.4-.2-1-.4-1.6-.4-.7 0-1.4.2-2 .5-.6.3-1 .8-1.3 1.3-.3.6-.5 1.2-.5 2s.2 1.4.5 1.9c.3.6.8 1 1.3 1.3.6.3 1.2.5 2 .5.6 0 1.2-.1 1.7-.4.5-.3.9-.6 1.2-1.1l-.7-.5c-.2.4-.6.6-.9.8-.4.2-.8.3-1.2.3-.5 0-1-.1-1.4-.3-.4-.2-.8-.6-1-1-.2-.4-.3-.9-.3-1.5s.1-1.1.3-1.5c.1-.5.4-.8.9-1zm106-19.2-2.8 6.3-2.8-6.3h-1l3.3 7.3-.3.7c-.2.4-.4.8-.7 1-.2.2-.5.3-.9.3-.5 0-1-.2-1.3-.6l-.5.7c.2.2.5.4.8.5.3.1.6.2 1 .2.6 0 1-.1 1.4-.4.4-.3.7-.8 1-1.5l3.7-8.2h-.9zm-16.1 0h-5.2v7.4h.9V143h4.3zm8.4 5.6c.3-.6.5-1.2.5-2 0-.7-.2-1.4-.5-1.9-.3-.6-.8-1-1.3-1.3-.6-.3-1.2-.5-1.9-.5-.6 0-1.2.1-1.7.4-.5.3-.9.6-1.2 1.1V142h-1v10.1h1V148c.3.5.7.8 1.2 1.1.5.2 1 .4 1.6.4.7 0 1.3-.2 1.9-.5.6-.3 1.1-.7 1.4-1.3zm-3.3.9c-.5 0-1-.1-1.4-.3-.4-.2-.7-.6-1-1-.2-.4-.3-.9-.3-1.5s.1-1.1.3-1.5c.2-.4.6-.8 1-1 .4-.2.9-.4 1.4-.4.5 0 1 .1 1.4.4.4.2.7.6 1 1 .2.4.4.9.4 1.5s-.1 1.1-.4 1.5c-.2.4-.6.8-1 1-.4.2-.9.3-1.4.3zm-2.8 11.5h-1.1l-2.6 3.2h-1.7v-3.2h-1v7.4h1v-3.3h1.7l2.7 3.3h1.2l-3.1-3.8zm-79.6 0h-1.1l-2.6 3.2H9.6v-3.2h-1v7.4h1v-3.3h1.7l2.7 3.3h1.2l-3.1-3.8zm-1.5-17.6c-.6-.3-1.2-.5-1.9-.5s-1.3.2-1.9.5c-.6.3-1 .8-1.3 1.3-.3.6-.5 1.2-.5 1.9s.2 1.4.5 1.9c.3.6.8 1 1.3 1.3.6.3 1.2.5 1.9.5s1.3-.2 1.9-.5c.6-.3 1-.8 1.3-1.3.3-.6.5-1.2.5-1.9s-.2-1.4-.5-1.9c-.2-.5-.7-1-1.3-1.3zm.5 4.8c-.2.4-.6.8-1 1-.4.2-.9.3-1.4.3-.5 0-1-.1-1.4-.3-.4-.2-.7-.6-1-1-.2-.4-.3-.9-.3-1.5s.1-1.1.3-1.5c.2-.4.6-.8 1-1 .4-.2.9-.4 1.4-.4.5 0 1 .1 1.4.4.4.2.7.6 1 1 .2.4.4.9.4 1.5s-.2 1-.4 1.5zm61.6-38c-1 0-1.7.2-2.2.6-.4.4-.7.9-.7 1.5s.2 1.2.7 1.6c.5.4 1.1.6 2 .6.6 0 1.1-.1 1.5-.3.4-.2.8-.5 1-.9v1.1h1v-4.6c0-.9-.3-1.7-.8-2.1-.5-.5-1.3-.7-2.2-.7-.6 0-1.1.1-1.7.3-.5.2-1 .4-1.3.7l.4.7c.3-.3.7-.5 1.1-.6.4-.2.9-.2 1.3-.2.7 0 1.2.2 1.6.5.4.3.5.8.5 1.4v.4h-2.2zm2.3 1.9c-.2.5-.5.9-.9 1.1-.4.3-.9.4-1.4.4-.6 0-1-.1-1.4-.4-.3-.3-.5-.6-.5-1 0-.9.6-1.3 1.9-1.3h2.3v1.2zM7.1 142.1H6l-2.6 3.2H1.7v-3.2h-1v7.4h1v-3.3h1.7l2.7 3.3h1.2l-3.1-3.8zm55.2 7.4v-7.4h-1v3.2h-4.7v-3.2h-1v7.4h1v-3.3h4.7v3.3zM7.1 124.1H6l-2.6 3.2H1.7v-3.2h-1v7.4h1v-3.3h1.7l2.7 3.3h1.2l-3.1-3.8zm-5.4-12.2v-5.8h-1v7.4h.9l4.9-5.9v5.9h1v-7.4h-.9zm69.4-5.8-2.8 6.3-2.8-6.3h-1l3.3 7.4-.3.7c-.2.4-.4.8-.7 1-.2.2-.5.3-.9.3-.5 0-1-.2-1.3-.6l-.5.7c.2.2.5.4.8.5s.6.2 1 .2c.6 0 1-.1 1.4-.4.4-.3.7-.8 1-1.5l3.7-8.2h-.9zm75 43.4h1V143h4.6v6.5h1v-7.4h-6.6zm13.2 11c-.6-.3-1.2-.5-1.9-.5s-1.3.2-1.9.5c-.6.3-1 .8-1.3 1.3-.3.6-.5 1.2-.5 1.9s.2 1.4.5 1.9c.3.6.8 1 1.3 1.3.6.3 1.2.5 1.9.5s1.3-.2 1.9-.5c.6-.3 1-.8 1.3-1.3.3-.6.5-1.2.5-1.9s-.2-1.4-.5-1.9-.8-1-1.3-1.3zm.4 4.8c-.2.4-.6.8-1 1-.4.2-.9.3-1.4.3s-1-.1-1.4-.3c-.4-.2-.7-.6-1-1-.2-.4-.3-.9-.3-1.5s.1-1.1.3-1.5c.2-.4.6-.8 1-1 .4-.2.9-.4 1.4-.4s1 .1 1.4.4c.4.2.7.6 1 1 .2.4.4.9.4 1.5s-.1 1-.4 1.5zm-95.8-4c.4-.2.9-.4 1.4-.4.4 0 .8.1 1.2.3.4.2.7.4.9.8l.7-.5c-.3-.5-.7-.8-1.2-1.1-.5-.3-1.1-.4-1.7-.4-.7 0-1.4.2-2 .5-.6.3-1 .8-1.3 1.3-.3.6-.5 1.2-.5 1.9s.2 1.4.5 1.9c.3.6.8 1 1.3 1.3.6.3 1.2.5 2 .5.6 0 1.2-.1 1.7-.4.5-.3.9-.6 1.2-1.1l-.7-.5c-.2.4-.6.6-.9.8-.4.2-.8.3-1.2.3-.5 0-1-.1-1.4-.3-.4-.2-.8-.6-1-1-.2-.4-.3-.9-.3-1.5s.1-1.1.3-1.5c.3-.4.6-.7 1-.9zm-23.8 2h-4.6v-3.2h-1v7.4h1v-3.3h4.6v3.3h1v-7.4h-1zm-4.8-13.8v-7.4h-.9l-3.2 5.3-3.1-5.3h-1v7.4h.9v-5.9l3 5h.4l3-5v5.9zm121.4-18.3c.5-.2.9-.5 1.2-.9l-.6-.6c-.3.3-.6.6-1 .7-.4.2-.8.2-1.3.2-.8 0-1.5-.2-2-.7-.5-.5-.8-1.1-.9-1.9h6.2v-.3c0-.7-.2-1.4-.5-1.9-.3-.6-.7-1-1.3-1.3-.5-.3-1.2-.5-1.8-.5-.7 0-1.3.2-1.8.5s-1 .8-1.3 1.3c-.3.6-.5 1.2-.5 1.9s.2 1.4.5 1.9c.3.6.8 1 1.4 1.3.6.3 1.3.5 2 .5.7.1 1.2 0 1.7-.2zm-3.7-5.6c.5-.5 1.1-.7 1.8-.7s1.3.2 1.8.7c.5.4.8 1 .8 1.8h-5.2c.1-.8.4-1.4.8-1.8zm-94.7 34.9c-.6-.3-1.2-.5-1.9-.5s-1.3.2-1.9.5c-.6.3-1 .8-1.3 1.3-.3.6-.5 1.2-.5 1.9s.2 1.4.5 1.9c.3.6.8 1 1.3 1.3.6.3 1.2.5 1.9.5s1.3-.2 1.9-.5c.6-.3 1-.8 1.3-1.3.3-.6.5-1.2.5-1.9s-.2-1.4-.5-1.9-.7-1-1.3-1.3zm.5 4.8c-.2.4-.6.8-1 1-.4.2-.9.3-1.4.3-.5 0-1-.1-1.4-.3-.4-.2-.7-.6-1-1-.2-.4-.3-.9-.3-1.5s.1-1.1.3-1.5c.2-.4.6-.8 1-1 .4-.2.9-.4 1.4-.4.5 0 1 .1 1.4.4.4.2.7.6 1 1 .2.4.4.9.4 1.5s-.2 1-.4 1.5zm101.7-22.8c-.6-.3-1.2-.5-1.9-.5s-1.3.2-1.9.5c-.6.3-1 .8-1.3 1.3-.3.6-.5 1.2-.5 1.9s.2 1.4.5 1.9c.3.6.8 1 1.3 1.3.6.3 1.2.5 1.9.5s1.3-.2 1.9-.5c.6-.3 1-.8 1.3-1.3.3-.6.5-1.2.5-1.9s-.2-1.4-.5-1.9-.7-1-1.3-1.3zm.5 4.8c-.2.4-.6.8-1 1-.4.2-.9.3-1.4.3s-1-.1-1.4-.3c-.4-.2-.7-.6-1-1-.2-.4-.4-.9-.4-1.5s.1-1.1.4-1.5c.2-.4.6-.8 1-1 .4-.2.9-.4 1.4-.4s1 .1 1.4.4c.4.2.7.6 1 1 .2.4.3.9.3 1.5s-.1 1-.3 1.5zm-111.4 16h-4.7v-3.2h-1v7.4h1v-3.3h4.7v3.3h1v-7.4h-1zm119-2.6c-.5-.3-1.1-.5-1.8-.5s-1.3.2-1.8.5-.9.8-1.2 1.3c0-1.2.3-2 .8-2.6.5-.6 1.3-1 2.3-1.2l3.1-.7-.2-.9-3.3.8c-1.3.3-2.2.9-2.8 1.7-.6.8-.9 2-.9 3.6 0 1.5.3 2.7 1 3.6.7.9 1.6 1.3 2.8 1.3.7 0 1.4-.2 1.9-.5.6-.3 1-.7 1.3-1.3.3-.6.5-1.2.5-1.9s-.1-1.3-.4-1.9c-.3-.5-.8-1-1.3-1.3zm.3 4.6c-.2.4-.5.8-1 1-.4.2-.9.3-1.4.3-.5 0-1-.1-1.4-.3-.4-.2-.7-.6-1-1-.2-.4-.3-.9-.3-1.5 0-.5.1-1 .3-1.4.2-.4.6-.7 1-1 .4-.2.9-.3 1.4-.3.5 0 1 .1 1.4.3.4.2.7.5 1 1s.3.9.3 1.4c.1.6 0 1.1-.3 1.5zM65 124.1v7.4h1v-3.3h4.6v3.3h1v-7.4h-1v3.2H66v-3.2zm-12.6 23.6c-.3.3-.6.6-1 .7-.4.2-.8.2-1.3.2-.8 0-1.5-.2-2-.7-.5-.5-.8-1.1-.9-1.9h6.2v-.3c0-.7-.2-1.4-.5-1.9-.3-.6-.7-1-1.3-1.3-.5-.3-1.2-.5-1.8-.5-.7 0-1.3.2-1.8.5s-1 .8-1.3 1.3c-.3.6-.5 1.2-.5 1.9s.2 1.4.5 1.9c.3.6.8 1 1.4 1.3.6.3 1.3.5 2 .5.6 0 1.1-.1 1.6-.3.5-.2.9-.5 1.2-.9l-.5-.5zm-4.3-4.1c.5-.5 1.1-.7 1.8-.7s1.3.2 1.8.7c.5.4.8 1 .8 1.8h-5.2c0-.8.3-1.4.8-1.8zm-3.9 5.9v-7.4h-5.4l-.1 2.6c0 .9-.1 1.5-.2 2.1-.1.5-.2 1-.4 1.3-.2.4-.5.5-.9.5-.1 0-.2 0-.3-.1l-.1.9c.3.1.5.1.7.1.7 0 1.2-.4 1.5-1.2.3-.8.5-2 .5-3.5l.1-1.8h3.5v6.5h1.1zm-27 13.2c0 .9-.1 1.5-.2 2.1-.1.5-.2 1-.4 1.3-.2.4-.5.5-.9.5-.1 0-.2 0-.4-.1l-.1.9c.3.1.5.1.7.1.7 0 1.2-.4 1.5-1.2.3-.8.5-2 .5-3.5l.1-1.8h3.5v6.5h1v-7.4h-5.4l.1 2.6zm133.2-2.2c-.6-.3-1.2-.5-1.9-.5s-1.3.2-1.9.5c-.6.3-1 .8-1.3 1.3-.3.6-.5 1.2-.5 1.9s.2 1.4.5 1.9c.3.6.8 1 1.3 1.3.6.3 1.2.5 1.9.5s1.3-.2 1.9-.5c.6-.3 1-.8 1.3-1.3.3-.6.5-1.2.5-1.9s-.2-1.4-.5-1.9-.8-1-1.3-1.3zm.4 4.8c-.2.4-.6.8-1 1-.4.2-.9.3-1.4.3-.5 0-1-.1-1.4-.3-.4-.2-.7-.6-1-1-.2-.4-.3-.9-.3-1.5s.1-1.1.3-1.5c.2-.4.6-.8 1-1 .4-.2.9-.4 1.4-.4.5 0 1 .1 1.4.4.4.2.7.6 1 1 .2.4.4.9.4 1.5s-.1 1-.4 1.5zM13.5 124.5c-.6-.3-1.2-.5-1.9-.5s-1.3.2-1.9.5c-.6.3-1 .8-1.3 1.3-.3.6-.5 1.2-.5 1.9s.2 1.4.5 1.9c.3.6.8 1 1.3 1.3.6.3 1.2.5 1.9.5s1.3-.2 1.9-.5c.6-.3 1-.8 1.3-1.3.3-.6.5-1.2.5-1.9s-.2-1.4-.5-1.9c-.2-.5-.7-1-1.3-1.3zm.5 4.8c-.2.4-.6.8-1 1-.4.2-.9.3-1.4.3-.5 0-1-.1-1.4-.3-.4-.2-.7-.6-1-1-.2-.4-.3-.9-.3-1.5s.1-1.1.3-1.5c.2-.4.6-.8 1-1 .4-.2.9-.4 1.4-.4.5 0 1 .1 1.4.4.4.2.7.6 1 1 .2.4.4.9.4 1.5s-.2 1-.4 1.5zm16.5 31.2c-.6-.3-1.2-.5-1.9-.5s-1.3.2-1.9.5c-.6.3-1 .8-1.3 1.3-.3.6-.5 1.2-.5 1.9s.2 1.4.5 1.9c.3.6.8 1 1.3 1.3.6.3 1.2.5 1.9.5s1.3-.2 1.9-.5c.6-.3 1-.8 1.3-1.3.3-.6.5-1.2.5-1.9s-.2-1.4-.5-1.9c-.2-.5-.7-1-1.3-1.3zm.5 4.8c-.2.4-.6.8-1 1-.4.2-.9.3-1.4.3-.5 0-1-.1-1.4-.3-.4-.2-.7-.6-1-1-.2-.4-.4-.9-.4-1.5s.1-1.1.4-1.5c.2-.4.6-.8 1-1 .4-.2.9-.4 1.4-.4.5 0 1 .1 1.4.4.4.2.7.6 1 1 .2.4.3.9.3 1.5s-.1 1-.3 1.5zm45.8-33.8V125h2.8v-.9H73v.9h2.8v6.5zm-4.9 18v-7.4H71l-4.9 5.8v-5.8h-1v7.4h.9l4.9-5.9v5.9zM68.6 161h2.8v6.5h1V161h2.8v-.9h-6.6zm10.9-11.8c.5-.2.9-.5 1.2-.9l-.6-.6c-.3.3-.6.6-1 .7-.4.2-.8.2-1.3.2-.8 0-1.5-.2-2-.7-.5-.5-.8-1.1-.9-1.9h6.2v-.3c0-.7-.2-1.4-.5-1.9-.3-.6-.7-1-1.3-1.3-.5-.3-1.2-.5-1.8-.5-.7 0-1.3.2-1.8.5s-1 .8-1.3 1.3c-.3.6-.5 1.2-.5 1.9s.2 1.4.5 1.9c.3.6.8 1 1.4 1.3.6.3 1.3.5 2 .5.7.1 1.2 0 1.7-.2zm-3.7-5.6c.5-.5 1.1-.7 1.8-.7s1.3.2 1.8.7c.5.4.8 1 .8 1.8H75c.1-.8.3-1.4.8-1.8zm-51.3.2c-.3-.6-.8-1-1.3-1.3-.6-.3-1.2-.5-1.9-.5-.6 0-1.2.1-1.7.4-.5.3-.9.6-1.2 1.1V142h-1v10.1h1V148c.3.5.7.8 1.2 1.1.5.2 1 .4 1.6.4.7 0 1.3-.2 1.9-.5.6-.3 1-.8 1.3-1.3.3-.6.5-1.2.5-2 .1-.7-.1-1.3-.4-1.9zm-.9 3.5c-.2.4-.6.8-1 1-.4.2-.9.3-1.4.3-.5 0-1-.1-1.4-.3-.4-.2-.7-.6-1-1-.2-.4-.4-.9-.4-1.5s.1-1.1.4-1.5c.2-.4.6-.8 1-1 .4-.2.9-.4 1.4-.4.5 0 1 .1 1.4.4.4.2.7.6 1 1 .2.4.4.9.4 1.5s-.2 1-.4 1.5zm64-33.8v-7.4h-5.4l-.1 2.6c0 .9-.1 1.5-.2 2.1-.1.5-.2 1-.4 1.3s-.5.5-.9.5c-.1 0-.2 0-.4-.1l-.1.9c.3.1.5.1.7.1.7 0 1.2-.4 1.5-1.2.3-.8.5-2 .5-3.5l.1-1.8h3.5v6.5h1.2zM10.7 26.1c.3.5.7.8 1.1 1.1.5.2 1 .4 1.6.4.7 0 1.3-.1 1.8-.4.5-.3 1-.7 1.3-1.3.3-.5.5-1.2.5-1.9s-.2-1.3-.5-1.9c-.3-.5-.7-1-1.3-1.3-.5-.3-1.1-.5-1.8-.5-.6 0-1.1.1-1.6.4-.5.3-.8.6-1.1 1.1v-1.4h-.9v9.7h1v-4zm.3-3.6c.2-.4.5-.8.9-1 .4-.2.9-.4 1.4-.4.5 0 .9.1 1.3.4.4.2.7.6.9 1 .2.4.4.9.4 1.4 0 .5-.1 1-.4 1.4-.2.4-.5.8-.9 1-.4.2-.9.3-1.3.3-.5 0-1-.1-1.4-.3-.4-.2-.7-.6-.9-1-.2-.4-.3-.9-.3-1.4 0-.5.1-1 .3-1.4zm9.1 4.6c.5.3 1.2.5 1.8.5s1.3-.2 1.8-.5 1-.7 1.3-1.3c.3-.5.5-1.2.5-1.9s-.2-1.3-.5-1.9c-.3-.5-.7-1-1.3-1.3-.5-.3-1.2-.5-1.8-.5s-1.3.2-1.8.5-1 .7-1.3 1.3-.5 1.2-.5 1.9.2 1.3.5 1.9.7.9 1.3 1.3zm-.5-4.6c.2-.4.5-.7.9-1 .4-.2.9-.4 1.4-.4.5 0 1 .1 1.4.4.4.2.7.5.9 1 .2.4.3.9.3 1.4 0 .5-.1 1-.3 1.4-.2.4-.5.8-.9 1-.4.2-.8.3-1.4.3-.5 0-1-.1-1.4-.3-.4-.2-.7-.6-.9-1-.2-.4-.3-.9-.3-1.4 0-.5.1-1 .3-1.4zM1.9.9h6v8.6h.9V0H.9v9.5h1zm240.5 8.6h.9V3.2h2.7v-.9h-6.3v.9h2.7zM12.9 9.1c.6.3 1.2.5 1.9.5.6 0 1.1-.1 1.6-.3.5-.2.9-.5 1.2-.9l-.6-.7c-.3.3-.6.5-1 .7-.4.2-.8.2-1.2.2-.8 0-1.4-.2-1.9-.7-.5-.5-.8-1.1-.9-1.8h6v-.3c0-.7-.1-1.3-.4-1.9-.3-.5-.7-1-1.2-1.3-.5-.3-1.1-.5-1.8-.5s-1.3.2-1.8.5-.9.7-1.2 1.3c-.3.5-.4 1.2-.4 1.9s.2 1.3.5 1.9.6 1 1.2 1.4zm0-5.3c.5-.4 1-.7 1.7-.7s1.3.2 1.7.7c.5.4.7 1 .8 1.7h-5c0-.7.3-1.3.8-1.7zm8.2 4.3c.3.5.7.8 1.1 1.1.5.2 1 .4 1.6.4.7 0 1.3-.1 1.8-.4.5-.3 1-.7 1.3-1.3.3-.5.5-1.2.5-1.9s-.2-1.3-.5-1.9c-.3-.5-.7-1-1.3-1.3-.5-.3-1.1-.5-1.8-.5-.6 0-1.1.1-1.6.4-.5.3-.8.6-1.1 1.1V2.3h-.9V12h1V8.1zm.3-3.6c.2-.4.5-.8.9-1 .4-.2.9-.4 1.4-.4.5 0 .9.1 1.4.4.4.2.7.6.9 1 .2.4.4.9.4 1.4 0 .5-.1 1-.4 1.4-.2.4-.5.8-.9 1-.4.2-.9.3-1.4.3-.5 0-1-.1-1.4-.3-.4-.2-.7-.6-.9-1-.2-.4-.3-.9-.3-1.4 0-.5.1-1 .3-1.4zm212.7 4.6c.6.3 1.2.5 1.9.5.6 0 1.1-.1 1.6-.3.5-.2.9-.5 1.2-.9l-.5-.6c-.3.3-.6.5-1 .7-.4.2-.8.2-1.2.2-.8 0-1.4-.2-1.9-.7-.5-.5-.8-1.1-.9-1.8h5.9v-.3c0-.7-.1-1.3-.4-1.9-.3-.5-.7-1-1.2-1.3-.5-.3-1.1-.5-1.8-.5s-1.3.2-1.8.5-.9.7-1.2 1.3c-.3.5-.4 1.2-.4 1.9s.2 1.3.5 1.9.6.9 1.2 1.3zm0-5.3c.5-.4 1-.7 1.7-.7s1.3.2 1.7.7c.5.4.7 1 .8 1.7h-5c0-.7.3-1.3.8-1.7zm-7.5 7.2c-.2.2-.5.3-.8.3-.5 0-.9-.2-1.3-.5l-.4.7c.2.2.5.4.8.5.3.1.6.2 1 .2.5 0 1-.1 1.4-.4s.7-.8 1-1.4l3.6-8h-.9l-2.7 6-2.7-6h-1l3.2 7.1-.3.7c-.4.4-.6.7-.9.8zm.1 16.5v-7.2h-.9l-3 5.2-3-5.2h-1v7.2h.9v-5.7l2.9 4.8h.4l2.9-4.8v5.7zM1.6 21.2h4.5v6.3H7v-7.2H.7v7.2h.9zm27 3.1h1.6l2.6 3.2h1.1l-3-3.7 2.8-3.5h-1l-2.5 3.2h-1.6v-3.2h-1v7.2h1zm182.7-3.5c-.5.3-1 .7-1.3 1.3s-.5 1.2-.5 1.9.2 1.3.5 1.9.7 1 1.3 1.3c.5.3 1.2.5 1.8.5s1.3-.2 1.8-.5 1-.7 1.3-1.3c.3-.5.5-1.2.5-1.9s-.2-1.3-.5-1.9c-.3-.5-.7-1-1.3-1.3-.5-.3-1.2-.5-1.8-.5s-1.3.1-1.8.5zm4.1 1.7c.2.4.3.9.3 1.4 0 .5-.1 1-.3 1.4-.2.4-.5.8-.9 1-.4.2-.8.3-1.3.3s-1-.1-1.4-.3c-.4-.2-.7-.6-.9-1-.2-.4-.3-.9-.3-1.4 0-.5.1-1 .3-1.4.2-.4.5-.7.9-1 .4-.2.9-.4 1.4-.4s1 .1 1.3.4c.4.2.7.5.9 1zm1.1-13h6.4v1.7h.9V8.6h-1.1V2.3h-5.2l-.1 2.4c-.1 1.2-.2 2.2-.4 2.8-.2.7-.5 1-1 1.1h-.4v2.6h.9V9.5zm1.5-2.2c.1-.7.2-1.5.3-2.5l.1-1.6h3.4v5.4h-4.4c.2-.2.5-.7.6-1.3zm-35.4 14.9c0-.6-.2-1-.7-1.3-.5-.3-1.1-.5-1.9-.5h-3.1v7.1h3.2c.9 0 1.6-.2 2.1-.5s.7-.8.7-1.4c0-.9-.5-1.5-1.4-1.7.4-.1.7-.3.9-.6.1-.4.2-.7.2-1.1zm-1.2 2.3c.3.2.4.5.4.9s-.2.7-.5.9c-.3.2-.8.3-1.4.3h-2.3v-2.5h2.3c.8.1 1.3.2 1.5.4zm-.2-1.3c-.3.2-.7.3-1.3.3h-2.1v-2.4h2.1c.5 0 1 .1 1.3.3.3.2.4.5.4.9s-.1.7-.4.9zm75.7-20.9c-.9 0-1.7.2-2.2.6-.5.4-.8 1-.8 1.8 0 .6.1 1 .4 1.4.3.4.7.6 1.3.8l-1.8 2.5h1l1.6-2.3h2.5v2.3h.9V2.3h-2.9zm2.1 4.1h-2.1c-1.3 0-2-.5-2-1.6s.7-1.6 2.1-1.6h2.1v3.2zm-6.9 1.2c-.2.4-.5.6-.9.8-.4.2-.8.3-1.2.3-.5 0-1-.1-1.4-.3-.4-.2-.7-.6-1-1-.2-.4-.3-.9-.3-1.5 0-.5.1-1 .3-1.4.2-.4.6-.7 1-1 .4-.2.9-.4 1.4-.4.4 0 .8.1 1.2.3.4.2.7.4.9.8l.7-.5c-.3-.5-.7-.8-1.1-1-.5-.2-1-.4-1.6-.4-.7 0-1.3.2-1.9.5-.5.3-1 .7-1.3 1.3s-.5 1.2-.5 1.9.2 1.3.5 1.9c.3.5.7 1 1.3 1.3.6.3 1.2.5 1.9.5.6 0 1.1-.1 1.6-.4.5-.2.9-.6 1.1-1.1l-.7-.6zM230 27.3c.1-.1.2-.3.2-.5s-.1-.4-.2-.5c-.1-.1-.3-.2-.5-.2s-.4.1-.5.2c-.1.1-.2.3-.2.5s.1.4.2.5c.1.1.3.2.5.2s.4-.1.5-.2zM73.9 3.8v5.7h.9V2.3H74L69.2 8V2.3h-.9v7.2h.8zM115 6.3h4.5v3.2h.9V2.3h-.9v3.2H115V2.3h-1v7.2h1zm-6 14.5c-.5.3-1 .7-1.3 1.3-.3.5-.5 1.2-.5 1.9s.2 1.3.5 1.9c.3.5.7 1 1.3 1.3.5.3 1.2.5 1.8.5.7 0 1.3-.2 1.9-.5.5-.3 1-.7 1.3-1.3.3-.5.5-1.2.5-1.9s-.2-1.3-.5-1.9c-.3-.5-.7-1-1.3-1.3-.5-.3-1.2-.5-1.9-.5-.6 0-1.2.1-1.8.5zm4.2 1.7c.2.4.3.9.3 1.4 0 .5-.1 1-.3 1.4-.2.4-.5.8-.9 1-.4.2-.8.3-1.4.3-.5 0-1-.1-1.4-.3-.4-.2-.7-.6-.9-1-.2-.4-.3-.9-.3-1.4 0-.5.1-1 .3-1.4.2-.4.5-.7.9-1 .4-.2.9-.4 1.4-.4.5 0 1 .1 1.4.4.3.2.7.5.9 1zm-6.4-13.4c.6.3 1.2.5 1.9.5.6 0 1.1-.1 1.6-.3.5-.2.9-.5 1.2-.9l-.5-.6c-.3.3-.6.5-1 .7-.4.2-.8.2-1.2.2-.8 0-1.4-.2-1.9-.7-.5-.5-.8-1.1-.9-1.8h5.9v-.3c0-.7-.1-1.3-.4-1.9-.3-.5-.7-1-1.2-1.3-.5-.3-1.1-.5-1.8-.5s-1.3.2-1.8.5-.9.7-1.2 1.3c-.3.5-.4 1.2-.4 1.9s.2 1.3.5 1.9.6.9 1.2 1.3zm0-5.3c.5-.4 1-.7 1.7-.7s1.3.2 1.7.7c.5.4.7 1 .8 1.7h-5c0-.7.3-1.3.8-1.7zm9.7 16.5v7.1h3.2c.9 0 1.6-.2 2.1-.5s.7-.8.7-1.4c0-.9-.5-1.5-1.4-1.7.4-.1.7-.3.9-.6.2-.3.3-.6.3-1 0-.6-.2-1-.7-1.3-.5-.3-1.1-.5-1.9-.5h-3.2zm4.6 4.2c.3.2.4.5.4.9s-.2.7-.5.9c-.3.2-.8.3-1.4.3h-2.3v-2.5h2.3c.8.1 1.3.2 1.5.4zm.2-2.2c0 .4-.1.7-.4.9-.3.2-.7.3-1.3.3h-2.1v-2.4h2.1c.5 0 1 .1 1.3.3.3.2.4.5.4.9zm-20.6-1.6c-.5.3-.8.6-1.1 1.1v-1.4h-.9v9.7h1v-4c.3.5.7.8 1.1 1.1.5.2 1 .4 1.6.4.7 0 1.3-.1 1.8-.4.5-.3 1-.7 1.3-1.3.3-.5.5-1.2.5-1.9s-.2-1.3-.5-1.9c-.3-.5-.7-1-1.3-1.3-.5-.3-1.1-.5-1.8-.5-.6 0-1.2.1-1.7.4zm3.9 1.8c.2.4.4.9.4 1.4 0 .5-.1 1-.4 1.4-.2.4-.5.8-.9 1-.4.2-.9.3-1.4.3-.5 0-1-.1-1.4-.3-.4-.2-.7-.6-.9-1-.2-.4-.3-.9-.3-1.4 0-.5.1-1 .3-1.4.2-.4.5-.8.9-1 .4-.2.9-.4 1.4-.4.5 0 .9.1 1.4.4.3.2.7.5.9 1zM89.3 9.1c.6.3 1.2.5 1.9.5.6 0 1.1-.1 1.6-.3.5-.3.9-.6 1.2-.9l-.5-.6c-.3.3-.6.5-1 .7-.4.2-.8.2-1.2.2-.8 0-1.4-.2-1.9-.7-.5-.5-.8-1.1-.9-1.8h5.9v-.3c0-.7-.1-1.3-.4-1.9-.3-.5-.7-1-1.2-1.3-.5-.3-1.1-.5-1.8-.5s-1.3.2-1.8.5c-.5.4-.9.8-1.2 1.3-.3.5-.4 1.2-.4 1.9s.2 1.3.5 1.9c.2.5.7.9 1.2 1.3zm0-5.3c.5-.4 1-.7 1.7-.7s1.3.2 1.7.7c.5.4.7 1 .8 1.7h-5c.1-.7.3-1.3.8-1.7zM88 20.3h-6.3v.9h2.7v6.3h.9v-6.3H88zM30.5 9.1c.6.3 1.2.5 1.9.5.6 0 1.1-.1 1.6-.3.5-.2.9-.5 1.2-.9l-.5-.6c-.3.3-.6.5-1 .7-.4.2-.8.2-1.2.2-.8 0-1.4-.2-1.9-.7-.5-.5-.8-1.1-.9-1.8h5.9v-.3c0-.7-.1-1.3-.4-1.9-.3-.5-.7-1-1.2-1.3-.5-.3-1.1-.5-1.8-.5s-1.3.2-1.8.5-.9.7-1.2 1.3c-.3.5-.4 1.2-.4 1.9s.2 1.3.5 1.9.6.9 1.2 1.3zm0-5.3c.5-.4 1-.7 1.7-.7s1.3.2 1.7.7c.5.4.7 1 .8 1.7h-5c0-.7.3-1.3.8-1.7zm67 2.5h4.5v3.2h1V2.3h-1v3.2h-4.5V2.3h-.9v7.2h.9zm-7.1 14h-1v7.2h.9l4.7-5.7v5.7h.9v-7.2h-.8L90.4 26zm65.5-12.2c.3.5.7.8 1.1 1.1.5.2 1 .4 1.6.4.7 0 1.3-.1 1.8-.4.5-.3 1-.7 1.3-1.3.3-.5.5-1.2.5-1.9s-.2-1.3-.5-1.9c-.3-.5-.7-1-1.3-1.3-.5-.3-1.1-.5-1.8-.5-.6 0-1.1.1-1.6.4-.5.3-.8.6-1.1 1.1V2.3h-.9V12h1V8.1zm.4-3.6c.2-.4.5-.8.9-1 .4-.2.9-.4 1.4-.4.5 0 .9.1 1.4.4.4.2.7.6.9 1 .2.4.4.9.4 1.4 0 .5-.1 1-.4 1.4-.2.4-.5.8-.9 1-.4.2-.9.3-1.4.3-.5 0-1-.1-1.4-.3-.4-.2-.7-.6-.9-1-.2-.4-.3-.9-.3-1.4-.1-.5 0-1 .3-1.4zM146.4 22c-.3.5-.5 1.2-.5 1.9s.2 1.3.5 1.9c.3.5.7 1 1.3 1.3.6.3 1.2.5 1.9.5.6 0 1.1-.1 1.6-.4.5-.2.9-.6 1.1-1.1l-.7-.5c-.2.4-.5.6-.9.8-.4.2-.8.3-1.2.3-.5 0-1-.1-1.4-.3-.4-.2-.7-.6-1-1-.2-.4-.3-.9-.3-1.5 0-.5.1-1 .3-1.4.2-.4.6-.7 1-1 .4-.2.9-.4 1.4-.4.4 0 .8.1 1.2.3.4.2.7.4.9.8l.7-.5c-.3-.5-.7-.8-1.1-1-.5-.2-1-.4-1.6-.4-.7 0-1.3.2-1.9.5-.6.3-1 .7-1.3 1.2zm8 5.5 1.6-2.3h2.5v2.3h.9v-7.1h-3c-.9 0-1.7.2-2.2.6s-.8 1-.8 1.8c0 .6.1 1 .4 1.4.3.4.7.6 1.3.8l-1.8 2.5h1.1zm0-4.7c0-1.1.7-1.6 2.1-1.6h2.1v3.2h-2.1c-1.4 0-2.1-.5-2.1-1.6zm-12.7-19 2.8 4.8h.5l2.9-4.8v5.7h.8V2.3h-.9l-3 5.2-3-5.2h-1v7.2h.9zm27 16.5c-.7 0-1.3.2-1.9.5-.5.3-1 .7-1.3 1.3s-.5 1.2-.5 1.9.2 1.3.5 1.9c.3.5.7 1 1.3 1.3.6.3 1.2.5 1.9.5.6 0 1.1-.1 1.6-.4.5-.2.9-.6 1.1-1.1l-.7-.5c-.2.4-.5.6-.9.8-.4.2-.8.3-1.2.3-.5 0-1-.1-1.4-.3-.4-.2-.7-.6-1-1-.2-.4-.3-.9-.3-1.5 0-.5.1-1 .3-1.4.2-.4.6-.7 1-1 .4-.2.9-.4 1.4-.4.4 0 .8.1 1.2.3.4.2.7.4.9.8l.7-.5c-.3-.5-.7-.8-1.1-1-.5-.4-1-.5-1.6-.5zM133.5 9.1c.6.3 1.2.5 1.9.5.6 0 1.1-.1 1.6-.3.5-.2.9-.5 1.2-.9l-.5-.6c-.3.3-.6.5-1 .7-.4.2-.8.2-1.2.2-.8 0-1.4-.2-1.9-.7-.5-.5-.8-1.1-.9-1.8h5.9v-.3c0-.7-.1-1.3-.4-1.9-.3-.5-.7-1-1.2-1.3-.5-.3-1.1-.5-1.8-.5s-1.3.2-1.8.5-.9.7-1.2 1.3c-.3.5-.4 1.2-.4 1.9s.2 1.3.5 1.9.7.9 1.2 1.3zm0-5.3c.5-.4 1-.7 1.7-.7s1.3.2 1.7.7c.5.4.7 1 .8 1.7h-5c.1-.7.3-1.3.8-1.7zm.5 23.7h.9v-6.3h2.7v-.9h-6.3v.9h2.7zm-6.8-7.2c-.6 0-1.1.1-1.6.3-.5.2-.9.4-1.3.7l.4.7c.3-.3.7-.5 1.1-.6.4-.2.8-.2 1.3-.2.7 0 1.2.2 1.5.5.3.3.5.8.5 1.4v.4h-2.3c-1 0-1.7.2-2.1.6-.4.4-.6.9-.6 1.5s.2 1.1.7 1.5 1.1.6 1.9.6c.6 0 1.1-.1 1.5-.3.4-.2.7-.5 1-.9v1.1h.9V23c0-.9-.2-1.6-.7-2.1-.6-.4-1.3-.6-2.2-.6zm1.9 5c-.2.5-.5.8-.9 1.1-.4.2-.9.4-1.4.4-.6 0-1-.1-1.3-.4-.3-.2-.5-.6-.5-1 0-.8.6-1.3 1.8-1.3h2.2v1.2zm36.2-16.2c.6.3 1.2.5 1.9.5.6 0 1.1-.1 1.6-.3.5-.2.9-.5 1.2-.9l-.5-.6c-.3.3-.6.5-1 .7-.4.2-.8.2-1.2.2-.8 0-1.4-.2-1.9-.7-.5-.5-.8-1.1-.8-1.8h5.9v-.3c0-.7-.1-1.3-.4-1.9-.3-.5-.7-1-1.2-1.3-.5-.3-1.1-.5-1.8-.5s-1.3.2-1.8.5-.9.7-1.2 1.3c-.3.5-.4 1.2-.4 1.9s.2 1.3.5 1.9.6.9 1.1 1.3zm0-5.3c.5-.4 1-.7 1.7-.7s1.3.2 1.7.7c.5.4.7 1 .8 1.7h-5c.1-.7.3-1.3.8-1.7zm-36.6 0v5.7h1V2.3h-.9L124.1 8V2.3h-.9v7.2h.8zM43.8 20.3v7.2h.9v-3.2h4.5v3.2h1v-7.2h-1v3.2h-4.5v-3.2zM189.6 3.8l2.9 4.8h.5l2.8-4.8v5.7h.9V2.3h-.9l-3 5.2-3.1-5.2h-.9v7.2h.8zm-3.6 18v-1.4h-1v9.7h1v-4c.3.5.7.8 1.1 1.1.5.2 1 .4 1.6.4.7 0 1.3-.1 1.8-.4.5-.3 1-.7 1.3-1.3.3-.5.5-1.2.5-1.9s-.2-1.3-.5-1.9c-.3-.5-.7-1-1.3-1.3-.5-.3-1.1-.5-1.8-.5-.6 0-1.1.1-1.6.4-.5.2-.8.6-1.1 1.1zm1.3-.3c.4-.2.9-.4 1.4-.4.5 0 .9.1 1.3.4.4.2.7.6.9 1 .2.4.4.9.4 1.4 0 .5-.1 1-.4 1.4-.2.4-.5.8-.9 1-.4.2-.9.3-1.3.3-.5 0-1-.1-1.4-.3-.4-.2-.7-.6-.9-1-.2-.4-.3-.9-.3-1.4 0-.5.1-1 .3-1.4.2-.5.5-.8.9-1zm-150-12h6.4v1.7h.9V8.6h-1.1V2.3h-5.2l-.1 2.4c-.1 1.2-.2 2.2-.4 2.8s-.5 1-1 1.1h-.4v2.6h.9V9.5zm1.4-2.2c.1-.7.2-1.5.3-2.5V3.2h3.4v5.4H38c.4-.2.6-.7.7-1.3zm155.1 14 .4.7c.3-.3.7-.5 1.1-.6.4-.2.8-.2 1.3-.2.7 0 1.2.2 1.5.5.3.3.5.8.5 1.4v.4h-2.3c-1 0-1.7.2-2.1.6-.4.4-.6.9-.6 1.5s.2 1.1.7 1.5c.5.4 1.1.6 1.9.6.6 0 1.1-.1 1.5-.3.4-.2.7-.5 1-.9v1.1h.9V23c0-.9-.2-1.6-.7-2.1-.5-.5-1.2-.7-2.1-.7-.6 0-1.1.1-1.6.3-.6.2-1 .4-1.4.8zm4.8 4c-.2.5-.5.8-.9 1.1-.4.2-.8.4-1.4.4-.6 0-1-.1-1.3-.4-.3-.2-.5-.6-.5-1 0-.8.6-1.3 1.8-1.3h2.2v1.2zM35 22c-.3.5-.5 1.2-.5 1.9s.2 1.3.5 1.9.7 1 1.3 1.3c.5.3 1.2.5 1.8.5s1.3-.2 1.8-.5 1-.7 1.3-1.3c.3-.5.5-1.2.5-1.9s-.2-1.3-.5-1.9c-.3-.5-.7-1-1.3-1.3-.5-.3-1.2-.5-1.8-.5s-1.3.2-1.8.5c-.6.4-1 .8-1.3 1.3zm1.8-.5c.4-.2.9-.4 1.4-.4s1 .1 1.3.4c.4.2.7.5.9 1 .2.4.3.9.3 1.4 0 .5-.1 1-.3 1.4-.2.4-.5.8-.9 1-.4.2-.8.3-1.3.3s-1-.1-1.4-.3c-.4-.2-.7-.6-.9-1-.2-.4-.3-.9-.3-1.4 0-.5.1-1 .3-1.4.1-.5.5-.8.9-1zM200.5 9.1c.6.3 1.2.5 1.9.5.6 0 1.1-.1 1.6-.3.5-.2.9-.5 1.2-.9l-.5-.6c-.3.3-.6.5-1 .7-.4.2-.8.2-1.2.2-.8 0-1.4-.2-1.9-.7-.5-.5-.8-1.1-.8-1.8h5.9v-.3c0-.7-.1-1.3-.4-1.9-.3-.5-.7-1-1.2-1.3-.5-.3-1.1-.5-1.8-.5s-1.3.2-1.8.5-.9.7-1.2 1.3c-.3.5-.4 1.2-.4 1.9s.2 1.3.5 1.9.6.9 1.1 1.3zm0-5.3c.5-.4 1-.7 1.7-.7s1.3.2 1.7.7c.5.4.7 1 .8 1.7h-5c.1-.7.3-1.3.8-1.7zm8.2 2.5h4.5v3.2h1V2.3h-1v3.2h-4.5V2.3h-.9v7.2h.9zm-5.8 17.5c-.3-.3-.5-.7-.5-1.2v-2.3h-1v2.3c0 .8.2 1.4.7 1.8.5.4 1.1.6 2 .6.8 0 1.6-.2 2.4-.5v3h1v-7.1h-1v3.4c-.8.4-1.6.5-2.2.5-.6 0-1.1-.2-1.4-.5zM50.9 3.2h4.4v6.3h1V2.3h-6.4v7.2h1zM60 8.1c.3.5.7.8 1.1 1.1.5.2 1 .4 1.6.4.7 0 1.3-.1 1.8-.4.5-.3 1-.7 1.3-1.3.3-.5.5-1.2.5-1.9s-.2-1.3-.5-1.9c-.3-.5-.7-1-1.3-1.3-.5-.3-1.1-.5-1.8-.5-.6 0-1.1.1-1.6.4-.5.3-.8.6-1.1 1.1V2.3h-1V12h1V8.1zm.3-3.6c.2-.4.5-.8.9-1 .4-.2.9-.4 1.4-.4.5 0 .9.1 1.3.4.4.2.7.6.9 1 .2.4.4.9.4 1.4 0 .5-.1 1-.4 1.4-.2.4-.5.8-.9 1-.4.2-.9.3-1.3.3-.5 0-1-.1-1.4-.3-.4-.2-.7-.6-.9-1-.2-.4-.3-.9-.3-1.4 0-.5.1-1 .3-1.4zM144 26.9c.5-.4.8-1 .8-1.7s-.2-1.3-.7-1.7c-.5-.4-1.1-.6-2-.6H140v-2.5h-1v7.1h2.9c.9 0 1.6-.2 2.1-.6zm-4-.2v-3.2h1.9c.7 0 1.2.1 1.5.4.3.3.5.6.5 1.2 0 .5-.2.9-.5 1.2-.3.3-.8.4-1.5.4H140zm-73.7.7c.3.1.5.1.7.1.7 0 1.2-.4 1.4-1.2s.4-1.9.5-3.4l.1-1.8h3.4v6.3h1v-7.1h-5.2l-.1 2.5c0 .8-.1 1.5-.2 2s-.2.9-.4 1.3c-.2.3-.5.5-.8.5-.1 0-.2 0-.3-.1l-.1.9zm14.8-.5c.5-.4.8-1 .8-1.7s-.2-1.3-.7-1.7c-.5-.4-1.1-.6-2-.6h-2.1v-2.5h-1v7.1H79c.9 0 1.7-.2 2.1-.6zm-4-.2v-3.2h1.8c.7 0 1.2.1 1.5.4.3.3.5.6.5 1.2 0 .5-.2.9-.5 1.2-.3.3-.8.4-1.5.4h-1.8zm96.4-20.4h1.7l2.6 3.2h1.1l-3-3.7 2.8-3.5h-1l-2.5 3.2h-1.7V2.3h-.9v7.2h.9zm-113 23.8c.5 0 1-.1 1.4-.4s.7-.8 1-1.4l3.6-8h-.9l-2.7 6-2.7-6h-1l3.2 7.1-.4.7c-.2.4-.4.7-.6.9-.2.2-.5.3-.8.3-.5 0-.9-.2-1.3-.5l-.4.7c.2.2.5.4.8.5.1.1.5.1.8.1zm18-26.3 2.8 4.8h.5l2.8-4.8v5.7h.9V2.3h-.9l-3 5.2-3.1-5.2h-.9v7.2h.9zm102.8 5.3c.5.3 1.2.5 1.9.5s1.3-.2 1.8-.5 1-.7 1.3-1.3c.3-.5.5-1.2.5-1.9s-.2-1.3-.5-1.9c-.3-.5-.7-1-1.3-1.3-.5-.3-1.2-.5-1.8-.5-.7 0-1.3.2-1.9.5-.5.3-1 .7-1.3 1.3s-.5 1.2-.5 1.9.2 1.3.5 1.9.7.9 1.3 1.3zm-.5-4.6c.2-.4.5-.7.9-1 .4-.2.9-.4 1.4-.4.5 0 1 .1 1.3.4.4.2.7.5.9 1 .2.4.3.9.3 1.4 0 .5-.1 1-.3 1.4-.2.4-.5.8-.9 1-.4.2-.8.3-1.3.3s-1-.1-1.4-.3c-.4-.2-.7-.6-.9-1-.2-.4-.3-.9-.3-1.4 0-.5.1-1 .3-1.4zM54 20.8c-.5.3-1 .7-1.3 1.3s-.5 1.2-.5 1.9.2 1.3.5 1.9c.3.5.7 1 1.3 1.3.6.3 1.2.5 1.9.5.6 0 1.1-.1 1.6-.4.5-.2.9-.6 1.1-1.1l-.7-.5c-.2.4-.5.6-.9.8-.4.2-.8.3-1.2.3-.5 0-1-.1-1.4-.3-.4-.2-.7-.6-1-1-.2-.4-.3-.9-.3-1.5 0-.5.1-1 .3-1.4.2-.4.6-.7 1-1 .4-.2.9-.4 1.4-.4.4 0 .8.1 1.2.3.4.2.7.4.9.8l.7-.5c-.3-.5-.7-.8-1.1-1-.5-.2-1-.4-1.6-.4-.7-.1-1.4 0-1.9.4z" style="fill:#060315"/></svg>