<svg version="1.1" id="Layer_1" xmlns="http://www.w3.org/2000/svg" x="0" y="0" viewBox="0 0 246.3 38.1" style="enable-background:new 0 0 246.3 38.1" xml:space="preserve"><style>.st0{fill:#060315}</style><path class="st0" d="M18.5 15.8c-.9-.6-1.9-.9-3-1v-.3c.9-.2 1.8-.6 2.6-1.1.8-.5 1.4-1.2 1.8-2 .5-.8.7-1.9.7-3 0-1.4-.4-2.7-1.1-3.9-.7-1.1-1.7-2-3.1-2.7-1.4-.7-3.1-1-5.2-1H0v29.1h11.8c2.2 0 4.1-.3 5.5-1 1.5-.7 2.6-1.6 3.3-2.8.7-1.2 1.1-2.6 1.1-4.1 0-1.5-.3-2.7-.9-3.8-.6-1.1-1.4-1.9-2.3-2.4zM5.3 5.1h5.3c1.6 0 2.7.4 3.5 1.1.8.8 1.2 1.7 1.2 2.8 0 .9-.2 1.6-.6 2.2-.4.6-1 1.1-1.7 1.4-.7.3-1.5.5-2.5.5H5.3v-8zm9.8 19.3c-.8.7-2.2 1.1-4.1 1.1H5.3V17h5.8c1.1 0 2 .2 2.8.6.8.4 1.4.9 1.8 1.6.4.7.6 1.5.6 2.3 0 1.2-.4 2.2-1.2 2.9zM218.8 9.2c-1.6-.9-3.4-1.4-5.5-1.4s-4 .5-5.5 1.4c-1.6.9-2.8 2.3-3.6 3.9-.9 1.7-1.3 3.7-1.3 5.9s.4 4.2 1.3 5.9c.9 1.7 2.1 3 3.6 3.9 1.6.9 3.4 1.4 5.5 1.4s4-.5 5.5-1.4c1.6-.9 2.8-2.2 3.6-3.9.9-1.7 1.3-3.7 1.3-5.9s-.4-4.2-1.3-5.9c-.8-1.7-2-3-3.6-3.9zm-.9 13.5c-.4 1.1-1 1.9-1.7 2.6-.8.6-1.7 1-2.9 1s-2.2-.3-3-1c-.8-.6-1.4-1.5-1.7-2.6-.4-1.1-.6-2.3-.6-3.6 0-1.3.2-2.5.6-3.6.4-1.1 1-2 1.7-2.6.8-.6 1.8-1 3-1s2.1.3 2.9 1c.8.6 1.4 1.5 1.7 2.6.4 1.1.6 2.3.6 3.6 0 1.3-.2 2.5-.6 3.6zM131.8 22.9V8.1h-5v21.8h5.3l8.7-14.9v14.9h5V8.1h-5.3zM241 8.1l-8.8 14.8V8.1h-4.9v21.8h5.3l8.7-14.9v14.9h5V8.1zM236.8 6.1c2 0 3.7-.5 4.9-1.5 1.2-1 1.8-2.4 1.8-4h-3.8c0 .7-.2 1.3-.7 1.8-.4.5-1.1.8-2.1.8s-1.7-.3-2.2-.8c-.4-.5-.6-1.2-.6-1.8h-3.8c0 1.7.6 3 1.8 4 1 1 2.6 1.5 4.7 1.5zM41.6 17.2c-1.5-1.4-3.7-2-6.5-2h-5V8.1h-5v21.8H35c1.9 0 3.4-.3 4.7-.9 1.3-.6 2.3-1.5 3-2.6.7-1.1 1-2.4 1.1-3.8.1-2.3-.6-4-2.2-5.4zm-3.7 7.6c-.7.6-1.6.9-2.8.9h-5v-6.3h5c1.1 0 2 .3 2.8.9.7.6 1.1 1.4 1.1 2.3 0 .9-.3 1.6-1.1 2.2zM118.8 9.1c-1.4-.9-2.9-1.3-4.6-1.3-1.3 0-2.3.2-3.2.7-.8.4-1.5.9-2 1.5s-.9 1.2-1.1 1.7h-.3V8.1h-5.1v30h5.1V26.4h.2c.3.5.7 1.1 1.2 1.7.5.6 1.2 1.1 2 1.5.8.4 1.9.6 3.1.6 1.7 0 3.2-.4 4.6-1.3s2.4-2.2 3.2-3.8c.8-1.7 1.2-3.7 1.2-6.1 0-2.4-.4-4.5-1.2-6.1-.7-1.7-1.8-3-3.1-3.8zm-1.4 13.5c-.4 1.1-1 1.9-1.7 2.5-.8.6-1.7.9-2.9.9-1.1 0-2-.3-2.8-.9-.8-.6-1.3-1.4-1.7-2.5-.4-1.1-.6-2.3-.6-3.7s.2-2.6.6-3.7c.4-1 1-1.9 1.7-2.4.8-.6 1.7-.9 2.8-.9 1.1 0 2.1.3 2.9.9.8.6 1.3 1.4 1.7 2.5.4 1.1.6 2.3.6 3.6 0 1.4-.2 2.7-.6 3.7zM46.7 8.1h5.1v21.8h-5.1zM166.2 12.8c.8-.6 1.7-.9 2.8-.9 1.2 0 2.2.4 3 1.1.7.7 1.2 1.6 1.4 2.6h4.9c-.1-1.6-.6-2.9-1.4-4.1-.8-1.2-1.9-2.1-3.3-2.7-1.4-.7-2.9-1-4.7-1-2.1 0-4 .5-5.5 1.4-1.6.9-2.8 2.3-3.6 4-.9 1.7-1.3 3.7-1.3 5.9s.4 4.2 1.2 5.9c.8 1.7 2 3 3.6 4s3.4 1.4 5.6 1.4c1.8 0 3.4-.3 4.8-1s2.4-1.6 3.2-2.8c.8-1.2 1.2-2.6 1.4-4.1h-4.9c-.2.8-.4 1.5-.8 2s-.9 1-1.5 1.3c-.6.3-1.3.4-2 .4-1.1 0-2-.3-2.8-.9-.8-.6-1.4-1.4-1.8-2.5-.4-1.1-.7-2.3-.7-3.8s.2-2.7.7-3.8c.3-1.1.9-1.9 1.7-2.4zM96.1 10.4c-.9-.9-2-1.6-3.2-2-1.2-.4-2.5-.7-3.8-.7-2.1 0-3.9.5-5.4 1.4-1.5.9-2.7 2.3-3.6 4-.9 1.7-1.3 3.7-1.3 5.9 0 2.3.4 4.3 1.3 6 .9 1.7 2.1 3 3.7 3.9 1.6.9 3.5 1.4 5.7 1.4 1.7 0 3.2-.3 4.5-.8 1.3-.5 2.4-1.2 3.2-2.2.9-.9 1.4-2.1 1.7-3.3l-4.8-.5c-.2.6-.6 1.1-1 1.5-.4.4-1 .7-1.6 1-.6.2-1.3.3-2 .3-1.1 0-2.1-.2-2.9-.7-.8-.5-1.5-1.2-1.9-2.1-.4-.9-.7-1.9-.7-3.1h15.2v-1.6c0-1.9-.3-3.6-.8-4.9-.6-1.4-1.4-2.6-2.3-3.5zm-12.2 6.5c0-.9.3-1.6.6-2.4.4-.8 1.1-1.5 1.9-2 .8-.5 1.7-.8 2.8-.8 1 0 1.8.2 2.6.7.7.4 1.3 1.1 1.7 1.8.4.8.6 1.6.6 2.6H83.9zM197.5 19.3c-.9-.5-1.9-.8-3-.9 1.5-.3 2.6-.8 3.5-1.5.9-.8 1.3-1.8 1.3-3 0-1.8-.8-3.3-2.3-4.3-1.5-1-3.5-1.5-6.1-1.5h-9.2v21.8h10.6c1.7 0 3.2-.2 4.3-.7 1.2-.5 2.1-1.2 2.7-2.1.6-.9 1-1.9 1-3.1 0-1-.2-1.9-.7-2.7-.5-.8-1.2-1.5-2.1-2zm-11-7.1h4.3c1.1 0 1.9.2 2.5.6.6.4.9 1 .9 1.8 0 .5-.1 1-.4 1.3-.3.4-.6.7-1.1.9-.5.2-1.1.3-1.8.3h-4.4v-4.9zm8 13c-.5.4-1.3.7-2.2.7h-5.8v-5.4h5.8c.9 0 1.7.3 2.2.8.5.5.8 1.2.8 2.1 0 .7-.3 1.3-.8 1.8zM71.7 10.3c-1.4-.8-3-1.2-4.8-1.2-1.7 0-3.1.4-4.3 1.1-1.2.7-2.2 1.7-2.9 3.1h-.2c.2-1.8.5-3.3 1.1-4.5.5-1.2 1.3-2.1 2.4-2.6 1-.6 2.4-.9 4-.9 1.4 0 2.7-.1 3.8-.1 1.1-.1 2-.2 2.8-.5.8-.2 1.5-.6 2.1-1.2L73.8 0c-.5.3-1 .6-1.7.7-.7.1-1.4.1-2.3.1h-3c-3.8 0-6.6 1.3-8.5 3.9-1.9 2.5-2.9 6.4-2.9 11.5v2c0 2.7.4 4.9 1.3 6.7.9 1.8 2.1 3.2 3.6 4.1 1.6.9 3.4 1.4 5.5 1.4s4-.4 5.5-1.3c1.6-.9 2.8-2.2 3.6-3.8.8-1.6 1.3-3.6 1.3-5.8 0-2.2-.4-4-1.2-5.6-.8-1.7-1.9-2.8-3.3-3.6zm-1.4 12.8c-.4 1-1 1.8-1.8 2.3-.8.5-1.7.8-2.7.8-1.6 0-2.9-.6-3.8-1.8-.9-1.2-1.4-2.8-1.4-4.9 0-1 .1-1.9.4-2.7.2-.8.6-1.5 1-2s1-1 1.6-1.2c.6-.3 1.3-.4 2.1-.4 1.1 0 2 .3 2.7.8.8.5 1.4 1.2 1.8 2.2.4.9.6 2.1.6 3.5.1 1.2-.1 2.4-.5 3.4z"/></svg>