<svg xmlns="http://www.w3.org/2000/svg" viewBox="0 0 252 45.6" style="enable-background:new 0 0 252 45.6" xml:space="preserve"><path d="M7.6 1.9V.2H.2V2h2.7v14.5h2V1.9h2.7zm9.6 14.5L13.5.2h-1.9L7.8 16.4h2l.8-3.8h3.8l.8 3.8h2zM14 10.8h-3l1.5-7.5 1.5 7.5zm11.6-8.9V.2h-6.1v7.3h-1.2V9h1.2v7.4h2V9h1.8V7.5h-1.8V1.9h4.1zM35 16.4 31.3.2h-1.9l-3.8 16.2h2l.8-3.8h3.8l.8 3.8h2zm-3.2-5.6h-3l1.5-7.5 1.5 7.5zm15.5 5.6V.2h-1.8l-3.3 9-3.3-9h-1.8v16.2h2V5l2.5 7.4h1.2l2.6-7.6v11.5h1.9zM57 1.9V.2h-6.1v7.3h-1.2V9h1.2v7.4h2V9h1.8V7.5h-1.8V1.9H57zm9.5 14.5L62.7.2h-1.9L57 16.4h2l.8-3.8h3.8l.8 3.8h2.1zm-3.3-5.6h-3l1.5-7.5 1.5 7.5zm17.6.8c0-3.6-1.4-4.8-3.9-4.8h-1.7V1.9H80V.2h-6.9v16.2h3.7c2.5 0 4-1.2 4-4.8zm-2 0c0 2.2-.7 3-2 3h-1.7v-6h1.7c1.3.1 2 .8 2 3zm12.6 4.8V.2h-1.8l-4 11.3V.2h-2v16.2h1.8l4-11.2v11.2h2zm10.9-8.1c0-4.5-.1-5.9-1.2-7.1-.6-.7-1.5-1.2-2.8-1.2-1.3 0-2.1.5-2.8 1.2-1 1.2-1.2 2.6-1.2 7.1s.1 5.9 1.2 7.1c.6.7 1.5 1.2 2.8 1.2 1.3 0 2.1-.5 2.8-1.2 1-1.2 1.2-2.6 1.2-7.1zm-2 0c0 3.8-.1 5.1-.7 5.9-.3.4-.7.6-1.3.6s-1.1-.3-1.3-.6c-.6-.8-.7-2.1-.7-5.9 0-3.8.1-5.1.7-5.9.3-.4.7-.6 1.3-.6s1 .3 1.3.6c.6.7.7 2 .7 5.9zm12.1 8.1V.2h-6.7v8.6c0 5.5-1.1 5.8-2.3 5.8h-.2v1.8h.6c2 0 3.8-.6 3.8-7.3V1.9h2.9v14.5h1.9zm11-8.1c0-4.5-.1-5.9-1.2-7.1-.6-.7-1.5-1.2-2.8-1.2s-2.1.5-2.8 1.2c-1 1.2-1.2 2.6-1.2 7.1s.1 5.9 1.2 7.1c.6.7 1.5 1.2 2.8 1.2s2.1-.5 2.8-1.2c1-1.2 1.2-2.6 1.2-7.1zm-2 0c0 3.8-.1 5.1-.7 5.9-.3.4-.7.6-1.3.6-.6 0-1.1-.3-1.3-.6-.6-.8-.7-2.1-.7-5.9 0-3.8.1-5.1.7-5.9.3-.4.7-.6 1.3-.6.6 0 1 .3 1.3.6.6.7.7 2 .7 5.9zm11.1-6.4V.2h-6.1v16.2h2V1.9h4.1zm10.2 14.5V.2h-1.8l-4 11.3V.2h-2v16.2h1.8l4-11.2v11.2h2zm10.8 0V.2h-3.7c-2.5 0-3.8 1.1-3.8 4.6 0 2.3.5 3.6 2 4.2l-2.5 7.4h2.1l2.2-7h1.8v7h1.9zm-2-8.7h-1.7c-1.5 0-1.8-1.2-1.8-2.9s.3-2.9 1.8-2.9h1.7v5.8zm13.4 8.7V.2h-6.7v8.6c0 5.5-1.1 5.8-2.3 5.8h-.2v1.8h.6c2 0 3.8-.6 3.8-7.3V1.9h2.9v14.5h1.9zm14.3 0V.2h-2v16.2h2zm-3.4-4.7c0-3.6-1.4-4.7-3.8-4.7h-1.7V.2h-2v16.2h3.6c2.5 0 3.9-1.2 3.9-4.7zm-2 0c0 2.2-.6 3-1.9 3h-1.7v-6h1.7c1.3 0 1.9.8 1.9 3zm17-11.5h-2.1L184.6 8l4.4 8.4h.3v3.2h1.9v-5h-.9l-3.6-6.8 4.1-7.6zm-6.2 16.2V.2h-2v16.2h2zM206.2.2h-2.1L200 7.9l4.4 8.4h.3v3.2h1.9v-5h-.9l-3.6-6.8 4.1-7.5zM200 16.4V.2h-2v16.2h2zm16-8.1c0-4.5-.1-5.9-1.2-7.1-.6-.7-1.5-1.2-2.8-1.2-1.3 0-2.1.5-2.8 1.2-1 1.2-1.2 2.6-1.2 7.1s.1 5.9 1.2 7.1c.6.7 1.5 1.2 2.8 1.2 1.3 0 2.1-.5 2.8-1.2 1.1-1.2 1.2-2.6 1.2-7.1zm-1.9 0c0 3.8-.1 5.1-.7 5.9-.3.4-.7.6-1.3.6-.6 0-1.1-.3-1.3-.6-.6-.8-.7-2.1-.7-5.9 0-3.8.1-5.1.7-5.9.3-.4.7-.6 1.3-.6.6 0 1 .3 1.3.6.6.7.7 2 .7 5.9zm12.2 4.1h-1.9c0 .7-.2 1.4-.5 1.9-.3.3-.7.6-1.3.6-.6 0-1.1-.3-1.3-.6-.6-.8-.7-2.1-.7-5.9 0-3.8.1-5.1.7-5.9.3-.4.7-.6 1.3-.6.6 0 1 .3 1.3.6.4.5.5 1.2.5 1.8h1.9c0-1.3-.4-2.5-1.2-3.2-.6-.6-1.4-1-2.6-1-1.3 0-2.2.5-2.8 1.2-1.1 1.2-1.2 2.6-1.2 7.1s.1 5.9 1.2 7.1c.6.7 1.5 1.2 2.8 1.2 1.1 0 1.9-.3 2.5-.9.9-.8 1.3-2.1 1.3-3.4zm10.3 4V.2h-7.5v16.2h2V1.9h3.6v14.5h1.9zm11.5 0L244.3.2h-1.9l-3.8 16.2h2l.8-3.8h3.8l.8 3.8h2.1zm-3.2-5.6h-3l1.5-7.5 1.5 7.5zm7.1 6.9v-3.6h-2.1v5.1l2.1-1.5zM10.4 45.3v-4.6H9.1V26.2H2.3v6.5c0 3.2-.5 5.8-1.3 7.9H0v4.6h1.9v-2.9h6.7v2.9h1.8zm-3.2-4.7H3c.8-2.1 1.2-4.6 1.2-7.5v-5.2h2.9v12.7zm4.9-2.1c0 2.7 1.6 4.1 3.8 4.1 1.3 0 2.2-.5 2.8-1.2 1-1.2 1.2-2.6 1.2-7.1s-.1-5.9-1.2-7.1c-.7-.7-1.6-1.2-2.8-1.2-1.1 0-2 .4-2.6 1-.8.8-1.1 1.9-1.1 3.2h2c0-1.1.3-2.5 1.8-2.5.6 0 1 .3 1.3.6.5.7.7 2 .7 5.3h-5.8v4.9zm2-3.2h3.8c0 3.1-.2 4.2-.7 4.9-.3.4-.7.6-1.3.6-1.1 0-1.8-.9-1.8-2.3v-3.2zm16.2-4.4c0-3.6-1.4-4.7-3.8-4.7h-3.6v16.2h2v-6.8h1.7c2.3 0 3.7-1.1 3.7-4.7zm-2 0c0 2.2-.6 3-2 3h-1.6V28h1.6c1.4-.1 2 .7 2 2.9zM35 42.4V26.2h-2v16.2h2zm11.5 0V26.2h-6.7v8.6c0 5.5-1.1 5.8-2.3 5.8h-.2v1.8h.6c2 0 3.8-.6 3.8-7.3v-7.2h2.9v14.5h1.9zm5.3 0V26.2h-2v16.2h2zm5.4 0V26.2h-2v16.2h2zm6.6 0-4.6-8.5 4.2-7.7h-2.1L57.2 34l4.4 8.4h2.2zm15-16.2h-2.1L72.6 34l4.4 8.4h.3v3.2h1.9v-5h-.9l-3.6-6.8 4.1-7.6zm-6.2 16.2V26.2h-2v16.2h2zm15.2-16.2h-2.2l-1.8 6.9-1.8-6.9h-2.1l3 9.7h-1.5v1.2h1.5v5.3h2v-5.3h1.5v-1.2h-1.5l2.9-9.7zm9.5 4.7c0-3.6-1.4-4.7-3.8-4.7h-3.6v16.2h2v-6.8h1.7c2.2 0 3.7-1.1 3.7-4.7zm-2 0c0 2.2-.6 3-2 3h-1.6V28h1.6c1.4-.1 2 .7 2 2.9zm11.8 11.5-3.8-16.2h-1.9l-3.8 16.2h2l.8-3.8h3.8l.8 3.8h2.1zm-3.2-5.6h-3l1.5-7.5 1.5 7.5zm13.5 5.6V26.2h-6.7v8.6c0 5.5-1.1 5.8-2.3 5.8h-.2v1.8h.6c2 0 3.8-.6 3.8-7.3v-7.2h2.9v14.5h1.9zm14.3 0v-1.8h-4.3v-5.5h3.7v-1.8h-3.7v-5.4h4.3v-1.8h-6.3v16.2h6.3zm13.1 0V26.2H143l-3.3 9-3.3-9h-1.8v16.2h2V31l2.5 7.4h1.2l2.6-7.6v11.5h1.9zm9.7 0v-1.8h-4.3v-5.5h3.7v-1.8h-3.7v-5.4h4.3v-1.8h-6.3v16.2h6.3zm10.1-4h-1.9c0 .7-.2 1.4-.5 1.9-.2.3-.7.6-1.3.6-.6 0-1.1-.3-1.3-.6-.6-.8-.7-2.1-.7-5.9 0-3.8.1-5.1.7-5.9.3-.4.7-.6 1.3-.6.6 0 1 .3 1.3.6.4.5.5 1.2.5 1.8h1.9c0-1.3-.4-2.5-1.2-3.2-.6-.6-1.4-1-2.6-1-1.3 0-2.2.5-2.8 1.2-1.1 1.2-1.2 2.6-1.2 7.1s.1 5.9 1.2 7.1c.6.7 1.5 1.2 2.8 1.2 1.1 0 1.9-.3 2.5-.9.9-.8 1.3-2.1 1.3-3.4zm4.9 4v-2.3h-2.3v2.3h2.3z" style="fill:#7d7d7d"/></svg>