<svg version="1.1" id="Layer_1" xmlns="http://www.w3.org/2000/svg" x="0" y="0" viewBox="0 0 261 128" style="enable-background:new 0 0 261 128" xml:space="preserve"><style>.st0{fill:#060315}</style><path class="st0" d="M133.4 65.3V48.8h-3.7v6.6h-6.4v-6.6h-3.8v16.5h3.8v-6.7h6.4v6.7zM233.4 50.5c-.7-.7-1.5-1.2-2.4-1.5-.9-.3-1.9-.5-2.9-.5-1.6 0-3 .4-4.1 1.1-1.2.7-2.1 1.7-2.7 3-.6 1.3-1 2.8-1 4.5 0 1.7.3 3.2 1 4.5.6 1.3 1.6 2.3 2.8 2.9 1.2.7 2.6 1 4.3 1 1.3 0 2.4-.2 3.4-.6 1-.4 1.8-.9 2.5-1.7.6-.7 1.1-1.6 1.3-2.5l-3.6-.4c-.2.5-.4.9-.8 1.2-.3.3-.7.6-1.2.7-.5.2-1 .2-1.5.2-.8 0-1.6-.2-2.2-.5-.6-.4-1.1-.9-1.5-1.6-.3-.7-.5-1.5-.5-2.4h11.5v-1.2c0-1.4-.2-2.7-.6-3.7-.5-.9-1.1-1.8-1.8-2.5zm-9.2 5c0-.6.2-1.2.5-1.8.3-.6.8-1.1 1.4-1.5.6-.4 1.3-.6 2.1-.6.7 0 1.4.2 2 .5.6.3 1 .8 1.3 1.4.3.6.5 1.2.5 2h-7.8zM232.2 19.9H227V6.6h-3.7v13.3h-5.2V6.6h-3.8v16.5H236V6.6h-3.8zM105.1 23.1h3.8V9.8h5.3V6.6H99.8v3.2h5.3zM119.7 22.4c1.2.7 2.6 1 4.2 1s3-.3 4.2-1c1.2-.7 2.1-1.6 2.7-2.9.6-1.2 1-2.7 1-4.4 0-1.6-.3-3.1-.9-4.2-.6-1.2-1.4-2-2.5-2.7-1-.6-2.3-.9-3.6-.9-1.3 0-2.3.3-3.3.8-.9.5-1.7 1.3-2.2 2.3h-.2c.1-1.4.4-2.5.8-3.4.4-.9 1-1.6 1.8-2 .8-.4 1.8-.7 3-.7 1.1 0 2-.1 2.8-.1.8-.1 1.5-.2 2.1-.4.6-.2 1.1-.5 1.6-.9L129.8.4c-.3.3-.8.4-1.3.5s-1.1.1-1.8.1h-2.3c-2.8 0-5 1-6.4 2.9-1.4 1.9-2.2 4.8-2.2 8.7v1.5c0 2 .3 3.7 1 5.1.8 1.4 1.7 2.5 2.9 3.2zm.6-9.2c.2-.6.4-1.1.8-1.5.3-.4.7-.7 1.2-.9.5-.2 1-.3 1.6-.3.8 0 1.5.2 2.1.6.6.4 1 .9 1.3 1.7.3.7.5 1.6.5 2.6s-.2 1.9-.5 2.7c-.3.8-.8 1.3-1.3 1.8-.6.4-1.3.6-2.1.6-1.2 0-2.2-.5-2.9-1.4-.7-.9-1.1-2.2-1.1-3.7.1-1 .2-1.6.4-2.2zM54 4.2c.6 0 1.2-.2 1.6-.6.4-.4.7-.9.7-1.5S56.1 1 55.6.6c-.5-.4-1-.6-1.6-.6-.6 0-1.1.2-1.6.6-.4.4-.7.9-.7 1.5s.2 1.1.7 1.5c.4.4 1 .6 1.6.6zM170.5 60.8l-3.6-.4c-.2.5-.4.9-.8 1.2-.3.3-.7.6-1.2.7-.5.2-1 .2-1.5.2-.8 0-1.6-.2-2.2-.5-.6-.4-1.1-.9-1.5-1.6-.3-.7-.5-1.5-.5-2.4h11.5v-1.2c0-1.4-.2-2.7-.6-3.7-.4-1.1-1-1.9-1.7-2.6-.7-.7-1.5-1.2-2.4-1.5-.9-.3-1.9-.5-2.9-.5-1.6 0-3 .4-4.1 1.1-1.2.7-2.1 1.7-2.7 3-.6 1.3-1 2.8-1 4.5 0 1.7.3 3.2 1 4.5.6 1.3 1.6 2.3 2.8 2.9 1.2.7 2.6 1 4.3 1 1.3 0 2.4-.2 3.4-.6 1-.4 1.8-.9 2.5-1.7.5-.6 1-1.4 1.2-2.4zm-9.4-8.6c.6-.4 1.3-.6 2.1-.6.7 0 1.4.2 2 .5.6.3 1 .8 1.3 1.4.3.6.5 1.2.5 2h-7.8c0-.6.2-1.2.5-1.8.3-.7.8-1.2 1.4-1.5zM86.8 22.3c1.2.7 2.6 1.1 4.2 1.1s3-.4 4.2-1.1c1.2-.7 2.1-1.7 2.7-3 .7-1.3 1-2.8 1-4.5 0-1.7-.3-3.2-1-4.5-.6-1.3-1.6-2.3-2.7-3-1.2-.6-2.6-.9-4.2-.9s-3 .4-4.2 1.1c-1.2.7-2.1 1.7-2.8 3-.6 1.3-1 2.8-1 4.5 0 1.7.3 3.2 1 4.5.7 1.1 1.6 2.1 2.8 2.8zm.6-10.2c.3-.8.7-1.5 1.3-2 .6-.5 1.3-.7 2.2-.7.9 0 1.6.2 2.2.7.6.5 1 1.1 1.3 2 .3.8.4 1.7.4 2.7 0 1-.1 1.9-.4 2.7-.3.8-.7 1.5-1.3 2-.6.5-1.3.7-2.2.7-.9 0-1.6-.2-2.2-.7-.6-.5-1-1.1-1.3-2-.3-.8-.4-1.7-.4-2.7 0-.9.1-1.8.4-2.7zM59.4 23.1c.9 0 1.7-.2 2.3-.5.7-.3 1.2-.8 1.6-1.5.4-.7.8-1.5 1-2.5.2-1 .4-2.2.5-3.6l.2-5.2h4.7v13.3h3.8V6.6h-12l-.3 7.3c0 1.2-.1 2.1-.2 2.9-.1.8-.3 1.4-.5 1.8-.2.5-.4.8-.7 1-.3.2-.7.3-1.1.3h-.6v3.2h1.3zM202.9 29.3h3.7v-6.4l5.6-16.3h-3.9l-3.5 11.8-3.6-11.8h-4l5.7 16.3zM179.2 22.4c1-.5 1.7-1.1 2.3-2 .5-.8.8-1.8.8-2.9 0-1.7-.6-3-1.7-4-1.2-1-2.8-1.5-4.9-1.5h-3.8V6.6h-3.8v16.5h7.5c1.4 0 2.6-.2 3.6-.7zm-7.3-7.3h3.8c.8 0 1.5.2 2.1.7.5.5.8 1 .8 1.8 0 .7-.3 1.2-.8 1.7-.5.4-1.2.6-2.1.6h-3.8v-4.8zM136.4 22.9c.8.4 1.8.6 2.8.6.9 0 1.6-.1 2.2-.4.6-.2 1.2-.6 1.6-1 .4-.4.8-.8 1-1.3h.1v2.3h3.7V12c0-1.1-.2-2-.6-2.7-.4-.7-.9-1.3-1.6-1.7-.7-.4-1.4-.7-2.2-.9-.8-.2-1.6-.3-2.4-.3-1.2 0-2.2.2-3.2.5s-1.8.8-2.4 1.5c-.7.7-1.1 1.5-1.4 2.5l3.6.5c.2-.6.6-1.1 1.1-1.5.6-.4 1.3-.6 2.3-.6.9 0 1.6.2 2.1.7.5.4.7 1.1.7 1.9v.1c0 .4-.1.6-.4.8-.3.2-.7.3-1.3.4-.6.1-1.4.2-2.4.3-.8.1-1.6.2-2.3.4-.7.2-1.4.5-2 .8-.6.4-1.1.9-1.4 1.5-.3.6-.5 1.4-.5 2.3 0 1.1.2 2 .7 2.7.7.7 1.3 1.3 2.2 1.7zm1.4-5.7c.3-.3.6-.6 1.1-.8.5-.2 1-.3 1.6-.4.3 0 .6-.1.9-.1.4-.1.7-.1 1.1-.2.4-.1.7-.1 1-.2.3-.1.5-.2.6-.3v1.9c0 .6-.2 1.2-.5 1.7s-.7.9-1.3 1.2c-.6.3-1.3.5-2 .5-.8 0-1.5-.2-2-.5-.5-.4-.8-.9-.8-1.6-.1-.5.1-.9.3-1.2zM39.3 16.9h1.9l4.5 6.2h4.7l-6.2-8.4 6.1-8.1h-4.6l-5 6.6h-1.4V6.6h-3.9v16.5h3.9zM239.3 6.6h3.9v16.5h-3.9zM241.3 4.2c.6 0 1.2-.2 1.6-.6.4-.4.7-.9.7-1.5s-.2-1.1-.7-1.5c-.4-.4-1-.6-1.6-.6-.6 0-1.1.2-1.6.6-.5.4-.7.9-.7 1.5s.2 1.1.7 1.5c.4.4 1 .6 1.6.6zM184.3 6.6h3.9v16.5h-3.9zM153.7 70.1v-8h-2.6V48.8h-11.9l-.5 5.8c-.1.9-.2 1.8-.3 2.6-.1.8-.2 1.5-.4 2.2-.2.6-.3 1.2-.6 1.7-.2.5-.5.8-.9 1.1h-1.3v8h3.8v-4.8h10.8v4.8h3.9zm-6.3-8h-6.8c.5-.8.9-1.8 1.1-3 .2-1.2.4-2.7.6-4.5l.3-2.6h4.8v10.1zM248.5 55.4h-6.4v-6.6h-3.7v16.5h3.7v-6.7h6.4v6.7h3.8V48.8h-3.8zM256.8 6.6v6.6h-6.4V6.6h-3.8v16.5h3.8v-6.7h6.4v6.7h3.7V6.6zM154.2 22.3c1.2.7 2.6 1.1 4.2 1.1 1.4 0 2.6-.3 3.6-.8s1.8-1.2 2.4-2.1c.6-.9.9-1.9 1-3.1h-3.7c-.1.6-.3 1.1-.6 1.5-.3.4-.7.7-1.2 1-.5.2-1 .3-1.5.3-.8 0-1.5-.2-2.1-.6-.6-.4-1.1-1.1-1.4-1.9-.3-.8-.5-1.8-.5-2.9 0-1.1.2-2.1.5-2.9.3-.8.8-1.4 1.4-1.8.6-.4 1.3-.6 2.1-.6.9 0 1.7.3 2.2.8.6.5.9 1.2 1.1 2h3.7c-.1-1.2-.4-2.2-1.1-3.1-.6-.9-1.4-1.6-2.5-2.1-1-.5-2.2-.7-3.6-.7-1.6 0-3 .4-4.2 1.1-1.2.7-2.1 1.7-2.7 3-.6 1.3-1 2.8-1 4.4 0 1.7.3 3.1.9 4.4.9 1.3 1.8 2.3 3 3zM52 6.6h3.9v16.5H52zM110.7 92.7c-.7-.7-1.5-1.2-2.4-1.5-.9-.3-1.9-.5-2.9-.5-1.6 0-3 .4-4.1 1.1-1.2.7-2.1 1.7-2.7 3-.6 1.3-1 2.8-1 4.5 0 1.7.3 3.2 1 4.5.6 1.3 1.6 2.3 2.8 2.9 1.2.7 2.6 1 4.3 1 1.3 0 2.4-.2 3.4-.6 1-.4 1.8-.9 2.5-1.7.6-.7 1.1-1.6 1.3-2.5l-3.6-.4c-.2.5-.4.9-.8 1.2-.3.3-.7.6-1.2.7-.5.2-1 .2-1.5.2-.8 0-1.6-.2-2.2-.5-.6-.4-1.1-.9-1.5-1.6-.3-.7-.5-1.5-.5-2.4H113v-1.2c0-1.4-.2-2.7-.6-3.7-.4-.9-1-1.8-1.7-2.5zm-9.2 4.9c0-.6.2-1.2.5-1.8.3-.6.8-1.1 1.4-1.5.6-.4 1.3-.6 2.1-.6.7 0 1.4.2 2 .5.6.3 1 .8 1.3 1.4.3.6.5 1.2.5 2h-7.8zM188.9 57c0-1.8-.3-3.4-.9-4.6-.6-1.3-1.4-2.2-2.5-2.9-1-.7-2.2-1-3.5-1-1 0-1.8.2-2.4.5-.6.3-1.1.7-1.5 1.2-.4.5-.6.9-.9 1.3h-.2v-2.7h-3.8v22.7h3.9v-8.8h.2c.2.4.5.8.9 1.3.4.4.9.8 1.5 1.1.6.3 1.4.5 2.4.5 1.3 0 2.5-.3 3.5-1s1.8-1.6 2.4-2.9c.7-1.3.9-2.9.9-4.7zm-4.4 2.8c-.3.8-.7 1.4-1.3 1.9-.6.5-1.3.7-2.2.7-.8 0-1.5-.2-2.1-.7-.6-.5-1-1.1-1.3-1.9-.3-.8-.5-1.7-.5-2.8s.1-2 .4-2.8c.3-.8.7-1.4 1.3-1.8.6-.4 1.3-.7 2.1-.7.9 0 1.6.2 2.2.7.6.5 1 1.1 1.3 1.9.3.8.4 1.7.4 2.7.2 1 0 2-.3 2.8zM98.9 65.3V48.8H94.1l-4.9 11.9-4.7-11.9h-4.8v16.5h3.8V54.1l4.4 11.2h2.7L95.2 54v11.3zM198.9 91.9c-.7-.4-1.4-.7-2.2-.9-.8-.2-1.6-.3-2.4-.3-1.2 0-2.2.2-3.2.5s-1.8.8-2.4 1.5c-.7.7-1.1 1.5-1.4 2.5l3.6.5c.2-.6.6-1.1 1.1-1.5.6-.4 1.3-.6 2.3-.6.9 0 1.6.2 2.1.7.5.4.7 1.1.7 1.9v.1c0 .4-.1.6-.4.8-.3.2-.7.3-1.3.4-.6.1-1.4.2-2.4.3-.8.1-1.6.2-2.3.4-.7.2-1.4.5-2 .8-.6.4-1.1.9-1.4 1.5-.3.6-.5 1.4-.5 2.3 0 1.1.2 2 .7 2.7.5.7 1.1 1.3 2 1.7.8.4 1.8.6 2.8.6.9 0 1.6-.1 2.2-.4.6-.2 1.2-.6 1.6-1 .4-.4.8-.8 1-1.3h.1v2.3h3.7v-11c0-1.1-.2-2-.6-2.7-.2-.8-.8-1.4-1.4-1.8zm-1.7 9.6c0 .6-.2 1.2-.5 1.7s-.7.9-1.3 1.2c-.6.3-1.3.5-2 .5-.8 0-1.5-.2-2-.5-.5-.4-.8-.9-.8-1.6 0-.5.1-.9.4-1.2.3-.3.6-.6 1.1-.8.5-.2 1-.3 1.6-.4.3 0 .6-.1.9-.1.4-.1.7-.1 1.1-.2.4-.1.7-.1 1-.2.3-.1.5-.2.6-.3v1.9zM113.1 60.4c-.2.5-.4.9-.8 1.2-.3.3-.7.6-1.2.7-.5.2-1 .2-1.5.2-.8 0-1.6-.2-2.2-.5-.6-.4-1.1-.9-1.5-1.6-.3-.7-.5-1.5-.5-2.4h11.5v-1.2c0-1.4-.2-2.7-.6-3.7-.4-1.1-1-1.9-1.7-2.6-.7-.7-1.5-1.2-2.4-1.5-.9-.3-1.9-.5-2.9-.5-1.6 0-3 .4-4.1 1.1-1.2.7-2.1 1.7-2.7 3-.6 1.3-1 2.8-1 4.5 0 1.7.3 3.2 1 4.5.6 1.3 1.6 2.3 2.8 2.9 1.2.7 2.6 1 4.3 1 1.3 0 2.4-.2 3.4-.6 1-.4 1.8-.9 2.5-1.7.6-.7 1.1-1.6 1.3-2.5l-3.7-.3zm-5.8-8.2c.6-.4 1.3-.6 2.1-.6.7 0 1.4.2 2 .5.6.3 1 .8 1.3 1.4.3.6.5 1.2.5 2h-7.8c0-.6.2-1.2.5-1.8.3-.7.8-1.2 1.4-1.5zM91.3 97.6h-6.4v-6.7h-3.8v16.6h3.8v-6.7h6.4v6.7H95V90.9h-3.7zM145.3 91.9c-.7-.4-1.4-.7-2.2-.9-.8-.2-1.6-.3-2.4-.3-1.2 0-2.2.2-3.2.5s-1.8.8-2.4 1.5c-.7.7-1.1 1.5-1.4 2.5l3.6.5c.2-.6.6-1.1 1.1-1.5.6-.4 1.3-.6 2.3-.6.9 0 1.6.2 2.1.7.5.4.7 1.1.7 1.9v.1c0 .4-.1.6-.4.8-.3.2-.7.3-1.3.4-.6.1-1.4.2-2.4.3-.8.1-1.6.2-2.3.4-.7.2-1.4.5-2 .8-.6.4-1.1.9-1.4 1.5-.3.6-.5 1.4-.5 2.3 0 1.1.2 2 .7 2.7.5.7 1.1 1.3 2 1.7.8.4 1.8.6 2.8.6.9 0 1.6-.1 2.2-.4.6-.2 1.2-.6 1.6-1 .4-.4.8-.8 1-1.3h.1v2.3h3.7v-11c0-1.1-.2-2-.6-2.7-.2-.8-.7-1.4-1.4-1.8zm-1.7 9.6c0 .6-.2 1.2-.5 1.7s-.7.9-1.3 1.2c-.6.3-1.3.5-2 .5-.8 0-1.5-.2-2-.5-.5-.4-.8-.9-.8-1.6 0-.5.1-.9.4-1.2.3-.3.6-.6 1.1-.8.5-.2 1-.3 1.6-.4.3 0 .6-.1.9-.1.4-.1.7-.1 1.1-.2.4-.1.7-.1 1-.2.3-.1.5-.2.6-.3v1.9zM23.9 29.3h3.7v-6.4l5.7-16.3h-4l-3.5 11.8-3.6-11.8h-4l5.7 16.3zM182.7 90.9h-11.9l-.5 5.8c-.1.9-.2 1.8-.3 2.6-.1.8-.2 1.5-.4 2.2-.2.6-.3 1.2-.6 1.7-.2.5-.5.8-.9 1.1h-1.3v8h3.8v-4.8h10.8v4.8h3.8v-8h-2.6V90.9zm-3.7 13.4h-6.8c.5-.8.9-1.8 1.1-3 .2-1.2.4-2.7.6-4.5l.3-2.6h4.8v10.1zM127.9 91.7c-1-.7-2.2-1-3.5-1-1 0-1.8.2-2.4.5-.6.3-1.1.7-1.5 1.2-.4.5-.6.9-.8 1.3h-.2V91h-3.8v22.7h3.9v-8.8h.2c.2.4.5.8.9 1.3.4.4.9.8 1.5 1.1.6.3 1.4.5 2.4.5 1.3 0 2.5-.3 3.5-1s1.8-1.6 2.4-2.9c.6-1.3.9-2.8.9-4.6 0-1.8-.3-3.4-.9-4.6-.7-1.4-1.6-2.4-2.6-3zm-1.1 10.3c-.3.8-.7 1.4-1.3 1.9-.6.5-1.3.7-2.2.7-.8 0-1.5-.2-2.1-.7-.6-.5-1-1.1-1.3-1.9-.3-.8-.5-1.7-.5-2.8s.1-2 .4-2.8c.3-.8.7-1.4 1.3-1.8.6-.4 1.3-.7 2.1-.7.9 0 1.6.2 2.2.7.6.5 1 1.1 1.3 1.9.3.8.4 1.7.4 2.7.2 1 0 1.9-.3 2.8zM152.7 98.2c0 1.2-.1 2.1-.2 2.9-.1.8-.3 1.4-.5 1.8-.2.5-.4.8-.7 1-.3.2-.7.3-1.1.3h-.6v3.2h1.2c.9 0 1.7-.2 2.3-.5.7-.3 1.2-.8 1.6-1.5.4-.7.8-1.5 1-2.5.2-1 .4-2.2.5-3.6l.3-5.3h4.7v13.3h3.8V90.9h-12l-.3 7.3zM216.6 91.7c-1-.7-2.2-1-3.5-1-1 0-1.8.2-2.4.5-.6.3-1.1.7-1.5 1.2-.4.5-.6.9-.8 1.3h-.2V91h-3.8v22.7h3.9v-8.8h.2c.2.4.5.8.9 1.3.4.4.9.8 1.5 1.1.6.3 1.4.5 2.4.5 1.3 0 2.5-.3 3.5-1s1.8-1.6 2.4-2.9c.6-1.3.9-2.8.9-4.6 0-1.8-.3-3.4-.9-4.6-.8-1.4-1.6-2.4-2.6-3zm-1.1 10.3c-.3.8-.7 1.4-1.3 1.9-.6.5-1.3.7-2.2.7-.8 0-1.5-.2-2.1-.7-.6-.5-1-1.1-1.3-1.9-.3-.8-.5-1.7-.5-2.8s.1-2 .4-2.8c.3-.8.7-1.4 1.3-1.8.6-.4 1.3-.7 2.1-.7.9 0 1.6.2 2.2.7.6.5 1 1.1 1.3 1.9.3.8.4 1.7.4 2.7.2 1 0 1.9-.3 2.8zM22.9 48.8H11l-.5 5.8c-.1.9-.2 1.8-.3 2.6-.1.8-.2 1.5-.4 2.2-.2.6-.3 1.2-.6 1.7-.2.5-.5.8-.9 1.1H7.1v8h3.8v-4.8h10.8v4.8h3.8v-8h-2.6V48.8zm-3.7 13.3h-6.8c.5-.8.9-1.8 1.1-3 .2-1.2.4-2.7.6-4.5l.3-2.6h4.8v10.1zM67.1 102.2V90.9h-3.8v16.6h4l6.6-11.3v11.3h3.8V90.9h-4zM13.1 22.2c1.2-.6 2.1-1.4 2.8-2.4.6-1 1-2.2 1-3.6 0-1.3-.3-2.5-1-3.5-.6-1-1.6-1.8-2.8-2.3-1.2-.6-2.6-.8-4.3-.8H4.5V4.4h10.2V1.1H.5v22h8.2c1.7 0 3.2-.3 4.4-.9zm-8.6-9.4h4.2c1.3 0 2.4.3 3.1 1 .7.7 1.1 1.4 1.1 2.4 0 .6-.2 1.2-.5 1.8-.3.6-.8 1-1.4 1.3-.6.3-1.4.5-2.3.5H4.5v-7zM42.4 56.9c0-1.7-.3-3.2-1-4.5-.6-1.3-1.6-2.3-2.8-2.9-1.2-.7-2.6-1-4.3-1-1.3 0-2.4.2-3.4.6-1 .4-1.8.9-2.5 1.7-.6.7-1.1 1.5-1.3 2.5l3.6.4c.2-.5.4-.9.8-1.2.3-.3.7-.6 1.2-.7.5-.2 1-.2 1.5-.2.8 0 1.6.2 2.2.5.6.4 1.1.9 1.5 1.6.3.7.5 1.4.5 2.4H27.1v1.2c0 1.4.2 2.7.6 3.8.4 1 1 1.9 1.6 2.6.7.7 1.5 1.2 2.4 1.5.9.3 1.9.5 2.9.5 1.6 0 3-.4 4.1-1.1 1.2-.7 2.1-1.7 2.7-3 .7-1.5 1-3 1-4.7zm-5.7 5c-.6.4-1.3.6-2.1.6-.7 0-1.4-.2-2-.5-.6-.3-1-.8-1.3-1.4-.3-.6-.5-1.3-.5-2h7.8c0 .6-.2 1.2-.5 1.8-.4.6-.8 1.1-1.4 1.5zM57.4 49.5c-1-.7-2.2-1-3.5-1-1 0-1.8.2-2.4.5-.6.3-1.1.7-1.5 1.2-.4.5-.6.9-.8 1.3H49v-2.7h-3.8v22.7H49v-8.8h.2c.2.4.5.8.9 1.3.4.4.9.8 1.5 1.1.6.3 1.4.5 2.4.5 1.3 0 2.5-.3 3.5-1s1.8-1.6 2.4-2.9c.6-1.3.9-2.8.9-4.6 0-1.8-.3-3.4-.9-4.6-.7-1.4-1.5-2.3-2.5-3zm-1.1 10.3c-.3.8-.7 1.4-1.3 1.9-.6.5-1.3.7-2.2.7-.8 0-1.5-.2-2.1-.7-.6-.5-1-1.1-1.3-1.9-.3-.8-.5-1.7-.5-2.8s.1-2 .4-2.8c.3-.8.7-1.4 1.3-1.8.6-.4 1.3-.7 2.1-.7.9 0 1.6.2 2.2.7.6.5 1 1.1 1.3 1.9.3.8.4 1.7.4 2.7.2 1 0 2-.3 2.8zM56.3 90.9h-1l-4.9 12-4.8-12h-4.7v16.6h3.7V96.3l4.4 11.2h2.7l4.6-11.3v11.3H60V90.9h-1.6zM66.4 67.8c-.3.3-.7.4-1.2.4-.4 0-1-.1-1.5-.2l-.9 3c.3.1.6.2 1.1.3.5.1.9.1 1.5.1 1 0 1.9-.2 2.6-.5.7-.3 1.4-.8 1.9-1.4.5-.6.9-1.4 1.2-2.2l6.6-18.5h-4.1l-3.8 12.5h-.2l-3.8-12.5h-4.1l6 16.9-.3.9c-.4.5-.7 1-1 1.2zM206.7 65.3h2.8L214 54v11.3h3.7V48.8H213l-4.9 11.9-4.8-11.9h-4.7v16.5h3.7V54.1z"/></svg>