<svg version="1.1" id="Layer_1" xmlns="http://www.w3.org/2000/svg" x="0" y="0" viewBox="0 0 230 82.7" style="enable-background:new 0 0 230 82.7" xml:space="preserve"><style>.st0{fill:#060315}</style><path class="st0" d="M225.5 6.7v8h-7.6v-8h-4.4v19.7h4.4v-8h7.6v8h4.5V6.7zM5 12.2c-.1 2.5-.3 4.5-.6 5.9-.3 1.5-.7 2.5-1.3 3.2-.6.7-1.4 1-2.4 1.1H0v3.9h1.3c2 0 3.6-.5 4.8-1.4 1.2-.9 2-2.3 2.5-4.2.5-1.9.8-4.3.9-7.1l.4-9.5H18v22.3h4.6V.2H5.5l-.5 12zM40.3 7.9c-.8-.5-1.6-.9-2.6-1.1-.9-.2-1.9-.3-2.8-.3-1.4 0-2.6.2-3.8.6-1.1.4-2.1 1-2.9 1.8-.8.8-1.3 1.8-1.7 3l4.3.6c.2-.7.7-1.3 1.3-1.8.7-.5 1.6-.7 2.7-.7s1.9.3 2.5.8.9 1.3.9 2.2v.1c0 .4-.2.8-.5 1-.3.2-.8.4-1.6.5-.7.1-1.6.2-2.8.3-1 .1-1.9.3-2.8.5-.9.2-1.7.5-2.4 1-.7.4-1.3 1-1.7 1.7-.4.7-.6 1.6-.6 2.7 0 1.3.3 2.4.9 3.2.6.9 1.4 1.5 2.4 2 1 .4 2.1.7 3.4.7 1 0 1.9-.1 2.7-.4.8-.3 1.4-.7 1.9-1.1.5-.5.9-1 1.2-1.5h.2v2.7h4.4V13.2c0-1.3-.2-2.4-.7-3.3-.5-.8-1.1-1.5-1.9-2zm-2 11.4c0 .7-.2 1.4-.6 2-.4.6-.9 1.1-1.6 1.5-.7.4-1.5.5-2.4.5-1 0-1.8-.2-2.4-.7-.6-.4-.9-1.1-.9-1.9 0-.6.2-1.1.5-1.5.3-.4.7-.7 1.3-.9.5-.2 1.2-.4 1.9-.5.3 0 .7-.1 1.1-.2.4-.1.8-.1 1.3-.2l1.2-.3c.3-.1.6-.2.7-.3v2.5zM163.3 57.9c-.8-.5-1.6-.9-2.6-1.1-.9-.2-1.9-.3-2.8-.3-1.4 0-2.6.2-3.8.6-1.1.4-2.1 1-2.9 1.8-.8.8-1.3 1.8-1.7 3l4.3.6c.2-.7.7-1.3 1.3-1.8.7-.5 1.6-.7 2.7-.7s1.9.3 2.5.8.9 1.3.9 2.2v.1c0 .4-.2.8-.5 1-.3.2-.8.4-1.6.5-.7.1-1.7.2-2.8.3-1 .1-1.9.3-2.8.5-.9.2-1.7.5-2.4 1-.7.4-1.3 1-1.7 1.7-.4.7-.6 1.6-.6 2.7 0 1.3.3 2.4.9 3.2.6.9 1.4 1.5 2.4 2 1 .4 2.1.7 3.4.7 1 0 1.9-.1 2.7-.4.8-.3 1.4-.7 1.9-1.1.5-.5.9-1 1.2-1.5h.2v2.7h4.4V63.2c0-1.3-.2-2.4-.7-3.3-.5-.8-1.1-1.5-1.9-2zm-2 11.4c0 .7-.2 1.4-.6 2-.4.6-.9 1.1-1.6 1.5-.7.4-1.5.5-2.4.5-1 0-1.8-.2-2.4-.7-.6-.4-.9-1.1-.9-1.9 0-.6.2-1.1.5-1.5.3-.4.7-.7 1.3-.9.5-.2 1.2-.4 1.9-.5.3 0 .7-.1 1.1-.2.4-.1.8-.1 1.3-.2.4-.1.8-.2 1.1-.3.4-.1.6-.2.7-.3v2.5zM63.9 26.4V6.7h-4.8l-7.8 13.4V6.7h-4.5v19.7h4.8L59.4 13v13.4zM150.7 25.5c1.2-.6 2.1-1.4 2.7-2.4.6-1 .9-2.1.9-3.4 0-2-.7-3.6-2.1-4.8s-3.3-1.8-5.8-1.8H142V6.7h-4.5v19.6h8.9c1.7.1 3.2-.2 4.3-.8zm-8.7-8.6h4.5c1 0 1.8.3 2.5.8.6.5 1 1.2 1 2.1 0 .8-.3 1.5-1 2-.6.5-1.5.8-2.5.8H142v-5.7zM156.8 6.7h4.6v19.6h-4.6zM87.2 6.7h4.6v19.6h-4.6zM123.8 26.4h4.4V10.5h6.4V6.7h-17.2v3.8h6.4zM55.3 5c1.8 0 3.3-.5 4.4-1.4 1.1-.9 1.6-2.1 1.6-3.6h-3.5c0 .6-.2 1.2-.6 1.6-.4.5-1 .7-1.9.7-.9 0-1.6-.2-2-.7-.4-.5-.6-1-.6-1.6h-3.4c0 1.5.5 2.7 1.6 3.6 1.2 1 2.6 1.4 4.4 1.4zM111 26.4v6.3h4.5v-9.8h-4.3l-4.8-6.5 7.3-9.7h-5.6l-5.9 8h-1.7v-8h-4.6v19.7h4.6V19h2.2l5.4 7.4zM63.8 60.5h6.4v15.9h4.4V60.5H81v-3.8H63.8zM144.1 56.7h-14.2l-.6 6.9c-.1 1.1-.2 2.1-.3 3.1-.1.9-.3 1.8-.5 2.6s-.4 1.4-.7 2c-.3.6-.6 1-1 1.3h-1.6v9.5h4.6v-5.7h12.8v5.7h4.5v-9.5h-3V56.7zm-4.4 15.9h-8.1c.6-.9 1.1-2.1 1.4-3.6.3-1.5.5-3.3.7-5.3l.3-3.1h5.8v12zM171.6 11c.7-.5 1.5-.8 2.5-.8 1.1 0 2 .3 2.7 1 .7.6 1.1 1.4 1.3 2.4h4.4c-.1-1.4-.5-2.7-1.3-3.7-.7-1.1-1.7-1.9-3-2.5-1.2-.6-2.6-.9-4.2-.9-1.9 0-3.6.4-5 1.3s-2.5 2-3.2 3.6c-.8 1.5-1.2 3.3-1.2 5.3s.4 3.7 1.1 5.3c.8 1.5 1.8 2.7 3.2 3.6 1.4.9 3.1 1.3 5 1.3 1.6 0 3.1-.3 4.3-.9 1.2-.6 2.2-1.4 2.9-2.5.7-1.1 1.1-2.3 1.2-3.7H178c-.1.7-.4 1.3-.8 1.8s-.8.9-1.4 1.1c-.5.3-1.1.4-1.8.4-1 0-1.8-.3-2.5-.8s-1.3-1.3-1.6-2.2c-.4-1-.6-2.1-.6-3.5 0-1.3.2-2.5.6-3.4.4-1 1-1.7 1.7-2.2zM119.6 56.7h-4.4v8h-7.6v-8h-4.5v19.7h4.5v-8h7.6v8h4.4v6.3h4.5v-9.8h-4.5zM83.8 23.2c.6-1 .9-2.1.9-3.4 0-2-.7-3.6-2.1-4.8-1.4-1.2-3.3-1.8-5.8-1.8h-4.5V6.7h-4.5v19.6h8.9c1.7 0 3.1-.3 4.3-.8 1.3-.5 2.2-1.3 2.8-2.3zm-4.5-1.4c-.6.5-1.5.8-2.5.8h-4.5v-5.7h4.5c1 0 1.8.3 2.5.8.6.5 1 1.2 1 2.1 0 .8-.3 1.5-1 2zM96.6 57.9c-.8-.5-1.6-.9-2.6-1.1-.9-.2-1.9-.3-2.8-.3-1.4 0-2.6.2-3.8.6-1.1.4-2.1 1-2.9 1.8-.8.8-1.3 1.8-1.7 3l4.3.6c.2-.7.7-1.3 1.3-1.8.7-.5 1.6-.7 2.7-.7s1.9.3 2.5.8c.6.5.9 1.3.9 2.2v.1c0 .4-.2.8-.5 1-.3.2-.8.4-1.6.5-.7.1-1.6.2-2.8.3-1 .1-1.9.3-2.8.5-.9.2-1.7.5-2.4 1-.7.4-1.3 1-1.7 1.7-.4.7-.6 1.6-.6 2.7 0 1.3.3 2.4.9 3.2.6.9 1.4 1.5 2.4 2 1 .4 2.1.7 3.4.7 1 0 1.9-.1 2.7-.4.8-.3 1.4-.7 1.9-1.1.5-.5.9-1 1.2-1.5h.2v2.7h4.4V63.2c0-1.3-.2-2.4-.7-3.3-.5-.8-1.1-1.5-1.9-2zm-2 11.4c0 .7-.2 1.4-.6 2-.4.6-.9 1.1-1.6 1.5-.7.4-1.5.5-2.4.5-1 0-1.8-.2-2.4-.7-.6-.4-.9-1.1-.9-1.9 0-.6.2-1.1.5-1.5.3-.4.7-.7 1.3-.9.5-.2 1.2-.4 1.9-.5.3 0 .7-.1 1.1-.2.4-.1.8-.1 1.3-.2l1.2-.3c.3-.1.6-.2.7-.3v2.5zM204.8 6.7h4.6v19.6h-4.6zM200.3 15c-1.4-1.2-3.3-1.8-5.8-1.8H190V6.7h-4.5v19.6h8.9c1.7 0 3.1-.3 4.3-.8 1.2-.6 2.1-1.4 2.7-2.4.6-1 .9-2.1.9-3.4 0-1.9-.6-3.5-2-4.7zm-3.4 6.8c-.6.5-1.5.8-2.5.8H190v-5.7h4.5c1 0 1.8.3 2.5.8.6.5 1 1.2 1 2.1-.1.8-.4 1.5-1.1 2z"/></svg>