<svg version="1.1" id="Layer_1" xmlns="http://www.w3.org/2000/svg" x="0" y="0" viewBox="0 0 258 31" style="enable-background:new 0 0 258 31" xml:space="preserve"><style>.st0{fill:#060315}</style><path class="st0" d="M50.2 7.2c-1.1.5-1.9 1.2-2.5 2.1-.6.9-.9 1.9-.9 3.1 0 1.1.3 2.1.9 3 .6.9 1.4 1.5 2.5 2h.1L46.2 25h4.3l3.8-7h3.9v7h4.1V6.5h-8.1c-1.5 0-2.9.2-4 .7zm7.9 7.6H54c-1 0-1.7-.2-2.2-.7-.5-.5-.8-1-.8-1.7s.3-1.3.8-1.7 1.3-.7 2.3-.7h4v4.8zM252.8 6.5l-7.5 12.6V6.5h-4.2V25h4.5l7.4-12.6V25h4.3V6.5zM138.9 4.8c1.7 0 3.1-.4 4.1-1.3 1-.9 1.5-2 1.5-3.4h-3.3c0 .6-.2 1.1-.6 1.6-.4.5-1 .7-1.8.7-.9 0-1.5-.2-1.8-.7-.4-.5-.5-1-.5-1.6h-3.2c0 1.4.5 2.6 1.5 3.4 1 .9 2.4 1.3 4.1 1.3zM21.9.3H6.1l-.6 10.4c-.1 2.2-.4 4-.7 5.4-.3 1.4-.7 2.5-1.2 3.3-.5.8-1 1.4-1.6 1.9H.3V31h4.3v-6h15.8v5.9h4.3v-9.6h-2.8V.3zm-4.3 21H7.2c.4-.7.8-1.6 1.2-2.6.4-1 .6-2.2.9-3.5.2-1.3.4-2.8.5-4.5l.4-6.7h7.5v17.3zM191.4 8.5c-.8-.8-1.7-1.3-2.7-1.7-1-.4-2.1-.6-3.2-.6-1.8 0-3.3.4-4.6 1.2-1.3.8-2.3 1.9-3.1 3.4-.7 1.4-1.1 3.1-1.1 5s.4 3.6 1.1 5.1c.7 1.4 1.8 2.5 3.1 3.3 1.4.8 3 1.2 4.8 1.2 1.4 0 2.7-.2 3.8-.7 1.1-.4 2-1.1 2.8-1.9.7-.8 1.2-1.7 1.5-2.8l-4.1-.5c-.2.5-.5 1-.9 1.3s-.8.6-1.3.8c-.5.2-1.1.3-1.7.3-1 0-1.8-.2-2.5-.6-.7-.4-1.3-1-1.7-1.8-.4-.7-.6-1.6-.6-2.7h13v-1.3c0-1.6-.2-3-.7-4.2-.5-1.1-1.1-2.1-1.9-2.8zM181 14c0-.7.2-1.4.6-2 .4-.7.9-1.3 1.6-1.7.7-.4 1.5-.7 2.4-.7.8 0 1.6.2 2.2.6.6.4 1.1.9 1.5 1.6.4.7.5 1.4.5 2.2H181zM236.1 14.2c-1.3-1.2-3.1-1.7-5.5-1.7h-4.2v-6h-4.2V25h8.4c1.6 0 2.9-.3 4-.8s2-1.3 2.5-2.2c.6-.9.9-2 .9-3.2.1-1.9-.6-3.4-1.9-4.6zm-3.1 6.5c-.6.5-1.4.7-2.3.7h-4.2v-5.3h4.2c1 0 1.7.3 2.3.8.6.5.9 1.2.9 2 0 .7-.3 1.3-.9 1.8zM29.6 14.7c0 1.3-.1 2.4-.3 3.2-.1.9-.3 1.6-.5 2.1s-.5.9-.8 1.1c-.3.2-.7.3-1.2.3h-.6V25h1.4c1 0 1.9-.2 2.6-.5.7-.4 1.3-.9 1.8-1.6.5-.7.9-1.7 1.1-2.8.3-1.1.4-2.5.5-4l.3-6h5.3v15h4.2V6.5H29.9l-.3 8.2zM135.1 19.1V6.5h-4.2V25h4.5l7.4-12.6V25h4.2V6.5h-4.5zM87.1 16c-.7-.4-1.6-.7-2.6-.7 1.2-.2 2.2-.7 2.9-1.3.7-.7 1.1-1.5 1.1-2.5 0-1.6-.6-2.8-1.9-3.7-1.3-.9-3-1.3-5.2-1.3h-7.8V25h9c1.4 0 2.7-.2 3.7-.6 1-.4 1.8-1 2.3-1.8.5-.8.8-1.6.8-2.7 0-.9-.2-1.6-.6-2.3-.3-.6-.9-1.1-1.7-1.6zm-9.3-6h3.7c.9 0 1.6.2 2.1.5.5.4.8.9.8 1.5 0 .4-.1.8-.3 1.1-.2.3-.6.6-1 .7-.4.2-.9.3-1.5.3h-3.8V10zm6.8 11c-.5.4-1.1.6-1.9.6h-4.9V17h4.9c.8 0 1.4.2 1.9.7.5.4.7 1 .7 1.8 0 .6-.3 1.1-.7 1.5zM164.3 10.5c.7-.5 1.5-.7 2.4-.7 1.1 0 1.9.3 2.5.9.6.6 1 1.3 1.2 2.2h4.2c-.1-1.3-.5-2.5-1.2-3.5s-1.6-1.8-2.8-2.3c-1.2-.6-2.5-.8-4-.8-1.8 0-3.4.4-4.7 1.2-1.3.8-2.3 1.9-3.1 3.4-.7 1.4-1.1 3.1-1.1 5s.4 3.5 1.1 5c.7 1.4 1.7 2.6 3.1 3.4 1.3.8 2.9 1.2 4.8 1.2 1.6 0 2.9-.3 4.1-.8 1.2-.6 2.1-1.4 2.7-2.4.7-1 1.1-2.2 1.2-3.5h-4.2c-.1.7-.4 1.2-.7 1.7-.3.5-.8.8-1.3 1.1-.5.2-1.1.4-1.7.4-.9 0-1.7-.2-2.4-.7-.7-.5-1.2-1.2-1.6-2.1-.4-.9-.6-2-.6-3.3 0-1.2.2-2.3.6-3.2.3-1.1.8-1.8 1.5-2.2zM125.3 8.5c-.8-.8-1.7-1.3-2.7-1.7-1-.4-2.1-.6-3.2-.6-1.8 0-3.3.4-4.6 1.2-1.3.8-2.3 1.9-3.1 3.4-.7 1.4-1.1 3.1-1.1 5s.4 3.6 1.1 5.1c.7 1.4 1.8 2.5 3.1 3.3 1.4.8 3 1.2 4.8 1.2 1.4 0 2.7-.2 3.8-.7 1.1-.4 2-1.1 2.8-1.9.7-.8 1.2-1.7 1.5-2.8l-4.1-.5c-.2.5-.5 1-.9 1.3s-.8.6-1.3.8c-.5.2-1.1.3-1.7.3-1 0-1.8-.2-2.5-.6-.7-.4-1.3-1-1.7-1.8-.4-.7-.6-1.6-.6-2.7h12.9v-1.3c0-1.6-.2-3-.7-4.2-.4-1.1-1-2.1-1.8-2.8zM114.9 14c0-.7.2-1.4.6-2 .4-.7.9-1.3 1.6-1.7.7-.4 1.5-.7 2.4-.7.8 0 1.6.2 2.2.6.6.4 1.1.9 1.5 1.6.4.7.5 1.4.5 2.2h-8.8zM214.3 6.5h-1.2l-5.5 13.4-5.3-13.4H197V25h4.2V12.5l4.9 12.5h3.1l5.1-12.6V25h4.2V6.5h-1.8zM98.2 10.5c.7-.5 1.5-.7 2.4-.7 1.1 0 1.9.3 2.5.9.6.6 1 1.3 1.2 2.2h4.2c-.1-1.3-.5-2.5-1.2-3.5s-1.6-1.8-2.8-2.3c-1.2-.6-2.5-.8-4-.8-1.8 0-3.4.4-4.7 1.2-1.3.8-2.3 1.9-3.1 3.4-.7 1.4-1.1 3.1-1.1 5s.4 3.5 1.1 5c.7 1.4 1.7 2.6 3.1 3.4 1.3.8 2.9 1.2 4.8 1.2 1.6 0 2.9-.3 4.1-.8 1.2-.6 2.1-1.4 2.7-2.4.7-1 1.1-2.2 1.2-3.5h-4.2c-.1.7-.4 1.2-.7 1.7-.3.5-.8.8-1.3 1.1-.5.2-1.1.4-1.7.4-.9 0-1.7-.2-2.4-.7-.7-.5-1.2-1.2-1.6-2.1-.4-.9-.6-2-.6-3.3 0-1.2.2-2.3.6-3.2.3-1.1.8-1.8 1.5-2.2z"/></svg>