<svg version="1.1" id="Layer_1" xmlns="http://www.w3.org/2000/svg" x="0" y="0" viewBox="0 0 261 128" style="enable-background:new 0 0 261 128" xml:space="preserve"><style>.st0{fill:#060315}</style><path class="st0" d="M137.2 97.9c-.4-.5-.5-1-.5-1.6h-3.3c0 1.4.5 2.6 1.6 3.5 1.1.9 2.5 1.3 4.2 1.3 1.8 0 3.2-.4 4.3-1.3 1.1-.9 1.6-2.1 1.6-3.5h-3.4c0 .6-.2 1.1-.6 1.6-.4.5-1 .7-1.9.7-1 0-1.7-.2-2-.7zM18.7 102.9H4.9l-.5 6.7c-.1 1.1-.2 2.1-.3 3-.1.9-.3 1.8-.4 2.5-.2.7-.4 1.4-.7 1.9-.3.5-.6 1-1 1.3H.4v9.2h4.4V122h12.5v5.5h4.4v-9.2h-3v-15.4zm-4.3 15.4H6.6c.6-.9 1-2.1 1.3-3.5.3-1.4.5-3.2.7-5.2l.3-3.1h5.6v11.8zM225.6 18.8h2.2L233 26h5.5l-7.2-9.7 7.1-9.4H233l-5.7 7.7h-1.7V6.9h-4.5V26h4.5zM66.9 25.4c1.1-.4 1.9-1 2.4-1.8.6-.8.8-1.7.8-2.7 0-.9-.2-1.7-.6-2.4-.4-.7-1-1.2-1.8-1.7-.8-.4-1.7-.7-2.7-.8 1.3-.2 2.3-.7 3-1.4.7-.7 1.1-1.6 1.1-2.6 0-1.6-.7-2.9-2-3.8-1.3-.9-3.1-1.4-5.4-1.4h-8V26h9.2c1.7 0 2.9-.2 4-.6zM58 10.5h3.8c.9 0 1.7.2 2.2.6.5.4.8.9.8 1.5 0 .5-.1.8-.3 1.2-.2.3-.6.6-1 .8-.4.2-1 .3-1.6.3H58v-4.4zm0 7.2h5c.8 0 1.5.2 2 .7.5.4.7 1.1.7 1.9 0 .7-.2 1.2-.7 1.6-.5.4-1.1.6-2 .6h-5v-4.8zM212.8 13v13h4.4V6.9h-4.6l-7.7 13v-13h-4.3V26h4.6zM208.9 5.2c1.8 0 3.2-.4 4.3-1.3 1.1-.9 1.6-2.1 1.6-3.5h-3.4c0 .6-.2 1.1-.6 1.6-.4.5-1 .7-1.9.7-.9 0-1.5-.2-1.9-.7-.4-.5-.5-1-.5-1.6h-3.3c0 1.5.5 2.6 1.6 3.5.9.9 2.3 1.3 4.1 1.3zM12.7 15.2h11.8V26h4.6V.5h-4.6v10.8H12.7V.5H8.1V26h4.6zM90.9 74V58.6h6.2v-3.7H80.4v3.7h6.2V74zM184 25.2c1.4.8 3 1.2 5 1.2 1.5 0 2.8-.2 4-.7 1.2-.5 2.1-1.1 2.8-1.9.7-.8 1.3-1.8 1.5-2.9l-4.2-.5c-.2.5-.5 1-.9 1.4-.4.4-.8.6-1.4.8-.5.2-1.1.3-1.8.3-1 0-1.8-.2-2.6-.6-.7-.4-1.3-1-1.7-1.8-.4-.8-.6-1.7-.6-2.7h13.3v-1.4c0-1.7-.2-3.1-.7-4.3-.5-1.2-1.1-2.2-1.9-3-.8-.8-1.7-1.4-2.8-1.7-1-.4-2.2-.6-3.3-.6-1.8 0-3.4.4-4.8 1.3-1.4.8-2.4 2-3.2 3.5-.7 1.5-1.1 3.2-1.1 5.2s.4 3.7 1.1 5.2c.9 1.2 2 2.4 3.3 3.2zm2.4-14.4c.7-.4 1.5-.7 2.4-.7.9 0 1.6.2 2.3.6.7.4 1.2.9 1.5 1.6.4.7.6 1.4.6 2.3h-9c0-.7.2-1.4.6-2.1.4-.6.9-1.2 1.6-1.7zM119.9 26c1 0 1.9-.2 2.7-.5.8-.4 1.4-.9 1.9-1.7.5-.8.9-1.7 1.2-2.9.3-1.2.5-2.5.5-4.1l.3-6.2h5.5V26h4.3V6.9h-13.9l-.3 8.5c0 1.3-.1 2.4-.3 3.3-.1.9-.3 1.6-.5 2.1s-.5.9-.8 1.1c-.3.2-.8.3-1.3.3h-.7v3.7h1.4zM152.4 13v13h4.3V6.9h-4.6l-7.7 13v-13h-4.3V26h4.6zM75.3 25.7c1 .4 2.1.6 3.3.6 1 0 1.9-.1 2.6-.4.7-.3 1.4-.7 1.9-1.1.5-.5.9-1 1.2-1.5h.1V26h4.3V13.2c0-1.3-.2-2.3-.7-3.2-.5-.8-1.1-1.5-1.8-2-.8-.5-1.6-.9-2.5-1.1-.9-.2-1.8-.3-2.7-.3-1.3 0-2.6.2-3.7.6-1.1.4-2 1-2.8 1.8-.8.8-1.3 1.7-1.6 2.9l4.2.6c.2-.7.7-1.2 1.3-1.7.6-.5 1.5-.7 2.6-.7 1 0 1.8.3 2.4.8.6.5.8 1.2.8 2.2v.1c0 .4-.2.7-.5 1-.3.2-.8.3-1.5.4-.7.1-1.6.2-2.7.3-.9.1-1.8.3-2.7.5-.9.2-1.6.5-2.3 1-.7.4-1.2 1-1.6 1.7-.4.7-.6 1.6-.6 2.7 0 1.3.3 2.3.8 3.2.5.7 1.3 1.3 2.2 1.7zm1.7-6.5c.3-.4.7-.7 1.3-.9.5-.2 1.1-.4 1.8-.4.3 0 .7-.1 1.1-.1.4-.1.8-.1 1.2-.2.4-.1.8-.2 1.1-.3.3-.1.6-.2.7-.3v2.2c0 .7-.2 1.4-.5 2-.4.6-.9 1.1-1.5 1.4-.7.4-1.4.5-2.3.5-.9 0-1.7-.2-2.3-.6-.6-.4-.9-1-.9-1.9-.1-.6 0-1.1.3-1.4zM26.5 111.4c0 1.3-.1 2.4-.3 3.3-.1.9-.3 1.6-.5 2.1s-.5.9-.8 1.1c-.3.2-.8.3-1.3.3H23v3.7h1.4c1 0 1.9-.2 2.7-.5.8-.4 1.4-.9 1.9-1.7.5-.8.9-1.7 1.2-2.9.3-1.2.5-2.5.5-4.1l.3-6.2h5.5V122h4.4v-19.1h-14l-.4 8.5zM165 18.3h7.4V26h4.3V6.9h-4.3v7.7H165V6.9h-4.4V26h4.4zM95.9 26l3.9-7.2h4V26h4.2V6.9h-8.3c-1.6 0-2.9.3-4 .8s-2 1.2-2.6 2.1c-.6.9-.9 2-.9 3.2 0 1.2.3 2.2.9 3.1.6.9 1.5 1.6 2.6 2h.1L91.5 26h4.4zm1.4-14.7c.6-.5 1.4-.7 2.4-.7h4.1v5h-4.2c-1 0-1.7-.2-2.3-.7s-.8-1.1-.8-1.8.3-1.3.8-1.8zM201.4 69.7c.8-1.5 1.1-3.2 1.1-5.2s-.4-3.7-1.1-5.2c-.7-1.5-1.8-2.6-3.2-3.5s-3-1.2-4.8-1.2c-1.9 0-3.5.4-4.8 1.2s-2.4 2-3.2 3.5c-.7 1.5-1.1 3.2-1.1 5.2s.4 3.7 1.1 5.2c.8 1.5 1.8 2.6 3.2 3.4s3 1.2 4.8 1.2c1.9 0 3.5-.4 4.8-1.2s2.4-1.9 3.2-3.4zm-4-2c-.3.9-.8 1.7-1.5 2.3-.7.6-1.5.8-2.5.8s-1.9-.3-2.6-.8c-.7-.6-1.2-1.3-1.5-2.3-.3-.9-.5-2-.5-3.2 0-1.2.2-2.2.5-3.2s.8-1.7 1.5-2.3c.7-.6 1.5-.8 2.6-.8 1 0 1.9.3 2.5.8.7.6 1.2 1.3 1.5 2.3.3.9.5 2 .5 3.2 0 1.2-.1 2.2-.5 3.2zM193.1 105c-.8-.8-1.7-1.4-2.8-1.7-1-.4-2.2-.6-3.3-.6-1.8 0-3.4.4-4.8 1.3-1.4.8-2.4 2-3.2 3.5-.7 1.5-1.1 3.2-1.1 5.2s.4 3.7 1.1 5.2c.7 1.5 1.8 2.6 3.2 3.4 1.4.8 3 1.2 5 1.2 1.5 0 2.8-.2 4-.7 1.2-.5 2.1-1.1 2.8-1.9.7-.8 1.3-1.8 1.5-2.9l-4.2-.5c-.2.5-.5 1-.9 1.4-.4.4-.8.6-1.4.8-.5.2-1.1.3-1.8.3-1 0-1.8-.2-2.6-.6-.7-.4-1.3-1-1.7-1.8-.4-.8-.6-1.7-.6-2.7h13.3v-1.4c0-1.7-.2-3.1-.7-4.3-.3-1.4-1-2.4-1.8-3.2zm-10.7 5.7c0-.7.2-1.4.6-2.1.4-.7.9-1.3 1.6-1.7.7-.4 1.5-.7 2.4-.7.9 0 1.6.2 2.3.6.7.4 1.2.9 1.5 1.6.4.7.6 1.4.6 2.3h-9zM161.2 74V54.9h-4.6l-7.7 13v-13h-4.3V74h4.6l7.6-13v13zM181.2 74V54.9h-4.4v7.7h-7.4v-7.7h-4.3V74h4.3v-7.7h7.4V74zM165.2 107c.7-.5 1.5-.7 2.4-.7 1.1 0 2 .3 2.6.9.7.6 1.1 1.4 1.2 2.3h4.3c-.1-1.4-.5-2.6-1.2-3.6s-1.7-1.8-2.9-2.4c-1.2-.6-2.6-.9-4.1-.9-1.9 0-3.5.4-4.8 1.3-1.4.8-2.4 2-3.2 3.5-.7 1.5-1.1 3.2-1.1 5.1 0 1.9.4 3.6 1.1 5.1.7 1.5 1.8 2.6 3.1 3.5 1.4.8 3 1.3 4.9 1.3 1.6 0 3-.3 4.2-.9 1.2-.6 2.1-1.4 2.8-2.4.7-1 1.1-2.2 1.2-3.6h-4.3c-.1.7-.4 1.3-.7 1.8-.4.5-.8.9-1.3 1.1-.5.2-1.1.4-1.8.4-.9 0-1.8-.2-2.4-.7-.7-.5-1.2-1.2-1.6-2.2-.4-.9-.6-2.1-.6-3.4 0-1.3.2-2.4.6-3.3.4-1 .9-1.7 1.6-2.2zM216.7 102.9h-1.2l-5.7 13.9-5.5-13.9h-5.5V122h4.4v-12.9l5.1 12.9h3.1l5.3-13v13h4.3v-19.1h-1.9zM256.3 102.9l-7.7 13v-13h-4.3V122h4.6l7.6-13v13h4.4v-19.1zM248.4 26c.7-.3 1.4-.7 1.9-1.1.5-.5.9-1 1.2-1.5h.1V26h4.3V13.2c0-1.3-.2-2.3-.7-3.2-.5-.8-1.1-1.5-1.8-2-.8-.5-1.6-.9-2.5-1.1-.9-.2-1.8-.3-2.7-.3-1.3 0-2.6.2-3.7.6-1.1.4-2 1-2.8 1.8-.8.8-1.3 1.7-1.6 2.9l4.2.6c.2-.7.7-1.2 1.3-1.7.6-.5 1.5-.7 2.6-.7 1 0 1.8.3 2.4.8.6.5.8 1.2.8 2.2v.1c0 .4-.2.7-.5 1-.3.2-.8.3-1.5.4-.7.1-1.6.2-2.7.3-.9.1-1.8.3-2.7.5-.9.2-1.6.5-2.3 1-.7.4-1.2 1-1.6 1.7s-.6 1.6-.6 2.7c0 1.3.3 2.3.8 3.2.6.9 1.3 1.5 2.3 1.9 1 .4 2.1.6 3.3.6.9-.1 1.8-.3 2.5-.5zm-4.6-5.4c0-.6.2-1.1.5-1.4.3-.4.7-.7 1.3-.9.5-.2 1.1-.4 1.8-.4.3 0 .7-.1 1.1-.1s.8-.1 1.2-.2c.4-.1.8-.2 1.1-.3.3-.1.6-.2.7-.3v2.2c0 .7-.2 1.4-.5 2-.4.6-.9 1.1-1.5 1.4-.7.4-1.4.5-2.3.5-.9 0-1.7-.2-2.3-.6s-1.1-1.1-1.1-1.9zM219.4 64.8c-.8-.4-1.6-.7-2.6-.8 1.3-.2 2.3-.7 3-1.4.7-.7 1.1-1.6 1.1-2.6 0-1.6-.7-2.9-2-3.8-1.3-.9-3.1-1.4-5.4-1.4h-8V74h9.2c1.5 0 2.8-.2 3.8-.6 1.1-.4 1.9-1 2.4-1.8.6-.8.8-1.7.8-2.7 0-.9-.2-1.7-.6-2.4-.3-.7-.9-1.3-1.7-1.7zm-9.6-6.3h3.8c.9 0 1.7.2 2.2.6.5.4.8.9.8 1.5 0 .5-.1.8-.3 1.2-.2.3-.6.6-1 .8-.4.2-1 .3-1.6.3h-3.9v-4.4zm7 11.4c-.5.4-1.1.6-2 .6h-5v-4.7h5c.8 0 1.5.2 2 .7.5.4.7 1.1.7 1.9 0 .5-.2 1.1-.7 1.5zM239.1 110.9c-1.3-1.2-3.2-1.8-5.7-1.8h-4.3v-6.2h-4.3V122h8.7c1.6 0 3-.3 4.1-.8 1.1-.6 2-1.3 2.6-2.3.6-1 .9-2.1.9-3.3 0-2-.6-3.5-2-4.7zm-3.2 6.7c-.6.5-1.4.7-2.4.7h-4.3v-5.5h4.3c1 0 1.8.3 2.4.8.6.5.9 1.2.9 2s-.3 1.5-.9 2zM49.6 21.7c.8-1.5 1.1-3.2 1.1-5.2s-.4-3.7-1.1-5.2c-.7-1.5-1.8-2.6-3.2-3.5s-3-1.2-4.8-1.2c-1.9 0-3.5.4-4.8 1.2-1.4.8-2.4 2-3.2 3.5-.7 1.5-1.1 3.2-1.1 5.2s.4 3.7 1.1 5.2c.8 1.5 1.8 2.6 3.2 3.4 1.4.8 3 1.2 4.8 1.2 1.9 0 3.5-.4 4.8-1.2s2.4-1.9 3.2-3.4zm-4-2c-.3.9-.8 1.7-1.5 2.3-.7.6-1.5.8-2.5.8s-1.9-.3-2.6-.8c-.7-.6-1.2-1.3-1.5-2.3-.3-.9-.5-2-.5-3.2 0-1.2.2-2.2.5-3.2s.8-1.7 1.5-2.3c.7-.6 1.5-.8 2.6-.8 1 0 1.9.3 2.5.8.7.6 1.2 1.3 1.5 2.3.3.9.5 2 .5 3.2 0 1.2-.1 2.2-.5 3.2zM74.3 74h4.3V54.9H74l-7.6 13v-13H62V74h4.7l7.6-13zM47.8 103.7c-1.1.5-2 1.2-2.6 2.1-.6.9-.9 2-.9 3.2 0 1.2.3 2.2.9 3.1.6.9 1.5 1.6 2.6 2h.1l-4.3 7.9H48l3.9-7.2h4v7.2h4.2v-19.1h-8.3c-1.5 0-2.9.3-4 .8zm8.1 7.8h-4.2c-1 0-1.7-.2-2.3-.7-.5-.5-.8-1.1-.8-1.8s.3-1.3.8-1.8c.6-.5 1.4-.7 2.4-.7h4.1v5zM135.1 115.9v-13h-4.3V122h4.6l7.6-13v13h4.4v-19.1h-4.6zM85.8 112.8c-.8-.4-1.6-.7-2.6-.8 1.3-.2 2.3-.7 3-1.4.7-.7 1.1-1.6 1.1-2.6 0-1.6-.7-2.9-2-3.8-1.3-.9-3.1-1.4-5.4-1.4h-8V122h9.2c1.5 0 2.8-.2 3.8-.6 1.1-.4 1.9-1 2.4-1.8.6-.8.8-1.7.8-2.7 0-.9-.2-1.7-.6-2.4-.4-.7-1-1.3-1.7-1.7zm-9.7-6.3H80c.9 0 1.7.2 2.2.6.5.4.8.9.8 1.5 0 .5-.1.8-.3 1.2-.2.3-.6.6-1 .8-.4.2-1 .3-1.6.3h-3.9v-4.4zm7 11.4c-.5.4-1.1.6-2 .6h-5v-4.7h5c.8 0 1.5.2 2 .7.5.4.7 1.1.7 1.9 0 .5-.2 1.1-.7 1.5zM55.8 73.4c1.1-.4 1.9-1 2.4-1.8.6-.8.8-1.7.8-2.7 0-.9-.2-1.7-.6-2.4-.4-.7-1-1.2-1.8-1.7-.8-.4-1.6-.7-2.6-.8 1.3-.2 2.3-.7 3-1.4.7-.7 1.1-1.6 1.1-2.6 0-1.6-.7-2.9-2-3.8-1.3-.9-3.1-1.4-5.4-1.4h-8V74H52c1.5 0 2.7-.2 3.8-.6zm-8.9-14.9h3.8c.9 0 1.7.2 2.2.6.5.4.8.9.8 1.5 0 .5-.1.8-.3 1.2-.2.3-.6.6-1 .8-.4.2-1 .3-1.6.3h-3.9v-4.4zm0 7.2h5c.8 0 1.5.2 2 .7.5.4.7 1.1.7 1.9 0 .7-.2 1.2-.7 1.6-.5.4-1.1.6-2 .6h-5v-4.8zM136.4 61v13h4.3V54.9h-5.4l-5.7 13.9-5.5-13.9h-5.5V74h4.3V61.1L128 74h3.2zM97.2 107c.7-.5 1.5-.7 2.4-.7 1.1 0 2 .3 2.6.9.7.6 1.1 1.4 1.2 2.3h4.3c-.1-1.4-.5-2.6-1.2-3.6s-1.7-1.8-2.9-2.4c-1.2-.6-2.6-.9-4.1-.9-1.9 0-3.5.4-4.8 1.3-1.4.8-2.4 2-3.2 3.5-.7 1.5-1.1 3.2-1.1 5.1 0 1.9.4 3.6 1.1 5.1.7 1.5 1.8 2.6 3.1 3.5 1.4.8 3 1.3 4.9 1.3 1.6 0 3-.3 4.2-.9 1.2-.6 2.1-1.4 2.8-2.4.7-1 1.1-2.2 1.2-3.6h-4.3c-.1.7-.4 1.3-.7 1.8-.4.5-.8.9-1.3 1.1-.5.2-1.1.4-1.8.4-.9 0-1.8-.2-2.4-.7-.7-.5-1.2-1.2-1.6-2.2-.4-.9-.6-2.1-.6-3.4 0-1.3.2-2.4.6-3.3.3-1 .9-1.7 1.6-2.2zM125.1 105c-.8-.8-1.7-1.4-2.8-1.7-1-.4-2.2-.6-3.3-.6-1.8 0-3.4.4-4.8 1.3-1.4.8-2.4 2-3.2 3.5-.7 1.5-1.1 3.2-1.1 5.2s.4 3.7 1.1 5.2c.7 1.5 1.8 2.6 3.2 3.4 1.4.8 3 1.2 5 1.2 1.5 0 2.8-.2 4-.7 1.2-.5 2.1-1.1 2.8-1.9.7-.8 1.3-1.8 1.5-2.9l-4.2-.5c-.2.5-.5 1-.9 1.4-.4.4-.8.6-1.4.8-.5.2-1.1.3-1.8.3-1 0-1.8-.2-2.6-.6-.7-.4-1.3-1-1.7-1.8-.4-.8-.6-1.7-.6-2.7h13.3v-1.4c0-1.7-.2-3.1-.7-4.3-.4-1.4-1-2.4-1.8-3.2zm-10.7 5.7c0-.7.2-1.4.6-2.1.4-.7.9-1.3 1.6-1.7.7-.4 1.5-.7 2.4-.7.9 0 1.6.2 2.3.6.7.4 1.2.9 1.5 1.6.4.7.6 1.4.6 2.3h-9zM110.5 71.4V74h4.3V61.2c0-1.3-.2-2.3-.7-3.2-.5-.8-1.1-1.5-1.8-2-.8-.5-1.6-.9-2.5-1.1-.9-.2-1.8-.3-2.7-.3-1.3 0-2.6.2-3.7.6-1.1.4-2 1-2.8 1.8-.8.8-1.3 1.7-1.6 2.9l4.2.6c.2-.7.7-1.2 1.3-1.7.6-.5 1.5-.7 2.6-.7 1 0 1.8.3 2.4.8.6.5.8 1.2.8 2.2v.1c0 .4-.2.7-.5 1-.3.2-.8.3-1.5.4-.7.1-1.6.2-2.7.3-.9.1-1.8.3-2.7.5-.9.2-1.6.5-2.3 1-.7.4-1.2 1-1.6 1.7s-.6 1.6-.6 2.7c0 1.3.3 2.3.8 3.2.6.9 1.3 1.5 2.3 1.9 1 .4 2.1.6 3.3.6 1 0 1.9-.1 2.6-.4.7-.3 1.4-.7 1.9-1.1.5-.5.9-1 1.2-1.5zm-.2-4.2c0 .7-.2 1.4-.5 2-.4.6-.9 1.1-1.5 1.4-.7.4-1.4.5-2.3.5-.9 0-1.7-.2-2.3-.6-.6-.4-.9-1-.9-1.9 0-.6.2-1.1.5-1.4.3-.4.7-.7 1.3-.9.5-.2 1.1-.4 1.8-.4.3 0 .7-.1 1.1-.1s.8-.1 1.2-.2c.4-.1.8-.2 1.1-.3.3-.1.6-.2.7-.3v2.2z"/></svg>