<svg version="1.1" id="Layer_1" xmlns="http://www.w3.org/2000/svg" x="0" y="0" viewBox="0 0 213.4 176.2" style="enable-background:new 0 0 213.4 176.2" xml:space="preserve"><style>.st0{fill:#060315}</style><path class="st0" d="M11.1 56.6v10.8h-2v-4.6H3.5v4.6h-2V56.6h2v4.5h5.6v-4.5h2zm10.6 6.8v.6h-6.5c.1.6.4 1.1.9 1.5s1.1.5 1.8.5c.9 0 1.7-.3 2.2-.9l1 1.2c-.4.4-.8.8-1.4 1s-1.2.3-1.9.3c-.9 0-1.7-.2-2.4-.5-.7-.4-1.2-.9-1.6-1.5-.4-.6-.6-1.4-.6-2.2 0-.8.2-1.5.5-2.2.4-.6.9-1.2 1.5-1.5.6-.4 1.4-.5 2.2-.5.8 0 1.5.2 2.2.5.6.4 1.1.9 1.5 1.5.4.6.6 1.3.6 2.2zm-4.2-2.8c-.6 0-1.1.2-1.6.6-.4.4-.7.8-.8 1.5h4.7c-.1-.6-.3-1.1-.8-1.5-.4-.4-.9-.6-1.5-.6zm12.6.2h-4.4v6.6h-1.9v-8.3h6.3v1.7zm1.4-1.6h1.9v8.3h-1.9v-8.3zm1-1.4c-.4 0-.6-.1-.9-.3-.2-.2-.4-.5-.4-.8s.1-.6.4-.8c.2-.2.5-.3.9-.3s.6.1.9.3c.2.2.4.5.4.8s-.1.6-.4.9c-.2.1-.5.2-.9.2zm8.4 5.3c.5.1.9.4 1.2.7.3.3.4.7.4 1.2s-.2 1-.5 1.3c-.3.4-.8.7-1.4.9-.6.2-1.3.3-2 .3-.6 0-1.3-.1-1.9-.2-.6-.2-1.2-.4-1.7-.6l.6-1.4c.4.2.9.4 1.4.5s1 .2 1.5.2c.6 0 1.2-.1 1.5-.3.4-.2.6-.5.6-.8s-.1-.6-.4-.7c-.3-.2-.7-.3-1.2-.3h-1.6v-1.3h1.5c.5 0 .9-.1 1.1-.2.3-.2.4-.4.4-.7 0-.3-.2-.5-.5-.7s-.8-.3-1.4-.3c-.8 0-1.7.2-2.6.6l-.5-1.4c1.1-.5 2.2-.8 3.3-.8.7 0 1.3.1 1.9.3.6.2 1 .5 1.3.8s.5.7.5 1.2c0 .4-.1.8-.4 1.1-.3.2-.6.5-1.1.6zm10-2.3h-4.4v6.6h-1.9v-8.3h6.3v1.7zm1.4-1.6h1.9v8.3h-1.9v-8.3zm1-1.4c-.4 0-.6-.1-.9-.3-.2-.2-.4-.5-.4-.8s.1-.6.4-.8c.2-.2.5-.3.9-.3s.6.1.9.3c.2.2.4.5.4.8s-.1.6-.4.9c-.3.1-.6.2-.9.2zm11.3 6.3h-1.5v3.3h-1.9v-8.3h1.9v3.3h1.5l2.4-3.3h2.1l-3 4 3.2 4.3H67l-2.4-3.3zm5.2 1.7v3.3h-1.7v-1.7h-1v-1.6h2.7zm4.3 1.8c-.8 0-1.6-.2-2.3-.5-.7-.4-1.2-.9-1.6-1.5s-.6-1.4-.6-2.2c0-.8.2-1.5.6-2.2.4-.6.9-1.1 1.6-1.5s1.4-.5 2.3-.5c.8 0 1.6.2 2.3.5.7.4 1.2.9 1.6 1.5s.6 1.4.6 2.2c0 .8-.2 1.5-.6 2.2-.4.6-.9 1.1-1.6 1.5-.7.3-1.5.5-2.3.5zm0-1.7c.7 0 1.3-.2 1.8-.7s.7-1.1.7-1.9-.2-1.4-.7-1.9-1.1-.7-1.8-.7-1.3.2-1.8.7-.7 1.1-.7 1.9.2 1.4.7 1.9c.5.5 1.1.7 1.8.7zm13.7-6.7v8.3h-1.9v-6.6h-3.1l-.1 1.6c-.1 1.1-.2 2-.3 2.8-.1.7-.4 1.2-.8 1.7-.4.4-.8.6-1.5.6-.3 0-.6-.1-1.1-.2l.1-1.6h.4c.4 0 .7-.2.9-.5.2-.3.3-.7.4-1.1s.1-1.1.2-1.9l.1-3.2 6.7.1zm11.4 6.6v3.5h-1.8v-1.8H91v1.8h-1.8v-3.5h.4c.5 0 .9-.4 1.1-1 .2-.7.3-1.6.4-2.8l.1-2.8H98v6.6h1.2zm-6.3-3.6c0 .9-.1 1.7-.2 2.3-.1.6-.3 1-.6 1.3h4.1v-5H93l-.1 1.4zm11.2-3.1c1.2 0 2.1.3 2.8.9.7.6 1 1.5 1 2.6v4.8H106v-1c-.2.4-.6.6-1 .8-.4.2-1 .3-1.6.3s-1.2-.1-1.6-.3c-.5-.2-.8-.5-1.1-.9-.2-.4-.4-.8-.4-1.3 0-.7.3-1.3.8-1.8.6-.5 1.4-.7 2.6-.7h2.1v-.1c0-.6-.2-1-.5-1.3s-.9-.5-1.5-.5c-.5 0-.9.1-1.4.2-.4.1-.8.3-1.1.6l-.8-1.4c.4-.3 1-.6 1.6-.8.6 0 1.3-.1 2-.1zm-.3 7.1c.5 0 .9-.1 1.3-.3.4-.2.7-.5.8-1v-1h-2c-1.1 0-1.7.4-1.7 1.1 0 .4.1.6.4.8.3.2.7.4 1.2.4zm6.4-7h1.9v3.4h4.2v-3.4h1.9v8.3h-1.9v-3.3h-4.2v3.3h-1.9v-8.3zm18.4 0-3.9 8.9c-.4.9-.8 1.5-1.3 1.9s-1.1.6-1.9.6c-.4 0-.8-.1-1.2-.2-.4-.1-.7-.3-1-.6l.8-1.4c.2.2.4.3.6.4.3.1.5.2.8.2s.6-.1.8-.3c.2-.2.4-.5.6-.9l.1-.3-3.6-8.3h2l2.6 6.1 2.6-6.1h2zm3.6 1.6v2.5h3.3v1.3h-3.3v2.9h-1.9v-2.9h-1v-1.3h1v-4.1h6.3v1.6h-4.4zm9.1-1.7c1.2 0 2.1.3 2.8.9.6.6 1 1.5 1 2.6v4.8h-1.8v-1c-.2.4-.6.6-1 .8-.4.2-1 .3-1.6.3s-1.2-.1-1.6-.3c-.5-.2-.8-.5-1.1-.9-.2-.4-.4-.8-.4-1.3 0-.7.3-1.3.8-1.8.6-.5 1.4-.7 2.6-.7h2.1v-.1c0-.6-.2-1-.5-1.3s-.9-.5-1.5-.5c-.5 0-.9.1-1.4.2-.4.1-.8.3-1.1.6l-.8-1.4c.4-.3 1-.6 1.6-.8.6 0 1.2-.1 1.9-.1zm-.3 7.1c.5 0 .9-.1 1.3-.3.4-.2.6-.5.8-1v-1h-2c-1.1 0-1.7.4-1.7 1.1 0 .4.1.6.4.8.3.2.7.4 1.2.4zM5.7 75.6c.8 0 1.5.2 2.1.5s1.1.8 1.4 1.4.5 1.3.5 2.1-.2 1.5-.6 2.1c-.4.6-.9 1.1-1.6 1.4s-1.4.5-2.3.5c-1.4 0-2.5-.5-3.3-1.4S.7 79.9.7 78.1c0-1.7.4-3 1.1-3.9.7-1 1.8-1.6 3.3-1.9l3.9-.9.3 1.7-3.5.7c-1 .2-1.7.6-2.2 1.1-.6.5-.9 1.2-.9 2.1.3-.5.8-.8 1.3-1 .5-.3 1.1-.4 1.7-.4zM5.4 82c.7 0 1.3-.2 1.7-.7.4-.5.7-1.1.7-1.8s-.2-1.3-.7-1.7c-.4-.4-1-.6-1.7-.6s-1.3.2-1.7.6-.7 1-.7 1.7.2 1.3.7 1.8c.4.5.9.7 1.7.7zm9.9 1.6c-.8 0-1.6-.2-2.3-.5-.7-.4-1.2-.9-1.6-1.5-.4-.6-.6-1.4-.6-2.2 0-.8.2-1.5.6-2.2.4-.6.9-1.1 1.6-1.5.7-.4 1.4-.5 2.3-.5.8 0 1.6.2 2.3.5.7.4 1.2.9 1.6 1.5s.6 1.4.6 2.2c0 .8-.2 1.5-.6 2.2-.4.6-.9 1.1-1.6 1.5-.7.3-1.5.5-2.3.5zm0-1.7c.7 0 1.3-.2 1.8-.7s.7-1.1.7-1.9-.2-1.4-.7-1.9-1.1-.7-1.8-.7-1.3.2-1.8.7-.7 1.1-.7 1.9.2 1.4.7 1.9c.5.5 1.1.7 1.8.7zM29 75.2v8.3h-1.9v-6.6H24l-.1 1.6c-.1 1.1-.2 2-.3 2.8-.1.7-.4 1.3-.8 1.7-.4.4-.8.6-1.5.6-.3 0-.6-.1-1.1-.2l.1-1.6h.4c.4 0 .7-.2.9-.5.2-.3.3-.7.4-1.1s.1-1.1.2-1.9l.1-3.2 6.7.1zm10.7 8.2V78l-2.8 4.6h-.8L33.4 78v5.5h-1.8v-8.3h2l2.9 5.2 3.1-5.2h1.8v8.3l-1.7-.1zm7.4-8.3c1.2 0 2.1.3 2.8.9.6.6 1 1.5 1 2.6v4.8h-1.8v-1c-.2.4-.6.6-1 .8-.4.2-1 .3-1.6.3s-1.2-.1-1.6-.3c-.5-.2-.8-.5-1.1-.9-.2-.4-.4-.8-.4-1.3 0-.7.3-1.3.8-1.8.6-.5 1.4-.7 2.6-.7H49v-.1c0-.6-.2-1-.5-1.3s-.9-.5-1.5-.5c-.5 0-.9.1-1.4.2-.4.1-.8.3-1.1.6l-.8-1.4c.4-.3 1-.6 1.6-.8.5 0 1.2-.1 1.8-.1zm-.2 7.1c.5 0 .9-.1 1.3-.3.4-.2.6-.5.8-1v-1h-2c-1.1 0-1.7.4-1.7 1.1 0 .4.1.6.4.8.3.2.7.4 1.2.4zm6.4-7h1.9v5.4l4.6-5.4h1.8v8.3h-1.9V78l-4.5 5.4h-1.8l-.1-8.2zm4-1c-.8 0-1.5-.2-1.9-.6s-.7-1-.7-1.7H56c0 .4.1.7.3.9.2.2.5.3.9.3s.7-.1.9-.3c.2-.2.4-.5.4-.9h1.3c0 .7-.2 1.3-.7 1.7-.3.4-1 .6-1.8.6zm13.4 2.6h-2.9v6.6h-1.9v-6.6H63v-1.6h7.7v1.6zm5.4 1.1c1.1 0 1.9.2 2.4.7.6.5.8 1.1.8 2s-.3 1.6-.9 2.1-1.5.7-2.6.7h-3.7v-8.3H74v2.7l2.1.1zm4.4-2.7h1.9v8.3h-1.9v-8.3zM75.7 82c.6 0 1-.1 1.3-.4.3-.2.4-.6.4-1.1s-.1-.8-.4-1-.7-.3-1.3-.3h-1.6V82h1.6zm9.3-6.8h1.9v3.4h4.2v-3.4H93v8.3h-1.9v-3.3h-4.2v3.3H85v-8.3zm22.7 4.9h-1.4v3.3h-1.9v-3.3H103l-2 3.3h-2.3l2.7-4.3-2.5-4h2.1l2 3.3h1.4v-3.3h1.9v3.3h1.4l2-3.3h2.1l-2.5 4 2.7 4.3h-2.3l-2-3.3zm8.7-5c1.2 0 2.1.3 2.8.9.7.6 1 1.5 1 2.6v4.8h-1.8v-1c-.2.4-.6.6-1 .8-.4.2-1 .3-1.6.3s-1.2-.1-1.6-.3c-.5-.2-.8-.5-1.1-.9-.2-.4-.4-.8-.4-1.3 0-.7.3-1.3.8-1.8.6-.5 1.4-.7 2.6-.7h2.1v-.1c0-.6-.2-1-.5-1.3s-.9-.5-1.5-.5c-.5 0-.9.1-1.4.2-.4.1-.8.3-1.1.6l-.8-1.4c.4-.3 1-.6 1.6-.8.6 0 1.2-.1 1.9-.1zm-.2 7.1c.5 0 .9-.1 1.3-.3.4-.2.7-.5.8-1v-1h-2c-1.1 0-1.7.4-1.7 1.1 0 .4.1.6.4.8.3.2.7.4 1.2.4zm8.6-5.4v2.5h3.3v1.3h-3.3v2.9h-1.9v-2.9h-1v-1.3h1v-4.1h6.3v1.6h-4.4zm14.3 5v3.5h-1.8v-1.8h-6.4v1.8h-1.8v-3.5h.4c.5 0 .9-.4 1.1-1 .2-.7.3-1.6.4-2.8l.1-2.8h6.8v6.6h1.2zm-6.4-3.6c0 .9-.1 1.7-.2 2.3-.1.6-.3 1-.6 1.3h4.1v-5h-3.2l-.1 1.4zm11.2-3.1c1.2 0 2.1.3 2.8.9.6.6 1 1.5 1 2.6v4.8h-1.8v-1c-.2.4-.6.6-1 .8-.4.2-1 .3-1.6.3s-1.2-.1-1.6-.3c-.5-.2-.8-.5-1.1-.9-.2-.4-.4-.8-.4-1.3 0-.7.3-1.3.8-1.8.6-.5 1.4-.7 2.6-.7h2.1v-.1c0-.6-.2-1-.5-1.3s-.9-.5-1.5-.5c-.5 0-.9.1-1.4.2-.4.1-.8.3-1.1.6l-.8-1.4c.4-.3 1-.6 1.6-.8.5 0 1.2-.1 1.9-.1zm-.3 7.1c.5 0 .9-.1 1.3-.3.4-.2.7-.5.8-1v-1h-2c-1.1 0-1.7.4-1.7 1.1 0 .4.1.6.4.8s.7.4 1.2.4zm6.4-7h1.9v5.4l4.6-5.4h1.8v8.3h-1.9V78l-4.5 5.4H150v-8.2zm4-1c-.8 0-1.5-.2-1.9-.6s-.7-1-.7-1.7h1.3c0 .4.1.7.3.9.2.2.5.3.9.3s.7-.1.9-.3c.2-.2.4-.5.4-.9h1.3c0 .7-.2 1.3-.7 1.7-.3.4-.9.6-1.8.6zm14.4 1v8.3h-1.9v-6.6h-3.1l-.1 1.6c-.1 1.1-.2 2-.3 2.8-.1.7-.4 1.3-.8 1.7-.4.4-.8.6-1.5.6-.3 0-.6-.1-1.1-.2l.1-1.6h.4c.4 0 .7-.2.9-.5s.3-.7.4-1.1c.1-.4.1-1.1.2-1.9l.1-3.2 6.7.1zm5.7-.1c1.2 0 2.1.3 2.8.9.6.6 1 1.5 1 2.6v4.8H176v-1c-.2.4-.6.6-1 .8-.4.2-1 .3-1.6.3s-1.2-.1-1.6-.3c-.5-.2-.8-.5-1.1-.9-.2-.4-.4-.8-.4-1.3 0-.7.3-1.3.8-1.8.6-.5 1.4-.7 2.6-.7h2.1v-.1c0-.6-.2-1-.5-1.3s-.9-.5-1.5-.5c-.5 0-.9.1-1.4.2-.4.1-.8.3-1.1.6l-.8-1.4c.4-.3 1-.6 1.6-.8.6 0 1.3-.1 2-.1zm-.3 7.1c.5 0 .9-.1 1.3-.3.4-.2.6-.5.8-1v-1h-2c-1.1 0-1.7.4-1.7 1.1 0 .4.1.6.4.8s.7.4 1.2.4zm11-7.1c.8 0 1.5.2 2.2.5.6.4 1.1.8 1.5 1.5.4.6.5 1.4.5 2.2s-.2 1.6-.5 2.2c-.4.6-.9 1.1-1.5 1.5s-1.3.5-2.2.5c-1.1 0-2-.4-2.6-1.1v4h-1.9V75.2h1.8v1.1c.3-.4.7-.7 1.2-.9.4-.2.9-.3 1.5-.3zm-.2 6.8c.7 0 1.3-.2 1.7-.7.5-.5.7-1.1.7-1.9s-.2-1.4-.7-1.9-1-.7-1.7-.7c-.5 0-.9.1-1.3.3-.4.2-.7.5-.9.9s-.3.8-.3 1.4.1 1 .3 1.4.5.7.9.9c.4.2.8.3 1.3.3zm6.9-4.2c-.4 0-.7-.1-.9-.4-.2-.2-.4-.6-.4-.9 0-.4.1-.7.4-.9.2-.2.6-.4.9-.4.4 0 .7.1.9.4.2.2.4.5.4.9s-.1.7-.4.9c-.2.2-.5.4-.9.4zm0 5.9c-.4 0-.7-.1-.9-.4-.2-.2-.4-.6-.4-.9 0-.4.1-.7.4-.9.2-.2.6-.4.9-.4.4 0 .7.1.9.4.2.2.4.5.4.9s-.1.7-.4.9c-.2.2-.5.4-.9.4zM4.1 106.2H2.4v3.3h-1v-7.4h1v3.2h1.7l2.6-3.2h1.1l-2.9 3.6 3.1 3.8H6.8l-2.7-3.3zm4.5 2.4v2.5h-.9v-1.6h-.9v-.9h1.8zm3.5.9v2.7h-1v-2.7l-3.3-7.4h1l2.7 6.3 2.8-6.3h1l-3.2 7.4zm-3.4-.5h5.8v.7H8.7v-.7zm12-7c.7 0 1.3.2 1.9.5s1 .7 1.3 1.3c.3.6.5 1.2.5 1.9s-.2 1.4-.5 2-.8 1-1.3 1.3c-.6.3-1.2.5-1.9.5-.6 0-1.1-.1-1.6-.4s-.9-.6-1.2-1.1v4.1h-1V102h1v1.5c.3-.5.7-.9 1.2-1.1.4-.2 1-.4 1.6-.4zm-.1 6.6c.5 0 1-.1 1.4-.4.4-.2.7-.6 1-1 .2-.4.4-.9.4-1.5s-.1-1.1-.4-1.5c-.2-.4-.6-.8-1-1s-.9-.4-1.4-.4-1 .1-1.4.4c-.4.2-.7.6-1 1-.2.4-.3.9-.3 1.5s.1 1.1.3 1.5c.2.4.6.8 1 1 .4.3.9.4 1.4.4zM29 102c1 0 1.7.2 2.2.7s.8 1.2.8 2.1v4.6h-1v-1.1c-.2.4-.6.7-1 .9-.4.2-.9.3-1.5.3-.8 0-1.5-.2-2-.6s-.7-.9-.7-1.6c0-.6.2-1.1.7-1.5s1.2-.6 2.2-.6H31v-.4c0-.6-.2-1.1-.5-1.4-.4-.3-.9-.5-1.6-.5-.5 0-.9.1-1.3.2s-.8.4-1.1.6l-.5-.7c.4-.3.8-.6 1.3-.7.6-.2 1.1-.3 1.7-.3zm-.3 6.7c.6 0 1-.1 1.4-.4s.7-.6.9-1.1V106h-2.3c-1.3 0-1.9.4-1.9 1.3 0 .4.2.8.5 1 .3.3.8.4 1.4.4zm14.2-6.6v7.4H42v-5.8l-3 4.9h-.4l-3-4.9v5.8h-.9v-7.4h1l3.1 5.3 3.2-5.3h.9zm10 6.5v2.6H52v-1.8h-6.6v1.8h-.9v-2.6h.4c.5 0 .8-.4 1-1.1s.3-1.7.4-2.9l.1-2.5h5.4v6.5h1.1zm-5.8-4c0 1-.1 1.9-.3 2.6-.1.7-.4 1.1-.7 1.4h4.6V103h-3.5l-.1 1.6zm10.2-2.6c1 0 1.7.2 2.2.7s.8 1.2.8 2.1v4.6h-1v-1.1c-.2.4-.6.7-1 .9-.4.2-.9.3-1.5.3-.8 0-1.5-.2-2-.6s-.7-.9-.7-1.6c0-.6.2-1.1.7-1.5s1.2-.6 2.2-.6h2.3v-.4c0-.6-.2-1.1-.5-1.4-.4-.3-.9-.5-1.6-.5-.5 0-.9.1-1.3.2s-.8.4-1.1.6l-.4-.7c.4-.3.8-.6 1.3-.7.5-.2 1.1-.3 1.6-.3zm-.3 6.7c.6 0 1-.1 1.4-.4s.7-.6.9-1.1V106H57c-1.3 0-1.9.4-1.9 1.3 0 .4.2.8.5 1 .4.3.8.4 1.4.4zm9.1.8c-.7 0-1.4-.2-2-.5s-1-.8-1.3-1.3c-.3-.6-.5-1.2-.5-1.9s.2-1.4.5-1.9c.3-.6.8-1 1.3-1.3.6-.3 1.2-.5 2-.5.6 0 1.2.1 1.7.4.5.2.9.6 1.2 1.1l-.7.5c-.2-.4-.6-.6-.9-.8-.4-.2-.8-.3-1.2-.3-.5 0-1 .1-1.4.4-.4.2-.8.6-1 1s-.3.9-.3 1.5.1 1.1.3 1.5.6.8 1 1 .9.4 1.4.4c.4 0 .8-.1 1.2-.3.4-.2.7-.4.9-.8l.7.5c-.3.5-.7.8-1.2 1.1-.6.1-1.1.2-1.7.2zm12-7.2c.7 0 1.3.2 1.8.5s1 .7 1.3 1.3c.3.5.4 1.2.4 1.9s-.2 1.4-.5 1.9c-.3.6-.7 1-1.3 1.3-.6.3-1.2.5-1.9.5-1.2 0-2.2-.4-2.8-1.3s-1-2-1-3.6.3-2.8.9-3.6c.6-.8 1.5-1.4 2.8-1.7l3.3-.8.2.9-3.1.7c-1.1.2-1.8.6-2.3 1.2s-.8 1.5-.8 2.6c.3-.6.7-1 1.2-1.3.5-.4 1.1-.5 1.8-.5zm-.2 6.4c.5 0 1-.1 1.4-.4.4-.2.7-.6 1-1 .2-.4.3-.9.3-1.5s-.1-1-.3-1.4c-.2-.4-.5-.7-1-1-.4-.2-.9-.4-1.4-.4s-1 .1-1.4.4c-.4.2-.7.5-1 1-.2.4-.3.9-.3 1.4s.1 1 .3 1.5c.2.4.6.8 1 1 .5.3.9.4 1.4.4zm9-6.7c.7 0 1.4.2 2 .5s1 .8 1.4 1.3c.3.6.5 1.2.5 1.9s-.2 1.4-.5 1.9c-.3.6-.8 1-1.4 1.3s-1.2.5-2 .5c-.7 0-1.4-.2-2-.5s-1-.8-1.4-1.3c-.3-.6-.5-1.2-.5-1.9s.2-1.4.5-1.9c.3-.6.8-1 1.4-1.3s1.2-.5 2-.5zm0 .8c-.8 0-1.4.2-2 .7-.5.5-.8 1.1-.9 1.9h5.7c-.1-.8-.4-1.4-.9-1.9-.5-.4-1.2-.7-1.9-.7zm0 5.9c.8 0 1.4-.2 1.9-.7s.8-1.1.9-1.9H84c.1.8.4 1.4.9 1.9s1.2.7 2 .7zm11.9-6.6v7.4h-1V103h-3.5l-.1 1.8c-.1 1.5-.3 2.7-.5 3.5s-.8 1.2-1.5 1.2c-.2 0-.4 0-.7-.1l.1-.9c.2 0 .3.1.4.1.4 0 .7-.2.9-.5.2-.4.3-.8.4-1.3s.1-1.2.2-2.1l.1-2.6h5.2zm2.8 0h1v7.4h-1v-7.4zm.5-1.6c-.2 0-.4-.1-.5-.2s-.2-.3-.2-.5.1-.3.2-.5.3-.2.5-.2.4.1.5.2.2.3.2.5-.1.4-.2.5-.3.2-.5.2zm6 5.7h-1.7v3.3h-1v-7.4h1v3.2h1.7l2.6-3.2h1.1l-2.9 3.6 3.1 3.8h-1.2l-2.7-3.3zm10.5-3.2h-2.8v6.5h-1V103H112v-.9h6.6v.9zm7.5 3.1H120c.1.8.3 1.4.9 1.9.5.5 1.2.7 2 .7.5 0 .9-.1 1.3-.2.4-.2.7-.4 1-.7l.6.6c-.3.4-.7.7-1.2.9-.5.2-1 .3-1.6.3-.8 0-1.4-.2-2-.5s-1-.8-1.4-1.3c-.3-.6-.5-1.2-.5-1.9s.2-1.4.5-1.9c.3-.6.7-1 1.3-1.3.6-.3 1.2-.5 1.8-.5.7 0 1.3.2 1.8.5s1 .8 1.3 1.3c.3.6.5 1.2.5 1.9l-.2.2zm-3.5-3.2c-.7 0-1.3.2-1.8.7-.5.4-.7 1-.8 1.8h5.2c-.1-.7-.3-1.3-.8-1.8s-1.1-.7-1.8-.7zm9.6-.9c.7 0 1.3.2 1.9.5.6.3 1 .7 1.3 1.3.3.6.5 1.2.5 1.9s-.2 1.4-.5 2-.8 1-1.3 1.3c-.6.3-1.2.5-1.9.5-.6 0-1.1-.1-1.6-.4s-.9-.6-1.2-1.1v4.1h-1V102h1v1.5c.3-.5.7-.9 1.2-1.1.4-.2.9-.4 1.6-.4zm-.1 6.6c.5 0 1-.1 1.4-.4.4-.2.7-.6 1-1 .2-.4.4-.9.4-1.5s-.1-1.1-.4-1.5c-.2-.4-.6-.8-1-1s-.9-.4-1.4-.4-1 .1-1.4.4c-.4.2-.7.6-1 1-.2.4-.3.9-.3 1.5s.1 1.1.3 1.5.6.8 1 1c.4.3.9.4 1.4.4zm5.9-6.5h1v7.4h-1v-7.4zm.5-1.6c-.2 0-.4-.1-.5-.2s-.2-.3-.2-.5.1-.3.2-.5.3-.2.5-.2.4.1.5.2.2.3.2.5-.1.4-.2.5-.3.2-.5.2zm3.3 1.6h1v3.3h4.6v-3.3h1v7.4h-1v-3.2h-4.6v3.2h-1v-7.4zm9.4 0h1v7.4h-1v-7.4zm.5-1.6c-.2 0-.4-.1-.5-.2s-.2-.3-.2-.5.1-.3.2-.5.3-.2.5-.2.4.1.5.2.2.3.2.5-.1.4-.2.5-.3.2-.5.2zm3.4 1.6h1v3.3h4.6v-3.3h1v7.4h-1v-3.2h-4.6v3.2h-1v-7.4zm7.8 6.5v2.5h-.9v-1.6h-1.2v-.9h2.1zm12-2.4h-1.6v3.3h-1v-3.3h-1.6l-2.3 3.3h-1.2l2.6-3.8-2.4-3.6h1.1l2.2 3.2h1.6v-3.2h1v3.2h1.6l2.2-3.2h1.1l-2.4 3.6 2.6 3.8h-1.2l-2.3-3.3zm11.3-.1H180c.1.8.3 1.4.9 1.9.5.5 1.2.7 2 .7.5 0 .9-.1 1.3-.2.4-.2.7-.4 1-.7l.6.6c-.3.4-.7.7-1.2.9-.5.2-1 .3-1.6.3-.8 0-1.4-.2-2-.5s-1-.8-1.4-1.3c-.3-.6-.5-1.2-.5-1.9s.2-1.4.5-1.9c.3-.6.7-1 1.3-1.3s1.2-.5 1.8-.5c.7 0 1.3.2 1.8.5s1 .8 1.3 1.3c.3.6.5 1.2.5 1.9l-.1.2zm-3.6-3.2c-.7 0-1.3.2-1.8.7-.5.4-.7 1-.8 1.8h5.2c-.1-.7-.3-1.3-.8-1.8s-1-.7-1.8-.7zm8.5 3.3h-1.7v3.3h-1v-7.4h1v3.2h1.7l2.6-3.2h1.1l-2.9 3.6 3.1 3.8h-1.2l-2.7-3.3zm11.6-.1h-6.2c.1.8.3 1.4.9 1.9.5.5 1.2.7 2 .7.5 0 .9-.1 1.3-.2.4-.2.7-.4 1-.7l.6.6c-.3.4-.7.7-1.2.9-.5.2-1 .3-1.6.3-.8 0-1.4-.2-2-.5s-1-.8-1.4-1.3c-.3-.6-.5-1.2-.5-1.9s.2-1.4.5-1.9c.3-.6.7-1 1.3-1.3s1.2-.5 1.8-.5c.7 0 1.3.2 1.8.5s1 .8 1.3 1.3c.3.6.5 1.2.5 1.9l-.1.2zm-3.5-3.2c-.7 0-1.3.2-1.8.7-.5.4-.7 1-.8 1.8h5.2c-.1-.7-.3-1.3-.8-1.8s-1.1-.7-1.8-.7zM3.9 120c1 0 1.7.2 2.2.7s.8 1.2.8 2.1v4.6H6v-1.1c-.2.4-.6.7-1 .9s-.9.3-1.5.3c-.8 0-1.5-.2-2-.6-.5-.4-.7-.9-.7-1.6 0-.6.2-1.1.7-1.5s1.2-.6 2.2-.6H6v-.4c0-.6-.2-1.1-.5-1.4-.4-.3-.9-.5-1.6-.5-.5 0-.9.1-1.3.2s-.8.4-1.1.6l-.6-.7c.4-.3.8-.6 1.3-.7.6-.2 1.1-.3 1.7-.3zm-.3 6.7c.6 0 1-.1 1.4-.4.4-.3.7-.6.9-1.1V124H3.6c-1.3 0-1.9.4-1.9 1.3 0 .4.2.8.5 1 .3.3.8.4 1.4.4zm13.1-.1v2.6h-.9v-1.8H9.2v1.8h-.9v-2.6h.4c.5 0 .8-.4 1-1.1.2-.7.3-1.7.4-2.9l.1-2.5h5.4v6.5h1.1zm-5.7-4c0 1-.1 1.9-.3 2.6-.1.7-.4 1.1-.7 1.4h4.6V121H11v1.6zm10.2-2.6c1 0 1.7.2 2.2.7s.8 1.2.8 2.1v4.6h-1v-1.1c-.2.4-.6.7-1 .9s-.9.3-1.5.3c-.8 0-1.5-.2-2-.6-.5-.4-.7-.9-.7-1.6 0-.6.2-1.1.7-1.5s1.2-.6 2.2-.6h2.3v-.4c0-.6-.2-1.1-.5-1.4-.4-.3-.9-.5-1.6-.5-.5 0-.9.1-1.3.2s-.8.4-1.1.6l-.4-.7c.4-.3.8-.6 1.3-.7.5-.2 1-.3 1.6-.3zm-.3 6.7c.6 0 1-.1 1.4-.4.4-.3.7-.6.9-1.1V124h-2.3c-1.3 0-1.9.4-1.9 1.3 0 .4.2.8.5 1 .3.3.8.4 1.4.4zm14.2-6.6v7.4h-.9v-5.8l-3 4.9h-.4l-3-4.9v5.8h-.9v-7.4h1l3.1 5.3 3.2-5.3h.9zm10 6.5v2.6h-.9v-1.8h-6.6v1.8h-.9v-2.6h.3c.5 0 .8-.4 1-1.1.2-.7.3-1.7.4-2.9l.1-2.5h5.4v6.5h1.2zm-5.8-4c0 1-.1 1.9-.3 2.6-.1.7-.4 1.1-.7 1.4h4.6V121h-3.5l-.1 1.6zm10.2-2.6c1 0 1.7.2 2.2.7s.8 1.2.8 2.1v4.6h-1v-1.1c-.2.4-.6.7-1 .9s-.9.3-1.5.3c-.8 0-1.5-.2-2-.6-.5-.4-.7-.9-.7-1.6 0-.6.2-1.1.7-1.5s1.2-.6 2.2-.6h2.3v-.4c0-.6-.2-1.1-.5-1.4-.4-.3-.9-.5-1.6-.5-.5 0-.9.1-1.3.2s-.8.4-1.1.6l-.4-.7c.4-.3.8-.6 1.3-.7.5-.2 1.1-.3 1.6-.3zm-.3 6.7c.6 0 1-.1 1.4-.4.4-.3.7-.6.9-1.1V124h-2.3c-1.3 0-1.9.4-1.9 1.3 0 .4.2.8.5 1 .3.3.8.4 1.4.4zM59 120c.7 0 1.3.2 1.9.5.6.3 1 .7 1.3 1.3s.5 1.2.5 1.9-.2 1.4-.5 2-.8 1-1.3 1.3c-.6.3-1.2.5-1.9.5-.6 0-1.1-.1-1.6-.4-.5-.3-.9-.6-1.2-1.1v4.1h-1V120h1v1.5c.3-.5.7-.9 1.2-1.1.4-.2.9-.4 1.6-.4zm-.1 6.6c.5 0 1-.1 1.4-.4.4-.2.7-.6 1-1 .2-.4.4-.9.4-1.5s-.1-1.1-.4-1.5c-.2-.4-.6-.8-1-1s-.9-.4-1.4-.4-1 .1-1.4.4c-.4.2-.7.6-1 1-.2.4-.4.9-.4 1.5s.1 1.1.4 1.5c.2.4.6.8 1 1 .4.3.9.4 1.4.4zM66 121v2.9h3.2v.7H66v2.9h-1v-2.9h-1v-.7h1v-3.7h5.2v.9L66 121zm8.3-1c1 0 1.7.2 2.2.7s.8 1.2.8 2.1v4.6h-1v-1.1c-.2.4-.6.7-1 .9s-.9.3-1.5.3c-.8 0-1.5-.2-2-.6-.5-.4-.7-.9-.7-1.6 0-.6.2-1.1.7-1.5s1.2-.6 2.2-.6h2.3v-.4c0-.6-.2-1.1-.5-1.4-.4-.3-.9-.5-1.6-.5-.5 0-.9.1-1.3.2s-.8.4-1.1.6l-.4-.7c.4-.3.8-.6 1.3-.7.5-.2 1.1-.3 1.6-.3zm-.3 6.7c.6 0 1-.1 1.4-.4.4-.3.7-.6.9-1.1V124H74c-1.3 0-1.9.4-1.9 1.3 0 .4.2.8.5 1 .3.3.8.4 1.4.4zm16.1-2.5h-1.6v3.3h-1v-3.3h-1.6l-2.3 3.3h-1.2l2.6-3.8-2.4-3.6h1.1l2.2 3.2h1.6v-3.2h1v3.2h1.6l2.2-3.2h1.1l-2.4 3.6 2.6 3.8h-1.2l-2.3-3.3zm7.5-4.2c1 0 1.7.2 2.2.7s.8 1.2.8 2.1v4.6h-1v-1.1c-.2.4-.6.7-1 .9s-.9.3-1.5.3c-.8 0-1.5-.2-2-.6s-.7-.9-.7-1.6c0-.6.2-1.1.7-1.5s1.2-.6 2.2-.6h2.3v-.4c0-.6-.2-1.1-.5-1.4-.4-.3-.9-.5-1.6-.5-.5 0-.9.1-1.3.2s-.8.4-1.1.6l-.4-.7c.4-.3.8-.6 1.3-.7.5-.2 1-.3 1.6-.3zm-.4 6.7c.6 0 1-.1 1.4-.4.4-.3.7-.6.9-1.1V124h-2.3c-1.3 0-1.9.4-1.9 1.3 0 .4.2.8.5 1 .4.3.8.4 1.4.4zm8.7-2.5h-1.7v3.3h-1v-7.4h1v3.2h1.7l2.6-3.2h1.1l-2.9 3.6 3.1 3.8h-1.2l-2.7-3.3zm4.6 2.4v2.5h-.9v-1.6h-.9v-.9h1.8zm7.5-6.5v7.4h-1V121h-4.6v6.5h-1v-7.4h6.6zm5.3-.1c1 0 1.7.2 2.2.7s.8 1.2.8 2.1v4.6h-1v-1.1c-.2.4-.6.7-1 .9s-.9.3-1.5.3c-.8 0-1.5-.2-2-.6-.5-.4-.7-.9-.7-1.6 0-.6.2-1.1.7-1.5s1.2-.6 2.2-.6h2.3v-.4c0-.6-.2-1.1-.5-1.4-.4-.3-.9-.5-1.6-.5-.5 0-.9.1-1.3.2s-.8.4-1.1.6l-.4-.7c.4-.3.8-.6 1.3-.7.5-.2 1-.3 1.6-.3zm-.3 6.7c.6 0 1-.1 1.4-.4.4-.3.7-.6.9-1.1V124H123c-1.3 0-1.9.4-1.9 1.3 0 .4.2.8.5 1 .3.3.8.4 1.4.4zm12.2-6.6-3.7 8.2c-.3.7-.6 1.2-1 1.5s-.9.4-1.4.4c-.4 0-.7-.1-1-.2s-.6-.3-.8-.5l.5-.7c.4.4.8.6 1.3.6.3 0 .6-.1.9-.3.2-.2.5-.5.7-1l.3-.7-3.3-7.3h1l2.8 6.3 2.8-6.3h.9zm4.6 2.6c.9 0 1.6.2 2.1.6.5.4.7 1 .7 1.7 0 .8-.3 1.4-.8 1.8-.5.4-1.3.6-2.2.6h-2.9V120h1v2.6l2.1.1zm4.1-2.6h1v7.4h-1v-7.4zm-4.3 6.6c.7 0 1.2-.1 1.5-.4.4-.3.5-.7.5-1.3 0-.5-.2-.9-.5-1.2s-.9-.4-1.6-.4h-1.9v3.3h2zm8.2-.7c.2 0 .4.1.5.2.1.1.2.3.2.5 0 .1 0 .2-.1.4 0 .1-.1.3-.1.4l-.6 1.9h-.7l.5-2c-.1 0-.3-.1-.4-.3-.1-.1-.1-.3-.1-.5s.1-.4.2-.5c.2 0 .4-.1.6-.1zm13-1.8h-1.6v3.3h-1v-3.3h-1.6l-2.3 3.3h-1.2l2.6-3.8-2.4-3.6h1.1l2.2 3.2h1.6v-3.2h1v3.2h1.6l2.2-3.2h1.1l-2.4 3.6 2.6 3.8h-1.2l-2.3-3.3zm7.7 3.3v2.7h-1v-2.7l-3.3-7.4h1.1l2.7 6.3 2.8-6.3h1l-3.3 7.4zm7.5-3.3h-1.7v3.3h-1v-7.4h1v3.2h1.7l2.6-3.2h1.1l-2.9 3.6 3.1 3.8h-1.2l-2.7-3.3zm10.5-3.2h-2.8v6.5h-1V121h-2.8v-.9h6.6v.9zm1.4-.9h1v7.4h-1v-7.4zm.5-1.6c-.2 0-.4-.1-.5-.2s-.2-.3-.2-.5.1-.3.2-.5.3-.2.5-.2.4.1.5.2.2.3.2.5-.1.4-.2.5-.3.2-.5.2zm9.4 1.6v7.4h-1V121h-3.5l-.1 1.8c-.1 1.5-.3 2.7-.5 3.5s-.8 1.2-1.5 1.2c-.2 0-.4 0-.7-.1l.1-.9c.2 0 .3.1.4.1.4 0 .7-.2.9-.5.2-.4.3-.8.4-1.3.1-.5.1-1.2.2-2.1l.1-2.6h5.2zm2.8 0h1v7.4h-1v-7.4zm.5-1.6c-.2 0-.4-.1-.5-.2s-.2-.3-.2-.5.1-.3.2-.5.3-.2.5-.2.4.1.5.2.2.3.2.5-.1.4-.2.5-.3.2-.5.2zm6 5.7h-1.7v3.3h-1v-7.4h1v3.2h1.7l2.6-3.2h1.1l-2.9 3.6 3.1 3.8h-1.2l-2.7-3.3zm5.6 1.8c.2 0 .4.1.5.2.1.1.2.3.2.5 0 .1 0 .2-.1.4 0 .1-.1.3-.1.4l-.6 1.9h-.7l.5-2c-.1 0-.3-.1-.4-.3-.1-.1-.1-.3-.1-.5s.1-.4.2-.5c.2 0 .3-.1.6-.1zM7.8 142.1H1.7c.1.8.3 1.4.9 1.9.5.5 1.2.7 2 .7.5 0 .9-.1 1.3-.2.4-.2.7-.4 1-.7l.6.6c-.3.4-.7.7-1.2.9s-1 .3-1.6.3c-.8 0-1.4-.2-2-.5s-1-.8-1.4-1.3c-.3-.6-.5-1.2-.5-1.9s.2-1.4.5-1.9c.3-.6.7-1 1.3-1.3s1.2-.5 1.8-.5 1.3.2 1.8.5 1 .8 1.3 1.3c.3.6.5 1.2.5 1.9l-.2.2zm-3.5-3.2c-.7 0-1.3.2-1.8.7-.5.4-.7 1-.8 1.8h5.2c-.1-.7-.3-1.3-.8-1.8s-1.1-.7-1.8-.7zm14-.8v7.4h-.9v-5.8l-3 4.9H14l-3-4.9v5.8h-1v-7.4h1l3.1 5.3 3.2-5.3h1zm13 0v7.4H21.1v-7.4h1v6.5h3.6v-6.5h1v6.5h3.6v-6.5h1zm9.2 4h-6.2c.1.8.3 1.4.9 1.9.5.5 1.2.7 2 .7.5 0 .9-.1 1.3-.2.4-.2.7-.4 1-.7l.6.6c-.3.4-.7.7-1.2.9s-1 .3-1.6.3c-.8 0-1.4-.2-2-.5s-1-.8-1.4-1.3c-.3-.6-.5-1.2-.5-1.9s.2-1.4.5-1.9c.3-.6.7-1 1.3-1.3s1.2-.5 1.8-.5c.7 0 1.3.2 1.8.5s1 .8 1.3 1.3c.3.6.5 1.2.5 1.9l-.1.2zm-3.5-3.2c-.7 0-1.3.2-1.8.7-.5.4-.7 1-.8 1.8h5.2c-.1-.7-.3-1.3-.8-1.8s-1.1-.7-1.8-.7zm8.4 3.3h-1.7v3.3h-1v-7.4h1v3.2h1.7l2.6-3.2h1.1l-2.9 3.6 3.1 3.8h-1.2l-2.7-3.3zm15.6-.1h-6.2c.1.8.4 1.4.9 1.9s1.2.7 2 .7c.5 0 .9-.1 1.3-.2.4-.2.7-.4 1-.7l.6.6c-.3.4-.7.7-1.2.9s-1 .3-1.6.3c-.8 0-1.4-.2-2-.5s-1-.8-1.4-1.3c-.3-.6-.5-1.2-.5-1.9s.2-1.4.5-1.9c.3-.6.7-1 1.3-1.3s1.2-.5 1.8-.5c.7 0 1.3.2 1.8.5s1 .8 1.3 1.3c.3.6.5 1.2.5 1.9l-.1.2zm-3.6-3.2c-.7 0-1.3.2-1.8.7-.5.4-.7 1-.8 1.8H60c-.1-.7-.3-1.3-.8-1.8-.4-.5-1-.7-1.8-.7zm14-.8v7.4h-.9v-5.8l-3 4.9h-.4l-3-4.9v5.8h-.9v-7.4h1l3.1 5.3 3.2-5.3h.9zm2.9 0h1v7.4h-1v-7.4zm.5-1.6c-.2 0-.4-.1-.5-.2s-.3-.3-.3-.5.1-.3.2-.5.3-.2.5-.2.4.1.5.2c.1.1.2.3.2.5s-.1.4-.2.5-.2.2-.4.2zm6.7 5.1c.5.1.9.3 1.2.6.3.3.4.7.4 1.1s-.1.8-.4 1.1-.7.6-1.2.8-1.1.3-1.7.3c-.5 0-1.1-.1-1.6-.2-.5-.2-1-.4-1.3-.7l.3-.7c.3.3.7.4 1.2.6s.9.2 1.4.2c.7 0 1.2-.1 1.7-.4.4-.3.7-.6.7-1.1 0-.4-.2-.7-.5-.9-.4-.2-.8-.3-1.5-.3h-1.3v-.7h1.2c.6 0 1-.1 1.3-.3s.5-.5.5-.9-.2-.7-.6-.9-.9-.3-1.5-.3c-.8 0-1.6.2-2.4.6l-.3-.8c.9-.5 1.8-.7 2.7-.7.6 0 1.1.1 1.5.3.5.2.8.4 1.1.7.3.3.4.6.4 1s-.1.7-.4 1c-.1.3-.4.5-.9.6zm10.2-3.5-3.7 8.2c-.3.7-.6 1.2-1 1.5s-.9.4-1.4.4c-.4 0-.7-.1-1-.2s-.6-.3-.8-.5l.5-.7c.4.4.8.6 1.3.6.3 0 .6-.1.9-.3.2-.2.5-.5.7-1l.3-.7-3.3-7.3h1l2.8 6.3 2.8-6.3h.9zm1.1 5.9c.2 0 .4.1.5.2.1.1.2.3.2.5 0 .1 0 .2-.1.4 0 .1-.1.3-.1.4l-.6 1.9H92l.5-2c-.1 0-.3-.1-.4-.3-.1-.1-.1-.3-.1-.5s.1-.4.2-.5c.2 0 .4-.1.6-.1zm11.8-5h-2.8v6.5h-1V139H98v-.9h6.6v.9zm5.2-1c.7 0 1.3.2 1.9.5s1 .7 1.3 1.3.5 1.2.5 1.9-.2 1.4-.5 2-.8 1-1.3 1.3-1.2.5-1.9.5c-.6 0-1.1-.1-1.6-.4-.5-.3-.9-.6-1.2-1.1v4.1h-1V138h1v1.5c.3-.5.7-.9 1.2-1.1.4-.2 1-.4 1.6-.4zm-.1 6.6c.5 0 1-.1 1.4-.4.4-.2.7-.6 1-1 .2-.4.4-.9.4-1.5s-.1-1.1-.4-1.5c-.2-.4-.6-.8-1-1s-.9-.4-1.4-.4-1 .1-1.4.4c-.4.2-.7.6-1 1-.2.4-.3.9-.3 1.5s.1 1.1.3 1.5c.2.4.6.8 1 1 .4.3.9.4 1.4.4zm8.9.9c-.7 0-1.3-.2-1.9-.5s-1-.8-1.3-1.3c-.3-.6-.5-1.2-.5-1.9s.2-1.4.5-1.9c.3-.6.8-1 1.3-1.3s1.2-.5 1.9-.5 1.3.2 1.9.5 1 .8 1.3 1.3c.3.6.5 1.2.5 1.9s-.2 1.4-.5 1.9c-.3.6-.8 1-1.3 1.3-.5.4-1.2.5-1.9.5zm0-.9c.5 0 1-.1 1.4-.4.4-.2.7-.6 1-1 .2-.4.4-.9.4-1.5s-.1-1.1-.4-1.5c-.2-.4-.6-.8-1-1s-.9-.4-1.4-.4-1 .1-1.4.4c-.4.2-.7.6-1 1-.2.4-.4.9-.4 1.5s.1 1.1.4 1.5c.2.4.6.8 1 1 .4.3.9.4 1.4.4zm14.1-6.5v7.4h-.9v-5.8l-3 4.9h-.4l-3-4.9v5.8h-.9v-7.4h1l3.1 5.3 3.2-5.3h.9zm6.4.2c.7 0 1.3.2 1.8.5s1 .7 1.3 1.3c.3.5.4 1.2.4 1.9s-.2 1.4-.5 1.9c-.3.6-.7 1-1.3 1.3s-1.2.5-1.9.5c-1.2 0-2.2-.4-2.8-1.3-.7-.9-1-2-1-3.6s.3-2.8.9-3.6c.6-.8 1.5-1.4 2.8-1.7l3.3-.8.2.9-3.1.7c-1.1.2-1.8.6-2.3 1.2-.5.6-.8 1.5-.8 2.6.3-.6.7-1 1.2-1.3.5-.4 1.1-.5 1.8-.5zm-.1 6.4c.5 0 1-.1 1.4-.3s.7-.6 1-1c.2-.4.3-.9.3-1.5s-.1-1-.3-1.4-.5-.7-1-1c-.4-.2-.9-.3-1.4-.3s-1 .1-1.4.3-.7.5-1 1c-.2.4-.3.9-.3 1.4s.1 1 .3 1.5c.2.4.6.8 1 1 .4.2.9.3 1.4.3zm10.7-5.7h-2.8v6.5h-1V139h-2.8v-.9h6.6v.9zm4-1c1 0 1.7.2 2.2.7s.8 1.2.8 2.1v4.6h-1v-1.1c-.2.4-.6.7-1 .9s-.9.3-1.5.3c-.8 0-1.5-.2-2-.6s-.7-.9-.7-1.6c0-.6.2-1.1.7-1.5s1.2-.6 2.2-.6h2.3v-.4c0-.6-.2-1.1-.5-1.4-.4-.3-.9-.5-1.6-.5-.5 0-.9.1-1.3.2s-.8.4-1.1.6l-.4-.7c.4-.3.8-.6 1.3-.7.4-.2 1-.3 1.6-.3zm-.4 6.7c.6 0 1-.1 1.4-.4.4-.3.7-.6.9-1.1V142h-2.3c-1.3 0-1.9.4-1.9 1.3 0 .4.2.8.5 1 .4.3.8.4 1.4.4zm9.8-6.7c.7 0 1.3.2 1.9.5.6.3 1 .7 1.3 1.3s.5 1.2.5 1.9-.2 1.4-.5 2-.8 1-1.3 1.3c-.6.3-1.2.5-1.9.5-.6 0-1.1-.1-1.6-.4-.5-.3-.9-.6-1.2-1.1v4.1h-1V138h1v1.5c.3-.5.7-.9 1.2-1.1.4-.2 1-.4 1.6-.4zm-.1 6.6c.5 0 1-.1 1.4-.4.4-.2.7-.6 1-1 .2-.4.4-.9.4-1.5s-.1-1.1-.4-1.5c-.2-.4-.6-.8-1-1s-.9-.4-1.4-.4-1 .1-1.4.4c-.4.2-.7.6-1 1-.2.4-.4.9-.4 1.5s.1 1.1.4 1.5c.2.4.6.8 1 1 .4.3.9.4 1.4.4zm13 0v2.6h-.9v-1.8h-6.6v1.8h-.9v-2.6h.4c.5 0 .8-.4 1-1.1.2-.7.3-1.7.4-2.9l.1-2.5h5.4v6.5h1.1zm-5.7-4c0 1-.1 1.9-.3 2.6-.1.7-.4 1.1-.7 1.4h4.6V139h-3.5l-.1 1.6zm10.8.1c.9 0 1.6.2 2.1.6.5.4.7 1 .7 1.7 0 .8-.3 1.4-.8 1.8-.5.4-1.3.6-2.2.6H178V138h1v2.6l2.1.1zm4-2.6h1v7.4h-1v-7.4zm-4.3 6.6c.7 0 1.2-.1 1.5-.4.4-.3.5-.7.5-1.3 0-.5-.2-.9-.5-1.2s-.9-.4-1.6-.4h-1.9v3.3h2zm8.2-6.6h1v3.3h4.6v-3.3h1v7.4h-1v-3.2H190v3.2h-1v-7.4zm7.8 6.5v2.5h-.9v-1.6h-1.2v-.9h2.1zM6.6 157H3.8v6.5h-1V157H0v-.9h6.6v.9zm4.4 6.5v2.7h-1v-2.7l-3.3-7.4h1l2.7 6.3 2.8-6.3h1l-3.2 7.4zm8.2-3.9c.5.1.9.3 1.2.6.3.3.4.7.4 1.1s-.1.8-.4 1.1-.7.6-1.2.8-1.1.3-1.7.3c-.5 0-1.1-.1-1.6-.2-.5-.2-1-.4-1.3-.7l.3-.7c.3.3.7.4 1.2.6.4.1.9.2 1.4.2.7 0 1.2-.1 1.7-.4.4-.3.7-.6.7-1.1 0-.4-.2-.7-.5-.9-.4-.2-.8-.3-1.5-.3h-1.3v-.7h1.2c.6 0 1-.1 1.3-.3s.5-.5.5-.9-.2-.7-.6-.9-.9-.3-1.5-.3c-.8 0-1.6.2-2.4.6l-.3-.8c.9-.5 1.8-.7 2.7-.7.6 0 1.1.1 1.5.3.5.2.8.4 1.1.7.3.3.4.6.4 1s-.1.7-.4 1c-.1.3-.4.5-.9.6zm3.9-3.5h1v7.4h-1v-7.4zm.5-1.6c-.2 0-.4-.1-.5-.2-.1-.1-.2-.3-.2-.5s.1-.3.2-.5c.1-.1.3-.2.5-.2s.4.1.5.2c.1.1.2.3.2.5s-.1.4-.2.5-.3.2-.5.2zm9.4 1.6v7.4h-1V157h-3.5l-.1 1.8c-.1 1.5-.3 2.7-.5 3.5-.3.8-.8 1.2-1.5 1.2-.2 0-.4 0-.7-.1l.1-.9c.2 0 .3.1.4.1.4 0 .7-.2.9-.5.2-.4.3-.8.4-1.3s.1-1.2.2-2.1l.1-2.6H33zm9.1 0-3.7 8.2c-.3.7-.6 1.2-1 1.5s-.9.4-1.4.4c-.4 0-.7-.1-1-.2-.3-.1-.6-.3-.8-.5l.5-.7c.4.4.8.6 1.3.6.3 0 .6-.1.9-.3.2-.2.5-.5.7-1l.3-.7-3.3-7.3h1l2.8 6.3 2.8-6.3h.9zm1.5 0h1v7.4h-1v-7.4zm.5-1.6c-.2 0-.4-.1-.5-.2s-.2-.3-.2-.5.1-.3.2-.5.3-.2.5-.2.4.1.5.2c.1.1.2.3.2.5s-.1.4-.2.5-.3.2-.5.2zm3.3 1.6h1v3.3H53v-3.3h1v7.4h-1v-3.2h-4.6v3.2h-1v-7.4zm15.9 4h-6.2c.1.8.3 1.4.9 1.9.5.5 1.2.7 2 .7.5 0 .9-.1 1.3-.2.4-.2.7-.4 1-.7l.6.6c-.3.4-.7.7-1.2.9s-1 .3-1.6.3c-.8 0-1.4-.2-2-.5s-1-.8-1.4-1.3c-.3-.6-.5-1.2-.5-1.9s.2-1.4.5-1.9c.3-.6.7-1 1.3-1.3s1.2-.5 1.8-.5c.7 0 1.3.2 1.8.5s1 .8 1.3 1.3c.3.6.5 1.2.5 1.9l-.1.2zm-3.5-3.2c-.7 0-1.3.2-1.8.7-.5.4-.7 1-.8 1.8h5.2c-.1-.7-.3-1.3-.8-1.8s-1.1-.7-1.8-.7zm15.9 3.3h-1.6v3.3h-1v-3.3h-1.6l-2.3 3.3H68l2.6-3.8-2.4-3.6h1.1l2.2 3.2h1.6v-3.2h1v3.2h1.6l2.2-3.2H79l-2.4 3.6 2.6 3.8H78l-2.3-3.3zm7.9 3.3c-.7 0-1.3-.2-1.9-.5s-1-.8-1.3-1.3-.5-1.2-.5-1.9.2-1.4.5-1.9.8-1 1.3-1.3 1.2-.5 1.9-.5 1.3.2 1.9.5 1 .8 1.3 1.3c.3.6.5 1.2.5 1.9s-.2 1.4-.5 1.9c-.3.6-.8 1-1.3 1.3-.6.4-1.2.5-1.9.5zm0-.9c.5 0 1-.1 1.4-.4.4-.2.7-.6 1-1 .2-.4.3-.9.3-1.5s-.1-1.1-.3-1.5c-.2-.4-.6-.8-1-1s-.9-.4-1.4-.4-1 .1-1.4.4c-.4.2-.7.6-1 1-.2.4-.4.9-.4 1.5s.1 1.1.4 1.5c.2.4.6.8 1 1 .4.3.8.4 1.4.4zm7-5.6v2.9h3.2v.7h-3.2v2.9h-1v-2.9h-1v-.7h1v-3.7h5.2v.9l-4.2-.1zm8.4-1c1 0 1.7.2 2.2.7s.8 1.2.8 2.1v4.6h-1v-1.1c-.2.4-.6.7-1 .9s-.9.3-1.5.3c-.8 0-1.5-.2-2-.6-.5-.4-.7-.9-.7-1.6 0-.6.2-1.1.7-1.5s1.2-.6 2.2-.6h2.3v-.4c0-.6-.2-1.1-.5-1.4-.4-.3-.9-.5-1.6-.5-.5 0-.9.1-1.3.2s-.8.4-1.1.6l-.5-.7c.4-.3.8-.6 1.3-.7.6-.2 1.1-.3 1.7-.3zm-.4 6.7c.6 0 1-.1 1.4-.4.4-.3.7-.6.9-1.1V160h-2.3c-1.3 0-1.9.4-1.9 1.3 0 .4.2.8.5 1 .4.3.8.4 1.4.4zm9.8-6.7c.7 0 1.3.2 1.9.5s1 .7 1.3 1.3.5 1.2.5 1.9-.2 1.4-.5 2-.8 1-1.3 1.3c-.6.3-1.2.5-1.9.5-.6 0-1.1-.1-1.6-.4-.5-.3-.9-.6-1.2-1.1v4.1h-1V156h1v1.5c.3-.5.7-.9 1.2-1.1.4-.2 1-.4 1.6-.4zm-.1 6.6c.5 0 1-.1 1.4-.4.4-.2.7-.6 1-1 .2-.4.4-.9.4-1.5s-.1-1.1-.4-1.5c-.2-.4-.6-.8-1-1s-.9-.4-1.4-.4-1 .1-1.4.4c-.4.2-.7.6-1 1-.2.4-.4.9-.4 1.5s.1 1.1.4 1.5c.2.4.6.8 1 1 .4.3.9.4 1.4.4zm9-3.9c.9 0 1.6.2 2.1.6.5.4.7 1 .7 1.7 0 .8-.3 1.4-.8 1.8-.5.4-1.3.6-2.2.6h-2.9V156h1v2.6l2.1.1zm4.1-2.6h1v7.4h-1v-7.4zm-4.3 6.6c.7 0 1.2-.1 1.5-.4.4-.3.5-.7.5-1.3 0-.5-.2-.9-.5-1.2s-.9-.4-1.6-.4h-1.9v3.3h2zm15.3-6.4c.7 0 1.3.2 1.8.5s1 .7 1.3 1.3c.3.5.4 1.2.4 1.9s-.2 1.4-.5 1.9c-.3.6-.7 1-1.3 1.3s-1.2.5-1.9.5c-1.2 0-2.2-.4-2.8-1.3-.7-.9-1-2-1-3.6s.3-2.8.9-3.6c.6-.8 1.5-1.4 2.8-1.7l3.3-.8.2.9-3.1.7c-1.1.2-1.8.6-2.3 1.2-.5.6-.8 1.5-.8 2.6.3-.6.7-1 1.2-1.3.5-.4 1.1-.5 1.8-.5zm-.1 6.4c.5 0 1-.1 1.4-.3s.7-.6 1-1c.2-.4.4-.9.4-1.5s-.1-1-.3-1.4-.5-.7-1-1c-.4-.2-.9-.3-1.4-.3s-1 .1-1.4.3-.7.5-1 1c-.2.4-.3.9-.3 1.4s.1 1 .3 1.5c.2.4.6.8 1 1 .3.2.8.3 1.3.3zm12.2-2.6h-6.2c.1.8.3 1.4.9 1.9.5.5 1.2.7 2 .7.5 0 .9-.1 1.3-.2.4-.2.7-.4 1-.7l.6.6c-.3.4-.7.7-1.2.9s-1 .3-1.6.3c-.8 0-1.4-.2-2-.5s-1-.8-1.4-1.3c-.3-.6-.5-1.2-.5-1.9s.2-1.4.5-1.9c.3-.6.7-1 1.3-1.3s1.2-.5 1.8-.5 1.3.2 1.8.5 1 .8 1.3 1.3c.3.6.5 1.2.5 1.9l-.1.2zm-3.5-3.2c-.7 0-1.3.2-1.8.7-.5.4-.7 1-.8 1.8h5.2c-.1-.7-.3-1.3-.8-1.8s-1.1-.7-1.8-.7zm5.7-.8h1v5.9l4.9-5.9h.9v7.4h-1v-5.9l-4.9 5.9h-.9v-7.4zm3.4-1.1c-.6 0-1.1-.2-1.5-.5s-.6-.8-.6-1.3h.7c0 .4.1.7.4.9.3.2.6.3 1 .3s.7-.1 1-.3.4-.5.4-.9h.7c0 .6-.2 1-.6 1.3-.4.4-.9.5-1.5.5zm6.3 1.1h1v7.4h-1v-7.4zm.5-1.6c-.2 0-.4-.1-.5-.2s-.2-.3-.2-.5.1-.3.2-.5.3-.2.5-.2.4.1.5.2c.1.1.2.3.2.5s-.1.4-.2.5-.3.2-.5.2zm11.5 1.6v7.4h-.9v-5.8l-3 4.9h-.4l-3-4.9v5.8h-.9v-7.4h1l3.1 5.3 3.2-5.3h.9zm10.1 6.5v2.6h-.9v-1.8H171v1.8h-1v-2.6h.4c.5 0 .8-.4 1-1.1.2-.7.3-1.7.4-2.9l.1-2.5h5.4v6.5h1.2zm-5.8-4c0 1-.1 1.9-.3 2.6-.1.7-.4 1.1-.7 1.4h4.6V157h-3.5l-.1 1.6zm7.7-2.5h1v7.4h-1v-7.4zm.5-1.6c-.2 0-.4-.1-.5-.2s-.2-.3-.2-.5.1-.3.2-.5.3-.2.5-.2.4.1.5.2c.1.1.2.3.2.5s-.1.4-.2.5-.3.2-.5.2zm9.3 1.6v7.4h-1V157h-3.5l-.1 1.8c-.1 1.5-.3 2.7-.5 3.5s-.8 1.2-1.5 1.2c-.2 0-.4 0-.7-.1l.1-.9c.2 0 .3.1.4.1.4 0 .7-.2.9-.5.2-.4.3-.8.4-1.3.1-.5.1-1.2.2-2.1l.1-2.6h5.2zm2.9 0h1v7.4h-1v-7.4zm.5-1.6c-.2 0-.4-.1-.5-.2s-.2-.3-.2-.5.1-.3.2-.5.3-.2.5-.2.4.1.5.2c.1.1.2.3.2.5s-.1.4-.2.5-.3.2-.5.2zm6 5.7h-1.7v3.3h-1v-7.4h1v3.2h1.7l2.6-3.2h1.1l-2.9 3.6 3.1 3.8h-1.2l-2.7-3.3zm5.5 3.3c-.2 0-.4-.1-.5-.2-.1-.1-.2-.3-.2-.5s.1-.4.2-.5c.1-.1.3-.2.5-.2s.4.1.5.2c.1.1.2.3.2.5s-.1.4-.2.5c-.1.1-.3.2-.5.2zM4.7 5.1H2.5v4.3h-1V0h1v4.2h2.2L7.9 0H9L5.5 4.6l3.7 4.9H8L4.7 5.1zm5.2 3.5v3h-1V9.4H8v-.8h1.9zm4.1.9c-.7 0-1.3-.2-1.8-.5s-1-.7-1.3-1.3c-.3-.5-.5-1.2-.5-1.9s.2-1.3.5-1.9c.3-.5.7-1 1.3-1.3.5-.3 1.2-.5 1.8-.5s1.3.2 1.8.5 1 .7 1.3 1.3c.3.5.5 1.2.5 1.9s-.2 1.3-.5 1.9c-.3.5-.7 1-1.3 1.3-.5.4-1.2.5-1.8.5zm0-.8c.5 0 1-.1 1.4-.3s.7-.6.9-1c.2-.4.3-.9.3-1.4s-.1-1-.3-1.4c-.2-.4-.5-.7-.9-1-.4-.2-.8-.4-1.4-.4-.5 0-1 .1-1.4.4-.4.2-.7.5-.9 1-.2.4-.3.9-.3 1.4s.1 1 .3 1.4.5.8.9 1c.4.2.9.3 1.4.3zm11.4-6.4v7.1h-1V3.2H21L20.9 5c-.1 1.5-.2 2.6-.5 3.4s-.8 1.2-1.4 1.2c-.2 0-.4 0-.7-.1l.1-.8c.2 0 .3.1.3.1.4 0 .6-.2.8-.5.2-.3.3-.8.4-1.3s.1-1.2.2-2l.1-2.5h5.2v-.2zM35 8.6v2.6h-.9V9.4h-6.4v1.7h-.9V8.6h.4c.5 0 .8-.4 1-1.1s.3-1.6.4-2.8l.1-2.4h5.2v6.3H35zm-5.5-3.8c0 1-.1 1.8-.3 2.5-.1.6-.4 1.1-.7 1.3H33V3.2h-3.4l-.1 1.6zm9.8-2.5c.9 0 1.6.2 2.1.7.6.5.8 1.1.8 2v4.4h-.9V8.3c-.2.4-.5.7-1 .9-.4.2-.9.3-1.5.3-.8 0-1.4-.2-1.9-.6-.5-.4-.7-.9-.7-1.5s.2-1.1.6-1.5c.5-.3 1.2-.5 2.2-.5h2.3V5c0-.6-.2-1.1-.5-1.4s-.8-.5-1.5-.5c-.5 0-.9.1-1.3.2s-.8.3-1.1.6l-.4-.7c.4-.3.8-.5 1.3-.7.4-.1 1-.2 1.5-.2zM39 8.8c.5 0 1-.1 1.4-.4.4-.3.7-.6.9-1.1V6.2H39c-1.2 0-1.8.4-1.8 1.3 0 .4.2.7.5 1 .3.1.7.3 1.3.3zm5.8-6.5h1v3.1h4.5V2.3h1v7.1h-1V6.3h-4.5v3.1h-1V2.3zm11.5 0c.9 0 1.6.2 2.1.7s.7 1.1.7 2.1v4.4h-.9V8.3c-.2.4-.5.7-1 .9-.4.2-.9.3-1.5.3-.8 0-1.4-.2-1.9-.6-.5-.4-.7-.9-.7-1.5s.2-1.1.6-1.5c.6-.3 1.3-.5 2.3-.5h2.3V5c0-.6-.2-1.1-.5-1.4s-.8-.5-1.5-.5c-.5 0-.9.1-1.3.2s-.8.3-1.1.6l-.4-.7c.4-.3.8-.5 1.3-.7.4-.1 1-.2 1.5-.2zM56 8.8c.5 0 1-.1 1.4-.4.4-.3.7-.6.9-1.1V6.2H56c-1.2 0-1.8.4-1.8 1.3 0 .4.2.7.5 1 .3.1.7.3 1.3.3zm9.4-6.5c.7 0 1.3.2 1.8.5s1 .7 1.3 1.3.5 1.2.5 1.9-.2 1.3-.5 1.9c-.3.5-.7 1-1.3 1.3-.5.3-1.1.4-1.8.4-.6 0-1.1-.1-1.6-.4-.5-.2-.8-.6-1.1-1.1v4h-1V2.3h.9v1.4c.3-.5.7-.8 1.1-1.1.6-.2 1.1-.3 1.7-.3zm-.1 6.4c.5 0 .9-.1 1.3-.3s.7-.6.9-1c.4-.5.5-1 .5-1.5s-.1-1-.4-1.4c-.2-.4-.5-.8-.9-1s-.9-.4-1.3-.4c-.5 0-1 .1-1.4.4-.4.2-.7.6-.9 1s-.3.9-.3 1.4.1 1 .3 1.4.5.8.9 1c.4.3.8.4 1.3.4zM77 2.3c.9 0 1.6.2 2.1.7s.7 1.1.7 2.1v4.4h-.9V8.3c-.2.4-.5.7-1 .9-.4.2-.9.3-1.5.3-.8 0-1.4-.2-1.9-.6-.5-.4-.7-.9-.7-1.5s.2-1.1.6-1.5 1.1-.6 2.1-.6h2.3V5c0-.6-.2-1.1-.5-1.4s-.8-.5-1.5-.5c-.4 0-.9.1-1.3.2s-.8.3-1.1.6l-.4-.7c.4-.3.8-.5 1.3-.7.6-.1 1.1-.2 1.7-.2zm-.4 6.5c.5 0 1-.1 1.4-.4.4-.3.7-.6.9-1.1V6.2h-2.2c-1.2 0-1.8.4-1.8 1.3 0 .4.2.7.5 1 .2.1.7.3 1.2.3zm11.6-6.5v7.1h-1V3.2h-3.4V5c-.1 1.5-.2 2.6-.5 3.4s-.8 1.2-1.4 1.2c-.2 0-.4 0-.7-.1l.1-.8c.2 0 .3.1.3.1.4 0 .6-.2.8-.5.2-.3.3-.8.4-1.3s.1-1.2.2-2V2.3h5.2zm9.7 6.3v2.6H97V9.4h-6.4v1.7h-.9V8.6h.4c.5 0 .8-.4 1-1.1s.3-1.6.4-2.8l.1-2.4h5.2v6.3h1.1zm-5.6-3.8c0 1-.1 1.8-.3 2.5-.1.6-.4 1.1-.7 1.3h4.4V3.2h-3.4v1.6zm10.4.1c.9 0 1.6.2 2 .6.5.4.7.9.7 1.7s-.3 1.3-.8 1.7-1.2.6-2.2.6h-2.8V2.3h1v2.5l2.1.1zm3.9-2.6h1v7.1h-1V2.3zm-4.1 6.4c.7 0 1.2-.1 1.5-.4.3-.3.5-.7.5-1.2s-.2-.9-.5-1.2-.8-.4-1.5-.4h-1.8v3.2h1.8zm7.8-6.4h1v3.1h4.5V2.3h1v7.1h-1V6.3h-4.5v3.1h-1V2.3zm16.1 6.3v2.6h-.9V9.4h-6.4v1.7h-.9V8.6h.4c.5 0 .8-.4 1-1.1s.3-1.6.4-2.8l.1-2.4h5.2v6.3h1.1zm-5.6-3.8c0 1-.1 1.8-.3 2.5-.1.6-.4 1.1-.7 1.3h4.4V3.2h-3.4v1.6zm9.9-2.5c.9 0 1.6.2 2.1.7s.7 1.1.7 2.1v4.4h-.9V8.3c-.2.4-.5.7-1 .9-.4.2-.9.3-1.5.3-.8 0-1.4-.2-1.9-.6-.5-.4-.7-.9-.7-1.5s.2-1.1.6-1.5c.4-.4 1.1-.6 2.1-.6h2.3V5c0-.6-.2-1.1-.5-1.4s-.8-.5-1.5-.5c-.4 0-.9.1-1.3.2s-.8.3-1.1.6l-.4-.7c.4-.3.8-.5 1.3-.7.6-.1 1.1-.2 1.7-.2zm-.4 6.5c.5 0 1-.1 1.4-.4.4-.3.7-.6.9-1.1V6.2h-2.2c-1.2 0-1.8.4-1.8 1.3 0 .4.2.7.5 1 .2.1.7.3 1.2.3zM8.3 26.6v2.6h-.9v-1.7H1v1.7H.1v-2.6h.4c.5 0 .8-.4 1-1.1s.3-1.6.4-2.8l.1-2.4h5.2v6.3h1.1zm-5.6-3.8c0 1-.1 1.8-.3 2.5-.1.6-.4 1.1-.7 1.3h4.4v-5.4H2.8l-.1 1.6zm10-2.5c.7 0 1.4.2 1.9.5.6.3 1 .7 1.3 1.3.3.6.5 1.2.5 1.9s-.2 1.3-.5 1.9c-.3.5-.7 1-1.2 1.3s-1.1.5-1.8.5-1.2-.2-1.8-.5-.9-.7-1.2-1.3c-.3-.5-.4-1.2-.4-1.9v-.3h5.9c-.1-.7-.3-1.3-.9-1.8-.5-.5-1.2-.7-1.9-.7-.4 0-.8.1-1.2.2-.4.2-.7.4-1 .7l-.4-.7c.3-.4.7-.7 1.2-.9.4-.1.9-.2 1.5-.2zm.3 6.4c.7 0 1.3-.2 1.7-.6.5-.4.7-1 .8-1.7h-5c.1.7.3 1.3.8 1.7.4.4 1 .6 1.7.6zm9.1-6.4c.7 0 1.3.2 1.8.5s1 .7 1.3 1.3.5 1.2.5 1.9-.2 1.3-.5 1.9-.7 1-1.3 1.3c-.5.3-1.1.4-1.8.4-.6 0-1.1-.1-1.6-.4-.5-.2-.8-.6-1.1-1.1v4h-1v-9.7h.9v1.4c.3-.5.7-.8 1.1-1.1.6-.3 1.1-.4 1.7-.4zm0 6.4c.5 0 .9-.1 1.4-.3.4-.2.7-.6.9-1 .2-.4.4-.9.4-1.4s-.1-1-.4-1.4c-.2-.4-.5-.8-.9-1s-.9-.4-1.4-.4-1 .1-1.4.4c-.4.2-.7.6-.9 1-.2.4-.3.9-.3 1.4s.1 1 .3 1.4c.2.4.5.8.9 1 .4.2.8.3 1.4.3zm5.6-6.4h1v7.1h-1v-7.1zm.5-1.5c-.2 0-.4-.1-.5-.2s-.2-.3-.2-.5.1-.3.2-.5c.1-.1.3-.2.5-.2s.4.1.5.2.2.3.2.5-.1.4-.2.5c-.1.1-.3.2-.5.2zm8.2 2.4h-4.1v6.3h-1v-7.1h5l.1.8zm7.3 3h-5.9c.1.7.3 1.3.9 1.8.5.5 1.2.7 1.9.7.4 0 .8-.1 1.2-.2.4-.2.7-.4 1-.7l.5.6c-.3.4-.7.7-1.2.9-.5.2-1 .3-1.6.3-.7 0-1.4-.2-1.9-.5-.6-.3-1-.7-1.3-1.3-.3-.5-.5-1.2-.5-1.9s.1-1.3.4-1.9c.3-.5.7-1 1.2-1.3s1.1-.5 1.8-.5 1.2.2 1.8.5c.5.3.9.7 1.2 1.3.3.5.4 1.2.4 1.9l.1.3zm-3.4-3.1c-.7 0-1.3.2-1.7.7-.5.4-.7 1-.8 1.7h5c-.1-.7-.3-1.3-.8-1.7-.5-.5-1-.7-1.7-.7zm9.2-.8c.7 0 1.3.2 1.8.5s1 .7 1.3 1.3.5 1.2.5 1.9-.2 1.3-.5 1.9-.7 1-1.3 1.3c-.5.3-1.1.4-1.8.4-.6 0-1.1-.1-1.6-.4-.5-.2-.8-.6-1.1-1.1v4h-1v-9.7h.9v1.4c.3-.5.7-.8 1.1-1.1.6-.3 1.1-.4 1.7-.4zm-.1 6.4c.5 0 .9-.1 1.3-.3.4-.2.7-.6.9-1s.4-.9.4-1.4-.1-1-.4-1.4c-.2-.4-.5-.8-.9-1s-.9-.4-1.3-.4c-.5 0-1 .1-1.4.4-.4.2-.7.6-.9 1s-.3.9-.3 1.4.1 1 .3 1.4.5.8.9 1c.5.2.9.3 1.4.3zM63 20.3v7.1h-.9v-5.6l-2.9 4.8h-.4L56 21.8v5.6h-.9v-7.1h1l3 5.1 3.1-5.1h.8zm9 3.9h-6c.1.7.3 1.3.9 1.8.5.5 1.2.7 1.9.7.4 0 .8-.1 1.2-.2.4-.2.7-.4 1-.7l.5.6c-.3.4-.7.7-1.2.9-.5.2-1 .3-1.6.3-.7 0-1.4-.2-1.9-.5-.6-.3-1-.7-1.3-1.3s-.5-1.2-.5-1.9.1-1.3.4-1.9c.3-.5.7-1 1.2-1.3s1.1-.5 1.8-.5 1.2.2 1.8.5c.5.3.9.7 1.2 1.3.3.5.4 1.2.4 1.9l.2.3zm-3.5-3.1c-.7 0-1.3.2-1.7.7-.5.4-.7 1-.8 1.7h5c-.1-.7-.3-1.3-.8-1.7-.4-.5-1-.7-1.7-.7zm5.6-.8h1v3.1h4.5v-3.1h1v7.1h-1v-3.1h-4.5v3.1h-1v-7.1zm15.2 4h-1.6v3.2h-1v-7.1h1v3.1h1.6l2.5-3.1h1L90 23.8l3 3.7h-1.1l-2.6-3.2zm11.2-.1h-5.9c.1.7.3 1.3.9 1.8.5.5 1.2.7 1.9.7.4 0 .8-.1 1.2-.2.4-.2.7-.4 1-.7l.5.6c-.3.4-.7.7-1.2.9-.5.2-1 .3-1.6.3-.7 0-1.4-.2-1.9-.5-.6-.3-1-.7-1.3-1.3s-.5-1.2-.5-1.9.1-1.3.4-1.9c.3-.5.7-1 1.2-1.3s1.1-.5 1.8-.5 1.2.2 1.8.5c.5.3.9.7 1.2 1.3.3.5.4 1.2.4 1.9l.1.3zm-3.4-3.1c-.7 0-1.3.2-1.7.7-.5.4-.7 1-.8 1.7h5c-.1-.7-.3-1.3-.8-1.7-.4-.5-1-.7-1.7-.7zm5.6-.8h1v3.1h4.5v-3.1h1v7.1h-1v-3.1h-4.5v3.1h-1v-7.1zm7.5 6.3V29h-.9v-1.6h-1.2v-.8h2.1zm8.1-2.4h-5.9c.1.7.3 1.3.9 1.8.5.5 1.2.7 1.9.7.4 0 .8-.1 1.2-.2.4-.2.7-.4 1-.7l.5.6c-.3.4-.7.7-1.2.9-.5.2-1 .3-1.6.3-.7 0-1.4-.2-1.9-.5-.6-.3-1-.7-1.3-1.3s-.5-1.2-.5-1.9.1-1.3.4-1.9c.3-.5.7-1 1.2-1.3s1.1-.5 1.8-.5 1.2.2 1.8.5c.5.3.9.7 1.2 1.3.3.5.4 1.2.4 1.9l.1.3zm-3.5-3.1c-.7 0-1.3.2-1.7.7-.5.4-.7 1-.8 1.7h5c-.1-.7-.3-1.3-.8-1.7-.4-.5-1-.7-1.7-.7zm8.6 6.4c-.7 0-1.3-.2-1.9-.5-.5-.3-1-.7-1.3-1.3-.3-.6-.5-1.2-.5-1.9s.2-1.3.5-1.9.7-1 1.3-1.3c.6-.3 1.2-.5 1.9-.5.6 0 1.2.1 1.6.4.5.2.9.6 1.1 1l-.7.5c-.2-.4-.5-.6-.9-.8-.4-.2-.8-.3-1.2-.3-.5 0-1 .1-1.4.4-.4.2-.7.5-1 1-.2.4-.3.9-.3 1.4s.1 1 .3 1.5c.2.4.6.7 1 1 .4.2.9.3 1.4.3.4 0 .8-.1 1.2-.3s.7-.4.9-.8l.7.5c-.3.5-.7.8-1.1 1.1-.5.4-1 .5-1.6.5zm7.2-3.2H129v3.2h-1v-7.1h1v3.1h1.6l2.5-3.1h1l-2.8 3.4 3 3.7h-1.1l-2.6-3.2zm11.2-.1h-5.9c.1.7.3 1.3.9 1.8.5.5 1.2.7 1.9.7.4 0 .8-.1 1.2-.2.4-.2.7-.4 1-.7l.5.6c-.3.4-.7.7-1.2.9-.5.2-1 .3-1.6.3-.7 0-1.4-.2-1.9-.5-.6-.3-1-.7-1.3-1.3s-.5-1.2-.5-1.9.1-1.3.4-1.9c.3-.5.7-1 1.2-1.3s1.1-.5 1.8-.5 1.2.2 1.8.5c.5.3.9.7 1.2 1.3.3.5.4 1.2.4 1.9l.1.3zm-3.4-3.1c-.7 0-1.3.2-1.7.7-.5.4-.7 1-.8 1.7h5c-.1-.7-.3-1.3-.8-1.7-.5-.5-1-.7-1.7-.7zm5.5-.8h1v3.1h4.5v-3.1h1v7.1h-1v-3.1h-4.5v3.1h-1v-7.1zm18.9 4h-1.5v3.2h-1v-3.2h-1.5l-2.2 3.2h-1.1l2.6-3.7-2.3-3.4h1l2.1 3.1h1.5v-3.1h1v3.1h1.5l2.1-3.1h1l-2.3 3.5 2.6 3.6H165l-2.2-3.2zm7.7-4c.7 0 1.3.2 1.9.5.6.3 1 .7 1.3 1.3.3.5.5 1.2.5 1.9s-.2 1.3-.5 1.9c-.3.5-.8 1-1.3 1.3-.6.3-1.2.5-1.9.5s-1.3-.2-1.9-.5c-.6-.3-1-.7-1.3-1.3s-.5-1.2-.5-1.9.2-1.3.5-1.9.8-1 1.3-1.3c.5-.4 1.2-.5 1.9-.5zm0 .8c-.7 0-1.4.2-1.9.7s-.8 1-.9 1.8h5.5c-.1-.7-.4-1.3-.9-1.8-.4-.5-1.1-.7-1.8-.7zm0 5.6c.7 0 1.4-.2 1.9-.7s.8-1.1.9-1.8h-5.5c.1.7.4 1.3.9 1.8.4.5 1 .7 1.8.7zm5.7-6.4h1v3.1h4.5v-3.1h1v7.1h-1v-3.1h-4.5v3.1h-1v-7.1z"/></svg>