<?xml version="1.0" encoding="utf-8"?>
<!-- Generator: Adobe Illustrator 25.2.3, SVG Export Plug-In . SVG Version: 6.00 Build 0)  -->
<svg version="1.1" id="Layer_1" xmlns="http://www.w3.org/2000/svg" xmlns:xlink="http://www.w3.org/1999/xlink" x="0px" y="0px"
	 viewBox="0 0 514 551" style="enable-background:new 0 0 514 551;" xml:space="preserve">
<style type="text/css">
	.st0{fill:#060315;}
</style>
<path class="st0" d="M24.8,165.1v26.3H20v-11.2H6.5v11.2H1.6v-26.2h4.8V176H20v-10.8L24.8,165.1L24.8,165.1z M50.2,181.4
	c0,0.3,0,0.8-0.1,1.4H34.5c0.3,1.5,1,2.6,2.1,3.5c1.2,0.9,2.6,1.3,4.3,1.3c2.2,0,4-0.7,5.4-2.2l2.5,2.9c-0.9,1.1-2,1.9-3.4,2.4
	c-1.4,0.6-2.9,0.8-4.6,0.8c-2.2,0-4.1-0.4-5.8-1.3s-3-2.1-3.9-3.6c-0.9-1.6-1.3-3.4-1.3-5.3c0-2,0.4-3.7,1.3-5.2
	c0.9-1.6,2.1-2.8,3.7-3.7c1.6-0.9,3.3-1.3,5.3-1.3c1.9,0,3.7,0.4,5.2,1.3s2.7,2.1,3.6,3.6C49.8,177.6,50.2,179.4,50.2,181.4
	L50.2,181.4z M40.2,174.9c-1.5,0-2.8,0.4-3.8,1.3s-1.6,2.1-1.9,3.5h11.3c-0.2-1.5-0.8-2.6-1.8-3.5C42.9,175.3,41.7,174.9,40.2,174.9
	z M70.6,175.3H60v16.1h-4.7v-20h15.3V175.3z M74,171.3h4.7v20H74V171.3z M76.3,168c-0.8,0-1.6-0.3-2.1-0.8c-0.6-0.6-0.9-1.2-0.9-2
	s0.3-1.5,0.9-2c0.6-0.6,1.3-0.8,2.1-0.8s1.6,0.3,2.1,0.8c0.6,0.5,0.9,1.1,0.9,1.9s-0.3,1.5-0.9,2.1C77.9,167.8,77.2,168,76.3,168z
	 M96.5,180.9c1.2,0.4,2.2,0.9,2.9,1.7c0.7,0.8,1,1.7,1,2.8c0,1.2-0.4,2.3-1.2,3.3c-0.8,0.9-1.9,1.6-3.4,2.2
	c-1.4,0.5-3.1,0.8-4.9,0.8c-1.5,0-3-0.2-4.5-0.5c-1.5-0.4-2.8-0.9-4-1.6l1.3-3.5c1,0.5,2.1,1,3.3,1.3c1.2,0.3,2.4,0.4,3.6,0.4
	c1.6,0,2.8-0.2,3.6-0.7c0.9-0.5,1.3-1.2,1.3-2s-0.3-1.4-1-1.8s-1.6-0.6-2.9-0.6h-3.9v-3.1h3.5c1.2,0,2.1-0.2,2.7-0.6
	c0.7-0.4,1-1,1-1.7s-0.4-1.3-1.2-1.7c-0.8-0.4-1.9-0.6-3.3-0.6c-2,0-4.1,0.5-6.3,1.5l-1.2-3.4c2.6-1.2,5.2-1.8,7.9-1.8
	c1.7,0,3.2,0.2,4.5,0.7c1.3,0.4,2.4,1.1,3.1,1.9c0.8,0.8,1.2,1.8,1.2,2.9c0,1-0.3,1.9-0.9,2.6C98.4,179.9,97.6,180.5,96.5,180.9
	L96.5,180.9z M120.5,175.3h-10.6v16.1h-4.7v-20h15.3C120.5,171.4,120.5,175.3,120.5,175.3z M123.9,171.3h4.7v20h-4.7
	C123.9,191.3,123.9,171.3,123.9,171.3z M126.3,168c-0.8,0-1.6-0.3-2.1-0.8c-0.6-0.6-0.9-1.2-0.9-2s0.3-1.5,0.9-2
	c0.6-0.6,1.3-0.8,2.1-0.8s1.6,0.3,2.1,0.8c0.6,0.5,0.9,1.1,0.9,1.9s-0.3,1.5-0.9,2.1C127.9,167.8,127.1,168,126.3,168z M153.4,183.3
	h-3.6v8h-4.7v-20h4.7v8.1h3.7l5.9-8.1h5l-7.2,9.6l7.7,10.4h-5.5L153.4,183.3L153.4,183.3z M166.1,187.4v8.1h-4.2v-4.1h-2.5v-4H166.1
	z M176.4,191.6c-2,0-3.8-0.4-5.4-1.3c-1.6-0.9-2.9-2.1-3.8-3.6c-0.9-1.6-1.3-3.4-1.3-5.3c0-2,0.4-3.7,1.3-5.3
	c0.9-1.5,2.2-2.8,3.8-3.6c1.6-0.9,3.4-1.3,5.4-1.3s3.9,0.4,5.5,1.3s2.9,2.1,3.8,3.6c0.9,1.6,1.4,3.3,1.4,5.3s-0.5,3.8-1.4,5.3
	c-0.9,1.6-2.1,2.8-3.8,3.6S178.4,191.6,176.4,191.6z M176.4,187.6c1.7,0,3.1-0.6,4.2-1.7s1.7-2.7,1.7-4.5s-0.6-3.4-1.7-4.5
	s-2.5-1.7-4.2-1.7s-3.1,0.6-4.2,1.7s-1.6,2.7-1.6,4.5s0.5,3.4,1.6,4.5S174.7,187.6,176.4,187.6z M209.4,171.3v20h-4.7v-16.1h-7.4
	l-0.2,4c-0.1,2.6-0.4,4.9-0.7,6.7c-0.3,1.8-1,3.2-1.8,4.2s-2,1.5-3.5,1.5c-0.7,0-1.6-0.1-2.6-0.4l0.2-3.9c0.3,0.1,0.6,0.1,0.9,0.1
	c0.9,0,1.7-0.4,2.1-1.1c0.5-0.8,0.8-1.7,0.9-2.7c0.1-1.1,0.3-2.6,0.4-4.6l0.3-7.7H209.4z M236.9,187.4v8.4h-4.4v-4.4h-15.3v4.5h-4.3
	v-8.5h0.9c1.3-0.1,2.1-0.9,2.6-2.4c0.5-1.6,0.8-3.8,0.9-6.8l0.3-6.9H234v16.1H236.9z M221.6,178.5c-0.1,2.3-0.3,4.2-0.6,5.6
	c-0.3,1.5-0.8,2.5-1.5,3.2h9.8v-12.1h-7.6L221.6,178.5L221.6,178.5z M248.5,171.1c2.9,0,5.2,0.7,6.7,2.1c1.6,1.4,2.3,3.5,2.3,6.4
	v11.8h-4.4V189c-0.6,0.9-1.4,1.6-2.5,2c-1,0.5-2.3,0.7-3.8,0.7s-2.8-0.2-3.9-0.8c-1.1-0.5-2-1.2-2.6-2.1s-0.9-2-0.9-3.1
	c0-1.8,0.7-3.2,2-4.3c1.3-1.1,3.4-1.6,6.3-1.6h5.1v-0.4c0-1.4-0.4-2.5-1.3-3.2c-0.8-0.8-2-1.1-3.7-1.1c-1.1,0-2.2,0.2-3.3,0.5
	c-1.1,0.4-2,0.8-2.7,1.5l-1.8-3.4c1-0.8,2.3-1.4,3.8-1.8C245.3,171.3,246.8,171.1,248.5,171.1L248.5,171.1z M247.8,188.2
	c1.2,0,2.2-0.3,3.1-0.8c0.9-0.5,1.6-1.3,1.9-2.3v-2.3H248c-2.7,0-4,0.9-4,2.7c0,0.9,0.3,1.5,1,2
	C245.7,187.9,246.7,188.2,247.8,188.2L247.8,188.2z M263.3,171.3h4.7v8.1h10v-8.1h4.7v20H278v-7.9h-10v7.9h-4.7V171.3z M307.6,171.3
	l-9.3,21.6c-0.9,2.2-1.9,3.7-3.2,4.6c-1.2,0.9-2.7,1.4-4.5,1.4c-1,0-2-0.2-2.9-0.5c-1-0.3-1.8-0.8-2.4-1.4l1.9-3.4
	c0.4,0.4,1,0.8,1.6,1s1.2,0.4,1.9,0.4c0.8,0,1.5-0.2,2-0.6s1-1.1,1.5-2.1l0.3-0.8l-8.7-20.1h4.8l6.3,14.8l6.3-14.8h4.4L307.6,171.3z
	 M316.3,175.3v6h8v3.1h-8v7h-4.7v-7h-2.5v-3.1h2.5v-10h15.3v4H316.3L316.3,175.3z M338.1,171.1c2.9,0,5.2,0.7,6.7,2.1
	c1.6,1.4,2.3,3.5,2.3,6.4v11.8h-4.4V189c-0.6,0.9-1.4,1.6-2.5,2c-1,0.5-2.3,0.7-3.8,0.7s-2.8-0.2-3.9-0.8c-1.1-0.5-2-1.2-2.6-2.1
	s-0.9-2-0.9-3.1c0-1.8,0.7-3.2,2-4.3c1.3-1.1,3.4-1.6,6.3-1.6h5.1v-0.4c0-1.4-0.4-2.5-1.3-3.2c-0.8-0.8-2-1.1-3.7-1.1
	c-1.1,0-2.2,0.2-3.3,0.5c-1.1,0.4-2,0.8-2.7,1.5l-1.8-3.4c1-0.8,2.3-1.4,3.8-1.8C334.9,171.3,336.5,171.1,338.1,171.1L338.1,171.1z
	 M337.5,188.2c1.2,0,2.2-0.3,3.1-0.8s1.6-1.3,1.9-2.3v-2.3h-4.8c-2.7,0-4,0.9-4,2.7c0,0.9,0.3,1.5,1,2
	C335.3,187.9,336.3,188.2,337.5,188.2L337.5,188.2z M11.9,211.1c1.9,0,3.6,0.4,5,1.2c1.4,0.8,2.6,1.9,3.4,3.4s1.2,3.1,1.2,5
	s-0.4,3.6-1.3,5.1s-2.1,2.6-3.8,3.5c-1.6,0.8-3.5,1.2-5.5,1.2c-3.5,0-6.1-1.1-8-3.5c-2-2.2-2.9-5.6-2.9-9.9c0-4,0.9-7.2,2.6-9.6
	s4.3-3.9,7.9-4.6l9.2-2l0.7,4.2l-8.4,1.7c-2.4,0.5-4.2,1.4-5.4,2.6s-1.9,2.9-2.1,5.1c0.9-1.1,2-1.9,3.2-2.5
	C9,211.4,10.4,211.1,11.9,211.1L11.9,211.1z M10.9,226.7c1.7,0,3.1-0.5,4.1-1.6c1.1-1.1,1.6-2.5,1.6-4.3s-0.5-3.1-1.6-4.2
	c-1-1.1-2.4-1.6-4.1-1.6s-3.1,0.5-4.2,1.6c-1.1,1-1.6,2.4-1.6,4.2c0,1.8,0.5,3.2,1.6,4.3C7.8,226.2,9.2,226.7,10.9,226.7z
	 M34.8,230.4c-2,0-3.8-0.4-5.4-1.3s-2.9-2.1-3.8-3.6c-0.9-1.6-1.3-3.4-1.3-5.3c0-2,0.4-3.7,1.3-5.3c0.9-1.5,2.2-2.8,3.8-3.6
	c1.6-0.9,3.4-1.3,5.4-1.3s3.9,0.4,5.5,1.3s2.9,2.1,3.8,3.6c0.9,1.6,1.4,3.3,1.4,5.3s-0.5,3.8-1.4,5.3c-0.9,1.6-2.1,2.8-3.8,3.6
	C38.7,229.9,36.9,230.4,34.8,230.4z M34.8,226.4c1.7,0,3.1-0.6,4.2-1.7s1.7-2.7,1.7-4.5s-0.6-3.4-1.7-4.5s-2.5-1.7-4.2-1.7
	s-3.1,0.6-4.2,1.7c-1.1,1.2-1.6,2.7-1.6,4.5s0.5,3.4,1.6,4.5S33.1,226.4,34.8,226.4z M67.8,210.1v20h-4.7V214h-7.4l-0.2,4
	c-0.1,2.6-0.4,4.9-0.7,6.7c-0.3,1.8-1,3.2-1.8,4.2s-2,1.5-3.5,1.5c-0.7,0-1.6-0.1-2.6-0.4l0.2-3.9c0.3,0.1,0.6,0.1,0.9,0.1
	c0.9,0,1.7-0.4,2.1-1.1c0.5-0.8,0.8-1.7,0.9-2.7c0.1-1.1,0.3-2.6,0.4-4.6l0.3-7.7H67.8z M93.7,230.1v-13.3L87,228h-2l-6.6-11.2v13.3
	h-4.2v-20H79l7.1,12.5l7.4-12.5h4.4v20L93.7,230.1L93.7,230.1z M111.5,209.9c2.9,0,5.2,0.7,6.7,2.1c1.6,1.4,2.3,3.5,2.3,6.4v11.7
	h-4.4v-2.4c-0.6,0.9-1.4,1.6-2.5,2c-1,0.5-2.3,0.7-3.8,0.7s-2.8-0.2-3.9-0.8c-1.1-0.5-2-1.2-2.6-2.1s-0.9-2-0.9-3.1
	c0-1.8,0.7-3.2,2-4.3c1.3-1.1,3.4-1.6,6.3-1.6h5.1v-0.3c0-1.4-0.4-2.5-1.3-3.2c-0.8-0.8-2-1.1-3.7-1.1c-1.1,0-2.2,0.2-3.3,0.5
	c-1.1,0.4-2,0.8-2.7,1.5l-1.8-3.4c1-0.8,2.3-1.4,3.8-1.8C108.3,210.1,109.9,209.9,111.5,209.9L111.5,209.9z M110.9,227
	c1.2,0,2.2-0.3,3.1-0.8s1.6-1.3,1.9-2.3v-2.3h-4.8c-2.7,0-4,0.9-4,2.7c0,0.9,0.3,1.5,1,2S109.7,227,110.9,227L110.9,227z
	 M126.3,210.1h4.7v13.2l11-13.2h4.2v20h-4.7v-13.2l-10.9,13.2h-4.3V210.1z M136,207.7c-2,0-3.6-0.5-4.6-1.4c-1-1-1.6-2.3-1.6-4.1
	h3.1c0,0.9,0.3,1.6,0.8,2.1s1.3,0.8,2.3,0.8c0.9,0,1.7-0.3,2.2-0.8c0.6-0.5,0.9-1.2,0.9-2.1h3.2c0,1.8-0.6,3.2-1.6,4.1
	C139.5,207.3,138,207.7,136,207.7L136,207.7z M168.2,214.1h-7v16.1h-4.7v-16.1h-7v-4h18.6L168.2,214.1L168.2,214.1z M181.3,216.7
	c2.5,0,4.5,0.6,5.8,1.7s2,2.8,2,4.9c0,2.2-0.7,3.9-2.2,5.1s-3.6,1.8-6.3,1.8h-9v-20h4.7v6.6L181.3,216.7z M191.7,210.1h4.7v20h-4.7
	V210.1z M180.2,226.7c1.4,0,2.4-0.3,3.1-0.9c0.7-0.6,1.1-1.5,1.1-2.6s-0.3-2-1-2.5s-1.8-0.8-3.2-0.8h-3.9v6.8H180.2L180.2,226.7z
	 M202.6,210.1h4.7v8.1h10v-8.1h4.7v20h-4.7v-7.9h-10v7.9h-4.7V210.1z M257.3,222.1H254v8h-4.6v-8H246l-4.8,8h-5.5l6.5-10.4l-6-9.7h5
	l4.8,8.1h3.4V210h4.6v8.1h3.4l4.9-8.1h5l-6,9.7l6.6,10.4h-5.5L257.3,222.1z M278.2,209.9c2.9,0,5.2,0.7,6.7,2.1
	c1.6,1.4,2.3,3.5,2.3,6.4v11.7h-4.4v-2.4c-0.6,0.9-1.4,1.6-2.5,2c-1,0.5-2.3,0.7-3.8,0.7s-2.8-0.2-3.9-0.8c-1.1-0.5-2-1.2-2.6-2.1
	s-0.9-2-0.9-3.1c0-1.8,0.7-3.2,2-4.3c1.3-1.1,3.4-1.6,6.3-1.6h5.1v-0.3c0-1.4-0.4-2.5-1.3-3.2c-0.8-0.8-2-1.1-3.7-1.1
	c-1.1,0-2.2,0.2-3.3,0.5c-1.1,0.4-2,0.8-2.7,1.5l-1.8-3.4c1-0.8,2.3-1.4,3.8-1.8C275,210.1,276.6,209.9,278.2,209.9L278.2,209.9z
	 M277.6,227c1.2,0,2.2-0.3,3.1-0.8s1.6-1.3,1.9-2.3v-2.3h-4.8c-2.7,0-4,0.9-4,2.7c0,0.9,0.3,1.5,1,2
	C275.5,226.7,276.4,227,277.6,227L277.6,227z M298.4,214.1v6h8v3.1h-8v7h-4.7v-7h-2.5v-3.1h2.5v-10H309v4H298.4z M332.7,226.2v8.4
	h-4.4v-4.5H313v4.5h-4.3v-8.4h0.9c1.3,0,2.1-0.9,2.6-2.4c0.5-1.6,0.8-3.8,0.9-6.8l0.3-6.9h16.4v16L332.7,226.2L332.7,226.2z
	 M317.4,217.3c-0.1,2.3-0.3,4.2-0.6,5.6c-0.3,1.5-0.8,2.5-1.5,3.2h9.8V214h-7.6L317.4,217.3L317.4,217.3z M344.3,209.9
	c2.9,0,5.2,0.7,6.7,2.1c1.6,1.4,2.3,3.5,2.3,6.4v11.7H349v-2.4c-0.6,0.9-1.4,1.6-2.5,2c-1,0.5-2.3,0.7-3.8,0.7s-2.8-0.2-3.9-0.8
	c-1.1-0.5-2-1.2-2.6-2.1s-0.9-2-0.9-3.1c0-1.8,0.7-3.2,2-4.3c1.3-1.1,3.4-1.6,6.3-1.6h5.1v-0.3c0-1.4-0.4-2.5-1.3-3.2
	c-0.8-0.8-2-1.1-3.7-1.1c-1.1,0-2.2,0.2-3.3,0.5c-1.1,0.4-2,0.8-2.7,1.5l-1.8-3.4c1-0.8,2.3-1.4,3.8-1.8
	C341.1,210.1,342.7,209.9,344.3,209.9L344.3,209.9z M343.7,227c1.2,0,2.2-0.3,3.1-0.8s1.6-1.3,1.9-2.3v-2.3h-4.8c-2.7,0-4,0.9-4,2.7
	c0,0.9,0.3,1.5,1,2C341.6,226.7,342.5,227,343.7,227L343.7,227z M359.1,210.1h4.7v13.2l11-13.2h4.2v20h-4.7v-13.2l-10.9,13.2h-4.3
	L359.1,210.1L359.1,210.1z M368.8,207.7c-2,0-3.6-0.5-4.6-1.4c-1-1-1.6-2.3-1.6-4.1h3.1c0,0.9,0.3,1.6,0.8,2.1s1.3,0.8,2.3,0.8
	c0.9,0,1.7-0.3,2.2-0.8c0.6-0.5,0.9-1.2,0.9-2.1h3.2c0,1.8-0.6,3.2-1.6,4.1C372.3,207.3,370.8,207.7,368.8,207.7L368.8,207.7z
	 M403.3,210.1v20h-4.7V214h-7.4l-0.2,4c-0.1,2.6-0.4,4.9-0.7,6.7c-0.3,1.8-1,3.2-1.8,4.2s-2,1.5-3.5,1.5c-0.7,0-1.6-0.1-2.6-0.4
	l0.2-3.9c0.3,0.1,0.6,0.1,0.9,0.1c0.9,0,1.7-0.4,2.1-1.1c0.5-0.8,0.8-1.7,0.9-2.7c0.1-1.1,0.3-2.6,0.4-4.6l0.3-7.7H403.3
	L403.3,210.1z M417,209.9c2.9,0,5.2,0.7,6.7,2.1c1.6,1.4,2.3,3.5,2.3,6.4v11.7h-4.4v-2.4c-0.6,0.9-1.4,1.6-2.5,2
	c-1,0.5-2.3,0.7-3.8,0.7s-2.8-0.2-3.9-0.8c-1.1-0.5-2-1.2-2.6-2.1s-0.9-2-0.9-3.1c0-1.8,0.7-3.2,2-4.3c1.3-1.1,3.4-1.6,6.3-1.6h5.1
	v-0.3c0-1.4-0.4-2.5-1.3-3.2c-0.8-0.8-2-1.1-3.7-1.1c-1.1,0-2.2,0.2-3.3,0.5c-1.1,0.4-2,0.8-2.7,1.5l-1.8-3.4c1-0.8,2.3-1.4,3.8-1.8
	C413.8,210.1,415.3,209.9,417,209.9L417,209.9z M416.3,227c1.2,0,2.2-0.3,3.1-0.8s1.6-1.3,1.9-2.3v-2.3h-4.8c-2.7,0-4,0.9-4,2.7
	c0,0.9,0.3,1.5,1,2C414.2,226.7,415.1,227,416.3,227L416.3,227z M442.8,209.9c1.9,0,3.7,0.4,5.2,1.3s2.7,2,3.6,3.6
	c0.9,1.5,1.3,3.3,1.3,5.4c0,2-0.4,3.8-1.3,5.4c-0.9,1.5-2.1,2.8-3.6,3.6c-1.5,0.8-3.2,1.3-5.2,1.3c-2.7,0-4.8-0.9-6.4-2.7v9.7h-4.7
	v-27.3h4.4v2.6c0.8-1,1.7-1.7,2.8-2.1C440.2,210.1,441.4,209.9,442.8,209.9L442.8,209.9z M442.3,226.4c1.7,0,3.1-0.6,4.2-1.7
	s1.7-2.7,1.7-4.5s-0.6-3.4-1.7-4.5s-2.5-1.7-4.2-1.7c-1.1,0-2.1,0.3-3,0.8s-1.6,1.2-2.1,2.2s-0.8,2.1-0.8,3.3s0.3,2.3,0.8,3.3
	s1.2,1.7,2.1,2.2C440.2,226.1,441.2,226.4,442.3,226.4L442.3,226.4z M458.9,216.1c-0.8,0-1.6-0.3-2.2-0.9s-0.9-1.4-0.9-2.2
	c0-0.9,0.3-1.7,0.9-2.2c0.6-0.6,1.3-0.9,2.2-0.9c0.9,0,1.6,0.3,2.2,0.9s0.9,1.3,0.9,2.2c0,0.9-0.3,1.6-0.9,2.2
	S459.8,216.1,458.9,216.1z M458.9,230.4c-0.8,0-1.6-0.3-2.2-0.9s-0.9-1.4-0.9-2.2c0-0.9,0.3-1.7,0.9-2.2c0.6-0.6,1.3-0.9,2.2-0.9
	c0.9,0,1.6,0.3,2.2,0.9s0.9,1.3,0.9,2.2c0,0.9-0.3,1.6-0.9,2.2S459.8,230.4,458.9,230.4z M9.8,282.7h-4v7.9H3.3v-17.7h2.4v7.8h4.1
	l6.2-7.8h2.6l-7,8.6l7.5,9.1h-2.8C16.3,290.6,9.8,282.7,9.8,282.7z M20.8,288.5v6h-2.2v-3.9h-2.3v-2.1H20.8z M29.1,290.6v6.4h-2.4
	v-6.4l-7.9-17.8h2.5l6.6,15.1l6.7-15.1H37L29.1,290.6z M21,289.5h13.9v1.8H21V289.5z M49.9,272.7c1.7,0,3.2,0.4,4.5,1.1
	s2.4,1.8,3.2,3.2c0.8,1.4,1.1,2.9,1.1,4.7c0,1.8-0.4,3.4-1.1,4.7c-0.8,1.4-1.8,2.4-3.2,3.2c-1.3,0.7-2.8,1.1-4.5,1.1
	c-1.4,0-2.7-0.3-3.9-0.9c-1.1-0.6-2.1-1.5-2.8-2.6v9.9h-2.4v-24.3H43v3.5c0.7-1.2,1.7-2.1,2.8-2.7C47.1,273,48.4,272.7,49.9,272.7
	L49.9,272.7z M49.7,288.6c1.2,0,2.4-0.3,3.4-0.8c1-0.6,1.8-1.4,2.4-2.5c0.6-1.1,0.9-2.3,0.9-3.6c0-1.4-0.3-2.5-0.9-3.6
	c-0.6-1.1-1.3-1.9-2.4-2.5c-1-0.6-2.1-0.9-3.4-0.9c-1.3,0-2.4,0.3-3.4,0.9s-1.8,1.4-2.4,2.5c-0.6,1-0.8,2.2-0.8,3.6
	c0,1.3,0.3,2.6,0.8,3.6c0.6,1.1,1.4,1.9,2.4,2.5C47.3,288.3,48.5,288.6,49.7,288.6z M69.9,272.7c2.3,0,4.1,0.6,5.3,1.8
	c1.2,1.1,1.9,2.9,1.9,5.1v11h-2.3v-2.8c-0.5,0.9-1.3,1.6-2.4,2.2c-1,0.5-2.3,0.8-3.7,0.8c-2,0-3.6-0.5-4.7-1.4
	c-1.2-0.9-1.8-2.2-1.8-3.7s0.5-2.7,1.6-3.6c1.1-0.9,2.8-1.4,5.2-1.4h5.6v-1.3c0-1.5-0.4-2.7-1.3-3.5s-2.1-1.2-3.7-1.2
	c-1.1,0-2.2,0.2-3.2,0.6s-1.9,0.9-2.7,1.5l-1.1-1.8c0.9-0.8,2-1.3,3.2-1.8C67.1,272.9,68.5,272.7,69.9,272.7L69.9,272.7z M69,288.8
	c1.3,0,2.5-0.3,3.5-0.9s1.7-1.5,2.2-2.7v-2.9h-5.6c-3,0-4.6,1.1-4.6,3.2c0,1,0.4,1.9,1.2,2.5C66.5,288.5,67.6,288.8,69,288.8z
	 M103.3,272.8v17.7h-2.2v-14l-7.2,11.9h-1.1l-7.2-11.9v14.1h-2.2v-17.7h2.4l7.5,12.8l7.7-12.8h2.3L103.3,272.8z M127.4,288.5v6.4
	h-2.3v-4.3h-15.9v4.3H107v-6.4h1c1.2-0.1,2-0.9,2.4-2.6s0.7-4,0.9-7.1l0.2-5.9h13.1v15.7h2.8V288.5z M113.5,278.9
	c-0.1,2.5-0.3,4.6-0.6,6.2c-0.3,1.6-0.9,2.7-1.7,3.3h11.1v-13.5h-8.5L113.5,278.9z M138.1,272.7c2.3,0,4.1,0.6,5.3,1.8
	c1.2,1.1,1.9,2.9,1.9,5.1v11H143v-2.8c-0.5,0.9-1.3,1.6-2.4,2.2c-1,0.5-2.3,0.8-3.7,0.8c-2,0-3.6-0.5-4.7-1.4
	c-1.2-0.9-1.8-2.2-1.8-3.7s0.5-2.7,1.6-3.6s2.8-1.4,5.2-1.4h5.6v-1.3c0-1.5-0.4-2.7-1.3-3.5c-0.9-0.8-2.1-1.2-3.7-1.2
	c-1.1,0-2.2,0.2-3.2,0.6s-1.9,0.9-2.7,1.5l-1.1-1.8c0.9-0.8,2-1.3,3.2-1.8C135.4,272.9,136.7,272.7,138.1,272.7L138.1,272.7z
	 M137.3,288.8c1.3,0,2.5-0.3,3.5-0.9s1.7-1.5,2.2-2.7v-2.9h-5.6c-3,0-4.6,1.1-4.6,3.2c0,1,0.4,1.9,1.2,2.5
	C134.8,288.5,135.9,288.8,137.3,288.8L137.3,288.8z M159.1,290.7c-1.8,0-3.3-0.4-4.7-1.1c-1.4-0.8-2.4-1.8-3.2-3.2
	c-0.8-1.4-1.2-3-1.2-4.7s0.4-3.3,1.2-4.7c0.8-1.4,1.9-2.4,3.2-3.2c1.4-0.8,3-1.1,4.7-1.1c1.5,0,2.9,0.3,4.1,0.9
	c1.2,0.6,2.2,1.5,2.9,2.6l-1.8,1.2c-0.6-0.9-1.3-1.5-2.2-2c-0.9-0.4-1.9-0.7-2.9-0.7c-1.3,0-2.4,0.3-3.5,0.9c-1,0.6-1.8,1.4-2.4,2.4
	c-0.6,1.1-0.8,2.3-0.8,3.6c0,1.4,0.3,2.6,0.8,3.6c0.6,1,1.4,1.8,2.4,2.4s2.2,0.8,3.5,0.8c1.1,0,2-0.2,2.9-0.6s1.6-1.1,2.2-2l1.8,1.2
	c-0.7,1.1-1.7,2-2.9,2.6C162,290.4,160.6,290.7,159.1,290.7L159.1,290.7z M188.1,273.2c1.6,0,3.1,0.4,4.4,1.1c1.3,0.7,2.3,1.7,3,3.1
	c0.7,1.3,1.1,2.8,1.1,4.5s-0.4,3.3-1.1,4.6c-0.7,1.3-1.8,2.4-3.1,3.1s-2.9,1.1-4.7,1.1c-2.9,0-5.2-1-6.8-3.1s-2.4-4.9-2.4-8.6
	c0-3.8,0.7-6.7,2.2-8.7s3.7-3.4,6.8-4.1l8-1.8l0.4,2.2l-7.5,1.7c-2.5,0.6-4.4,1.6-5.6,3c-1.2,1.4-1.8,3.5-2,6.3
	c0.7-1.4,1.7-2.4,3-3.2C185,273.6,186.4,273.2,188.1,273.2L188.1,273.2z M187.7,288.8c1.2,0,2.3-0.3,3.3-0.8c1-0.6,1.8-1.4,2.3-2.4
	c0.6-1,0.8-2.2,0.8-3.5s-0.3-2.5-0.8-3.4c-0.5-1-1.3-1.8-2.3-2.3c-1-0.6-2.1-0.8-3.3-0.8c-1.3,0-2.4,0.3-3.4,0.8s-1.7,1.3-2.3,2.3
	c-0.5,1-0.8,2.1-0.8,3.4s0.3,2.5,0.8,3.5c0.6,1,1.3,1.8,2.3,2.4C185.4,288.5,186.5,288.8,187.7,288.8z M209.2,272.7
	c1.8,0,3.3,0.4,4.7,1.1c1.4,0.8,2.5,1.8,3.3,3.2c0.8,1.4,1.2,2.9,1.2,4.7s-0.4,3.3-1.2,4.7c-0.8,1.4-1.9,2.5-3.3,3.2
	c-1.4,0.8-3,1.1-4.7,1.1c-1.8,0-3.3-0.4-4.8-1.1c-1.4-0.8-2.5-1.9-3.3-3.2s-1.2-2.9-1.2-4.7s0.4-3.3,1.2-4.7
	c0.8-1.4,1.9-2.4,3.3-3.2C205.9,273,207.5,272.7,209.2,272.7z M209.2,274.6c-1.9,0-3.4,0.6-4.7,1.7s-2,2.6-2.2,4.5h13.8
	c-0.2-1.9-0.9-3.4-2.2-4.5C212.7,275.2,211.1,274.6,209.2,274.6L209.2,274.6z M209.2,288.8c1.9,0,3.4-0.6,4.7-1.7s2-2.7,2.2-4.5
	h-13.8c0.2,1.9,0.9,3.4,2.2,4.5S207.4,288.8,209.2,288.8L209.2,288.8z M237.9,272.8v17.7h-2.4v-15.6H227l-0.2,4.4
	c-0.2,3.7-0.6,6.5-1.3,8.5s-1.9,3-3.6,3c-0.5,0-1-0.1-1.7-0.3l0.2-2.1c0.4,0.1,0.7,0.1,0.8,0.1c0.9,0,1.6-0.4,2.1-1.3
	s0.8-1.9,0.9-3.2c0.2-1.3,0.3-2.9,0.4-5l0.3-6.3L237.9,272.8L237.9,272.8z M244.7,272.8h2.4v17.7h-2.4V272.8z M246,268.9
	c-0.5,0-0.9-0.2-1.2-0.5s-0.5-0.7-0.5-1.2c0-0.4,0.2-0.8,0.5-1.2c0.3-0.3,0.8-0.5,1.2-0.5c0.5,0,0.9,0.2,1.2,0.5s0.5,0.7,0.5,1.1
	c0,0.5-0.2,0.9-0.5,1.2C246.9,268.8,246.5,268.9,246,268.9z M260.4,282.7h-4v7.9H254v-17.7h2.4v7.8h4.1l6.2-7.8h2.6l-7,8.6l7.5,9.1
	H267L260.4,282.7z M285.7,274.9H279v15.6h-2.4v-15.6h-6.7v-2.1h15.8L285.7,274.9L285.7,274.9z M303.8,282.4H289
	c0.1,1.8,0.8,3.3,2.1,4.5c1.3,1.1,2.9,1.7,4.9,1.7c1.1,0,2.1-0.2,3-0.6s1.7-1,2.4-1.8l1.3,1.6c-0.8,0.9-1.8,1.7-3,2.2
	s-2.5,0.7-3.9,0.7c-1.8,0-3.4-0.4-4.9-1.1c-1.4-0.8-2.5-1.9-3.3-3.2c-0.8-1.4-1.2-2.9-1.2-4.7s0.4-3.3,1.1-4.7
	c0.8-1.4,1.8-2.4,3.1-3.2c1.3-0.8,2.8-1.1,4.5-1.1c1.6,0,3.1,0.4,4.4,1.1c1.3,0.8,2.3,1.8,3.1,3.2c0.7,1.3,1.1,2.9,1.1,4.7
	L303.8,282.4L303.8,282.4z M295.3,274.7c-1.7,0-3.1,0.6-4.3,1.7c-1.1,1.1-1.8,2.5-2,4.3h12.6c-0.2-1.8-0.8-3.2-2-4.3
	C298.4,275.3,297,274.7,295.3,274.7L295.3,274.7z M318.3,272.7c1.7,0,3.2,0.4,4.5,1.1s2.4,1.8,3.2,3.2c0.8,1.4,1.1,2.9,1.1,4.7
	c0,1.8-0.4,3.4-1.1,4.7c-0.8,1.4-1.8,2.4-3.2,3.2c-1.3,0.7-2.8,1.1-4.5,1.1c-1.4,0-2.7-0.3-3.9-0.9c-1.1-0.6-2.1-1.5-2.8-2.6v9.9
	h-2.4v-24.3h2.3v3.5c0.7-1.2,1.7-2.1,2.8-2.7C315.5,273,316.8,272.7,318.3,272.7L318.3,272.7z M318.1,288.6c1.2,0,2.4-0.3,3.4-0.8
	c1-0.6,1.8-1.4,2.4-2.5s0.9-2.3,0.9-3.6c0-1.4-0.3-2.5-0.9-3.6s-1.3-1.9-2.4-2.5c-1-0.6-2.1-0.9-3.4-0.9s-2.4,0.3-3.4,0.9
	s-1.8,1.4-2.4,2.5c-0.6,1-0.8,2.2-0.8,3.6c0,1.3,0.3,2.6,0.8,3.6c0.6,1.1,1.4,1.9,2.4,2.5C315.7,288.3,316.9,288.6,318.1,288.6z
	 M332.3,272.8h2.4v17.7h-2.4V272.8z M333.5,268.9c-0.5,0-0.9-0.2-1.2-0.5c-0.3-0.3-0.5-0.7-0.5-1.2c0-0.4,0.2-0.8,0.5-1.2
	c0.3-0.3,0.8-0.5,1.2-0.5c0.5,0,0.9,0.2,1.2,0.5c0.3,0.3,0.5,0.7,0.5,1.1c0,0.5-0.2,0.9-0.5,1.2C334.4,268.8,334,268.9,333.5,268.9z
	 M341.5,272.8h2.4v7.9h11.2v-7.9h2.4v17.7h-2.4v-7.8h-11.2v7.8h-2.4V272.8z M364.3,272.8h2.4v17.7h-2.4V272.8z M365.5,268.9
	c-0.5,0-0.9-0.2-1.2-0.5c-0.3-0.3-0.5-0.7-0.5-1.2c0-0.4,0.2-0.8,0.5-1.2c0.3-0.3,0.8-0.5,1.2-0.5c0.5,0,0.9,0.2,1.2,0.5
	c0.3,0.3,0.5,0.7,0.5,1.1c0,0.5-0.2,0.9-0.5,1.2C366.4,268.8,366,268.9,365.5,268.9z M373.5,272.8h2.4v7.9H387v-7.9h2.4v17.7H387
	v-7.8h-11.2v7.8h-2.4v-17.7H373.5z M392.3,288.5v6H390v-3.9h-3v-2.1H392.3z M421.3,282.7h-3.8v7.9H415v-7.9h-3.8l-5.4,7.9h-2.9
	l6.4-9.1l-5.9-8.6h2.6l5.2,7.8h3.8v-7.8h2.4v7.8h3.8l5.2-7.8h2.6l-5.9,8.6l6.4,9.1h-2.9L421.3,282.7L421.3,282.7z M448.5,282.4
	h-14.8c0.1,1.8,0.8,3.3,2.1,4.5c1.3,1.1,2.9,1.7,4.9,1.7c1.1,0,2.1-0.2,3-0.6s1.7-1,2.4-1.8l1.3,1.6c-0.8,0.9-1.8,1.7-3,2.2
	s-2.5,0.7-3.9,0.7c-1.8,0-3.4-0.4-4.9-1.1c-1.4-0.8-2.5-1.9-3.3-3.2c-0.8-1.4-1.2-2.9-1.2-4.7s0.4-3.3,1.1-4.7
	c0.8-1.4,1.8-2.4,3.1-3.2c1.3-0.8,2.8-1.1,4.5-1.1s3.1,0.4,4.4,1.1c1.3,0.8,2.3,1.8,3.1,3.2c0.7,1.3,1.1,2.9,1.1,4.7L448.5,282.4
	L448.5,282.4z M439.9,274.7c-1.7,0-3.1,0.6-4.3,1.7c-1.1,1.1-1.8,2.5-2,4.3h12.6c-0.2-1.8-0.8-3.2-2-4.3
	C443.1,275.3,441.6,274.7,439.9,274.7L439.9,274.7z M460.2,282.7h-4v7.9h-2.4v-17.7h2.4v7.8h4.1l6.2-7.8h2.6l-7,8.6l7.5,9.1h-2.8
	L460.2,282.7L460.2,282.7z M488.3,282.4h-14.8c0.1,1.8,0.8,3.3,2.1,4.5c1.3,1.1,2.9,1.7,4.9,1.7c1.1,0,2.1-0.2,3-0.6s1.7-1,2.4-1.8
	l1.3,1.6c-0.8,0.9-1.8,1.7-3,2.2s-2.5,0.7-3.9,0.7c-1.8,0-3.4-0.4-4.9-1.1c-1.4-0.8-2.5-1.9-3.3-3.2c-0.8-1.4-1.2-2.9-1.2-4.7
	s0.4-3.3,1.1-4.7c0.8-1.4,1.8-2.4,3.1-3.2c1.3-0.8,2.8-1.1,4.5-1.1c1.6,0,3.1,0.4,4.4,1.1c1.3,0.8,2.3,1.8,3.1,3.2
	c0.7,1.3,1.1,2.9,1.1,4.7L488.3,282.4L488.3,282.4z M479.7,274.7c-1.7,0-3.1,0.6-4.3,1.7c-1.1,1.1-1.8,2.5-2,4.3H486
	c-0.2-1.8-0.8-3.2-2-4.3C482.9,275.3,481.4,274.7,479.7,274.7L479.7,274.7z M9.4,316c2.3,0,4.1,0.6,5.3,1.8c1.2,1.1,1.9,2.9,1.9,5.1
	v11h-2.3v-2.8c-0.5,0.9-1.3,1.6-2.4,2.2c-1,0.5-2.3,0.8-3.7,0.8c-2,0-3.6-0.5-4.7-1.4c-1.2-0.9-1.8-2.2-1.8-3.7s0.5-2.7,1.6-3.6
	s2.8-1.4,5.2-1.4h5.6v-1.1c0-1.5-0.4-2.7-1.3-3.5c-0.9-0.8-2.1-1.2-3.7-1.2c-1.1,0-2.2,0.2-3.2,0.6s-1.9,0.9-2.7,1.5l-1-1.9
	c0.9-0.8,2-1.3,3.2-1.8C6.7,316.3,8,316,9.4,316z M8.6,332.2c1.3,0,2.5-0.3,3.5-0.9s1.7-1.5,2.2-2.7v-2.9H8.7c-3,0-4.6,1.1-4.6,3.2
	c0,1,0.4,1.9,1.2,2.5C6.1,331.9,7.2,332.2,8.6,332.2z M40.3,331.8v6.4H38v-4.3H22.2v4.3h-2.3v-6.4h1c1.2-0.1,2-0.9,2.4-2.6
	s0.7-4,0.9-7.1l0.2-5.9h13.1v15.7h2.8V331.8z M26.4,322.3c-0.1,2.5-0.3,4.6-0.6,6.2c-0.3,1.6-0.9,2.7-1.7,3.3h11.1v-13.5h-8.5
	C26.7,318.3,26.4,322.3,26.4,322.3z M51.1,316c2.3,0,4.1,0.6,5.3,1.8c1.2,1.1,1.9,2.9,1.9,5.1v11H56v-2.8c-0.5,0.9-1.3,1.6-2.4,2.2
	c-1,0.5-2.3,0.8-3.7,0.8c-2,0-3.6-0.5-4.7-1.4c-1.2-0.9-1.8-2.2-1.8-3.7s0.5-2.7,1.6-3.6s2.8-1.4,5.2-1.4h5.6v-1.1
	c0-1.5-0.4-2.7-1.3-3.5c-0.9-0.8-2.1-1.2-3.7-1.2c-1.1,0-2.2,0.2-3.2,0.6s-1.9,0.9-2.7,1.5l-1.1-1.8c0.9-0.8,2-1.3,3.2-1.8
	C48.3,316.3,49.7,316,51.1,316z M50.2,332.2c1.3,0,2.5-0.3,3.5-0.9s1.7-1.5,2.2-2.7v-2.9h-5.6c-3,0-4.6,1.1-4.6,3.2
	c0,1,0.4,1.9,1.2,2.5C47.7,331.9,48.8,332.2,50.2,332.2z M84.4,316.2v17.7h-2.2v-14L75,331.8h-1l-7.2-11.9V334h-2.2v-17.7H67
	l7.5,12.8l7.7-12.8h2.2L84.4,316.2z M108.6,331.8v6.4h-2.3v-4.3H90.4v4.3h-2.3v-6.4h1c1.2-0.1,2-0.9,2.4-2.6s0.7-4,0.9-7.1l0.2-5.9
	h13.1v15.7h2.9V331.8z M94.7,322.3c-0.1,2.5-0.3,4.6-0.6,6.2c-0.3,1.6-0.9,2.7-1.7,3.3h11.1v-13.5H95L94.7,322.3z M119.3,316
	c2.3,0,4.1,0.6,5.3,1.8c1.2,1.1,1.9,2.9,1.9,5.1v11h-2.3v-2.8c-0.5,0.9-1.3,1.6-2.4,2.2c-1,0.5-2.3,0.8-3.7,0.8
	c-2,0-3.6-0.5-4.7-1.4c-1.2-0.9-1.8-2.2-1.8-3.7s0.5-2.7,1.6-3.6s2.8-1.4,5.2-1.4h5.6v-1.1c0-1.5-0.4-2.7-1.3-3.5s-2.1-1.2-3.7-1.2
	c-1.1,0-2.2,0.2-3.2,0.6s-1.9,0.9-2.7,1.5l-1.1-1.8c0.9-0.8,2-1.3,3.2-1.8C116.6,316.3,117.9,316,119.3,316z M118.5,332.2
	c1.3,0,2.5-0.3,3.5-0.9s1.7-1.5,2.2-2.7v-2.9h-5.6c-3,0-4.6,1.1-4.6,3.2c0,1,0.4,1.9,1.2,2.5C116,331.9,117.1,332.2,118.5,332.2z
	 M142,316c1.7,0,3.2,0.4,4.5,1.1s2.4,1.8,3.2,3.2c0.8,1.4,1.1,2.9,1.1,4.7c0,1.8-0.4,3.4-1.1,4.7c-0.8,1.4-1.8,2.4-3.2,3.2
	c-1.3,0.7-2.8,1.1-4.5,1.1c-1.4,0-2.7-0.3-3.9-0.9c-1.1-0.6-2.1-1.5-2.8-2.6v9.9h-2.4v-24.3h2.3v3.5c0.7-1.2,1.7-2.1,2.8-2.7
	C139.2,316.4,140.5,316,142,316L142,316z M141.9,332c1.2,0,2.4-0.3,3.4-0.8c1-0.6,1.8-1.4,2.4-2.5c0.6-1.1,0.9-2.3,0.9-3.6
	c0-1.4-0.3-2.5-0.9-3.6c-0.6-1.1-1.3-1.9-2.4-2.5c-1-0.6-2.1-0.9-3.4-0.9c-1.3,0-2.4,0.3-3.4,0.9s-1.8,1.4-2.4,2.5
	c-0.6,1-0.8,2.2-0.8,3.6c0,1.3,0.3,2.6,0.8,3.6c0.6,1.1,1.4,1.9,2.4,2.5C139.5,331.7,140.6,332,141.9,332z M158.9,318.3v6.9h7.8v1.8
	h-7.8v7h-2.4v-7h-2.4v-1.8h2.4v-9H169v2.1H158.9z M179,316c2.3,0,4.1,0.6,5.3,1.8c1.2,1.1,1.9,2.9,1.9,5.1v11h-2.3v-2.8
	c-0.5,0.9-1.3,1.6-2.4,2.2c-1,0.5-2.3,0.8-3.7,0.8c-2,0-3.6-0.5-4.7-1.4c-1.2-0.9-1.8-2.2-1.8-3.7s0.5-2.7,1.6-3.6s2.8-1.4,5.2-1.4
	h5.6v-1.1c0-1.5-0.4-2.7-1.3-3.5c-0.9-0.8-2.1-1.2-3.7-1.2c-1.1,0-2.2,0.2-3.2,0.6s-1.9,0.9-2.7,1.5l-1.1-1.8c0.9-0.8,2-1.3,3.2-1.8
	C176.3,316.3,177.6,316,179,316L179,316z M178.2,332.2c1.3,0,2.5-0.3,3.5-0.9s1.7-1.5,2.2-2.7v-2.9h-5.6c-3,0-4.6,1.1-4.6,3.2
	c0,1,0.4,1.9,1.2,2.5C175.7,331.9,176.8,332.2,178.2,332.2L178.2,332.2z M217,326h-3.8v7.9h-2.4V326H207l-5.4,7.9h-2.9l6.4-9.1
	l-5.9-8.6h2.6l5.2,7.8h3.8v-7.8h2.4v7.8h3.8l5.2-7.8h2.6l-5.9,8.6l6.4,9.1h-2.9L217,326L217,326z M235,316c2.3,0,4.1,0.6,5.3,1.8
	c1.2,1.1,1.9,2.9,1.9,5.1v11h-2.3v-2.8c-0.5,0.9-1.3,1.6-2.4,2.2c-1,0.5-2.3,0.8-3.7,0.8c-2,0-3.6-0.5-4.7-1.4
	c-1.2-0.9-1.8-2.2-1.8-3.7s0.5-2.7,1.6-3.6s2.8-1.4,5.2-1.4h5.6v-1.1c0-1.5-0.4-2.7-1.3-3.5c-0.9-0.8-2.1-1.2-3.7-1.2
	c-1.1,0-2.2,0.2-3.2,0.6s-1.9,0.9-2.7,1.5l-1.1-1.8c0.9-0.8,2-1.3,3.2-1.8C232.3,316.3,233.7,316,235,316L235,316z M234.2,332.2
	c1.3,0,2.5-0.3,3.5-0.9s1.7-1.5,2.2-2.7v-2.9h-5.6c-3,0-4.6,1.1-4.6,3.2c0,1,0.4,1.9,1.2,2.5C231.7,331.9,232.8,332.2,234.2,332.2
	L234.2,332.2z M255,326h-4v7.9h-2.4v-17.7h2.4v7.8h4.1l6.2-7.8h2.6l-7,8.6l7.5,9.1h-2.8L255,326L255,326z M266,331.9v6h-2.2V334
	h-2.3v-2.1H266z M284.1,316.2v17.7h-2.4v-15.6h-11.1v15.6h-2.4v-17.7H284.1z M297,316c2.3,0,4.1,0.6,5.3,1.8
	c1.2,1.1,1.9,2.9,1.9,5.1v11h-2.3v-2.8c-0.5,0.9-1.3,1.6-2.4,2.2c-1,0.5-2.3,0.8-3.7,0.8c-2,0-3.6-0.5-4.7-1.4
	c-1.2-0.9-1.8-2.2-1.8-3.7s0.5-2.7,1.6-3.6s2.8-1.4,5.2-1.4h5.6v-1.1c0-1.5-0.4-2.7-1.3-3.5s-2.1-1.2-3.7-1.2
	c-1.1,0-2.2,0.2-3.2,0.6s-1.9,0.9-2.7,1.5l-1.1-1.8c0.9-0.8,2-1.3,3.2-1.8C294.3,316.3,295.6,316,297,316z M296.2,332.2
	c1.3,0,2.5-0.3,3.5-0.9s1.7-1.5,2.2-2.7v-2.9h-5.6c-3,0-4.6,1.1-4.6,3.2c0,1,0.4,1.9,1.2,2.5C293.7,331.9,294.8,332.2,296.2,332.2z
	 M325.6,316.2l-8.9,19.9c-0.7,1.7-1.6,2.8-2.5,3.5s-2.1,1-3.4,1c-0.9,0-1.7-0.1-2.4-0.4c-0.7-0.3-1.4-0.7-1.9-1.2l1.1-1.8
	c0.9,0.9,2,1.3,3.2,1.3c0.8,0,1.5-0.2,2.1-0.7s1.1-1.2,1.6-2.3l0.8-1.7l-7.9-17.7h2.5l6.7,15.1l6.7-15.1h2.3L325.6,316.2z
	 M336.8,322.5c2.2,0,3.9,0.5,5.1,1.5s1.8,2.4,1.8,4.2c0,1.9-0.6,3.3-1.9,4.4c-1.3,1-3.1,1.5-5.4,1.5h-7v-17.7h2.4v6.2L336.8,322.5z
	 M346.6,316.2h2.4v17.7h-2.4V316.2z M336.3,332.1c1.6,0,2.9-0.3,3.7-1c0.9-0.7,1.3-1.7,1.3-3s-0.4-2.3-1.2-2.9c-0.8-0.6-2.1-1-3.7-1
	l-4.5-0.1v7.9L336.3,332.1L336.3,332.1z M356.1,330.4c0.5,0,0.9,0.2,1.3,0.5c0.3,0.3,0.5,0.8,0.5,1.3c0,0.3,0,0.6-0.1,0.9
	s-0.2,0.7-0.3,1.1l-1.4,4.7h-1.6l1.1-4.9c-0.4-0.1-0.7-0.3-0.9-0.6c-0.2-0.3-0.3-0.7-0.3-1.1c0-0.5,0.2-0.9,0.5-1.3
	C355.1,330.6,355.5,330.4,356.1,330.4L356.1,330.4z M387.4,326h-3.8v7.9h-2.4V326h-3.8l-5.4,7.9h-3l6.4-9.1l-5.9-8.6h2.6l5.2,7.8
	h3.8v-7.8h2.4v7.8h3.8l5.2-7.8h2.6l-5.9,8.6l6.4,9.1h-2.9L387.4,326L387.4,326z M405.9,334v6.4h-2.4V334l-7.9-17.8h2.5l6.6,15.1
	l6.7-15.1h2.4L405.9,334L405.9,334z M423.9,326h-4v7.9h-2.4v-17.7h2.4v7.8h4.1l6.2-7.8h2.6l-7,8.6l7.5,9.1h-2.8L423.9,326L423.9,326
	z M449.2,318.3h-6.7v15.6h-2.4v-15.6h-6.7v-2.1h15.8L449.2,318.3L449.2,318.3z M452.7,316.2h2.4v17.7h-2.4V316.2z M453.9,312.3
	c-0.5,0-0.9-0.2-1.2-0.5c-0.3-0.3-0.5-0.7-0.5-1.2c0-0.4,0.2-0.8,0.5-1.2c0.3-0.3,0.8-0.5,1.2-0.5c0.5,0,0.9,0.2,1.2,0.5
	c0.3,0.3,0.5,0.7,0.5,1.1c0,0.5-0.2,0.9-0.5,1.2C454.8,312.1,454.4,312.3,453.9,312.3z M476.4,316.2v17.7H474v-15.6h-8.5l-0.2,4.4
	c-0.2,3.7-0.6,6.5-1.3,8.5c-0.7,2-1.9,3-3.6,3c-0.5,0-1-0.1-1.7-0.3l0.2-2.1c0.4,0.1,0.7,0.1,0.8,0.1c0.9,0,1.6-0.4,2.1-1.3
	s0.8-1.9,0.9-3.2c0.2-1.3,0.3-2.9,0.4-5l0.3-6.3L476.4,316.2L476.4,316.2z M483.2,316.2h2.4v17.7h-2.4V316.2z M484.4,312.3
	c-0.5,0-0.9-0.2-1.2-0.5c-0.3-0.3-0.5-0.7-0.5-1.2c0-0.4,0.2-0.8,0.5-1.2c0.3-0.3,0.8-0.5,1.2-0.5c0.5,0,0.9,0.2,1.2,0.5
	c0.3,0.3,0.5,0.7,0.5,1.1c0,0.5-0.2,0.9-0.5,1.2C485.3,312.1,484.9,312.3,484.4,312.3z M498.9,326h-4v7.9h-2.4v-17.7h2.4v7.8h4.1
	l6.2-7.8h2.6l-7,8.6l7.5,9.1h-2.8L498.9,326L498.9,326z M512.2,330.4c0.5,0,0.9,0.2,1.3,0.5c0.3,0.3,0.5,0.8,0.5,1.3
	c0,0.3,0,0.6-0.1,0.9s-0.2,0.7-0.3,1.1l-1.4,4.7h-1.6l1.1-4.9c-0.4-0.1-0.7-0.3-0.9-0.6c-0.2-0.3-0.3-0.7-0.3-1.1
	c0-0.5,0.2-0.9,0.5-1.3S511.7,330.4,512.2,330.4z M18.8,369.2H4c0.1,1.8,0.8,3.3,2.1,4.5c1.3,1.1,2.9,1.7,4.9,1.7
	c1.1,0,2.1-0.2,3-0.6s1.7-1,2.4-1.8l1.3,1.6c-0.8,0.9-1.8,1.7-3,2.2s-2.5,0.7-3.9,0.7c-1.8,0-3.4-0.4-4.9-1.1
	c-1.4-0.8-2.5-1.9-3.3-3.2c-0.8-1.4-1.2-2.9-1.2-4.7c0-1.7,0.4-3.3,1.1-4.7c0.8-1.4,1.8-2.4,3.1-3.2c1.3-0.8,2.8-1.1,4.5-1.1
	c1.6,0,3.1,0.4,4.4,1.1c1.3,0.8,2.3,1.8,3.1,3.2c0.7,1.3,1.1,2.9,1.1,4.7L18.8,369.2L18.8,369.2z M10.3,361.5
	c-1.7,0-3.1,0.6-4.3,1.7c-1.1,1.1-1.8,2.5-2,4.3h12.6c-0.2-1.8-0.8-3.2-2-4.3C13.5,362,12,361.5,10.3,361.5z M44,359.6v17.7h-2.2
	v-14l-7.2,11.9h-1.1l-7.2-11.9v14.1h-2.2v-17.7h2.4l7.5,12.8l7.7-12.8L44,359.6L44,359.6z M75.3,359.6v17.7H50.8v-17.7h2.4v15.7h8.7
	v-15.7h2.4v15.7h8.6v-15.7H75.3z M97.7,369.2H82.8c0.1,1.8,0.8,3.3,2.1,4.5c1.3,1.1,2.9,1.7,4.9,1.7c1.1,0,2.1-0.2,3-0.6
	s1.7-1,2.4-1.8l1.3,1.6c-0.8,0.9-1.8,1.7-3,2.2s-2.5,0.7-3.9,0.7c-1.8,0-3.4-0.4-4.9-1.1c-1.4-0.8-2.5-1.9-3.3-3.2
	c-0.8-1.4-1.2-2.9-1.2-4.7c0-1.7,0.4-3.3,1.1-4.7c0.8-1.4,1.8-2.4,3.1-3.2c1.3-0.8,2.8-1.1,4.5-1.1c1.6,0,3.1,0.4,4.4,1.1
	c1.3,0.8,2.3,1.8,3.1,3.2c0.7,1.3,1.1,2.9,1.1,4.7L97.7,369.2L97.7,369.2z M89.1,361.5c-1.7,0-3.1,0.6-4.3,1.7
	c-1.1,1.1-1.8,2.5-2,4.3h12.6c-0.2-1.8-0.8-3.2-2-4.3C92.3,362,90.8,361.5,89.1,361.5z M109.4,369.4h-4v7.9H103v-17.7h2.4v7.8h4.1
	l6.2-7.8h2.6l-7,8.6l7.5,9.1H116L109.4,369.4z M146.9,369.2h-14.8c0.1,1.8,0.8,3.3,2.1,4.5c1.3,1.1,2.9,1.7,4.9,1.7
	c1.1,0,2.1-0.2,3-0.6s1.7-1,2.4-1.8l1.3,1.6c-0.8,0.9-1.8,1.7-3,2.2s-2.5,0.7-3.9,0.7c-1.8,0-3.4-0.4-4.9-1.1
	c-1.4-0.8-2.5-1.9-3.3-3.2c-0.8-1.4-1.2-2.9-1.2-4.7c0-1.7,0.4-3.3,1.1-4.7c0.8-1.4,1.8-2.4,3.1-3.2c1.3-0.8,2.8-1.1,4.5-1.1
	c1.6,0,3.1,0.4,4.4,1.1c1.3,0.8,2.3,1.8,3.1,3.2c0.7,1.3,1.1,2.9,1.1,4.7L146.9,369.2L146.9,369.2z M138.4,361.5
	c-1.7,0-3.1,0.6-4.3,1.7c-1.1,1.1-1.8,2.5-2,4.3h12.6c-0.2-1.8-0.8-3.2-2-4.3C141.5,362,140.1,361.5,138.4,361.5z M172.1,359.6v17.7
	h-2.2v-14l-7.2,11.9h-1.1l-7.2-11.9v14.1h-2.2v-17.7h2.4l7.5,12.8l7.7-12.8L172.1,359.6L172.1,359.6z M178.9,359.6h2.4v17.7h-2.4
	V359.6z M180.1,355.7c-0.5,0-0.9-0.2-1.2-0.5s-0.5-0.7-0.5-1.2c0-0.4,0.2-0.8,0.5-1.2c0.3-0.3,0.8-0.5,1.2-0.5
	c0.5,0,0.9,0.2,1.2,0.5s0.5,0.7,0.5,1.1c0,0.5-0.2,0.9-0.5,1.2C181,355.5,180.6,355.7,180.1,355.7z M196.4,368.1
	c1.3,0.3,2.2,0.8,2.9,1.5s1,1.6,1,2.6s-0.4,2-1.1,2.8c-0.7,0.8-1.7,1.4-2.9,1.9c-1.2,0.4-2.6,0.6-4,0.6c-1.3,0-2.5-0.2-3.8-0.5
	c-1.2-0.4-2.3-0.9-3.2-1.7l0.8-1.8c0.8,0.6,1.8,1.1,2.8,1.4c1.1,0.3,2.2,0.5,3.3,0.5c1.6,0,3-0.3,4-0.9c1.1-0.6,1.6-1.5,1.6-2.5
	c0-0.9-0.4-1.7-1.3-2.2c-0.9-0.5-2-0.8-3.5-0.8h-3v-1.8h2.9c1.3,0,2.4-0.2,3.2-0.7s1.2-1.2,1.2-2.1s-0.5-1.7-1.4-2.2
	s-2.1-0.8-3.5-0.8c-1.9,0-3.8,0.5-5.7,1.5L186,361c2.1-1.1,4.3-1.7,6.6-1.7c1.3,0,2.6,0.2,3.6,0.6c1.1,0.4,2,0.9,2.6,1.7
	c0.6,0.7,0.9,1.6,0.9,2.5s-0.3,1.7-0.9,2.4C198.3,367.2,197.4,367.7,196.4,368.1L196.4,368.1z M220.8,359.6l-8.8,19.8
	c-0.7,1.7-1.6,2.8-2.5,3.5s-2.1,1-3.4,1c-0.9,0-1.7-0.1-2.4-0.4s-1.4-0.7-1.9-1.2l1.1-1.8c0.9,0.9,2,1.3,3.2,1.3
	c0.8,0,1.5-0.2,2.1-0.7s1.1-1.2,1.6-2.3l0.8-1.7l-7.9-17.7h2.5l6.7,15.1l6.7-15.1h2.2L220.8,359.6z M223.6,373.8
	c0.5,0,0.9,0.2,1.3,0.5c0.3,0.3,0.5,0.8,0.5,1.3c0,0.3,0,0.6-0.1,0.9s-0.2,0.7-0.3,1.1l-1.4,4.7H222l1.1-4.9
	c-0.4-0.1-0.7-0.3-0.9-0.6c-0.2-0.3-0.3-0.7-0.3-1.1c0-0.5,0.2-0.9,0.5-1.3S223.1,373.8,223.6,373.8z M251.9,361.7h-6.7v15.6h-2.4
	v-15.6H236v-2.1h15.8L251.9,361.7L251.9,361.7z M264.5,359.4c1.7,0,3.2,0.4,4.5,1.1s2.4,1.8,3.2,3.2c0.8,1.4,1.1,2.9,1.1,4.7
	c0,1.8-0.4,3.4-1.1,4.7c-0.8,1.4-1.8,2.4-3.2,3.2c-1.3,0.7-2.8,1.1-4.5,1.1c-1.4,0-2.7-0.3-3.9-0.9c-1.1-0.6-2.1-1.5-2.8-2.6v9.9
	h-2.4v-24.3h2.3v3.5c0.7-1.2,1.7-2.1,2.8-2.7C261.6,359.7,263,359.4,264.5,359.4L264.5,359.4z M264.3,375.4c1.2,0,2.4-0.3,3.4-0.8
	c1-0.6,1.8-1.4,2.4-2.5s0.9-2.3,0.9-3.6c0-1.3-0.3-2.5-0.9-3.6s-1.3-1.9-2.4-2.5c-1-0.6-2.1-0.9-3.4-0.9s-2.4,0.3-3.4,0.9
	s-1.8,1.4-2.4,2.5c-0.6,1-0.8,2.2-0.8,3.6s0.3,2.6,0.8,3.6c0.6,1.1,1.4,1.9,2.4,2.5C261.9,375.1,263,375.4,264.3,375.4z
	 M285.8,377.5c-1.7,0-3.2-0.4-4.6-1.1c-1.4-0.8-2.5-1.9-3.2-3.2c-0.8-1.4-1.2-2.9-1.2-4.7c0-1.7,0.4-3.3,1.2-4.7
	c0.8-1.4,1.9-2.4,3.2-3.2c1.4-0.8,2.9-1.1,4.6-1.1s3.2,0.4,4.6,1.1c1.4,0.8,2.4,1.8,3.2,3.2c0.8,1.4,1.2,2.9,1.2,4.7
	c0,1.7-0.4,3.3-1.2,4.7c-0.8,1.4-1.8,2.5-3.2,3.2C289,377.1,287.5,377.5,285.8,377.5z M285.8,375.4c1.3,0,2.4-0.3,3.4-0.8
	c1-0.6,1.8-1.4,2.4-2.5s0.8-2.3,0.8-3.6c0-1.3-0.3-2.6-0.8-3.6s-1.3-1.9-2.4-2.4c-1-0.6-2.1-0.9-3.4-0.9s-2.4,0.3-3.4,0.9
	s-1.8,1.4-2.4,2.4c-0.6,1.1-0.8,2.3-0.8,3.6c0,1.4,0.3,2.6,0.8,3.6c0.6,1.1,1.4,1.9,2.4,2.5C283.4,375.1,284.5,375.4,285.8,375.4z
	 M319.7,359.6v17.7h-2.2v-14l-7.2,11.9h-1.1l-7.2-11.9v14.1h-2.2v-17.7h2.4l7.5,12.8l7.7-12.8L319.7,359.6L319.7,359.6z M335.1,360
	c1.6,0,3.1,0.4,4.4,1.1s2.3,1.7,3,3.1c0.7,1.3,1.1,2.8,1.1,4.5s-0.4,3.3-1.1,4.6c-0.7,1.3-1.8,2.4-3.1,3.1c-1.3,0.7-2.9,1.1-4.7,1.1
	c-2.9,0-5.2-1-6.8-3.1c-1.6-2.1-2.4-4.9-2.4-8.6c0-3.8,0.7-6.7,2.2-8.7s3.7-3.4,6.8-4.1l8-1.8l0.4,2.2l-7.5,1.7
	c-2.5,0.6-4.4,1.6-5.6,3s-1.8,3.5-2,6.3c0.7-1.4,1.7-2.4,3-3.2C332,360.4,333.5,360,335.1,360L335.1,360z M334.7,375.5
	c1.2,0,2.3-0.3,3.3-0.8c1-0.6,1.8-1.4,2.3-2.4c0.6-1,0.8-2.2,0.8-3.5s-0.3-2.5-0.8-3.4c-0.5-1-1.3-1.8-2.3-2.3
	c-1-0.6-2.1-0.8-3.3-0.8s-2.4,0.3-3.4,0.8s-1.7,1.3-2.3,2.3c-0.5,1-0.8,2.1-0.8,3.4s0.3,2.5,0.8,3.5c0.6,1,1.3,1.8,2.3,2.4
	C332.4,375.2,333.5,375.5,334.7,375.5z M360.6,361.7h-6.7v15.6h-2.4v-15.6h-6.7v-2.1h15.8L360.6,361.7L360.6,361.7z M370.1,359.4
	c2.3,0,4.1,0.6,5.3,1.8c1.2,1.1,1.9,2.9,1.9,5.1v11H375v-2.8c-0.5,0.9-1.3,1.6-2.4,2.2c-1,0.5-2.3,0.8-3.7,0.8c-2,0-3.6-0.5-4.7-1.4
	c-1.2-0.9-1.8-2.2-1.8-3.7s0.5-2.7,1.6-3.6s2.8-1.4,5.2-1.4h5.6v-1.1c0-1.5-0.4-2.7-1.3-3.5s-2.1-1.2-3.7-1.2
	c-1.1,0-2.2,0.2-3.2,0.6s-1.9,0.9-2.7,1.5l-1.1-1.8c0.9-0.8,2-1.3,3.2-1.8C367.4,359.6,368.7,359.4,370.1,359.4z M369.3,375.6
	c1.3,0,2.5-0.3,3.5-0.9s1.7-1.5,2.2-2.7v-2.9h-5.6c-3,0-4.6,1.1-4.6,3.2c0,1,0.4,1.9,1.2,2.5C366.8,375.3,367.9,375.6,369.3,375.6z
	 M392.8,359.4c1.7,0,3.2,0.4,4.5,1.1s2.4,1.8,3.2,3.2c0.8,1.4,1.1,2.9,1.1,4.7c0,1.8-0.4,3.4-1.1,4.7s-1.8,2.4-3.2,3.2
	c-1.3,0.7-2.8,1.1-4.5,1.1c-1.4,0-2.7-0.3-3.9-0.9c-1.1-0.6-2.1-1.5-2.8-2.6v9.9h-2.4v-24.3h2.3v3.5c0.7-1.2,1.7-2.1,2.8-2.7
	C390,359.7,391.3,359.4,392.8,359.4L392.8,359.4z M392.7,375.4c1.2,0,2.4-0.3,3.4-0.8c1-0.6,1.8-1.4,2.4-2.5s0.9-2.3,0.9-3.6
	c0-1.3-0.3-2.5-0.9-3.6s-1.3-1.9-2.4-2.5c-1-0.6-2.1-0.9-3.4-0.9s-2.4,0.3-3.4,0.9s-1.8,1.4-2.4,2.5c-0.6,1-0.8,2.2-0.8,3.6
	s0.3,2.6,0.8,3.6c0.6,1.1,1.4,1.9,2.4,2.5C390.3,375.1,391.4,375.4,392.7,375.4z M424,375.2v6.4h-2.3v-4.3h-15.9v4.3h-2.3v-6.4h1
	c1.2-0.1,2-0.9,2.4-2.6s0.7-4,0.9-7.1l0.2-5.9h13.1v15.7h2.9L424,375.2z M410.1,365.6c-0.1,2.5-0.3,4.6-0.6,6.2
	c-0.3,1.6-0.9,2.7-1.7,3.3h11.1v-13.5h-8.5L410.1,365.6z M436.1,365.8c2.2,0,3.9,0.5,5.1,1.5s1.8,2.4,1.8,4.2c0,1.9-0.6,3.3-1.9,4.4
	s-3.1,1.5-5.4,1.5h-7v-17.7h2.4v6.2L436.1,365.8z M445.9,359.6h2.4v17.7h-2.4V359.6z M435.5,375.5c1.6,0,2.9-0.3,3.7-1
	c0.9-0.7,1.3-1.7,1.3-3s-0.4-2.3-1.2-2.9s-2.1-1-3.7-1l-4.5-0.1v7.9L435.5,375.5L435.5,375.5z M455.1,359.6h2.4v7.9h11.2v-7.9h2.4
	v17.7h-2.4v-7.8h-11.2v7.8h-2.4V359.6z M474,375.2v6h-2.3v-3.9h-3v-2.1H474z M15.8,405.1H9.1v15.6H6.7v-15.6H0V403h15.8V405.1z
	 M26.6,420.8v6.4h-2.4v-6.4L16.3,403h2.5l6.6,15.1l6.7-15.1h2.4C34.5,403,26.6,420.8,26.6,420.8z M46.3,411.4
	c1.3,0.3,2.2,0.8,2.9,1.5s1,1.6,1,2.6s-0.4,2-1.1,2.8c-0.7,0.8-1.7,1.4-2.9,1.9c-1.2,0.4-2.6,0.6-4,0.6c-1.3,0-2.5-0.2-3.8-0.5
	c-1.2-0.4-2.3-0.9-3.2-1.7l0.8-1.8c0.8,0.6,1.8,1.1,2.8,1.4c1.1,0.3,2.2,0.5,3.3,0.5c1.6,0,3-0.3,4-0.9c1.1-0.6,1.6-1.5,1.6-2.5
	c0-0.9-0.4-1.7-1.3-2.2c-0.9-0.5-2-0.8-3.5-0.8h-3v-1.8h2.9c1.3,0,2.4-0.2,3.2-0.7s1.2-1.2,1.2-2.1c0-0.9-0.5-1.7-1.4-2.2
	s-2.1-0.8-3.5-0.8c-1.9,0-3.8,0.5-5.7,1.4l-0.7-1.9c2.1-1.1,4.3-1.7,6.6-1.7c1.3,0,2.6,0.2,3.6,0.6c1.1,0.4,2,0.9,2.6,1.7
	c0.6,0.7,0.9,1.6,0.9,2.5s-0.3,1.7-0.9,2.4C48.2,410.6,47.4,411.1,46.3,411.4z M55.7,402.9h2.4v17.7h-2.4V402.9z M56.9,399.1
	c-0.5,0-0.9-0.2-1.2-0.5s-0.5-0.7-0.5-1.2s0.2-0.8,0.5-1.2c0.3-0.3,0.8-0.5,1.2-0.5c0.5,0,0.9,0.2,1.2,0.5s0.5,0.7,0.5,1.1
	c0,0.5-0.2,0.9-0.5,1.2C57.9,398.9,57.4,399.1,56.9,399.1L56.9,399.1z M79.5,402.9v17.7h-2.4V405h-8.5l-0.2,4.4
	c-0.2,3.7-0.6,6.5-1.3,8.5s-1.9,3-3.6,3c-0.5,0-1-0.1-1.7-0.3l0.2-2.1c0.4,0.1,0.7,0.1,0.8,0.1c0.9,0,1.6-0.4,2.1-1.3
	s0.8-1.9,0.9-3.2c0.2-1.3,0.3-2.9,0.4-5l0.3-6.3L79.5,402.9L79.5,402.9z M101.3,402.9l-8.9,19.9c-0.7,1.7-1.6,2.8-2.5,3.5
	s-2.1,1-3.4,1c-0.9,0-1.7-0.1-2.4-0.4c-0.7-0.3-1.4-0.7-1.9-1.2l1.1-1.8c0.9,0.9,2,1.4,3.2,1.4c0.8,0,1.5-0.2,2.1-0.7
	s1.1-1.2,1.6-2.3l0.8-1.7l-7.9-17.7h2.5l6.7,15.1l6.7-15.1H101.3L101.3,402.9z M105.1,402.9h2.4v17.7h-2.4V402.9z M106.3,399.1
	c-0.5,0-0.9-0.2-1.2-0.5c-0.3-0.3-0.5-0.7-0.5-1.2s0.2-0.8,0.5-1.2c0.3-0.3,0.8-0.5,1.2-0.5c0.5,0,0.9,0.2,1.2,0.5
	c0.3,0.3,0.5,0.7,0.5,1.1c0,0.5-0.2,0.9-0.5,1.2C107.2,398.9,106.8,399.1,106.3,399.1L106.3,399.1z M114.3,402.9h2.4v7.9h11.2v-7.9
	h2.4v17.7h-2.4v-7.8h-11.2v7.8h-2.4V402.9z M152.5,412.6h-14.8c0.1,1.8,0.8,3.3,2.1,4.5c1.3,1.1,2.9,1.7,4.9,1.7
	c1.1,0,2.1-0.2,3-0.6c0.9-0.4,1.7-1,2.4-1.8l1.3,1.6c-0.8,0.9-1.8,1.7-3,2.2s-2.5,0.7-3.9,0.7c-1.8,0-3.4-0.4-4.9-1.1
	c-1.4-0.8-2.5-1.9-3.3-3.2s-1.2-2.9-1.2-4.7s0.4-3.3,1.1-4.7c0.8-1.4,1.8-2.4,3.1-3.2s2.8-1.1,4.5-1.1c1.6,0,3.1,0.4,4.4,1.1
	c1.3,0.8,2.3,1.8,3.1,3.2c0.7,1.4,1.1,2.9,1.1,4.7L152.5,412.6L152.5,412.6z M144,404.9c-1.7,0-3.1,0.6-4.3,1.7
	c-1.1,1.1-1.8,2.5-2,4.3h12.6c-0.2-1.8-0.8-3.2-2-4.3C147.2,405.4,145.7,404.9,144,404.9z M182.2,412.8h-3.8v7.9H176v-7.9h-3.8
	l-5.4,7.9h-2.9l6.4-9.1l-5.9-8.6h2.6l5.2,7.8h3.8V403h2.4v7.8h3.8l5.2-7.8h2.6l-5.9,8.6l6.4,9.1h-2.9L182.2,412.8L182.2,412.8z
	 M201.3,420.9c-1.7,0-3.2-0.4-4.6-1.1c-1.4-0.8-2.5-1.9-3.2-3.2c-0.8-1.4-1.2-2.9-1.2-4.7s0.4-3.3,1.2-4.7s1.9-2.4,3.2-3.2
	c1.4-0.8,2.9-1.1,4.6-1.1c1.7,0,3.2,0.4,4.6,1.1c1.4,0.8,2.4,1.8,3.2,3.2s1.2,2.9,1.2,4.7s-0.4,3.3-1.2,4.7s-1.8,2.5-3.2,3.2
	S203,420.9,201.3,420.9z M201.3,418.7c1.3,0,2.4-0.3,3.4-0.8c1-0.6,1.8-1.4,2.4-2.5c0.6-1.1,0.8-2.3,0.8-3.6s-0.3-2.6-0.8-3.6
	c-0.6-1.1-1.3-1.9-2.4-2.4c-1-0.6-2.1-0.9-3.4-0.9c-1.3,0-2.4,0.3-3.4,0.9c-1,0.6-1.8,1.4-2.4,2.4c-0.6,1.1-0.8,2.3-0.8,3.6
	c0,1.4,0.3,2.6,0.8,3.6c0.6,1.1,1.4,1.9,2.4,2.5C198.9,418.4,200,418.7,201.3,418.7z M218.3,405.1v6.9h7.8v1.8h-7.8v7h-2.4v-7h-2.4
	V412h2.4v-9h12.5v2.1H218.3z M238.4,402.8c2.3,0,4.1,0.6,5.3,1.8c1.2,1.1,1.9,2.9,1.9,5.1v11h-2.3v-2.8c-0.5,0.9-1.3,1.6-2.4,2.2
	c-1,0.5-2.3,0.8-3.7,0.8c-2,0-3.6-0.5-4.7-1.4c-1.2-0.9-1.8-2.2-1.8-3.7s0.5-2.7,1.6-3.6c1.1-0.9,2.8-1.4,5.2-1.4h5.6v-1.1
	c0-1.5-0.4-2.7-1.3-3.5c-0.9-0.8-2.1-1.2-3.7-1.2c-1.1,0-2.2,0.2-3.2,0.6c-1,0.4-1.9,0.9-2.7,1.5l-1.1-1.8c0.9-0.8,2-1.3,3.2-1.8
	C235.7,403,237,402.8,238.4,402.8L238.4,402.8z M237.6,419c1.3,0,2.5-0.3,3.5-0.9c1-0.6,1.7-1.5,2.2-2.7v-2.9h-5.6
	c-3,0-4.6,1.1-4.6,3.2c0,1,0.4,1.9,1.2,2.5C235,418.7,236.1,419,237.6,419L237.6,419z M261.1,402.8c1.7,0,3.2,0.4,4.5,1.1
	c1.3,0.7,2.4,1.8,3.2,3.2c0.8,1.4,1.1,2.9,1.1,4.7s-0.4,3.4-1.1,4.7c-0.8,1.4-1.8,2.4-3.2,3.2c-1.3,0.7-2.8,1.1-4.5,1.1
	c-1.4,0-2.7-0.3-3.9-0.9c-1.1-0.6-2.1-1.5-2.8-2.6v9.9H252v-24.3h2.3v3.5c0.7-1.2,1.7-2.1,2.8-2.7
	C258.3,403.1,259.6,402.8,261.1,402.8z M260.9,418.7c1.2,0,2.4-0.3,3.4-0.8c1-0.6,1.8-1.4,2.4-2.5s0.9-2.3,0.9-3.6s-0.3-2.5-0.9-3.6
	s-1.3-1.9-2.4-2.5c-1-0.6-2.1-0.9-3.4-0.9s-2.4,0.3-3.4,0.9c-1,0.6-1.8,1.4-2.4,2.5c-0.6,1-0.8,2.2-0.8,3.6s0.3,2.6,0.8,3.6
	c0.6,1.1,1.4,1.9,2.4,2.5C258.5,418.4,259.7,418.7,260.9,418.7z M282.5,409.2c2.2,0,3.9,0.5,5.1,1.5s1.8,2.4,1.8,4.2
	c0,1.9-0.6,3.3-1.9,4.4c-1.3,1-3.1,1.5-5.4,1.5h-7v-17.7h2.4v6.2L282.5,409.2L282.5,409.2z M292.3,402.9h2.4v17.7h-2.4V402.9z
	 M282,418.9c1.6,0,2.9-0.3,3.7-1c0.9-0.7,1.3-1.7,1.3-3s-0.4-2.3-1.2-2.9s-2.1-1-3.7-1l-4.5-0.1v7.9L282,418.9L282,418.9z
	 M319,403.4c1.6,0,3.1,0.4,4.4,1.1c1.3,0.7,2.3,1.7,3,3.1c0.7,1.3,1.1,2.8,1.1,4.5s-0.4,3.3-1.1,4.6s-1.8,2.4-3.1,3.1
	s-2.9,1.1-4.7,1.1c-2.9,0-5.2-1-6.8-3.1c-1.6-2.1-2.4-4.9-2.4-8.6c0-3.8,0.7-6.7,2.2-8.7s3.7-3.4,6.8-4.1l8-1.8l0.4,2.2l-7.5,1.7
	c-2.5,0.6-4.4,1.6-5.6,3s-1.8,3.5-2,6.3c0.7-1.4,1.7-2.4,3-3.2C315.8,403.8,317.3,403.4,319,403.4L319,403.4z M318.6,418.9
	c1.2,0,2.3-0.3,3.3-0.8c1-0.6,1.8-1.4,2.3-2.4c0.6-1,0.8-2.2,0.8-3.5s-0.3-2.5-0.8-3.4c-0.5-1-1.3-1.8-2.3-2.3
	c-1-0.6-2.1-0.8-3.3-0.8s-2.4,0.3-3.4,0.8s-1.7,1.3-2.3,2.3c-0.5,1-0.8,2.1-0.8,3.4s0.3,2.5,0.8,3.5c0.6,1,1.3,1.8,2.3,2.4
	C316.3,418.6,317.4,418.9,318.6,418.9z M348.1,412.6h-14.8c0.1,1.8,0.8,3.3,2.1,4.5c1.3,1.1,2.9,1.7,4.9,1.7c1.1,0,2.1-0.2,3-0.6
	c0.9-0.4,1.7-1,2.4-1.8l1.3,1.6c-0.8,0.9-1.8,1.7-3,2.2s-2.5,0.7-3.9,0.7c-1.8,0-3.4-0.4-4.9-1.1c-1.4-0.8-2.5-1.9-3.3-3.2
	c-0.8-1.4-1.2-2.9-1.2-4.7s0.4-3.3,1.1-4.7c0.8-1.4,1.8-2.4,3.1-3.2c1.3-0.8,2.8-1.1,4.5-1.1c1.6,0,3.1,0.4,4.4,1.1
	c1.3,0.8,2.3,1.8,3.1,3.2c0.7,1.4,1.1,2.9,1.1,4.7L348.1,412.6L348.1,412.6z M339.6,404.9c-1.7,0-3.1,0.6-4.3,1.7
	c-1.1,1.1-1.8,2.5-2,4.3h12.6c-0.2-1.8-0.8-3.2-2-4.3C342.7,405.4,341.3,404.9,339.6,404.9L339.6,404.9z M353.5,402.9h2.4V417
	l11.8-14.1h2.1v17.7h-2.4v-14.1l-11.8,14.1h-2.2v-17.7H353.5z M361.5,400.4c-1.5,0-2.7-0.4-3.6-1.1c-0.9-0.8-1.4-1.8-1.4-3.2h1.7
	c0,0.9,0.3,1.6,0.9,2.1s1.4,0.8,2.4,0.8s1.8-0.3,2.4-0.8s1-1.2,1-2.1h1.7c0,1.4-0.5,2.5-1.4,3.2S363,400.4,361.5,400.4z
	 M376.7,402.9h2.4v17.7h-2.4V402.9z M377.9,399.1c-0.5,0-0.9-0.2-1.2-0.5c-0.3-0.3-0.5-0.7-0.5-1.2s0.2-0.8,0.5-1.2
	c0.3-0.3,0.8-0.5,1.2-0.5c0.5,0,0.9,0.2,1.2,0.5c0.3,0.3,0.5,0.7,0.5,1.1c0,0.5-0.2,0.9-0.5,1.2
	C378.8,398.9,378.4,399.1,377.9,399.1L377.9,399.1z M405.7,402.9v17.7h-2.2v-14l-7.2,11.9h-1.1l-7.2-11.9v14.1h-2.2V403h2.4
	l7.5,12.8l7.7-12.8L405.7,402.9L405.7,402.9z M429.8,418.6v6.4h-2.3v-4.3h-15.9v4.3h-2.3v-6.4h1c1.2-0.1,2-0.9,2.4-2.6
	s0.7-4,0.9-7.1l0.2-5.9h13.1v15.7h2.9L429.8,418.6z M415.9,409c-0.1,2.5-0.3,4.6-0.6,6.2c-0.3,1.6-0.9,2.7-1.7,3.3h11.1V405h-8.5
	L415.9,409z M434.5,402.9h2.4v17.7h-2.4V402.9z M435.7,399.1c-0.5,0-0.9-0.2-1.2-0.5c-0.3-0.3-0.5-0.7-0.5-1.2s0.2-0.8,0.5-1.2
	c0.3-0.3,0.8-0.5,1.2-0.5c0.5,0,0.9,0.2,1.2,0.5c0.3,0.3,0.5,0.7,0.5,1.1c0,0.5-0.2,0.9-0.5,1.2
	C436.6,398.9,436.2,399.1,435.7,399.1L435.7,399.1z M458.2,402.9v17.7h-2.4V405h-8.5l-0.2,4.4c-0.2,3.7-0.6,6.5-1.3,8.5
	c-0.7,2-1.9,3-3.6,3c-0.5,0-1-0.1-1.7-0.3l0.2-2.1c0.4,0.1,0.7,0.1,0.8,0.1c0.9,0,1.6-0.4,2.1-1.3s0.8-1.9,0.9-3.2
	c0.2-1.3,0.3-2.9,0.4-5l0.3-6.3L458.2,402.9L458.2,402.9z M465,402.9h2.4v17.7H465V402.9z M466.2,399.1c-0.5,0-0.9-0.2-1.2-0.5
	c-0.3-0.3-0.5-0.7-0.5-1.2s0.2-0.8,0.5-1.2c0.3-0.3,0.8-0.5,1.2-0.5c0.5,0,0.9,0.2,1.2,0.5c0.3,0.3,0.5,0.7,0.5,1.1
	c0,0.5-0.2,0.9-0.5,1.2C467.1,398.9,466.7,399.1,466.2,399.1L466.2,399.1z M480.7,412.8h-4v7.9h-2.4V403h2.4v7.8h4.1l6.2-7.8h2.6
	l-7,8.6l7.5,9.1h-2.8L480.7,412.8L480.7,412.8z M494,420.9c-0.5,0-0.9-0.2-1.3-0.5c-0.3-0.4-0.5-0.8-0.5-1.3s0.2-0.9,0.5-1.3
	c0.4-0.4,0.8-0.5,1.3-0.5s0.9,0.2,1.3,0.5s0.5,0.8,0.5,1.3s-0.2,1-0.5,1.3C494.9,420.7,494.5,420.9,494,420.9z M11.1,12.3H5.9v10.4
	H3.5V0h2.3v10.2H11L18.8,0h2.6L13,11l9,11.6h-2.8L11.1,12.3z M23.6,20.6v7.1h-2.2v-5.1h-2.2v-2.1h4.4L23.6,20.6z M33.4,22.8
	c-1.6,0-3.1-0.4-4.5-1.1c-1.3-0.8-2.4-1.8-3.1-3.1c-0.8-1.3-1.1-2.8-1.1-4.5s0.4-3.1,1.1-4.5c0.8-1.3,1.8-2.3,3.1-3.1
	c1.3-0.7,2.8-1.1,4.5-1.1c1.6,0,3.1,0.4,4.5,1.1s2.4,1.8,3.1,3.1c0.8,1.3,1.1,2.8,1.1,4.5s-0.4,3.1-1.1,4.5
	c-0.7,1.3-1.8,2.3-3.1,3.1C36.6,22.4,35.1,22.8,33.4,22.8z M33.4,20.8c1.2,0,2.3-0.3,3.3-0.8c1-0.6,1.7-1.3,2.3-2.4
	c0.5-1,0.8-2.2,0.8-3.5s-0.3-2.4-0.8-3.5c-0.5-1-1.3-1.8-2.3-2.3c-1-0.6-2-0.8-3.3-0.8c-1.2,0-2.3,0.3-3.3,0.8s-1.7,1.3-2.3,2.3
	c-0.5,1-0.8,2.2-0.8,3.5s0.3,2.4,0.8,3.5c0.6,1,1.3,1.8,2.3,2.4C31.1,20.5,32.2,20.8,33.4,20.8z M60.9,5.6v17h-2.3v-15h-8.2
	l-0.2,4.2C50,15.4,49.6,18.1,49,20c-0.7,1.9-1.8,2.8-3.5,2.8c-0.5,0-1-0.1-1.7-0.3l0.2-2c0.4,0.1,0.7,0.1,0.8,0.1
	c0.9,0,1.6-0.4,2-1.2s0.8-1.8,0.9-3c0.2-1.2,0.3-2.8,0.4-4.8l0.3-6.1h12.5V5.6z M84.2,20.6v6.1H82v-4.1H66.7v4.1h-2.2v-6.1h1
	c1.2-0.1,1.9-0.9,2.3-2.5s0.7-3.9,0.8-6.8l0.2-5.7h12.6v15C81.4,20.6,84.2,20.6,84.2,20.6z M70.8,11.4c-0.1,2.4-0.3,4.4-0.6,6
	c-0.3,1.6-0.8,2.6-1.6,3.2h10.7v-13H71C71,7.6,70.8,11.4,70.8,11.4z M94.6,5.5c2.2,0,3.9,0.6,5.1,1.7s1.8,2.7,1.8,4.9v10.5h-2.2V20
	c-0.5,0.9-1.3,1.6-2.3,2c-1,0.5-2.2,0.7-3.6,0.7c-1.9,0-3.4-0.5-4.6-1.4c-1.1-0.9-1.7-2.1-1.7-3.6c0-1.4,0.5-2.6,1.6-3.5
	s2.7-1.3,5-1.3h5.4v-1c0-1.5-0.4-2.6-1.2-3.3c-0.8-0.8-2-1.2-3.6-1.2c-1.1,0-2.1,0.2-3.1,0.5s-1.9,0.8-2.6,1.5l-1-1.7
	C88.5,7,89.5,6.4,90.7,6C92,5.7,93.3,5.5,94.6,5.5L94.6,5.5z M93.8,21c1.3,0,2.4-0.3,3.4-0.9c0.9-0.6,1.6-1.5,2.1-2.6v-2.8h-5.4
	c-2.9,0-4.4,1-4.4,3c0,1,0.4,1.8,1.1,2.4C91.4,20.7,92.4,21,93.8,21z M107.7,5.6h2.3v7.5h10.8V5.6h2.3v17h-2.3v-7.5H110v7.5h-2.3
	C107.7,22.6,107.7,5.6,107.7,5.6z M135.5,5.5c2.2,0,3.9,0.6,5.1,1.7c1.2,1.1,1.8,2.7,1.8,4.9v10.5h-2.2V20c-0.5,0.9-1.3,1.6-2.3,2.1
	s-2.2,0.7-3.6,0.7c-1.9,0-3.4-0.5-4.6-1.4c-1.1-0.9-1.7-2.1-1.7-3.6c0-1.4,0.5-2.6,1.6-3.5s2.7-1.3,5-1.3h5.4v-1
	c0-1.5-0.4-2.6-1.2-3.3c-0.8-0.8-2-1.2-3.6-1.2c-1.1,0-2.1,0.2-3.1,0.5s-1.9,0.8-2.6,1.5l-1-1.7c0.9-0.7,1.9-1.3,3.1-1.7
	C132.9,5.7,134.2,5.5,135.5,5.5L135.5,5.5z M134.7,21c1.3,0,2.4-0.3,3.4-0.9c0.9-0.6,1.6-1.5,2.1-2.6v-2.8h-5.4c-2.9,0-4.4,1-4.4,3
	c0,1,0.4,1.8,1.1,2.4C132.3,20.7,133.4,21,134.7,21L134.7,21z M157.4,5.5c1.6,0,3.1,0.4,4.4,1.1c1.3,0.7,2.3,1.7,3.1,3
	c0.7,1.3,1.1,2.8,1.1,4.5s-0.4,3.2-1.1,4.5c-0.7,1.3-1.8,2.3-3.1,3.1c-1.3,0.7-2.7,1.1-4.4,1.1c-1.4,0-2.6-0.3-3.8-0.8
	c-1.1-0.6-2-1.4-2.7-2.5V29h-2.3V5.6h2.2V9c0.7-1.1,1.6-2,2.7-2.6C154.7,5.8,156,5.5,157.4,5.5L157.4,5.5z M157.3,20.8
	c1.2,0,2.3-0.3,3.3-0.8c1-0.6,1.7-1.3,2.3-2.4c0.6-1,0.8-2.2,0.8-3.5s-0.3-2.4-0.8-3.4s-1.3-1.8-2.3-2.4s-2.1-0.8-3.3-0.8
	S155,7.8,154,8.3c-1,0.6-1.7,1.3-2.3,2.4c-0.5,1-0.8,2.1-0.8,3.4s0.3,2.4,0.8,3.5c0.6,1,1.3,1.8,2.3,2.4
	C155,20.5,156.1,20.8,157.3,20.8z M185.3,5.5c2.2,0,3.9,0.6,5.1,1.7c1.2,1.1,1.8,2.7,1.8,4.9v10.5H190V20c-0.5,0.9-1.3,1.6-2.3,2.1
	s-2.2,0.7-3.6,0.7c-1.9,0-3.4-0.5-4.6-1.4c-1.1-0.9-1.7-2.1-1.7-3.6c0-1.4,0.5-2.6,1.6-3.5s2.7-1.3,5-1.3h5.4v-1
	c0-1.5-0.4-2.6-1.2-3.3c-0.8-0.8-2-1.2-3.6-1.2c-1,0-2,0.2-3,0.5s-1.9,0.8-2.6,1.5l-1-1.7c0.9-0.7,1.9-1.3,3.1-1.7
	C182.7,5.7,184,5.5,185.3,5.5L185.3,5.5z M184.5,21c1.3,0,2.4-0.3,3.4-0.9c0.9-0.6,1.6-1.5,2.1-2.6v-2.8h-5.4c-2.9,0-4.4,1-4.4,3
	c0,1,0.4,1.8,1.1,2.4C182.1,20.7,183.2,21,184.5,21L184.5,21z M212.4,5.6v17h-2.3v-15h-8.2l-0.2,4.2c-0.2,3.5-0.6,6.2-1.2,8.1
	c-0.7,1.9-1.8,2.8-3.5,2.8c-0.5,0-1-0.1-1.7-0.3l0.2-2c0.4,0.1,0.7,0.1,0.8,0.1c0.9,0,1.6-0.4,2-1.2c0.5-0.8,0.8-1.8,0.9-3
	c0.2-1.2,0.3-2.8,0.4-4.8l0.3-6.1h12.5V5.6z M235.7,20.6v6.1h-2.2v-4.1h-15.3v4.1H216v-6.1h1c1.1-0.1,1.9-0.9,2.3-2.5
	c0.4-1.6,0.7-3.9,0.8-6.8l0.2-5.7H233v15H235.7z M222.3,11.4c-0.1,2.4-0.3,4.4-0.6,6s-0.8,2.6-1.6,3.2h10.7v-13h-8.2L222.3,11.4
	L222.3,11.4z M247.4,11.6c2.1,0,3.8,0.5,4.9,1.4c1.1,0.9,1.7,2.3,1.7,4c0,1.8-0.6,3.2-1.8,4.2s-2.9,1.4-5.2,1.4h-6.8v-17h2.3v5.9
	L247.4,11.6L247.4,11.6z M256.9,5.6h2.3v17h-2.3V5.6z M246.8,20.9c1.6,0,2.8-0.3,3.6-0.9c0.8-0.7,1.2-1.6,1.2-2.9
	c0-1.2-0.4-2.2-1.2-2.8s-2-0.9-3.6-0.9l-4.3-0.1v7.6H246.8z M265.8,5.6h2.3v7.5h10.8V5.6h2.3v17h-2.3v-7.5h-10.8v7.5h-2.3
	C265.8,22.6,265.8,5.6,265.8,5.6z M304.4,20.6v6.1h-2.2v-4.1h-15.3v4.1h-2.2v-6.1h1c1.1-0.1,1.9-0.9,2.3-2.5s0.7-3.9,0.8-6.8
	l0.2-5.7h12.6v15H304.4L304.4,20.6z M291,11.4c-0.1,2.4-0.3,4.4-0.6,6c-0.3,1.6-0.8,2.6-1.6,3.2h10.7v-13h-8.2
	C291.3,7.6,291,11.4,291,11.4z M314.8,5.5c2.2,0,3.9,0.6,5.1,1.7s1.8,2.7,1.8,4.9v10.5h-2.2V20c-0.5,0.9-1.3,1.6-2.3,2.1
	s-2.2,0.7-3.6,0.7c-1.9,0-3.4-0.5-4.6-1.4c-1.1-0.9-1.7-2.1-1.7-3.6c0-1.4,0.5-2.6,1.6-3.5s2.7-1.3,5-1.3h5.4v-1
	c0-1.5-0.4-2.6-1.2-3.3c-0.8-0.8-2-1.2-3.6-1.2c-1.1,0-2.1,0.2-3.1,0.5s-1.9,0.8-2.6,1.5l-1-1.7c0.9-0.7,1.9-1.3,3.1-1.7
	C312.2,5.7,313.5,5.5,314.8,5.5L314.8,5.5z M314,21c1.3,0,2.4-0.3,3.4-0.9c0.9-0.6,1.6-1.5,2.1-2.6v-2.8h-5.4c-2.9,0-4.4,1-4.4,3
	c0,1,0.4,1.8,1.1,2.4C311.6,20.7,312.6,21,314,21L314,21z M19.7,63.7v6.1h-2.2v-4.1H2.2v4.1H0v-6.1h1c1.1-0.1,1.9-0.9,2.3-2.5
	s0.7-3.9,0.8-6.8l0.2-5.7H17v15C17,63.7,19.7,63.7,19.7,63.7z M6.3,54.5C6.2,57,6,59,5.7,60.5c-0.3,1.6-0.8,2.6-1.6,3.2h10.7v-13
	H6.5L6.3,54.5z M30.4,48.6c1.8,0,3.3,0.4,4.7,1.1c1.4,0.7,2.4,1.8,3.2,3.1s1.1,2.8,1.1,4.5s-0.4,3.1-1.1,4.5c-0.7,1.3-1.7,2.3-3,3.1
	C34,65.6,32.6,66,31,66c-1.6,0-3-0.4-4.3-1.1s-2.2-1.7-3-3c-0.7-1.3-1.1-2.8-1.1-4.5v-0.7H37c-0.1-1.8-0.8-3.2-2.1-4.3
	c-1.2-1.1-2.8-1.6-4.7-1.6c-1.1,0-2,0.2-2.9,0.6c-0.9,0.4-1.7,0.9-2.3,1.6l-1.3-1.5c0.8-0.9,1.7-1.6,2.8-2.1
	C27.8,48.8,29,48.6,30.4,48.6z M31,63.9c1.6,0,3-0.5,4.1-1.6s1.8-2.4,1.9-4.1H24.9c0.2,1.7,0.8,3,1.9,4.1S29.3,63.9,31,63.9z
	 M53.1,48.6c1.6,0,3.1,0.4,4.4,1.1c1.3,0.7,2.3,1.7,3.1,3c0.7,1.3,1.1,2.8,1.1,4.5s-0.4,3.2-1.1,4.5c-0.7,1.3-1.8,2.3-3.1,3.1
	c-1.3,0.7-2.7,1.1-4.4,1.1c-1.4,0-2.6-0.3-3.8-0.8c-1.1-0.6-2-1.4-2.7-2.5V72h-2.3V48.7h2.2v3.4c0.7-1.1,1.6-2,2.7-2.6
	C50.4,48.9,51.7,48.6,53.1,48.6z M52.9,63.9c1.2,0,2.3-0.3,3.3-0.8c1-0.6,1.7-1.3,2.3-2.4c0.6-1,0.8-2.2,0.8-3.5s-0.3-2.4-0.8-3.4
	s-1.3-1.8-2.3-2.4c-1-0.6-2.1-0.8-3.3-0.8s-2.3,0.3-3.3,0.8c-1,0.6-1.7,1.3-2.3,2.4c-0.5,1-0.8,2.1-0.8,3.4c0,1.3,0.3,2.4,0.8,3.5
	c0.6,1,1.3,1.8,2.3,2.4C50.6,63.6,51.7,63.9,52.9,63.9z M66.6,48.7h2.3v17h-2.3C66.6,65.7,66.6,48.7,66.6,48.7z M67.8,45
	c-0.5,0-0.9-0.2-1.2-0.5s-0.5-0.7-0.5-1.2c0-0.4,0.2-0.8,0.5-1.1s0.7-0.5,1.2-0.5s0.9,0.2,1.2,0.5c0.3,0.3,0.5,0.7,0.5,1.1
	c0,0.5-0.2,0.9-0.5,1.2C68.6,44.8,68.2,45,67.8,45z M87.6,50.8h-9.8v15h-2.3v-17h12.1C87.6,48.8,87.6,50.8,87.6,50.8z M105.1,57.9
	H90.8c0.1,1.8,0.8,3.2,2.1,4.3c1.2,1.1,2.8,1.6,4.7,1.6c1.1,0,2-0.2,2.9-0.5c0.9-0.4,1.7-0.9,2.3-1.7l1.3,1.5
	c-0.8,0.9-1.7,1.6-2.9,2.1c-1.1,0.5-2.4,0.7-3.7,0.7c-1.8,0-3.3-0.4-4.7-1.1c-1.3-0.8-2.4-1.8-3.2-3.1c-0.8-1.3-1.1-2.8-1.1-4.5
	s0.4-3.1,1.1-4.5c0.7-1.3,1.7-2.3,3-3.1c1.3-0.7,2.7-1.1,4.3-1.1c1.6,0,3,0.4,4.3,1.1c1.3,0.7,2.2,1.8,3,3.1
	c0.7,1.3,1.1,2.8,1.1,4.5L105.1,57.9L105.1,57.9z M96.8,50.6c-1.6,0-3,0.5-4.2,1.6c-1.1,1-1.7,2.4-1.9,4.1h12.1
	c-0.2-1.7-0.8-3-1.9-4.1C99.9,51.1,98.5,50.6,96.8,50.6z M119.1,48.6c1.6,0,3.1,0.4,4.4,1.1c1.3,0.7,2.3,1.7,3.1,3
	c0.7,1.3,1.1,2.8,1.1,4.5s-0.4,3.2-1.1,4.5s-1.8,2.3-3.1,3.1c-1.3,0.7-2.7,1.1-4.4,1.1c-1.4,0-2.6-0.3-3.8-0.8
	c-1.1-0.6-2-1.4-2.7-2.5V72h-2.3V48.7h2.2v3.4c0.7-1.1,1.6-2,2.7-2.6C116.4,48.9,117.7,48.6,119.1,48.6z M118.9,63.9
	c1.2,0,2.3-0.3,3.3-0.8c1-0.6,1.7-1.3,2.3-2.4c0.6-1,0.8-2.2,0.8-3.5s-0.3-2.4-0.8-3.4s-1.3-1.8-2.3-2.4c-1-0.6-2.1-0.8-3.3-0.8
	c-1.2,0-2.3,0.3-3.3,0.8c-1,0.6-1.7,1.3-2.3,2.4c-0.5,1-0.8,2.1-0.8,3.4c0,1.3,0.3,2.4,0.8,3.5c0.6,1,1.3,1.8,2.3,2.4
	C116.6,63.6,117.7,63.9,118.9,63.9z M151.7,48.7v17h-2.1V52.3l-6.9,11.4h-1l-6.9-11.4v13.5h-2.1v-17h2.3l7.3,12.3l7.4-12.3
	L151.7,48.7L151.7,48.7z M173.3,57.9H159c0.1,1.8,0.8,3.2,2.1,4.3c1.2,1.1,2.8,1.6,4.7,1.6c1.1,0,2-0.2,2.9-0.5
	c0.9-0.4,1.7-0.9,2.3-1.7l1.3,1.5c-0.8,0.9-1.7,1.6-2.9,2.1c-1.1,0.5-2.4,0.7-3.7,0.7c-1.8,0-3.3-0.4-4.7-1.1
	c-1.3-0.8-2.4-1.8-3.2-3.1s-1.1-2.8-1.1-4.5s0.4-3.1,1.1-4.5c0.7-1.3,1.7-2.3,3-3.1c1.3-0.7,2.7-1.1,4.3-1.1s3,0.4,4.3,1.1
	c1.3,0.7,2.2,1.8,3,3.1c0.7,1.3,1.1,2.8,1.1,4.5L173.3,57.9L173.3,57.9z M165,50.6c-1.6,0-3,0.5-4.2,1.6c-1.1,1-1.7,2.4-1.9,4.1H171
	c-0.2-1.7-0.8-3-1.9-4.1C168.1,51.1,166.7,50.6,165,50.6z M178.4,48.7h2.3v7.5h10.8v-7.5h2.3v17h-2.3v-7.5h-10.8v7.5h-2.3
	C178.4,65.7,178.4,48.7,178.4,48.7z M215.1,58.2h-3.9v7.6h-2.3v-17h2.3v7.5h3.9l6-7.5h2.5l-6.7,8.2l7.2,8.8h-2.7
	C221.4,65.8,215.1,58.2,215.1,58.2z M242.2,57.9h-14.3c0.1,1.8,0.8,3.2,2,4.3s2.8,1.6,4.7,1.6c1.1,0,2-0.2,2.9-0.5
	c0.9-0.4,1.7-0.9,2.3-1.7l1.3,1.5c-0.8,0.9-1.7,1.6-2.9,2.1c-1.1,0.5-2.4,0.7-3.7,0.7c-1.8,0-3.3-0.4-4.7-1.1
	c-1.3-0.8-2.4-1.8-3.2-3.1s-1.1-2.8-1.1-4.5s0.4-3.1,1.1-4.5c0.7-1.3,1.7-2.3,3-3.1c1.3-0.7,2.7-1.1,4.3-1.1s3,0.4,4.3,1.1
	c1.3,0.7,2.2,1.8,3,3.1c0.7,1.3,1.1,2.8,1.1,4.5L242.2,57.9L242.2,57.9z M233.9,50.6c-1.6,0-3,0.5-4.2,1.6c-1.1,1-1.7,2.4-1.9,4.1
	H240c-0.2-1.7-0.8-3-1.9-4.1C237,51.1,235.6,50.6,233.9,50.6L233.9,50.6z M247.3,48.7h2.3v7.5h10.8v-7.5h2.3v17h-2.3v-7.5h-10.8v7.5
	h-2.3L247.3,48.7L247.3,48.7z M265.5,63.7v5.7h-2.2v-3.7h-2.9v-2C260.4,63.7,265.5,63.7,265.5,63.7z M284.9,57.9h-14.3
	c0.1,1.8,0.8,3.2,2,4.3s2.8,1.6,4.7,1.6c1.1,0,2-0.2,2.9-0.5c0.9-0.4,1.7-0.9,2.3-1.7l1.3,1.5c-0.8,0.9-1.7,1.6-2.9,2.1
	c-1.1,0.5-2.4,0.7-3.7,0.7c-1.8,0-3.3-0.4-4.7-1.1c-1.3-0.8-2.4-1.8-3.2-3.1c-0.8-1.3-1.1-2.8-1.1-4.5s0.4-3.1,1.1-4.5
	c0.7-1.3,1.7-2.3,3-3.1c1.3-0.7,2.7-1.1,4.3-1.1c1.6,0,3,0.4,4.3,1.1c1.3,0.7,2.2,1.8,3,3.1c0.7,1.3,1.1,2.8,1.1,4.5L284.9,57.9
	L284.9,57.9z M276.6,50.6c-1.6,0-3,0.5-4.2,1.6c-1.1,1-1.7,2.4-1.9,4.1h12.1c-0.2-1.7-0.8-3-1.9-4.1
	C279.7,51.1,278.3,50.6,276.6,50.6z M297.2,65.9c-1.7,0-3.2-0.4-4.6-1.1c-1.3-0.7-2.4-1.8-3.1-3.1c-0.8-1.3-1.1-2.8-1.1-4.5
	s0.4-3.1,1.1-4.5c0.8-1.3,1.8-2.3,3.1-3.1c1.3-0.7,2.9-1.1,4.6-1.1c1.5,0,2.8,0.3,3.9,0.9c1.2,0.6,2.1,1.4,2.8,2.5l-1.7,1.2
	c-0.6-0.8-1.3-1.5-2.1-1.9c-0.9-0.4-1.8-0.6-2.8-0.6c-1.2,0-2.4,0.3-3.4,0.8s-1.7,1.3-2.3,2.3c-0.5,1-0.8,2.2-0.8,3.5
	s0.3,2.5,0.8,3.5c0.6,1,1.3,1.8,2.3,2.3s2.1,0.8,3.4,0.8c1,0,2-0.2,2.8-0.6c0.9-0.4,1.6-1,2.1-1.9l1.7,1.2c-0.7,1.1-1.6,1.9-2.8,2.5
	C300,65.6,298.6,65.9,297.2,65.9z M314.6,58.2h-3.9v7.6h-2.3v-17h2.3v7.5h3.9l6-7.5h2.5l-6.7,8.2l7.2,8.8h-2.7
	C320.9,65.8,314.6,58.2,314.6,58.2z M341.7,57.9h-14.3c0.1,1.8,0.8,3.2,2.1,4.3c1.2,1.1,2.8,1.6,4.7,1.6c1.1,0,2-0.2,2.9-0.5
	c0.9-0.4,1.7-0.9,2.3-1.7l1.3,1.5c-0.8,0.9-1.7,1.6-2.9,2.1c-1.1,0.5-2.4,0.7-3.7,0.7c-1.8,0-3.3-0.4-4.7-1.1
	c-1.3-0.8-2.4-1.8-3.2-3.1c-0.8-1.3-1.1-2.8-1.1-4.5s0.4-3.1,1.1-4.5c0.7-1.3,1.7-2.3,3-3.1c1.3-0.7,2.7-1.1,4.3-1.1
	c1.6,0,3,0.4,4.3,1.1c1.3,0.7,2.2,1.8,3,3.1c0.7,1.3,1.1,2.8,1.1,4.5L341.7,57.9L341.7,57.9z M333.4,50.6c-1.6,0-3,0.5-4.2,1.6
	c-1.1,1-1.7,2.4-1.9,4.1h12.1c-0.2-1.7-0.8-3-1.9-4.1S335.1,50.6,333.4,50.6z M346.8,48.7h2.3v7.5h10.8v-7.5h2.3v17h-2.3v-7.5h-10.8
	v7.5h-2.3C346.8,65.7,346.8,48.7,346.8,48.7z M392.3,58.2h-3.7v7.6h-2.3v-7.6h-3.7l-5.2,7.6h-2.8l6.2-8.8l-5.7-8.2h2.5l5,7.5h3.7
	v-7.5h2.3v7.5h3.7l5-7.5h2.5l-5.7,8.3l6.2,8.7h-2.8C397.5,65.8,392.3,58.2,392.3,58.2z M410.8,48.6c1.7,0,3.2,0.4,4.6,1.1
	c1.3,0.7,2.4,1.8,3.2,3.1c0.8,1.3,1.2,2.8,1.2,4.5s-0.4,3.1-1.2,4.5c-0.8,1.3-1.8,2.3-3.2,3.1c-1.3,0.7-2.9,1.1-4.6,1.1
	s-3.2-0.4-4.6-1.1c-1.3-0.8-2.4-1.8-3.2-3.1c-0.8-1.3-1.1-2.8-1.1-4.5s0.4-3.1,1.1-4.5c0.8-1.3,1.8-2.3,3.2-3.1
	C407.6,49,409.1,48.6,410.8,48.6z M410.8,50.4c-1.8,0-3.3,0.5-4.6,1.6c-1.2,1.1-1.9,2.5-2.1,4.3h13.3c-0.2-1.8-0.9-3.2-2.1-4.3
	C414.1,51,412.6,50.4,410.8,50.4L410.8,50.4z M410.8,64c1.8,0,3.3-0.5,4.5-1.6s1.9-2.5,2.1-4.3h-13.3c0.2,1.8,0.9,3.2,2.1,4.3
	C407.5,63.5,409,64,410.8,64L410.8,64z M424.6,48.7h2.3v7.5h10.8v-7.5h2.3v17h-2.3v-7.5h-10.8v7.5h-2.3
	C424.6,65.7,424.6,48.7,424.6,48.7z"/>
</svg>
