<svg version="1.1" id="Layer_1" xmlns="http://www.w3.org/2000/svg" x="0" y="0" viewBox="0 0 167.3 72.7" style="enable-background:new 0 0 167.3 72.7" xml:space="preserve"><style>.st0{fill:#060315}</style><path class="st0" d="M22.9 48.3c-.7-.5-1.5-.8-2.4-1-.9-.2-1.8-.3-2.7-.3-1.3 0-2.5.2-3.5.6-1.1.4-2 .9-2.7 1.7-.7.8-1.3 1.7-1.6 2.8l4.1.6c.2-.6.6-1.2 1.3-1.7.6-.5 1.5-.7 2.5-.7s1.8.2 2.3.7c.5.5.8 1.2.8 2.1v.1c0 .4-.2.7-.5.9-.3.2-.8.3-1.5.4-.7.1-1.6.2-2.6.3-.9.1-1.8.3-2.6.5s-1.6.5-2.3.9c-.7.4-1.2 1-1.6 1.6-.4.7-.6 1.5-.6 2.6 0 1.2.3 2.2.8 3.1.5.8 1.3 1.5 2.2 1.9.9.4 2 .6 3.2.6 1 0 1.8-.1 2.5-.4.7-.3 1.3-.6 1.8-1.1.5-.5.9-.9 1.1-1.4h.1v2.5h4.2V53.3c0-1.2-.2-2.3-.7-3.1-.3-.8-.9-1.4-1.6-1.9zM21 59.1c0 .7-.2 1.3-.5 1.9-.3.6-.8 1-1.5 1.4-.6.3-1.4.5-2.3.5-.9 0-1.7-.2-2.2-.6-.6-.4-.9-1-.9-1.8 0-.6.1-1 .4-1.4.3-.4.7-.6 1.2-.8.5-.2 1.1-.3 1.8-.4.3 0 .6-.1 1-.1.4-.1.8-.1 1.2-.2.4-.1.8-.2 1.1-.3.3-.1.6-.2.7-.3v2.1zM52 24.7h4.2V6.2H42.7l-.3 8.2c0 1.3-.1 2.4-.3 3.2-.1.9-.3 1.6-.5 2.1s-.5.9-.8 1.1-.7.3-1.2.3H39v3.6h1.4c1 0 1.9-.2 2.6-.5.7-.4 1.3-.9 1.8-1.6.5-.7.9-1.7 1.1-2.8.3-1.1.4-2.5.5-4l.3-6H52v14.9zM31 23.6c.5-.5.9-.9 1.1-1.4h.1v2.5h4.2V12.3c0-1.2-.2-2.3-.7-3.1-.4-.8-1-1.5-1.8-1.9-.7-.5-1.5-.8-2.4-1s-1.6-.4-2.5-.4c-1.3 0-2.5.2-3.5.6-1.1.4-2 .9-2.7 1.7-.8.8-1.4 1.7-1.7 2.9l4.1.6c.2-.6.6-1.2 1.3-1.7.6-.5 1.5-.7 2.5-.7s1.8.2 2.3.7.8 1.2.8 2.1v.1c0 .4-.2.7-.5.9-.3.2-.8.3-1.5.4-.7.1-1.6.2-2.6.3-.9.1-1.8.3-2.6.5s-1.6.5-2.3.9c-.7.4-1.2 1-1.6 1.6s-.6 1.5-.6 2.6c0 1.2.3 2.2.8 3.1.5.8 1.3 1.5 2.2 1.9.9.4 2 .6 3.2.6 1 0 1.8-.1 2.5-.4.9-.2 1.5-.5 1.9-1zm-5.4-2.3c-.6-.4-.9-1-.9-1.8 0-.6.1-1 .4-1.4.3-.4.7-.6 1.2-.8.5-.2 1.1-.3 1.8-.4.3 0 .6-.1 1-.1.4-.1.8-.1 1.2-.2.4-.1.8-.2 1.1-.3.3-.1.6-.2.7-.3v2.2c0 .7-.2 1.3-.5 1.9-.3.6-.8 1-1.5 1.4-.6.3-1.4.5-2.3.5-.9-.1-1.6-.3-2.2-.7zM61 54.6h-7.2v-7.4h-4.2v18.5h4.2v-7.5H61v7.5h4.2V47.2H61zM42.8 48c-1.2-.7-2.4-1.1-3.9-1.1-1.1 0-2 .2-2.7.6-.7.4-1.3.8-1.7 1.3-.4.5-.7 1-1 1.4h-.3v-3.1H29v25.5h4.4v-9.9h.2c.2.5.6.9 1 1.4.4.5 1 .9 1.7 1.3s1.6.5 2.6.5c1.5 0 2.8-.4 3.9-1.1 1.2-.7 2.1-1.8 2.7-3.3.7-1.4 1-3.2 1-5.2 0-2.1-.3-3.8-1-5.2-.7-1.3-1.6-2.3-2.7-3.1zm-1.2 11.6c-.3.9-.8 1.6-1.5 2.1s-1.5.8-2.4.8c-.9 0-1.7-.2-2.4-.7-.6-.5-1.1-1.2-1.5-2.1-.3-.9-.5-2-.5-3.2 0-1.2.2-2.2.5-3.1.3-.9.8-1.6 1.5-2.1s1.4-.7 2.4-.7 1.8.3 2.4.8c.7.5 1.1 1.2 1.5 2.1s.5 1.9.5 3.1c0 1-.2 2-.5 3zM17.2 21c.7-1.2 1.1-2.5 1.1-4s-.4-2.8-1.1-3.9c-.7-1.1-1.8-2-3.1-2.6-1.4-.6-3-.9-4.9-.9H4.5V3.8h11.4V0H0v24.7h9.2c1.9 0 3.5-.3 4.9-1 1.4-.6 2.4-1.5 3.1-2.7zm-3.8-2c-.4.6-.9 1.1-1.6 1.5-.7.4-1.5.6-2.5.6H4.5v-7.9h4.8c1.5 0 2.6.4 3.4 1.1.8.7 1.2 1.6 1.2 2.7 0 .7-.2 1.4-.5 2zM70.7 22.2h.1v2.5H75V12.3c0-1.2-.2-2.3-.7-3.1-.4-.8-1-1.5-1.8-1.9-.7-.5-1.5-.8-2.4-1-.9-.2-1.8-.3-2.7-.3-1.3 0-2.5.2-3.5.6-1.1.4-2 .9-2.7 1.7-.7.7-1.2 1.6-1.5 2.8l4.1.6c.2-.7.6-1.2 1.2-1.7s1.5-.7 2.5-.7 1.8.2 2.3.7.8 1.2.8 2.1v.1c0 .4-.2.7-.5.9-.3.2-.8.3-1.5.4-.7.1-1.6.2-2.6.3-.9.1-1.8.3-2.6.5s-1.6.5-2.3.9c-.7.4-1.2 1-1.6 1.6-.4.7-.6 1.5-.6 2.6 0 1.2.3 2.2.8 3.1.5.8 1.3 1.5 2.2 1.9.9.4 2 .6 3.2.6 1 0 1.8-.1 2.5-.4.7-.3 1.3-.6 1.8-1.1.7-.3 1-.8 1.3-1.3zm-2-.8c-.6.3-1.4.5-2.3.5-.9 0-1.7-.2-2.2-.6s-.9-1-.9-1.8c0-.6.1-1 .4-1.4.3-.4.7-.6 1.2-.8.5-.2 1.1-.3 1.8-.4.3 0 .6-.1 1-.1.4-.1.8-.1 1.2-.2.4-.1.8-.2 1.1-.3.3-.1.6-.2.7-.3v2.2c0 .7-.2 1.3-.5 1.9-.4.4-.9.9-1.5 1.3zM142.2 24.7v-8.4h3.7v-2.8h-3.7V9.8h8V6.2h-12.3v7.4h-3.2c-.2-1.2-.4-2.4-.9-3.3-.7-1.4-1.6-2.5-2.8-3.2-1.2-.7-2.4-1.1-3.9-1.1-1.1 0-2 .2-2.7.6-.7.4-1.3.8-1.7 1.3-.4.5-.7 1-1 1.4h-.3V6.2h-4.3v25.5h4.4v-9.9h.2c.2.5.6.9 1 1.4.4.5 1 .9 1.7 1.3s1.6.5 2.6.5c1.5 0 2.8-.4 3.9-1.1s2.1-1.8 2.7-3.3c.6-1.2.9-2.7 1-4.3h3.1v8.4h4.5zm-12.3-6.1c-.3.9-.8 1.6-1.5 2.1s-1.5.8-2.4.8c-.9 0-1.7-.2-2.4-.7-.6-.5-1.1-1.2-1.5-2.1-.3-.9-.5-2-.5-3.2 0-1.2.2-2.2.5-3.1.3-.9.8-1.6 1.5-2.1s1.4-.7 2.4-.7 1.8.3 2.4.8c.7.5 1.1 1.2 1.5 2.1.3.9.5 1.9.5 3.1 0 1-.2 2-.5 3zM152.1 54.6h-7.2v-7.4h-4.2v18.5h4.2v-7.5h7.2v7.5h4.2V47.2h-4.2zM134.5 48.3c-.7-.5-1.5-.8-2.4-1-.9-.2-1.8-.3-2.7-.3-1.3 0-2.5.2-3.5.6-1.1.4-2 .9-2.7 1.7-.7.8-1.3 1.7-1.6 2.8l4.1.6c.2-.6.6-1.2 1.3-1.7.6-.5 1.5-.7 2.5-.7s1.8.2 2.3.7c.5.5.8 1.2.8 2.1v.1c0 .4-.2.7-.5.9-.3.2-.8.3-1.5.4-.7.1-1.6.2-2.6.3-.9.1-1.8.3-2.6.5s-1.6.5-2.3.9c-.7.4-1.2 1-1.6 1.6-.4.7-.6 1.5-.6 2.6 0 1.2.3 2.2.8 3.1.5.8 1.3 1.5 2.2 1.9.9.4 2 .6 3.2.6 1 0 1.8-.1 2.5-.4.7-.3 1.3-.6 1.8-1.1.5-.5.9-.9 1.1-1.4h.1v2.5h4.2V53.3c0-1.2-.2-2.3-.7-3.1-.3-.8-.9-1.4-1.6-1.9zm-1.9 10.8c0 .7-.2 1.3-.5 1.9-.3.6-.8 1-1.5 1.4-.6.3-1.4.5-2.3.5-.9 0-1.7-.2-2.2-.6-.6-.4-.9-1-.9-1.8 0-.6.1-1 .4-1.4.3-.4.7-.6 1.2-.8.5-.2 1.1-.3 1.8-.4.3 0 .6-.1 1-.1.4-.1.8-.1 1.2-.2.4-.1.8-.2 1.1-.3.3-.1.6-.2.7-.3v2.1zM166.7 9.2c-.4-.8-1-1.5-1.8-1.9-.7-.5-1.5-.8-2.4-1-.9-.2-1.8-.3-2.7-.3-1.3 0-2.5.2-3.5.6-1.1.4-2 .9-2.7 1.7-.7.8-1.3 1.7-1.6 2.8l4.1.6c.2-.6.6-1.2 1.3-1.7.6-.5 1.5-.7 2.5-.7s1.8.2 2.3.7c.5.5.8 1.2.8 2.1v.1c0 .4-.2.7-.5.9-.3.2-.8.3-1.5.4-.7.1-1.6.2-2.6.3-.9.1-1.8.3-2.6.5s-1.6.5-2.3.9c-.7.4-1.2 1-1.6 1.6s-.6 1.5-.6 2.6c0 1.2.3 2.2.8 3.1.5.8 1.3 1.5 2.2 1.9.9.4 2 .6 3.2.6 1 0 1.8-.1 2.5-.4.7-.3 1.3-.6 1.8-1.1.5-.5.9-.9 1.1-1.4h.1v2.5h4.2V12.3c.1-1.2-.1-2.2-.5-3.1zm-3.7 8.9c0 .7-.2 1.3-.5 1.9-.3.6-.8 1-1.5 1.4-.6.3-1.4.5-2.3.5-.9 0-1.7-.2-2.2-.6-.6-.4-.9-1-.9-1.8 0-.6.1-1 .4-1.4.3-.4.7-.6 1.2-.8.5-.2 1.1-.3 1.8-.4.3 0 .6-.1 1-.1.4-.1.8-.1 1.2-.2.4-.1.8-.2 1.1-.3.3-.1.6-.2.7-.3v2.1zM107.5 54.6h-3.6v2.7h3.6v8.4h4.3v-8.4h3.6v-2.7h-3.6v-3.8h8v-3.6h-12.3zM90.5 24.7h4.2V6.2H81.2l-.3 8.2c0 1.3-.1 2.4-.3 3.2-.1.9-.3 1.6-.5 2.1s-.5.9-.8 1.1c-.3.2-.7.3-1.2.3h-.6v3.6h1.4c1 0 1.9-.2 2.6-.5.7-.4 1.3-.9 1.8-1.6.5-.7.9-1.7 1.1-2.8.3-1.1.4-2.5.5-4l.3-6h5.3v14.9zM89.9 55.4c0 1.3-.1 2.4-.3 3.2-.1.9-.3 1.6-.5 2.1s-.5.9-.8 1.1c-.3.2-.7.3-1.2.3h-.6v3.6h1.4c1 0 1.9-.2 2.6-.5.7-.4 1.3-.9 1.8-1.6.5-.7.9-1.7 1.1-2.8.3-1.1.4-2.5.5-4l.3-6h5.3v15h4.2V47.2H90.2l-.3 8.2zM108.1 23.6c.5-.5.9-.9 1.1-1.4h.1v2.5h4.2V12.3c0-1.2-.2-2.3-.7-3.1-.4-.8-1-1.5-1.8-1.9-.7-.5-1.5-.8-2.4-1-.9-.2-1.8-.3-2.7-.3-1.3 0-2.5.2-3.5.6-1.1.4-2 .9-2.7 1.7-.7.8-1.3 1.7-1.6 2.8l4.1.6c.2-.6.6-1.2 1.3-1.7.6-.5 1.5-.7 2.5-.7s1.8.2 2.3.7c.5.5.8 1.2.8 2.1v.1c0 .4-.2.7-.5.9-.3.2-.8.3-1.5.4-.7.1-1.6.2-2.6.3-.9.1-1.8.3-2.6.5s-1.6.5-2.3.9c-.7.4-1.2 1-1.6 1.6-.4.7-.6 1.5-.6 2.6 0 1.2.3 2.2.8 3.1.5.8 1.3 1.5 2.2 1.9.9.4 2 .6 3.2.6 1 0 1.8-.1 2.5-.4 1-.2 1.6-.5 2-1zm-5.4-2.3c-.6-.4-.9-1-.9-1.8 0-.6.1-1 .4-1.4.3-.4.7-.6 1.2-.8.5-.2 1.1-.3 1.8-.4.3 0 .6-.1 1-.1.4-.1.8-.1 1.2-.2.4-.1.8-.2 1.1-.3.3-.1.6-.2.7-.3v2.2c0 .7-.2 1.3-.5 1.9-.3.6-.8 1-1.5 1.4-.6.3-1.4.5-2.3.5-.9-.1-1.6-.3-2.2-.7zM81.6 48.3c-.7-.5-1.5-.8-2.4-1-.9-.2-1.8-.3-2.7-.3-1.3 0-2.5.2-3.5.6-1.1.4-2 .9-2.7 1.7-.7.8-1.3 1.7-1.6 2.8l4.1.6c.2-.7.6-1.2 1.2-1.7s1.5-.7 2.5-.7 1.8.2 2.3.7c.5.5.8 1.2.8 2.1v.1c0 .4-.2.7-.5.9-.3.2-.8.3-1.5.4-.7.1-1.6.2-2.6.3-.9.1-1.8.3-2.6.5s-1.6.5-2.3.9c-.7.4-1.2 1-1.6 1.6-.4.7-.6 1.5-.6 2.6 0 1.2.3 2.2.8 3.1.5.8 1.3 1.5 2.2 1.9.9.4 2 .6 3.2.6 1 0 1.8-.1 2.5-.4.7-.3 1.3-.6 1.8-1.1.5-.5.9-.9 1.1-1.4h.1v2.5h4.2V53.3c0-1.2-.2-2.3-.7-3.1-.2-.8-.7-1.4-1.5-1.9zm-1.9 10.8c0 .7-.2 1.3-.5 1.9-.3.6-.8 1-1.5 1.4-.6.3-1.4.5-2.3.5-.9 0-1.7-.2-2.2-.6-.6-.4-.9-1-.9-1.8 0-.6.1-1 .4-1.4.3-.4.7-.6 1.2-.8.5-.2 1.1-.3 1.8-.4.3 0 .6-.1 1-.1.4-.1.8-.1 1.2-.2.4-.1.8-.2 1.1-.3.3-.1.6-.2.7-.3v2.1z"/></svg>