<?xml version="1.0" encoding="utf-8"?>
<!-- Generator: Adobe Illustrator 25.2.3, SVG Export Plug-In . SVG Version: 6.00 Build 0)  -->
<svg version="1.1" id="Layer_1" xmlns="http://www.w3.org/2000/svg" xmlns:xlink="http://www.w3.org/1999/xlink" x="0px" y="0px"
	 viewBox="0 0 1363.9 245" style="enable-background:new 0 0 1363.9 245;" xml:space="preserve">
<style type="text/css">
	.st0{fill:#060315;}
</style>
<path class="st0" d="M754.4,26.6V2h18.3v24.6h-3V4.7h-12.2v21.9H754.4z M786.1,7.8c1.6,0,2.9,0.3,4,1c1.1,0.7,2,1.7,2.6,2.9
	c0.6,1.2,0.9,2.7,0.9,4.4V18H781c0,2.1,0.6,3.7,1.6,4.8c1,1.1,2.5,1.6,4.3,1.6c1.2,0,2.2-0.1,3.1-0.3c0.9-0.2,1.8-0.6,2.8-1v2.7
	c-0.9,0.4-1.9,0.7-2.8,0.9c-0.9,0.2-2,0.3-3.3,0.3c-1.7,0-3.3-0.4-4.6-1.1c-1.3-0.7-2.4-1.8-3.1-3.2c-0.7-1.4-1.1-3.2-1.1-5.2
	s0.3-3.8,1-5.2c0.7-1.4,1.6-2.6,2.8-3.3C783.1,8.2,784.5,7.8,786.1,7.8z M786.1,10.3c-1.4,0-2.6,0.5-3.4,1.4
	c-0.8,0.9-1.3,2.2-1.5,3.9h9.3c0-1.1-0.2-2-0.5-2.8s-0.8-1.4-1.5-1.8C787.9,10.5,787.1,10.3,786.1,10.3L786.1,10.3z M807.1,7.8
	c2.3,0,4.1,0.8,5.4,2.4c1.4,1.6,2.1,4,2.1,7.2c0,2.1-0.3,3.9-1,5.3c-0.6,1.4-1.5,2.5-2.6,3.2s-2.4,1.1-4,1.1c-0.9,0-1.8-0.1-2.5-0.4
	c-0.7-0.3-1.4-0.6-1.9-1s-0.9-0.9-1.3-1.3h-0.2c0,0.4,0.1,0.9,0.1,1.5s0.1,1.1,0.1,1.6V35h-3V8.1h2.5l0.4,2.5h0.1
	c0.4-0.5,0.8-1,1.3-1.4s1.1-0.8,1.8-1C805.2,7.9,806.1,7.8,807.1,7.8L807.1,7.8z M806.5,10.3c-1.2,0-2.2,0.2-3,0.7s-1.3,1.2-1.6,2.1
	s-0.5,2.1-0.5,3.6v0.6c0,1.5,0.2,2.8,0.5,3.9s0.9,1.9,1.6,2.4c0.8,0.6,1.8,0.8,3.1,0.8c1.1,0,2-0.3,2.7-0.9s1.3-1.5,1.6-2.5
	c0.4-1.1,0.5-2.3,0.5-3.7c0-2.1-0.4-3.8-1.2-5.1C809.5,11,808.2,10.3,806.5,10.3L806.5,10.3z M826.5,7.8c1.6,0,2.9,0.3,4,1
	c1.1,0.7,2,1.7,2.6,2.9c0.6,1.2,0.9,2.7,0.9,4.4V18h-12.6c0,2.1,0.6,3.7,1.6,4.8c1,1.1,2.5,1.6,4.3,1.6c1.2,0,2.2-0.1,3.1-0.3
	c0.9-0.2,1.8-0.6,2.8-1v2.7c-0.9,0.4-1.9,0.7-2.8,0.9c-0.9,0.2-2,0.3-3.3,0.3c-1.7,0-3.3-0.4-4.6-1.1c-1.3-0.7-2.4-1.8-3.1-3.2
	c-0.7-1.4-1.1-3.2-1.1-5.2s0.3-3.8,1-5.2c0.7-1.4,1.6-2.6,2.8-3.3C823.5,8.2,824.9,7.8,826.5,7.8L826.5,7.8z M826.5,10.3
	c-1.4,0-2.6,0.5-3.4,1.4c-0.8,0.9-1.3,2.2-1.5,3.9h9.3c0-1.1-0.2-2-0.5-2.8s-0.8-1.4-1.5-1.8C828.3,10.5,827.5,10.3,826.5,10.3
	L826.5,10.3z M852.4,8.1V24h2.7v9h-2.9v-6.4h-12.8V33h-2.9v-9h1.5c1-1.5,1.9-3.1,2.6-4.8c0.7-1.7,1.2-3.6,1.6-5.4
	c0.4-1.9,0.6-3.8,0.6-5.7L852.4,8.1L852.4,8.1z M845.4,10.5c-0.1,1.6-0.3,3.2-0.7,4.9c-0.4,1.7-0.9,3.2-1.5,4.8
	c-0.6,1.5-1.3,2.8-2.1,3.9h8.4V10.5H845.4L845.4,10.5z M883.5,8.1v18.5h-3V10.7H871v15.9h-3V8.1H883.5L883.5,8.1z M898.1,7.8
	c2.3,0,4.1,0.8,5.4,2.4c1.4,1.6,2.1,4,2.1,7.2c0,2.1-0.3,3.9-1,5.3c-0.6,1.4-1.5,2.5-2.6,3.2s-2.4,1.1-4,1.1c-0.9,0-1.8-0.1-2.5-0.4
	s-1.4-0.6-1.9-1s-0.9-0.9-1.3-1.3h-0.2c0,0.4,0.1,0.9,0.1,1.5s0.1,1.1,0.1,1.6V35h-3V8.1h2.5l0.4,2.5h0.1c0.4-0.5,0.8-1,1.3-1.4
	s1.1-0.8,1.8-1C896.3,7.9,897.1,7.8,898.1,7.8L898.1,7.8z M897.6,10.3c-1.2,0-2.2,0.2-3,0.7s-1.3,1.2-1.6,2.1s-0.5,2.1-0.5,3.6v0.6
	c0,1.5,0.2,2.8,0.5,3.9s0.9,1.9,1.6,2.4c0.8,0.6,1.8,0.8,3.1,0.8c1.1,0,2-0.3,2.7-0.9s1.3-1.5,1.6-2.5c0.4-1.1,0.5-2.3,0.5-3.7
	c0-2.1-0.4-3.8-1.2-5.1C900.5,11,899.2,10.3,897.6,10.3L897.6,10.3z M913.3,19.4v2.1c0,0.4,0,0.8-0.1,1.2c0,0.4,0,0.7-0.1,0.9
	l9.8-15.5h3.7v18.5h-2.8V14.3c0-0.6,0-1.2,0.1-1.8c0-0.6,0-1,0.1-1.3l-9.8,15.4h-3.7V8.1h2.8C913.3,8.1,913.3,19.4,913.3,19.4z
	 M952.1,8.1v18.5h-2.7V13.3c0-0.5,0.1-1,0.1-1.6h-0.1l-6,14.9H941l-5.8-14.9H935c0,0.5,0.1,1,0.1,1.6v13.3h-2.7V8.1h4l5.8,14.9
	l5.9-14.9L952.1,8.1L952.1,8.1z M965,7.8c1.6,0,2.9,0.3,4,1c1.1,0.7,2,1.7,2.6,2.9c0.6,1.2,0.9,2.7,0.9,4.4V18H960
	c0,2.1,0.6,3.7,1.6,4.8c1,1.1,2.5,1.6,4.3,1.6c1.2,0,2.2-0.1,3.1-0.3c0.9-0.2,1.8-0.6,2.8-1v2.7c-0.9,0.4-1.9,0.7-2.8,0.9
	c-0.9,0.2-2,0.3-3.2,0.3c-1.7,0-3.3-0.4-4.6-1.1c-1.3-0.7-2.4-1.8-3.1-3.2c-0.7-1.4-1.1-3.2-1.1-5.2s0.3-3.8,1-5.2
	c0.7-1.4,1.6-2.6,2.8-3.3C962,8.2,963.4,7.8,965,7.8L965,7.8z M965,10.3c-1.4,0-2.6,0.5-3.4,1.4c-0.8,0.9-1.3,2.2-1.5,3.9h9.3
	c0-1.1-0.2-2-0.5-2.8s-0.8-1.4-1.5-1.8C966.9,10.5,966,10.3,965,10.3L965,10.3z M980.3,8.1v7.7h10V8.1h3v18.5h-3v-8.2h-10v8.2h-3
	V8.1C977.3,8.1,980.3,8.1,980.3,8.1z M1006.2,7.8c1.6,0,2.9,0.3,4,1c1.1,0.7,2,1.7,2.6,2.9c0.6,1.2,0.9,2.7,0.9,4.4V18h-12.6
	c0,2.1,0.6,3.7,1.6,4.8c1,1.1,2.4,1.6,4.3,1.6c1.2,0,2.2-0.1,3.1-0.3c0.9-0.2,1.8-0.6,2.8-1v2.7c-0.9,0.4-1.9,0.7-2.8,0.9
	s-2,0.3-3.2,0.3c-1.7,0-3.3-0.4-4.6-1.1c-1.3-0.7-2.4-1.8-3.1-3.2c-0.7-1.4-1.1-3.2-1.1-5.2s0.3-3.8,1-5.2c0.7-1.4,1.6-2.6,2.8-3.3
	C1003.1,8.2,1004.5,7.8,1006.2,7.8L1006.2,7.8z M1006.1,10.3c-1.4,0-2.6,0.5-3.4,1.4s-1.3,2.2-1.5,3.9h9.3c0-1.1-0.2-2-0.5-2.8
	s-0.8-1.4-1.5-1.8C1008,10.5,1007.2,10.3,1006.1,10.3z M1021.4,8.1v7.7h10V8.1h3v18.5h-3v-8.2h-10v8.2h-3V8.1
	C1018.4,8.1,1021.4,8.1,1021.4,8.1z M1043,19.4v2.1c0,0.4,0,0.8-0.1,1.2c0,0.4-0.1,0.7-0.1,0.9l9.8-15.5h3.7v18.5h-2.8V14.3
	c0-0.6,0-1.2,0.1-1.8c0-0.6,0.1-1,0.1-1.3l-9.8,15.4h-3.7V8.1h2.8C1043,8.1,1043,19.4,1043,19.4z M1069.3,7.8c1.6,0,2.9,0.3,4,1
	c1.1,0.7,2,1.7,2.6,2.9c0.6,1.2,0.9,2.7,0.9,4.4V18h-12.6c0,2.1,0.6,3.7,1.6,4.8c1,1.1,2.5,1.6,4.3,1.6c1.2,0,2.2-0.1,3.1-0.3
	c0.9-0.2,1.9-0.6,2.8-1v2.7c-0.9,0.4-1.9,0.7-2.8,0.9s-2,0.3-3.2,0.3c-1.7,0-3.3-0.4-4.6-1.1c-1.3-0.7-2.4-1.8-3.1-3.2
	c-0.7-1.4-1.1-3.2-1.1-5.2s0.3-3.8,1-5.2c0.7-1.4,1.6-2.6,2.8-3.3C1066.2,8.2,1067.7,7.8,1069.3,7.8L1069.3,7.8z M1069.2,10.3
	c-1.4,0-2.6,0.5-3.4,1.4s-1.3,2.2-1.5,3.9h9.3c0-1.1-0.2-2-0.5-2.8s-0.8-1.4-1.5-1.8C1071.1,10.5,1070.3,10.3,1069.2,10.3z
	 M1101.2,8.1v18.5h-2.7V13.3c0-0.5,0.1-1,0.1-1.6h-0.1l-6,14.9h-2.5l-5.8-14.9h-0.1c0,0.5,0.1,1,0.1,1.6v13.3h-2.7V8.1h4l5.8,14.9
	l5.9-14.9L1101.2,8.1L1101.2,8.1z M1125.2,7.8c2.3,0,4.1,0.8,5.4,2.4c1.4,1.6,2.1,4,2.1,7.2c0,2.1-0.3,3.9-1,5.3
	c-0.6,1.4-1.5,2.5-2.6,3.2s-2.4,1.1-4,1.1c-0.9,0-1.8-0.1-2.5-0.4s-1.4-0.6-1.9-1s-0.9-0.9-1.3-1.3h-0.2c0.1,0.4,0.1,0.9,0.1,1.5
	c0.1,0.6,0.1,1.1,0.1,1.6V35h-3V8.1h2.5l0.4,2.5h0.1c0.4-0.5,0.8-1,1.3-1.4s1.1-0.8,1.8-1C1123.3,7.9,1124.2,7.8,1125.2,7.8z
	 M1124.6,10.3c-1.2,0-2.2,0.2-3,0.7s-1.3,1.2-1.6,2.1c-0.3,0.9-0.5,2.1-0.6,3.6v0.6c0,1.5,0.2,2.8,0.5,3.9s0.8,1.9,1.6,2.4
	c0.8,0.6,1.8,0.8,3.1,0.8c1.1,0,2-0.3,2.7-0.9s1.3-1.5,1.6-2.5c0.4-1.1,0.5-2.3,0.5-3.7c0-2.1-0.4-3.8-1.2-5.1
	C1127.6,11,1126.3,10.3,1124.6,10.3z M1144.6,7.8c1.6,0,2.9,0.3,4,1c1.1,0.7,2,1.7,2.6,2.9c0.6,1.2,0.9,2.7,0.9,4.4V18h-12.6
	c0.1,2.1,0.6,3.7,1.6,4.8c1,1.1,2.4,1.6,4.3,1.6c1.2,0,2.2-0.1,3.1-0.3c0.9-0.2,1.8-0.6,2.8-1v2.7c-0.9,0.4-1.9,0.7-2.8,0.9
	s-2,0.3-3.2,0.3c-1.7,0-3.3-0.4-4.6-1.1c-1.3-0.7-2.4-1.8-3.1-3.2c-0.7-1.4-1.1-3.2-1.1-5.2s0.3-3.8,1-5.2c0.7-1.4,1.6-2.6,2.8-3.3
	C1141.5,8.2,1143,7.8,1144.6,7.8L1144.6,7.8z M1144.6,10.3c-1.4,0-2.6,0.5-3.4,1.4s-1.3,2.2-1.5,3.9h9.3c0-1.1-0.2-2-0.5-2.8
	s-0.8-1.4-1.5-1.8C1146.4,10.5,1145.6,10.3,1144.6,10.3z M1167.7,8.1h3.3l-7.8,8.9l8.5,9.6h-3.5l-8.3-9.4v9.4h-3V8.1h3v9
	C1159.9,17.1,1167.7,8.1,1167.7,8.1z M1190.2,17.3c0,1.5-0.2,2.9-0.6,4.1s-1,2.2-1.7,3c-0.7,0.8-1.6,1.5-2.7,1.9
	c-1.1,0.4-2.2,0.6-3.5,0.6c-1.2,0-2.3-0.2-3.4-0.6c-1-0.4-1.9-1.1-2.7-1.9c-0.8-0.8-1.3-1.8-1.8-3c-0.4-1.2-0.6-2.6-0.6-4.1
	c0-2,0.3-3.8,1-5.2c0.7-1.4,1.7-2.5,2.9-3.2c1.3-0.8,2.8-1.1,4.6-1.1c1.7,0,3.1,0.4,4.4,1.1c1.3,0.7,2.3,1.8,3,3.2
	C1189.8,13.6,1190.2,15.3,1190.2,17.3L1190.2,17.3z M1176.3,17.3c0,1.4,0.2,2.7,0.6,3.8c0.4,1.1,1,1.9,1.8,2.4
	c0.8,0.6,1.8,0.9,3,0.9s2.2-0.3,3-0.9s1.4-1.4,1.8-2.4c0.4-1.1,0.6-2.3,0.6-3.8s-0.2-2.7-0.6-3.8c-0.4-1-1-1.8-1.8-2.4
	s-1.8-0.9-3.1-0.9c-1.9,0-3.2,0.6-4.1,1.9C1176.8,13.4,1176.3,15.2,1176.3,17.3L1176.3,17.3z M1214.7,8.1v18.5h-2.7V13.3
	c0-0.5,0.1-1,0.1-1.6h-0.1l-6,14.9h-2.5l-5.8-14.9h-0.1c0,0.5,0.1,1,0.1,1.6v13.3h-2.7V8.1h4l5.8,14.9l5.9-14.9L1214.7,8.1
	L1214.7,8.1z M1227.6,7.8c1.6,0,2.9,0.3,4,1c1.1,0.7,2,1.7,2.6,2.9c0.6,1.2,0.9,2.7,0.9,4.4V18h-12.6c0.1,2.1,0.6,3.7,1.6,4.8
	c1,1.1,2.5,1.6,4.3,1.6c1.2,0,2.2-0.1,3.1-0.3c0.9-0.2,1.8-0.6,2.8-1v2.7c-0.9,0.4-1.9,0.7-2.8,0.9s-2,0.3-3.2,0.3
	c-1.7,0-3.3-0.4-4.6-1.1c-1.3-0.7-2.4-1.8-3.1-3.2c-0.7-1.4-1.1-3.2-1.1-5.2s0.3-3.8,1-5.2c0.7-1.4,1.6-2.6,2.8-3.3
	C1224.6,8.2,1226,7.8,1227.6,7.8L1227.6,7.8z M1227.6,10.3c-1.4,0-2.6,0.5-3.4,1.4s-1.3,2.2-1.5,3.9h9.3c0-1.1-0.2-2-0.5-2.8
	s-0.8-1.4-1.5-1.8C1229.4,10.5,1228.6,10.3,1227.6,10.3z M1242.9,8.1v7.7h10V8.1h3v18.5h-3v-8.2h-10v8.2h-3V8.1
	C1239.9,8.1,1242.9,8.1,1242.9,8.1z M1275.3,8.1V24h2.7v9h-2.9v-6.4h-12.8V33h-2.9v-9h1.5c1.1-1.5,1.9-3.1,2.6-4.8
	c0.7-1.7,1.2-3.6,1.6-5.4c0.4-1.9,0.6-3.8,0.6-5.7L1275.3,8.1L1275.3,8.1z M1268.3,10.5c-0.1,1.6-0.3,3.2-0.7,4.9
	c-0.4,1.7-0.9,3.2-1.5,4.8c-0.6,1.5-1.3,2.8-2.1,3.9h8.4V10.5H1268.3L1268.3,10.5z M1278.7,8.1h3.2l4,10.5l0.6,1.8
	c0.2,0.6,0.4,1.1,0.5,1.7c0.2,0.5,0.3,1,0.4,1.6h0.1c0.1-0.6,0.3-1.3,0.7-2.2c0.3-0.9,0.6-1.9,0.9-2.8l3.7-10.5h3.2l-7.9,21
	c-0.4,1.1-1,2.1-1.5,3c-0.6,0.9-1.3,1.5-2.1,2s-1.8,0.7-3,0.7c-0.5,0-1,0-1.4-0.1c-0.4,0-0.8-0.1-1.1-0.2v-2.4
	c0.3,0,0.6,0.1,0.9,0.1c0.4,0,0.8,0.1,1.1,0.1c0.7,0,1.3-0.1,1.8-0.4c0.5-0.3,1-0.6,1.3-1.1c0.4-0.5,0.7-1.1,0.9-1.7l1-2.4
	L1278.7,8.1L1278.7,8.1z M1306.1,7.8c1.6,0,2.9,0.3,4,1s2,1.7,2.6,2.9s0.9,2.7,0.9,4.4V18H1301c0,2.1,0.6,3.7,1.6,4.8
	c1,1.1,2.4,1.6,4.3,1.6c1.2,0,2.2-0.1,3.1-0.3c0.9-0.2,1.8-0.6,2.8-1v2.7c-0.9,0.4-1.9,0.7-2.8,0.9s-2,0.3-3.2,0.3
	c-1.7,0-3.3-0.4-4.6-1.1c-1.3-0.7-2.4-1.8-3.1-3.2c-0.7-1.4-1.1-3.2-1.1-5.2s0.3-3.8,1-5.2c0.7-1.4,1.6-2.6,2.8-3.3
	C1303,8.2,1304.4,7.8,1306.1,7.8L1306.1,7.8z M1306,10.3c-1.4,0-2.6,0.5-3.4,1.4s-1.3,2.2-1.5,3.9h9.3c0-1.1-0.2-2-0.5-2.8
	s-0.8-1.4-1.5-1.8C1307.9,10.5,1307.1,10.3,1306,10.3z M1331,10.7h-6v15.9h-3V10.7h-5.9V8.2h14.9C1331,8.2,1331,10.7,1331,10.7z
	 M1341.6,26.9c-1.6,0-3.1-0.3-4.3-1c-1.2-0.7-2.2-1.7-3-3.1c-0.7-1.4-1.1-3.2-1.1-5.4c0-2.3,0.4-4.1,1.1-5.5
	c0.8-1.4,1.8-2.5,3.1-3.1c1.3-0.7,2.8-1,4.4-1c0.9,0,1.8,0.1,2.7,0.3c0.9,0.2,1.6,0.4,2.1,0.7l-0.9,2.5c-0.5-0.2-1.2-0.4-1.9-0.6
	c-0.7-0.2-1.4-0.3-2.1-0.3c-1.2,0-2.2,0.3-3.1,0.8c-0.8,0.5-1.4,1.3-1.8,2.3s-0.6,2.3-0.6,3.9c0,1.5,0.2,2.7,0.6,3.8
	c0.4,1,1,1.8,1.8,2.3s1.7,0.8,2.9,0.8c1,0,1.9-0.1,2.6-0.3c0.8-0.2,1.5-0.5,2.1-0.8v2.7c-0.6,0.3-1.3,0.6-2,0.7
	C1343.5,26.9,1342.7,26.9,1341.6,26.9L1341.6,26.9z M1351.8,26.6h-3.5l5.2-7.8c-0.7-0.2-1.4-0.5-2.1-0.9s-1.2-1-1.6-1.7
	s-0.6-1.6-0.6-2.7c0-1.8,0.6-3.1,1.8-4c1.2-0.9,2.8-1.4,4.7-1.4h8.2v18.5h-3v-7.3h-4.4L1351.8,26.6z M1352.2,13.6
	c0,1.1,0.4,1.8,1.2,2.4c0.8,0.5,1.9,0.8,3.3,0.8h4.3v-6.1h-4.9c-1.4,0-2.4,0.3-3,0.8S1352.2,12.7,1352.2,13.6z M769.5,53.3v18.5h-3
	v-16H757v15.9h-3V53.3H769.5z M784.1,52.9c2.3,0,4.1,0.8,5.4,2.4c1.4,1.6,2.1,4,2.1,7.2c0,2.1-0.3,3.9-1,5.3
	c-0.6,1.4-1.5,2.5-2.6,3.2s-2.4,1.1-4,1.1c-0.9,0-1.8-0.1-2.5-0.4s-1.4-0.6-1.9-1s-0.9-0.9-1.3-1.3h-0.2c0,0.4,0.1,0.9,0.1,1.5
	s0.1,1.1,0.1,1.6V80h-3V53.3h2.5l0.4,2.5h0.1c0.4-0.5,0.8-1,1.3-1.4s1.1-0.8,1.8-1C782.2,53,783.1,52.9,784.1,52.9L784.1,52.9z
	 M783.5,55.5c-1.2,0-2.2,0.2-3,0.7s-1.3,1.2-1.6,2.1s-0.5,2.1-0.5,3.6v0.6c0,1.5,0.2,2.8,0.5,3.9s0.9,1.9,1.6,2.4
	c0.8,0.6,1.8,0.8,3.1,0.8c1.1,0,2-0.3,2.7-0.9s1.3-1.5,1.6-2.5c0.4-1.1,0.5-2.3,0.5-3.7c0-2.1-0.4-3.8-1.2-5.1
	C786.5,56.1,785.2,55.5,783.5,55.5L783.5,55.5z M812.4,62.5c0,1.5-0.2,2.9-0.6,4.1c-0.4,1.2-1,2.2-1.7,3s-1.6,1.5-2.7,1.9
	c-1,0.4-2.2,0.6-3.5,0.6c-1.2,0-2.3-0.2-3.4-0.6c-1-0.4-1.9-1.1-2.7-1.9s-1.3-1.8-1.8-3c-0.4-1.2-0.6-2.6-0.6-4.1c0-2,0.3-3.8,1-5.2
	c0.7-1.4,1.7-2.5,2.9-3.2c1.3-0.8,2.8-1.1,4.6-1.1c1.7,0,3.1,0.4,4.4,1.1c1.3,0.7,2.3,1.8,3,3.2S812.4,60.4,812.4,62.5z M798.5,62.5
	c0,1.4,0.2,2.7,0.5,3.8c0.4,1.1,1,1.9,1.8,2.4s1.8,0.9,3,0.9s2.2-0.3,3-0.9s1.4-1.4,1.7-2.4c0.4-1.1,0.6-2.3,0.6-3.8
	s-0.2-2.7-0.6-3.8s-1-1.8-1.8-2.4c-0.8-0.6-1.8-0.9-3-0.9c-1.9,0-3.2,0.6-4.1,1.9C798.9,58.6,798.5,60.3,798.5,62.5L798.5,62.5z
	 M828,53.3h3.3l-7.8,8.9l8.5,9.6h-3.5l-8.3-9.4v9.4h-3V53.3h3v9C820.2,62.3,828,53.3,828,53.3z M850.5,62.5c0,1.5-0.2,2.9-0.6,4.1
	c-0.4,1.2-1,2.2-1.7,3s-1.6,1.5-2.7,1.9c-1,0.4-2.2,0.6-3.5,0.6c-1.2,0-2.3-0.2-3.4-0.6c-1-0.4-1.9-1.1-2.7-1.9s-1.3-1.8-1.8-3
	c-0.4-1.2-0.6-2.6-0.6-4.1c0-2,0.3-3.8,1-5.2c0.7-1.4,1.7-2.5,2.9-3.2c1.3-0.8,2.8-1.1,4.6-1.1c1.7,0,3.1,0.4,4.4,1.1
	c1.3,0.7,2.3,1.8,3,3.2C850.2,58.7,850.5,60.4,850.5,62.5z M836.7,62.5c0,1.4,0.2,2.7,0.5,3.8c0.4,1.1,1,1.9,1.8,2.4
	c0.8,0.6,1.8,0.9,3,0.9s2.2-0.3,3-0.9s1.4-1.4,1.7-2.4c0.4-1.1,0.6-2.3,0.6-3.8s-0.2-2.7-0.6-3.8c-0.4-1-1-1.8-1.8-2.4
	c-0.8-0.6-1.8-0.9-3-0.9c-1.9,0-3.2,0.6-4.1,1.9C837.1,58.6,836.7,60.3,836.7,62.5L836.7,62.5z M858.3,53.3V61h10v-7.7h3v18.5h-3
	v-8.2h-10v8.2h-3V53.3H858.3z M884.5,72.1c-1.6,0-3.1-0.3-4.3-1c-1.3-0.7-2.2-1.7-3-3.1c-0.7-1.4-1.1-3.2-1.1-5.4
	c0-2.3,0.4-4.1,1.1-5.5c0.8-1.4,1.8-2.5,3-3.1c1.3-0.7,2.8-1,4.4-1c0.9,0,1.8,0.1,2.7,0.3s1.6,0.4,2.1,0.7l-0.9,2.5
	c-0.5-0.2-1.2-0.4-1.9-0.6c-0.7-0.2-1.4-0.3-2.1-0.3c-1.2,0-2.2,0.3-3,0.8s-1.4,1.3-1.8,2.3s-0.6,2.3-0.6,3.9c0,1.5,0.2,2.7,0.6,3.8
	s1,1.8,1.7,2.3c0.8,0.5,1.7,0.8,2.9,0.8c1,0,1.9-0.1,2.6-0.3c0.8-0.2,1.5-0.5,2.1-0.8v2.7c-0.6,0.3-1.3,0.6-2.1,0.7
	C886.4,72,885.5,72.1,884.5,72.1z M890.7,53.3h3.2l4,10.5l0.6,1.8c0.2,0.6,0.4,1.1,0.5,1.7c0.2,0.5,0.3,1,0.4,1.6h0.1
	c0.1-0.6,0.4-1.3,0.6-2.2c0.3-0.9,0.6-1.9,0.9-2.8l3.7-10.5h3.3l-7.9,21c-0.4,1.1-0.9,2.1-1.5,3s-1.3,1.5-2.1,2s-1.8,0.7-3,0.7
	c-0.5,0-1,0-1.4-0.1c-0.4,0-0.8-0.1-1.1-0.2v-2.4c0.3,0,0.5,0.1,0.9,0.1s0.7,0.1,1.1,0.1c0.7,0,1.3-0.1,1.8-0.4s1-0.6,1.3-1.1
	c0.4-0.5,0.7-1.1,0.9-1.7l1-2.4L890.7,53.3z M924.3,71.7h-3v-16h-5.4c-0.2,2.9-0.5,5.4-0.9,7.5c-0.3,2-0.8,3.7-1.3,5
	s-1.2,2.2-1.9,2.8c-0.7,0.6-1.6,0.9-2.6,0.9c-0.3,0-0.6,0-0.9-0.1c-0.3,0-0.5-0.1-0.7-0.2v-2.3c0.1,0,0.3,0.1,0.4,0.1h0.5
	c0.5,0,1-0.2,1.4-0.6s0.8-1,1.1-1.9c0.3-0.8,0.7-1.9,0.9-3.2c0.3-1.3,0.5-2.8,0.7-4.6c0.2-1.8,0.4-3.8,0.5-6h11.1v18.6L924.3,71.7z
	 M938.6,60.8c1.6,0,2.9,0.2,4,0.6c1,0.4,1.8,1,2.4,1.8c0.5,0.8,0.8,1.7,0.8,2.9c0,1.1-0.3,2.1-0.8,3s-1.3,1.5-2.4,2
	c-1.1,0.5-2.5,0.7-4.1,0.7h-8.3V53.3h3v7.6h5.4L938.6,60.8z M942.7,66.3c0-1.1-0.4-1.9-1.2-2.3s-1.9-0.6-3.3-0.6h-5.1v5.9h5.2
	c1.3,0,2.3-0.2,3.1-0.7C942.3,68.1,942.7,67.4,942.7,66.3z M961.4,55.8h-6v15.9h-3V55.8h-5.9v-2.5h14.9
	C961.4,53.3,961.4,55.8,961.4,55.8z M967.9,64.5v2.1c0,0.4,0,0.8-0.1,1.2c0,0.4,0,0.7-0.1,0.9l9.8-15.5h3.7v18.5h-2.8V59.4
	c0-0.6,0-1.2,0.1-1.8c0-0.6,0-1,0.1-1.3l-9.8,15.4h-3.7V53.3h2.8C967.9,53.3,967.9,64.5,967.9,64.5z M995.7,52.9
	c2.3,0,4.1,0.8,5.4,2.4c1.4,1.6,2.1,4,2.1,7.2c0,2.1-0.3,3.9-1,5.3c-0.6,1.4-1.5,2.5-2.6,3.2s-2.5,1.1-4,1.1c-0.9,0-1.8-0.1-2.5-0.4
	s-1.4-0.6-1.9-1s-0.9-0.9-1.3-1.3h-0.2c0,0.4,0.1,0.9,0.1,1.5s0.1,1.1,0.1,1.6V80h-3V53.3h2.5l0.4,2.5h0.1c0.4-0.5,0.8-1,1.3-1.4
	s1.2-0.8,1.9-1C993.9,53,994.8,52.9,995.7,52.9z M995.2,55.5c-1.2,0-2.2,0.2-3,0.7s-1.3,1.2-1.6,2.1c-0.3,0.9-0.5,2.1-0.5,3.6v0.6
	c0,1.5,0.2,2.8,0.5,3.9s0.9,1.9,1.6,2.4c0.8,0.6,1.8,0.8,3.2,0.8c1.1,0,2-0.3,2.7-0.9s1.3-1.5,1.6-2.5c0.4-1.1,0.6-2.3,0.6-3.7
	c0-2.1-0.4-3.8-1.2-5.1C998.1,56.1,996.9,55.5,995.2,55.5L995.2,55.5z M1024,62.5c0,1.5-0.2,2.9-0.6,4.1s-1,2.2-1.7,3
	s-1.6,1.5-2.7,1.9s-2.2,0.6-3.5,0.6c-1.2,0-2.3-0.2-3.3-0.6s-1.9-1.1-2.7-1.9c-0.8-0.8-1.3-1.8-1.8-3c-0.4-1.2-0.6-2.6-0.6-4.1
	c0-2,0.3-3.8,1-5.2c0.7-1.4,1.7-2.5,2.9-3.2c1.3-0.8,2.8-1.1,4.6-1.1c1.7,0,3.1,0.4,4.4,1.1c1.3,0.7,2.3,1.8,3,3.2
	S1024,60.4,1024,62.5L1024,62.5z M1010.2,62.5c0,1.4,0.2,2.7,0.5,3.8c0.4,1.1,1,1.9,1.8,2.4c0.8,0.6,1.8,0.9,3,0.9s2.2-0.3,3-0.9
	s1.4-1.4,1.7-2.4c0.4-1.1,0.6-2.3,0.6-3.8s-0.2-2.7-0.6-3.8c-0.4-1-1-1.8-1.8-2.4c-0.8-0.6-1.8-0.9-3-0.9c-1.9,0-3.2,0.6-4.1,1.9
	C1010.6,58.6,1010.2,60.3,1010.2,62.5z M1043.6,57.9c0,1.1-0.4,2-1,2.7c-0.7,0.6-1.6,1.1-2.6,1.3V62c1.1,0.2,2.1,0.6,3,1.2
	c0.8,0.6,1.3,1.7,1.3,3c0,0.8-0.2,1.5-0.4,2.2c-0.3,0.7-0.7,1.2-1.3,1.7c-0.6,0.5-1.4,0.9-2.3,1.1c-0.9,0.3-2.1,0.4-3.4,0.4h-7.9
	V53.3h7.9c1.3,0,2.5,0.1,3.5,0.4c1,0.3,1.9,0.8,2.5,1.4C1043.2,55.8,1043.6,56.7,1043.6,57.9L1043.6,57.9z M1041,66.3
	c0-1.1-0.4-1.8-1.2-2.3c-0.8-0.5-2-0.7-3.5-0.7h-4.5v5.9h4.5c1.5,0,2.7-0.2,3.5-0.7C1040.6,68.2,1041,67.4,1041,66.3z M1040.5,58.3
	c0-0.9-0.3-1.5-1-1.9c-0.6-0.4-1.6-0.6-3-0.6h-4.7v5.1h4.1c1.5,0,2.6-0.2,3.4-0.6C1040.1,59.8,1040.5,59.2,1040.5,58.3z M1055.5,53
	c2.2,0,3.9,0.5,5,1.5s1.6,2.6,1.6,4.7v12.6h-2.2l-0.6-2.6h-0.1c-0.5,0.7-1.1,1.2-1.7,1.7c-0.5,0.4-1.2,0.8-1.9,1
	c-0.7,0.2-1.6,0.3-2.6,0.3c-1.1,0-2.1-0.2-3-0.6s-1.6-1-2.1-1.8s-0.8-1.9-0.8-3.1c0-1.8,0.7-3.3,2.2-4.2c1.4-1,3.7-1.6,6.6-1.7
	l3.1-0.1v-1.1c0-1.5-0.3-2.6-1-3.2c-0.7-0.6-1.6-0.9-2.8-0.9c-1,0-1.9,0.1-2.7,0.4c-0.9,0.3-1.7,0.6-2.4,1l-0.9-2.3
	c0.8-0.4,1.8-0.8,2.8-1.1C1053.1,53.1,1054.3,53,1055.5,53L1055.5,53z M1056.3,62.8c-2.3,0.1-3.9,0.5-4.8,1.1s-1.3,1.6-1.3,2.7
	c0,1,0.3,1.8,0.9,2.3s1.5,0.7,2.4,0.7c1.5,0,2.8-0.4,3.9-1.3c1-0.9,1.5-2.2,1.5-4v-1.7C1058.9,62.6,1056.3,62.8,1056.3,62.8z
	 M1080.4,55.8h-6v15.9h-3V55.8h-5.9v-2.5h14.9C1080.4,53.3,1080.4,55.8,1080.4,55.8z M1092.4,60.8c1.6,0,2.9,0.2,4,0.6
	c1,0.4,1.8,1,2.4,1.8c0.5,0.8,0.8,1.7,0.8,2.9c0,1.1-0.3,2.1-0.8,3s-1.3,1.5-2.4,2s-2.4,0.7-4.1,0.7h-8.3V53.3h3v7.6h5.4V60.8z
	 M1096.6,66.3c0-1.1-0.4-1.9-1.2-2.3c-0.8-0.4-1.9-0.6-3.3-0.6h-5.1v5.9h5.2c1.3,0,2.3-0.2,3.2-0.7
	C1096.2,68.1,1096.6,67.4,1096.6,66.3L1096.6,66.3z M1111.7,72.1c-1.6,0-3.1-0.3-4.3-1c-1.3-0.7-2.2-1.7-3-3.1
	c-0.7-1.4-1.1-3.2-1.1-5.4c0-2.3,0.4-4.1,1.1-5.5c0.8-1.4,1.8-2.5,3-3.1c1.3-0.7,2.8-1,4.4-1c0.9,0,1.8,0.1,2.7,0.3
	c0.9,0.2,1.6,0.4,2.1,0.7l-0.9,2.5c-0.6-0.2-1.2-0.4-1.9-0.6s-1.4-0.3-2-0.3c-1.2,0-2.2,0.3-3.1,0.8c-0.8,0.5-1.4,1.3-1.8,2.3
	s-0.6,2.3-0.6,3.9c0,1.5,0.2,2.7,0.6,3.8c0.4,1,1,1.8,1.8,2.3s1.7,0.8,2.9,0.8c1,0,1.9-0.1,2.6-0.3c0.8-0.2,1.5-0.5,2.1-0.8v2.7
	c-0.6,0.3-1.3,0.6-2.1,0.7C1113.6,72,1112.7,72.1,1111.7,72.1L1111.7,72.1z M1121.9,71.7h-3.5l5.2-7.8c-0.7-0.2-1.4-0.5-2.1-0.9
	s-1.2-1-1.6-1.7s-0.6-1.6-0.6-2.7c0-1.8,0.6-3.1,1.8-4c1.2-0.9,2.8-1.4,4.7-1.4h8.2v18.5h-3v-7.3h-4.5L1121.9,71.7z M1122.2,58.7
	c0,1.1,0.4,1.8,1.2,2.4c0.8,0.5,1.9,0.8,3.3,0.8h4.3v-6.1h-4.9c-1.4,0-2.4,0.3-3,0.8C1122.6,57.2,1122.2,57.9,1122.2,58.7z
	 M1156.6,72.1c-1.6,0-3.1-0.3-4.3-1c-1.2-0.7-2.2-1.7-3-3.1c-0.7-1.4-1.1-3.2-1.1-5.4c0-2.3,0.4-4.1,1.1-5.5
	c0.8-1.4,1.8-2.5,3.1-3.1c1.3-0.7,2.8-1,4.4-1c0.9,0,1.8,0.1,2.7,0.3c0.9,0.2,1.6,0.4,2.1,0.7l-0.9,2.5c-0.5-0.2-1.2-0.4-1.9-0.6
	c-0.7-0.2-1.4-0.3-2.1-0.3c-1.2,0-2.2,0.3-3.1,0.8c-0.8,0.5-1.4,1.3-1.8,2.3s-0.6,2.3-0.6,3.9c0,1.5,0.2,2.7,0.6,3.8
	c0.4,1,1,1.8,1.8,2.3s1.7,0.8,2.9,0.8c1,0,1.9-0.1,2.6-0.3c0.8-0.2,1.5-0.5,2.1-0.8v2.7c-0.6,0.3-1.3,0.6-2,0.7
	C1158.6,72,1157.7,72.1,1156.6,72.1L1156.6,72.1z M1189.8,57.9c0,1.1-0.3,2-1,2.7c-0.7,0.6-1.6,1.1-2.6,1.3V62
	c1.1,0.2,2.1,0.6,3,1.2c0.8,0.6,1.3,1.7,1.3,3c0,0.8-0.1,1.5-0.4,2.2s-0.7,1.2-1.3,1.7c-0.6,0.5-1.4,0.9-2.3,1.1
	c-0.9,0.3-2.1,0.4-3.4,0.4h-7.9V53.3h7.9c1.3,0,2.5,0.1,3.5,0.4c1.1,0.3,1.9,0.8,2.5,1.4C1189.5,55.8,1189.8,56.7,1189.8,57.9
	L1189.8,57.9z M1187.3,66.3c0-1.1-0.4-1.8-1.2-2.3c-0.8-0.5-2-0.7-3.5-0.7h-4.5v5.9h4.6c1.5,0,2.7-0.2,3.5-0.7
	C1186.9,68.2,1187.3,67.4,1187.3,66.3z M1186.8,58.3c0-0.9-0.3-1.5-1-1.9c-0.6-0.4-1.6-0.6-3-0.6h-4.7v5.1h4.1
	c1.5,0,2.6-0.2,3.4-0.6C1186.4,59.8,1186.8,59.2,1186.8,58.3z M1203.6,52.9c2.3,0,4.1,0.8,5.4,2.4c1.4,1.6,2.1,4,2.1,7.2
	c0,2.1-0.3,3.9-1,5.3c-0.6,1.4-1.5,2.5-2.6,3.2s-2.4,1.1-4,1.1c-0.9,0-1.8-0.1-2.5-0.4s-1.4-0.6-1.9-1s-0.9-0.9-1.3-1.3h-0.2
	c0,0.4,0.1,0.9,0.1,1.5c0.1,0.6,0.1,1.1,0.1,1.6V80h-3V53.3h2.5l0.4,2.5h0.1c0.4-0.5,0.8-1,1.3-1.4s1.1-0.8,1.8-1
	C1201.7,53,1202.6,52.9,1203.6,52.9z M1203,55.5c-1.2,0-2.2,0.2-3,0.7s-1.3,1.2-1.6,2.1c-0.3,0.9-0.5,2.1-0.6,3.6v0.6
	c0,1.5,0.2,2.8,0.5,3.9s0.9,1.9,1.6,2.4c0.8,0.6,1.8,0.8,3.1,0.8c1.1,0,2-0.3,2.7-0.9s1.3-1.5,1.6-2.5c0.4-1.1,0.5-2.3,0.5-3.7
	c0-2.1-0.4-3.8-1.2-5.1C1205.9,56.1,1204.7,55.5,1203,55.5z M1222.8,53c2.2,0,3.9,0.5,5,1.5s1.6,2.6,1.6,4.7v12.6h-2.2l-0.6-2.6
	h-0.1c-0.5,0.7-1.1,1.2-1.6,1.7c-0.5,0.4-1.2,0.8-1.9,1c-0.7,0.2-1.6,0.3-2.6,0.3c-1.1,0-2.1-0.2-3-0.6s-1.5-1-2-1.8
	s-0.8-1.9-0.8-3.1c0-1.8,0.7-3.3,2.2-4.2c1.4-1,3.7-1.6,6.6-1.7l3.1-0.1v-1.1c0-1.5-0.3-2.6-1-3.2c-0.7-0.6-1.6-0.9-2.8-0.9
	c-1,0-1.9,0.1-2.7,0.4c-0.9,0.3-1.7,0.6-2.4,1l-0.9-2.3c0.8-0.4,1.8-0.8,2.8-1.1C1220.5,53.1,1221.6,53,1222.8,53z M1223.7,62.8
	c-2.3,0.1-3.9,0.5-4.8,1.1s-1.3,1.6-1.3,2.7c0,1,0.3,1.8,0.9,2.3s1.5,0.7,2.4,0.7c1.6,0,2.8-0.4,3.9-1.3c1-0.9,1.5-2.2,1.5-4v-1.7
	C1226.3,62.6,1223.7,62.8,1223.7,62.8z M1237.7,60c0,1.1,0.3,1.9,0.9,2.4s1.5,0.8,2.6,0.8s2.2-0.2,3.1-0.5c0.9-0.4,1.9-0.8,2.9-1.4
	v-7.9h3v18.5h-3v-8.2c-1,0.7-2,1.2-3,1.6s-2.2,0.6-3.6,0.6c-1.9,0-3.3-0.5-4.4-1.5c-1-1-1.5-2.3-1.5-4v-6.9h3V60z M1272,62.5
	c0,1.5-0.2,2.9-0.6,4.1s-1,2.2-1.7,3s-1.6,1.5-2.7,1.9c-1,0.4-2.2,0.6-3.5,0.6c-1.2,0-2.3-0.2-3.3-0.6s-1.9-1.1-2.7-1.9
	c-0.8-0.8-1.4-1.8-1.8-3s-0.6-2.6-0.6-4.1c0-2,0.3-3.8,1-5.2c0.7-1.4,1.7-2.5,2.9-3.2c1.3-0.8,2.8-1.1,4.6-1.1
	c1.7,0,3.1,0.4,4.4,1.1c1.3,0.7,2.3,1.8,3,3.2C1271.6,58.7,1272,60.4,1272,62.5L1272,62.5z M1258.1,62.5c0,1.4,0.2,2.7,0.5,3.8
	c0.4,1.1,1,1.9,1.8,2.4c0.8,0.6,1.8,0.9,3.1,0.9s2.2-0.3,3-0.9s1.4-1.4,1.8-2.4c0.4-1.1,0.6-2.3,0.6-3.8s-0.2-2.7-0.6-3.8
	c-0.4-1-1-1.8-1.8-2.4c-0.8-0.6-1.8-0.9-3.1-0.9c-1.9,0-3.2,0.6-4.1,1.9C1258.6,58.6,1258.1,60.3,1258.1,62.5L1258.1,62.5z
	 M1296.5,53.3v18.5h-2.7V58.4c0-0.5,0.1-1,0.1-1.6h-0.1l-6,14.9h-2.5l-5.8-14.9h-0.1c0.1,0.5,0.1,1,0.1,1.6v13.3h-2.7V53.3h4
	l5.8,14.9l5.9-14.9L1296.5,53.3L1296.5,53.3z M1302.4,71.2c-0.5-0.5-0.7-1.1-0.7-1.8s0.2-1.3,0.7-1.8s1.1-0.8,1.8-0.8
	s1.3,0.3,1.8,0.8s0.8,1.1,0.8,1.8s-0.2,1.3-0.8,1.8c-0.5,0.5-1.1,0.8-1.8,0.8S1302.9,71.8,1302.4,71.2z M15.3,27.1
	c-2.1,0-4-0.3-5.7-1S6.3,24.5,5,23.3c-1.3-1.2-2.3-2.7-3-4.3c-0.6-1.7-1-3.5-1-5.5s0.4-3.7,1.1-5.4s1.7-3.1,3-4.3
	C6.3,2.6,7.9,1.7,9.6,1s3.6-1,5.7-1s4,0.3,5.7,1s3.3,1.6,4.6,2.9c1.3,1.2,2.3,2.6,3,4.3c0.7,1.6,1.1,3.4,1.1,5.4s-0.4,3.8-1.1,5.4
	c-0.7,1.7-1.7,3.1-3,4.3c-1.3,1.2-2.8,2.1-4.6,2.8C19.3,26.7,17.4,27.1,15.3,27.1z M15.3,22.8c1.3,0,2.6-0.2,3.7-0.7s2.1-1.1,3-1.9
	c0.8-0.9,1.5-1.8,1.9-2.9c0.5-1.1,0.7-2.4,0.7-3.7s-0.2-2.6-0.7-3.7S22.8,7.8,22,7c-0.8-0.9-1.8-1.5-3-2c-1.1-0.5-2.4-0.7-3.7-0.7
	S12.7,4.5,11.6,5s-2.1,1.1-3,2c-0.8,0.8-1.5,1.8-2,2.9C6.2,11,6,12.2,6,13.5s0.2,2.6,0.7,3.7s1.1,2.1,2,3c0.8,0.8,1.8,1.5,3,1.9
	C12.7,22.6,14,22.8,15.3,22.8z M43.7,27c-2.1,0-4-0.4-5.7-1.3c-1.6-0.9-2.9-2.1-3.9-3.7s-1.4-3.3-1.4-5.3s0.5-3.8,1.4-5.3
	C35,9.8,36.3,8.6,38,7.8c1.7-0.9,3.6-1.3,5.7-1.3c2,0,3.7,0.4,5.2,1.2s2.7,1.9,3.5,3.5l-3.6,2.1c-0.6-1-1.4-1.7-2.2-2.1
	c-0.9-0.5-1.8-0.7-2.8-0.7c-1.2,0-2.2,0.3-3.1,0.8c-0.9,0.5-1.7,1.2-2.2,2.2c-0.5,0.9-0.8,2-0.8,3.3s0.3,2.4,0.8,3.4
	c0.5,0.9,1.3,1.6,2.2,2.1s2,0.8,3.1,0.8c1,0,1.9-0.2,2.8-0.7c0.9-0.5,1.6-1.2,2.2-2.1l3.6,2.1c-0.8,1.5-1.9,2.7-3.5,3.5
	C47.5,26.6,45.7,27,43.7,27z M56.6,26.7V6.6h4.7v8.2h10.2V6.6h4.7v20.1h-4.7v-7.9H61.3v7.9H56.6z M91.6,27c-2.1,0-3.9-0.4-5.5-1.3
	s-2.9-2.1-3.8-3.7s-1.4-3.3-1.4-5.3s0.5-3.8,1.4-5.3c0.9-1.6,2.2-2.8,3.8-3.6c1.6-0.9,3.5-1.3,5.5-1.3c2.1,0,4,0.4,5.6,1.3
	s2.9,2.1,3.8,3.6s1.4,3.3,1.4,5.3s-0.5,3.7-1.4,5.3c-0.9,1.6-2.2,2.8-3.8,3.7C95.6,26.5,93.7,27,91.6,27z M91.6,22.9
	c1.2,0,2.2-0.3,3.1-0.8s1.6-1.2,2.1-2.2s0.8-2.1,0.8-3.3c0-1.3-0.3-2.4-0.8-3.3c-0.5-1-1.2-1.7-2.1-2.2s-1.9-0.8-3.1-0.8
	s-2.2,0.3-3.1,0.8s-1.6,1.2-2.1,2.2c-0.5,0.9-0.8,2-0.8,3.3s0.3,2.4,0.8,3.3c0.5,1,1.2,1.7,2.1,2.2C89.5,22.7,90.5,22.9,91.6,22.9z
	 M107.1,26.7V6.6h9.9c2.5,0,4.4,0.5,5.8,1.4s2.1,2.2,2.1,3.8s-0.7,2.9-2,3.8s-3.1,1.4-5.2,1.4l0.6-1.2c2.5,0,4.3,0.5,5.5,1.4
	c1.2,0.9,1.8,2.2,1.8,3.9c0,1.8-0.7,3.2-2,4.2s-3.4,1.5-6.1,1.5h-10.4L107.1,26.7z M111.7,23.3h5.4c1.3,0,2.3-0.2,2.9-0.6
	c0.7-0.4,1-1.1,1-1.9c0-0.9-0.3-1.6-0.9-2s-1.6-0.6-2.8-0.6h-5.6V23.3z M111.7,15h5c1.2,0,2.1-0.2,2.7-0.6c0.6-0.5,0.9-1.1,0.9-1.9
	c0-0.8-0.3-1.4-0.9-1.8c-0.6-0.4-1.5-0.6-2.7-0.6h-5C111.7,10.1,111.7,15,111.7,15z M130.6,26.7V6.6h4.7v8.2h10.2V6.6h4.7v20.1h-4.7
	v-7.9h-10.2v7.9C135.3,26.7,130.6,26.7,130.6,26.7z M177.1,26.7V6.6h4.7v20.1C181.8,26.7,177.1,26.7,177.1,26.7z M166.5,13.2
	c2.6,0,4.6,0.6,5.9,1.7c1.4,1.2,2,2.8,2,4.9c0,2.2-0.8,3.9-2.3,5.1s-3.6,1.8-6.4,1.8h-9.2V6.6h4.7v6.6
	C161.2,13.2,166.5,13.2,166.5,13.2z M165.4,23.3c1.4,0,2.5-0.3,3.2-0.9s1.1-1.5,1.1-2.6c0-1.2-0.4-2-1.1-2.5
	c-0.7-0.5-1.8-0.8-3.2-0.8h-4v6.8H165.4z M197.7,27c-2.3,0-4.2-0.4-5.9-1.3s-3-2.1-3.9-3.7s-1.4-3.3-1.4-5.3s0.4-3.8,1.3-5.3
	c0.9-1.6,2.1-2.8,3.7-3.6c1.6-0.9,3.4-1.3,5.4-1.3s3.7,0.4,5.3,1.3c1.5,0.9,2.8,2.1,3.6,3.6c0.9,1.6,1.3,3.4,1.3,5.5v1.4h-16.9V15
	h14.4l-1.9,1c0-1.2-0.2-2.2-0.7-3c-0.5-0.9-1.2-1.6-2.1-2.1c-0.9-0.5-1.9-0.8-3-0.8c-1.2,0-2.2,0.3-3.1,0.8c-0.9,0.5-1.5,1.2-2,2.1
	c-0.5,0.9-0.7,1.9-0.7,3.1v0.8c0,1.2,0.3,2.3,0.8,3.2c0.6,0.9,1.3,1.6,2.4,2.1c1,0.5,2.2,0.8,3.5,0.8c1.1,0,2.2-0.2,3.1-0.5
	c0.9-0.4,1.7-0.9,2.4-1.7l2.5,2.9c-0.9,1.1-2.1,1.9-3.5,2.4C201,26.7,199.5,27,197.7,27L197.7,27z M222.9,26.7V6.6h19.4v20.1h-4.7
	V9.5l1.1,1.1h-12.2l1.1-1.1v17.2H222.9L222.9,26.7z M259.9,27c-1.6,0-3.1-0.4-4.5-1.1c-1.3-0.8-2.4-1.9-3.2-3.4S251,19,251,16.7
	c0-2.4,0.4-4.3,1.1-5.8c0.8-1.5,1.8-2.6,3.2-3.3c1.3-0.8,2.9-1.1,4.6-1.1c2,0,3.8,0.4,5.3,1.3s2.8,2,3.6,3.6
	c0.9,1.5,1.4,3.3,1.4,5.4s-0.5,3.9-1.4,5.5c-0.9,1.5-2.1,2.7-3.6,3.6C263.7,26.5,261.9,27,259.9,27z M248.7,34V6.6h4.5v4.7l-0.2,5.3
	l0.4,5.3v12h-4.7V34z M259.4,22.9c1.1,0,2.1-0.3,3-0.8s1.6-1.2,2.2-2.2c0.5-1,0.8-2.1,0.8-3.3c0-1.3-0.3-2.4-0.8-3.3
	c-0.5-1-1.3-1.7-2.2-2.2c-0.9-0.5-1.9-0.8-3-0.8s-2.2,0.3-3.1,0.8s-1.6,1.2-2.2,2.2c-0.5,0.9-0.8,2-0.8,3.3s0.3,2.4,0.8,3.3
	c0.5,1,1.3,1.7,2.2,2.2C257.2,22.7,258.3,22.9,259.4,22.9z M284,27c-2.1,0-3.9-0.4-5.5-1.3s-2.9-2.1-3.8-3.7s-1.4-3.3-1.4-5.3
	s0.5-3.8,1.4-5.3c0.9-1.6,2.2-2.8,3.8-3.6c1.6-0.9,3.5-1.3,5.5-1.3c2.1,0,4,0.4,5.6,1.3s2.9,2.1,3.8,3.6s1.4,3.3,1.4,5.3
	s-0.5,3.7-1.4,5.3c-0.9,1.6-2.2,2.8-3.8,3.7C287.9,26.5,286.1,27,284,27z M284,22.9c1.2,0,2.2-0.3,3.1-0.8s1.6-1.2,2.1-2.2
	s0.8-2.1,0.8-3.3c0-1.3-0.3-2.4-0.8-3.3c-0.5-1-1.2-1.7-2.1-2.2s-1.9-0.8-3.1-0.8s-2.2,0.3-3.1,0.8s-1.6,1.2-2.1,2.2
	c-0.5,0.9-0.8,2-0.8,3.3s0.3,2.4,0.8,3.3c0.5,1,1.2,1.7,2.1,2.2C281.8,22.7,282.8,22.9,284,22.9z M302.9,26.7V9.5l1.1,1.1h-8.2v-4
	h19v4h-8.2l1.1-1.1v17.2C307.7,26.7,302.9,26.7,302.9,26.7z M318.2,26.7V6.6h4.7v13.2l11.2-13.2h4.3v20.1h-4.7V13.5l-11.2,13.2
	C322.5,26.7,318.2,26.7,318.2,26.7z M344.8,26.7V6.6h9.9c2.5,0,4.4,0.5,5.8,1.4s2.1,2.2,2.1,3.8s-0.7,2.9-2,3.8s-3.1,1.4-5.2,1.4
	l0.6-1.2c2.5,0,4.3,0.5,5.5,1.4c1.2,0.9,1.8,2.2,1.8,3.9c0,1.8-0.7,3.2-2,4.2s-3.4,1.5-6.1,1.5h-10.4L344.8,26.7z M349.4,23.3h5.4
	c1.3,0,2.3-0.2,2.9-0.6c0.7-0.4,1-1.1,1-1.9c0-0.9-0.3-1.6-0.9-2s-1.6-0.6-2.8-0.6h-5.6V23.3z M349.4,15h5c1.2,0,2.1-0.2,2.7-0.6
	c0.6-0.5,0.9-1.1,0.9-1.9c0-0.8-0.3-1.4-0.9-1.8c-0.6-0.4-1.5-0.6-2.7-0.6h-5C349.4,10.1,349.4,15,349.4,15z M377.4,27
	c-2.1,0-3.9-0.4-5.5-1.3s-2.9-2.1-3.8-3.7s-1.4-3.3-1.4-5.3s0.5-3.8,1.4-5.3c0.9-1.6,2.2-2.8,3.8-3.6c1.6-0.9,3.5-1.3,5.5-1.3
	c2.1,0,4,0.4,5.6,1.3s2.9,2.1,3.8,3.6s1.4,3.3,1.4,5.3s-0.5,3.7-1.4,5.3c-0.9,1.6-2.2,2.8-3.8,3.7C381.3,26.5,379.5,27,377.4,27z
	 M377.4,22.9c1.2,0,2.2-0.3,3.1-0.8s1.6-1.2,2.1-2.2s0.8-2.1,0.8-3.3c0-1.3-0.3-2.4-0.8-3.3c-0.5-1-1.2-1.7-2.1-2.2
	s-1.9-0.8-3.1-0.8s-2.2,0.3-3.1,0.8s-1.6,1.2-2.1,2.2c-0.5,0.9-0.8,2-0.8,3.3s0.3,2.4,0.8,3.3c0.5,1,1.2,1.7,2.1,2.2
	C375.2,22.7,376.2,22.9,377.4,22.9z M392.9,26.7V6.6h19.4v20.1h-4.7V9.5l1.1,1.1h-12.2l1.1-1.1v17.2L392.9,26.7L392.9,26.7z
	 M427.7,27c-2.1,0-3.9-0.4-5.5-1.3s-2.9-2.1-3.8-3.7s-1.4-3.3-1.4-5.3s0.5-3.8,1.4-5.3c0.9-1.6,2.2-2.8,3.8-3.6
	c1.6-0.9,3.5-1.3,5.5-1.3c2.1,0,4,0.4,5.6,1.3s2.9,2.1,3.8,3.6s1.4,3.3,1.4,5.3s-0.5,3.7-1.4,5.3c-0.9,1.6-2.2,2.8-3.8,3.7
	C431.7,26.5,429.8,27,427.7,27z M427.7,22.9c1.2,0,2.2-0.3,3.1-0.8s1.6-1.2,2.1-2.2s0.8-2.1,0.8-3.3c0-1.3-0.3-2.4-0.8-3.3
	c-0.5-1-1.2-1.7-2.1-2.2s-1.9-0.8-3.1-0.8s-2.2,0.3-3.1,0.8s-1.6,1.2-2.1,2.2c-0.5,0.9-0.8,2-0.8,3.3s0.3,2.4,0.8,3.3
	c0.5,1,1.2,1.7,2.1,2.2C425.6,22.7,426.6,22.9,427.7,22.9z M457.7,26.7l-7.3-9.6l3.9-2.4l9,12H457.7z M443.2,26.7V6.6h4.7v20.1
	C447.9,26.7,443.2,26.7,443.2,26.7z M446.5,18.7v-3.9h6.9v3.9H446.5z M454.7,17.2l-4.4-0.5l7.4-10.1h5.1L454.7,17.2z M478.6,26.7
	v-4.1l-0.3-0.9v-7.1c0-1.4-0.4-2.4-1.3-3.2c-0.8-0.8-2.1-1.2-3.8-1.2c-1.1,0-2.3,0.2-3.4,0.5c-1.1,0.4-2,0.8-2.8,1.5l-1.9-3.4
	c1.1-0.8,2.4-1.4,3.9-1.8s3.1-0.6,4.7-0.6c2.9,0,5.2,0.7,6.8,2.1c1.6,1.4,2.4,3.5,2.4,6.4v11.8H478.6L478.6,26.7z M472.2,27
	c-1.5,0-2.8-0.3-4-0.8c-1.1-0.5-2-1.2-2.7-2.1c-0.6-0.9-0.9-2-0.9-3.1s0.3-2.1,0.8-3c0.6-0.9,1.5-1.6,2.7-2.1s2.9-0.8,4.9-0.8h5.9
	v3.1h-5.5c-1.6,0-2.7,0.3-3.3,0.8c-0.6,0.5-0.8,1.1-0.8,1.9c0,0.9,0.3,1.5,1,2s1.6,0.8,2.8,0.8c1.2,0,2.2-0.3,3.1-0.8s1.6-1.3,2-2.3
	l0.8,2.8c-0.5,1.2-1.3,2.1-2.5,2.7C475.5,26.6,474,27,472.2,27z M495.1,27c1.9,0,3.5-0.3,5-0.8s2.6-1.3,3.5-2.2c0.8-1,1.3-2,1.3-3.3
	c0-1.5-0.6-2.7-1.9-3.6s-3.1-1.4-5.3-1.4l-0.2,1c1.3,0,2.5-0.2,3.5-0.6s1.8-1,2.4-1.8s0.9-1.6,0.9-2.6c0-1.2-0.4-2.2-1.3-3
	c-0.8-0.9-2-1.5-3.4-2s-3.1-0.6-4.9-0.6c-1.2,0-2.4,0.2-3.7,0.5c-1.2,0.3-2.5,0.7-3.8,1.3l1.2,3.5c1.1-0.5,2.2-0.8,3.3-1.1
	c1.1-0.3,2.1-0.4,3.1-0.4s1.8,0.1,2.5,0.3s1.2,0.5,1.6,0.8c0.4,0.4,0.6,0.8,0.6,1.2c0,0.5-0.2,0.9-0.5,1.2c-0.3,0.4-0.7,0.6-1.3,0.8
	c-0.6,0.2-1.2,0.3-2,0.3H492V18h3.9c1.3,0,2.3,0.2,3,0.6s1.1,1,1.1,1.8c0,0.6-0.2,1-0.6,1.5c-0.4,0.4-1,0.8-1.7,1
	c-0.8,0.2-1.7,0.3-2.7,0.3c-1.2,0-2.5-0.2-3.7-0.5s-2.4-0.7-3.3-1.3l-1.3,3.5c1.2,0.7,2.6,1.2,4.1,1.6C492,26.9,493.5,27,495.1,27z
	 M521.9,26.7v-4.1l-0.3-0.9v-7.1c0-1.4-0.4-2.4-1.3-3.2c-0.8-0.8-2.1-1.2-3.8-1.2c-1.1,0-2.3,0.2-3.4,0.5c-1.1,0.4-2,0.8-2.8,1.5
	l-1.9-3.4c1.1-0.8,2.4-1.4,3.9-1.8s3.1-0.6,4.7-0.6c2.9,0,5.2,0.7,6.8,2.1s2.4,3.5,2.4,6.4v11.8H521.9L521.9,26.7z M515.6,27
	c-1.5,0-2.8-0.3-4-0.8c-1.1-0.5-2-1.2-2.7-2.1c-0.6-0.9-0.9-2-0.9-3.1s0.3-2.1,0.8-3c0.6-0.9,1.5-1.6,2.7-2.1
	c1.2-0.5,2.9-0.8,4.9-0.8h5.9v3.1h-5.5c-1.6,0-2.7,0.3-3.3,0.8s-0.8,1.1-0.8,1.9c0,0.9,0.3,1.5,1,2s1.6,0.8,2.8,0.8s2.2-0.3,3.1-0.8
	c0.9-0.5,1.6-1.3,2-2.3l0.8,2.8c-0.5,1.2-1.3,2.1-2.5,2.7C518.8,26.6,517.4,27,515.6,27z M532.3,26.7V6.6h4.7v8.2h10.2V6.6h4.7v20.1
	h-4.7v-7.9H537v7.9C537,26.7,532.3,26.7,532.3,26.7z M558.3,26.7V6.6h4.7v13.2l11.2-13.2h4.3v20.1h-4.7V13.5l-11.2,13.2
	C562.6,26.7,558.3,26.7,558.3,26.7z M597.8,26.7v-6.8l0.7,0.8h-6.1c-2.8,0-5-0.6-6.6-1.7c-1.6-1.2-2.4-2.9-2.4-5.1
	c0-2.4,0.8-4.1,2.5-5.4c1.7-1.2,3.9-1.8,6.8-1.8h9.3v20.1L597.8,26.7L597.8,26.7z M583.3,26.7l5.5-7.7h4.9l-5.2,7.7H583.3z
	 M597.8,18.4v-9l0.7,1.2h-5.6c-1.5,0-2.6,0.3-3.4,0.8c-0.8,0.5-1.2,1.4-1.2,2.6c0,2.3,1.5,3.4,4.4,3.4h5.7L597.8,18.4L597.8,18.4z
	 M609.9,12.6c-0.9,0-1.6-0.3-2.2-0.9c-0.6-0.6-0.9-1.4-0.9-2.3c0-1,0.3-1.7,0.9-2.3c0.6-0.6,1.3-0.9,2.2-0.9s1.6,0.3,2.2,0.9
	c0.6,0.6,0.9,1.3,0.9,2.3c0,0.9-0.3,1.7-0.9,2.3C611.5,12.3,610.7,12.6,609.9,12.6z M609.9,27c-0.9,0-1.6-0.3-2.2-0.9
	c-0.6-0.6-0.9-1.4-0.9-2.3c0-1,0.3-1.7,0.9-2.3c0.6-0.6,1.3-0.9,2.2-0.9s1.6,0.3,2.2,0.9c0.6,0.6,0.9,1.3,0.9,2.3
	c0,0.9-0.3,1.7-0.9,2.3C611.5,26.7,610.7,27,609.9,27z M3.9,95.5v2.1c0,0.4,0,0.8-0.1,1.2c0,0.4,0,0.7-0.1,0.9l9.8-15.4h3.7v18.3
	h-2.8V90.5c0-0.6,0-1.2,0.1-1.7c0-0.6,0-1,0.1-1.3l-9.8,15.3H1V84.3h2.8v11.2H3.9z M26.1,84.3V92h10v-7.6h3v18.3h-3v-8.2h-10v8.2h-3
	V84.3C23.1,84.3,26.1,84.3,26.1,84.3z M58.5,84.3v15.8h2.7v8.9h-2.9v-6.4H45.5v6.4h-2.9v-8.9h1.5c1.1-1.5,1.9-3,2.6-4.8
	c0.7-1.7,1.2-3.5,1.6-5.4c0.4-1.9,0.6-3.8,0.6-5.6C48.9,84.3,58.5,84.3,58.5,84.3z M51.5,86.7c-0.1,1.6-0.3,3.2-0.7,4.8
	c-0.4,1.6-0.9,3.2-1.5,4.7s-1.3,2.8-2.1,3.9h8.4V86.7C55.6,86.7,51.5,86.7,51.5,86.7z M67.6,95.5v2.1c0,0.4,0,0.8-0.1,1.2
	c0,0.4,0,0.7-0.1,0.9l9.8-15.4H81v18.3h-2.8V90.5c0-0.6,0-1.2,0.1-1.7c0-0.6,0-1,0.1-1.3l-9.8,15.3h-3.7V84.3h2.8L67.6,95.5
	L67.6,95.5z M101.6,89c0,1.1-0.3,2-1,2.7C99.9,92.3,99,92.8,98,93v0.1c1.1,0.2,2.1,0.6,3,1.2c0.8,0.6,1.3,1.6,1.3,3
	c0,0.8-0.1,1.5-0.4,2.2s-0.7,1.2-1.3,1.7c-0.6,0.5-1.4,0.9-2.3,1.1c-0.9,0.3-2.1,0.4-3.4,0.4H87V84.3h7.9c1.3,0,2.5,0.1,3.5,0.4
	c1.1,0.3,1.9,0.8,2.5,1.4C101.3,86.9,101.6,87.8,101.6,89z M99,97.3c0-1-0.4-1.8-1.2-2.3c-0.8-0.5-2-0.7-3.5-0.7h-4.5v5.9h4.6
	c1.5,0,2.7-0.2,3.5-0.7C98.6,99.1,99,98.4,99,97.3z M98.5,89.3c0-0.9-0.3-1.5-1-1.9c-0.6-0.4-1.6-0.6-3.1-0.6h-4.7v5H94
	c1.5,0,2.6-0.2,3.4-0.6S98.5,90.2,98.5,89.3z M109.4,95.5v2.1c0,0.4,0,0.8-0.1,1.2c0,0.4,0,0.7-0.1,0.9l9.8-15.4h3.7v18.3h-2.8V90.5
	c0-0.6,0-1.2,0.1-1.7c0-0.6,0-1,0.1-1.3l-9.8,15.3h-3.7V84.3h2.8V95.5z M142.2,84.3v15.8h2.7v8.9H142v-6.4h-12.8v6.4h-2.9v-8.9h1.5
	c1.1-1.5,1.9-3,2.6-4.8c0.7-1.7,1.2-3.5,1.6-5.4c0.4-1.9,0.6-3.8,0.6-5.6H142.2L142.2,84.3z M135.2,86.7c-0.1,1.6-0.3,3.2-0.7,4.8
	c-0.4,1.6-0.9,3.2-1.5,4.7s-1.3,2.8-2.1,3.9h8.4V86.7L135.2,86.7L135.2,86.7z M145.6,84.3h3.2l4,10.4l0.6,1.8
	c0.2,0.6,0.4,1.1,0.5,1.7c0.2,0.5,0.3,1,0.4,1.5h0.1c0.1-0.6,0.4-1.3,0.7-2.2c0.3-0.9,0.6-1.9,0.9-2.8l3.7-10.4h3.3l-7.9,20.9
	c-0.4,1.1-0.9,2.1-1.5,3s-1.3,1.5-2.1,2s-1.8,0.7-3,0.7c-0.5,0-1,0-1.4-0.1c-0.4,0-0.8-0.1-1.1-0.2v-2.4c0.3,0,0.5,0.1,0.9,0.1
	s0.7,0.1,1.1,0.1c0.7,0,1.3-0.1,1.8-0.4c0.5-0.2,1-0.6,1.3-1.1c0.4-0.5,0.7-1,0.9-1.7l1-2.4L145.6,84.3z M172.9,84
	c2.2,0,3.9,0.5,5,1.5s1.6,2.5,1.6,4.7v12.5h-2.2l-0.6-2.6h-0.1c-0.5,0.7-1.1,1.2-1.6,1.7c-0.5,0.4-1.2,0.8-1.9,1s-1.6,0.3-2.6,0.3
	c-1.1,0-2.1-0.2-3-0.6s-1.6-1-2.1-1.8s-0.8-1.8-0.8-3.1c0-1.8,0.7-3.2,2.2-4.2c1.4-1,3.7-1.6,6.6-1.6l3.1-0.1v-1.1
	c0-1.5-0.3-2.6-1-3.2s-1.6-0.9-2.8-0.9c-1,0-1.9,0.1-2.7,0.4c-0.9,0.3-1.7,0.6-2.4,1l-0.9-2.3c0.8-0.4,1.7-0.8,2.8-1.1
	C170.6,84.2,171.7,84,172.9,84z M173.8,93.8c-2.3,0.1-3.9,0.5-4.8,1.1c-0.9,0.6-1.3,1.5-1.3,2.7c0,1,0.3,1.8,0.9,2.3
	c0.6,0.5,1.4,0.7,2.4,0.7c1.6,0,2.8-0.4,3.9-1.3c1-0.9,1.5-2.2,1.5-4v-1.6L173.8,93.8L173.8,93.8z M199.1,102.7H196V86.8h-5.4
	c-0.2,2.9-0.5,5.4-0.9,7.4c-0.3,2-0.8,3.7-1.3,5s-1.2,2.2-1.9,2.8c-0.7,0.6-1.6,0.9-2.6,0.9c-0.3,0-0.6,0-0.9-0.1
	c-0.3,0-0.5-0.1-0.7-0.2v-2.3c0.1,0,0.3,0.1,0.4,0.1h0.5c0.5,0,1-0.2,1.4-0.6s0.8-1,1.1-1.9c0.3-0.8,0.7-1.9,0.9-3.2
	c0.3-1.3,0.5-2.8,0.7-4.6c0.2-1.8,0.4-3.7,0.5-6h11.1v18.6L199.1,102.7z M213.4,91.9c1.6,0,2.9,0.2,4,0.6s1.8,1,2.4,1.7
	c0.5,0.8,0.8,1.7,0.8,2.9c0,1.1-0.3,2.1-0.8,3c-0.5,0.8-1.3,1.5-2.4,1.9c-1.1,0.5-2.5,0.7-4.1,0.7H205V84.3h3v7.5L213.4,91.9
	L213.4,91.9z M217.6,97.2c0-1.1-0.4-1.9-1.2-2.3s-1.9-0.6-3.3-0.6H208v5.9h5.2c1.3,0,2.3-0.2,3.2-0.7
	C217.2,99.1,217.6,98.3,217.6,97.2z M228.3,84.3V92h10v-7.6h3v18.3h-3v-8.2h-10v8.2h-3V84.3H228.3z M254.1,84c2.2,0,3.9,0.5,5,1.5
	s1.6,2.5,1.6,4.7v12.5h-2.2l-0.6-2.6h-0.1c-0.5,0.7-1.1,1.2-1.6,1.7c-0.5,0.4-1.2,0.8-1.9,1s-1.6,0.3-2.6,0.3c-1.1,0-2.1-0.2-3-0.6
	s-1.6-1-2.1-1.8s-0.8-1.8-0.8-3.1c0-1.8,0.7-3.2,2.2-4.2c1.4-1,3.7-1.6,6.6-1.6l3.1-0.1v-1.1c0-1.5-0.3-2.6-1-3.2
	c-0.7-0.6-1.6-0.9-2.8-0.9c-1,0-1.9,0.1-2.7,0.4c-0.9,0.3-1.7,0.6-2.4,1l-0.9-2.3c0.8-0.4,1.7-0.8,2.8-1.1
	C251.8,84.2,252.9,84,254.1,84L254.1,84z M255,93.8c-2.3,0.1-3.9,0.5-4.8,1.1c-0.9,0.6-1.3,1.5-1.3,2.7c0,1,0.3,1.8,0.9,2.3
	c0.6,0.5,1.5,0.7,2.4,0.7c1.6,0,2.8-0.4,3.9-1.3c1-0.9,1.5-2.2,1.5-4v-1.6L255,93.8L255,93.8z M267.5,102.7H264l5.2-7.7
	c-0.7-0.2-1.4-0.5-2.1-0.9s-1.2-1-1.6-1.7s-0.6-1.6-0.6-2.7c0-1.8,0.6-3.1,1.8-4c1.2-0.9,2.8-1.4,4.7-1.4h8.2v18.3h-3v-7.3h-4.5
	L267.5,102.7z M267.9,89.8c0,1,0.4,1.8,1.2,2.4c0.8,0.5,1.9,0.8,3.3,0.8h4.3v-6.1h-4.9c-1.4,0-2.4,0.3-3,0.8S267.9,88.9,267.9,89.8z
	 M297.9,84.3V92h10v-7.6h3v18.3h-3v-8.2h-10v8.2h-3V84.3H297.9z M323.8,84c1.6,0,2.9,0.3,4,1s2,1.7,2.6,2.9c0.6,1.2,0.9,2.7,0.9,4.3
	V94h-12.6c0,2.1,0.6,3.7,1.6,4.8c1,1.1,2.5,1.6,4.3,1.6c1.2,0,2.2-0.1,3.1-0.3c0.9-0.2,1.9-0.5,2.8-1v2.6c-0.9,0.4-1.9,0.7-2.8,0.9
	c-0.9,0.2-2,0.3-3.3,0.3c-1.7,0-3.3-0.4-4.6-1.1c-1.3-0.7-2.4-1.8-3.1-3.1c-0.7-1.4-1.1-3.1-1.1-5.2c0-2,0.3-3.7,1-5.2
	c0.7-1.4,1.6-2.5,2.8-3.3C320.8,84.4,322.2,84,323.8,84L323.8,84z M323.8,86.5c-1.4,0-2.6,0.5-3.4,1.4s-1.3,2.2-1.5,3.8h9.4
	c0-1-0.2-2-0.5-2.7c-0.3-0.8-0.8-1.4-1.5-1.8C325.6,86.7,324.8,86.5,323.8,86.5z M351.6,84.3v18.3h-3V86.9h-9.5v15.8h-3V84.3H351.6z
	 M364.6,84c1.6,0,2.9,0.3,4,1s2,1.7,2.6,2.9c0.6,1.2,0.9,2.7,0.9,4.3V94h-12.6c0,2.1,0.6,3.7,1.6,4.8c1,1.1,2.5,1.6,4.3,1.6
	c1.2,0,2.2-0.1,3.1-0.3c0.9-0.2,1.8-0.5,2.8-1v2.6c-0.9,0.4-1.9,0.7-2.8,0.9c-0.9,0.2-2,0.3-3.3,0.3c-1.7,0-3.3-0.4-4.6-1.1
	c-1.3-0.7-2.4-1.8-3.1-3.1c-0.7-1.4-1.1-3.1-1.1-5.2c0-2,0.3-3.7,1-5.2c0.7-1.4,1.6-2.5,2.8-3.3C361.5,84.4,362.9,84,364.6,84
	L364.6,84z M364.5,86.5c-1.4,0-2.6,0.5-3.4,1.4s-1.3,2.2-1.5,3.8h9.4c0-1-0.2-2-0.5-2.7c-0.3-0.8-0.8-1.4-1.5-1.8
	C366.4,86.7,365.5,86.5,364.5,86.5z M385.5,84c2.3,0,4.1,0.8,5.4,2.4c1.4,1.6,2.1,3.9,2.1,7.1c0,2.1-0.3,3.8-1,5.3
	c-0.6,1.4-1.5,2.5-2.6,3.2s-2.4,1.1-4,1.1c-0.9,0-1.8-0.1-2.5-0.4s-1.4-0.6-1.9-1s-0.9-0.9-1.3-1.3h-0.2c0,0.4,0.1,0.9,0.1,1.5
	s0.1,1.1,0.1,1.5v7.5h-3V84.3h2.5l0.4,2.5h0.1c0.4-0.5,0.8-1,1.3-1.4s1.1-0.8,1.9-1C383.7,84.1,384.6,84,385.5,84z M385,86.5
	c-1.2,0-2.2,0.2-3,0.7s-1.3,1.2-1.6,2.1c-0.3,0.9-0.5,2.1-0.5,3.6v0.6c0,1.5,0.2,2.8,0.5,3.8s0.9,1.8,1.6,2.4
	c0.8,0.5,1.8,0.8,3.2,0.8c1.1,0,2-0.3,2.7-0.9s1.3-1.4,1.6-2.5c0.4-1.1,0.5-2.3,0.5-3.7c0-2.1-0.4-3.8-1.2-5
	C387.9,87.2,386.7,86.5,385,86.5L385,86.5z M405,84c1.6,0,2.9,0.3,4,1s2,1.7,2.6,2.9c0.6,1.2,0.9,2.7,0.9,4.3V94H400
	c0,2.1,0.6,3.7,1.6,4.8c1,1.1,2.5,1.6,4.3,1.6c1.2,0,2.2-0.1,3.1-0.3c0.9-0.2,1.9-0.5,2.8-1v2.6c-0.9,0.4-1.9,0.7-2.8,0.9
	c-0.9,0.2-2,0.3-3.3,0.3c-1.7,0-3.3-0.4-4.6-1.1c-1.3-0.7-2.4-1.8-3.1-3.1c-0.7-1.4-1.1-3.1-1.1-5.2c0-2,0.3-3.7,1-5.2
	c0.7-1.4,1.6-2.5,2.8-3.3C401.9,84.4,403.4,84,405,84z M404.9,86.5c-1.4,0-2.6,0.5-3.4,1.4s-1.3,2.2-1.5,3.8h9.4c0-1-0.2-2-0.5-2.7
	c-0.3-0.8-0.8-1.4-1.5-1.8C406.8,86.7,406,86.5,404.9,86.5z M420.2,84.3V92h10v-7.6h3v18.3h-3v-8.2h-10v8.2h-3V84.3H420.2z
	 M455,93.5c0,1.5-0.2,2.9-0.6,4.1s-1,2.2-1.7,3s-1.6,1.4-2.7,1.9c-1.1,0.4-2.2,0.6-3.5,0.6c-1.2,0-2.3-0.2-3.4-0.6
	c-1-0.4-1.9-1.1-2.7-1.9c-0.8-0.8-1.3-1.8-1.8-3c-0.4-1.2-0.6-2.5-0.6-4.1c0-2,0.3-3.7,1-5.1s1.7-2.5,2.9-3.2
	c1.3-0.8,2.8-1.1,4.6-1.1c1.7,0,3.1,0.4,4.4,1.1s2.3,1.8,3,3.2C454.7,89.7,455,91.4,455,93.5L455,93.5z M441.1,93.5
	c0,1.4,0.2,2.7,0.5,3.8c0.4,1,1,1.9,1.8,2.4c0.8,0.6,1.8,0.9,3.1,0.9c1.2,0,2.3-0.3,3-0.9c0.8-0.6,1.4-1.4,1.7-2.4
	c0.4-1.1,0.6-2.3,0.6-3.8s-0.2-2.7-0.6-3.7s-1-1.8-1.8-2.4s-1.8-0.9-3-0.9c-1.9,0-3.2,0.6-4.1,1.8C441.6,89.6,441.1,91.3,441.1,93.5
	z M467.2,103c-1.6,0-3.1-0.3-4.4-1s-2.3-1.7-3-3.1s-1.1-3.2-1.1-5.3c0-2.3,0.4-4.1,1.1-5.5c0.8-1.4,1.8-2.5,3.1-3.1
	c1.3-0.7,2.8-1,4.4-1c0.9,0,1.8,0.1,2.7,0.3c0.9,0.2,1.6,0.4,2.1,0.7l-0.9,2.5c-0.5-0.2-1.2-0.4-1.9-0.6c-0.7-0.2-1.4-0.3-2.1-0.3
	c-1.2,0-2.2,0.3-3,0.8s-1.4,1.3-1.8,2.3s-0.6,2.3-0.6,3.8s0.2,2.7,0.6,3.7s1,1.8,1.7,2.3c0.8,0.5,1.7,0.8,2.9,0.8
	c1,0,1.9-0.1,2.6-0.3c0.8-0.2,1.5-0.5,2.1-0.8v2.7c-0.6,0.3-1.3,0.6-2.1,0.7C469.1,102.9,468.2,103,467.2,103L467.2,103z
	 M479.1,95.5v2.1c0,0.4,0,0.8-0.1,1.2c0,0.4,0,0.7-0.1,0.9l9.8-15.4h3.7v18.3h-2.8V90.5c0-0.6,0-1.2,0.1-1.7c0-0.6,0-1,0.1-1.3
	l-9.8,15.3h-3.7V84.3h2.8V95.5z M518,84.3v18.3h-2.7V89.5c0-0.5,0.1-1,0.1-1.5h-0.1l-6,14.7h-2.5L501,87.9h-0.1c0,0.5,0.1,1,0.1,1.5
	v13.2h-2.7V84.3h4l5.8,14.7l5.9-14.7H518z M539.8,93.5c0,1.5-0.2,2.9-0.6,4.1c-0.4,1.2-1,2.2-1.7,3s-1.6,1.4-2.7,1.9
	c-1.1,0.4-2.2,0.6-3.5,0.6c-1.2,0-2.3-0.2-3.4-0.6c-1-0.4-1.9-1.1-2.7-1.9s-1.3-1.8-1.8-3c-0.4-1.2-0.6-2.5-0.6-4.1
	c0-2,0.3-3.7,1-5.1s1.7-2.5,2.9-3.2c1.3-0.8,2.8-1.1,4.6-1.1c1.7,0,3.1,0.4,4.4,1.1c1.3,0.7,2.3,1.8,3,3.2
	C539.5,89.7,539.8,91.4,539.8,93.5z M525.9,93.5c0,1.4,0.2,2.7,0.5,3.8c0.4,1,1,1.9,1.8,2.4c0.8,0.6,1.8,0.9,3,0.9s2.2-0.3,3.1-0.9
	c0.8-0.6,1.4-1.4,1.7-2.4c0.4-1.1,0.6-2.3,0.6-3.8s-0.2-2.7-0.6-3.7c-0.4-1-1-1.8-1.8-2.4s-1.8-0.9-3-0.9c-1.9,0-3.2,0.6-4.1,1.8
	C526.4,89.6,525.9,91.3,525.9,93.5z M552,103c-1.6,0-3.1-0.3-4.4-1c-1.3-0.7-2.3-1.7-3-3.1s-1.1-3.2-1.1-5.3c0-2.3,0.4-4.1,1.1-5.5
	c0.8-1.4,1.8-2.5,3-3.1c1.3-0.7,2.8-1,4.4-1c0.9,0,1.8,0.1,2.7,0.3c0.9,0.2,1.6,0.4,2.1,0.7l-0.9,2.5c-0.5-0.2-1.2-0.4-1.9-0.6
	s-1.4-0.3-2.1-0.3c-1.2,0-2.2,0.3-3,0.8s-1.4,1.3-1.8,2.3c-0.4,1-0.6,2.3-0.6,3.8s0.2,2.7,0.6,3.7c0.4,1,1,1.8,1.7,2.3
	c0.8,0.5,1.7,0.8,2.9,0.8c1,0,1.9-0.1,2.6-0.3c0.8-0.2,1.5-0.5,2.1-0.8v2.7c-0.6,0.3-1.3,0.6-2.1,0.7C553.9,102.9,553,103,552,103z
	 M573.8,86.9h-6v15.8h-3V86.9h-5.9v-2.5h14.9V86.9z M585.8,91.9c1.6,0,2.9,0.2,4,0.6s1.8,1,2.4,1.7c0.5,0.8,0.8,1.7,0.8,2.9
	c0,1.1-0.3,2.1-0.8,3c-0.5,0.8-1.3,1.5-2.4,1.9c-1.1,0.5-2.5,0.7-4.1,0.7h-8.3V84.3h3v7.5L585.8,91.9L585.8,91.9z M590,97.2
	c0-1.1-0.4-1.9-1.2-2.3s-1.9-0.6-3.3-0.6h-5.1v5.9h5.2c1.3,0,2.3-0.2,3.2-0.7C589.6,99.1,590,98.3,590,97.2L590,97.2z M11.9,129h3.3
	l-7.8,8.8l8.5,9.5h-3.5L4,138.1v9.3H1V129h3v8.9L11.9,129z M34.5,138.2c0,1.5-0.2,2.9-0.6,4.1c-0.4,1.2-1,2.2-1.7,3
	s-1.6,1.4-2.7,1.9c-1.1,0.4-2.2,0.6-3.5,0.6c-1.2,0-2.3-0.2-3.4-0.6c-1-0.4-1.9-1.1-2.7-1.9s-1.3-1.8-1.8-3
	c-0.4-1.2-0.6-2.5-0.6-4.1c0-2,0.3-3.7,1-5.1c0.7-1.4,1.7-2.5,2.9-3.2c1.3-0.8,2.8-1.1,4.6-1.1c1.7,0,3.1,0.4,4.4,1.1
	c1.3,0.7,2.3,1.8,3,3.2C34.1,134.4,34.5,136.1,34.5,138.2z M20.6,138.2c0,1.4,0.2,2.7,0.5,3.8c0.4,1,1,1.9,1.8,2.4
	c0.8,0.6,1.8,0.9,3.1,0.9s2.3-0.3,3.1-0.9c0.8-0.6,1.4-1.4,1.7-2.4c0.4-1.1,0.6-2.3,0.6-3.8s-0.2-2.7-0.6-3.7s-1-1.8-1.8-2.4
	c-0.8-0.6-1.8-0.9-3.1-0.9c-1.9,0-3.2,0.6-4.1,1.8C21,134.3,20.6,136,20.6,138.2L20.6,138.2z M59,129v18.3h-2.7v-13.2
	c0-0.5,0.1-1,0.1-1.5h-0.1l-6,14.7h-2.5L42,132.6h-0.1c0,0.5,0.1,1,0.1,1.5v13.2h-2.7V129h4l5.8,14.7L55,129H59z M80.3,129v18.3h-3
	v-15.8h-9.5v15.8h-3V129H80.3z M102.2,138.2c0,1.5-0.2,2.9-0.6,4.1c-0.4,1.2-1,2.2-1.7,3s-1.6,1.4-2.7,1.9c-1.1,0.4-2.2,0.6-3.5,0.6
	c-1.2,0-2.3-0.2-3.4-0.6c-1-0.4-1.9-1.1-2.7-1.9c-0.8-0.8-1.3-1.8-1.8-3c-0.4-1.2-0.6-2.5-0.6-4.1c0-2,0.3-3.7,1-5.1
	c0.7-1.4,1.7-2.5,2.9-3.2c1.3-0.8,2.8-1.1,4.6-1.1c1.7,0,3.1,0.4,4.4,1.1c1.3,0.7,2.3,1.8,3,3.2
	C101.8,134.4,102.2,136.1,102.2,138.2z M88.3,138.2c0,1.4,0.2,2.7,0.5,3.8c0.4,1,1,1.9,1.8,2.4c0.8,0.6,1.8,0.9,3.1,0.9
	c1.2,0,2.3-0.3,3.1-0.9c0.8-0.6,1.4-1.4,1.7-2.4c0.4-1.1,0.6-2.3,0.6-3.8s-0.2-2.7-0.6-3.7s-1-1.8-1.8-2.4c-0.8-0.6-1.8-0.9-3.1-0.9
	c-1.9,0-3.2,0.6-4.1,1.8C88.7,134.3,88.3,136,88.3,138.2L88.3,138.2z M110,129v7.6h10V129h3v18.3h-3v-8.2h-10v8.2h-3V129H110z
	 M135.9,128.7c1.6,0,2.9,0.3,4,1s2,1.7,2.6,2.9s0.9,2.7,0.9,4.3v1.8h-12.6c0,2.1,0.6,3.7,1.6,4.8s2.5,1.6,4.3,1.6
	c1.2,0,2.2-0.1,3.1-0.3c0.9-0.2,1.9-0.5,2.8-1v2.6c-0.9,0.4-1.9,0.7-2.8,0.9c-0.9,0.2-2,0.3-3.3,0.3c-1.7,0-3.3-0.4-4.6-1.1
	c-1.3-0.7-2.4-1.8-3.1-3.1c-0.7-1.4-1.1-3.1-1.1-5.2c0-2,0.3-3.7,1-5.2c0.7-1.4,1.6-2.5,2.8-3.3
	C132.8,129.1,134.2,128.7,135.9,128.7L135.9,128.7z M135.8,131.2c-1.4,0-2.6,0.5-3.4,1.4c-0.8,0.9-1.3,2.2-1.5,3.8h9.4
	c0-1-0.2-2-0.5-2.7c-0.3-0.8-0.8-1.4-1.5-1.8C137.7,131.4,136.9,131.2,135.8,131.2z M151.1,129v7.6h10V129h3v18.3h-3v-8.2h-10v8.2
	h-3V129H151.1z M182.6,131.6h-6v15.8h-3v-15.8h-5.9V129h14.9V131.6z M201.9,138.2c0,1.5-0.2,2.9-0.6,4.1c-0.4,1.2-1,2.2-1.7,3
	s-1.6,1.4-2.7,1.9c-1.1,0.4-2.2,0.6-3.5,0.6c-1.2,0-2.3-0.2-3.4-0.6c-1-0.4-1.9-1.1-2.7-1.9s-1.3-1.8-1.8-3
	c-0.4-1.2-0.6-2.5-0.6-4.1c0-2,0.3-3.7,1-5.1c0.7-1.4,1.7-2.5,2.9-3.2c1.3-0.8,2.8-1.1,4.6-1.1c1.7,0,3.1,0.4,4.4,1.1
	c1.3,0.7,2.3,1.8,3,3.2C201.5,134.4,201.9,136.1,201.9,138.2z M188,138.2c0,1.4,0.2,2.7,0.5,3.8c0.4,1,1,1.9,1.8,2.4
	c0.8,0.6,1.8,0.9,3,0.9s2.2-0.3,3.1-0.9c0.8-0.6,1.4-1.4,1.7-2.4c0.4-1.1,0.6-2.3,0.6-3.8s-0.2-2.7-0.6-3.7c-0.4-1-1-1.8-1.8-2.4
	c-0.8-0.6-1.8-0.9-3.1-0.9c-1.9,0-3.2,0.6-4.1,1.8C188.4,134.3,188,136,188,138.2L188,138.2z M221.4,133.7c0,1.1-0.3,2-1,2.7
	c-0.7,0.6-1.6,1.1-2.6,1.3v0.1c1.1,0.2,2.1,0.6,3,1.2c0.8,0.6,1.3,1.6,1.3,3c0,0.8-0.1,1.5-0.4,2.2c-0.3,0.7-0.7,1.2-1.3,1.7
	s-1.4,0.9-2.3,1.1c-0.9,0.2-2.1,0.4-3.4,0.4h-7.9V129h7.9c1.3,0,2.5,0.1,3.5,0.4c1.1,0.3,1.9,0.8,2.5,1.4
	C221.1,131.6,221.4,132.5,221.4,133.7L221.4,133.7z M218.9,142c0-1-0.4-1.8-1.2-2.3s-2-0.7-3.5-0.7h-4.5v5.9h4.6
	c1.5,0,2.7-0.2,3.5-0.6C218.5,143.8,218.9,143.1,218.9,142L218.9,142z M218.4,134c0-0.9-0.3-1.5-1-1.9c-0.6-0.4-1.6-0.6-3.1-0.6
	h-4.7v5h4.1c1.5,0,2.6-0.2,3.4-0.6C218,135.5,218.4,134.9,218.4,134z M225.7,145.2c0-0.7,0.3-1.3,0.8-1.8s1.1-0.8,1.8-0.8
	s1.3,0.2,1.8,0.8c0.5,0.5,0.8,1.1,0.8,1.7c0,0.7-0.3,1.5-0.9,2.5l-2.1,3.4h-2l1.3-3.6C226.2,147,225.7,146.2,225.7,145.2
	L225.7,145.2z M244.5,136.4c0-2.7,0.3-4.9,0.8-6.8c0.5-1.9,1.4-3.4,2.5-4.5s2.6-1.9,4.4-2.3c1.5-0.3,2.9-0.6,4.4-0.9
	c1.4-0.3,2.7-0.5,4-0.7l0.5,2.6c-0.6,0.1-1.3,0.2-2,0.3c-0.7,0.1-1.5,0.2-2.2,0.4c-0.8,0.1-1.5,0.2-2.2,0.4
	c-0.7,0.1-1.3,0.2-1.8,0.3c-0.8,0.2-1.4,0.4-2,0.8s-1.1,0.9-1.5,1.5c-0.4,0.6-0.7,1.4-1,2.4c-0.3,0.9-0.4,2-0.4,3.3h0.2
	c0.3-0.4,0.8-0.9,1.3-1.3c0.6-0.5,1.2-0.8,2-1.2c0.8-0.3,1.7-0.5,2.7-0.5c1.6,0,2.9,0.4,4,1.1c1.1,0.7,1.9,1.6,2.4,2.9
	c0.5,1.2,0.8,2.7,0.8,4.3c0,2-0.4,3.7-1.1,5.1c-0.7,1.4-1.7,2.4-2.9,3.1c-1.3,0.7-2.7,1-4.4,1c-1.3,0-2.4-0.2-3.4-0.7
	s-1.9-1.2-2.6-2.2c-0.7-1-1.3-2.1-1.7-3.6C244.7,139.8,244.5,138.2,244.5,136.4L244.5,136.4z M253.1,145.2c1,0,1.9-0.2,2.6-0.6
	c0.8-0.4,1.3-1.1,1.7-2c0.4-0.9,0.6-2.2,0.6-3.7c0-1.9-0.4-3.3-1.1-4.4c-0.7-1.1-1.8-1.6-3.4-1.6c-1,0-1.9,0.2-2.7,0.7
	c-0.8,0.4-1.5,0.9-2.1,1.5c-0.5,0.6-0.9,1-1.2,1.4c0,1.1,0.1,2.2,0.2,3.2c0.2,1,0.4,2,0.8,2.8c0.4,0.8,1,1.5,1.7,2
	C251,145,252,145.2,253.1,145.2L253.1,145.2z M273.1,128.7c1.6,0,2.9,0.3,4,1s2,1.7,2.6,2.9s0.9,2.7,0.9,4.3v1.8H268
	c0,2.1,0.6,3.7,1.6,4.8s2.5,1.6,4.3,1.6c1.2,0,2.2-0.1,3.1-0.3s1.9-0.5,2.8-1v2.6c-0.9,0.4-1.9,0.7-2.8,0.9s-2,0.3-3.3,0.3
	c-1.7,0-3.3-0.4-4.6-1.1c-1.3-0.7-2.4-1.8-3.1-3.1c-0.7-1.4-1.1-3.1-1.1-5.2c0-2,0.3-3.7,1-5.2c0.7-1.4,1.6-2.5,2.8-3.3
	C270,129.1,271.4,128.7,273.1,128.7L273.1,128.7z M273,131.2c-1.4,0-2.6,0.5-3.4,1.4s-1.3,2.2-1.5,3.8h9.4c0-1-0.2-2-0.5-2.7
	c-0.3-0.8-0.8-1.4-1.5-1.8C274.9,131.4,274,131.2,273,131.2z M294,128.7c2.3,0,4.1,0.8,5.4,2.4c1.4,1.6,2.1,3.9,2.1,7.1
	c0,2.1-0.3,3.8-1,5.3c-0.6,1.4-1.5,2.5-2.6,3.2s-2.4,1.1-4,1.1c-0.9,0-1.8-0.1-2.5-0.4c-0.7-0.3-1.4-0.6-1.9-1s-0.9-0.9-1.3-1.3H288
	c0,0.4,0.1,0.9,0.1,1.5s0.1,1.1,0.1,1.5v7.5h-3V129h2.5l0.4,2.5h0.1c0.4-0.5,0.8-1,1.3-1.4s1.1-0.8,1.9-1
	C292.2,128.8,293.1,128.7,294,128.7z M293.5,131.2c-1.2,0-2.2,0.2-3,0.7s-1.3,1.2-1.6,2.1c-0.3,0.9-0.5,2.1-0.5,3.6v0.6
	c0,1.5,0.2,2.8,0.5,3.8s0.9,1.8,1.6,2.4c0.8,0.5,1.8,0.8,3.2,0.8c1.1,0,2-0.3,2.7-0.9c0.7-0.6,1.3-1.4,1.6-2.5
	c0.4-1.1,0.5-2.3,0.5-3.7c0-2.1-0.4-3.8-1.2-5C296.4,131.9,295.2,131.2,293.5,131.2L293.5,131.2z M313.5,128.7c1.6,0,2.9,0.3,4,1
	s2,1.7,2.6,2.9s0.9,2.7,0.9,4.3v1.8h-12.6c0,2.1,0.6,3.7,1.6,4.8s2.5,1.6,4.3,1.6c1.2,0,2.2-0.1,3.1-0.3s1.9-0.5,2.8-1v2.6
	c-0.9,0.4-1.9,0.7-2.8,0.9s-2,0.3-3.3,0.3c-1.7,0-3.3-0.4-4.6-1.1c-1.3-0.7-2.4-1.8-3.1-3.1c-0.7-1.4-1.1-3.1-1.1-5.2
	c0-2,0.3-3.7,1-5.2c0.7-1.4,1.6-2.5,2.8-3.3C310.4,129.1,311.9,128.7,313.5,128.7L313.5,128.7z M313.4,131.2c-1.4,0-2.6,0.5-3.4,1.4
	s-1.3,2.2-1.5,3.8h9.4c0-1-0.2-2-0.5-2.7c-0.3-0.8-0.8-1.4-1.5-1.8C315.3,131.4,314.5,131.2,313.4,131.2z M345.4,129v18.3h-2.7
	v-13.2c0-0.5,0.1-1,0.1-1.5h-0.1l-6,14.7h-2.5l-5.8-14.7h-0.1c0,0.5,0.1,1,0.1,1.5v13.2h-2.7V129h4l5.8,14.7l5.9-14.7L345.4,129
	L345.4,129z M358.4,128.7c1.6,0,2.9,0.3,4,1s2,1.7,2.6,2.9s0.9,2.7,0.9,4.3v1.8h-12.6c0,2.1,0.6,3.7,1.6,4.8s2.5,1.6,4.3,1.6
	c1.2,0,2.2-0.1,3.1-0.3s1.9-0.5,2.8-1v2.6c-0.9,0.4-1.9,0.7-2.8,0.9s-2,0.3-3.3,0.3c-1.7,0-3.3-0.4-4.6-1.1
	c-1.3-0.7-2.4-1.8-3.1-3.1c-0.7-1.4-1.1-3.1-1.1-5.2c0-2,0.3-3.7,1-5.2c0.7-1.4,1.6-2.5,2.8-3.3
	C355.3,129.1,356.8,128.7,358.4,128.7L358.4,128.7z M358.4,131.2c-1.4,0-2.6,0.5-3.4,1.4s-1.3,2.2-1.5,3.8h9.4c0-1-0.2-2-0.5-2.7
	c-0.3-0.8-0.8-1.4-1.5-1.8C360.2,131.4,359.4,131.2,358.4,131.2z M373.7,129v7.6h10V129h3v18.3h-3v-8.2h-10v8.2h-3V129L373.7,129
	L373.7,129z M395.5,129v7.6h10V129h3v18.3h-3v-8.2h-10v8.2h-3V129L395.5,129L395.5,129z M430.3,138.2c0,1.5-0.2,2.9-0.6,4.1
	c-0.4,1.2-1,2.2-1.7,3s-1.6,1.4-2.7,1.9c-1.1,0.4-2.2,0.6-3.5,0.6c-1.2,0-2.3-0.2-3.4-0.6c-1-0.4-1.9-1.1-2.7-1.9s-1.3-1.8-1.8-3
	c-0.4-1.2-0.6-2.5-0.6-4.1c0-2,0.3-3.7,1-5.1c0.7-1.4,1.7-2.5,2.9-3.2c1.3-0.8,2.8-1.1,4.6-1.1c1.7,0,3.1,0.4,4.4,1.1
	c1.3,0.7,2.3,1.8,3,3.2C429.9,134.4,430.3,136.1,430.3,138.2L430.3,138.2z M416.4,138.2c0,1.4,0.2,2.7,0.5,3.8c0.4,1,1,1.9,1.8,2.4
	c0.8,0.6,1.8,0.9,3.1,0.9c1.2,0,2.3-0.3,3-0.9c0.8-0.6,1.4-1.4,1.7-2.4c0.4-1.1,0.6-2.3,0.6-3.8s-0.2-2.7-0.6-3.7s-1-1.8-1.8-2.4
	c-0.8-0.6-1.8-0.9-3.1-0.9c-1.9,0-3.2,0.6-4.1,1.8C416.8,134.3,416.4,136,416.4,138.2L416.4,138.2z M442.4,147.7
	c-1.6,0-3.1-0.3-4.4-1s-2.3-1.7-3-3.1c-0.7-1.4-1.1-3.2-1.1-5.3c0-2.3,0.4-4.1,1.1-5.5s1.8-2.5,3-3.1c1.3-0.7,2.8-1,4.4-1
	c0.9,0,1.8,0.1,2.7,0.3c0.9,0.2,1.6,0.4,2.1,0.7l-0.9,2.5c-0.5-0.2-1.2-0.4-1.9-0.6c-0.7-0.2-1.4-0.3-2.1-0.3
	c-1.2,0-2.2,0.3-3.1,0.8c-0.8,0.5-1.4,1.3-1.8,2.3s-0.6,2.3-0.6,3.8s0.2,2.7,0.6,3.7s1,1.8,1.7,2.3s1.7,0.8,2.9,0.8
	c1,0,1.9-0.1,2.6-0.3c0.8-0.2,1.5-0.5,2.1-0.8v2.7c-0.6,0.3-1.3,0.6-2.1,0.7C444.3,147.6,443.5,147.7,442.4,147.7L442.4,147.7z
	 M464.2,131.6h-6v15.8h-3v-15.8h-5.9V129h14.9V131.6z M476.3,136.6c1.6,0,2.9,0.2,4,0.6c1.1,0.4,1.8,1,2.4,1.7
	c0.5,0.8,0.8,1.7,0.8,2.9c0,1.1-0.3,2.1-0.8,3c-0.5,0.8-1.3,1.5-2.4,1.9c-1.1,0.5-2.5,0.7-4.1,0.7h-8.3V129h3v7.5h5.4V136.6z
	 M480.4,141.9c0-1.1-0.4-1.9-1.2-2.3c-0.8-0.4-1.9-0.6-3.3-0.6h-5.1v5.9h5.2c1.3,0,2.3-0.2,3.2-0.7C480,143.8,480.4,143,480.4,141.9
	L480.4,141.9z M487.5,145.2c0-0.7,0.3-1.3,0.8-1.8s1.1-0.8,1.8-0.8s1.3,0.2,1.8,0.8c0.5,0.5,0.8,1.1,0.8,1.7c0,0.7-0.3,1.5-0.9,2.5
	l-2.1,3.4h-2l1.3-3.6C488,147,487.5,146.2,487.5,145.2L487.5,145.2z M11.9,173.8h3.3l-7.8,8.8l8.5,9.5h-3.5L4,182.8v9.3H1v-18.3h3
	v8.9L11.9,173.8z M34.5,182.9c0,1.5-0.2,2.9-0.6,4.1c-0.4,1.2-1,2.2-1.7,3s-1.6,1.4-2.7,1.9c-1.1,0.4-2.2,0.6-3.5,0.6
	c-1.2,0-2.3-0.2-3.4-0.6c-1-0.4-1.9-1.1-2.7-1.9s-1.3-1.8-1.8-3c-0.4-1.2-0.6-2.5-0.6-4.1c0-2,0.3-3.7,1-5.1
	c0.7-1.4,1.7-2.5,2.9-3.2c1.3-0.8,2.8-1.1,4.6-1.1c1.7,0,3.1,0.4,4.4,1.1c1.3,0.7,2.3,1.8,3,3.2C34.1,179.1,34.5,180.9,34.5,182.9z
	 M20.6,182.9c0,1.4,0.2,2.7,0.5,3.8c0.4,1,1,1.9,1.8,2.4c0.8,0.6,1.8,0.9,3.1,0.9s2.3-0.3,3.1-0.9c0.8-0.6,1.4-1.4,1.7-2.4
	c0.4-1.1,0.6-2.3,0.6-3.8s-0.2-2.7-0.6-3.7s-1-1.8-1.8-2.4c-0.8-0.6-1.8-0.9-3.1-0.9c-1.9,0-3.2,0.6-4.1,1.8
	C21,179,20.6,180.7,20.6,182.9L20.6,182.9z M48,173.4c2.3,0,4.1,0.8,5.4,2.4c1.4,1.6,2.1,3.9,2.1,7.1c0,2.1-0.3,3.8-1,5.3
	c-0.6,1.4-1.5,2.5-2.6,3.2s-2.4,1.1-4,1.1c-0.9,0-1.8-0.1-2.5-0.4c-0.7-0.3-1.4-0.6-1.9-1s-0.9-0.9-1.3-1.3H42
	c0,0.4,0.1,0.9,0.1,1.5s0.1,1.1,0.1,1.5v7.5h-3v-26.5h2.5l0.4,2.5h0.1c0.4-0.5,0.8-1,1.3-1.4s1.1-0.8,1.9-1
	C46.1,173.5,47,173.4,48,173.4L48,173.4z M47.4,175.9c-1.2,0-2.2,0.2-3,0.7s-1.3,1.2-1.6,2.1c-0.3,0.9-0.5,2.1-0.5,3.6v0.6
	c0,1.5,0.2,2.8,0.5,3.8s0.9,1.8,1.6,2.4c0.8,0.5,1.8,0.8,3.2,0.8c1.1,0,2-0.3,2.7-0.9c0.7-0.6,1.3-1.4,1.6-2.5
	c0.4-1.1,0.5-2.3,0.5-3.7c0-2.1-0.4-3.8-1.2-5S49.1,175.9,47.4,175.9L47.4,175.9z M80,173.8v18.3h-2.7v-13.2c0-0.5,0.1-1,0.1-1.5
	h-0.1l-6,14.7h-2.5L63,177.3h-0.1c0,0.5,0.1,1,0.1,1.5V192h-2.7v-18.3h4l5.8,14.7l5.9-14.7h4L80,173.8z M99.9,192.1h-3.1v-15.8h-5.4
	c-0.2,2.9-0.5,5.4-0.9,7.4c-0.3,2-0.8,3.7-1.3,5s-1.2,2.2-1.9,2.8c-0.7,0.6-1.6,0.9-2.6,0.9c-0.3,0-0.6,0-0.9-0.1
	c-0.3,0-0.5-0.1-0.7-0.2v-2.3c0.1,0,0.3,0.1,0.4,0.1H84c0.5,0,1-0.2,1.4-0.6c0.4-0.4,0.8-1,1.1-1.9c0.3-0.8,0.7-1.9,0.9-3.2
	c0.3-1.3,0.5-2.8,0.7-4.6s0.4-3.7,0.5-6h11.1v18.5L99.9,192.1z M112.8,173.4c1.6,0,2.9,0.3,4,1s2,1.7,2.6,2.9s0.9,2.7,0.9,4.3v1.8
	h-12.6c0,2.1,0.6,3.7,1.6,4.8s2.5,1.6,4.3,1.6c1.2,0,2.2-0.1,3.1-0.3s1.8-0.5,2.8-1v2.6c-0.9,0.4-1.9,0.7-2.8,0.9s-2,0.3-3.3,0.3
	c-1.7,0-3.3-0.4-4.6-1.1c-1.3-0.7-2.4-1.8-3.1-3.1c-0.7-1.4-1.1-3.1-1.1-5.2c0-2,0.3-3.7,1-5.2c0.7-1.4,1.6-2.5,2.8-3.3
	C109.8,173.8,111.2,173.4,112.8,173.4z M112.8,175.9c-1.4,0-2.6,0.5-3.4,1.4s-1.3,2.2-1.5,3.8h9.4c0-1-0.2-2-0.5-2.7
	c-0.3-0.8-0.8-1.4-1.5-1.8C114.6,176.1,113.8,175.9,112.8,175.9z M128.1,173.8v7.6h10v-7.6h3v18.3h-3v-8.2h-10v8.2h-3v-18.3H128.1z
	 M149.7,184.9v2.1c0,0.4,0,0.8-0.1,1.2c0,0.4,0,0.7-0.1,0.9l9.8-15.4h3.7V192h-2.8v-12.2c0-0.6,0-1.2,0.1-1.7c0-0.6,0-1,0.1-1.3
	l-9.8,15.3h-3.7v-18.3h2.8V184.9z M176,173.4c1.6,0,2.9,0.3,4,1s2,1.7,2.6,2.9s0.9,2.7,0.9,4.3v1.8H171c0,2.1,0.6,3.7,1.6,4.8
	s2.5,1.6,4.3,1.6c1.2,0,2.2-0.1,3.1-0.3c0.9-0.2,1.9-0.5,2.8-1v2.6c-0.9,0.4-1.9,0.7-2.8,0.9c-0.9,0.2-2,0.3-3.3,0.3
	c-1.7,0-3.3-0.4-4.6-1.1c-1.3-0.7-2.4-1.8-3.1-3.1c-0.7-1.4-1.1-3.1-1.1-5.2c0-2,0.3-3.7,1-5.2c0.7-1.4,1.6-2.5,2.8-3.3
	C172.9,173.8,174.4,173.4,176,173.4L176,173.4z M176,175.9c-1.4,0-2.6,0.5-3.4,1.4c-0.8,0.9-1.3,2.2-1.5,3.8h9.4c0-1-0.2-2-0.5-2.7
	c-0.3-0.8-0.8-1.4-1.5-1.8C177.8,176.1,177,175.9,176,175.9z M208.9,173.8v2.5h-8.2v15.8h-3v-18.3H208.9z M221.2,173.4
	c2.3,0,4.1,0.8,5.4,2.4c1.4,1.6,2.1,3.9,2.1,7.1c0,2.1-0.3,3.8-1,5.3c-0.6,1.4-1.5,2.5-2.6,3.2s-2.4,1.1-4,1.1
	c-0.9,0-1.8-0.1-2.5-0.4c-0.7-0.3-1.4-0.6-1.9-1s-0.9-0.9-1.3-1.3h-0.2c0,0.4,0.1,0.9,0.1,1.5s0.1,1.1,0.1,1.5v7.5h-3v-26.5h2.5
	l0.4,2.5h0.1c0.4-0.5,0.8-1,1.3-1.4s1.1-0.8,1.9-1C219.4,173.5,220.2,173.4,221.2,173.4L221.2,173.4z M220.7,175.9
	c-1.2,0-2.2,0.2-3,0.7s-1.3,1.2-1.6,2.1c-0.3,0.9-0.5,2.1-0.5,3.6v0.6c0,1.5,0.2,2.8,0.5,3.8s0.9,1.8,1.6,2.4
	c0.8,0.5,1.8,0.8,3.2,0.8c1.1,0,2-0.3,2.7-0.9c0.7-0.6,1.3-1.4,1.6-2.5c0.4-1.1,0.5-2.3,0.5-3.7c0-2.1-0.4-3.8-1.2-5
	C223.6,176.6,222.4,175.9,220.7,175.9L220.7,175.9z M230.3,173.8h3.2l4,10.4l0.6,1.8c0.2,0.6,0.4,1.1,0.5,1.7c0.2,0.5,0.3,1,0.4,1.5
	h0.1c0.1-0.6,0.4-1.3,0.7-2.2s0.6-1.9,0.9-2.8l3.7-10.4h3.3l-7.9,20.9c-0.4,1.1-0.9,2.1-1.5,3s-1.3,1.5-2.1,2s-1.8,0.7-3,0.7
	c-0.5,0-1,0-1.4-0.1c-0.4,0-0.8-0.1-1.1-0.2v-2.4c0.3,0,0.5,0.1,0.9,0.1s0.7,0.1,1.1,0.1c0.7,0,1.3-0.1,1.8-0.4
	c0.5-0.3,1-0.6,1.3-1.1c0.4-0.5,0.7-1,0.9-1.7l1-2.4L230.3,173.8L230.3,173.8z M263.7,173.8v15.8h2.7v8.9h-2.9v-6.4h-12.8v6.4h-2.9
	v-8.9h1.5c1.1-1.5,1.9-3,2.6-4.8c0.7-1.7,1.2-3.5,1.6-5.4c0.4-1.9,0.6-3.8,0.6-5.6H263.7L263.7,173.8z M256.7,176.1
	c-0.1,1.6-0.3,3.2-0.7,4.8c-0.4,1.6-0.9,3.2-1.5,4.7s-1.3,2.8-2.1,3.9h8.4v-13.4H256.7L256.7,176.1z M278.4,181.3
	c1.6,0,2.9,0.2,4,0.6c1.1,0.4,1.8,1,2.4,1.7c0.5,0.8,0.8,1.7,0.8,2.9c0,1.1-0.3,2.1-0.8,3c-0.5,0.8-1.3,1.5-2.4,1.9
	c-1.1,0.5-2.5,0.7-4.1,0.7H270v-18.3h3v7.5L278.4,181.3L278.4,181.3z M282.6,186.6c0-1.1-0.4-1.9-1.2-2.3c-0.8-0.4-1.9-0.6-3.3-0.6
	H273v5.9h5.2c1.3,0,2.3-0.2,3.2-0.7C282.1,188.5,282.6,187.7,282.6,186.6L282.6,186.6z M314.1,182.9c0,2-0.3,3.8-1,5.2
	s-1.6,2.5-2.8,3.2c-1.2,0.7-2.6,1.1-4.3,1.1c-1.6,0-2.9-0.3-4.1-1s-2.1-1.6-2.8-2.9c-0.7-1.3-1.1-2.8-1.2-4.7h-4.7v8.2h-3v-18.3h3
	v7.6h4.7c0.2-1.7,0.6-3.2,1.3-4.3c0.7-1.2,1.6-2.1,2.8-2.7c1.2-0.6,2.5-0.9,4-0.9c1.6,0,3,0.4,4.2,1.1c1.2,0.7,2.2,1.8,2.8,3.2
	C313.8,179.1,314.1,180.9,314.1,182.9L314.1,182.9z M301,182.9c0,1.5,0.2,2.8,0.5,3.9c0.4,1,0.9,1.8,1.6,2.4
	c0.7,0.5,1.7,0.8,2.8,0.8c1.2,0,2.1-0.3,2.8-0.8c0.7-0.5,1.3-1.3,1.6-2.4c0.3-1,0.5-2.3,0.5-3.9c0-1.5-0.2-2.8-0.5-3.8
	s-0.9-1.8-1.6-2.3s-1.7-0.8-2.8-0.8c-1.2,0-2.1,0.3-2.8,0.8c-0.7,0.5-1.3,1.3-1.6,2.3C301.2,180.1,301,181.4,301,182.9z
	 M318.3,189.9c0-0.7,0.3-1.3,0.8-1.8s1.1-0.8,1.8-0.8s1.3,0.2,1.8,0.8c0.5,0.5,0.8,1.1,0.8,1.7c0,0.7-0.3,1.5-0.9,2.5l-2.1,3.4h-2
	l1.3-3.6C318.8,191.7,318.3,190.9,318.3,189.9L318.3,189.9z M353.5,173.8v18.3h-3v-15.8H341v15.8h-3v-18.3H353.5L353.5,173.8z
	 M375.3,182.9c0,1.5-0.2,2.9-0.6,4.1c-0.4,1.2-1,2.2-1.7,3s-1.6,1.4-2.7,1.9c-1.1,0.4-2.2,0.6-3.5,0.6c-1.2,0-2.3-0.2-3.4-0.6
	c-1-0.4-1.9-1.1-2.7-1.9s-1.3-1.8-1.8-3c-0.4-1.2-0.6-2.5-0.6-4.1c0-2,0.3-3.7,1-5.1c0.7-1.4,1.7-2.5,2.9-3.2
	c1.3-0.8,2.8-1.1,4.6-1.1c1.7,0,3.1,0.4,4.4,1.1c1.3,0.7,2.3,1.8,3,3.2C375,179.1,375.3,180.9,375.3,182.9L375.3,182.9z
	 M361.5,182.9c0,1.4,0.2,2.7,0.5,3.8c0.4,1,1,1.9,1.8,2.4c0.8,0.6,1.8,0.9,3,0.9s2.2-0.3,3-0.9c0.8-0.6,1.4-1.4,1.7-2.4
	c0.4-1.1,0.6-2.3,0.6-3.8s-0.2-2.7-0.6-3.7s-1-1.8-1.8-2.4c-0.8-0.6-1.8-0.9-3-0.9c-1.9,0-3.2,0.6-4.1,1.8
	C361.9,179,361.5,180.7,361.5,182.9L361.5,182.9z M394.9,178.4c0,1.1-0.3,2-1,2.7c-0.7,0.6-1.6,1.1-2.6,1.3v0.1
	c1.1,0.2,2.1,0.6,3,1.2c0.8,0.6,1.3,1.6,1.3,3c0,0.8-0.1,1.5-0.4,2.2s-0.7,1.2-1.3,1.7c-0.6,0.5-1.4,0.9-2.3,1.1
	c-0.9,0.2-2.1,0.4-3.4,0.4h-7.9v-18.3h7.9c1.3,0,2.5,0.1,3.5,0.4c1.1,0.3,1.9,0.8,2.5,1.4C394.6,176.3,394.9,177.2,394.9,178.4
	L394.9,178.4z M392.4,186.7c0-1-0.4-1.8-1.2-2.3c-0.8-0.5-2-0.7-3.5-0.7h-4.5v5.9h4.6c1.5,0,2.7-0.2,3.5-0.6
	C392,188.6,392.4,187.8,392.4,186.7L392.4,186.7z M391.8,178.7c0-0.9-0.3-1.5-1-1.9c-0.6-0.4-1.6-0.6-3.1-0.6H383v5h4.1
	c1.5,0,2.6-0.2,3.4-0.6C391.4,180.3,391.8,179.6,391.8,178.7L391.8,178.7z M399.9,192.1v-18.3h3v7.5h4.8c1.6,0,2.9,0.2,3.9,0.6
	c1,0.4,1.8,1,2.3,1.7c0.5,0.8,0.8,1.7,0.8,2.9c0,1.1-0.3,2.1-0.8,3c-0.5,0.8-1.2,1.5-2.3,1.9c-1,0.5-2.4,0.7-4.1,0.7L399.9,192.1
	L399.9,192.1z M407.2,189.7c1.3,0,2.4-0.2,3.2-0.6c0.8-0.5,1.2-1.2,1.2-2.4c0-1.1-0.4-1.9-1.1-2.3c-0.8-0.4-1.8-0.6-3.3-0.6h-4.4
	v5.9L407.2,189.7L407.2,189.7z M417.7,192.1v-18.3h3v18.3H417.7z M451.4,173.8v18.3h-24.9v-18.3h3v15.8h7.9v-15.8h3v15.8h8v-15.8
	H451.4z M464.4,173.4c1.6,0,2.9,0.3,4,1s2,1.7,2.6,2.9s0.9,2.7,0.9,4.3v1.8h-12.6c0,2.1,0.6,3.7,1.6,4.8s2.5,1.6,4.3,1.6
	c1.2,0,2.2-0.1,3.1-0.3s1.9-0.5,2.8-1v2.6c-0.9,0.4-1.9,0.7-2.8,0.9s-2,0.3-3.3,0.3c-1.7,0-3.3-0.4-4.6-1.1
	c-1.3-0.7-2.4-1.8-3.1-3.1c-0.7-1.4-1.1-3.1-1.1-5.2c0-2,0.3-3.7,1-5.2c0.7-1.4,1.6-2.5,2.8-3.3
	C461.4,173.8,462.8,173.4,464.4,173.4L464.4,173.4z M464.4,175.9c-1.4,0-2.6,0.5-3.4,1.4s-1.3,2.2-1.5,3.8h9.4c0-1-0.2-2-0.5-2.7
	c-0.3-0.8-0.8-1.4-1.5-1.8C466.2,176.1,465.4,175.9,464.4,175.9z M479.7,173.8v7.6h10v-7.6h3v18.3h-3v-8.2h-10v8.2h-3v-18.3H479.7z
	 M501.5,173.8v7.6h10v-7.6h3v18.3h-3v-8.2h-10v8.2h-3v-18.3H501.5L501.5,173.8z M527.3,173.4c2.2,0,3.9,0.5,5,1.5s1.6,2.5,1.6,4.7
	v12.5h-2.2l-0.6-2.6H531c-0.5,0.7-1.1,1.2-1.6,1.7c-0.5,0.4-1.2,0.8-1.9,1s-1.6,0.3-2.6,0.3c-1.1,0-2.1-0.2-3-0.6
	c-0.9-0.4-1.6-1-2.1-1.8s-0.8-1.8-0.8-3.1c0-1.8,0.7-3.2,2.2-4.2c1.4-1,3.7-1.6,6.6-1.6l3.1-0.1V180c0-1.5-0.3-2.6-1-3.2
	c-0.7-0.6-1.6-0.9-2.8-0.9c-1,0-1.9,0.1-2.7,0.4c-0.9,0.3-1.7,0.6-2.4,1l-1-2.3c0.8-0.4,1.7-0.8,2.8-1.1S526.1,173.4,527.3,173.4
	L527.3,173.4z M528.2,183.2c-2.3,0.1-3.9,0.5-4.8,1.1c-0.9,0.6-1.3,1.5-1.3,2.7c0,1,0.3,1.8,0.9,2.3c0.6,0.5,1.5,0.7,2.4,0.7
	c1.6,0,2.8-0.4,3.9-1.3c1-0.9,1.5-2.2,1.5-4v-1.6L528.2,183.2L528.2,183.2z M540.7,192.1h-3.5l5.2-7.7c-0.7-0.2-1.4-0.5-2.1-0.9
	c-0.7-0.4-1.2-1-1.6-1.7c-0.4-0.7-0.6-1.6-0.6-2.7c0-1.8,0.6-3.1,1.8-4s2.8-1.4,4.7-1.4h8.2V192h-3v-7.3h-4.5L540.7,192.1
	L540.7,192.1z M541,179.2c0,1,0.4,1.8,1.2,2.4c0.8,0.5,1.9,0.8,3.3,0.8h4.3v-6.1h-4.9c-1.4,0-2.4,0.3-3,0.8S541,178.3,541,179.2
	L541,179.2z M8.4,237.1c-1.6,0-3.1-0.3-4.4-1s-2.3-1.7-3-3.1c-0.7-1.4-1.1-3.2-1.1-5.3c0-2.3,0.4-4.1,1.1-5.5
	c0.8-1.4,1.8-2.5,3.1-3.1c1.3-0.7,2.8-1,4.4-1c0.9,0,1.8,0.1,2.7,0.3s1.6,0.4,2.1,0.7l-0.9,2.5c-0.5-0.2-1.2-0.4-1.9-0.6
	c-0.7-0.2-1.4-0.3-2.1-0.3c-1.2,0-2.3,0.3-3.1,0.8s-1.4,1.3-1.8,2.3s-0.6,2.3-0.6,3.8s0.2,2.7,0.6,3.7s1,1.8,1.7,2.3
	c0.8,0.5,1.7,0.8,2.9,0.8c1,0,1.9-0.1,2.6-0.3c0.8-0.2,1.5-0.5,2.1-0.8v2.7c-0.6,0.3-1.3,0.6-2.1,0.7C10.3,237,9.4,237.1,8.4,237.1
	L8.4,237.1z M28.4,218.5h3.3l-7.8,8.8l8.5,9.5h-3.5l-8.3-9.3v9.3h-3v-18.3h3v8.9C20.6,227.4,28.4,218.5,28.4,218.5z M49.6,236.8
	h-3.1V221h-5.4c-0.2,2.9-0.5,5.4-0.9,7.4c-0.3,2-0.8,3.7-1.3,5s-1.2,2.2-1.9,2.8s-1.6,0.9-2.6,0.9c-0.3,0-0.6,0-0.9-0.1
	c-0.3,0-0.5-0.1-0.7-0.2v-2.3c0.1,0,0.3,0.1,0.4,0.1h0.5c0.5,0,1-0.2,1.4-0.6c0.4-0.4,0.8-1,1.1-1.9c0.3-0.8,0.7-1.9,0.9-3.2
	c0.3-1.3,0.5-2.8,0.7-4.6s0.4-3.7,0.5-6h11.1v18.5L49.6,236.8z M71.4,227.6c0,1.5-0.2,2.9-0.6,4.1c-0.4,1.2-1,2.2-1.7,3
	s-1.6,1.4-2.7,1.9c-1.1,0.4-2.2,0.6-3.5,0.6c-1.2,0-2.3-0.2-3.4-0.6c-1-0.4-1.9-1.1-2.7-1.9c-0.8-0.8-1.3-1.8-1.8-3
	c-0.4-1.2-0.6-2.5-0.6-4.1c0-2,0.3-3.7,1-5.1c0.7-1.4,1.7-2.5,2.9-3.2c1.3-0.8,2.8-1.1,4.6-1.1c1.7,0,3.1,0.4,4.4,1.1
	c1.3,0.7,2.3,1.8,3,3.2C71.1,223.9,71.4,225.6,71.4,227.6z M57.5,227.6c0,1.4,0.2,2.7,0.5,3.8c0.4,1,1,1.9,1.8,2.4
	c0.8,0.6,1.8,0.9,3.1,0.9c1.2,0,2.3-0.3,3.1-0.9c0.8-0.6,1.4-1.4,1.7-2.4c0.4-1.1,0.6-2.3,0.6-3.8s-0.2-2.7-0.6-3.7s-1-1.8-1.8-2.4
	c-0.8-0.6-1.8-0.9-3.1-0.9c-1.9,0-3.2,0.6-4.1,1.8C58,223.7,57.5,225.4,57.5,227.6L57.5,227.6z M79.2,218.5v7.6h10v-7.6h3v18.3h-3
	v-8.2h-10v8.2h-3v-18.3H79.2z M101,218.5v7.6h10v-7.6h3v18.3h-3v-8.2h-10v8.2h-3v-18.3H101z M135.8,227.6c0,1.5-0.2,2.9-0.6,4.1
	c-0.4,1.2-1,2.2-1.7,3s-1.6,1.4-2.7,1.9c-1.1,0.4-2.2,0.6-3.5,0.6c-1.2,0-2.3-0.2-3.4-0.6c-1-0.4-1.9-1.1-2.7-1.9s-1.3-1.8-1.8-3
	c-0.4-1.2-0.6-2.5-0.6-4.1c0-2,0.3-3.7,1-5.1c0.7-1.4,1.7-2.5,2.9-3.2c1.3-0.8,2.8-1.1,4.6-1.1c1.7,0,3.1,0.4,4.4,1.1
	c1.3,0.7,2.3,1.8,3,3.2S135.8,225.6,135.8,227.6z M121.9,227.6c0,1.4,0.2,2.7,0.5,3.8c0.4,1,1,1.9,1.8,2.4c0.8,0.6,1.8,0.9,3,0.9
	c1.2,0,2.3-0.3,3-0.9c0.8-0.6,1.4-1.4,1.7-2.4c0.4-1.1,0.6-2.3,0.6-3.8s-0.2-2.7-0.6-3.7c-0.4-1-1-1.8-1.8-2.4
	c-0.8-0.6-1.8-0.9-3-0.9c-1.9,0-3.2,0.6-4.1,1.8C122.4,223.7,121.9,225.4,121.9,227.6L121.9,227.6z M148,237.1c-1.6,0-3.1-0.3-4.4-1
	c-1.3-0.7-2.3-1.7-3-3.1c-0.7-1.4-1.1-3.2-1.1-5.3c0-2.3,0.4-4.1,1.1-5.5c0.8-1.4,1.8-2.5,3.1-3.1c1.3-0.7,2.8-1,4.4-1
	c0.9,0,1.8,0.1,2.7,0.3s1.6,0.4,2.1,0.7l-0.9,2.5c-0.5-0.2-1.2-0.4-1.9-0.6c-0.7-0.2-1.4-0.3-2.1-0.3c-1.2,0-2.2,0.3-3.1,0.8
	c-0.8,0.5-1.4,1.3-1.8,2.3c-0.4,1-0.6,2.3-0.6,3.8s0.2,2.7,0.6,3.7c0.4,1,1,1.8,1.7,2.3c0.8,0.5,1.7,0.8,2.9,0.8
	c1,0,1.9-0.1,2.6-0.3c0.8-0.2,1.5-0.5,2.1-0.8v2.7c-0.6,0.3-1.3,0.6-2.1,0.7C149.9,237,149,237.1,148,237.1L148,237.1z M169.7,221
	h-6v15.8h-3V221h-5.9v-2.5h14.9V221z M181.8,226c1.6,0,2.9,0.2,4,0.6c1.1,0.4,1.8,1,2.4,1.7c0.5,0.8,0.8,1.7,0.8,2.9
	c0,1.1-0.3,2.1-0.8,3c-0.5,0.8-1.3,1.5-2.4,1.9c-1.1,0.5-2.5,0.7-4.1,0.7h-8.3v-18.3h3v7.5L181.8,226L181.8,226z M186,231.4
	c0-1.1-0.4-1.9-1.2-2.3c-0.8-0.4-1.9-0.6-3.3-0.6h-5.1v5.9h5.2c1.3,0,2.3-0.2,3.2-0.7C185.5,233.2,186,232.4,186,231.4L186,231.4z
	 M214,218.5h3.3l-7.8,8.8l8.5,9.5h-3.5l-8.3-9.3v9.3h-3v-18.3h3v8.9L214,218.5z M243.3,221h-6v15.8h-3V221h-5.9v-2.5h14.9V221z
	 M255.7,218.1c2.3,0,4.1,0.8,5.4,2.4c1.4,1.6,2.1,3.9,2.1,7.1c0,2.1-0.3,3.8-1,5.3c-0.6,1.4-1.5,2.5-2.6,3.2s-2.4,1.1-4,1.1
	c-0.9,0-1.8-0.1-2.5-0.4c-0.7-0.2-1.4-0.6-1.9-1s-0.9-0.9-1.3-1.3h-0.2c0,0.4,0.1,0.9,0.1,1.5s0.1,1.1,0.1,1.5v7.5h-3v-26.5h2.5
	l0.4,2.5h0.1c0.4-0.5,0.8-1,1.3-1.4s1.1-0.8,1.8-1C253.8,218.2,254.7,218.1,255.7,218.1L255.7,218.1z M255.1,220.6
	c-1.2,0-2.2,0.2-3,0.7s-1.3,1.2-1.6,2.1c-0.3,0.9-0.5,2.1-0.5,3.6v0.6c0,1.5,0.2,2.8,0.5,3.8s0.9,1.8,1.6,2.4
	c0.8,0.5,1.8,0.8,3.2,0.8c1.1,0,2-0.3,2.7-0.9c0.7-0.6,1.3-1.4,1.6-2.5c0.4-1.1,0.5-2.3,0.5-3.7c0-2.1-0.4-3.8-1.2-5
	C258.1,221.3,256.8,220.6,255.1,220.6L255.1,220.6z M284,227.6c0,1.5-0.2,2.9-0.6,4.1c-0.4,1.2-1,2.2-1.7,3s-1.6,1.4-2.7,1.9
	c-1.1,0.4-2.2,0.6-3.5,0.6c-1.2,0-2.3-0.2-3.4-0.6c-1-0.4-1.9-1.1-2.7-1.9c-0.8-0.8-1.3-1.8-1.8-3c-0.4-1.2-0.6-2.5-0.6-4.1
	c0-2,0.3-3.7,1-5.1c0.7-1.4,1.7-2.5,2.9-3.2c1.3-0.8,2.8-1.1,4.6-1.1c1.7,0,3.1,0.4,4.4,1.1c1.3,0.7,2.3,1.8,3,3.2
	S284,225.6,284,227.6L284,227.6z M270.1,227.6c0,1.4,0.2,2.7,0.5,3.8c0.4,1,1,1.9,1.8,2.4c0.8,0.6,1.8,0.9,3,0.9s2.3-0.3,3.1-0.9
	c0.8-0.6,1.4-1.4,1.7-2.4c0.4-1.1,0.6-2.3,0.6-3.8s-0.2-2.7-0.6-3.7s-1-1.8-1.8-2.4c-0.8-0.6-1.8-0.9-3.1-0.9
	c-1.9,0-3.2,0.6-4.1,1.8C270.5,223.7,270.1,225.4,270.1,227.6L270.1,227.6z M308.5,218.5v18.3h-2.7v-13.2c0-0.5,0.1-1,0.1-1.5h-0.1
	l-6,14.7h-2.5l-5.8-14.7h-0.1c0,0.5,0.1,1,0.1,1.5v13.2h-2.7v-18.3h4l5.8,14.7l5.9-14.7H308.5L308.5,218.5z M313.4,225.8
	c0-2.7,0.3-4.9,0.8-6.8c0.5-1.9,1.4-3.4,2.5-4.5s2.6-1.9,4.4-2.3c1.5-0.3,2.9-0.6,4.4-0.9c1.4-0.3,2.7-0.5,4-0.7l0.5,2.6
	c-0.6,0.1-1.3,0.2-2,0.3s-1.5,0.2-2.2,0.4c-0.8,0.1-1.5,0.2-2.2,0.4c-0.7,0.1-1.3,0.2-1.8,0.3c-0.8,0.2-1.4,0.4-2,0.8
	c-0.6,0.4-1.1,0.9-1.5,1.5s-0.7,1.4-1,2.4c-0.3,0.9-0.4,2-0.4,3.3h0.2c0.3-0.4,0.8-0.9,1.3-1.3c0.6-0.5,1.2-0.8,2-1.2
	c0.8-0.3,1.7-0.5,2.7-0.5c1.6,0,2.9,0.4,4,1.1c1.1,0.7,1.9,1.6,2.4,2.9c0.5,1.2,0.8,2.7,0.8,4.3c0,2-0.4,3.7-1.1,5.1
	c-0.7,1.4-1.7,2.4-2.9,3.1c-1.3,0.7-2.7,1-4.4,1c-1.3,0-2.4-0.2-3.4-0.7s-1.9-1.2-2.6-2.2s-1.3-2.1-1.7-3.6
	C313.6,229.3,313.4,227.6,313.4,225.8L313.4,225.8z M322,234.6c1,0,1.9-0.2,2.6-0.6c0.8-0.4,1.3-1.1,1.7-2c0.4-0.9,0.6-2.2,0.6-3.7
	c0-1.9-0.4-3.3-1.1-4.4c-0.7-1.1-1.8-1.6-3.4-1.6c-1,0-1.9,0.2-2.7,0.7c-0.8,0.4-1.5,0.9-2.1,1.5c-0.5,0.6-0.9,1-1.2,1.4
	c0,1.1,0.1,2.2,0.2,3.2c0.2,1,0.4,2,0.8,2.8s1,1.5,1.7,2C319.9,234.4,320.9,234.6,322,234.6L322,234.6z M350.8,227.6
	c0,1.5-0.2,2.9-0.6,4.1c-0.4,1.2-1,2.2-1.7,3s-1.6,1.4-2.7,1.9c-1.1,0.4-2.2,0.6-3.5,0.6c-1.2,0-2.3-0.2-3.4-0.6
	c-1-0.4-1.9-1.1-2.7-1.9s-1.3-1.8-1.8-3c-0.4-1.2-0.6-2.5-0.6-4.1c0-2,0.3-3.7,1-5.1c0.7-1.4,1.7-2.5,2.9-3.2
	c1.3-0.8,2.8-1.1,4.6-1.1c1.7,0,3.1,0.4,4.4,1.1c1.3,0.7,2.3,1.8,3,3.2C350.5,223.9,350.8,225.6,350.8,227.6L350.8,227.6z
	 M337,227.6c0,1.4,0.2,2.7,0.5,3.8c0.4,1,1,1.9,1.8,2.4c0.8,0.6,1.8,0.9,3.1,0.9c1.2,0,2.2-0.3,3-0.9c0.8-0.6,1.4-1.4,1.7-2.4
	c0.4-1.1,0.6-2.3,0.6-3.8s-0.2-2.7-0.6-3.7s-1-1.8-1.8-2.4c-0.8-0.6-1.8-0.9-3.1-0.9c-1.9,0-3.2,0.6-4.1,1.8
	C337.4,223.7,337,225.4,337,227.6L337,227.6z M371.6,227.6c0,1.5-0.2,2.9-0.6,4.1c-0.4,1.2-1,2.2-1.7,3s-1.6,1.4-2.7,1.9
	c-1.1,0.4-2.2,0.6-3.5,0.6c-1.2,0-2.3-0.2-3.4-0.6c-1-0.4-1.9-1.1-2.7-1.9c-0.8-0.8-1.3-1.8-1.8-3c-0.4-1.2-0.6-2.5-0.6-4.1
	c0-2,0.3-3.7,1-5.1c0.7-1.4,1.7-2.5,2.9-3.2c1.3-0.8,2.8-1.1,4.6-1.1c1.7,0,3.1,0.4,4.4,1.1c1.3,0.7,2.3,1.8,3,3.2
	S371.6,225.6,371.6,227.6L371.6,227.6z M357.7,227.6c0,1.4,0.2,2.7,0.5,3.8c0.4,1,1,1.9,1.8,2.4c0.8,0.6,1.8,0.9,3.1,0.9
	c1.2,0,2.2-0.3,3-0.9c0.8-0.6,1.4-1.4,1.7-2.4c0.4-1.1,0.6-2.3,0.6-3.8s-0.2-2.7-0.6-3.7s-1-1.8-1.8-2.4c-0.8-0.6-1.8-0.9-3-0.9
	c-1.9,0-3.2,0.6-4.1,1.8C358.1,223.7,357.7,225.4,357.7,227.6L357.7,227.6z M375.4,225.8c0-2.7,0.3-4.9,0.8-6.8
	c0.5-1.9,1.4-3.4,2.5-4.5s2.6-1.9,4.4-2.3c1.5-0.3,2.9-0.6,4.4-0.9c1.4-0.3,2.7-0.5,4-0.7l0.5,2.6c-0.6,0.1-1.3,0.2-2,0.3
	s-1.5,0.2-2.2,0.4c-0.8,0.1-1.5,0.2-2.2,0.4c-0.7,0.1-1.3,0.2-1.8,0.3c-0.8,0.2-1.4,0.4-2,0.8c-0.6,0.4-1.1,0.9-1.5,1.5
	s-0.7,1.4-1,2.4c-0.3,0.9-0.4,2-0.4,3.3h0.2c0.3-0.4,0.8-0.9,1.3-1.3c0.6-0.5,1.2-0.8,2-1.2c0.8-0.3,1.7-0.5,2.7-0.5
	c1.6,0,2.9,0.4,4,1.1c1.1,0.7,1.9,1.6,2.4,2.9c0.5,1.2,0.8,2.7,0.8,4.3c0,2-0.4,3.7-1.1,5.1c-0.7,1.4-1.7,2.4-2.9,3.1
	c-1.3,0.7-2.7,1-4.4,1c-1.3,0-2.4-0.2-3.4-0.7s-1.9-1.2-2.6-2.2s-1.3-2.1-1.7-3.6C375.6,229.3,375.4,227.6,375.4,225.8L375.4,225.8z
	 M384,234.6c1,0,1.9-0.2,2.6-0.6c0.8-0.4,1.3-1.1,1.7-2c0.4-0.9,0.6-2.2,0.6-3.7c0-1.9-0.4-3.3-1.1-4.4c-0.7-1.1-1.8-1.6-3.4-1.6
	c-1,0-1.9,0.2-2.7,0.7c-0.8,0.4-1.5,0.9-2.1,1.5c-0.5,0.6-0.9,1-1.2,1.4c0,1.1,0.1,2.2,0.2,3.2c0.2,1,0.4,2,0.8,2.8s1,1.5,1.7,2
	C382,234.4,382.9,234.6,384,234.6L384,234.6z M405.6,218.1c2.3,0,4.1,0.8,5.4,2.4c1.4,1.6,2.1,3.9,2.1,7.1c0,2.1-0.3,3.8-1,5.3
	c-0.6,1.4-1.5,2.5-2.6,3.2s-2.4,1.1-4,1.1c-0.9,0-1.8-0.1-2.5-0.4c-0.7-0.2-1.4-0.6-1.9-1s-0.9-0.9-1.3-1.3h-0.2
	c0,0.4,0.1,0.9,0.1,1.5s0.1,1.1,0.1,1.5v7.5h-3v-26.5h2.5l0.4,2.5h0.1c0.4-0.5,0.8-1,1.3-1.4s1.1-0.8,1.9-1
	C403.8,218.2,404.6,218.1,405.6,218.1L405.6,218.1z M405.1,220.6c-1.2,0-2.2,0.2-3,0.7s-1.3,1.2-1.6,2.1c-0.3,0.9-0.5,2.1-0.5,3.6
	v0.6c0,1.5,0.2,2.8,0.5,3.8s0.9,1.8,1.6,2.4c0.8,0.5,1.8,0.8,3.2,0.8c1.1,0,2-0.3,2.7-0.9c0.7-0.6,1.3-1.4,1.6-2.5
	c0.4-1.1,0.5-2.3,0.5-3.7c0-2.1-0.4-3.8-1.2-5C408,221.3,406.8,220.6,405.1,220.6L405.1,220.6z M424.9,218.2c2.2,0,3.9,0.5,5,1.5
	s1.6,2.5,1.6,4.7v12.5h-2.2l-0.6-2.6h-0.1c-0.5,0.7-1.1,1.2-1.6,1.7c-0.5,0.4-1.2,0.8-1.9,1c-0.7,0.2-1.6,0.3-2.6,0.3
	c-1.1,0-2.1-0.2-3-0.6c-0.9-0.4-1.6-1-2.1-1.8s-0.8-1.8-0.8-3.1c0-1.8,0.7-3.2,2.2-4.2c1.4-1,3.7-1.6,6.6-1.6l3.1-0.1v-1.1
	c0-1.5-0.3-2.6-1-3.2c-0.7-0.6-1.6-0.9-2.8-0.9c-1,0-1.9,0.1-2.7,0.4c-0.9,0.3-1.7,0.6-2.4,1l-0.9-2.3c0.8-0.4,1.7-0.8,2.8-1.1
	C422.6,218.3,423.7,218.2,424.9,218.2L424.9,218.2z M425.8,227.9c-2.3,0.1-3.9,0.5-4.8,1.1s-1.3,1.5-1.3,2.7c0,1,0.3,1.8,0.9,2.3
	s1.5,0.7,2.4,0.7c1.6,0,2.8-0.4,3.9-1.3c1-0.9,1.5-2.2,1.5-4v-1.6L425.8,227.9z M442,218.1c1.4,0,2.6,0.2,3.6,0.6
	c1,0.4,1.8,0.9,2.4,1.6c0.6,0.7,0.9,1.6,0.9,2.6c0,1.1-0.3,2-0.9,2.7c-0.6,0.6-1.5,1.1-2.5,1.4v0.1c0.7,0.2,1.4,0.5,2,0.9
	s1.1,0.8,1.5,1.4c0.4,0.6,0.6,1.4,0.6,2.3c0,1-0.3,1.9-0.9,2.7c-0.5,0.8-1.4,1.5-2.6,1.9c-1.1,0.5-2.6,0.7-4.4,0.7
	c-0.9,0-1.7,0-2.5-0.1s-1.5-0.2-2.1-0.4s-1.2-0.4-1.6-0.6v-2.7c0.8,0.4,1.7,0.7,2.7,1c1.1,0.3,2.2,0.4,3.5,0.4
	c0.9,0,1.7-0.1,2.5-0.3s1.3-0.5,1.8-1c0.4-0.5,0.7-1.1,0.7-1.8s-0.2-1.3-0.6-1.7c-0.4-0.5-1-0.8-1.7-1c-0.8-0.2-1.7-0.3-2.9-0.3H439
	V226h2c1.6,0,2.8-0.2,3.8-0.6c1-0.4,1.4-1.2,1.4-2.2c0-0.9-0.4-1.5-1.1-1.9s-1.7-0.7-3.1-0.7c-1,0-1.9,0.1-2.7,0.3
	c-0.8,0.2-1.6,0.5-2.5,0.9l-1.1-2.4c1-0.4,2-0.8,3.1-1C439.8,218.2,440.9,218.1,442,218.1L442,218.1z M469.9,227.6
	c0,1.5-0.2,2.9-0.6,4.1c-0.4,1.2-1,2.2-1.7,3s-1.6,1.4-2.7,1.9c-1.1,0.4-2.2,0.6-3.5,0.6c-1.2,0-2.3-0.2-3.4-0.6
	c-1-0.4-1.9-1.1-2.7-1.9s-1.3-1.8-1.8-3c-0.4-1.2-0.6-2.5-0.6-4.1c0-2,0.3-3.7,1-5.1c0.7-1.4,1.7-2.5,2.9-3.2
	c1.3-0.8,2.8-1.1,4.6-1.1c1.7,0,3.1,0.4,4.4,1.1c1.3,0.7,2.3,1.8,3,3.2C469.6,223.9,469.9,225.6,469.9,227.6L469.9,227.6z
	 M456.1,227.6c0,1.4,0.2,2.7,0.5,3.8c0.4,1,1,1.9,1.8,2.4c0.8,0.6,1.8,0.9,3.1,0.9c1.2,0,2.2-0.3,3-0.9c0.8-0.6,1.4-1.4,1.7-2.4
	c0.4-1.1,0.6-2.3,0.6-3.8s-0.2-2.7-0.6-3.7s-1-1.8-1.8-2.4c-0.8-0.6-1.8-0.9-3.1-0.9c-1.9,0-3.2,0.6-4.1,1.8
	C456.5,223.7,456.1,225.4,456.1,227.6L456.1,227.6z M489.5,223.1c0,1.1-0.3,2-1,2.7c-0.7,0.6-1.6,1.1-2.6,1.3v0.1
	c1.1,0.2,2.1,0.6,3,1.2c0.8,0.6,1.3,1.6,1.3,3c0,0.8-0.1,1.5-0.4,2.2s-0.7,1.2-1.3,1.7s-1.4,0.9-2.3,1.1c-0.9,0.3-2.1,0.4-3.4,0.4
	h-7.9v-18.3h7.9c1.3,0,2.5,0.1,3.5,0.4c1.1,0.3,1.9,0.8,2.5,1.4C489.2,221,489.5,221.9,489.5,223.1L489.5,223.1z M487,231.4
	c0-1-0.4-1.8-1.2-2.3c-0.8-0.5-2-0.7-3.5-0.7h-4.5v5.9h4.6c1.5,0,2.7-0.2,3.5-0.6C486.6,233.3,487,232.5,487,231.4L487,231.4z
	 M486.4,223.5c0-0.9-0.3-1.5-1-1.9c-0.6-0.4-1.6-0.6-3.1-0.6h-4.7v5h4.1c1.5,0,2.6-0.2,3.4-0.6C486.1,225,486.4,224.3,486.4,223.5
	L486.4,223.5z M501.4,218.2c2.2,0,3.9,0.5,5,1.5s1.6,2.5,1.6,4.7v12.5h-2.2l-0.6-2.6h-0.1c-0.5,0.7-1.1,1.2-1.6,1.7
	c-0.5,0.4-1.2,0.8-1.9,1c-0.7,0.2-1.6,0.3-2.6,0.3c-1.1,0-2.1-0.2-3-0.6c-0.9-0.4-1.6-1-2.1-1.8s-0.8-1.8-0.8-3.1
	c0-1.8,0.7-3.2,2.2-4.2c1.4-1,3.7-1.6,6.6-1.6l3.1-0.1v-1.1c0-1.5-0.3-2.6-1-3.2c-0.7-0.6-1.6-0.9-2.8-0.9c-1,0-1.9,0.1-2.7,0.4
	c-0.9,0.3-1.7,0.6-2.4,1l-0.9-2.3c0.8-0.4,1.7-0.8,2.8-1.1C499.1,218.3,500.2,218.2,501.4,218.2L501.4,218.2z M502.3,227.9
	c-2.3,0.1-3.9,0.5-4.8,1.1s-1.3,1.5-1.3,2.7c0,1,0.3,1.8,0.9,2.3s1.5,0.7,2.4,0.7c1.6,0,2.8-0.4,3.9-1.3c1-0.9,1.5-2.2,1.5-4v-1.6
	L502.3,227.9z M516.7,218.5v7.6h10v-7.6h3v18.3h-3v-8.2h-10v8.2h-3v-18.3H516.7z M538.3,229.6v2.1c0,0.4,0,0.8-0.1,1.2
	c0,0.4,0,0.7-0.1,0.9l9.8-15.4h3.7v18.3h-2.8v-12.1c0-0.6,0-1.2,0.1-1.7c0-0.6,0-1,0.1-1.3l-9.8,15.3h-3.7v-18.3h2.8V229.6z
	 M581.4,227.6c0,2-0.3,3.8-1,5.2s-1.6,2.5-2.8,3.2s-2.7,1.1-4.3,1.1s-2.9-0.3-4.1-1c-1.2-0.7-2.1-1.6-2.8-2.9
	c-0.7-1.3-1.1-2.8-1.2-4.7h-4.7v8.2h-3v-18.3h3v7.6h4.7c0.2-1.7,0.6-3.2,1.3-4.3c0.7-1.2,1.6-2.1,2.8-2.7c1.2-0.6,2.5-0.9,4-0.9
	c1.6,0,3,0.4,4.2,1.1c1.2,0.7,2.2,1.8,2.8,3.2C581,223.9,581.4,225.6,581.4,227.6L581.4,227.6z M568.3,227.6c0,1.5,0.2,2.8,0.5,3.9
	c0.4,1,0.9,1.8,1.6,2.4c0.7,0.5,1.7,0.8,2.8,0.8c1.2,0,2.1-0.3,2.8-0.8s1.3-1.3,1.6-2.4c0.3-1,0.5-2.3,0.5-3.9
	c0-1.5-0.2-2.8-0.5-3.8s-0.9-1.8-1.6-2.3c-0.7-0.5-1.7-0.8-2.8-0.8c-1.2,0-2.1,0.3-2.8,0.8s-1.3,1.3-1.6,2.3
	S568.3,226.1,568.3,227.6z M586.2,236.3c-0.5-0.5-0.7-1.1-0.7-1.8s0.2-1.3,0.7-1.8s1.1-0.8,1.8-0.8s1.3,0.3,1.8,0.8s0.8,1.1,0.8,1.8
	s-0.3,1.3-0.8,1.8s-1.1,0.8-1.8,0.8C587.4,237.1,586.7,236.8,586.2,236.3z"/>
</svg>
