<?xml version="1.0" encoding="utf-8"?>
<!-- Generator: Adobe Illustrator 25.2.3, SVG Export Plug-In . SVG Version: 6.00 Build 0)  -->
<svg version="1.1" id="Layer_1" xmlns="http://www.w3.org/2000/svg" xmlns:xlink="http://www.w3.org/1999/xlink" x="0px" y="0px"
	 viewBox="0 0 261 128" style="enable-background:new 0 0 261 128;" xml:space="preserve">
<style type="text/css">
	.st0{fill:#060315;}
</style>
<path class="st0" d="M43.3,26V0.5H53c1.8,0,3.4,0.3,4.6,0.9c1.2,0.6,2.1,1.4,2.7,2.3c0.6,1,0.9,2.1,0.9,3.4c0,1-0.2,1.9-0.6,2.7
	c-0.4,0.7-0.9,1.3-1.6,1.8c-0.7,0.5-1.4,0.8-2.2,1v0.2c0.9,0,1.8,0.3,2.6,0.8c0.8,0.5,1.5,1.2,2.1,2.1c0.5,0.9,0.8,2,0.8,3.3
	c0,1.3-0.3,2.5-1,3.6c-0.6,1-1.6,1.9-2.9,2.5c-1.3,0.6-2.9,0.9-4.8,0.9H43.3z M47.9,22.1h5c1.7,0,2.9-0.3,3.6-1
	c0.7-0.6,1.1-1.5,1.1-2.5c0-0.8-0.2-1.4-0.6-2c-0.4-0.6-0.9-1.1-1.6-1.4c-0.7-0.4-1.5-0.5-2.5-0.5h-5.1V22.1z M47.9,11.3h4.6
	c0.8,0,1.5-0.1,2.2-0.4c0.6-0.3,1.1-0.7,1.5-1.3c0.4-0.5,0.6-1.2,0.6-1.9c0-1-0.3-1.8-1-2.4c-0.7-0.6-1.7-1-3.1-1h-4.7V11.3z
	 M69.7,19.9l7.6-13H82V26h-4.4v-13L70,26h-4.6V6.9h4.3V19.9z M83.8,10.6V6.9h16.7v3.7h-6.2V26H90V10.6H83.8z M108.1,26.3
	c-1.2,0-2.3-0.2-3.3-0.6c-1-0.4-1.7-1.1-2.3-1.9c-0.6-0.9-0.8-1.9-0.8-3.2c0-1.1,0.2-2,0.6-2.7c0.4-0.7,0.9-1.3,1.6-1.7
	c0.7-0.4,1.5-0.7,2.3-1c0.9-0.2,1.8-0.4,2.7-0.5c1.1-0.1,2-0.2,2.7-0.3c0.7-0.1,1.2-0.2,1.5-0.4c0.3-0.2,0.5-0.5,0.5-1V13
	c0-0.9-0.3-1.7-0.8-2.2c-0.6-0.5-1.4-0.8-2.4-0.8c-1.1,0-2,0.2-2.6,0.7c-0.6,0.5-1.1,1-1.3,1.7l-4.2-0.6c0.3-1.2,0.9-2.1,1.6-2.9
	c0.8-0.8,1.7-1.4,2.8-1.8c1.1-0.4,2.3-0.6,3.7-0.6c0.9,0,1.8,0.1,2.7,0.3c0.9,0.2,1.7,0.6,2.5,1.1c0.8,0.5,1.4,1.2,1.8,2
	c0.5,0.8,0.7,1.9,0.7,3.2V26h-4.3v-2.6h-0.1c-0.3,0.5-0.7,1-1.2,1.5c-0.5,0.5-1.1,0.8-1.9,1.1C109.9,26.2,109.1,26.3,108.1,26.3z
	 M109.2,23c0.9,0,1.7-0.2,2.3-0.5c0.7-0.4,1.2-0.8,1.5-1.4c0.4-0.6,0.5-1.2,0.5-2v-2.2c-0.1,0.1-0.4,0.2-0.7,0.3
	c-0.3,0.1-0.7,0.2-1.1,0.3c-0.4,0.1-0.8,0.1-1.2,0.2c-0.4,0.1-0.8,0.1-1.1,0.1c-0.7,0.1-1.3,0.2-1.8,0.4c-0.5,0.2-0.9,0.5-1.3,0.9
	c-0.3,0.4-0.5,0.8-0.5,1.4c0,0.8,0.3,1.5,0.9,1.9C107.5,22.8,108.3,23,109.2,23z M133,20.7l5.7-13.9h3.6L134.5,26h-3.1l-7.5-19.1
	h3.6L133,20.7z M126.3,6.9V26H122V6.9H126.3z M139.8,26V6.9h4.3V26H139.8z M152.3,19.9l7.6-13h4.6V26h-4.4v-13l-7.6,13h-4.6V6.9h4.3
	V19.9z M181.6,14.5v3.7h-10.2v-3.7H181.6z M172.8,6.9V26h-4.3V6.9H172.8z M184.5,6.9V26h-4.3V6.9H184.5z M191.4,13.1h5.6
	c2.4,0,4.3,0.6,5.7,1.8s2,2.7,2,4.7c0,1.3-0.3,2.4-0.9,3.3c-0.6,1-1.5,1.7-2.6,2.3c-1.1,0.5-2.5,0.8-4.1,0.8h-8.7V6.9h4.3v15.4h4.3
	c1,0,1.8-0.2,2.4-0.7c0.6-0.5,0.9-1.2,0.9-1.9c0-0.8-0.3-1.5-0.9-2c-0.6-0.5-1.4-0.8-2.4-0.8h-5.6V13.1z M207.1,26V6.9h4.5V26H207.1
	z M32.2,67.9l7.6-13h4.6V74h-4.4v-13l-7.6,13h-4.6V54.9h4.3V67.9z M67.3,68.7L73,54.9h3.6L68.9,74h-3.1l-7.5-19.1h3.6L67.3,68.7z
	 M60.7,54.9V74h-4.3V54.9H60.7z M74.2,74V54.9h4.3V74H74.2z M86.6,67.9l7.6-13h4.6V74h-4.4v-13l-7.6,13h-4.6V54.9h4.3V67.9z
	 M115.9,62.5v3.7h-10.2v-3.7H115.9z M107.2,54.9V74h-4.3V54.9H107.2z M118.9,54.9V74h-4.3V54.9H118.9z M131.2,74.3
	c-1.9,0-3.6-0.4-5-1.2c-1.4-0.8-2.4-1.9-3.2-3.4c-0.7-1.5-1.1-3.2-1.1-5.2c0-2,0.4-3.7,1.1-5.2c0.8-1.5,1.8-2.7,3.2-3.5
	c1.3-0.8,2.9-1.3,4.8-1.3c1.2,0,2.3,0.2,3.3,0.6c1.1,0.4,2,1,2.8,1.7c0.8,0.8,1.4,1.8,1.9,3c0.5,1.2,0.7,2.7,0.7,4.3v1.4H124v-3
	h11.3c0-0.9-0.2-1.6-0.6-2.3c-0.4-0.7-0.9-1.2-1.5-1.6c-0.6-0.4-1.4-0.6-2.3-0.6c-0.9,0-1.7,0.2-2.4,0.7c-0.7,0.4-1.2,1-1.6,1.7
	c-0.4,0.7-0.6,1.5-0.6,2.3v2.6c0,1.1,0.2,2.1,0.6,2.9c0.4,0.8,1,1.4,1.7,1.8c0.7,0.4,1.6,0.6,2.6,0.6c0.7,0,1.2-0.1,1.8-0.3
	c0.5-0.2,1-0.5,1.4-0.8c0.4-0.4,0.7-0.8,0.9-1.4l4.2,0.5c-0.3,1.1-0.8,2.1-1.5,2.9c-0.7,0.8-1.7,1.5-2.8,1.9
	C134,74.1,132.7,74.3,131.2,74.3z M142.8,81.1V54.9h4.4V58h0.3c0.2-0.5,0.6-1,1-1.5c0.4-0.5,1-1,1.7-1.4c0.7-0.4,1.6-0.6,2.8-0.6
	c1.5,0,2.8,0.4,4,1.1c1.2,0.7,2.1,1.9,2.8,3.3c0.7,1.5,1.1,3.2,1.1,5.4c0,2.1-0.3,3.9-1,5.3c-0.7,1.5-1.6,2.6-2.8,3.4
	s-2.5,1.2-4,1.2c-1.1,0-2-0.2-2.7-0.5c-0.7-0.4-1.3-0.8-1.7-1.3c-0.4-0.5-0.8-1-1-1.5h-0.2v10.2H142.8z M147.2,64.4
	c0,1.2,0.2,2.3,0.5,3.2c0.4,0.9,0.9,1.7,1.5,2.2c0.7,0.5,1.5,0.8,2.4,0.8c1,0,1.8-0.3,2.5-0.8c0.7-0.5,1.2-1.3,1.5-2.2
	c0.3-0.9,0.5-2,0.5-3.2c0-1.2-0.2-2.2-0.5-3.2c-0.3-0.9-0.8-1.6-1.5-2.2c-0.7-0.5-1.5-0.8-2.5-0.8c-1,0-1.8,0.3-2.4,0.8
	c-0.7,0.5-1.2,1.2-1.5,2.1C147.4,62.1,147.2,63.2,147.2,64.4z M169.5,74.3c-1.2,0-2.3-0.2-3.3-0.6c-1-0.4-1.7-1.1-2.3-1.9
	c-0.6-0.9-0.8-1.9-0.8-3.2c0-1.1,0.2-2,0.6-2.7s0.9-1.3,1.6-1.7c0.7-0.4,1.5-0.7,2.3-1c0.9-0.2,1.8-0.4,2.7-0.5
	c1.1-0.1,2-0.2,2.7-0.3c0.7-0.1,1.2-0.2,1.5-0.4c0.3-0.2,0.5-0.5,0.5-1V61c0-0.9-0.3-1.7-0.8-2.2c-0.6-0.5-1.4-0.8-2.4-0.8
	c-1.1,0-2,0.2-2.6,0.7c-0.6,0.5-1.1,1-1.3,1.7l-4.2-0.6c0.3-1.2,0.9-2.1,1.6-2.9c0.8-0.8,1.7-1.4,2.8-1.8c1.1-0.4,2.3-0.6,3.7-0.6
	c0.9,0,1.8,0.1,2.7,0.3c0.9,0.2,1.7,0.6,2.5,1.1c0.8,0.5,1.4,1.2,1.8,2c0.5,0.8,0.7,1.9,0.7,3.2V74h-4.3v-2.6h-0.1
	c-0.3,0.5-0.7,1-1.2,1.5c-0.5,0.5-1.1,0.8-1.9,1.1C171.3,74.2,170.4,74.3,169.5,74.3z M170.6,71c0.9,0,1.7-0.2,2.3-0.5
	c0.7-0.4,1.2-0.8,1.5-1.4c0.4-0.6,0.5-1.2,0.5-2v-2.2c-0.1,0.1-0.4,0.2-0.7,0.3c-0.3,0.1-0.7,0.2-1.1,0.3c-0.4,0.1-0.8,0.1-1.2,0.2
	c-0.4,0.1-0.8,0.1-1.1,0.1c-0.7,0.1-1.3,0.2-1.8,0.4c-0.5,0.2-0.9,0.5-1.3,0.9c-0.3,0.4-0.5,0.8-0.5,1.4c0,0.8,0.3,1.5,0.9,1.9
	C168.9,70.8,169.7,71,170.6,71z M182,74l0-3.7h0.7c0.5,0,0.9-0.1,1.3-0.3c0.3-0.2,0.6-0.6,0.8-1.1c0.2-0.5,0.4-1.2,0.5-2.1
	c0.1-0.9,0.2-2,0.3-3.3l0.3-8.5h13.9V74h-4.3V58.6H190l-0.3,6.2c-0.1,1.6-0.3,3-0.5,4.1c-0.3,1.2-0.7,2.1-1.2,2.9
	c-0.5,0.8-1.1,1.3-1.9,1.7c-0.8,0.4-1.6,0.5-2.7,0.5H182z M206.7,61.1h5.6c2.4,0,4.3,0.6,5.7,1.8c1.3,1.2,2,2.7,2,4.7
	c0,1.3-0.3,2.4-0.9,3.3c-0.6,1-1.5,1.7-2.6,2.3c-1.1,0.5-2.5,0.8-4.1,0.8h-8.7V54.9h4.3v15.4h4.3c1,0,1.8-0.2,2.4-0.7
	c0.6-0.5,0.9-1.2,0.9-1.9c0-0.8-0.3-1.5-0.9-2s-1.4-0.8-2.4-0.8h-5.6V61.1z M222.4,74V54.9h4.5V74H222.4z M0.3,127.5v-9.2h1.5
	c0.4-0.3,0.7-0.7,1-1.3c0.3-0.5,0.5-1.2,0.7-1.9c0.2-0.7,0.3-1.6,0.4-2.5c0.1-0.9,0.2-1.9,0.3-3l0.5-6.7h13.8v15.4h3v9.2h-4.4V122
	H4.7v5.5H0.3z M6.4,118.3h7.9v-11.8H8.7l-0.3,3.1c-0.2,2-0.4,3.8-0.7,5.2C7.4,116.2,7,117.4,6.4,118.3z M22.9,122l0-3.7h0.7
	c0.5,0,0.9-0.1,1.3-0.3c0.3-0.2,0.6-0.6,0.8-1.1c0.2-0.5,0.4-1.2,0.5-2.1c0.1-0.9,0.2-2,0.3-3.3l0.3-8.5h13.9V122h-4.4v-15.4h-5.5
	l-0.3,6.2c-0.1,1.6-0.3,3-0.5,4.1c-0.3,1.2-0.7,2.1-1.2,2.9c-0.5,0.8-1.1,1.3-1.9,1.7c-0.8,0.4-1.6,0.5-2.7,0.5H22.9z M55.8,122
	v-15.4h-4.1c-1,0-1.8,0.2-2.4,0.7c-0.6,0.5-0.8,1.1-0.8,1.8c0,0.7,0.3,1.3,0.8,1.8c0.5,0.5,1.3,0.7,2.3,0.7h5.6v3.3h-5.6
	c-1.5,0-2.8-0.2-4-0.7c-1.1-0.5-2-1.2-2.6-2s-0.9-1.9-0.9-3.1c0-1.2,0.3-2.3,0.9-3.2c0.6-0.9,1.5-1.6,2.6-2.1c1.1-0.5,2.5-0.8,4-0.8
	H60V122H55.8z M43.4,122l5.3-9.8h4.4l-5.3,9.8H43.4z M71.8,122v-19.1h8c2.3,0,4,0.5,5.4,1.4c1.3,0.9,2,2.2,2,3.8
	c0,1.1-0.4,1.9-1.1,2.6c-0.7,0.7-1.7,1.1-3,1.4c1,0.1,1.9,0.3,2.6,0.8c0.8,0.4,1.4,1,1.8,1.7c0.4,0.7,0.6,1.5,0.6,2.4
	c0,1.1-0.3,2-0.8,2.7c-0.5,0.8-1.3,1.4-2.4,1.8c-1,0.4-2.3,0.6-3.8,0.6H71.8z M76,118.4h5c0.8,0,1.5-0.2,2-0.6
	c0.5-0.4,0.7-0.9,0.7-1.6c0-0.8-0.2-1.4-0.7-1.9c-0.5-0.5-1.1-0.7-2-0.7h-5V118.4z M76,110.8h3.9c0.6,0,1.1-0.1,1.6-0.3
	c0.4-0.2,0.8-0.4,1-0.8c0.2-0.3,0.3-0.7,0.3-1.2c0-0.7-0.3-1.2-0.8-1.5c-0.5-0.4-1.3-0.6-2.2-0.6H76V110.8z M99.4,122.3
	c-1.9,0-3.5-0.4-4.9-1.3c-1.4-0.8-2.4-2-3.1-3.5c-0.7-1.5-1.1-3.2-1.1-5.1c0-1.9,0.4-3.7,1.1-5.1c0.7-1.5,1.8-2.7,3.2-3.5
	c1.4-0.8,3-1.3,4.8-1.3c1.5,0,2.9,0.3,4.1,0.9c1.2,0.6,2.2,1.4,2.9,2.4c0.7,1,1.1,2.2,1.2,3.6h-4.3c-0.2-0.9-0.6-1.7-1.2-2.3
	c-0.6-0.6-1.5-0.9-2.6-0.9c-0.9,0-1.7,0.2-2.4,0.7c-0.7,0.5-1.2,1.2-1.6,2.1c-0.4,0.9-0.6,2-0.6,3.3c0,1.3,0.2,2.4,0.6,3.4
	c0.4,0.9,0.9,1.6,1.6,2.2c0.7,0.5,1.5,0.7,2.4,0.7c0.7,0,1.3-0.1,1.8-0.4c0.5-0.3,1-0.6,1.3-1.1c0.4-0.5,0.6-1.1,0.7-1.8h4.3
	c-0.1,1.3-0.5,2.5-1.2,3.6c-0.7,1-1.6,1.8-2.8,2.4C102.4,122,101,122.3,99.4,122.3z M119,122.3c-1.9,0-3.6-0.4-5-1.2
	c-1.4-0.8-2.4-1.9-3.2-3.4c-0.7-1.5-1.1-3.2-1.1-5.2c0-2,0.4-3.7,1.1-5.2c0.8-1.5,1.8-2.7,3.2-3.5c1.4-0.8,2.9-1.3,4.8-1.3
	c1.2,0,2.3,0.2,3.3,0.6c1.1,0.4,2,1,2.8,1.7c0.8,0.8,1.5,1.8,1.9,3c0.5,1.2,0.7,2.7,0.7,4.3v1.4h-15.6v-3h11.3
	c0-0.9-0.2-1.6-0.6-2.3c-0.4-0.7-0.9-1.2-1.5-1.6c-0.6-0.4-1.4-0.6-2.3-0.6c-0.9,0-1.7,0.2-2.4,0.7c-0.7,0.4-1.2,1-1.6,1.7
	c-0.4,0.7-0.6,1.5-0.6,2.3v2.6c0,1.1,0.2,2.1,0.6,2.9c0.4,0.8,1,1.4,1.7,1.8c0.7,0.4,1.6,0.6,2.6,0.6c0.7,0,1.2-0.1,1.8-0.3
	c0.5-0.2,1-0.5,1.4-0.8c0.4-0.4,0.7-0.8,0.9-1.4l4.2,0.5c-0.3,1.1-0.8,2.1-1.5,2.9c-0.7,0.8-1.7,1.5-2.8,1.9
	C121.8,122.1,120.5,122.3,119,122.3z M135,115.9l7.6-13h4.6V122h-4.4v-13l-7.6,13h-4.6v-19.1h4.3V115.9z M141.4,96.3h3.4
	c0,1.4-0.5,2.6-1.6,3.5c-1,0.9-2.5,1.3-4.3,1.3c-1.8,0-3.2-0.4-4.2-1.3c-1-0.9-1.6-2.1-1.6-3.5h3.3c0,0.6,0.2,1.1,0.5,1.6
	c0.4,0.5,1,0.7,1.9,0.7c0.9,0,1.5-0.2,1.9-0.7C141.2,97.4,141.4,96.9,141.4,96.3z M167.5,122.3c-1.9,0-3.5-0.4-4.9-1.3
	c-1.4-0.8-2.4-2-3.1-3.5c-0.7-1.5-1.1-3.2-1.1-5.1c0-1.9,0.4-3.7,1.1-5.1c0.7-1.5,1.8-2.7,3.2-3.5c1.4-0.8,3-1.3,4.8-1.3
	c1.6,0,2.9,0.3,4.1,0.9c1.2,0.6,2.2,1.4,2.9,2.4c0.7,1,1.1,2.2,1.2,3.6h-4.3c-0.2-0.9-0.6-1.7-1.2-2.3c-0.6-0.6-1.5-0.9-2.6-0.9
	c-0.9,0-1.7,0.2-2.4,0.7c-0.7,0.5-1.2,1.2-1.6,2.1c-0.4,0.9-0.6,2-0.6,3.3c0,1.3,0.2,2.4,0.6,3.4c0.4,0.9,0.9,1.6,1.6,2.2
	c0.7,0.5,1.5,0.7,2.4,0.7c0.7,0,1.3-0.1,1.8-0.4c0.5-0.3,1-0.6,1.3-1.1c0.4-0.5,0.6-1.1,0.7-1.8h4.3c-0.1,1.3-0.5,2.5-1.2,3.6
	c-0.7,1-1.6,1.8-2.8,2.4C170.4,122,169.1,122.3,167.5,122.3z M187.1,122.3c-1.9,0-3.6-0.4-5-1.2c-1.4-0.8-2.4-1.9-3.2-3.4
	c-0.7-1.5-1.1-3.2-1.1-5.2c0-2,0.4-3.7,1.1-5.2c0.8-1.5,1.8-2.7,3.2-3.5c1.4-0.8,2.9-1.3,4.8-1.3c1.2,0,2.3,0.2,3.3,0.6
	c1.1,0.4,2,1,2.8,1.7c0.8,0.8,1.4,1.8,1.9,3c0.5,1.2,0.7,2.7,0.7,4.3v1.4h-15.6v-3h11.3c0-0.9-0.2-1.6-0.6-2.3
	c-0.4-0.7-0.9-1.2-1.5-1.6c-0.6-0.4-1.4-0.6-2.3-0.6c-0.9,0-1.7,0.2-2.4,0.7c-0.7,0.4-1.2,1-1.6,1.7c-0.4,0.7-0.6,1.5-0.6,2.3v2.6
	c0,1.1,0.2,2.1,0.6,2.9c0.4,0.8,1,1.4,1.7,1.8c0.7,0.4,1.6,0.6,2.6,0.6c0.7,0,1.2-0.1,1.8-0.3c0.5-0.2,1-0.5,1.4-0.8
	c0.4-0.4,0.7-0.8,0.9-1.4l4.2,0.5c-0.3,1.1-0.8,2.1-1.5,2.9c-0.7,0.8-1.7,1.5-2.8,1.9C189.9,122.1,188.6,122.3,187.1,122.3z
	 M209.7,116.7l5.7-13.9h3.6l-7.7,19.1h-3.1l-7.5-19.1h3.6L209.7,116.7z M203,102.9V122h-4.3v-19.1H203z M216.5,122v-19.1h4.3V122
	H216.5z M227.7,109.1h5.6c2.4,0,4.3,0.6,5.7,1.8s2,2.7,2,4.7c0,1.3-0.3,2.4-0.9,3.3c-0.6,1-1.5,1.7-2.6,2.3
	c-1.1,0.5-2.5,0.8-4.1,0.8h-8.7v-19.1h4.3v15.4h4.3c1,0,1.8-0.2,2.4-0.7c0.6-0.5,0.9-1.2,0.9-1.9c0-0.8-0.3-1.5-0.9-2
	c-0.6-0.5-1.4-0.8-2.4-0.8h-5.6V109.1z M248.5,115.9l7.6-13h4.6V122h-4.4v-13l-7.6,13h-4.6v-19.1h4.3V115.9z"/>
</svg>
