<svg version="1.1" id="Layer_1" xmlns="http://www.w3.org/2000/svg" x="0" y="0" viewBox="0 0 168 31" style="enable-background:new 0 0 168 31" xml:space="preserve"><style>.st0{fill:#060315}</style><path class="st0" d="M29.7 14.7c0 1.3-.1 2.4-.3 3.2-.1.9-.3 1.6-.5 2.1s-.5.9-.8 1.1c-.3.2-.7.3-1.2.3h-.6V25h1.4c1 0 1.9-.2 2.6-.5.7-.4 1.3-.9 1.8-1.6.5-.7.9-1.7 1.1-2.8.3-1.1.4-2.5.5-4l.3-6h5.3v15h4.2V6.5H30l-.3 8.2zM159.1 4.8c1.7 0 3.1-.4 4.1-1.3 1-.9 1.5-2 1.5-3.4h-3.3c0 .6-.2 1.1-.6 1.6-.4.5-1 .7-1.8.7-.9 0-1.5-.2-1.8-.7-.4-.5-.5-1-.5-1.6h-3.2c0 1.4.5 2.6 1.5 3.4 1 .9 2.4 1.3 4.1 1.3zM22 .3H6.2l-.6 10.4c-.1 2.2-.4 4-.7 5.4-.3 1.4-.7 2.5-1.2 3.3-.5.8-1 1.4-1.6 1.9H.4V31h4.3v-6h15.8v5.9h4.3v-9.6H22V.3zm-4.3 21H7.3c.4-.7.8-1.6 1.2-2.6.4-1 .6-2.2.9-3.5.2-1.3.4-2.8.5-4.5l.3-6.7h7.5v17.3zM109.3 8.5c-.8-.8-1.7-1.3-2.7-1.7-1-.4-2.1-.6-3.2-.6-1.8 0-3.3.4-4.6 1.2-1.3.8-2.3 1.9-3.1 3.4-.7 1.4-1.1 3.1-1.1 5s.4 3.6 1.1 5.1c.7 1.4 1.8 2.5 3.1 3.3 1.4.8 3 1.2 4.8 1.2 1.4 0 2.7-.2 3.8-.7 1.1-.4 2-1.1 2.8-1.9.7-.8 1.2-1.7 1.5-2.8l-4.1-.5c-.2.5-.5 1-.9 1.3-.4.4-.8.6-1.3.8-.5.2-1.1.3-1.7.3-1 0-1.8-.2-2.5-.6-.7-.4-1.3-1-1.7-1.8-.4-.7-.6-1.6-.6-2.7h12.9v-1.3c0-1.6-.2-3-.7-4.2-.4-1.1-1-2.1-1.8-2.8zM98.9 14c0-.7.2-1.4.5-2 .4-.7.9-1.3 1.6-1.7.7-.4 1.5-.7 2.4-.7.8 0 1.6.2 2.2.6.6.4 1.1.9 1.5 1.6.4.7.5 1.4.5 2.2h-8.7zM162.7 6.5l-7.4 12.6V6.5H151V25h4.5l7.5-12.6V25h4.2V6.5zM145.5 8.5c-.8-.8-1.7-1.3-2.7-1.7-1-.4-2.1-.6-3.2-.6-1.8 0-3.3.4-4.6 1.2-1.3.8-2.3 1.9-3.1 3.4-.7 1.4-1.1 3.1-1.1 5s.4 3.6 1.1 5.1c.7 1.4 1.8 2.5 3.1 3.3 1.4.8 3 1.2 4.8 1.2 1.4 0 2.7-.2 3.8-.7 1.1-.4 2-1.1 2.8-1.9.7-.8 1.2-1.7 1.5-2.8l-4.1-.5c-.2.5-.5 1-.9 1.3-.4.4-.8.6-1.3.8-.5.2-1.1.3-1.7.3-1 0-1.8-.2-2.5-.6-.7-.4-1.3-1-1.7-1.8-.4-.7-.6-1.6-.6-2.7H148v-1.3c0-1.6-.2-3-.7-4.2-.4-1.1-1-2.1-1.8-2.8zM135.1 14c0-.7.2-1.4.5-2 .4-.7.9-1.3 1.6-1.7.7-.4 1.5-.7 2.4-.7.8 0 1.6.2 2.2.6.6.4 1.1.9 1.5 1.6.4.7.5 1.4.5 2.2h-8.7zM89.9 6.5H76.5L76 13c-.1 1-.2 2-.3 2.9-.1.9-.3 1.7-.4 2.4-.2.7-.4 1.3-.7 1.9-.3.5-.6.9-1 1.2h-1.5v9h4.3V25h12.1v5.4h4.2v-9h-2.9V6.5zm-4.2 14.9h-7.6c.6-.9 1-2 1.3-3.4.3-1.4.5-3.1.6-5l.3-3h5.4v11.4zM113.3 10h6v15h4.2V10h6V6.5h-16.2zM50.3 7.2c-1.1.5-1.9 1.2-2.5 2.1-.6.9-.9 1.9-.9 3.1 0 1.1.3 2.1.9 3 .6.9 1.4 1.5 2.5 2h.1L46.2 25h4.3l3.8-7h3.9v7h4.1V6.5h-8.1c-1.5 0-2.8.2-3.9.7zm7.9 7.6h-4.1c-1 0-1.7-.2-2.2-.7-.5-.5-.8-1-.8-1.7s.3-1.3.8-1.7 1.3-.7 2.3-.7h4v4.8z"/></svg>