<?xml version="1.0" encoding="utf-8"?>
<!-- Generator: Adobe Illustrator 25.2.3, SVG Export Plug-In . SVG Version: 6.00 Build 0)  -->
<svg version="1.1" id="Layer_1" xmlns="http://www.w3.org/2000/svg" xmlns:xlink="http://www.w3.org/1999/xlink" x="0px" y="0px"
	 viewBox="0 0 809 651" style="enable-background:new 0 0 809 651;" xml:space="preserve">
<style type="text/css">
	.st0{fill:#060315;}
</style>
<path class="st0" d="M39.6,244.6v41h-7.6v-17.6H10.7v17.6H3.1v-41h7.6v16.9h21.2v-16.9H39.6z"/>
<path class="st0" d="M79.6,270.2c0,0.5,0,1.2-0.1,2.2H54.9c0.4,2.3,1.5,4.1,3.3,5.5c1.8,1.3,4.1,2,6.8,2c3.4,0,6.3-1.1,8.5-3.4
	l3.9,4.5c-1.4,1.7-3.2,3-5.3,3.8c-2.1,0.9-4.6,1.3-7.3,1.3c-3.4,0-6.5-0.7-9.1-2.1c-2.6-1.4-4.7-3.3-6.1-5.7
	c-1.4-2.5-2.1-5.2-2.1-8.3c0-3,0.7-5.8,2.1-8.2c1.4-2.5,3.3-4.4,5.8-5.7c2.5-1.4,5.2-2.1,8.3-2.1c3,0,5.8,0.7,8.1,2.1
	c2.4,1.3,4.3,3.2,5.6,5.7C78.9,264.2,79.6,267,79.6,270.2z M63.7,259.9c-2.3,0-4.3,0.7-6,2.1c-1.6,1.4-2.6,3.2-2.9,5.5h17.8
	c-0.3-2.3-1.3-4.1-2.9-5.5C68.1,260.6,66.1,259.9,63.7,259.9z"/>
<path class="st0" d="M111.6,260.6H94.9v25.1h-7.3v-31.3h24V260.6z"/>
<path class="st0" d="M117,254.4h7.3v31.3H117V254.4z M120.6,249.2c-1.3,0-2.4-0.4-3.3-1.2c-0.9-0.9-1.3-1.9-1.3-3.2
	c0-1.2,0.4-2.3,1.3-3.1c0.9-0.9,2-1.3,3.3-1.3c1.3,0,2.4,0.4,3.3,1.2c0.9,0.8,1.3,1.8,1.3,3c0,1.3-0.4,2.4-1.3,3.3
	C123.1,248.8,122,249.2,120.6,249.2z"/>
<path class="st0" d="M152.5,269.4c2,0.5,3.5,1.4,4.5,2.7c1.1,1.2,1.6,2.7,1.6,4.4c0,1.9-0.6,3.6-1.9,5.1c-1.3,1.4-3.1,2.6-5.3,3.4
	c-2.3,0.8-4.8,1.2-7.7,1.2c-2.4,0-4.8-0.3-7.1-0.8c-2.3-0.6-4.4-1.4-6.3-2.5l2.1-5.5c1.5,0.9,3.2,1.5,5.2,2c1.9,0.5,3.8,0.7,5.7,0.7
	c2.5,0,4.4-0.4,5.7-1.1c1.4-0.8,2.1-1.8,2.1-3.2c0-1.2-0.5-2.1-1.6-2.8c-1.1-0.7-2.6-1-4.5-1h-6.1v-4.9h5.5c1.8,0,3.3-0.3,4.3-0.9
	c1.1-0.6,1.6-1.5,1.6-2.6c0-1.1-0.6-2-1.9-2.7c-1.3-0.7-3-1-5.2-1c-3.1,0-6.4,0.8-9.9,2.3l-1.9-5.4c4.1-1.9,8.2-2.9,12.4-2.9
	c2.7,0,5,0.4,7.2,1.1c2.1,0.7,3.8,1.7,4.9,3c1.2,1.3,1.8,2.8,1.8,4.5c0,1.5-0.5,2.9-1.4,4.1C155.4,267.8,154.1,268.7,152.5,269.4z"
	/>
<path class="st0" d="M190.3,260.6h-16.7v25.1h-7.3v-31.3h24V260.6z"/>
<path class="st0" d="M195.6,254.4h7.3v31.3h-7.3V254.4z M199.3,249.2c-1.3,0-2.4-0.4-3.3-1.2c-0.9-0.9-1.3-1.9-1.3-3.2
	c0-1.2,0.4-2.3,1.3-3.1c0.9-0.9,2-1.3,3.3-1.3c1.3,0,2.4,0.4,3.3,1.2c0.9,0.8,1.3,1.8,1.3,3c0,1.3-0.4,2.4-1.3,3.3
	C201.8,248.8,200.7,249.2,199.3,249.2z"/>
<path class="st0" d="M242.1,273.1h-5.7v12.5H229v-31.3h7.3V267h5.9l9.3-12.7h7.9L248,269.4l12.1,16.2h-8.6L242.1,273.1z
	 M262.1,279.6v12.6h-6.6v-6.5h-3.9v-6.1H262.1z"/>
<path class="st0" d="M278.2,286.1c-3.2,0-6-0.7-8.6-2.1c-2.5-1.4-4.5-3.3-6-5.7c-1.4-2.5-2.1-5.2-2.1-8.3c0-3.1,0.7-5.8,2.1-8.3
	c1.4-2.4,3.4-4.3,6-5.7c2.5-1.4,5.4-2.1,8.6-2.1c3.2,0,6.1,0.7,8.6,2.1c2.5,1.4,4.5,3.3,5.9,5.7c1.4,2.4,2.2,5.2,2.2,8.3
	c0,3.1-0.7,5.9-2.2,8.3c-1.4,2.4-3.4,4.3-5.9,5.7C284.3,285.4,281.4,286.1,278.2,286.1z M278.2,279.8c2.7,0,4.9-0.9,6.7-2.7
	c1.8-1.8,2.6-4.2,2.6-7.1s-0.9-5.3-2.6-7.1c-1.8-1.8-4-2.7-6.7-2.7c-2.7,0-4.9,0.9-6.7,2.7c-1.7,1.8-2.6,4.2-2.6,7.1
	s0.9,5.3,2.6,7.1C273.3,278.9,275.5,279.8,278.2,279.8z"/>
<path class="st0" d="M330.2,254.4v31.3h-7.3v-25.1h-11.7l-0.3,6.2c-0.2,4.1-0.6,7.6-1.2,10.4c-0.5,2.8-1.5,5-2.9,6.6
	c-1.3,1.6-3.2,2.4-5.5,2.4c-1.1,0-2.4-0.2-4-0.6l0.4-6.2c0.5,0.1,1,0.2,1.4,0.2c1.5,0,2.6-0.6,3.3-1.8c0.7-1.2,1.2-2.6,1.4-4.3
	c0.2-1.7,0.4-4.1,0.6-7.2l0.5-12.1H330.2z"/>
<path class="st0" d="M373.5,279.4v13.2h-6.9v-7h-24.2v7h-6.8v-13.2h1.5c2-0.1,3.3-1.3,4-3.8c0.7-2.5,1.2-6,1.5-10.6l0.4-10.7h25.8
	v25.1H373.5z M349.3,265.6c-0.2,3.6-0.4,6.5-0.9,8.8c-0.4,2.3-1.2,3.9-2.3,5h15.4v-18.9h-12L349.3,265.6z"/>
<path class="st0" d="M391.7,254c4.6,0,8.1,1.1,10.6,3.3c2.5,2.2,3.7,5.5,3.7,10v18.3H399v-3.8c-0.9,1.4-2.2,2.4-3.9,3.2
	c-1.6,0.7-3.6,1.1-6,1.1s-4.4-0.4-6.2-1.2c-1.8-0.8-3.1-1.9-4.1-3.3c-0.9-1.4-1.4-3.1-1.4-4.9c0-2.8,1-5.1,3.1-6.7
	c2.1-1.7,5.4-2.6,9.9-2.6h8.1v-0.5c0-2.2-0.7-3.9-2-5c-1.3-1.2-3.2-1.8-5.8-1.8c-1.8,0-3.5,0.3-5.2,0.8c-1.7,0.5-3.1,1.3-4.3,2.3
	l-2.9-5.3c1.6-1.2,3.6-2.2,5.9-2.9C386.7,254.3,389.1,254,391.7,254z M390.7,280.7c1.8,0,3.5-0.4,4.9-1.2c1.4-0.9,2.5-2.1,3-3.6
	v-3.6H391c-4.2,0-6.3,1.4-6.3,4.2c0,1.3,0.5,2.4,1.6,3.2C387.3,280.3,388.8,280.7,390.7,280.7z"/>
<path class="st0" d="M415,254.4h7.3v12.7h15.8v-12.7h7.3v31.3h-7.3v-12.4h-15.8v12.4H415V254.4z"/>
<path class="st0" d="M484.8,254.4l-14.7,33.8c-1.4,3.4-3,5.8-5,7.2c-2,1.4-4.3,2.1-7.1,2.1c-1.6,0-3.1-0.3-4.6-0.8
	c-1.5-0.5-2.8-1.2-3.8-2.1l2.9-5.4c0.7,0.7,1.5,1.2,2.5,1.6c1,0.4,2,0.6,2.9,0.6c1.3,0,2.3-0.3,3.2-1c0.9-0.7,1.6-1.8,2.3-3.3
	l0.5-1.2l-13.7-31.4h7.6l9.8,23.2l9.9-23.2H484.8z"/>
<path class="st0" d="M498.4,260.6v9.4H511v4.8h-12.6v10.9H491v-10.9h-3.9v-4.8h3.9v-15.6h24v6.2H498.4z"/>
<path class="st0" d="M532.7,254c4.6,0,8.1,1.1,10.6,3.3c2.5,2.2,3.7,5.5,3.7,10v18.3h-6.9v-3.8c-0.9,1.4-2.2,2.4-3.9,3.2
	c-1.6,0.7-3.6,1.1-6,1.1c-2.3,0-4.4-0.4-6.2-1.2c-1.8-0.8-3.1-1.9-4.1-3.3c-0.9-1.4-1.4-3.1-1.4-4.9c0-2.8,1-5.1,3.1-6.7
	c2.1-1.7,5.4-2.6,9.9-2.6h8.1v-0.5c0-2.2-0.7-3.9-2-5c-1.3-1.2-3.2-1.8-5.8-1.8c-1.8,0-3.5,0.3-5.2,0.8c-1.7,0.5-3.1,1.3-4.3,2.3
	l-2.9-5.3c1.6-1.2,3.6-2.2,5.9-2.9C527.7,254.3,530.2,254,532.7,254z M531.7,280.7c1.8,0,3.5-0.4,4.9-1.2c1.4-0.9,2.5-2.1,3-3.6
	v-3.6h-7.6c-4.2,0-6.3,1.4-6.3,4.2c0,1.3,0.5,2.4,1.6,3.2C528.4,280.3,529.9,280.7,531.7,280.7z"/>
<path class="st0" d="M19.2,317.2c3,0,5.6,0.6,7.9,1.9c2.3,1.3,4,3,5.3,5.3c1.3,2.3,1.9,4.9,1.9,7.8c0,3-0.7,5.7-2.1,8
	c-1.4,2.3-3.4,4.1-5.9,5.4c-2.5,1.3-5.4,1.9-8.7,1.9c-5.4,0-9.6-1.8-12.6-5.4c-3-3.6-4.5-8.8-4.5-15.5c0-6.3,1.3-11.3,4-14.9
	c2.7-3.7,6.8-6.1,12.4-7.3l14.5-3.1l1.1,6.6l-13.2,2.7c-3.8,0.8-6.6,2.1-8.5,4c-1.9,1.9-3,4.5-3.3,7.9c1.4-1.7,3.1-3,5.1-3.9
	C14.7,317.6,16.8,317.2,19.2,317.2z M17.8,341.6c2.7,0,4.9-0.9,6.5-2.6c1.7-1.8,2.5-4,2.5-6.7c0-2.7-0.8-4.9-2.5-6.5
	c-1.6-1.6-3.8-2.5-6.5-2.5c-2.7,0-4.9,0.8-6.6,2.5c-1.7,1.6-2.5,3.8-2.5,6.5c0,2.7,0.8,5,2.5,6.7C12.9,340.8,15.1,341.6,17.8,341.6z
	"/>
<path class="st0" d="M55.3,347.4c-3.2,0-6-0.7-8.6-2.1c-2.5-1.4-4.5-3.3-6-5.7c-1.4-2.5-2.1-5.2-2.1-8.3c0-3.1,0.7-5.8,2.1-8.3
	c1.4-2.4,3.4-4.3,6-5.7c2.5-1.4,5.4-2.1,8.6-2.1c3.2,0,6.1,0.7,8.6,2.1c2.5,1.4,4.5,3.3,5.9,5.7c1.4,2.4,2.2,5.2,2.2,8.3
	c0,3.1-0.7,5.9-2.2,8.3c-1.4,2.4-3.4,4.3-5.9,5.7C61.4,346.7,58.5,347.4,55.3,347.4z M55.3,341.1c2.7,0,4.9-0.9,6.7-2.7
	c1.8-1.8,2.6-4.2,2.6-7.1c0-2.9-0.9-5.3-2.6-7.1c-1.8-1.8-4-2.7-6.7-2.7c-2.7,0-4.9,0.9-6.7,2.7c-1.7,1.8-2.6,4.2-2.6,7.1
	c0,2.9,0.9,5.3,2.6,7.1C50.4,340.2,52.6,341.1,55.3,341.1z"/>
<path class="st0" d="M107.3,315.6v31.3H100v-25.1H88.3l-0.3,6.2c-0.2,4.1-0.6,7.6-1.2,10.4c-0.5,2.8-1.5,5-2.9,6.6
	c-1.3,1.6-3.2,2.4-5.5,2.4c-1.1,0-2.4-0.2-4-0.6l0.4-6.2c0.5,0.1,1,0.2,1.4,0.2c1.5,0,2.6-0.6,3.3-1.8c0.7-1.2,1.2-2.6,1.4-4.3
	c0.2-1.7,0.4-4.1,0.6-7.2l0.5-12.1H107.3z"/>
<path class="st0" d="M148,346.9v-20.8l-10.6,17.5h-3.2l-10.4-17.5v20.8h-6.7v-31.3h7.7l11.1,19.6l11.7-19.6h6.9l0.1,31.3H148z"/>
<path class="st0" d="M176.1,315.3c4.6,0,8.1,1.1,10.6,3.3c2.5,2.2,3.7,5.5,3.7,10v18.3h-6.9v-3.8c-0.9,1.4-2.2,2.4-3.9,3.2
	c-1.6,0.7-3.6,1.1-6,1.1s-4.4-0.4-6.2-1.2c-1.8-0.8-3.1-1.9-4.1-3.3c-0.9-1.4-1.4-3.1-1.4-4.9c0-2.8,1-5.1,3.1-6.7
	c2.1-1.7,5.4-2.6,9.9-2.6h8.1v-0.5c0-2.2-0.7-3.9-2-5c-1.3-1.2-3.2-1.8-5.8-1.8c-1.8,0-3.5,0.3-5.2,0.8c-1.7,0.5-3.1,1.3-4.3,2.3
	l-2.9-5.3c1.6-1.3,3.6-2.2,5.9-2.9C171.1,315.6,173.5,315.3,176.1,315.3z M175.1,342c1.8,0,3.5-0.4,4.9-1.2c1.4-0.9,2.5-2.1,3-3.6
	v-3.6h-7.6c-4.2,0-6.3,1.4-6.3,4.2c0,1.3,0.5,2.4,1.6,3.2C171.7,341.6,173.2,342,175.1,342z"/>
<path class="st0" d="M199.4,315.6h7.3v20.6l17.3-20.6h6.7v31.3h-7.3v-20.6l-17.2,20.6h-6.7V315.6z M214.6,311.9
	c-3.2,0-5.6-0.7-7.3-2.2c-1.6-1.5-2.5-3.6-2.5-6.4h4.9c0,1.4,0.5,2.5,1.3,3.3c0.9,0.8,2.1,1.2,3.6,1.2c1.5,0,2.7-0.4,3.5-1.2
	c0.9-0.8,1.4-1.9,1.4-3.3h5c0,2.8-0.9,5-2.6,6.4C220.2,311.2,217.7,311.9,214.6,311.9z"/>
<path class="st0" d="M265.4,321.9h-11v25.1h-7.3v-25.1h-11v-6.2h29.3V321.9z"/>
<path class="st0" d="M285.9,326c4,0,7,0.9,9.1,2.7c2.1,1.8,3.2,4.3,3.2,7.6c0,3.4-1.2,6.1-3.5,8c-2.3,1.9-5.6,2.8-9.8,2.8l-14.2-0.1
	v-31.3h7.3v10.3L285.9,326z M302.3,315.6h7.3v31.3h-7.3V315.6z M284.2,341.6c2.1,0,3.8-0.4,4.9-1.3c1.1-0.9,1.7-2.3,1.7-4.1
	c0-1.8-0.5-3-1.6-3.9c-1.1-0.8-2.8-1.3-5-1.3l-6.2-0.1v10.6L284.2,341.6z"/>
<path class="st0" d="M319.4,315.6h7.3v12.7h15.8v-12.7h7.3v31.3h-7.3v-12.4h-15.8v12.4h-7.3V315.6z"/>
<path class="st0" d="M405.6,334.4h-5.3v12.5h-7.3v-12.5h-5.3l-7.6,12.5h-8.7l10.3-16.2l-9.5-15.1h7.8l7.6,12.7h5.4v-12.7h7.3v12.7
	h5.3l7.7-12.7h7.8l-9.5,15.1l10.3,16.2h-8.7L405.6,334.4z"/>
<path class="st0" d="M438.5,315.3c4.6,0,8.1,1.1,10.6,3.3c2.5,2.2,3.7,5.5,3.7,10v18.3h-6.9v-3.8c-0.9,1.4-2.2,2.4-3.9,3.2
	c-1.6,0.7-3.6,1.1-6,1.1s-4.4-0.4-6.2-1.2c-1.8-0.8-3.1-1.9-4.1-3.3c-0.9-1.4-1.4-3.1-1.4-4.9c0-2.8,1-5.1,3.1-6.7
	c2.1-1.7,5.4-2.6,9.9-2.6h8.1v-0.5c0-2.2-0.7-3.9-2-5c-1.3-1.2-3.2-1.8-5.8-1.8c-1.8,0-3.5,0.3-5.2,0.8c-1.7,0.5-3.1,1.3-4.3,2.3
	l-2.9-5.3c1.6-1.3,3.6-2.2,5.9-2.9C433.5,315.6,435.9,315.3,438.5,315.3z M437.5,342c1.8,0,3.5-0.4,4.9-1.2c1.4-0.9,2.5-2.1,3-3.6
	v-3.6h-7.6c-4.2,0-6.3,1.4-6.3,4.2c0,1.3,0.5,2.4,1.6,3.2C434.2,341.6,435.6,342,437.5,342z"/>
<path class="st0" d="M470.3,321.9v9.4h12.6v4.8h-12.6v10.9H463V336h-3.9v-4.8h3.9v-15.6h24v6.2H470.3z"/>
<path class="st0" d="M524.3,340.7v13.2h-6.9v-7h-24.2v7h-6.8v-13.2h1.5c2-0.1,3.3-1.3,4-3.8c0.7-2.5,1.2-6,1.5-10.6l0.4-10.7h25.8
	v25.1H524.3z M500.2,326.9c-0.2,3.6-0.4,6.5-0.9,8.8c-0.4,2.3-1.2,3.9-2.3,5h15.4v-18.9h-12L500.2,326.9z"/>
<path class="st0" d="M542.5,315.3c4.6,0,8.1,1.1,10.6,3.3c2.5,2.2,3.7,5.5,3.7,10v18.3h-6.9v-3.8c-0.9,1.4-2.2,2.4-3.9,3.2
	c-1.6,0.7-3.6,1.1-6,1.1c-2.3,0-4.4-0.4-6.2-1.2c-1.8-0.8-3.1-1.9-4.1-3.3c-0.9-1.4-1.4-3.1-1.4-4.9c0-2.8,1-5.1,3.1-6.7
	c2.1-1.7,5.4-2.6,9.9-2.6h8.1v-0.5c0-2.2-0.7-3.9-2-5c-1.3-1.2-3.2-1.8-5.8-1.8c-1.8,0-3.5,0.3-5.2,0.8c-1.7,0.5-3.1,1.3-4.3,2.3
	l-2.9-5.3c1.6-1.3,3.6-2.2,5.9-2.9C537.5,315.6,539.9,315.3,542.5,315.3z M541.5,342c1.8,0,3.5-0.4,4.9-1.2c1.4-0.9,2.5-2.1,3-3.6
	v-3.6h-7.6c-4.2,0-6.3,1.4-6.3,4.2c0,1.3,0.5,2.4,1.6,3.2C538.2,341.6,539.7,342,541.5,342z"/>
<path class="st0" d="M565.8,315.6h7.3v20.6l17.3-20.6h6.7v31.3h-7.3v-20.6l-17.2,20.6h-6.7V315.6z M581,311.9
	c-3.2,0-5.6-0.7-7.3-2.2c-1.6-1.5-2.5-3.6-2.5-6.4h4.9c0,1.4,0.5,2.5,1.3,3.3c0.9,0.8,2.1,1.2,3.6,1.2c1.5,0,2.7-0.4,3.5-1.2
	c0.9-0.8,1.4-1.9,1.4-3.3h5c0,2.8-0.9,5-2.6,6.4C586.6,311.2,584.2,311.9,581,311.9z"/>
<path class="st0" d="M635.4,315.6v31.3H628v-25.1h-11.7l-0.3,6.2c-0.2,4.1-0.6,7.6-1.2,10.4c-0.5,2.8-1.5,5-2.9,6.6
	c-1.3,1.6-3.2,2.4-5.5,2.4c-1.1,0-2.4-0.2-4-0.6l0.4-6.2c0.5,0.1,1,0.2,1.4,0.2c1.5,0,2.6-0.6,3.3-1.8c0.7-1.2,1.2-2.6,1.4-4.3
	c0.2-1.7,0.4-4.1,0.6-7.2l0.5-12.1H635.4z"/>
<path class="st0" d="M656.9,315.3c4.6,0,8.1,1.1,10.6,3.3c2.5,2.2,3.7,5.5,3.7,10v18.3h-6.9v-3.8c-0.9,1.4-2.2,2.4-3.9,3.2
	c-1.6,0.7-3.6,1.1-6,1.1c-2.3,0-4.4-0.4-6.2-1.2c-1.8-0.8-3.1-1.9-4.1-3.3c-0.9-1.4-1.4-3.1-1.4-4.9c0-2.8,1-5.1,3.1-6.7
	c2.1-1.7,5.4-2.6,9.9-2.6h8.1v-0.5c0-2.2-0.7-3.9-2-5c-1.3-1.2-3.2-1.8-5.8-1.8c-1.8,0-3.5,0.3-5.2,0.8c-1.7,0.5-3.1,1.3-4.3,2.3
	l-2.9-5.3c1.6-1.3,3.6-2.2,5.9-2.9C651.9,315.6,654.3,315.3,656.9,315.3z M655.9,342c1.8,0,3.5-0.4,4.9-1.2c1.4-0.9,2.5-2.1,3-3.6
	v-3.6h-7.6c-4.2,0-6.3,1.4-6.3,4.2c0,1.3,0.5,2.4,1.6,3.2C652.6,341.6,654,342,655.9,342z"/>
<path class="st0" d="M697.6,315.3c3,0,5.8,0.7,8.1,2c2.4,1.3,4.3,3.2,5.7,5.6c1.4,2.4,2.1,5.2,2.1,8.4c0,3.2-0.7,6-2.1,8.4
	c-1.4,2.4-3.3,4.3-5.7,5.6c-2.4,1.3-5.1,2-8.1,2c-4.2,0-7.6-1.4-10-4.2v15.2h-7.3v-42.7h7v4.1c1.2-1.5,2.7-2.6,4.5-3.3
	C693.4,315.7,695.4,315.3,697.6,315.3z M696.8,341.1c2.7,0,4.9-0.9,6.6-2.7c1.8-1.8,2.6-4.2,2.6-7.1c0-2.9-0.9-5.3-2.6-7.1
	c-1.7-1.8-3.9-2.7-6.6-2.7c-1.8,0-3.3,0.4-4.7,1.2c-1.4,0.8-2.5,1.9-3.3,3.4c-0.8,1.5-1.2,3.2-1.2,5.2c0,2,0.4,3.7,1.2,5.2
	c0.8,1.5,1.9,2.6,3.3,3.5C693.4,340.7,695,341.1,696.8,341.1z"/>
<path class="st0" d="M723,325c-1.3,0-2.5-0.5-3.4-1.3c-0.9-0.9-1.4-2.1-1.4-3.5c0-1.4,0.4-2.6,1.3-3.5c0.9-0.9,2.1-1.3,3.5-1.3
	c1.4,0,2.5,0.4,3.4,1.3c0.9,0.9,1.4,2.1,1.4,3.5c0,1.4-0.5,2.6-1.4,3.5C725.4,324.6,724.3,325,723,325z M723,347.4
	c-1.3,0-2.5-0.4-3.4-1.3c-0.9-0.9-1.4-2.1-1.4-3.5c0-1.4,0.4-2.6,1.3-3.5c0.9-0.9,2.1-1.3,3.5-1.3c1.4,0,2.5,0.4,3.4,1.3
	c0.9,0.9,1.4,2.1,1.4,3.5c0,1.4-0.5,2.6-1.4,3.5C725.4,346.9,724.3,347.4,723,347.4z"/>
<path class="st0" d="M15.9,421.1H9.5v12.4H5.8v-27.9h3.8v12.3H16l9.8-12.3h4.1l-11,13.5l11.8,14.4h-4.5L15.9,421.1z M33.2,430.3v9.4
	h-3.4v-6.2h-3.6v-3.2H33.2z"/>
<path class="st0" d="M46.3,433.7v10.1h-3.8v-10.1l-12.4-28.1h4l10.4,23.8l10.6-23.8h3.7L46.3,433.7z M33.5,431.9h21.9v2.8H33.5
	V431.9z"/>
<path class="st0" d="M79,405.4c2.6,0,5,0.6,7.1,1.8c2.1,1.2,3.8,2.8,5,5c1.2,2.2,1.8,4.6,1.8,7.4c0,2.8-0.6,5.3-1.8,7.4
	c-1.2,2.2-2.9,3.8-5,5c-2.1,1.2-4.5,1.8-7.1,1.8c-2.3,0-4.3-0.5-6.2-1.4c-1.8-1-3.3-2.3-4.5-4.1v15.5h-3.8v-38.2h3.6v5.5
	c1.1-1.8,2.6-3.3,4.5-4.2C74.6,405.9,76.7,405.4,79,405.4z M78.7,430.4c1.9,0,3.7-0.4,5.3-1.3c1.6-0.9,2.8-2.2,3.7-3.9
	c0.9-1.7,1.4-3.6,1.4-5.7c0-2.1-0.5-4-1.4-5.6c-0.9-1.7-2.1-3-3.7-3.9c-1.6-0.9-3.4-1.4-5.3-1.4c-2,0-3.8,0.5-5.4,1.4
	c-1.6,0.9-2.8,2.2-3.7,3.9c-0.9,1.6-1.3,3.5-1.3,5.6c0,2.1,0.4,4,1.3,5.7c0.9,1.7,2.2,3,3.7,3.9C75,430,76.7,430.4,78.7,430.4z"/>
<path class="st0" d="M110.4,405.4c3.6,0,6.4,0.9,8.4,2.8c1.9,1.8,2.9,4.5,2.9,8.1v17.3h-3.6v-4.3c-0.8,1.4-2.1,2.6-3.8,3.4
	c-1.6,0.8-3.6,1.2-5.8,1.2c-3.1,0-5.6-0.7-7.4-2.2c-1.8-1.5-2.8-3.4-2.8-5.9c0-2.4,0.8-4.3,2.5-5.7c1.7-1.4,4.5-2.2,8.2-2.2h8.9
	v-1.7c0-2.4-0.7-4.2-2-5.5c-1.3-1.3-3.3-1.9-5.9-1.9c-1.8,0-3.5,0.3-5.1,0.9c-1.6,0.6-3,1.4-4.2,2.4l-1.7-2.8
	c1.4-1.2,3.1-2.1,5.1-2.8C106.1,405.7,108.2,405.4,110.4,405.4z M109.1,430.8c2.1,0,3.9-0.5,5.5-1.4c1.5-1,2.7-2.4,3.4-4.2v-4.6
	h-8.8c-4.8,0-7.2,1.7-7.2,5c0,1.6,0.6,2.9,1.9,3.9C105.1,430.4,106.9,430.8,109.1,430.8z"/>
<path class="st0" d="M162.9,405.6v27.9h-3.4v-22.1l-11.3,18.7h-1.7l-11.3-18.7v22.1h-3.4v-27.9h3.8l11.8,20.1l12-20.1H162.9z"/>
<path class="st0" d="M200.9,430.2v10h-3.6v-6.7h-25v6.7h-3.6v-10h1.6c1.9-0.1,3.1-1.5,3.8-4.1c0.7-2.7,1.1-6.4,1.4-11.1l0.4-9.3
	h20.6v24.6H200.9z M179,415.2c-0.2,4-0.5,7.2-1,9.8c-0.5,2.5-1.4,4.3-2.7,5.2h17.4V409h-13.4L179,415.2z"/>
<path class="st0" d="M217.8,405.4c3.6,0,6.4,0.9,8.4,2.8c1.9,1.8,2.9,4.5,2.9,8.1v17.3h-3.6v-4.3c-0.8,1.4-2.1,2.6-3.8,3.4
	c-1.6,0.8-3.6,1.2-5.8,1.2c-3.1,0-5.6-0.7-7.4-2.2c-1.8-1.5-2.8-3.4-2.8-5.9c0-2.4,0.8-4.3,2.5-5.7c1.7-1.4,4.5-2.2,8.2-2.2h8.9
	v-1.7c0-2.4-0.7-4.2-2-5.5c-1.3-1.3-3.3-1.9-5.9-1.9c-1.8,0-3.5,0.3-5.1,0.9c-1.6,0.6-3,1.4-4.2,2.4l-1.7-2.8
	c1.4-1.2,3.1-2.1,5.1-2.8C213.5,405.7,215.6,405.4,217.8,405.4z M216.5,430.8c2.1,0,3.9-0.5,5.5-1.4c1.5-1,2.7-2.4,3.4-4.2v-4.6
	h-8.8c-4.8,0-7.2,1.7-7.2,5c0,1.6,0.6,2.9,1.9,3.9C212.5,430.4,214.2,430.8,216.5,430.8z"/>
<path class="st0" d="M250.8,433.8c-2.8,0-5.2-0.6-7.4-1.8c-2.2-1.2-3.9-2.9-5.1-5c-1.2-2.2-1.9-4.6-1.9-7.4c0-2.7,0.6-5.2,1.9-7.3
	c1.2-2.2,2.9-3.8,5.1-5c2.2-1.2,4.7-1.8,7.4-1.8c2.4,0,4.5,0.5,6.4,1.4c1.9,0.9,3.4,2.3,4.5,4.1l-2.8,1.9c-0.9-1.4-2.1-2.4-3.5-3.1
	c-1.4-0.7-3-1.1-4.6-1.1c-2,0-3.8,0.5-5.5,1.4c-1.6,0.9-2.8,2.2-3.8,3.8c-0.9,1.7-1.3,3.6-1.3,5.7c0,2.2,0.4,4.1,1.3,5.7
	c0.9,1.6,2.2,2.9,3.8,3.8c1.6,0.9,3.4,1.3,5.5,1.3c1.7,0,3.2-0.3,4.6-1c1.4-0.7,2.6-1.7,3.5-3.1l2.8,1.9c-1.1,1.8-2.6,3.2-4.5,4.1
	C255.3,433.3,253.2,433.8,250.8,433.8z"/>
<path class="st0" d="M296.4,406.3c2.6,0,4.9,0.6,6.9,1.8c2.1,1.1,3.6,2.7,4.8,4.8c1.1,2.1,1.7,4.4,1.7,7.1c0,2.7-0.6,5.1-1.8,7.3
	c-1.2,2.1-2.8,3.7-4.9,4.9c-2.1,1.2-4.6,1.8-7.3,1.8c-4.6,0-8.2-1.6-10.8-4.9c-2.5-3.3-3.8-7.7-3.8-13.5c0-6,1.1-10.6,3.4-13.7
	c2.3-3.2,5.9-5.3,10.7-6.5l12.5-2.9l0.6,3.4l-11.8,2.7c-4,0.9-6.9,2.5-8.8,4.7c-1.9,2.2-2.9,5.5-3.1,9.9c1.1-2.2,2.7-3.8,4.7-5
	C291.5,406.9,293.8,406.3,296.4,406.3z M295.8,430.7c1.9,0,3.7-0.4,5.2-1.3c1.6-0.9,2.8-2.2,3.6-3.8c0.9-1.6,1.3-3.5,1.3-5.5
	c0-2.1-0.4-3.9-1.3-5.4c-0.8-1.6-2.1-2.8-3.6-3.6c-1.5-0.9-3.3-1.3-5.3-1.3c-2,0-3.7,0.4-5.3,1.3c-1.5,0.8-2.7,2.1-3.6,3.6
	c-0.8,1.6-1.3,3.4-1.3,5.4c0,2.1,0.4,3.9,1.3,5.5c0.9,1.6,2.1,2.9,3.7,3.8C292.1,430.3,293.9,430.7,295.8,430.7z"/>
<path class="st0" d="M329.6,405.4c2.8,0,5.2,0.6,7.4,1.8c2.2,1.2,3.9,2.9,5.1,5c1.3,2.2,1.9,4.6,1.9,7.3c0,2.7-0.6,5.2-1.9,7.3
	c-1.2,2.2-3,3.9-5.1,5.1c-2.2,1.2-4.7,1.8-7.4,1.8s-5.3-0.6-7.5-1.8c-2.2-1.2-3.9-2.9-5.1-5.1c-1.2-2.2-1.9-4.6-1.9-7.3
	c0-2.7,0.6-5.2,1.9-7.3c1.2-2.2,3-3.8,5.1-5C324.4,406,326.9,405.4,329.6,405.4z M329.6,408.4c-2.9,0-5.4,0.9-7.4,2.7
	c-2,1.8-3.1,4.1-3.4,7.1h21.6c-0.3-2.9-1.5-5.3-3.4-7.1C335,409.3,332.6,408.4,329.6,408.4z M329.6,430.7c2.9,0,5.4-0.9,7.4-2.7
	c2-1.8,3.2-4.2,3.4-7.1h-21.6c0.3,2.9,1.4,5.3,3.4,7.1C324.2,429.8,326.7,430.7,329.6,430.7z"/>
<path class="st0" d="M374.8,405.6v27.9H371V409h-13.4l-0.4,6.9c-0.3,5.8-1,10.3-2,13.4c-1.1,3.1-3,4.7-5.7,4.7
	c-0.7,0-1.6-0.1-2.7-0.4l0.3-3.2c0.6,0.1,1.1,0.2,1.3,0.2c1.4,0,2.5-0.7,3.3-2c0.7-1.3,1.2-3,1.5-5c0.2-2,0.5-4.6,0.6-7.8l0.5-10
	H374.8z"/>
<path class="st0" d="M385.5,405.6h3.8v27.9h-3.8V405.6z M387.4,399.5c-0.8,0-1.4-0.3-2-0.8c-0.5-0.5-0.8-1.2-0.8-1.9
	c0-0.7,0.3-1.3,0.8-1.9c0.5-0.5,1.2-0.8,2-0.8c0.8,0,1.4,0.3,2,0.8c0.5,0.5,0.8,1.1,0.8,1.8c0,0.8-0.3,1.4-0.8,2
	C388.8,399.3,388.2,399.5,387.4,399.5z"/>
<path class="st0" d="M410.1,421.1h-6.4v12.4H400v-27.9h3.8v12.3h6.4l9.8-12.3h4.1l-11,13.5l11.8,14.4h-4.5L410.1,421.1z"/>
<path class="st0" d="M449.9,409h-10.6v24.6h-3.8V409H425v-3.3h24.9V409z"/>
<path class="st0" d="M478.4,420.7h-23.3c0.2,2.9,1.3,5.3,3.3,7.1c2,1.8,4.6,2.7,7.6,2.7c1.7,0,3.3-0.3,4.8-0.9
	c1.4-0.6,2.7-1.6,3.8-2.8l2.1,2.4c-1.2,1.5-2.8,2.6-4.7,3.4c-1.8,0.8-3.9,1.2-6.1,1.2c-2.9,0-5.4-0.6-7.6-1.8
	c-2.2-1.2-3.9-2.9-5.1-5.1c-1.2-2.2-1.9-4.6-1.9-7.3c0-2.7,0.6-5.2,1.8-7.3c1.2-2.2,2.8-3.8,4.9-5c2.1-1.2,4.4-1.8,7-1.8
	c2.6,0,4.9,0.6,6.9,1.8c2.1,1.2,3.7,2.9,4.8,5c1.2,2.1,1.8,4.6,1.8,7.3L478.4,420.7z M464.9,408.6c-2.7,0-4.9,0.9-6.8,2.6
	c-1.8,1.7-2.8,3.9-3.1,6.7h19.8c-0.2-2.8-1.3-5-3.1-6.7C469.9,409.5,467.7,408.6,464.9,408.6z"/>
<path class="st0" d="M501.2,405.4c2.6,0,5,0.6,7.1,1.8c2.1,1.2,3.8,2.8,5,5c1.2,2.2,1.8,4.6,1.8,7.4c0,2.8-0.6,5.3-1.8,7.4
	c-1.2,2.2-2.9,3.8-5,5c-2.1,1.2-4.5,1.8-7.1,1.8c-2.3,0-4.3-0.5-6.2-1.4c-1.8-1-3.3-2.3-4.5-4.1v15.5h-3.8v-38.2h3.6v5.5
	c1.1-1.8,2.6-3.3,4.5-4.2C496.7,405.9,498.8,405.4,501.2,405.4z M500.9,430.4c1.9,0,3.7-0.4,5.3-1.3c1.6-0.9,2.8-2.2,3.7-3.9
	c0.9-1.7,1.4-3.6,1.4-5.7c0-2.1-0.5-4-1.4-5.6c-0.9-1.7-2.1-3-3.7-3.9c-1.6-0.9-3.4-1.4-5.3-1.4c-2,0-3.8,0.5-5.4,1.4
	c-1.6,0.9-2.8,2.2-3.7,3.9c-0.9,1.6-1.3,3.5-1.3,5.6c0,2.1,0.4,4,1.3,5.7c0.9,1.7,2.2,3,3.7,3.9C497.2,430,498.9,430.4,500.9,430.4z
	"/>
<path class="st0" d="M523.2,405.6h3.8v27.9h-3.8V405.6z M525.1,399.5c-0.8,0-1.4-0.3-2-0.8c-0.5-0.5-0.8-1.2-0.8-1.9
	c0-0.7,0.3-1.3,0.8-1.9c0.5-0.5,1.2-0.8,2-0.8s1.4,0.3,2,0.8c0.5,0.5,0.8,1.1,0.8,1.8c0,0.8-0.3,1.4-0.8,2
	C526.5,399.3,525.9,399.5,525.1,399.5z"/>
<path class="st0" d="M537.7,405.6h3.8V418H559v-12.4h3.8v27.9H559v-12.3h-17.6v12.3h-3.8V405.6z"/>
<path class="st0" d="M573.5,405.6h3.8v27.9h-3.8V405.6z M575.4,399.5c-0.8,0-1.4-0.3-2-0.8c-0.5-0.5-0.8-1.2-0.8-1.9
	c0-0.7,0.3-1.3,0.8-1.9c0.5-0.5,1.2-0.8,2-0.8s1.4,0.3,2,0.8c0.5,0.5,0.8,1.1,0.8,1.8c0,0.8-0.3,1.4-0.8,2
	C576.8,399.3,576.2,399.5,575.4,399.5z"/>
<path class="st0" d="M588,405.6h3.8V418h17.6v-12.4h3.8v27.9h-3.8v-12.3h-17.6v12.3H588V405.6z M617.6,430.2v9.4H614v-6.1h-4.7v-3.3
	H617.6z"/>
<path class="st0" d="M663.1,421.1h-6v12.4h-3.8v-12.4h-6l-8.5,12.4h-4.5l10-14.4l-9.2-13.5h4.1l8.2,12.3h6v-12.3h3.8v12.3h6
	l8.2-12.3h4.1l-9.2,13.6l10,14.3h-4.5L663.1,421.1z"/>
<path class="st0" d="M705.9,420.7h-23.3c0.2,2.9,1.3,5.3,3.3,7.1c2,1.8,4.6,2.7,7.6,2.7c1.7,0,3.3-0.3,4.8-0.9
	c1.4-0.6,2.7-1.6,3.8-2.8l2.1,2.4c-1.2,1.5-2.8,2.6-4.7,3.4c-1.8,0.8-3.9,1.2-6.1,1.2c-2.9,0-5.4-0.6-7.6-1.8
	c-2.2-1.2-3.9-2.9-5.1-5.1c-1.2-2.2-1.9-4.6-1.9-7.3c0-2.7,0.6-5.2,1.8-7.3c1.2-2.2,2.8-3.8,4.9-5c2.1-1.2,4.4-1.8,7-1.8
	s4.9,0.6,6.9,1.8c2.1,1.2,3.7,2.9,4.8,5c1.2,2.1,1.8,4.6,1.8,7.3L705.9,420.7z M692.4,408.6c-2.7,0-5,0.9-6.8,2.6
	c-1.8,1.7-2.8,3.9-3.1,6.7h19.8c-0.2-2.8-1.3-5-3.1-6.7C697.4,409.5,695.2,408.6,692.4,408.6z"/>
<path class="st0" d="M724.4,421.1h-6.4v12.4h-3.8v-27.9h3.8v12.3h6.4l9.8-12.3h4.1l-11,13.5l11.8,14.4h-4.5L724.4,421.1z"/>
<path class="st0" d="M768.5,420.7h-23.3c0.2,2.9,1.3,5.3,3.3,7.1c2,1.8,4.6,2.7,7.6,2.7c1.7,0,3.3-0.3,4.8-0.9
	c1.5-0.6,2.7-1.6,3.8-2.8l2.1,2.4c-1.2,1.5-2.8,2.6-4.7,3.4c-1.8,0.8-3.9,1.2-6.1,1.2c-2.9,0-5.4-0.6-7.6-1.8
	c-2.2-1.2-3.9-2.9-5.1-5.1c-1.2-2.2-1.9-4.6-1.9-7.3c0-2.7,0.6-5.2,1.8-7.3c1.2-2.2,2.8-3.8,4.9-5c2.1-1.2,4.4-1.8,7-1.8
	c2.6,0,4.9,0.6,6.9,1.8c2.1,1.2,3.7,2.9,4.8,5c1.2,2.1,1.8,4.6,1.8,7.3L768.5,420.7z M755.1,408.6c-2.7,0-5,0.9-6.8,2.6
	c-1.8,1.7-2.8,3.9-3.1,6.7H765c-0.2-2.8-1.3-5-3.1-6.7C760,409.5,757.8,408.6,755.1,408.6z"/>
<path class="st0" d="M15.4,474.4c3.6,0,6.4,0.9,8.4,2.8c1.9,1.8,2.9,4.5,2.9,8.1v17.3h-3.6v-4.3c-0.8,1.4-2.1,2.6-3.8,3.4
	c-1.6,0.8-3.6,1.2-5.8,1.2c-3.1,0-5.6-0.7-7.4-2.2c-1.8-1.5-2.8-3.4-2.8-5.9c0-2.4,0.8-4.3,2.5-5.7c1.7-1.5,4.5-2.2,8.2-2.2h8.9V485
	c0-2.4-0.7-4.2-2-5.5c-1.3-1.3-3.3-1.9-5.9-1.9c-1.8,0-3.5,0.3-5.1,0.9c-1.6,0.6-3,1.4-4.2,2.4L4,478.1c1.4-1.2,3.1-2.1,5.1-2.8
	C11.1,474.7,13.2,474.4,15.4,474.4z M14.1,499.8c2.1,0,3.9-0.5,5.5-1.4c1.5-1,2.7-2.4,3.4-4.2v-4.6h-8.8c-4.8,0-7.2,1.7-7.2,5
	c0,1.6,0.6,2.9,1.9,3.9C10.1,499.3,11.8,499.8,14.1,499.8z"/>
<path class="st0" d="M63.9,499.2v10h-3.6v-6.7h-25v6.7h-3.6v-10h1.6c1.9-0.1,3.1-1.5,3.8-4.1c0.7-2.7,1.1-6.4,1.4-11.1l0.4-9.3h20.6
	v24.6H63.9z M42.1,484.1c-0.2,4-0.5,7.2-1,9.8c-0.5,2.5-1.4,4.3-2.7,5.3h17.4v-21.3H42.4L42.1,484.1z"/>
<path class="st0" d="M80.8,474.4c3.6,0,6.4,0.9,8.4,2.8c1.9,1.8,2.9,4.5,2.9,8.1v17.3h-3.6v-4.3c-0.8,1.4-2.1,2.6-3.8,3.4
	c-1.6,0.8-3.6,1.2-5.8,1.2c-3.1,0-5.6-0.7-7.4-2.2c-1.8-1.5-2.8-3.4-2.8-5.9c0-2.4,0.8-4.3,2.5-5.7c1.7-1.5,4.5-2.2,8.2-2.2h8.9V485
	c0-2.4-0.7-4.2-2-5.5c-1.3-1.3-3.3-1.9-5.9-1.9c-1.8,0-3.5,0.3-5.1,0.9c-1.6,0.6-3,1.4-4.2,2.4l-1.7-2.8c1.4-1.2,3.1-2.1,5.1-2.8
	C76.6,474.7,78.7,474.4,80.8,474.4z M79.5,499.8c2.1,0,3.9-0.5,5.5-1.4c1.5-1,2.7-2.4,3.4-4.2v-4.6h-8.8c-4.8,0-7.2,1.7-7.2,5
	c0,1.6,0.6,2.9,1.9,3.9C75.6,499.3,77.3,499.8,79.5,499.8z"/>
<path class="st0" d="M133.4,474.6v27.9h-3.4v-22.1l-11.3,18.7h-1.7l-11.3-18.7v22.1h-3.4v-27.9h3.8l11.8,20.1l12-20.1H133.4z"/>
<path class="st0" d="M171.3,499.2v10h-3.6v-6.7h-25v6.7h-3.6v-10h1.6c1.9-0.1,3.1-1.5,3.8-4.1c0.7-2.7,1.1-6.4,1.4-11.1l0.4-9.3
	h20.6v24.6H171.3z M149.4,484.1c-0.2,4-0.5,7.2-1,9.8c-0.5,2.5-1.4,4.3-2.7,5.3h17.4v-21.3h-13.4L149.4,484.1z"/>
<path class="st0" d="M188.2,474.4c3.6,0,6.4,0.9,8.4,2.8c1.9,1.8,2.9,4.5,2.9,8.1v17.3h-3.6v-4.3c-0.8,1.4-2.1,2.6-3.8,3.4
	c-1.6,0.8-3.6,1.2-5.8,1.2c-3.1,0-5.6-0.7-7.4-2.2c-1.8-1.5-2.8-3.4-2.8-5.9c0-2.4,0.8-4.3,2.5-5.7c1.7-1.5,4.5-2.2,8.2-2.2h8.9V485
	c0-2.4-0.7-4.2-2-5.5c-1.3-1.3-3.3-1.9-5.9-1.9c-1.8,0-3.5,0.3-5.1,0.9c-1.6,0.6-3,1.4-4.2,2.4l-1.7-2.8c1.4-1.2,3.1-2.1,5.1-2.8
	C183.9,474.7,186,474.4,188.2,474.4z M186.9,499.8c2.1,0,3.9-0.5,5.5-1.4c1.5-1,2.7-2.4,3.4-4.2v-4.6H187c-4.8,0-7.2,1.7-7.2,5
	c0,1.6,0.6,2.9,1.9,3.9C182.9,499.3,184.7,499.8,186.9,499.8z"/>
<path class="st0" d="M223.9,474.4c2.6,0,5,0.6,7.1,1.8c2.1,1.2,3.8,2.8,5,5c1.2,2.2,1.8,4.6,1.8,7.4c0,2.8-0.6,5.3-1.8,7.4
	s-2.9,3.8-5,5c-2.1,1.2-4.5,1.8-7.1,1.8c-2.3,0-4.3-0.5-6.2-1.4c-1.8-1-3.3-2.3-4.5-4.1v15.5h-3.8v-38.2h3.6v5.5
	c1.1-1.8,2.6-3.3,4.5-4.2C219.5,474.9,221.6,474.4,223.9,474.4z M223.7,499.4c1.9,0,3.7-0.4,5.3-1.3c1.6-0.9,2.8-2.2,3.7-3.9
	c0.9-1.7,1.4-3.6,1.4-5.7c0-2.1-0.5-4-1.4-5.6c-0.9-1.7-2.1-3-3.7-3.9c-1.6-0.9-3.4-1.4-5.3-1.4c-2,0-3.8,0.5-5.4,1.4
	c-1.6,0.9-2.8,2.2-3.7,3.9c-0.9,1.6-1.3,3.5-1.3,5.6c0,2.1,0.4,4,1.3,5.7c0.9,1.7,2.2,3,3.7,3.9C219.9,499,221.7,499.4,223.7,499.4z
	"/>
<path class="st0" d="M250.5,477.9v10.8h12.2v2.8h-12.2v11h-3.8v-11H243v-2.8h3.7v-14.2h19.7v3.3H250.5z"/>
<path class="st0" d="M282.1,474.4c3.6,0,6.4,0.9,8.4,2.8c1.9,1.8,2.9,4.5,2.9,8.1v17.3h-3.6v-4.3c-0.8,1.4-2.1,2.6-3.8,3.4
	c-1.6,0.8-3.6,1.2-5.8,1.2c-3.1,0-5.6-0.7-7.4-2.2c-1.8-1.5-2.8-3.4-2.8-5.9c0-2.4,0.8-4.3,2.5-5.7c1.7-1.5,4.5-2.2,8.2-2.2h8.9V485
	c0-2.4-0.7-4.2-2-5.5c-1.3-1.3-3.3-1.9-5.9-1.9c-1.8,0-3.5,0.3-5.1,0.9c-1.6,0.6-3,1.4-4.2,2.4l-1.7-2.8c1.4-1.2,3.1-2.1,5.1-2.8
	C277.9,474.7,279.9,474.4,282.1,474.4z M280.8,499.8c2.1,0,3.9-0.5,5.5-1.4c1.5-1,2.7-2.4,3.4-4.2v-4.6h-8.8c-4.8,0-7.2,1.7-7.2,5
	c0,1.6,0.6,2.9,1.9,3.9C276.8,499.3,278.6,499.8,280.8,499.8z"/>
<path class="st0" d="M341.8,490.1h-6v12.4H332v-12.4h-6l-8.5,12.4h-4.5l10-14.4l-9.2-13.5h4.1l8.2,12.3h6v-12.3h3.8v12.3h6l8.2-12.3
	h4.1l-9.2,13.6l10,14.3h-4.5L341.8,490.1z"/>
<path class="st0" d="M370.2,474.4c3.6,0,6.4,0.9,8.4,2.8c1.9,1.8,2.9,4.5,2.9,8.1v17.3h-3.6v-4.3c-0.8,1.4-2.1,2.6-3.8,3.4
	c-1.6,0.8-3.6,1.2-5.8,1.2c-3.1,0-5.6-0.7-7.4-2.2c-1.8-1.5-2.8-3.4-2.8-5.9c0-2.4,0.8-4.3,2.5-5.7c1.7-1.5,4.5-2.2,8.2-2.2h8.9V485
	c0-2.4-0.7-4.2-2-5.5c-1.3-1.3-3.3-1.9-5.9-1.9c-1.8,0-3.5,0.3-5.1,0.9c-1.6,0.6-3,1.4-4.2,2.4l-1.7-2.8c1.4-1.2,3.1-2.1,5.1-2.8
	C366,474.7,368,474.4,370.2,474.4z M368.9,499.8c2.1,0,3.9-0.5,5.5-1.4c1.5-1,2.7-2.4,3.4-4.2v-4.6H369c-4.8,0-7.2,1.7-7.2,5
	c0,1.6,0.6,2.9,1.9,3.9C364.9,499.3,366.7,499.8,368.9,499.8z"/>
<path class="st0" d="M401.7,490.1h-6.4v12.4h-3.8v-27.9h3.8v12.3h6.4l9.8-12.3h4.1l-11,13.5l11.8,14.4H412L401.7,490.1z M419,499.2
	v9.4h-3.4v-6.2H412v-3.2H419z"/>
<path class="st0" d="M447.4,474.6v27.9h-3.8v-24.6h-17.5v24.6h-3.8v-27.9H447.4z"/>
<path class="st0" d="M467.7,474.4c3.6,0,6.4,0.9,8.4,2.8c1.9,1.8,2.9,4.5,2.9,8.1v17.3h-3.6v-4.3c-0.8,1.4-2.1,2.6-3.8,3.4
	c-1.6,0.8-3.6,1.2-5.8,1.2c-3.1,0-5.6-0.7-7.4-2.2c-1.8-1.5-2.8-3.4-2.8-5.9c0-2.4,0.8-4.3,2.5-5.7c1.7-1.5,4.5-2.2,8.2-2.2h8.9V485
	c0-2.4-0.7-4.2-2-5.5c-1.3-1.3-3.3-1.9-5.9-1.9c-1.8,0-3.5,0.3-5.1,0.9c-1.6,0.6-3,1.4-4.2,2.4l-1.7-2.8c1.4-1.2,3.1-2.1,5.1-2.8
	C463.4,474.7,465.5,474.4,467.7,474.4z M466.4,499.8c2.1,0,3.9-0.5,5.5-1.4c1.5-1,2.7-2.4,3.4-4.2v-4.6h-8.8c-4.8,0-7.2,1.7-7.2,5
	c0,1.6,0.6,2.9,1.9,3.9C462.4,499.3,464.2,499.8,466.4,499.8z"/>
<path class="st0" d="M512.7,474.6l-14,31.2c-1.1,2.6-2.4,4.5-3.9,5.6c-1.5,1.1-3.3,1.6-5.4,1.6c-1.3,0-2.6-0.2-3.8-0.6
	c-1.2-0.4-2.2-1.1-3-1.9l1.8-2.8c1.4,1.4,3.1,2.1,5.1,2.1c1.3,0,2.4-0.4,3.2-1.1c0.9-0.7,1.8-1.9,2.5-3.6l1.2-2.7l-12.5-27.8h3.9
	l10.5,23.7l10.5-23.7H512.7z"/>
<path class="st0" d="M530.3,484.4c3.5,0,6.2,0.8,8,2.3c1.8,1.5,2.8,3.7,2.8,6.6c0,3-1,5.3-3,6.8c-2,1.6-4.8,2.4-8.5,2.3l-11-0.1
	v-27.9h3.8v9.8L530.3,484.4z M545.8,474.6h3.8v27.9h-3.8V474.6z M529.4,499.7c2.6,0,4.5-0.5,5.8-1.5c1.3-1.1,2-2.7,2-4.8
	c0-2.1-0.7-3.6-2-4.6c-1.3-1-3.3-1.5-5.9-1.5l-7.1-0.1v12.4L529.4,499.7z"/>
<path class="st0" d="M560.6,497c0.8,0,1.5,0.3,2,0.8c0.5,0.5,0.8,1.2,0.8,2c0,0.4-0.1,0.9-0.2,1.4c-0.1,0.5-0.3,1.1-0.5,1.7
	l-2.2,7.3h-2.5l1.8-7.7c-0.6-0.2-1-0.5-1.4-1c-0.4-0.5-0.5-1.1-0.5-1.8c0-0.8,0.3-1.5,0.8-2C559.1,497.2,559.8,497,560.6,497z"/>
<path class="st0" d="M609.8,490.1h-6v12.4H600v-12.4h-6l-8.5,12.4h-4.5l10-14.4l-9.2-13.5h4.1l8.2,12.3h6v-12.3h3.8v12.3h6l8.2-12.3
	h4.1l-9.2,13.6l10,14.3h-4.5L609.8,490.1z"/>
<path class="st0" d="M638.9,502.6v10.1h-3.8v-10.1l-12.4-28.1h4l10.4,23.8l10.6-23.8h3.7L638.9,502.6z"/>
<path class="st0" d="M667.3,490.1H661v12.4h-3.8v-27.9h3.8v12.3h6.4l9.8-12.3h4.1l-11,13.5l11.8,14.4h-4.5L667.3,490.1z"/>
<path class="st0" d="M707.1,477.9h-10.6v24.6h-3.8v-24.6h-10.6v-3.3h24.9V477.9z"/>
<path class="st0" d="M712.5,474.6h3.8v27.9h-3.8V474.6z M714.4,468.5c-0.8,0-1.4-0.3-2-0.8c-0.5-0.5-0.8-1.2-0.8-1.9
	c0-0.7,0.3-1.3,0.8-1.9c0.5-0.5,1.2-0.8,2-0.8c0.8,0,1.4,0.3,2,0.8c0.5,0.5,0.8,1.1,0.8,1.8c0,0.8-0.3,1.4-0.8,2
	C715.9,468.2,715.2,468.5,714.4,468.5z"/>
<path class="st0" d="M749.8,474.6v27.9h-3.8v-24.6h-13.4l-0.4,6.9c-0.3,5.8-1,10.3-2,13.4c-1.1,3.1-3,4.7-5.7,4.7
	c-0.7,0-1.6-0.1-2.7-0.4l0.3-3.2c0.6,0.1,1.1,0.2,1.3,0.2c1.5,0,2.5-0.7,3.3-2c0.7-1.3,1.2-3,1.5-5c0.2-2,0.5-4.6,0.6-7.9l0.5-10
	H749.8z"/>
<path class="st0" d="M760.5,474.6h3.8v27.9h-3.8V474.6z M762.5,468.5c-0.8,0-1.4-0.3-2-0.8c-0.5-0.5-0.8-1.2-0.8-1.9
	c0-0.7,0.3-1.3,0.8-1.9c0.5-0.5,1.2-0.8,2-0.8c0.8,0,1.4,0.3,2,0.8c0.5,0.5,0.8,1.1,0.8,1.8c0,0.8-0.3,1.4-0.8,2
	C763.9,468.2,763.2,468.5,762.5,468.5z"/>
<path class="st0" d="M785.2,490.1h-6.4v12.4h-3.8v-27.9h3.8v12.3h6.4l9.8-12.3h4.1l-11,13.5l11.8,14.4h-4.5L785.2,490.1z"/>
<path class="st0" d="M806.2,497c0.8,0,1.5,0.3,2,0.8c0.5,0.5,0.8,1.2,0.8,2c0,0.4-0.1,0.9-0.2,1.4c-0.1,0.5-0.3,1.1-0.5,1.7
	l-2.2,7.3h-2.5l1.8-7.7c-0.6-0.2-1-0.5-1.4-1c-0.4-0.5-0.5-1.1-0.5-1.8c0-0.8,0.3-1.5,0.8-2C804.7,497.2,805.4,497,806.2,497z"/>
<path class="st0" d="M30.2,558.6H6.8c0.2,2.9,1.3,5.3,3.3,7.1c2,1.8,4.6,2.7,7.6,2.7c1.7,0,3.3-0.3,4.8-0.9c1.4-0.6,2.7-1.6,3.8-2.8
	l2.1,2.4c-1.2,1.5-2.8,2.6-4.7,3.4c-1.8,0.8-3.9,1.2-6.1,1.2c-2.9,0-5.4-0.6-7.6-1.8c-2.2-1.2-3.9-2.9-5.1-5.1
	c-1.2-2.2-1.9-4.6-1.9-7.3c0-2.7,0.6-5.2,1.8-7.3c1.2-2.2,2.8-3.8,4.9-5c2.1-1.2,4.4-1.8,7-1.8c2.6,0,4.9,0.6,6.9,1.8
	c2.1,1.2,3.7,2.9,4.8,5c1.2,2.1,1.8,4.6,1.8,7.3L30.2,558.6z M16.7,546.5c-2.7,0-5,0.9-6.8,2.6c-1.8,1.7-2.8,3.9-3.1,6.7h19.8
	c-0.2-2.8-1.3-5-3.1-6.7C21.7,547.4,19.4,546.5,16.7,546.5z"/>
<path class="st0" d="M69.8,543.5v27.9h-3.4v-22.1L55,568h-1.7L42,549.3v22.1h-3.4v-27.9h3.8l11.8,20.1l12-20.1H69.8z"/>
<path class="st0" d="M119,543.5v27.9H80.5v-27.9h3.8v24.6h13.7v-24.6h3.8v24.6h13.5v-24.6H119z"/>
<path class="st0" d="M154.1,558.6h-23.3c0.2,2.9,1.3,5.3,3.3,7.1c2,1.8,4.6,2.7,7.6,2.7c1.7,0,3.3-0.3,4.8-0.9
	c1.5-0.6,2.7-1.6,3.8-2.8l2.1,2.4c-1.2,1.5-2.8,2.6-4.7,3.4c-1.8,0.8-3.9,1.2-6.1,1.2c-2.9,0-5.4-0.6-7.6-1.8
	c-2.2-1.2-3.9-2.9-5.1-5.1c-1.2-2.2-1.9-4.6-1.9-7.3c0-2.7,0.6-5.2,1.8-7.3c1.2-2.2,2.8-3.8,4.9-5c2.1-1.2,4.4-1.8,7-1.8
	s4.9,0.6,6.9,1.8c2.1,1.2,3.7,2.9,4.8,5c1.2,2.1,1.8,4.6,1.8,7.3L154.1,558.6z M140.7,546.5c-2.7,0-4.9,0.9-6.8,2.6
	c-1.8,1.7-2.8,3.9-3.1,6.7h19.8c-0.2-2.8-1.3-5-3.1-6.7C145.6,547.4,143.4,546.5,140.7,546.5z"/>
<path class="st0" d="M172.6,559h-6.4v12.4h-3.8v-27.9h3.8v12.3h6.4l9.8-12.3h4.1l-11,13.5l11.8,14.4h-4.5L172.6,559z"/>
<path class="st0" d="M231.6,558.6h-23.3c0.2,2.9,1.3,5.3,3.3,7.1c2,1.8,4.6,2.7,7.6,2.7c1.7,0,3.3-0.3,4.8-0.9
	c1.5-0.6,2.7-1.6,3.8-2.8l2.1,2.4c-1.2,1.5-2.8,2.6-4.7,3.4c-1.8,0.8-3.9,1.2-6.1,1.2c-2.9,0-5.4-0.6-7.6-1.8
	c-2.2-1.2-3.9-2.9-5.1-5.1c-1.2-2.2-1.9-4.6-1.9-7.3c0-2.7,0.6-5.2,1.8-7.3c1.2-2.2,2.8-3.8,4.9-5c2.1-1.2,4.4-1.8,7-1.8
	c2.6,0,4.9,0.6,6.9,1.8c2.1,1.2,3.7,2.9,4.8,5c1.2,2.1,1.8,4.6,1.8,7.3L231.6,558.6z M218.1,546.5c-2.7,0-5,0.9-6.8,2.6
	c-1.8,1.7-2.8,3.9-3.1,6.7h19.8c-0.2-2.8-1.3-5-3.1-6.7C223.1,547.4,220.9,546.5,218.1,546.5z"/>
<path class="st0" d="M271.2,543.5v27.9h-3.4v-22.1L256.4,568h-1.7l-11.3-18.7v22.1H240v-27.9h3.8l11.8,20.1l12-20.1H271.2z"/>
<path class="st0" d="M281.9,543.5h3.8v27.9h-3.8V543.5z M283.8,537.4c-0.8,0-1.4-0.3-2-0.8c-0.5-0.5-0.8-1.2-0.8-1.9
	c0-0.7,0.3-1.3,0.8-1.9c0.5-0.5,1.2-0.8,2-0.8c0.8,0,1.4,0.3,2,0.8c0.5,0.5,0.8,1.1,0.8,1.8c0,0.8-0.3,1.4-0.8,2
	C285.2,537.2,284.6,537.4,283.8,537.4z"/>
<path class="st0" d="M309.4,556.9c2,0.5,3.5,1.3,4.6,2.4c1.1,1.1,1.6,2.5,1.6,4.1c0,1.6-0.6,3.1-1.7,4.3c-1.1,1.3-2.6,2.3-4.5,3
	c-1.9,0.7-4,1-6.3,1c-2,0-4-0.3-5.9-0.8c-1.9-0.6-3.6-1.5-5.1-2.6l1.3-2.8c1.3,1,2.8,1.7,4.5,2.2c1.7,0.5,3.4,0.8,5.1,0.8
	c2.6,0,4.7-0.5,6.3-1.4c1.7-1,2.5-2.3,2.5-4c0-1.5-0.7-2.6-2-3.4c-1.3-0.8-3.2-1.3-5.5-1.3h-4.8v-2.8h4.6c2.1,0,3.8-0.4,5-1.2
	c1.3-0.8,1.9-1.9,1.9-3.2c0-1.5-0.7-2.7-2.2-3.5c-1.4-0.8-3.3-1.3-5.6-1.3c-3,0-6,0.8-8.9,2.3l-1.1-2.9c3.3-1.7,6.8-2.6,10.3-2.6
	c2.1,0,4,0.3,5.7,1c1.7,0.6,3.1,1.5,4,2.6c1,1.1,1.5,2.4,1.5,3.9c0,1.4-0.5,2.7-1.5,3.8C312.4,555.5,311.1,556.4,309.4,556.9z"/>
<path class="st0" d="M347.9,543.5l-13.9,31.2c-1.1,2.6-2.4,4.5-3.9,5.6c-1.5,1.1-3.3,1.6-5.4,1.6c-1.3,0-2.6-0.2-3.8-0.6
	c-1.2-0.4-2.2-1.1-3-1.9l1.8-2.8c1.4,1.4,3.1,2.1,5.1,2.1c1.3,0,2.4-0.4,3.2-1.1c0.9-0.7,1.8-1.9,2.5-3.6l1.2-2.7l-12.5-27.8h3.9
	l10.5,23.7l10.5-23.7H347.9z"/>
<path class="st0" d="M352.2,565.9c0.8,0,1.5,0.3,2,0.8c0.5,0.5,0.8,1.2,0.8,2c0,0.4-0.1,0.9-0.2,1.4c-0.1,0.5-0.3,1.1-0.5,1.7
	l-2.2,7.3h-2.5l1.8-7.7c-0.6-0.2-1-0.5-1.4-1c-0.4-0.5-0.5-1.1-0.5-1.8c0-0.8,0.3-1.5,0.8-2C350.8,566.2,351.4,565.9,352.2,565.9z"
	/>
<path class="st0" d="M396.7,546.9h-10.6v24.6h-3.8v-24.6h-10.6v-3.3h24.9V546.9z"/>
<path class="st0" d="M416.5,543.3c2.6,0,5,0.6,7.1,1.8c2.1,1.2,3.8,2.8,5,5c1.2,2.2,1.8,4.6,1.8,7.4c0,2.8-0.6,5.3-1.8,7.4
	c-1.2,2.2-2.9,3.8-5,5c-2.1,1.2-4.5,1.8-7.1,1.8c-2.3,0-4.3-0.5-6.2-1.4c-1.8-1-3.3-2.3-4.5-4.1v15.5h-3.8v-38.2h3.6v5.5
	c1.1-1.8,2.6-3.3,4.5-4.2C412.1,543.8,414.2,543.3,416.5,543.3z M416.2,568.3c1.9,0,3.7-0.4,5.3-1.3c1.6-0.9,2.8-2.2,3.7-3.9
	c0.9-1.7,1.4-3.6,1.4-5.7c0-2.1-0.5-4-1.4-5.6c-0.9-1.7-2.1-3-3.7-3.9s-3.4-1.4-5.3-1.4c-2,0-3.8,0.5-5.4,1.4
	c-1.6,0.9-2.8,2.2-3.7,3.9c-0.9,1.6-1.3,3.5-1.3,5.6c0,2.1,0.4,4,1.3,5.7c0.9,1.7,2.2,3,3.7,3.9
	C412.5,567.9,414.2,568.3,416.2,568.3z"/>
<path class="st0" d="M450,571.7c-2.7,0-5.1-0.6-7.3-1.8c-2.2-1.2-3.9-2.9-5.1-5.1c-1.2-2.2-1.9-4.6-1.9-7.3c0-2.7,0.6-5.2,1.9-7.3
	c1.2-2.2,2.9-3.8,5.1-5c2.2-1.2,4.6-1.8,7.3-1.8c2.7,0,5.1,0.6,7.3,1.8c2.2,1.2,3.8,2.9,5,5c1.2,2.2,1.9,4.6,1.9,7.3
	c0,2.7-0.6,5.2-1.9,7.3c-1.2,2.2-2.9,3.9-5,5.1C455.1,571.1,452.7,571.7,450,571.7z M450,568.3c2,0,3.7-0.4,5.3-1.3
	c1.6-0.9,2.8-2.2,3.7-3.9s1.3-3.6,1.3-5.7c0-2.1-0.4-4-1.3-5.7c-0.9-1.7-2.1-2.9-3.7-3.8c-1.6-0.9-3.3-1.4-5.3-1.4
	c-2,0-3.8,0.5-5.4,1.4c-1.6,0.9-2.8,2.2-3.7,3.8c-0.9,1.7-1.3,3.6-1.3,5.7c0,2.1,0.4,4,1.3,5.7c0.9,1.7,2.2,3,3.7,3.9
	C446.2,567.9,448,568.3,450,568.3z"/>
<path class="st0" d="M503.4,543.5v27.9h-3.4v-22.1L488.6,568h-1.7l-11.3-18.7v22.1h-3.4v-27.9h3.8l11.8,20.1l12-20.1H503.4z"/>
<path class="st0" d="M527.6,544.2c2.6,0,4.9,0.6,6.9,1.8c2.1,1.1,3.6,2.7,4.8,4.8c1.1,2.1,1.7,4.4,1.7,7.1c0,2.7-0.6,5.1-1.8,7.3
	c-1.2,2.1-2.8,3.7-4.9,4.9c-2.1,1.2-4.6,1.8-7.3,1.8c-4.6,0-8.2-1.6-10.8-4.9c-2.5-3.3-3.8-7.7-3.8-13.5c0-6,1.1-10.6,3.4-13.7
	c2.3-3.2,5.9-5.3,10.7-6.5l12.5-2.9l0.6,3.4l-11.8,2.7c-4,0.9-6.9,2.5-8.8,4.7c-1.9,2.2-2.9,5.5-3.1,9.9c1.1-2.2,2.7-3.8,4.7-5
	C522.7,544.8,525,544.2,527.6,544.2z M527,568.6c1.9,0,3.7-0.4,5.2-1.3c1.6-0.9,2.8-2.2,3.6-3.8c0.9-1.6,1.3-3.5,1.3-5.5
	c0-2-0.4-3.9-1.3-5.4c-0.8-1.6-2-2.8-3.6-3.6c-1.5-0.9-3.3-1.3-5.3-1.3c-2,0-3.7,0.4-5.3,1.3c-1.5,0.8-2.7,2.1-3.6,3.6
	c-0.8,1.6-1.3,3.4-1.3,5.4c0,2.1,0.4,3.9,1.3,5.5c0.9,1.6,2.1,2.9,3.7,3.8C523.4,568.2,525.1,568.6,527,568.6z"/>
<path class="st0" d="M567.7,546.9h-10.6v24.6h-3.8v-24.6h-10.6v-3.3h24.9V546.9z"/>
<path class="st0" d="M582.7,543.3c3.6,0,6.4,0.9,8.4,2.8c1.9,1.8,2.9,4.5,2.9,8.1v17.3h-3.6v-4.3c-0.8,1.5-2.1,2.6-3.8,3.4
	c-1.6,0.8-3.6,1.2-5.8,1.2c-3.1,0-5.6-0.7-7.4-2.2c-1.8-1.5-2.8-3.4-2.8-5.9c0-2.4,0.8-4.3,2.5-5.7c1.7-1.4,4.5-2.2,8.2-2.2h8.9V554
	c0-2.4-0.7-4.2-2-5.5c-1.3-1.3-3.3-1.9-5.9-1.9c-1.8,0-3.5,0.3-5.1,0.9c-1.6,0.6-3,1.4-4.2,2.4l-1.7-2.8c1.4-1.2,3.1-2.1,5.1-2.8
	C578.4,543.6,580.5,543.3,582.7,543.3z M581.4,568.7c2.1,0,3.9-0.5,5.5-1.4c1.5-1,2.7-2.4,3.4-4.2v-4.6h-8.8c-4.8,0-7.2,1.7-7.2,5
	c0,1.6,0.6,2.9,1.9,3.9C577.4,568.3,579.1,568.7,581.4,568.7z"/>
<path class="st0" d="M618.4,543.3c2.6,0,5,0.6,7.1,1.8c2.1,1.2,3.8,2.8,5,5c1.2,2.2,1.8,4.6,1.8,7.4c0,2.8-0.6,5.3-1.8,7.4
	c-1.2,2.2-2.9,3.8-5,5c-2.1,1.2-4.5,1.8-7.1,1.8c-2.3,0-4.3-0.5-6.2-1.4c-1.8-1-3.3-2.3-4.5-4.1v15.5H604v-38.2h3.6v5.5
	c1.1-1.8,2.6-3.3,4.5-4.2C614,543.8,616.1,543.3,618.4,543.3z M618.1,568.3c1.9,0,3.7-0.4,5.3-1.3c1.6-0.9,2.8-2.2,3.7-3.9
	c0.9-1.7,1.4-3.6,1.4-5.7c0-2.1-0.5-4-1.4-5.6c-0.9-1.7-2.1-3-3.7-3.9c-1.6-0.9-3.4-1.4-5.3-1.4c-2,0-3.8,0.5-5.4,1.4
	c-1.6,0.9-2.8,2.2-3.7,3.9c-0.9,1.6-1.3,3.5-1.3,5.6c0,2.1,0.4,4,1.3,5.7c0.9,1.7,2.2,3,3.7,3.9
	C614.4,567.9,616.2,568.3,618.1,568.3z"/>
<path class="st0" d="M667.4,568.1v10h-3.6v-6.7h-25v6.7h-3.6v-10h1.6c1.9-0.1,3.1-1.5,3.8-4.1c0.7-2.7,1.1-6.4,1.4-11.1l0.4-9.3
	h20.6v24.6H667.4z M645.6,553.1c-0.2,4-0.5,7.2-1,9.8c-0.5,2.5-1.4,4.3-2.7,5.3h17.4v-21.3h-13.4L645.6,553.1z"/>
<path class="st0" d="M686.5,553.4c3.5,0,6.2,0.8,8,2.3c1.8,1.5,2.8,3.7,2.8,6.6c0,3-1,5.3-3,6.8c-2,1.6-4.8,2.4-8.5,2.3l-11-0.1
	v-27.9h3.8v9.8L686.5,553.4z M701.9,543.5h3.8v27.9h-3.8V543.5z M685.6,568.6c2.6,0,4.5-0.5,5.8-1.5c1.3-1.1,2-2.7,2-4.8
	c0-2.1-0.7-3.6-2-4.6c-1.3-1-3.3-1.5-5.9-1.5l-7.1-0.1v12.4L685.6,568.6z"/>
<path class="st0" d="M716.4,543.5h3.8v12.4h17.6v-12.4h3.8v27.9h-3.8v-12.3h-17.6v12.3h-3.8V543.5z M746,568.1v9.4h-3.6v-6.1h-4.7
	v-3.3H746z"/>
<path class="st0" d="M25.4,615.8H14.8v24.6h-3.8v-24.6H0.5v-3.3h24.9V615.8z"/>
<path class="st0" d="M42.3,640.5v10.1h-3.8v-10.1l-12.4-28.1h4l10.4,23.8l10.6-23.8h3.7L42.3,640.5z"/>
<path class="st0" d="M73.4,625.8c2,0.5,3.5,1.3,4.6,2.4c1.1,1.1,1.6,2.5,1.6,4.1c0,1.6-0.6,3.1-1.7,4.3c-1.1,1.3-2.6,2.3-4.5,3
	c-1.9,0.7-4,1-6.3,1c-2,0-4-0.3-5.9-0.8c-1.9-0.6-3.6-1.5-5.1-2.6l1.3-2.8c1.3,1,2.8,1.7,4.5,2.2c1.7,0.5,3.4,0.8,5.1,0.8
	c2.6,0,4.7-0.5,6.3-1.4c1.7-1,2.5-2.3,2.5-4c0-1.5-0.7-2.6-2-3.4c-1.3-0.8-3.2-1.3-5.5-1.3h-4.8v-2.8H68c2.1,0,3.8-0.4,5-1.2
	c1.3-0.8,1.9-1.9,1.9-3.2c0-1.5-0.7-2.7-2.2-3.5c-1.4-0.8-3.3-1.3-5.6-1.3c-3,0-6,0.8-8.9,2.3l-1.1-2.9c3.3-1.7,6.8-2.6,10.3-2.6
	c2.1,0,4,0.3,5.7,1c1.7,0.6,3.1,1.5,4,2.6c1,1.1,1.5,2.4,1.5,3.9c0,1.4-0.5,2.7-1.5,3.8C76.4,624.5,75.1,625.3,73.4,625.8z"/>
<path class="st0" d="M88.2,612.5H92v27.9h-3.8V612.5z M90.1,606.4c-0.8,0-1.4-0.3-2-0.8c-0.5-0.5-0.8-1.2-0.8-1.9
	c0-0.7,0.3-1.3,0.8-1.9c0.5-0.5,1.2-0.8,2-0.8s1.4,0.3,2,0.8c0.5,0.5,0.8,1.1,0.8,1.8c0,0.8-0.3,1.4-0.8,2
	C91.5,606.1,90.9,606.4,90.1,606.4z"/>
<path class="st0" d="M125.5,612.5v27.9h-3.8v-24.6h-13.4l-0.4,6.9c-0.3,5.8-1,10.3-2,13.4c-1.1,3.1-3,4.7-5.7,4.7
	c-0.7,0-1.6-0.1-2.7-0.4l0.3-3.2c0.6,0.1,1.1,0.2,1.3,0.2c1.5,0,2.5-0.7,3.3-2c0.7-1.3,1.2-3,1.5-5c0.2-2,0.5-4.6,0.6-7.9l0.5-10
	H125.5z"/>
<path class="st0" d="M159.9,612.5L146,643.7c-1.1,2.6-2.4,4.5-3.9,5.6s-3.3,1.6-5.4,1.6c-1.3,0-2.6-0.2-3.8-0.6
	c-1.2-0.4-2.2-1.1-3-1.9l1.8-2.8c1.4,1.4,3.1,2.1,5.1,2.1c1.3,0,2.4-0.4,3.2-1.1c0.9-0.7,1.8-1.9,2.5-3.6l1.2-2.7l-12.5-27.8h3.9
	l10.5,23.7l10.5-23.7H159.9z"/>
<path class="st0" d="M165.8,612.5h3.8v27.9h-3.8V612.5z M167.7,606.4c-0.8,0-1.4-0.3-2-0.8c-0.5-0.5-0.8-1.2-0.8-1.9
	c0-0.7,0.3-1.3,0.8-1.9c0.5-0.5,1.2-0.8,2-0.8s1.4,0.3,2,0.8c0.5,0.5,0.8,1.1,0.8,1.8c0,0.8-0.3,1.4-0.8,2
	C169.1,606.1,168.5,606.4,167.7,606.4z"/>
<path class="st0" d="M180.3,612.5h3.8v12.4h17.6v-12.4h3.8v27.9h-3.8v-12.3H184v12.3h-3.8V612.5z"/>
<path class="st0" d="M240.5,627.6h-23.3c0.2,2.9,1.3,5.3,3.3,7.1c2,1.8,4.6,2.7,7.6,2.7c1.7,0,3.3-0.3,4.8-0.9
	c1.4-0.6,2.7-1.6,3.8-2.8l2.1,2.4c-1.2,1.5-2.8,2.6-4.7,3.4c-1.8,0.8-3.9,1.2-6.1,1.2c-2.9,0-5.4-0.6-7.6-1.8
	c-2.2-1.2-3.9-2.9-5.1-5.1c-1.2-2.2-1.9-4.6-1.9-7.3c0-2.7,0.6-5.2,1.8-7.3c1.2-2.2,2.8-3.8,4.9-5c2.1-1.2,4.4-1.8,7-1.8
	c2.6,0,4.9,0.6,6.9,1.8c2.1,1.2,3.7,2.9,4.8,5c1.2,2.1,1.8,4.6,1.8,7.3L240.5,627.6z M227,615.5c-2.7,0-5,0.9-6.8,2.6
	c-1.8,1.7-2.8,3.9-3.1,6.7h19.8c-0.2-2.8-1.3-5-3.1-6.7C232,616.4,229.7,615.5,227,615.5z"/>
<path class="st0" d="M287.2,628h-6v12.4h-3.8V628h-6l-8.5,12.4h-4.5l10-14.4l-9.2-13.5h4.1l8.2,12.3h6v-12.3h3.8v12.3h6l8.2-12.3
	h4.1l-9.2,13.6l10,14.3h-4.5L287.2,628z"/>
<path class="st0" d="M317.1,640.6c-2.7,0-5.1-0.6-7.3-1.8c-2.2-1.2-3.9-2.9-5.1-5.1c-1.2-2.2-1.9-4.6-1.9-7.3c0-2.7,0.6-5.2,1.9-7.3
	c1.2-2.2,2.9-3.8,5.1-5c2.2-1.2,4.6-1.8,7.3-1.8c2.7,0,5.1,0.6,7.3,1.8c2.2,1.2,3.8,2.9,5,5c1.2,2.2,1.9,4.6,1.9,7.3
	c0,2.7-0.6,5.2-1.9,7.3c-1.2,2.2-2.9,3.9-5,5.1C322.2,640,319.8,640.6,317.1,640.6z M317.1,637.3c2,0,3.7-0.4,5.3-1.3
	c1.6-0.9,2.8-2.2,3.7-3.9s1.3-3.6,1.3-5.7c0-2.1-0.4-4-1.3-5.7c-0.9-1.7-2.1-2.9-3.7-3.8c-1.6-0.9-3.3-1.4-5.3-1.4
	c-2,0-3.8,0.5-5.4,1.4c-1.6,0.9-2.8,2.2-3.7,3.8c-0.9,1.7-1.3,3.6-1.3,5.7c0,2.1,0.4,4,1.3,5.7c0.9,1.7,2.2,3,3.7,3.9
	C313.3,636.9,315.1,637.3,317.1,637.3z"/>
<path class="st0" d="M343.9,615.8v10.8h12.2v2.8h-12.2v11h-3.8v-11h-3.7v-2.8h3.7v-14.2h19.7v3.3H343.9z"/>
<path class="st0" d="M375.5,612.3c3.6,0,6.4,0.9,8.4,2.8c1.9,1.8,2.9,4.5,2.9,8.1v17.3h-3.6V636c-0.8,1.5-2.1,2.6-3.8,3.4
	c-1.6,0.8-3.6,1.2-5.8,1.2c-3.1,0-5.6-0.7-7.4-2.2c-1.8-1.5-2.8-3.4-2.8-5.9c0-2.4,0.8-4.3,2.5-5.7c1.7-1.5,4.5-2.2,8.2-2.2h8.9
	v-1.7c0-2.4-0.7-4.2-2-5.5c-1.3-1.3-3.3-1.9-5.9-1.9c-1.8,0-3.5,0.3-5.1,0.9c-1.6,0.6-3,1.4-4.2,2.4l-1.7-2.8
	c1.4-1.2,3.1-2.1,5.1-2.8C371.2,612.6,373.3,612.3,375.5,612.3z M374.2,637.7c2.1,0,3.9-0.5,5.5-1.4c1.5-1,2.7-2.4,3.4-4.2v-4.6
	h-8.8c-4.8,0-7.2,1.7-7.2,5c0,1.6,0.6,2.9,1.9,3.9C370.2,637.2,372,637.7,374.2,637.7z"/>
<path class="st0" d="M411.2,612.3c2.6,0,5,0.6,7.1,1.8c2.1,1.2,3.8,2.8,5,5c1.2,2.2,1.8,4.6,1.8,7.4c0,2.8-0.6,5.3-1.8,7.4
	s-2.9,3.8-5,5c-2.1,1.2-4.5,1.8-7.1,1.8c-2.3,0-4.3-0.5-6.2-1.4c-1.8-1-3.3-2.3-4.5-4.1v15.5h-3.8v-38.2h3.6v5.5
	c1.1-1.8,2.6-3.3,4.5-4.2C406.8,612.8,408.9,612.3,411.2,612.3z M410.9,637.3c1.9,0,3.7-0.4,5.3-1.3c1.6-0.9,2.8-2.2,3.7-3.9
	c0.9-1.7,1.4-3.6,1.4-5.7c0-2.1-0.5-4-1.4-5.6c-0.9-1.7-2.1-3-3.7-3.9s-3.4-1.4-5.3-1.4c-2,0-3.8,0.5-5.4,1.4
	c-1.6,0.9-2.8,2.2-3.7,3.9c-0.9,1.6-1.3,3.5-1.3,5.6c0,2.1,0.4,4,1.3,5.7c0.9,1.7,2.2,3,3.7,3.9C407.2,636.9,409,637.3,410.9,637.3z
	"/>
<path class="st0" d="M444.9,622.3c3.5,0,6.2,0.8,8,2.3c1.8,1.5,2.8,3.7,2.8,6.6c0,3-1,5.3-3,6.8c-2,1.6-4.8,2.4-8.5,2.3l-11-0.1
	v-27.9h3.8v9.8L444.9,622.3z M460.4,612.5h3.8v27.9h-3.8V612.5z M444,637.6c2.6,0,4.5-0.5,5.8-1.5c1.3-1.1,2-2.7,2-4.8
	c0-2-0.7-3.6-2-4.6c-1.3-1-3.3-1.5-5.9-1.5L437,625v12.4L444,637.6z"/>
<path class="st0" d="M502.2,613.2c2.6,0,4.9,0.6,6.9,1.8c2.1,1.1,3.6,2.7,4.8,4.8c1.1,2.1,1.7,4.4,1.7,7.1c0,2.7-0.6,5.1-1.8,7.3
	c-1.2,2.1-2.8,3.7-4.9,4.9c-2.1,1.2-4.6,1.8-7.3,1.8c-4.6,0-8.2-1.6-10.8-4.9s-3.8-7.7-3.8-13.5c0-6,1.1-10.6,3.4-13.7
	c2.3-3.2,5.9-5.3,10.7-6.5l12.5-2.9l0.6,3.4l-11.8,2.7c-4,0.9-6.9,2.5-8.8,4.7c-1.9,2.2-2.9,5.5-3.1,9.9c1.1-2.2,2.7-3.8,4.7-5
	C497.3,613.8,499.6,613.2,502.2,613.2z M501.7,637.6c1.9,0,3.7-0.4,5.2-1.3c1.6-0.9,2.8-2.2,3.6-3.8c0.9-1.6,1.3-3.5,1.3-5.5
	s-0.4-3.9-1.3-5.4c-0.8-1.6-2.1-2.8-3.6-3.6c-1.5-0.9-3.3-1.3-5.3-1.3c-2,0-3.7,0.4-5.3,1.3c-1.5,0.8-2.7,2-3.6,3.6
	c-0.8,1.6-1.3,3.4-1.3,5.4s0.4,3.9,1.3,5.5c0.9,1.6,2.1,2.9,3.7,3.8C498,637.1,499.7,637.6,501.7,637.6z"/>
<path class="st0" d="M548.1,627.6h-23.3c0.2,2.9,1.3,5.3,3.3,7.1c2,1.8,4.6,2.7,7.6,2.7c1.7,0,3.3-0.3,4.8-0.9
	c1.5-0.6,2.7-1.6,3.8-2.8l2.1,2.4c-1.2,1.5-2.8,2.6-4.7,3.4c-1.8,0.8-3.9,1.2-6.1,1.2c-2.9,0-5.4-0.6-7.6-1.8
	c-2.2-1.2-3.9-2.9-5.1-5.1c-1.2-2.2-1.9-4.6-1.9-7.3c0-2.7,0.6-5.2,1.8-7.3c1.2-2.2,2.8-3.8,4.9-5c2.1-1.2,4.4-1.8,7-1.8
	c2.6,0,4.9,0.6,6.9,1.8c2.1,1.2,3.7,2.9,4.8,5c1.2,2.1,1.8,4.6,1.8,7.3L548.1,627.6z M534.6,615.5c-2.7,0-5,0.9-6.8,2.6
	c-1.8,1.7-2.8,3.9-3.1,6.7h19.8c-0.2-2.8-1.3-5-3.1-6.7C539.6,616.4,537.3,615.5,534.6,615.5z"/>
<path class="st0" d="M556.5,612.5h3.8v22.2l18.6-22.2h3.3v27.9h-3.8v-22.2l-18.6,22.2h-3.4V612.5z M569.2,608.4
	c-2.4,0-4.3-0.6-5.7-1.8c-1.4-1.2-2.1-2.9-2.2-5.1h2.7c0,1.4,0.5,2.5,1.5,3.3c1,0.8,2.2,1.2,3.7,1.2c1.5,0,2.8-0.4,3.7-1.2
	c1-0.8,1.5-2,1.5-3.3h2.7c0,2.2-0.8,3.9-2.2,5.1C573.5,607.8,571.6,608.4,569.2,608.4z"/>
<path class="st0" d="M593,612.5h3.8v27.9H593V612.5z M594.9,606.4c-0.8,0-1.4-0.3-2-0.8c-0.5-0.5-0.8-1.2-0.8-1.9
	c0-0.7,0.3-1.3,0.8-1.9c0.5-0.5,1.2-0.8,2-0.8s1.4,0.3,2,0.8c0.5,0.5,0.8,1.1,0.8,1.8c0,0.8-0.3,1.4-0.8,2
	C596.3,606.1,595.7,606.4,594.9,606.4z"/>
<path class="st0" d="M638.7,612.5v27.9h-3.4v-22.1L623.9,637h-1.7l-11.3-18.7v22.1h-3.4v-27.9h3.8l11.8,20.1l12-20.1H638.7z"/>
<path class="st0" d="M676.6,637.1v10h-3.6v-6.7h-25v6.7h-3.6v-10h1.6c1.9-0.1,3.1-1.5,3.8-4.1s1.1-6.4,1.4-11.1l0.4-9.3h20.6v24.6
	H676.6z M654.8,622c-0.2,4-0.5,7.2-1,9.8c-0.5,2.5-1.4,4.3-2.7,5.3h17.4v-21.3h-13.4L654.8,622z"/>
<path class="st0" d="M683.9,612.5h3.8v27.9h-3.8V612.5z M685.9,606.4c-0.8,0-1.4-0.3-2-0.8c-0.5-0.5-0.8-1.2-0.8-1.9
	c0-0.7,0.3-1.3,0.8-1.9c0.5-0.5,1.2-0.8,2-0.8c0.8,0,1.4,0.3,2,0.8c0.5,0.5,0.8,1.1,0.8,1.8c0,0.8-0.3,1.4-0.8,2
	C687.3,606.1,686.6,606.4,685.9,606.4z"/>
<path class="st0" d="M721.3,612.5v27.9h-3.8v-24.6h-13.4l-0.4,6.9c-0.3,5.8-1,10.3-2,13.4c-1.1,3.1-3,4.7-5.7,4.7
	c-0.7,0-1.6-0.1-2.7-0.4l0.3-3.2c0.6,0.1,1.1,0.2,1.3,0.2c1.4,0,2.5-0.7,3.3-2c0.7-1.3,1.2-3,1.5-5c0.2-2,0.5-4.6,0.6-7.9l0.5-10
	H721.3z"/>
<path class="st0" d="M732,612.5h3.8v27.9H732V612.5z M733.9,606.4c-0.8,0-1.4-0.3-2-0.8c-0.5-0.5-0.8-1.2-0.8-1.9
	c0-0.7,0.3-1.3,0.8-1.9c0.5-0.5,1.2-0.8,2-0.8c0.8,0,1.4,0.3,2,0.8c0.5,0.5,0.8,1.1,0.8,1.8c0,0.8-0.3,1.4-0.8,2
	C735.3,606.1,734.6,606.4,733.9,606.4z"/>
<path class="st0" d="M756.6,628h-6.4v12.4h-3.8v-27.9h3.8v12.3h6.4l9.8-12.3h4.1l-11,13.5l11.8,14.4h-4.5L756.6,628z"/>
<path class="st0" d="M777.5,640.6c-0.8,0-1.5-0.3-2-0.8c-0.5-0.6-0.8-1.3-0.8-2.1s0.3-1.5,0.8-2c0.6-0.6,1.2-0.8,2-0.8
	c0.8,0,1.4,0.3,2,0.8c0.6,0.5,0.8,1.2,0.8,2s-0.3,1.5-0.8,2.1C779,640.4,778.3,640.6,777.5,640.6z"/>
<path class="st0" d="M18.4,20h-8.2v16.4H6.6V0.6h3.7v16.1h8.2L30.6,0.6h4.1L21.3,18l14.1,18.4h-4.3L18.4,20z M38.1,33.1v11.3h-3.5
	v-8h-3.5v-3.3H38.1z"/>
<path class="st0" d="M53.5,36.7c-2.6,0-4.9-0.6-7-1.7c-2.1-1.2-3.7-2.8-4.9-4.9c-1.2-2.1-1.8-4.4-1.8-7.1s0.6-5,1.8-7.1
	c1.2-2.1,2.8-3.7,4.9-4.9c2.1-1.2,4.4-1.7,7-1.7c2.6,0,4.9,0.6,7,1.7c2.1,1.2,3.7,2.8,4.9,4.9c1.2,2.1,1.8,4.4,1.8,7.1
	s-0.6,5-1.8,7.1c-1.2,2.1-2.8,3.7-4.9,4.9C58.4,36.1,56.1,36.7,53.5,36.7z M53.5,33.4c1.9,0,3.6-0.4,5.1-1.3
	c1.5-0.9,2.7-2.1,3.6-3.7c0.9-1.6,1.3-3.4,1.3-5.5s-0.4-3.9-1.3-5.5c-0.9-1.6-2-2.8-3.6-3.7c-1.5-0.9-3.2-1.3-5.1-1.3
	c-1.9,0-3.6,0.4-5.2,1.3c-1.5,0.9-2.7,2.1-3.6,3.7c-0.9,1.6-1.3,3.4-1.3,5.5s0.4,3.9,1.3,5.5c0.9,1.6,2.1,2.8,3.6,3.7
	C49.9,33,51.6,33.4,53.5,33.4z"/>
<path class="st0" d="M96.8,9.5v26.9h-3.6V12.7H80.2l-0.4,6.6c-0.3,5.6-0.9,9.9-1.9,12.9c-1,3-2.8,4.5-5.5,4.5
	c-0.7,0-1.6-0.1-2.6-0.4l0.3-3.1c0.6,0.1,1,0.2,1.3,0.2c1.4,0,2.5-0.6,3.2-1.9c0.7-1.3,1.2-2.9,1.4-4.8c0.2-1.9,0.4-4.4,0.6-7.6
	l0.5-9.6H96.8z"/>
<path class="st0" d="M133.3,33.2v9.7h-3.4v-6.5h-24.1v6.5h-3.4v-9.7h1.5c1.8-0.1,3-1.4,3.7-4c0.6-2.6,1.1-6.1,1.3-10.7l0.4-9h19.8
	v23.7H133.3z M112.3,18.7c-0.2,3.8-0.5,7-1,9.5c-0.5,2.5-1.3,4.1-2.6,5.1h16.8V12.7h-12.9L112.3,18.7z"/>
<path class="st0" d="M149.7,9.3c3.5,0,6.2,0.9,8.1,2.7c1.9,1.7,2.8,4.3,2.8,7.8v16.7h-3.5v-4.2c-0.8,1.4-2,2.5-3.6,3.3
	c-1.6,0.8-3.4,1.2-5.6,1.2c-3,0-5.4-0.7-7.2-2.1c-1.8-1.4-2.7-3.3-2.7-5.7c0-2.3,0.8-4.1,2.5-5.5c1.7-1.4,4.3-2.1,7.9-2.1h8.5v-1.6
	c0-2.3-0.6-4.1-1.9-5.3c-1.3-1.2-3.2-1.8-5.7-1.8c-1.7,0-3.3,0.3-4.9,0.9c-1.6,0.5-2.9,1.3-4,2.3l-1.6-2.7c1.4-1.2,3-2,4.9-2.7
	C145.5,9.6,147.5,9.3,149.7,9.3z M148.4,33.8c2,0,3.8-0.5,5.3-1.4c1.5-1,2.6-2.3,3.3-4.1v-4.4h-8.4c-4.6,0-6.9,1.6-6.9,4.8
	c0,1.6,0.6,2.8,1.8,3.7C144.6,33.4,146.2,33.8,148.4,33.8z"/>
<path class="st0" d="M170.2,9.5h3.6v11.9h16.9V9.5h3.6v26.9h-3.6V24.5h-16.9v11.9h-3.6V9.5z"/>
<path class="st0" d="M214,9.3c3.5,0,6.2,0.9,8.1,2.7c1.9,1.7,2.8,4.3,2.8,7.8v16.7h-3.5v-4.2c-0.8,1.4-2,2.5-3.6,3.3
	c-1.6,0.8-3.4,1.2-5.6,1.2c-3,0-5.4-0.7-7.2-2.1c-1.8-1.4-2.7-3.3-2.7-5.7c0-2.3,0.8-4.1,2.5-5.5c1.7-1.4,4.3-2.1,7.9-2.1h8.5v-1.6
	c0-2.3-0.6-4.1-1.9-5.3c-1.3-1.2-3.2-1.8-5.7-1.8c-1.7,0-3.3,0.3-4.9,0.9c-1.6,0.5-2.9,1.3-4,2.3l-1.6-2.7c1.4-1.2,3-2,4.9-2.7
	C209.9,9.6,211.9,9.3,214,9.3z M212.7,33.8c2,0,3.8-0.5,5.3-1.4c1.5-1,2.6-2.3,3.3-4.1v-4.4h-8.4c-4.6,0-6.9,1.6-6.9,4.8
	c0,1.6,0.6,2.8,1.8,3.7C208.9,33.4,210.6,33.8,212.7,33.8z"/>
<path class="st0" d="M248.4,9.3c2.5,0,4.8,0.6,6.9,1.7c2,1.1,3.6,2.7,4.8,4.8c1.2,2.1,1.7,4.4,1.7,7.1c0,2.7-0.6,5.1-1.7,7.2
	c-1.2,2.1-2.8,3.7-4.8,4.9c-2,1.1-4.3,1.7-6.9,1.7c-2.2,0-4.2-0.4-5.9-1.3c-1.7-0.9-3.2-2.3-4.3-4v15h-3.6V9.5h3.5v5.3
	c1.1-1.8,2.5-3.1,4.3-4.1C244.1,9.8,246.2,9.3,248.4,9.3z M248.2,33.4c1.9,0,3.6-0.4,5.1-1.3c1.5-0.9,2.7-2.1,3.6-3.7
	c0.9-1.6,1.3-3.4,1.3-5.5s-0.4-3.9-1.3-5.4c-0.9-1.6-2-2.8-3.6-3.7c-1.5-0.9-3.2-1.3-5.1-1.3c-1.9,0-3.6,0.4-5.2,1.3
	c-1.5,0.9-2.7,2.1-3.6,3.7c-0.9,1.6-1.3,3.4-1.3,5.4s0.4,3.9,1.3,5.5c0.9,1.6,2.1,2.8,3.6,3.7C244.5,33,246.2,33.4,248.2,33.4z"/>
<path class="st0" d="M292.3,9.3c3.5,0,6.2,0.9,8.1,2.7c1.9,1.7,2.8,4.3,2.8,7.8v16.7h-3.5v-4.2c-0.8,1.4-2,2.5-3.6,3.3
	c-1.6,0.8-3.4,1.2-5.6,1.2c-3,0-5.4-0.7-7.2-2.1c-1.8-1.4-2.7-3.3-2.7-5.7c0-2.3,0.8-4.1,2.5-5.5c1.7-1.4,4.3-2.1,7.9-2.1h8.5v-1.6
	c0-2.3-0.6-4.1-1.9-5.3c-1.3-1.2-3.2-1.8-5.7-1.8c-1.7,0-3.3,0.3-4.9,0.9c-1.6,0.5-2.9,1.3-4,2.3l-1.6-2.7c1.4-1.2,3-2,4.9-2.7
	C288.1,9.6,290.1,9.3,292.3,9.3z M291,33.8c2,0,3.8-0.5,5.3-1.4c1.5-1,2.6-2.3,3.3-4.1v-4.4h-8.4c-4.6,0-6.9,1.6-6.9,4.8
	c0,1.6,0.6,2.8,1.8,3.7C287.2,33.4,288.8,33.8,291,33.8z"/>
<path class="st0" d="M334.8,9.5v26.9h-3.6V12.7h-12.9l-0.4,6.6c-0.3,5.6-0.9,9.9-1.9,12.9s-2.8,4.5-5.5,4.5c-0.7,0-1.6-0.1-2.6-0.4
	l0.3-3.1c0.6,0.1,1,0.2,1.3,0.2c1.4,0,2.5-0.6,3.2-1.9c0.7-1.3,1.2-2.9,1.4-4.8c0.2-1.9,0.4-4.4,0.6-7.6l0.5-9.6H334.8z"/>
<path class="st0" d="M371.4,33.2v9.7h-3.4v-6.5h-24.1v6.5h-3.4v-9.7h1.5c1.8-0.1,3-1.4,3.7-4c0.6-2.6,1.1-6.1,1.3-10.7l0.4-9h19.8
	v23.7H371.4z M350.3,18.7c-0.2,3.8-0.5,7-1,9.5c-0.5,2.5-1.3,4.1-2.6,5.1h16.8V12.7h-12.9L350.3,18.7z"/>
<path class="st0" d="M389.7,19c3.4,0,6,0.8,7.7,2.3c1.8,1.5,2.7,3.6,2.7,6.3c0,2.9-1,5.1-2.9,6.6c-1.9,1.5-4.6,2.3-8.2,2.3
	l-10.6-0.1V9.5h3.6v9.4L389.7,19z M404.6,9.5h3.6v26.9h-3.6V9.5z M388.9,33.7c2.5,0,4.4-0.5,5.6-1.5c1.3-1.1,1.9-2.6,1.9-4.6
	c0-2-0.6-3.4-1.9-4.4c-1.3-1-3.2-1.4-5.7-1.5l-6.8-0.1v12L388.9,33.7z"/>
<path class="st0" d="M418.6,9.5h3.6v11.9h16.9V9.5h3.6v26.9h-3.6V24.5h-16.9v11.9h-3.6V9.5z"/>
<path class="st0" d="M479.4,33.2v9.7h-3.4v-6.5h-24.1v6.5h-3.4v-9.7h1.5c1.8-0.1,3-1.4,3.7-4c0.6-2.6,1.1-6.1,1.3-10.7l0.4-9h19.8
	v23.7H479.4z M458.3,18.7c-0.2,3.8-0.5,7-1,9.5c-0.5,2.5-1.3,4.1-2.6,5.1h16.8V12.7h-12.9L458.3,18.7z"/>
<path class="st0" d="M495.7,9.3c3.5,0,6.2,0.9,8.1,2.7c1.9,1.7,2.8,4.3,2.8,7.8v16.7h-3.5v-4.2c-0.8,1.4-2,2.5-3.6,3.3
	c-1.6,0.8-3.4,1.2-5.6,1.2c-3,0-5.4-0.7-7.2-2.1c-1.8-1.4-2.7-3.3-2.7-5.7c0-2.3,0.8-4.1,2.5-5.5c1.7-1.4,4.3-2.1,7.9-2.1h8.5v-1.6
	c0-2.3-0.6-4.1-1.9-5.3c-1.3-1.2-3.2-1.8-5.7-1.8c-1.7,0-3.3,0.3-4.9,0.9c-1.6,0.5-2.9,1.3-4,2.3l-1.6-2.7c1.4-1.2,3-2,4.9-2.7
	C491.6,9.6,493.6,9.3,495.7,9.3z M494.4,33.8c2,0,3.8-0.5,5.3-1.4c1.5-1,2.6-2.3,3.3-4.1v-4.4h-8.4c-4.6,0-6.9,1.6-6.9,4.8
	c0,1.6,0.6,2.8,1.8,3.7C490.6,33.4,492.3,33.8,494.4,33.8z"/>
<path class="st0" d="M31.9,102.2v9.7h-3.4v-6.5H4.4v6.5H1v-9.7h1.5c1.8-0.1,3-1.4,3.7-4c0.6-2.6,1.1-6.1,1.3-10.7l0.4-9h19.8v23.7
	H31.9z M10.9,87.7c-0.2,3.8-0.5,7-1,9.5c-0.5,2.5-1.3,4.1-2.6,5.1h16.8V81.7H11.2L10.9,87.7z"/>
<path class="st0" d="M48.7,78.2c2.8,0,5.2,0.6,7.3,1.8c2.1,1.2,3.8,2.8,5,4.9c1.2,2.1,1.8,4.4,1.8,7.1c0,2.6-0.6,5-1.7,7.1
	c-1.1,2.1-2.7,3.7-4.7,4.9c-2,1.2-4.2,1.7-6.7,1.7c-2.5,0-4.7-0.6-6.7-1.7c-2-1.2-3.5-2.8-4.7-4.8c-1.1-2.1-1.7-4.4-1.7-7.1l0.1-1.1
	h22.5C59,88,57.9,85.7,56,84c-1.9-1.7-4.4-2.6-7.4-2.6c-1.7,0-3.2,0.3-4.6,0.9c-1.4,0.6-2.6,1.4-3.6,2.6l-2-2.4
	c1.2-1.4,2.7-2.5,4.4-3.3C44.6,78.6,46.6,78.2,48.7,78.2z M49.7,102.4c2.6,0,4.8-0.8,6.5-2.5c1.8-1.7,2.8-3.8,3-6.5H40.1
	c0.2,2.7,1.2,4.8,3,6.5C44.9,101.6,47.1,102.4,49.7,102.4z"/>
<path class="st0" d="M84.4,78.3c2.5,0,4.8,0.6,6.9,1.7c2,1.1,3.6,2.7,4.8,4.8c1.2,2.1,1.7,4.4,1.7,7.1c0,2.7-0.6,5.1-1.7,7.2
	c-1.2,2.1-2.8,3.7-4.8,4.9c-2,1.1-4.3,1.7-6.9,1.7c-2.2,0-4.2-0.4-5.9-1.3c-1.7-0.9-3.2-2.3-4.3-4v15h-3.6V78.5h3.5v5.3
	c1.1-1.8,2.5-3.1,4.3-4.1C80.2,78.7,82.2,78.3,84.4,78.3z M84.2,102.4c1.9,0,3.6-0.4,5.1-1.3c1.5-0.9,2.7-2.1,3.6-3.7
	c0.9-1.6,1.3-3.4,1.3-5.5s-0.4-3.9-1.3-5.4c-0.9-1.6-2-2.8-3.6-3.7c-1.5-0.9-3.2-1.3-5.1-1.3c-1.9,0-3.6,0.4-5.2,1.3
	c-1.5,0.9-2.7,2.1-3.6,3.7c-0.9,1.6-1.3,3.4-1.3,5.4s0.4,3.9,1.3,5.5c0.9,1.6,2.1,2.8,3.6,3.7C80.6,102,82.3,102.4,84.2,102.4z"/>
<path class="st0" d="M105.6,78.5h3.6v26.9h-3.6V78.5z M107.5,72.6c-0.8,0-1.4-0.3-1.9-0.8c-0.5-0.5-0.8-1.1-0.8-1.8
	c0-0.7,0.3-1.3,0.8-1.8c0.5-0.5,1.1-0.8,1.9-0.8s1.4,0.3,1.9,0.8c0.5,0.5,0.8,1.1,0.8,1.7c0,0.8-0.3,1.4-0.8,1.9
	C108.9,72.3,108.2,72.6,107.5,72.6z"/>
<path class="st0" d="M138.6,81.7h-15.4v23.7h-3.6V78.5h19V81.7z"/>
<path class="st0" d="M166.2,93h-22.5c0.2,2.8,1.3,5.1,3.2,6.8c1.9,1.7,4.4,2.6,7.4,2.6c1.7,0,3.2-0.3,4.6-0.9
	c1.4-0.6,2.6-1.5,3.6-2.7l2,2.4c-1.2,1.4-2.7,2.5-4.5,3.3c-1.8,0.8-3.7,1.1-5.9,1.1c-2.8,0-5.2-0.6-7.4-1.7c-2.1-1.2-3.8-2.8-5-4.9
	c-1.2-2.1-1.8-4.4-1.8-7.1c0-2.6,0.6-5,1.7-7.1c1.2-2.1,2.7-3.7,4.7-4.9c2-1.2,4.3-1.7,6.8-1.7c2.5,0,4.7,0.6,6.7,1.7
	c2,1.2,3.5,2.8,4.7,4.9c1.1,2,1.7,4.4,1.7,7.1L166.2,93z M153.2,81.4c-2.6,0-4.8,0.8-6.5,2.5c-1.7,1.6-2.7,3.8-3,6.4h19.1
	c-0.2-2.7-1.2-4.8-3-6.4C158,82.2,155.8,81.4,153.2,81.4z"/>
<path class="st0" d="M188.1,78.3c2.5,0,4.8,0.6,6.9,1.7c2,1.1,3.6,2.7,4.8,4.8c1.2,2.1,1.7,4.4,1.7,7.1c0,2.7-0.6,5.1-1.7,7.2
	c-1.2,2.1-2.8,3.7-4.8,4.9c-2,1.1-4.3,1.7-6.9,1.7c-2.2,0-4.2-0.4-5.9-1.3c-1.7-0.9-3.2-2.3-4.3-4v15h-3.6V78.5h3.5v5.3
	c1.1-1.8,2.5-3.1,4.3-4.1C183.8,78.7,185.9,78.3,188.1,78.3z M187.9,102.4c1.9,0,3.6-0.4,5.1-1.3c1.5-0.9,2.7-2.1,3.6-3.7
	c0.9-1.6,1.3-3.4,1.3-5.5s-0.4-3.9-1.3-5.4c-0.9-1.6-2-2.8-3.6-3.7c-1.5-0.9-3.2-1.3-5.1-1.3c-1.9,0-3.6,0.4-5.2,1.3
	c-1.5,0.9-2.7,2.1-3.6,3.7c-0.9,1.6-1.3,3.4-1.3,5.4s0.4,3.9,1.3,5.5c0.9,1.6,2.1,2.8,3.6,3.7C184.2,102,186,102.4,187.9,102.4z"/>
<path class="st0" d="M239.4,78.5v26.9h-3.3V84.1l-10.9,18h-1.6L212.7,84v21.3h-3.3V78.5h3.7l11.4,19.4L236,78.5H239.4z"/>
<path class="st0" d="M273.3,93h-22.5c0.2,2.8,1.3,5.1,3.2,6.8c1.9,1.7,4.4,2.6,7.4,2.6c1.7,0,3.2-0.3,4.6-0.9
	c1.4-0.6,2.6-1.5,3.6-2.7l2,2.4c-1.2,1.4-2.7,2.5-4.5,3.3c-1.8,0.8-3.7,1.1-5.9,1.1c-2.8,0-5.2-0.6-7.4-1.7c-2.1-1.2-3.8-2.8-5-4.9
	c-1.2-2.1-1.8-4.4-1.8-7.1c0-2.6,0.6-5,1.7-7.1c1.2-2.1,2.7-3.7,4.7-4.9c2-1.2,4.3-1.7,6.8-1.7c2.5,0,4.7,0.6,6.7,1.7
	c2,1.2,3.5,2.8,4.7,4.9c1.1,2,1.7,4.4,1.7,7.1L273.3,93z M260.3,81.4c-2.6,0-4.8,0.8-6.5,2.5c-1.7,1.6-2.7,3.8-3,6.4h19.1
	c-0.2-2.7-1.2-4.8-3-6.4C265.1,82.2,262.9,81.4,260.3,81.4z"/>
<path class="st0" d="M281.4,78.5h3.6v11.9h16.9V78.5h3.6v26.9h-3.6V93.5H285v11.9h-3.6V78.5z"/>
<path class="st0" d="M339,93.4h-6.1v12h-3.6V78.5h3.6v11.8h6.2l9.5-11.8h3.9l-10.6,13l11.4,13.9h-4.3L339,93.4z"/>
<path class="st0" d="M381.5,93H359c0.2,2.8,1.3,5.1,3.2,6.8c1.9,1.7,4.4,2.6,7.4,2.6c1.7,0,3.2-0.3,4.6-0.9c1.4-0.6,2.6-1.5,3.6-2.7
	l2,2.4c-1.2,1.4-2.7,2.5-4.5,3.3c-1.8,0.8-3.7,1.1-5.9,1.1c-2.8,0-5.2-0.6-7.4-1.7c-2.1-1.2-3.8-2.8-5-4.9c-1.2-2.1-1.8-4.4-1.8-7.1
	c0-2.6,0.6-5,1.7-7.1c1.2-2.1,2.7-3.7,4.7-4.9c2-1.2,4.3-1.7,6.8-1.7c2.5,0,4.7,0.6,6.7,1.7c2,1.2,3.5,2.8,4.7,4.9
	c1.1,2,1.7,4.4,1.7,7.1L381.5,93z M368.6,81.4c-2.6,0-4.8,0.8-6.5,2.5c-1.7,1.6-2.7,3.8-3,6.4h19.1c-0.2-2.7-1.2-4.8-3-6.4
	C373.4,82.2,371.2,81.4,368.6,81.4z"/>
<path class="st0" d="M389.6,78.5h3.6v11.9h16.9V78.5h3.6v26.9h-3.6V93.5h-16.9v11.9h-3.6V78.5z M418.2,102.2v9.1h-3.4v-5.9h-4.6
	v-3.2H418.2z"/>
<path class="st0" d="M448.7,93h-22.5c0.2,2.8,1.3,5.1,3.2,6.8c1.9,1.7,4.4,2.6,7.4,2.6c1.7,0,3.2-0.3,4.6-0.9
	c1.4-0.6,2.6-1.5,3.6-2.7l2,2.4c-1.2,1.4-2.7,2.5-4.5,3.3c-1.8,0.8-3.7,1.1-5.9,1.1c-2.8,0-5.2-0.6-7.4-1.7c-2.1-1.2-3.8-2.8-5-4.9
	c-1.2-2.1-1.8-4.4-1.8-7.1c0-2.6,0.6-5,1.7-7.1c1.2-2.1,2.7-3.7,4.7-4.9c2-1.2,4.3-1.7,6.8-1.7c2.5,0,4.7,0.6,6.7,1.7
	c2,1.2,3.5,2.8,4.7,4.9c1.1,2,1.7,4.4,1.7,7.1L448.7,93z M435.7,81.4c-2.6,0-4.8,0.8-6.5,2.5c-1.7,1.6-2.7,3.8-3,6.4h19.1
	c-0.2-2.7-1.2-4.8-3-6.4C440.5,82.2,438.3,81.4,435.7,81.4z"/>
<path class="st0" d="M468,105.6c-2.7,0-5-0.6-7.2-1.7c-2.1-1.2-3.7-2.8-4.9-4.9c-1.2-2.1-1.8-4.5-1.8-7.1c0-2.6,0.6-5,1.8-7.1
	c1.2-2.1,2.8-3.7,4.9-4.9c2.1-1.2,4.5-1.7,7.2-1.7c2.3,0,4.4,0.5,6.2,1.4c1.8,0.9,3.3,2.2,4.3,3.9l-2.7,1.8c-0.9-1.3-2-2.3-3.4-3
	c-1.4-0.7-2.8-1-4.5-1c-1.9,0-3.7,0.4-5.3,1.3c-1.5,0.9-2.7,2.1-3.6,3.7c-0.9,1.6-1.3,3.4-1.3,5.5c0,2.1,0.4,3.9,1.3,5.5
	c0.9,1.6,2.1,2.8,3.6,3.7c1.6,0.9,3.3,1.3,5.3,1.3c1.6,0,3.1-0.3,4.5-1c1.4-0.6,2.5-1.6,3.4-3l2.7,1.8c-1.1,1.7-2.5,3.1-4.3,4
	C472.4,105.2,470.3,105.6,468,105.6z"/>
<path class="st0" d="M495.3,93.4h-6.1v12h-3.6V78.5h3.6v11.8h6.2l9.5-11.8h3.9l-10.6,13l11.4,13.9h-4.3L495.3,93.4z"/>
<path class="st0" d="M537.9,93h-22.5c0.2,2.8,1.3,5.1,3.2,6.8c1.9,1.7,4.4,2.6,7.4,2.6c1.7,0,3.2-0.3,4.6-0.9
	c1.4-0.6,2.6-1.5,3.6-2.7l2,2.4c-1.2,1.4-2.7,2.5-4.5,3.3c-1.8,0.8-3.7,1.1-5.9,1.1c-2.8,0-5.2-0.6-7.4-1.7c-2.1-1.2-3.8-2.8-5-4.9
	c-1.2-2.1-1.8-4.4-1.8-7.1c0-2.6,0.6-5,1.7-7.1c1.2-2.1,2.7-3.7,4.7-4.9c2-1.2,4.3-1.7,6.8-1.7c2.5,0,4.7,0.6,6.7,1.7
	c2,1.2,3.5,2.8,4.7,4.9c1.1,2,1.7,4.4,1.7,7.1L537.9,93z M524.9,81.4c-2.6,0-4.8,0.8-6.5,2.5c-1.7,1.6-2.7,3.8-3,6.4h19.1
	c-0.2-2.7-1.2-4.8-3-6.4C529.7,82.2,527.5,81.4,524.9,81.4z"/>
<path class="st0" d="M546,78.5h3.6v11.9h16.9V78.5h3.6v26.9h-3.6V93.5h-16.9v11.9H546V78.5z"/>
<path class="st0" d="M617.4,93.4h-5.8v12H608v-12h-5.8l-8.2,12h-4.3l9.7-13.9l-8.9-13h3.9l7.9,11.8h5.8V78.5h3.6v11.8h5.8l7.9-11.8
	h3.9l-8.9,13.1l9.7,13.8h-4.3L617.4,93.4z"/>
<path class="st0" d="M646.5,78.3c2.7,0,5,0.6,7.2,1.7c2.1,1.2,3.8,2.8,5,4.9c1.2,2.1,1.8,4.4,1.8,7.1c0,2.6-0.6,5-1.8,7.1
	c-1.2,2.1-2.8,3.7-5,4.9c-2.1,1.2-4.5,1.7-7.2,1.7c-2.7,0-5.1-0.6-7.2-1.7c-2.1-1.2-3.8-2.8-5-4.9c-1.2-2.1-1.8-4.4-1.8-7.1
	c0-2.6,0.6-5,1.8-7.1c1.2-2.1,2.8-3.7,5-4.9C641.5,78.8,643.9,78.3,646.5,78.3z M646.5,81.2c-2.8,0-5.2,0.9-7.2,2.6
	c-1.9,1.7-3,4-3.3,6.8H657c-0.3-2.8-1.4-5.1-3.3-6.8C651.7,82,649.4,81.2,646.5,81.2z M646.5,102.7c2.8,0,5.2-0.9,7.1-2.6
	c1.9-1.7,3.1-4,3.3-6.9h-20.9c0.3,2.8,1.4,5.1,3.3,6.9C641.3,101.8,643.7,102.7,646.5,102.7z"/>
<path class="st0" d="M668.2,78.5h3.6v11.9h16.9V78.5h3.6v26.9h-3.6V93.5h-16.9v11.9h-3.6V78.5z"/>
</svg>
