<?xml version="1.0" encoding="utf-8"?>
<!-- Generator: Adobe Illustrator 25.2.3, SVG Export Plug-In . SVG Version: 6.00 Build 0)  -->
<svg version="1.1" id="Layer_1" xmlns="http://www.w3.org/2000/svg" xmlns:xlink="http://www.w3.org/1999/xlink" x="0px" y="0px"
	 viewBox="0 0 1082.7 251.2" style="enable-background:new 0 0 1082.7 251.2;" xml:space="preserve">
<style type="text/css">
	.st0{fill:#060315;}
</style>
<g>
	<path class="st0" d="M23.7,2.6v24.9h-4.6V16.8H6.2v10.7H1.6V2.6h4.6v10.3h12.9V2.6H23.7z"/>
	<path class="st0" d="M48,18.1c0,0.3,0,0.7-0.1,1.3H33c0.3,1.4,0.9,2.5,2,3.3c1.1,0.8,2.5,1.2,4.1,1.2c2.1,0,3.8-0.7,5.2-2.1
		l2.4,2.7c-0.9,1-1.9,1.8-3.2,2.3c-1.3,0.5-2.8,0.8-4.4,0.8c-2.1,0-3.9-0.4-5.5-1.2c-1.6-0.8-2.8-2-3.7-3.5
		c-0.9-1.5-1.3-3.2-1.3-5.1c0-1.9,0.4-3.5,1.2-5c0.9-1.5,2-2.7,3.5-3.5c1.5-0.8,3.2-1.2,5.1-1.2c1.9,0,3.5,0.4,4.9,1.2
		c1.5,0.8,2.6,2,3.4,3.5C47.6,14.4,48,16.1,48,18.1z M38.4,11.8c-1.4,0-2.6,0.4-3.6,1.3c-1,0.8-1.6,1.9-1.8,3.3h10.8
		c-0.2-1.4-0.8-2.5-1.7-3.3C41,12.2,39.8,11.8,38.4,11.8z"/>
	<path class="st0" d="M67.4,12.2H57.3v15.2h-4.4v-19h14.6V12.2z"/>
	<path class="st0" d="M70.7,8.5h4.4v19h-4.4V8.5z M72.9,5.3c-0.8,0-1.5-0.2-2-0.7c-0.5-0.5-0.8-1.2-0.8-1.9c0-0.8,0.3-1.4,0.8-1.9
		c0.5-0.5,1.2-0.8,2-0.8c0.8,0,1.5,0.2,2,0.7c0.5,0.5,0.8,1.1,0.8,1.8c0,0.8-0.3,1.4-0.8,2C74.4,5.1,73.7,5.3,72.9,5.3z"/>
	<path class="st0" d="M92.2,17.6c1.2,0.3,2.1,0.9,2.7,1.6c0.7,0.7,1,1.6,1,2.7c0,1.2-0.4,2.2-1.2,3.1c-0.8,0.9-1.9,1.6-3.2,2.1
		c-1.4,0.5-2.9,0.7-4.7,0.7c-1.5,0-2.9-0.2-4.3-0.5c-1.4-0.4-2.7-0.9-3.8-1.5l1.3-3.3c0.9,0.5,2,0.9,3.1,1.2
		c1.2,0.3,2.3,0.4,3.5,0.4c1.5,0,2.7-0.2,3.5-0.7c0.9-0.5,1.3-1.1,1.3-1.9c0-0.7-0.3-1.3-1-1.7c-0.6-0.4-1.6-0.6-2.7-0.6H84v-3h3.3
		c1.1,0,2-0.2,2.6-0.6c0.6-0.4,1-0.9,1-1.6s-0.4-1.2-1.1-1.6c-0.8-0.4-1.8-0.6-3.1-0.6c-1.9,0-3.9,0.5-6,1.4l-1.1-3.3
		c2.5-1.2,5-1.7,7.5-1.7c1.6,0,3.1,0.2,4.3,0.7c1.3,0.4,2.3,1,3,1.9c0.7,0.8,1.1,1.7,1.1,2.7c0,0.9-0.3,1.8-0.9,2.5
		C94,16.6,93.2,17.2,92.2,17.6z"/>
	<path class="st0" d="M115.2,12.2H105v15.2h-4.4v-19h14.6V12.2z"/>
	<path class="st0" d="M118.4,8.5h4.4v19h-4.4V8.5z M120.6,5.3c-0.8,0-1.5-0.2-2-0.7c-0.5-0.5-0.8-1.2-0.8-1.9c0-0.8,0.3-1.4,0.8-1.9
		c0.5-0.5,1.2-0.8,2-0.8c0.8,0,1.5,0.2,2,0.7c0.5,0.5,0.8,1.1,0.8,1.8c0,0.8-0.3,1.4-0.8,2C122.1,5.1,121.5,5.3,120.6,5.3z"/>
	<path class="st0" d="M146.6,19.9h-3.5v7.6h-4.4v-19h4.4v7.7h3.6l5.6-7.7h4.8l-6.9,9.1l7.4,9.9h-5.2L146.6,19.9z M158.7,23.8v7.6h-4
		v-3.9h-2.4v-3.7H158.7z"/>
	<path class="st0" d="M168.5,27.7c-1.9,0-3.7-0.4-5.2-1.2c-1.5-0.8-2.8-2-3.6-3.5c-0.9-1.5-1.3-3.2-1.3-5.1c0-1.9,0.4-3.5,1.3-5
		c0.9-1.5,2.1-2.6,3.6-3.5c1.5-0.8,3.3-1.2,5.2-1.2c1.9,0,3.7,0.4,5.2,1.2c1.5,0.8,2.7,2,3.6,3.5c0.9,1.5,1.3,3.1,1.3,5
		c0,1.9-0.4,3.6-1.3,5.1c-0.9,1.5-2.1,2.6-3.6,3.5C172.2,27.3,170.5,27.7,168.5,27.7z M168.5,23.9c1.6,0,3-0.5,4.1-1.6
		c1.1-1.1,1.6-2.5,1.6-4.3c0-1.8-0.5-3.2-1.6-4.3c-1.1-1.1-2.4-1.6-4.1-1.6c-1.6,0-3,0.5-4.1,1.6c-1,1.1-1.6,2.5-1.6,4.3
		c0,1.8,0.5,3.2,1.6,4.3C165.5,23.4,166.9,23.9,168.5,23.9z"/>
	<path class="st0" d="M200.1,8.5v19h-4.4V12.2h-7.1l-0.2,3.8c-0.1,2.5-0.4,4.6-0.7,6.3c-0.3,1.7-0.9,3-1.7,4c-0.8,1-1.9,1.5-3.3,1.5
		c-0.7,0-1.5-0.1-2.5-0.4l0.2-3.7c0.3,0.1,0.6,0.1,0.9,0.1c0.9,0,1.6-0.4,2-1.1c0.5-0.7,0.7-1.6,0.9-2.6c0.1-1,0.3-2.5,0.4-4.3
		l0.3-7.3H200.1z"/>
	<path class="st0" d="M226.3,23.7v8h-4.2v-4.2h-14.7v4.2h-4.1v-8h0.9c1.2,0,2-0.8,2.5-2.3c0.5-1.5,0.7-3.7,0.9-6.4l0.2-6.5h15.7
		v15.2H226.3z M211.7,15.3c-0.1,2.2-0.3,4-0.5,5.3c-0.3,1.4-0.7,2.4-1.4,3.1h9.4V12.2h-7.3L211.7,15.3z"/>
	<path class="st0" d="M237.4,8.3c2.8,0,4.9,0.7,6.4,2c1.5,1.3,2.2,3.3,2.2,6v11.1h-4.2v-2.3c-0.5,0.8-1.3,1.5-2.3,1.9
		c-1,0.4-2.2,0.6-3.6,0.6s-2.7-0.2-3.7-0.7c-1.1-0.5-1.9-1.2-2.5-2c-0.6-0.9-0.9-1.9-0.9-3c0-1.7,0.6-3.1,1.9-4.1
		c1.3-1,3.3-1.6,6-1.6h4.9v-0.3c0-1.3-0.4-2.3-1.2-3.1c-0.8-0.7-2-1.1-3.5-1.1c-1.1,0-2.1,0.2-3.2,0.5c-1,0.3-1.9,0.8-2.6,1.4
		l-1.7-3.2c1-0.8,2.2-1.3,3.6-1.7C234.3,8.5,235.8,8.3,237.4,8.3z M236.8,24.5c1.1,0,2.1-0.2,3-0.7c0.9-0.5,1.5-1.3,1.9-2.2v-2.2
		H237c-2.6,0-3.8,0.8-3.8,2.5c0,0.8,0.3,1.4,1,1.9C234.8,24.2,235.7,24.5,236.8,24.5z"/>
	<path class="st0" d="M251.5,8.5h4.4v7.7h9.6V8.5h4.4v19h-4.4V20H256v7.5h-4.4V8.5z"/>
	<path class="st0" d="M293.9,8.5L285,29c-0.8,2.1-1.8,3.5-3,4.3c-1.2,0.9-2.6,1.3-4.3,1.3c-0.9,0-1.9-0.2-2.8-0.5
		c-0.9-0.3-1.7-0.7-2.3-1.3l1.8-3.3c0.4,0.4,0.9,0.7,1.5,1c0.6,0.2,1.2,0.4,1.8,0.4c0.8,0,1.4-0.2,1.9-0.6c0.5-0.4,1-1.1,1.4-2
		l0.3-0.7L273,8.5h4.6l6,14.1l6-14.1H293.9z"/>
	<path class="st0" d="M302.1,12.2v5.7h7.7v2.9h-7.7v6.6h-4.4v-6.6h-2.3v-2.9h2.3V8.5h14.6v3.8H302.1z"/>
	<path class="st0" d="M323,8.3c2.8,0,4.9,0.7,6.4,2c1.5,1.3,2.2,3.3,2.2,6v11.1h-4.2v-2.3c-0.5,0.8-1.3,1.5-2.3,1.9
		c-1,0.4-2.2,0.6-3.6,0.6s-2.7-0.2-3.7-0.7c-1.1-0.5-1.9-1.2-2.5-2c-0.6-0.9-0.9-1.9-0.9-3c0-1.7,0.6-3.1,1.9-4.1
		c1.3-1,3.3-1.6,6-1.6h4.9v-0.3c0-1.3-0.4-2.3-1.2-3.1c-0.8-0.7-2-1.1-3.5-1.1c-1.1,0-2.1,0.2-3.2,0.5c-1,0.3-1.9,0.8-2.6,1.4
		l-1.7-3.2c1-0.8,2.2-1.3,3.6-1.7C320,8.5,321.4,8.3,323,8.3z M322.4,24.5c1.1,0,2.1-0.2,3-0.7c0.9-0.5,1.5-1.3,1.8-2.2v-2.2h-4.6
		c-2.6,0-3.8,0.8-3.8,2.5c0,0.8,0.3,1.4,1,1.9C320.4,24.2,321.3,24.5,322.4,24.5z"/>
	<path class="st0" d="M11.3,50.6c1.8,0,3.4,0.4,4.8,1.2c1.4,0.8,2.4,1.8,3.2,3.2c0.8,1.4,1.2,3,1.2,4.7c0,1.8-0.4,3.5-1.3,4.9
		c-0.9,1.4-2.1,2.5-3.6,3.3c-1.5,0.8-3.3,1.2-5.3,1.2c-3.3,0-5.8-1.1-7.6-3.3C0.9,63.6,0,60.4,0,56.3c0-3.8,0.8-6.8,2.5-9.1
		c1.6-2.2,4.1-3.7,7.5-4.4l8.8-1.9l0.6,4l-8,1.6c-2.3,0.5-4,1.3-5.2,2.4c-1.1,1.1-1.8,2.7-2,4.8c0.9-1,1.9-1.8,3.1-2.3
		C8.6,50.9,9.9,50.6,11.3,50.6z M10.5,65.4c1.6,0,3-0.5,3.9-1.6c1-1.1,1.5-2.4,1.5-4.1c0-1.6-0.5-3-1.5-3.9c-1-1-2.3-1.5-3.9-1.5
		c-1.7,0-3,0.5-4,1.5s-1.5,2.3-1.5,3.9c0,1.7,0.5,3,1.5,4.1C7.5,64.9,8.8,65.4,10.5,65.4z"/>
	<path class="st0" d="M33.3,68.9c-1.9,0-3.7-0.4-5.2-1.2c-1.5-0.8-2.8-2-3.6-3.5c-0.9-1.5-1.3-3.2-1.3-5.1c0-1.9,0.4-3.5,1.3-5
		c0.9-1.5,2.1-2.6,3.6-3.5c1.5-0.8,3.3-1.2,5.2-1.2c1.9,0,3.7,0.4,5.2,1.2c1.5,0.8,2.7,2,3.6,3.5c0.9,1.5,1.3,3.1,1.3,5
		c0,1.9-0.4,3.6-1.3,5.1c-0.9,1.5-2.1,2.6-3.6,3.5C37,68.5,35.2,68.9,33.3,68.9z M33.3,65.1c1.6,0,3-0.5,4.1-1.6
		c1.1-1.1,1.6-2.5,1.6-4.3c0-1.8-0.5-3.2-1.6-4.3c-1.1-1.1-2.4-1.6-4.1-1.6c-1.6,0-3,0.5-4.1,1.6c-1,1.1-1.6,2.5-1.6,4.3
		c0,1.8,0.5,3.2,1.6,4.3C30.3,64.5,31.6,65.1,33.3,65.1z"/>
	<path class="st0" d="M64.8,49.7v19h-4.4V53.4h-7.1l-0.2,3.8c-0.1,2.5-0.4,4.6-0.7,6.3c-0.3,1.7-0.9,3-1.7,4c-0.8,1-1.9,1.5-3.3,1.5
		c-0.7,0-1.5-0.1-2.5-0.4l0.2-3.7c0.3,0.1,0.6,0.1,0.9,0.1c0.9,0,1.6-0.4,2-1.1c0.5-0.7,0.7-1.6,0.9-2.6c0.1-1,0.3-2.5,0.4-4.3
		l0.3-7.3H64.8z"/>
	<path class="st0" d="M89.5,68.7V56.1l-6.4,10.6h-1.9L74.9,56v12.6h-4.1v-19h4.7l6.8,11.9l7.1-11.9h4.2l0,19H89.5z"/>
	<path class="st0" d="M106.5,49.4c2.8,0,4.9,0.7,6.4,2c1.5,1.3,2.2,3.3,2.2,6v11.1H111v-2.3c-0.5,0.8-1.3,1.5-2.3,1.9
		c-1,0.4-2.2,0.6-3.6,0.6c-1.4,0-2.7-0.2-3.7-0.7c-1.1-0.5-1.9-1.2-2.5-2c-0.6-0.9-0.9-1.9-0.9-3c0-1.7,0.6-3.1,1.9-4.1
		c1.3-1,3.3-1.6,6-1.6h4.9v-0.3c0-1.3-0.4-2.3-1.2-3.1c-0.8-0.7-2-1.1-3.5-1.1c-1.1,0-2.1,0.2-3.2,0.5c-1,0.3-1.9,0.8-2.6,1.4
		l-1.7-3.2c1-0.8,2.2-1.3,3.6-1.7C103.5,49.6,105,49.4,106.5,49.4z M105.9,65.7c1.1,0,2.1-0.2,3-0.7c0.9-0.5,1.5-1.3,1.9-2.2v-2.2
		h-4.6c-2.6,0-3.8,0.8-3.8,2.5c0,0.8,0.3,1.4,1,1.9C103.9,65.4,104.8,65.7,105.9,65.7z"/>
	<path class="st0" d="M120.7,49.7h4.4v12.5l10.5-12.5h4.1v19h-4.4V56.1l-10.5,12.5h-4.1V49.7z M129.9,47.4c-1.9,0-3.4-0.4-4.4-1.3
		c-1-0.9-1.5-2.2-1.5-3.9h3c0,0.9,0.3,1.5,0.8,2c0.5,0.5,1.2,0.7,2.2,0.7c0.9,0,1.6-0.2,2.1-0.7c0.5-0.5,0.8-1.2,0.9-2h3
		c0,1.7-0.5,3-1.6,3.9C133.3,47,131.8,47.4,129.9,47.4z"/>
	<path class="st0" d="M160.7,53.4h-6.7v15.2h-4.4V53.4h-6.7v-3.8h17.8V53.4z"/>
	<path class="st0" d="M173.2,55.9c2.4,0,4.3,0.5,5.6,1.6c1.3,1.1,1.9,2.6,1.9,4.6c0,2.1-0.7,3.7-2.1,4.8c-1.4,1.1-3.4,1.7-6,1.7
		l-8.6,0v-19h4.4v6.2L173.2,55.9z M183.1,49.7h4.4v19h-4.4V49.7z M172.2,65.4c1.3,0,2.3-0.2,3-0.8c0.7-0.6,1-1.4,1-2.5
		c0-1.1-0.3-1.9-1-2.3c-0.7-0.5-1.7-0.8-3-0.8l-3.8,0v6.4L172.2,65.4z"/>
	<path class="st0" d="M193.6,49.7h4.4v7.7h9.6v-7.7h4.4v19h-4.4v-7.5H198v7.5h-4.4V49.7z"/>
	<path class="st0" d="M245.9,61h-3.2v7.6h-4.4V61H235l-4.6,7.6h-5.3l6.2-9.8l-5.8-9.2h4.7l4.6,7.7h3.3v-7.7h4.4v7.7h3.2l4.7-7.7h4.7
		l-5.8,9.2l6.3,9.8h-5.3L245.9,61z"/>
	<path class="st0" d="M265.8,49.4c2.8,0,4.9,0.7,6.4,2c1.5,1.3,2.2,3.3,2.2,6v11.1h-4.2v-2.3c-0.5,0.8-1.3,1.5-2.3,1.9
		c-1,0.4-2.2,0.6-3.6,0.6s-2.7-0.2-3.7-0.7c-1.1-0.5-1.9-1.2-2.5-2c-0.6-0.9-0.9-1.9-0.9-3c0-1.7,0.6-3.1,1.9-4.1
		c1.3-1,3.3-1.6,6-1.6h4.9v-0.3c0-1.3-0.4-2.3-1.2-3.1c-0.8-0.7-2-1.1-3.5-1.1c-1.1,0-2.1,0.2-3.2,0.5c-1,0.3-1.9,0.8-2.6,1.4
		l-1.7-3.2c1-0.8,2.2-1.3,3.6-1.7C262.8,49.6,264.3,49.4,265.8,49.4z M265.2,65.7c1.1,0,2.1-0.2,3-0.7c0.9-0.5,1.5-1.3,1.8-2.2v-2.2
		h-4.6c-2.6,0-3.8,0.8-3.8,2.5c0,0.8,0.3,1.4,1,1.9C263.2,65.4,264.1,65.7,265.2,65.7z"/>
	<path class="st0" d="M285.1,53.4v5.7h7.7V62h-7.7v6.6h-4.4V62h-2.3v-2.9h2.3v-9.5h14.6v3.8H285.1z"/>
	<path class="st0" d="M317.9,64.9v8h-4.2v-4.2h-14.7v4.2h-4.1v-8h0.9c1.2,0,2-0.8,2.5-2.3c0.5-1.5,0.7-3.7,0.9-6.4l0.2-6.5h15.7
		v15.2H317.9z M303.2,56.5c-0.1,2.2-0.3,4-0.5,5.3c-0.3,1.4-0.7,2.4-1.4,3.1h9.4V53.4h-7.3L303.2,56.5z"/>
	<path class="st0" d="M328.9,49.4c2.8,0,4.9,0.7,6.4,2c1.5,1.3,2.2,3.3,2.2,6v11.1h-4.2v-2.3c-0.5,0.8-1.3,1.5-2.3,1.9
		c-1,0.4-2.2,0.6-3.6,0.6c-1.4,0-2.7-0.2-3.7-0.7c-1.1-0.5-1.9-1.2-2.5-2c-0.6-0.9-0.9-1.9-0.9-3c0-1.7,0.6-3.1,1.9-4.1
		c1.3-1,3.3-1.6,6-1.6h4.9v-0.3c0-1.3-0.4-2.3-1.2-3.1c-0.8-0.7-2-1.1-3.5-1.1c-1.1,0-2.1,0.2-3.2,0.5c-1,0.3-1.9,0.8-2.6,1.4
		l-1.7-3.2c1-0.8,2.2-1.3,3.6-1.7C325.9,49.6,327.4,49.4,328.9,49.4z M328.3,65.7c1.1,0,2.1-0.2,3-0.7c0.9-0.5,1.5-1.3,1.8-2.2v-2.2
		h-4.6c-2.6,0-3.8,0.8-3.8,2.5c0,0.8,0.3,1.4,1,1.9C326.3,65.4,327.2,65.7,328.3,65.7z"/>
	<path class="st0" d="M343.1,49.7h4.4v12.5L358,49.7h4.1v19h-4.4V56.1l-10.5,12.5h-4.1V49.7z M352.3,47.4c-1.9,0-3.4-0.4-4.4-1.3
		c-1-0.9-1.5-2.2-1.5-3.9h3c0,0.9,0.3,1.5,0.8,2c0.5,0.5,1.2,0.7,2.2,0.7c0.9,0,1.6-0.2,2.1-0.7c0.5-0.5,0.8-1.2,0.9-2h3
		c0,1.7-0.5,3-1.6,3.9C355.7,47,354.2,47.4,352.3,47.4z"/>
	<path class="st0" d="M385.3,49.7v19h-4.4V53.4h-7.1l-0.2,3.8c-0.1,2.5-0.4,4.6-0.7,6.3c-0.3,1.7-0.9,3-1.7,4
		c-0.8,1-1.9,1.5-3.3,1.5c-0.7,0-1.5-0.1-2.5-0.4l0.2-3.7c0.3,0.1,0.6,0.1,0.9,0.1c0.9,0,1.6-0.4,2-1.1c0.5-0.7,0.7-1.6,0.9-2.6
		c0.1-1,0.3-2.5,0.4-4.3l0.3-7.3H385.3z"/>
	<path class="st0" d="M398.4,49.4c2.8,0,4.9,0.7,6.4,2c1.5,1.3,2.2,3.3,2.2,6v11.1h-4.2v-2.3c-0.5,0.8-1.3,1.5-2.3,1.9
		c-1,0.4-2.2,0.6-3.6,0.6s-2.7-0.2-3.7-0.7c-1.1-0.5-1.9-1.2-2.5-2c-0.6-0.9-0.9-1.9-0.9-3c0-1.7,0.6-3.1,1.9-4.1
		c1.3-1,3.3-1.6,6-1.6h4.9v-0.3c0-1.3-0.4-2.3-1.2-3.1c-0.8-0.7-2-1.1-3.5-1.1c-1.1,0-2.1,0.2-3.2,0.5c-1,0.3-1.9,0.8-2.6,1.4
		l-1.7-3.2c1-0.8,2.2-1.3,3.6-1.7C395.3,49.6,396.8,49.4,398.4,49.4z M397.8,65.7c1.1,0,2.1-0.2,3-0.7c0.9-0.5,1.5-1.3,1.9-2.2v-2.2
		H398c-2.6,0-3.8,0.8-3.8,2.5c0,0.8,0.3,1.4,1,1.9C395.7,65.4,396.6,65.7,397.8,65.7z"/>
	<path class="st0" d="M423,49.4c1.9,0,3.5,0.4,4.9,1.2c1.5,0.8,2.6,1.9,3.5,3.4c0.8,1.5,1.2,3.2,1.2,5.1c0,1.9-0.4,3.6-1.2,5.1
		c-0.8,1.5-2,2.6-3.5,3.4c-1.4,0.8-3.1,1.2-4.9,1.2c-2.6,0-4.6-0.9-6.1-2.6v9.2h-4.4V49.7h4.2v2.5c0.7-0.9,1.6-1.6,2.7-2
		C420.5,49.7,421.7,49.4,423,49.4z M422.6,65.1c1.6,0,3-0.5,4-1.6c1.1-1.1,1.6-2.5,1.6-4.3c0-1.8-0.5-3.2-1.6-4.3
		c-1-1.1-2.4-1.6-4-1.6c-1.1,0-2,0.2-2.9,0.7c-0.9,0.5-1.5,1.2-2,2.1c-0.5,0.9-0.7,1.9-0.7,3.1c0,1.2,0.2,2.2,0.7,3.1
		c0.5,0.9,1.2,1.6,2,2.1C420.5,64.9,421.5,65.1,422.6,65.1z"/>
	<path class="st0" d="M438.5,55.3c-0.8,0-1.5-0.3-2.1-0.8c-0.6-0.6-0.9-1.3-0.9-2.1c0-0.9,0.3-1.6,0.8-2.1c0.6-0.5,1.3-0.8,2.1-0.8
		c0.8,0,1.5,0.3,2.1,0.8c0.6,0.5,0.9,1.3,0.9,2.1c0,0.9-0.3,1.6-0.9,2.1C440,55.1,439.3,55.3,438.5,55.3z M438.5,68.9
		c-0.8,0-1.5-0.3-2.1-0.8c-0.6-0.6-0.9-1.3-0.9-2.1c0-0.9,0.3-1.6,0.8-2.1c0.6-0.5,1.3-0.8,2.1-0.8c0.8,0,1.5,0.3,2.1,0.8
		c0.6,0.5,0.9,1.3,0.9,2.1c0,0.9-0.3,1.6-0.9,2.1C440,68.6,439.3,68.9,438.5,68.9z"/>
	<path class="st0" d="M9.3,113.7H5.5v7.5H3.2v-16.9h2.3v7.4h3.9l6-7.4h2.5l-6.7,8.2l7.1,8.7h-2.7L9.3,113.7z M19.8,119.2v5.7h-2.1
		v-3.7h-2.2v-2H19.8z"/>
	<path class="st0" d="M27.8,121.3v6.1h-2.3v-6.1l-7.5-17h2.4l6.3,14.4l6.4-14.4h2.3L27.8,121.3z M20,120.2h13.3v1.7H20V120.2z"/>
	<path class="st0" d="M47.6,104.1c1.6,0,3,0.4,4.3,1.1c1.3,0.7,2.3,1.7,3,3c0.7,1.3,1.1,2.8,1.1,4.5c0,1.7-0.4,3.2-1.1,4.5
		c-0.7,1.3-1.7,2.3-3,3.1c-1.3,0.7-2.7,1.1-4.3,1.1c-1.4,0-2.6-0.3-3.7-0.8c-1.1-0.6-2-1.4-2.7-2.5v9.4h-2.3v-23.2h2.2v3.3
		c0.7-1.1,1.6-2,2.7-2.6C44.9,104.4,46.2,104.1,47.6,104.1z M47.5,119.3c1.2,0,2.3-0.3,3.2-0.8c1-0.6,1.7-1.3,2.3-2.3
		c0.6-1,0.8-2.2,0.8-3.4c0-1.3-0.3-2.4-0.8-3.4c-0.5-1-1.3-1.8-2.3-2.3c-1-0.6-2-0.8-3.2-0.8c-1.2,0-2.3,0.3-3.3,0.8
		c-0.9,0.6-1.7,1.3-2.3,2.3c-0.5,1-0.8,2.1-0.8,3.4c0,1.3,0.3,2.4,0.8,3.4c0.6,1,1.3,1.8,2.3,2.3C45.2,119.1,46.3,119.3,47.5,119.3z
		"/>
	<path class="st0" d="M66.7,104.1c2.2,0,3.9,0.6,5.1,1.7c1.2,1.1,1.8,2.7,1.8,4.9v10.5h-2.2v-2.6c-0.5,0.9-1.3,1.6-2.3,2.1
		c-1,0.5-2.2,0.7-3.5,0.7c-1.9,0-3.4-0.5-4.5-1.4c-1.1-0.9-1.7-2.1-1.7-3.6c0-1.4,0.5-2.6,1.5-3.5c1.1-0.9,2.7-1.3,5-1.3h5.4v-1
		c0-1.5-0.4-2.6-1.2-3.3c-0.8-0.8-2-1.2-3.6-1.2c-1.1,0-2.1,0.2-3.1,0.5c-1,0.3-1.8,0.8-2.5,1.4l-1-1.7c0.9-0.7,1.9-1.3,3.1-1.7
		C64.1,104.3,65.4,104.1,66.7,104.1z M65.9,119.6c1.3,0,2.4-0.3,3.3-0.9c0.9-0.6,1.6-1.5,2.1-2.6v-2.8H66c-2.9,0-4.3,1-4.3,3
		c0,1,0.4,1.8,1.1,2.3C63.5,119.3,64.5,119.6,65.9,119.6z"/>
	<path class="st0" d="M98.6,104.3v16.9h-2.1v-13.4l-6.9,11.3h-1l-6.9-11.4v13.4h-2.1v-16.9H82l7.2,12.2l7.3-12.2H98.6z"/>
	<path class="st0" d="M121.6,119.2v6.1h-2.2v-4.1h-15.2v4.1h-2.2v-6.1h1c1.1-0.1,1.9-0.9,2.3-2.5c0.4-1.6,0.7-3.9,0.8-6.8l0.2-5.7
		h12.5v14.9H121.6z M108.3,110.1c-0.1,2.4-0.3,4.4-0.6,6c-0.3,1.5-0.8,2.6-1.6,3.2h10.6v-12.9h-8.1L108.3,110.1z"/>
	<path class="st0" d="M131.9,104.1c2.2,0,3.9,0.6,5.1,1.7c1.2,1.1,1.8,2.7,1.8,4.9v10.5h-2.2v-2.6c-0.5,0.9-1.3,1.6-2.3,2.1
		c-1,0.5-2.2,0.7-3.5,0.7c-1.9,0-3.4-0.5-4.5-1.4c-1.1-0.9-1.7-2.1-1.7-3.6c0-1.4,0.5-2.6,1.5-3.5c1.1-0.9,2.7-1.3,5-1.3h5.4v-1
		c0-1.5-0.4-2.6-1.2-3.3c-0.8-0.8-2-1.2-3.6-1.2c-1.1,0-2.1,0.2-3.1,0.5c-1,0.3-1.8,0.8-2.5,1.4l-1-1.7c0.9-0.7,1.9-1.3,3.1-1.7
		C129.3,104.3,130.5,104.1,131.9,104.1z M131.1,119.6c1.3,0,2.4-0.3,3.3-0.9c0.9-0.6,1.6-1.5,2.1-2.6v-2.8h-5.3c-2.9,0-4.3,1-4.3,3
		c0,1,0.4,1.8,1.1,2.3C128.7,119.3,129.7,119.6,131.1,119.6z"/>
	<path class="st0" d="M151.9,121.4c-1.7,0-3.2-0.4-4.5-1.1c-1.3-0.7-2.3-1.7-3.1-3.1c-0.8-1.3-1.1-2.8-1.1-4.5
		c0-1.7,0.4-3.1,1.1-4.4c0.8-1.3,1.8-2.3,3.1-3.1c1.3-0.7,2.8-1.1,4.5-1.1c1.5,0,2.8,0.3,3.9,0.9c1.2,0.6,2.1,1.4,2.7,2.5l-1.7,1.2
		c-0.6-0.8-1.3-1.5-2.1-1.9c-0.9-0.4-1.8-0.6-2.8-0.6c-1.2,0-2.3,0.3-3.3,0.8c-1,0.5-1.7,1.3-2.3,2.3c-0.5,1-0.8,2.2-0.8,3.4
		c0,1.3,0.3,2.5,0.8,3.5c0.6,1,1.3,1.8,2.3,2.3c1,0.5,2.1,0.8,3.3,0.8c1,0,1.9-0.2,2.8-0.6c0.9-0.4,1.6-1,2.1-1.9l1.7,1.2
		c-0.7,1.1-1.6,1.9-2.7,2.5C154.6,121.1,153.3,121.4,151.9,121.4z"/>
	<path class="st0" d="M179.6,104.7c1.6,0,3,0.4,4.2,1.1c1.2,0.7,2.2,1.7,2.9,2.9c0.7,1.2,1,2.7,1,4.3c0,1.7-0.4,3.1-1.1,4.4
		c-0.7,1.3-1.7,2.3-3,3c-1.3,0.7-2.8,1.1-4.4,1.1c-2.8,0-5-1-6.5-3c-1.5-2-2.3-4.7-2.3-8.2c0-3.6,0.7-6.4,2.1-8.3
		c1.4-1.9,3.6-3.2,6.5-3.9l7.6-1.7l0.4,2.1l-7.1,1.6c-2.4,0.5-4.2,1.5-5.3,2.9c-1.1,1.4-1.8,3.4-1.9,6c0.7-1.3,1.6-2.3,2.9-3.1
		C176.6,105.1,178,104.7,179.6,104.7z M179.2,119.5c1.2,0,2.2-0.3,3.2-0.8c0.9-0.6,1.7-1.3,2.2-2.3c0.5-1,0.8-2.1,0.8-3.3
		c0-1.2-0.3-2.3-0.8-3.3c-0.5-0.9-1.2-1.7-2.2-2.2c-0.9-0.5-2-0.8-3.2-0.8c-1.2,0-2.3,0.3-3.2,0.8c-0.9,0.5-1.7,1.2-2.2,2.2
		c-0.5,0.9-0.8,2-0.8,3.3c0,1.2,0.3,2.4,0.8,3.3c0.5,1,1.3,1.8,2.2,2.3C177,119.2,178,119.5,179.2,119.5z"/>
	<path class="st0" d="M199.7,104.1c1.7,0,3.2,0.4,4.5,1.1c1.3,0.7,2.4,1.7,3.1,3.1c0.8,1.3,1.2,2.8,1.2,4.4c0,1.7-0.4,3.1-1.2,4.4
		c-0.8,1.3-1.8,2.3-3.1,3.1c-1.3,0.7-2.8,1.1-4.5,1.1c-1.7,0-3.2-0.4-4.5-1.1c-1.3-0.8-2.4-1.8-3.1-3.1c-0.8-1.3-1.1-2.8-1.1-4.4
		c0-1.7,0.4-3.1,1.1-4.4c0.8-1.3,1.8-2.3,3.1-3.1C196.5,104.5,198.1,104.1,199.7,104.1z M199.7,106c-1.8,0-3.3,0.5-4.5,1.6
		c-1.2,1.1-1.9,2.5-2.1,4.3h13.1c-0.2-1.8-0.9-3.2-2.1-4.3C203,106.5,201.5,106,199.7,106z M199.7,119.5c1.8,0,3.3-0.5,4.5-1.6
		c1.2-1.1,1.9-2.5,2.1-4.3h-13.1c0.2,1.8,0.9,3.2,2.1,4.3C196.5,118.9,198,119.5,199.7,119.5z"/>
	<path class="st0" d="M227.1,104.3v16.9h-2.3v-14.9h-8.1l-0.2,4.2c-0.2,3.5-0.6,6.2-1.2,8.1c-0.6,1.9-1.8,2.8-3.4,2.8
		c-0.5,0-1-0.1-1.6-0.3l0.2-2c0.4,0.1,0.7,0.1,0.8,0.1c0.9,0,1.5-0.4,2-1.2c0.5-0.8,0.8-1.8,0.9-3c0.2-1.2,0.3-2.8,0.4-4.8l0.3-6.1
		H227.1z"/>
	<path class="st0" d="M233.6,104.3h2.3v16.9h-2.3V104.3z M234.8,100.6c-0.5,0-0.9-0.2-1.2-0.5c-0.3-0.3-0.5-0.7-0.5-1.2
		c0-0.4,0.2-0.8,0.5-1.1c0.3-0.3,0.7-0.5,1.2-0.5c0.5,0,0.9,0.2,1.2,0.5c0.3,0.3,0.5,0.7,0.5,1.1c0,0.5-0.2,0.9-0.5,1.2
		C235.7,100.4,235.3,100.6,234.8,100.6z"/>
	<path class="st0" d="M248.6,113.7h-3.9v7.5h-2.3v-16.9h2.3v7.4h3.9l6-7.4h2.5l-6.7,8.2l7.1,8.7h-2.7L248.6,113.7z"/>
	<path class="st0" d="M272.7,106.3h-6.4v14.9H264v-14.9h-6.4v-2h15.1V106.3z"/>
	<path class="st0" d="M290,113.4h-14.2c0.1,1.8,0.8,3.2,2,4.3c1.2,1.1,2.8,1.6,4.6,1.6c1.1,0,2-0.2,2.9-0.5c0.9-0.4,1.6-0.9,2.3-1.7
		l1.3,1.5c-0.8,0.9-1.7,1.6-2.8,2.1c-1.1,0.5-2.4,0.7-3.7,0.7c-1.7,0-3.3-0.4-4.6-1.1c-1.3-0.8-2.4-1.8-3.1-3.1
		c-0.8-1.3-1.1-2.8-1.1-4.4c0-1.7,0.4-3.1,1.1-4.4c0.7-1.3,1.7-2.3,3-3.1c1.3-0.7,2.7-1.1,4.2-1.1c1.6,0,3,0.4,4.2,1.1
		c1.2,0.7,2.2,1.7,2.9,3.1c0.7,1.3,1.1,2.8,1.1,4.4L290,113.4z M281.9,106.1c-1.6,0-3,0.5-4.1,1.6c-1.1,1-1.7,2.4-1.9,4.1h12
		c-0.2-1.7-0.8-3-1.9-4.1C284.9,106.6,283.5,106.1,281.9,106.1z"/>
	<path class="st0" d="M303.9,104.1c1.6,0,3,0.4,4.3,1.1c1.3,0.7,2.3,1.7,3,3c0.7,1.3,1.1,2.8,1.1,4.5c0,1.7-0.4,3.2-1.1,4.5
		c-0.7,1.3-1.7,2.3-3,3.1c-1.3,0.7-2.7,1.1-4.3,1.1c-1.4,0-2.6-0.3-3.7-0.8c-1.1-0.6-2-1.4-2.7-2.5v9.4h-2.3v-23.2h2.2v3.3
		c0.7-1.1,1.6-2,2.7-2.6C301.2,104.4,302.4,104.1,303.9,104.1z M303.7,119.3c1.2,0,2.3-0.3,3.2-0.8c1-0.6,1.7-1.3,2.3-2.3
		c0.6-1,0.8-2.2,0.8-3.4c0-1.3-0.3-2.4-0.8-3.4c-0.5-1-1.3-1.8-2.3-2.3c-1-0.6-2-0.8-3.2-0.8c-1.2,0-2.3,0.3-3.3,0.8
		c-0.9,0.6-1.7,1.3-2.3,2.3c-0.5,1-0.8,2.1-0.8,3.4c0,1.3,0.3,2.4,0.8,3.4c0.6,1,1.3,1.8,2.3,2.3
		C301.4,119.1,302.5,119.3,303.7,119.3z"/>
	<path class="st0" d="M317.2,104.3h2.3v16.9h-2.3V104.3z M318.4,100.6c-0.5,0-0.9-0.2-1.2-0.5c-0.3-0.3-0.5-0.7-0.5-1.2
		c0-0.4,0.2-0.8,0.5-1.1c0.3-0.3,0.7-0.5,1.2-0.5c0.5,0,0.9,0.2,1.2,0.5c0.3,0.3,0.5,0.7,0.5,1.1c0,0.5-0.2,0.9-0.5,1.2
		C319.2,100.4,318.8,100.6,318.4,100.6z"/>
	<path class="st0" d="M326,104.3h2.3v7.5h10.7v-7.5h2.3v16.9h-2.3v-7.5h-10.7v7.5H326V104.3z"/>
	<path class="st0" d="M347.7,104.3h2.3v16.9h-2.3V104.3z M348.9,100.6c-0.5,0-0.9-0.2-1.2-0.5c-0.3-0.3-0.5-0.7-0.5-1.2
		c0-0.4,0.2-0.8,0.5-1.1c0.3-0.3,0.7-0.5,1.2-0.5c0.5,0,0.9,0.2,1.2,0.5c0.3,0.3,0.5,0.7,0.5,1.1c0,0.5-0.2,0.9-0.5,1.2
		C349.8,100.4,349.4,100.6,348.9,100.6z"/>
	<path class="st0" d="M356.5,104.3h2.3v7.5h10.7v-7.5h2.3v16.9h-2.3v-7.5h-10.7v7.5h-2.3V104.3z M374.5,119.2v5.7h-2.2v-3.7h-2.9v-2
		H374.5z"/>
	<path class="st0" d="M402.1,113.7h-3.7v7.5h-2.3v-7.5h-3.7l-5.2,7.5h-2.7l6.1-8.7l-5.6-8.2h2.5l5,7.4h3.7v-7.4h2.3v7.4h3.7l5-7.4
		h2.5l-5.6,8.2l6.1,8.7h-2.7L402.1,113.7z"/>
	<path class="st0" d="M428.1,113.4h-14.2c0.1,1.8,0.8,3.2,2,4.3c1.2,1.1,2.8,1.6,4.6,1.6c1.1,0,2-0.2,2.9-0.5
		c0.9-0.4,1.6-0.9,2.3-1.7l1.3,1.5c-0.8,0.9-1.7,1.6-2.8,2.1c-1.1,0.5-2.4,0.7-3.7,0.7c-1.7,0-3.3-0.4-4.6-1.1
		c-1.3-0.8-2.4-1.8-3.1-3.1c-0.8-1.3-1.1-2.8-1.1-4.4c0-1.7,0.4-3.1,1.1-4.4c0.7-1.3,1.7-2.3,3-3.1c1.3-0.7,2.7-1.1,4.3-1.1
		c1.6,0,3,0.4,4.2,1.1c1.2,0.7,2.2,1.7,2.9,3.1c0.7,1.3,1.1,2.8,1.1,4.4L428.1,113.4z M419.9,106.1c-1.6,0-3,0.5-4.1,1.6
		c-1.1,1-1.7,2.4-1.9,4.1h12c-0.2-1.7-0.8-3-1.9-4.1C423,106.6,421.6,106.1,419.9,106.1z"/>
	<path class="st0" d="M439.3,113.7h-3.9v7.5h-2.3v-16.9h2.3v7.4h3.9l6-7.4h2.5l-6.7,8.2l7.1,8.7h-2.7L439.3,113.7z"/>
	<path class="st0" d="M466.1,113.4h-14.2c0.1,1.8,0.8,3.2,2,4.3c1.2,1.1,2.8,1.6,4.6,1.6c1.1,0,2-0.2,2.9-0.5
		c0.9-0.4,1.6-0.9,2.3-1.7l1.3,1.5c-0.8,0.9-1.7,1.6-2.8,2.1c-1.1,0.5-2.3,0.7-3.7,0.7c-1.7,0-3.3-0.4-4.6-1.1
		c-1.3-0.8-2.4-1.8-3.1-3.1c-0.8-1.3-1.1-2.8-1.1-4.4c0-1.7,0.4-3.1,1.1-4.4c0.7-1.3,1.7-2.3,3-3.1c1.3-0.7,2.7-1.1,4.2-1.1
		c1.6,0,3,0.4,4.2,1.1c1.2,0.7,2.2,1.7,2.9,3.1c0.7,1.3,1.1,2.8,1.1,4.4L466.1,113.4z M457.9,106.1c-1.6,0-3,0.5-4.1,1.6
		c-1.1,1-1.7,2.4-1.9,4.1h12c-0.1-1.7-0.8-3-1.9-4.1C461,106.6,459.6,106.1,457.9,106.1z"/>
	<path class="st0" d="M9,145.3c2.2,0,3.9,0.6,5.1,1.7c1.2,1.1,1.8,2.7,1.8,4.9v10.5h-2.2v-2.6c-0.5,0.9-1.3,1.6-2.3,2.1
		c-1,0.5-2.2,0.7-3.5,0.7c-1.9,0-3.4-0.5-4.5-1.4c-1.1-0.9-1.7-2.1-1.7-3.6c0-1.4,0.5-2.6,1.5-3.5c1.1-0.9,2.7-1.3,5-1.3h5.4v-1
		c0-1.5-0.4-2.6-1.2-3.3c-0.8-0.8-2-1.2-3.6-1.2c-1.1,0-2.1,0.2-3.1,0.5c-1,0.3-1.8,0.8-2.5,1.4l-1-1.7c0.9-0.7,1.9-1.3,3.1-1.7
		C6.4,145.5,7.7,145.3,9,145.3z M8.2,160.7c1.3,0,2.4-0.3,3.3-0.9c0.9-0.6,1.6-1.5,2.1-2.6v-2.8H8.3c-2.9,0-4.3,1-4.3,3
		c0,1,0.4,1.8,1.1,2.3C5.8,160.5,6.9,160.7,8.2,160.7z"/>
	<path class="st0" d="M38.5,160.4v6.1h-2.2v-4.1H21.1v4.1H19v-6.1h1c1.1-0.1,1.9-0.9,2.3-2.5c0.4-1.6,0.7-3.9,0.8-6.8l0.2-5.7h12.5
		v14.9H38.5z M25.2,151.2c-0.1,2.4-0.3,4.4-0.6,6c-0.3,1.5-0.8,2.6-1.6,3.2h10.6v-12.9h-8.1L25.2,151.2z"/>
	<path class="st0" d="M48.7,145.3c2.2,0,3.9,0.6,5.1,1.7c1.2,1.1,1.8,2.7,1.8,4.9v10.5h-2.2v-2.6c-0.5,0.9-1.3,1.6-2.3,2.1
		c-1,0.5-2.2,0.7-3.5,0.7c-1.9,0-3.4-0.5-4.5-1.4c-1.1-0.9-1.7-2.1-1.7-3.6c0-1.4,0.5-2.6,1.5-3.5c1.1-0.9,2.7-1.3,5-1.3h5.4v-1
		c0-1.5-0.4-2.6-1.2-3.3c-0.8-0.8-2-1.2-3.6-1.2c-1.1,0-2.1,0.2-3.1,0.5c-1,0.3-1.8,0.8-2.5,1.4l-1-1.7c0.9-0.7,1.9-1.3,3.1-1.7
		C46.2,145.5,47.4,145.3,48.7,145.3z M47.9,160.7c1.3,0,2.4-0.3,3.3-0.9c0.9-0.6,1.6-1.5,2.1-2.6v-2.8H48c-2.9,0-4.3,1-4.3,3
		c0,1,0.4,1.8,1.1,2.3C45.5,160.5,46.6,160.7,47.9,160.7z"/>
	<path class="st0" d="M80.6,145.4v16.9h-2.1V149l-6.9,11.3h-1L63.8,149v13.4h-2.1v-16.9H64l7.2,12.2l7.3-12.2H80.6z"/>
	<path class="st0" d="M103.6,160.4v6.1h-2.2v-4.1H86.3v4.1h-2.2v-6.1h1c1.1-0.1,1.9-0.9,2.3-2.5c0.4-1.6,0.7-3.9,0.8-6.8l0.2-5.7
		H101v14.9H103.6z M90.4,151.2c-0.1,2.4-0.3,4.4-0.6,6c-0.3,1.5-0.8,2.6-1.6,3.2h10.6v-12.9h-8.1L90.4,151.2z"/>
	<path class="st0" d="M113.9,145.3c2.2,0,3.9,0.6,5.1,1.7c1.2,1.1,1.8,2.7,1.8,4.9v10.5h-2.2v-2.6c-0.5,0.9-1.3,1.6-2.3,2.1
		c-1,0.5-2.2,0.7-3.5,0.7c-1.9,0-3.4-0.5-4.5-1.4c-1.1-0.9-1.7-2.1-1.7-3.6c0-1.4,0.5-2.6,1.5-3.5c1.1-0.9,2.7-1.3,5-1.3h5.4v-1
		c0-1.5-0.4-2.6-1.2-3.3c-0.8-0.8-2-1.2-3.6-1.2c-1.1,0-2.1,0.2-3.1,0.5c-1,0.3-1.8,0.8-2.5,1.4l-1-1.7c0.9-0.7,1.9-1.3,3.1-1.7
		C111.3,145.5,112.6,145.3,113.9,145.3z M113.1,160.7c1.3,0,2.4-0.3,3.3-0.9c0.9-0.6,1.6-1.5,2.1-2.6v-2.8h-5.3c-2.9,0-4.3,1-4.3,3
		c0,1,0.4,1.8,1.1,2.3C110.7,160.5,111.8,160.7,113.1,160.7z"/>
	<path class="st0" d="M135.6,145.3c1.6,0,3,0.4,4.3,1.1c1.3,0.7,2.3,1.7,3,3c0.7,1.3,1.1,2.8,1.1,4.5c0,1.7-0.4,3.2-1.1,4.5
		c-0.7,1.3-1.7,2.3-3,3.1c-1.3,0.7-2.7,1.1-4.3,1.1c-1.4,0-2.6-0.3-3.7-0.8c-1.1-0.6-2-1.4-2.7-2.5v9.4h-2.3v-23.2h2.2v3.3
		c0.7-1.1,1.6-2,2.7-2.6C132.9,145.6,134.2,145.3,135.6,145.3z M135.4,160.5c1.2,0,2.3-0.3,3.2-0.8c1-0.6,1.7-1.3,2.3-2.3
		c0.6-1,0.8-2.2,0.8-3.4c0-1.3-0.3-2.4-0.8-3.4c-0.5-1-1.3-1.8-2.3-2.3c-1-0.6-2-0.8-3.2-0.8c-1.2,0-2.3,0.3-3.3,0.8
		c-0.9,0.6-1.7,1.3-2.3,2.3c-0.5,1-0.8,2.1-0.8,3.4c0,1.3,0.3,2.4,0.8,3.4c0.6,1,1.3,1.8,2.3,2.3
		C133.1,160.2,134.2,160.5,135.4,160.5z"/>
	<path class="st0" d="M151.7,147.5v6.6h7.4v1.7h-7.4v6.7h-2.3v-6.7h-2.3V154h2.3v-8.6h12v2H151.7z"/>
	<path class="st0" d="M170.9,145.3c2.2,0,3.9,0.6,5.1,1.7c1.2,1.1,1.8,2.7,1.8,4.9v10.5h-2.2v-2.6c-0.5,0.9-1.3,1.6-2.3,2.1
		c-1,0.5-2.2,0.7-3.5,0.7c-1.9,0-3.4-0.5-4.5-1.4c-1.1-0.9-1.7-2.1-1.7-3.6c0-1.4,0.5-2.6,1.5-3.5c1.1-0.9,2.7-1.3,5-1.3h5.4v-1
		c0-1.5-0.4-2.6-1.2-3.3c-0.8-0.8-2-1.2-3.6-1.2c-1.1,0-2.1,0.2-3.1,0.5c-1,0.3-1.8,0.8-2.5,1.4l-1-1.7c0.9-0.7,1.9-1.3,3.1-1.7
		C168.3,145.5,169.6,145.3,170.9,145.3z M170.1,160.7c1.3,0,2.4-0.3,3.3-0.9c0.9-0.6,1.6-1.5,2.1-2.6v-2.8h-5.3c-2.9,0-4.3,1-4.3,3
		c0,1,0.4,1.8,1.1,2.3C167.7,160.5,168.8,160.7,170.1,160.7z"/>
	<path class="st0" d="M207.1,154.8h-3.7v7.5h-2.3v-7.5h-3.7l-5.2,7.5h-2.7l6.1-8.7l-5.6-8.2h2.5l5,7.4h3.7v-7.4h2.3v7.4h3.7l5-7.4
		h2.5l-5.6,8.2l6.1,8.7h-2.7L207.1,154.8z"/>
	<path class="st0" d="M224.4,145.3c2.2,0,3.9,0.6,5.1,1.7c1.2,1.1,1.8,2.7,1.8,4.9v10.5H229v-2.6c-0.5,0.9-1.3,1.6-2.3,2.1
		c-1,0.5-2.2,0.7-3.5,0.7c-1.9,0-3.4-0.5-4.5-1.4c-1.1-0.9-1.7-2.1-1.7-3.6c0-1.4,0.5-2.6,1.5-3.5c1.1-0.9,2.7-1.3,5-1.3h5.4v-1
		c0-1.5-0.4-2.6-1.2-3.3c-0.8-0.8-2-1.2-3.6-1.2c-1.1,0-2.1,0.2-3.1,0.5c-1,0.3-1.8,0.8-2.5,1.4l-1-1.7c0.9-0.7,1.9-1.3,3.1-1.7
		C221.8,145.5,223,145.3,224.4,145.3z M223.6,160.7c1.3,0,2.4-0.3,3.3-0.9c0.9-0.6,1.6-1.5,2.1-2.6v-2.8h-5.3c-2.9,0-4.3,1-4.3,3
		c0,1,0.4,1.8,1.1,2.3C221.2,160.5,222.2,160.7,223.6,160.7z"/>
	<path class="st0" d="M243.5,154.8h-3.9v7.5h-2.3v-16.9h2.3v7.4h3.9l6-7.4h2.5l-6.7,8.2l7.1,8.7h-2.7L243.5,154.8z M254,160.4v5.7
		h-2.1v-3.7h-2.2v-2H254z"/>
	<path class="st0" d="M271.2,145.4v16.9h-2.3v-14.9h-10.6v14.9H256v-16.9H271.2z"/>
	<path class="st0" d="M283.5,145.3c2.2,0,3.9,0.6,5.1,1.7c1.2,1.1,1.8,2.7,1.8,4.9v10.5h-2.2v-2.6c-0.5,0.9-1.3,1.6-2.3,2.1
		c-1,0.5-2.2,0.7-3.5,0.7c-1.9,0-3.4-0.5-4.5-1.4c-1.1-0.9-1.7-2.1-1.7-3.6c0-1.4,0.5-2.6,1.5-3.5c1.1-0.9,2.7-1.3,5-1.3h5.4v-1
		c0-1.5-0.4-2.6-1.2-3.3c-0.8-0.8-2-1.2-3.6-1.2c-1.1,0-2.1,0.2-3.1,0.5c-1,0.3-1.8,0.8-2.5,1.4l-1-1.7c0.9-0.7,1.9-1.3,3.1-1.7
		C280.9,145.5,282.2,145.3,283.5,145.3z M282.7,160.7c1.3,0,2.4-0.3,3.3-0.9c0.9-0.6,1.6-1.5,2.1-2.6v-2.8h-5.3c-2.9,0-4.3,1-4.3,3
		c0,1,0.4,1.8,1.1,2.3C280.3,160.5,281.4,160.7,282.7,160.7z"/>
	<path class="st0" d="M310.9,145.4l-8.5,19c-0.7,1.6-1.5,2.7-2.4,3.4c-0.9,0.7-2,1-3.3,1c-0.8,0-1.6-0.1-2.3-0.4
		c-0.7-0.3-1.3-0.6-1.8-1.2l1.1-1.7c0.9,0.9,1.9,1.3,3.1,1.3c0.8,0,1.4-0.2,2-0.6c0.6-0.4,1.1-1.2,1.5-2.2l0.7-1.6l-7.6-16.9h2.4
		l6.4,14.4l6.4-14.4H310.9z"/>
	<path class="st0" d="M321.5,151.4c2.1,0,3.7,0.5,4.9,1.4c1.1,0.9,1.7,2.3,1.7,4c0,1.8-0.6,3.2-1.8,4.2c-1.2,1-2.9,1.4-5.2,1.4
		l-6.7,0v-16.9h2.3v5.9L321.5,151.4z M330.9,145.4h2.3v16.9h-2.3V145.4z M321,160.7c1.6,0,2.7-0.3,3.5-0.9c0.8-0.7,1.2-1.6,1.2-2.9
		c0-1.2-0.4-2.2-1.2-2.8c-0.8-0.6-2-0.9-3.6-0.9l-4.3-0.1v7.5L321,160.7z"/>
	<path class="st0" d="M339.9,159c0.5,0,0.9,0.2,1.2,0.5c0.3,0.3,0.5,0.7,0.5,1.2c0,0.3,0,0.5-0.1,0.8c-0.1,0.3-0.2,0.6-0.3,1
		l-1.4,4.4h-1.5l1.1-4.7c-0.3-0.1-0.6-0.3-0.8-0.6c-0.2-0.3-0.3-0.7-0.3-1.1c0-0.5,0.2-0.9,0.5-1.2C339,159.2,339.4,159,339.9,159z"
		/>
	<path class="st0" d="M369.8,154.8h-3.7v7.5h-2.3v-7.5h-3.7l-5.2,7.5h-2.7l6.1-8.7l-5.6-8.2h2.5l5,7.4h3.7v-7.4h2.3v7.4h3.7l5-7.4
		h2.5l-5.6,8.2l6.1,8.7H375L369.8,154.8z"/>
	<path class="st0" d="M387.5,162.5v6.1h-2.3v-6.1l-7.5-17h2.4l6.3,14.4l6.4-14.4h2.3L387.5,162.5z"/>
	<path class="st0" d="M404.7,154.8h-3.9v7.5h-2.3v-16.9h2.3v7.4h3.9l6-7.4h2.5l-6.7,8.2l7.1,8.7h-2.7L404.7,154.8z"/>
	<path class="st0" d="M428.8,147.5h-6.4v14.9h-2.3v-14.9h-6.4v-2h15.1V147.5z"/>
	<path class="st0" d="M432.1,145.4h2.3v16.9h-2.3V145.4z M433.3,141.7c-0.5,0-0.9-0.2-1.2-0.5c-0.3-0.3-0.5-0.7-0.5-1.2
		c0-0.4,0.2-0.8,0.5-1.1c0.3-0.3,0.7-0.5,1.2-0.5c0.5,0,0.9,0.2,1.2,0.5c0.3,0.3,0.5,0.7,0.5,1.1c0,0.5-0.2,0.9-0.5,1.2
		C434.2,141.6,433.8,141.7,433.3,141.7z"/>
	<path class="st0" d="M454.8,145.4v16.9h-2.3v-14.9h-8.1l-0.2,4.2c-0.2,3.5-0.6,6.2-1.2,8.1c-0.6,1.9-1.8,2.8-3.4,2.8
		c-0.5,0-1-0.1-1.6-0.3l0.2-2c0.4,0.1,0.7,0.1,0.8,0.1c0.9,0,1.5-0.4,2-1.2c0.5-0.8,0.8-1.8,0.9-3c0.1-1.2,0.3-2.8,0.4-4.8l0.3-6.1
		H454.8z"/>
	<path class="st0" d="M461.3,145.4h2.3v16.9h-2.3V145.4z M462.4,141.7c-0.5,0-0.9-0.2-1.2-0.5c-0.3-0.3-0.5-0.7-0.5-1.2
		c0-0.4,0.2-0.8,0.5-1.1c0.3-0.3,0.7-0.5,1.2-0.5c0.5,0,0.9,0.2,1.2,0.5c0.3,0.3,0.5,0.7,0.5,1.1c0,0.5-0.2,0.9-0.5,1.2
		C463.3,141.6,462.9,141.7,462.4,141.7z"/>
	<path class="st0" d="M476.2,154.8h-3.9v7.5h-2.3v-16.9h2.3v7.4h3.9l6-7.4h2.5l-6.7,8.2l7.1,8.7h-2.7L476.2,154.8z"/>
	<path class="st0" d="M489,159c0.5,0,0.9,0.2,1.2,0.5c0.3,0.3,0.5,0.7,0.5,1.2c0,0.3,0,0.5-0.1,0.8c-0.1,0.3-0.2,0.6-0.3,1l-1.4,4.4
		h-1.5l1.1-4.7c-0.3-0.1-0.6-0.3-0.8-0.6c-0.2-0.3-0.3-0.7-0.3-1.1c0-0.5,0.2-0.9,0.5-1.2C488.1,159.2,488.5,159,489,159z"/>
	<path class="st0" d="M18,195.8H3.8c0.1,1.8,0.8,3.2,2,4.3c1.2,1.1,2.8,1.6,4.6,1.6c1.1,0,2-0.2,2.9-0.5c0.9-0.4,1.6-0.9,2.3-1.7
		L17,201c-0.8,0.9-1.7,1.6-2.8,2.1c-1.1,0.5-2.3,0.7-3.7,0.7c-1.7,0-3.3-0.4-4.6-1.1c-1.3-0.8-2.4-1.8-3.1-3.1
		c-0.8-1.3-1.1-2.8-1.1-4.4c0-1.7,0.4-3.1,1.1-4.4c0.7-1.3,1.7-2.3,3-3.1c1.3-0.7,2.7-1.1,4.2-1.1c1.6,0,3,0.4,4.2,1.1
		c1.2,0.7,2.2,1.7,2.9,3.1c0.7,1.3,1.1,2.8,1.1,4.4L18,195.8z M9.8,188.5c-1.6,0-3,0.5-4.1,1.6c-1.1,1-1.7,2.4-1.9,4.1h12
		c-0.2-1.7-0.8-3-1.9-4.1C12.8,189,11.5,188.5,9.8,188.5z"/>
	<path class="st0" d="M42,186.6v16.9h-2.1v-13.4l-6.9,11.3h-1l-6.9-11.4v13.4h-2.1v-16.9h2.3l7.2,12.2l7.3-12.2H42z"/>
	<path class="st0" d="M71.9,186.6v16.9H48.5v-16.9h2.3v14.9h8.3v-14.9h2.3v14.9h8.2v-14.9H71.9z"/>
	<path class="st0" d="M93.2,195.8H79.1c0.1,1.8,0.8,3.2,2,4.3c1.2,1.1,2.8,1.6,4.6,1.6c1.1,0,2-0.2,2.9-0.5c0.9-0.4,1.6-0.9,2.3-1.7
		l1.3,1.5c-0.8,0.9-1.7,1.6-2.8,2.1c-1.1,0.5-2.3,0.7-3.7,0.7c-1.7,0-3.3-0.4-4.6-1.1c-1.3-0.8-2.4-1.8-3.1-3.1
		c-0.8-1.3-1.1-2.8-1.1-4.4c0-1.7,0.4-3.1,1.1-4.4c0.7-1.3,1.7-2.3,3-3.1c1.3-0.7,2.7-1.1,4.2-1.1c1.6,0,3,0.4,4.2,1.1
		c1.2,0.7,2.2,1.7,2.9,3.1c0.7,1.3,1.1,2.8,1.1,4.4L93.2,195.8z M85,188.5c-1.6,0-3,0.5-4.1,1.6c-1.1,1-1.7,2.4-1.9,4.1h12
		c-0.2-1.7-0.8-3-1.9-4.1C88.1,189,86.7,188.5,85,188.5z"/>
	<path class="st0" d="M104.5,196h-3.9v7.5h-2.3v-16.9h2.3v7.4h3.9l6-7.4h2.5l-6.7,8.2l7.1,8.7h-2.7L104.5,196z"/>
	<path class="st0" d="M140.2,195.8h-14.2c0.1,1.8,0.8,3.2,2,4.3c1.2,1.1,2.8,1.6,4.6,1.6c1.1,0,2-0.2,2.9-0.5
		c0.9-0.4,1.6-0.9,2.3-1.7l1.3,1.5c-0.8,0.9-1.7,1.6-2.8,2.1c-1.1,0.5-2.3,0.7-3.7,0.7c-1.7,0-3.3-0.4-4.6-1.1
		c-1.3-0.8-2.4-1.8-3.1-3.1c-0.8-1.3-1.1-2.8-1.1-4.4c0-1.7,0.4-3.1,1.1-4.4c0.7-1.3,1.7-2.3,3-3.1c1.3-0.7,2.7-1.1,4.2-1.1
		c1.6,0,3,0.4,4.2,1.1c1.2,0.7,2.2,1.7,2.9,3.1c0.7,1.3,1.1,2.8,1.1,4.4L140.2,195.8z M132.1,188.5c-1.6,0-3,0.5-4.1,1.6
		c-1.1,1-1.7,2.4-1.9,4.1h12c-0.2-1.7-0.8-3-1.9-4.1C135.1,189,133.7,188.5,132.1,188.5z"/>
	<path class="st0" d="M164.3,186.6v16.9h-2.1v-13.4l-6.9,11.3h-1l-6.9-11.4v13.4h-2.1v-16.9h2.3l7.2,12.2l7.3-12.2H164.3z"/>
	<path class="st0" d="M170.8,186.6h2.3v16.9h-2.3V186.6z M171.9,182.9c-0.5,0-0.9-0.2-1.2-0.5s-0.5-0.7-0.5-1.2
		c0-0.4,0.2-0.8,0.5-1.1c0.3-0.3,0.7-0.5,1.2-0.5s0.9,0.2,1.2,0.5c0.3,0.3,0.5,0.7,0.5,1.1c0,0.5-0.2,0.9-0.5,1.2
		S172.4,182.9,171.9,182.9z"/>
	<path class="st0" d="M187.5,194.7c1.2,0.3,2.1,0.8,2.8,1.4c0.7,0.7,1,1.5,1,2.5s-0.3,1.9-1,2.6c-0.7,0.8-1.6,1.4-2.7,1.8
		c-1.2,0.4-2.4,0.6-3.8,0.6c-1.2,0-2.4-0.2-3.6-0.5c-1.2-0.4-2.2-0.9-3.1-1.6l0.8-1.7c0.8,0.6,1.7,1,2.7,1.4c1,0.3,2.1,0.5,3.1,0.5
		c1.6,0,2.8-0.3,3.8-0.9c1-0.6,1.5-1.4,1.5-2.4c0-0.9-0.4-1.6-1.2-2.1c-0.8-0.5-1.9-0.8-3.3-0.8h-2.9V194h2.8c1.3,0,2.3-0.2,3.1-0.7
		c0.8-0.5,1.2-1.1,1.2-2c0-0.9-0.4-1.6-1.3-2.1c-0.9-0.5-2-0.8-3.4-0.8c-1.8,0-3.6,0.5-5.4,1.4l-0.6-1.8c2-1.1,4.1-1.6,6.3-1.6
		c1.3,0,2.4,0.2,3.5,0.6c1.1,0.4,1.9,0.9,2.4,1.6c0.6,0.7,0.9,1.5,0.9,2.4c0,0.9-0.3,1.6-0.9,2.3
		C189.3,193.9,188.5,194.4,187.5,194.7z"/>
	<path class="st0" d="M210.8,186.6l-8.5,19c-0.7,1.6-1.5,2.7-2.4,3.4c-0.9,0.7-2,1-3.3,1c-0.8,0-1.6-0.1-2.3-0.4
		c-0.7-0.3-1.3-0.6-1.8-1.2l1.1-1.7c0.9,0.9,1.9,1.3,3.1,1.3c0.8,0,1.4-0.2,2-0.6c0.6-0.4,1.1-1.2,1.5-2.2l0.7-1.6l-7.6-16.9h2.4
		l6.4,14.4l6.4-14.4H210.8z"/>
	<path class="st0" d="M213.5,200.2c0.5,0,0.9,0.2,1.2,0.5c0.3,0.3,0.5,0.7,0.5,1.2c0,0.3,0,0.5-0.1,0.8c-0.1,0.3-0.2,0.6-0.3,1
		l-1.4,4.4h-1.5l1.1-4.7c-0.3-0.1-0.6-0.3-0.8-0.6c-0.2-0.3-0.3-0.7-0.3-1.1c0-0.5,0.2-0.9,0.5-1.2
		C212.6,200.4,213,200.2,213.5,200.2z"/>
	<path class="st0" d="M240.4,188.7H234v14.9h-2.3v-14.9h-6.4v-2h15.1V188.7z"/>
	<path class="st0" d="M252.5,186.5c1.6,0,3,0.4,4.3,1.1c1.3,0.7,2.3,1.7,3,3c0.7,1.3,1.1,2.8,1.1,4.5c0,1.7-0.4,3.2-1.1,4.5
		c-0.7,1.3-1.7,2.3-3,3.1c-1.3,0.7-2.7,1.1-4.3,1.1c-1.4,0-2.6-0.3-3.7-0.8c-1.1-0.6-2-1.4-2.7-2.5v9.4h-2.3v-23.2h2.2v3.3
		c0.7-1.1,1.6-2,2.7-2.6C249.8,186.8,251,186.5,252.5,186.5z M252.3,201.7c1.2,0,2.3-0.3,3.2-0.8c1-0.6,1.7-1.3,2.3-2.3
		c0.6-1,0.8-2.2,0.8-3.4c0-1.3-0.3-2.4-0.8-3.4c-0.5-1-1.3-1.8-2.3-2.3c-1-0.6-2-0.8-3.2-0.8c-1.2,0-2.3,0.3-3.3,0.8
		c-0.9,0.6-1.7,1.3-2.3,2.3c-0.5,1-0.8,2.1-0.8,3.4c0,1.3,0.3,2.4,0.8,3.4c0.6,1,1.3,1.8,2.3,2.3C250,201.4,251.1,201.7,252.3,201.7
		z"/>
	<path class="st0" d="M272.8,203.7c-1.6,0-3.1-0.4-4.4-1.1c-1.3-0.8-2.3-1.8-3.1-3.1c-0.8-1.3-1.1-2.8-1.1-4.4
		c0-1.7,0.4-3.1,1.1-4.4c0.8-1.3,1.8-2.3,3.1-3.1c1.3-0.7,2.8-1.1,4.4-1.1s3.1,0.4,4.4,1.1c1.3,0.7,2.3,1.7,3.1,3.1
		c0.8,1.3,1.1,2.8,1.1,4.4c0,1.7-0.4,3.1-1.1,4.4c-0.7,1.3-1.7,2.3-3.1,3.1C275.9,203.4,274.4,203.7,272.8,203.7z M272.8,201.7
		c1.2,0,2.3-0.3,3.2-0.8c1-0.6,1.7-1.3,2.3-2.3c0.5-1,0.8-2.2,0.8-3.4c0-1.3-0.3-2.4-0.8-3.4c-0.5-1-1.3-1.8-2.3-2.3
		c-0.9-0.6-2-0.8-3.2-0.8c-1.2,0-2.3,0.3-3.3,0.8c-0.9,0.5-1.7,1.3-2.3,2.3c-0.5,1-0.8,2.2-0.8,3.4c0,1.3,0.3,2.4,0.8,3.4
		c0.6,1,1.3,1.8,2.3,2.3C270.5,201.4,271.6,201.7,272.8,201.7z"/>
	<path class="st0" d="M305.2,186.6v16.9h-2.1v-13.4l-6.9,11.3h-1l-6.9-11.4v13.4h-2.1v-16.9h2.3l7.2,12.2l7.3-12.2H305.2z"/>
	<path class="st0" d="M319.9,187.1c1.6,0,3,0.4,4.2,1.1c1.2,0.7,2.2,1.7,2.9,2.9c0.7,1.2,1,2.7,1,4.3c0,1.7-0.4,3.1-1.1,4.4
		c-0.7,1.3-1.7,2.3-3,3c-1.3,0.7-2.8,1.1-4.4,1.1c-2.8,0-5-1-6.5-3c-1.5-2-2.3-4.7-2.3-8.2c0-3.6,0.7-6.4,2.1-8.3
		c1.4-1.9,3.6-3.2,6.5-3.9l7.6-1.7l0.4,2.1l-7.1,1.6c-2.4,0.5-4.2,1.5-5.3,2.9c-1.1,1.4-1.8,3.4-1.9,6c0.7-1.3,1.6-2.3,2.9-3.1
		C316.9,187.4,318.3,187.1,319.9,187.1z M319.6,201.9c1.2,0,2.2-0.3,3.2-0.8c0.9-0.6,1.7-1.3,2.2-2.3c0.5-1,0.8-2.1,0.8-3.3
		c0-1.2-0.3-2.3-0.8-3.3c-0.5-0.9-1.2-1.7-2.2-2.2c-0.9-0.5-2-0.8-3.2-0.8c-1.2,0-2.3,0.3-3.2,0.8c-0.9,0.5-1.7,1.2-2.2,2.2
		c-0.5,0.9-0.8,2-0.8,3.3c0,1.2,0.3,2.4,0.8,3.3c0.5,1,1.3,1.8,2.2,2.3C317.3,201.6,318.4,201.9,319.6,201.9z"/>
	<path class="st0" d="M344.2,188.7h-6.4v14.9h-2.3v-14.9h-6.4v-2h15.1V188.7z"/>
	<path class="st0" d="M353.3,186.5c2.2,0,3.9,0.6,5.1,1.7c1.2,1.1,1.8,2.7,1.8,4.9v10.5H358v-2.6c-0.5,0.9-1.3,1.6-2.3,2.1
		c-1,0.5-2.2,0.7-3.5,0.7c-1.9,0-3.4-0.5-4.5-1.4c-1.1-0.9-1.7-2.1-1.7-3.6c0-1.4,0.5-2.6,1.5-3.5c1.1-0.9,2.7-1.3,5-1.3h5.4v-1
		c0-1.5-0.4-2.6-1.2-3.3c-0.8-0.8-2-1.2-3.6-1.2c-1.1,0-2.1,0.2-3.1,0.5c-1,0.3-1.8,0.8-2.5,1.4l-1-1.7c0.9-0.7,1.9-1.3,3.1-1.7
		C350.7,186.7,352,186.5,353.3,186.5z M352.5,201.9c1.3,0,2.4-0.3,3.3-0.9c0.9-0.6,1.6-1.5,2.1-2.6v-2.8h-5.3c-2.9,0-4.3,1-4.3,3
		c0,1,0.4,1.8,1.1,2.3C350.1,201.6,351.2,201.9,352.5,201.9z"/>
	<path class="st0" d="M375,186.5c1.6,0,3,0.4,4.3,1.1c1.3,0.7,2.3,1.7,3,3c0.7,1.3,1.1,2.8,1.1,4.5c0,1.7-0.4,3.2-1.1,4.5
		c-0.7,1.3-1.7,2.3-3,3.1c-1.3,0.7-2.7,1.1-4.3,1.1c-1.4,0-2.6-0.3-3.7-0.8c-1.1-0.6-2-1.4-2.7-2.5v9.4h-2.3v-23.2h2.2v3.3
		c0.7-1.1,1.6-2,2.7-2.6C372.3,186.8,373.6,186.5,375,186.5z M374.8,201.7c1.2,0,2.3-0.3,3.2-0.8c1-0.6,1.7-1.3,2.3-2.3
		c0.6-1,0.8-2.2,0.8-3.4c0-1.3-0.3-2.4-0.8-3.4c-0.5-1-1.3-1.8-2.3-2.3c-1-0.6-2-0.8-3.2-0.8c-1.2,0-2.3,0.3-3.3,0.8
		c-0.9,0.6-1.7,1.3-2.3,2.3c-0.5,1-0.8,2.1-0.8,3.4c0,1.3,0.3,2.4,0.8,3.4c0.6,1,1.3,1.8,2.3,2.3
		C372.5,201.4,373.6,201.7,374.8,201.7z"/>
	<path class="st0" d="M404.8,201.6v6.1h-2.2v-4.1h-15.2v4.1h-2.2v-6.1h1c1.1-0.1,1.9-0.9,2.3-2.5c0.4-1.6,0.7-3.9,0.8-6.8l0.2-5.7
		h12.5v14.9H404.8z M391.5,192.4c-0.1,2.4-0.3,4.4-0.6,6c-0.3,1.5-0.8,2.6-1.6,3.2h10.6v-12.9h-8.1L391.5,192.4z"/>
	<path class="st0" d="M416.3,192.6c2.1,0,3.7,0.5,4.9,1.4c1.1,0.9,1.7,2.3,1.7,4c0,1.8-0.6,3.2-1.8,4.2c-1.2,1-2.9,1.4-5.2,1.4
		l-6.7,0v-16.9h2.3v5.9L416.3,192.6z M425.7,186.6h2.3v16.9h-2.3V186.6z M415.8,201.9c1.6,0,2.7-0.3,3.5-0.9
		c0.8-0.7,1.2-1.6,1.2-2.9c0-1.2-0.4-2.2-1.2-2.8c-0.8-0.6-2-0.9-3.6-0.9l-4.3-0.1v7.5L415.8,201.9z"/>
	<path class="st0" d="M434.5,186.6h2.3v7.5h10.7v-7.5h2.3v16.9h-2.3v-7.5h-10.7v7.5h-2.3V186.6z M452.4,201.6v5.7h-2.2v-3.7h-2.9v-2
		H452.4z"/>
	<path class="st0" d="M15.1,229.8H8.7v14.9H6.4v-14.9H0v-2h15.1V229.8z"/>
	<path class="st0" d="M25.4,244.8v6.1h-2.3v-6.1l-7.5-17h2.4l6.3,14.4l6.4-14.4h2.3L25.4,244.8z"/>
	<path class="st0" d="M44.2,235.9c1.2,0.3,2.1,0.8,2.8,1.4c0.7,0.7,1,1.5,1,2.5s-0.3,1.9-1,2.6c-0.7,0.8-1.6,1.4-2.7,1.8
		c-1.2,0.4-2.4,0.6-3.8,0.6c-1.2,0-2.4-0.2-3.6-0.5c-1.2-0.4-2.2-0.9-3.1-1.6l0.8-1.7c0.8,0.6,1.7,1,2.7,1.4c1,0.3,2.1,0.5,3.1,0.5
		c1.6,0,2.8-0.3,3.8-0.9c1-0.6,1.5-1.4,1.5-2.4c0-0.9-0.4-1.6-1.2-2.1c-0.8-0.5-1.9-0.8-3.3-0.8h-2.9v-1.7H41c1.3,0,2.3-0.2,3.1-0.7
		c0.8-0.5,1.2-1.1,1.2-2c0-0.9-0.4-1.6-1.3-2.1c-0.9-0.5-2-0.8-3.4-0.8c-1.8,0-3.6,0.5-5.4,1.4l-0.6-1.8c2-1.1,4.1-1.6,6.3-1.6
		c1.3,0,2.4,0.2,3.5,0.6c1.1,0.4,1.9,0.9,2.4,1.6c0.6,0.7,0.9,1.5,0.9,2.4c0,0.9-0.3,1.6-0.9,2.3C46,235.1,45.3,235.6,44.2,235.9z"
		/>
	<path class="st0" d="M53.2,227.8h2.3v16.9h-2.3V227.8z M54.4,224.1c-0.5,0-0.9-0.2-1.2-0.5c-0.3-0.3-0.5-0.7-0.5-1.2
		c0-0.4,0.2-0.8,0.5-1.1c0.3-0.3,0.7-0.5,1.2-0.5c0.5,0,0.9,0.2,1.2,0.5c0.3,0.3,0.5,0.7,0.5,1.1c0,0.5-0.2,0.9-0.5,1.2
		C55.2,224,54.8,224.1,54.4,224.1z"/>
	<path class="st0" d="M75.8,227.8v16.9h-2.3v-14.9h-8.1l-0.2,4.2c-0.2,3.5-0.6,6.2-1.2,8.1c-0.6,1.9-1.8,2.8-3.4,2.8
		c-0.5,0-1-0.1-1.6-0.3l0.2-2c0.4,0.1,0.7,0.1,0.8,0.1c0.9,0,1.5-0.4,2-1.2c0.5-0.8,0.8-1.8,0.9-3c0.2-1.2,0.3-2.8,0.4-4.8l0.3-6.1
		H75.8z"/>
	<path class="st0" d="M96.7,227.8l-8.5,19c-0.7,1.6-1.5,2.7-2.4,3.4c-0.9,0.7-2,1-3.3,1c-0.8,0-1.6-0.1-2.3-0.4
		c-0.7-0.3-1.3-0.6-1.8-1.2l1.1-1.7c0.9,0.9,1.9,1.3,3.1,1.3c0.8,0,1.4-0.2,2-0.6c0.6-0.4,1.1-1.2,1.5-2.2l0.7-1.6l-7.6-16.9h2.4
		l6.4,14.4l6.4-14.4H96.7z"/>
	<path class="st0" d="M100.3,227.8h2.3v16.9h-2.3V227.8z M101.5,224.1c-0.5,0-0.9-0.2-1.2-0.5s-0.5-0.7-0.5-1.2
		c0-0.4,0.2-0.8,0.5-1.1s0.7-0.5,1.2-0.5c0.5,0,0.9,0.2,1.2,0.5c0.3,0.3,0.5,0.7,0.5,1.1c0,0.5-0.2,0.9-0.5,1.2
		C102.3,224,101.9,224.1,101.5,224.1z"/>
	<path class="st0" d="M109.1,227.8h2.3v7.5H122v-7.5h2.3v16.9H122v-7.5h-10.7v7.5h-2.3V227.8z"/>
	<path class="st0" d="M145.6,237h-14.2c0.1,1.8,0.8,3.2,2,4.3c1.2,1.1,2.8,1.6,4.6,1.6c1.1,0,2-0.2,2.9-0.5c0.9-0.4,1.6-0.9,2.3-1.7
		l1.3,1.5c-0.8,0.9-1.7,1.6-2.8,2.1c-1.1,0.5-2.3,0.7-3.7,0.7c-1.7,0-3.3-0.4-4.6-1.1c-1.3-0.8-2.4-1.8-3.1-3.1
		c-0.8-1.3-1.1-2.8-1.1-4.4c0-1.7,0.4-3.1,1.1-4.4c0.7-1.3,1.7-2.3,3-3.1c1.3-0.7,2.7-1.1,4.2-1.1c1.6,0,3,0.4,4.2,1.1
		c1.2,0.7,2.2,1.7,2.9,3.1c0.7,1.3,1.1,2.8,1.1,4.4L145.6,237z M137.4,229.7c-1.6,0-3,0.5-4.1,1.6c-1.1,1-1.7,2.4-1.9,4.1h12
		c-0.2-1.7-0.8-3-1.9-4.1C140.5,230.2,139.1,229.7,137.4,229.7z"/>
	<path class="st0" d="M174,237.2h-3.7v7.5H168v-7.5h-3.7l-5.2,7.5h-2.7l6.1-8.7l-5.6-8.2h2.5l5,7.4h3.7v-7.4h2.3v7.4h3.7l5-7.4h2.5
		l-5.6,8.2l6.1,8.7h-2.7L174,237.2z"/>
	<path class="st0" d="M192.1,244.9c-1.6,0-3.1-0.4-4.4-1.1c-1.3-0.8-2.3-1.8-3.1-3.1c-0.8-1.3-1.1-2.8-1.1-4.4
		c0-1.7,0.4-3.1,1.1-4.4c0.8-1.3,1.8-2.3,3.1-3.1c1.3-0.7,2.8-1.1,4.4-1.1c1.6,0,3.1,0.4,4.4,1.1c1.3,0.7,2.3,1.7,3.1,3.1
		c0.8,1.3,1.1,2.8,1.1,4.4c0,1.7-0.4,3.1-1.1,4.4c-0.7,1.3-1.7,2.3-3.1,3.1C195.2,244.5,193.8,244.9,192.1,244.9z M192.1,242.9
		c1.2,0,2.3-0.3,3.2-0.8c1-0.6,1.7-1.3,2.3-2.3c0.5-1,0.8-2.2,0.8-3.4c0-1.3-0.3-2.4-0.8-3.4c-0.5-1-1.3-1.8-2.3-2.3
		c-0.9-0.6-2-0.8-3.2-0.8c-1.2,0-2.3,0.3-3.3,0.8c-0.9,0.5-1.7,1.3-2.3,2.3c-0.5,1-0.8,2.2-0.8,3.4c0,1.3,0.3,2.4,0.8,3.4
		c0.6,1,1.3,1.8,2.3,2.3C189.8,242.6,190.9,242.9,192.1,242.9z"/>
	<path class="st0" d="M208.4,229.8v6.6h7.4v1.7h-7.4v6.7h-2.3v-6.7h-2.3v-1.7h2.3v-8.6h12v2H208.4z"/>
	<path class="st0" d="M227.6,227.7c2.2,0,3.9,0.6,5.1,1.7c1.2,1.1,1.8,2.7,1.8,4.9v10.5h-2.2v-2.6c-0.5,0.9-1.3,1.6-2.3,2.1
		c-1,0.5-2.2,0.7-3.5,0.7c-1.9,0-3.4-0.4-4.5-1.4c-1.1-0.9-1.7-2.1-1.7-3.6c0-1.4,0.5-2.6,1.5-3.5c1.1-0.9,2.7-1.3,5-1.3h5.4v-1
		c0-1.5-0.4-2.6-1.2-3.3c-0.8-0.8-2-1.2-3.6-1.2c-1.1,0-2.1,0.2-3.1,0.5c-1,0.3-1.8,0.8-2.5,1.4l-1-1.7c0.9-0.7,1.9-1.3,3.1-1.7
		C225,227.9,226.3,227.7,227.6,227.7z M226.8,243.1c1.3,0,2.4-0.3,3.3-0.9c0.9-0.6,1.6-1.5,2.1-2.6v-2.8h-5.3c-2.9,0-4.3,1-4.3,3
		c0,1,0.4,1.8,1.1,2.3C224.4,242.8,225.4,243.1,226.8,243.1z"/>
	<path class="st0" d="M249.3,227.7c1.6,0,3,0.4,4.3,1.1c1.3,0.7,2.3,1.7,3,3c0.7,1.3,1.1,2.8,1.1,4.5c0,1.7-0.4,3.2-1.1,4.5
		c-0.7,1.3-1.7,2.3-3,3.1c-1.3,0.7-2.7,1.1-4.3,1.1c-1.4,0-2.6-0.3-3.7-0.8c-1.1-0.6-2-1.4-2.7-2.5v9.4h-2.3v-23.2h2.2v3.3
		c0.7-1.1,1.6-2,2.7-2.6C246.6,228,247.8,227.7,249.3,227.7z M249.1,242.9c1.2,0,2.3-0.3,3.2-0.8c1-0.6,1.7-1.3,2.3-2.3
		c0.6-1,0.8-2.2,0.8-3.4c0-1.3-0.3-2.4-0.8-3.4c-0.5-1-1.3-1.8-2.3-2.3c-1-0.6-2-0.8-3.2-0.8c-1.2,0-2.3,0.3-3.3,0.8
		c-0.9,0.6-1.7,1.3-2.3,2.3c-0.5,1-0.8,2.1-0.8,3.4c0,1.3,0.3,2.4,0.8,3.4c0.6,1,1.3,1.8,2.3,2.3
		C246.8,242.6,247.9,242.9,249.1,242.9z"/>
	<path class="st0" d="M269.7,233.8c2.1,0,3.7,0.5,4.9,1.4c1.1,0.9,1.7,2.3,1.7,4c0,1.8-0.6,3.2-1.8,4.2c-1.2,1-2.9,1.4-5.2,1.4
		l-6.7,0v-16.9h2.3v5.9L269.7,233.8z M279.1,227.8h2.3v16.9h-2.3V227.8z M269.2,243c1.6,0,2.7-0.3,3.5-0.9c0.8-0.7,1.2-1.6,1.2-2.9
		c0-1.2-0.4-2.2-1.2-2.8c-0.8-0.6-2-0.9-3.6-0.9l-4.3-0.1v7.5L269.2,243z"/>
	<path class="st0" d="M304.5,228.2c1.6,0,3,0.4,4.2,1.1c1.2,0.7,2.2,1.7,2.9,2.9c0.7,1.2,1,2.7,1,4.3c0,1.7-0.4,3.1-1.1,4.4
		c-0.7,1.3-1.7,2.3-3,3c-1.3,0.7-2.8,1.1-4.4,1.1c-2.8,0-5-1-6.5-3c-1.5-2-2.3-4.7-2.3-8.2c0-3.6,0.7-6.4,2.1-8.3
		c1.4-1.9,3.6-3.2,6.5-3.9l7.6-1.7l0.4,2.1l-7.1,1.6c-2.4,0.5-4.2,1.5-5.3,2.9c-1.1,1.4-1.8,3.4-1.9,6c0.7-1.3,1.6-2.3,2.9-3.1
		C301.5,228.6,302.9,228.2,304.5,228.2z M304.1,243c1.2,0,2.2-0.3,3.2-0.8c0.9-0.6,1.7-1.3,2.2-2.3c0.5-1,0.8-2.1,0.8-3.3
		c0-1.2-0.3-2.3-0.8-3.3c-0.5-0.9-1.2-1.7-2.2-2.2c-0.9-0.5-2-0.8-3.2-0.8s-2.3,0.3-3.2,0.8c-0.9,0.5-1.7,1.2-2.2,2.2
		c-0.5,0.9-0.8,2-0.8,3.3c0,1.2,0.3,2.4,0.8,3.3c0.5,1,1.3,1.8,2.2,2.3C301.9,242.8,303,243,304.1,243z"/>
	<path class="st0" d="M332.3,237h-14.2c0.1,1.8,0.8,3.2,2,4.3c1.2,1.1,2.8,1.6,4.6,1.6c1.1,0,2-0.2,2.9-0.5c0.9-0.4,1.6-0.9,2.3-1.7
		l1.3,1.5c-0.8,0.9-1.7,1.6-2.8,2.1c-1.1,0.5-2.4,0.7-3.7,0.7c-1.7,0-3.3-0.4-4.6-1.1c-1.3-0.8-2.4-1.8-3.1-3.1
		c-0.8-1.3-1.1-2.8-1.1-4.4c0-1.7,0.4-3.1,1.1-4.4c0.7-1.3,1.7-2.3,3-3.1c1.3-0.7,2.7-1.1,4.3-1.1c1.6,0,3,0.4,4.2,1.1
		c1.2,0.7,2.2,1.7,2.9,3.1c0.7,1.3,1.1,2.8,1.1,4.4L332.3,237z M324.1,229.7c-1.6,0-3,0.5-4.1,1.6c-1.1,1-1.7,2.4-1.9,4.1h12
		c-0.2-1.7-0.8-3-1.9-4.1C327.2,230.2,325.8,229.7,324.1,229.7z"/>
	<path class="st0" d="M337.4,227.8h2.3v13.5l11.3-13.5h2v16.9h-2.3v-13.5l-11.3,13.5h-2.1V227.8z M345.1,225.4
		c-1.5,0-2.6-0.4-3.5-1.1c-0.9-0.7-1.3-1.8-1.3-3.1h1.6c0,0.8,0.3,1.5,0.9,2c0.6,0.5,1.3,0.7,2.3,0.7c0.9,0,1.7-0.2,2.3-0.7
		c0.6-0.5,0.9-1.2,0.9-2h1.6c0,1.3-0.5,2.4-1.4,3.1C347.7,225,346.6,225.4,345.1,225.4z"/>
	<path class="st0" d="M359.6,227.8h2.3v16.9h-2.3V227.8z M360.7,224.1c-0.5,0-0.9-0.2-1.2-0.5c-0.3-0.3-0.5-0.7-0.5-1.2
		c0-0.4,0.2-0.8,0.5-1.1c0.3-0.3,0.7-0.5,1.2-0.5c0.5,0,0.9,0.2,1.2,0.5c0.3,0.3,0.5,0.7,0.5,1.1c0,0.5-0.2,0.9-0.5,1.2
		C361.6,224,361.2,224.1,360.7,224.1z"/>
	<path class="st0" d="M387.3,227.8v16.9h-2.1v-13.4l-6.9,11.3h-1l-6.9-11.4v13.4h-2.1v-16.9h2.3l7.2,12.2l7.3-12.2H387.3z"/>
	<path class="st0" d="M410.3,242.8v6.1h-2.2v-4.1H393v4.1h-2.2v-6.1h1c1.1-0.1,1.9-0.9,2.3-2.5c0.4-1.6,0.7-3.9,0.8-6.8l0.2-5.7
		h12.5v14.9H410.3z M397.1,233.6c-0.1,2.4-0.3,4.4-0.6,6c-0.3,1.5-0.8,2.6-1.6,3.2h10.6v-12.9h-8.1L397.1,233.6z"/>
	<path class="st0" d="M414.8,227.8h2.3v16.9h-2.3V227.8z M415.9,224.1c-0.5,0-0.9-0.2-1.2-0.5c-0.3-0.3-0.5-0.7-0.5-1.2
		c0-0.4,0.2-0.8,0.5-1.1c0.3-0.3,0.7-0.5,1.2-0.5s0.9,0.2,1.2,0.5c0.3,0.3,0.5,0.7,0.5,1.1c0,0.5-0.2,0.9-0.5,1.2
		C416.8,224,416.4,224.1,415.9,224.1z"/>
	<path class="st0" d="M437.4,227.8v16.9h-2.3v-14.9H427l-0.2,4.2c-0.2,3.5-0.6,6.2-1.2,8.1c-0.6,1.9-1.8,2.8-3.4,2.8
		c-0.5,0-1-0.1-1.6-0.3l0.2-2c0.4,0.1,0.7,0.1,0.8,0.1c0.9,0,1.5-0.4,2-1.2c0.5-0.8,0.8-1.8,0.9-3c0.2-1.2,0.3-2.8,0.4-4.8l0.3-6.1
		H437.4z"/>
	<path class="st0" d="M443.9,227.8h2.3v16.9h-2.3V227.8z M445.1,224.1c-0.5,0-0.9-0.2-1.2-0.5c-0.3-0.3-0.5-0.7-0.5-1.2
		c0-0.4,0.2-0.8,0.5-1.1c0.3-0.3,0.7-0.5,1.2-0.5s0.9,0.2,1.2,0.5c0.3,0.3,0.5,0.7,0.5,1.1c0,0.5-0.2,0.9-0.5,1.2
		C445.9,224,445.5,224.1,445.1,224.1z"/>
	<path class="st0" d="M458.9,237.2H455v7.5h-2.3v-16.9h2.3v7.4h3.9l6-7.4h2.5l-6.7,8.2l7.1,8.7h-2.7L458.9,237.2z"/>
	<path class="st0" d="M471.6,244.9c-0.5,0-0.9-0.2-1.2-0.5c-0.3-0.3-0.5-0.8-0.5-1.3s0.2-0.9,0.5-1.2c0.3-0.3,0.8-0.5,1.2-0.5
		c0.5,0,0.9,0.2,1.2,0.5c0.3,0.3,0.5,0.7,0.5,1.2s-0.2,0.9-0.5,1.3C472.5,244.7,472.1,244.9,471.6,244.9z"/>
	<path class="st0" d="M612.6,27.9h-5.7v11.4h-2.6v-25h2.6v11.2h5.7l8.5-11.2h2.9l-9.3,12.1l9.8,12.8h-3L612.6,27.9z M626.3,37.1v7.9
		h-2.5v-5.6h-2.4v-2.3H626.3z"/>
	<path class="st0" d="M637.1,39.5c-1.8,0-3.4-0.4-4.9-1.2c-1.5-0.8-2.6-2-3.4-3.4c-0.8-1.5-1.2-3.1-1.2-4.9c0-1.8,0.4-3.5,1.2-4.9
		c0.8-1.5,2-2.6,3.4-3.4c1.5-0.8,3.1-1.2,4.9-1.2s3.4,0.4,4.9,1.2c1.5,0.8,2.6,1.9,3.4,3.4c0.8,1.5,1.2,3.1,1.2,4.9
		c0,1.8-0.4,3.5-1.2,4.9c-0.8,1.5-1.9,2.6-3.4,3.4C640.5,39.1,638.9,39.5,637.1,39.5z M637.1,37.3c1.3,0,2.5-0.3,3.6-0.9
		c1.1-0.6,1.9-1.5,2.5-2.6c0.6-1.1,0.9-2.4,0.9-3.8c0-1.4-0.3-2.7-0.9-3.8c-0.6-1.1-1.4-2-2.5-2.6c-1-0.6-2.2-0.9-3.6-0.9
		c-1.3,0-2.5,0.3-3.6,0.9c-1,0.6-1.9,1.5-2.5,2.6c-0.6,1.1-0.9,2.4-0.9,3.8c0,1.4,0.3,2.7,0.9,3.8c0.6,1.1,1.5,2,2.5,2.6
		C634.5,37,635.7,37.3,637.1,37.3z"/>
	<path class="st0" d="M667.2,20.6v18.8h-2.5V22.8h-9l-0.2,4.6c-0.2,3.9-0.6,6.9-1.4,9c-0.7,2.1-2,3.1-3.8,3.1
		c-0.5,0-1.1-0.1-1.8-0.3l0.2-2.2c0.4,0.1,0.7,0.1,0.9,0.1c1,0,1.7-0.5,2.2-1.4c0.5-0.9,0.8-2,1-3.4c0.2-1.3,0.3-3.1,0.4-5.3
		l0.3-6.7H667.2z"/>
	<path class="st0" d="M692.7,37.1v6.7h-2.4v-4.5h-16.8v4.5h-2.4v-6.7h1.1c1.3-0.1,2.1-1,2.6-2.8c0.5-1.8,0.8-4.3,0.9-7.5l0.3-6.3
		h13.8v16.6H692.7z M678,27c-0.1,2.7-0.3,4.9-0.7,6.6c-0.3,1.7-0.9,2.9-1.8,3.5h11.7V22.8h-9L678,27z"/>
	<path class="st0" d="M704.1,20.4c2.5,0,4.3,0.6,5.6,1.9c1.3,1.2,2,3,2,5.4v11.6h-2.4v-2.9c-0.6,1-1.4,1.7-2.5,2.3
		c-1.1,0.5-2.4,0.8-3.9,0.8c-2.1,0-3.8-0.5-5-1.5c-1.2-1-1.9-2.3-1.9-4c0-1.6,0.6-2.9,1.7-3.9c1.2-1,3-1.5,5.5-1.5h6v-1.1
		c0-1.6-0.5-2.8-1.4-3.7c-0.9-0.9-2.2-1.3-4-1.3c-1.2,0-2.3,0.2-3.4,0.6c-1.1,0.4-2,0.9-2.8,1.6l-1.1-1.9c0.9-0.8,2.1-1.4,3.4-1.9
		C701.2,20.7,702.7,20.4,704.1,20.4z M703.2,37.5c1.4,0,2.7-0.3,3.7-1c1-0.7,1.8-1.6,2.3-2.9v-3.1h-5.9c-3.2,0-4.8,1.1-4.8,3.4
		c0,1.1,0.4,2,1.2,2.6C700.6,37.2,701.7,37.5,703.2,37.5z"/>
	<path class="st0" d="M718.5,20.6h2.5v8.3h11.8v-8.3h2.5v18.8h-2.5v-8.3H721v8.3h-2.5V20.6z"/>
	<path class="st0" d="M749,20.4c2.4,0,4.3,0.6,5.6,1.9c1.3,1.2,2,3,2,5.4v11.6h-2.4v-2.9c-0.6,1-1.4,1.7-2.5,2.3
		c-1.1,0.5-2.4,0.8-3.9,0.8c-2.1,0-3.8-0.5-5-1.5c-1.2-1-1.9-2.3-1.9-4c0-1.6,0.6-2.9,1.7-3.9c1.2-1,3-1.5,5.5-1.5h6v-1.1
		c0-1.6-0.5-2.8-1.4-3.7c-0.9-0.9-2.2-1.3-4-1.3c-1.2,0-2.3,0.2-3.4,0.6c-1.1,0.4-2,0.9-2.8,1.6l-1.1-1.9c1-0.8,2.1-1.4,3.4-1.9
		C746.1,20.7,747.5,20.4,749,20.4z M748.1,37.5c1.4,0,2.7-0.3,3.7-1c1-0.7,1.8-1.6,2.3-2.9v-3.1h-5.9c-3.2,0-4.8,1.1-4.8,3.4
		c0,1.1,0.4,2,1.2,2.6C745.4,37.2,746.6,37.5,748.1,37.5z"/>
	<path class="st0" d="M773,20.4c1.8,0,3.4,0.4,4.8,1.2c1.4,0.8,2.5,1.9,3.4,3.4c0.8,1.5,1.2,3.1,1.2,5c0,1.9-0.4,3.5-1.2,5
		c-0.8,1.5-1.9,2.6-3.4,3.4c-1.4,0.8-3,1.2-4.8,1.2c-1.5,0-2.9-0.3-4.1-0.9c-1.2-0.6-2.2-1.6-3-2.8v10.5h-2.5V20.6h2.4v3.7
		c0.8-1.2,1.8-2.2,3-2.9C770,20.8,771.4,20.4,773,20.4z M772.8,37.3c1.3,0,2.5-0.3,3.6-0.9c1.1-0.6,1.9-1.5,2.5-2.6
		c0.6-1.1,0.9-2.4,0.9-3.8c0-1.4-0.3-2.7-0.9-3.8c-0.6-1.1-1.4-2-2.5-2.6c-1.1-0.6-2.3-0.9-3.6-0.9c-1.3,0-2.5,0.3-3.6,0.9
		c-1,0.6-1.9,1.5-2.5,2.6c-0.6,1.1-0.9,2.4-0.9,3.8c0,1.4,0.3,2.7,0.9,3.8c0.6,1.1,1.5,2,2.5,2.6C770.3,37,771.5,37.3,772.8,37.3z"
		/>
	<path class="st0" d="M803.6,20.4c2.4,0,4.3,0.6,5.6,1.9c1.3,1.2,2,3,2,5.4v11.6h-2.4v-2.9c-0.6,1-1.4,1.7-2.5,2.3
		c-1.1,0.5-2.4,0.8-3.9,0.8c-2.1,0-3.8-0.5-5-1.5c-1.2-1-1.9-2.3-1.9-4c0-1.6,0.6-2.9,1.7-3.9c1.2-1,3-1.5,5.5-1.5h6v-1.1
		c0-1.6-0.5-2.8-1.4-3.7c-0.9-0.9-2.2-1.3-4-1.3c-1.2,0-2.3,0.2-3.4,0.6c-1.1,0.4-2,0.9-2.8,1.6l-1.1-1.9c1-0.8,2.1-1.4,3.4-1.9
		C800.7,20.7,802.1,20.4,803.6,20.4z M802.7,37.5c1.4,0,2.7-0.3,3.7-1c1-0.7,1.8-1.6,2.3-2.9v-3.1h-5.9c-3.2,0-4.8,1.1-4.8,3.4
		c0,1.1,0.4,2,1.2,2.6C800,37.2,801.2,37.5,802.7,37.5z"/>
	<path class="st0" d="M833.2,20.6v18.8h-2.5V22.8h-9l-0.2,4.6c-0.2,3.9-0.6,6.9-1.4,9c-0.7,2.1-2,3.1-3.8,3.1
		c-0.5,0-1.1-0.1-1.8-0.3l0.2-2.2c0.4,0.1,0.7,0.1,0.9,0.1c1,0,1.7-0.5,2.2-1.4c0.5-0.9,0.8-2,1-3.4c0.2-1.3,0.3-3.1,0.4-5.3
		l0.3-6.7H833.2z"/>
	<path class="st0" d="M858.7,37.1v6.7h-2.4v-4.5h-16.8v4.5h-2.4v-6.7h1.1c1.3-0.1,2.1-1,2.6-2.8c0.5-1.8,0.8-4.3,0.9-7.5l0.2-6.3
		h13.8v16.6H858.7z M844,27c-0.1,2.7-0.3,4.9-0.7,6.6c-0.3,1.7-0.9,2.9-1.8,3.5h11.7V22.8h-9L844,27z"/>
	<path class="st0" d="M871.6,27.2c2.4,0,4.1,0.5,5.4,1.6c1.2,1,1.9,2.5,1.9,4.4c0,2-0.7,3.5-2,4.6c-1.3,1.1-3.2,1.6-5.7,1.6l-7.4,0
		V20.6h2.5v6.6L871.6,27.2z M881.9,20.6h2.5v18.8h-2.5V20.6z M871,37.4c1.7,0,3-0.3,3.9-1c0.9-0.7,1.4-1.8,1.4-3.2
		c0-1.4-0.4-2.4-1.3-3.1c-0.9-0.7-2.2-1-4-1l-4.7-0.1v8.3L871,37.4z"/>
	<path class="st0" d="M891.7,20.6h2.5v8.3H906v-8.3h2.5v18.8H906v-8.3h-11.8v8.3h-2.5V20.6z"/>
	<path class="st0" d="M934.1,37.1v6.7h-2.4v-4.5h-16.8v4.5h-2.4v-6.7h1.1c1.3-0.1,2.1-1,2.6-2.8c0.5-1.8,0.8-4.3,0.9-7.5l0.2-6.3
		h13.8v16.6H934.1z M919.4,27c-0.1,2.7-0.3,4.9-0.7,6.6c-0.3,1.7-0.9,2.9-1.8,3.5h11.7V22.8h-9L919.4,27z"/>
	<path class="st0" d="M945.4,20.4c2.5,0,4.3,0.6,5.6,1.9c1.3,1.2,2,3,2,5.4v11.6h-2.4v-2.9c-0.6,1-1.4,1.7-2.5,2.3
		c-1.1,0.5-2.4,0.8-3.9,0.8c-2.1,0-3.8-0.5-5-1.5c-1.2-1-1.9-2.3-1.9-4c0-1.6,0.6-2.9,1.7-3.9c1.2-1,3-1.5,5.5-1.5h6v-1.1
		c0-1.6-0.5-2.8-1.4-3.7c-0.9-0.9-2.2-1.3-4-1.3c-1.2,0-2.3,0.2-3.4,0.6c-1.1,0.4-2,0.9-2.8,1.6l-1.1-1.9c1-0.8,2.1-1.4,3.4-1.9
		C942.6,20.7,944,20.4,945.4,20.4z M944.6,37.5c1.4,0,2.7-0.3,3.7-1c1-0.7,1.8-1.6,2.3-2.9v-3.1h-5.9c-3.2,0-4.8,1.1-4.8,3.4
		c0,1.1,0.4,2,1.2,2.6C941.9,37.2,943.1,37.5,944.6,37.5z"/>
	<path class="st0" d="M622,84.2v6.7h-2.4v-4.5h-16.8v4.5h-2.4v-6.7h1.1c1.3-0.1,2.1-1,2.6-2.8c0.5-1.8,0.8-4.3,0.9-7.5l0.3-6.3h13.8
		v16.6H622z M607.3,74.1c-0.1,2.7-0.3,4.9-0.7,6.6c-0.3,1.7-0.9,2.9-1.8,3.5h11.7V69.9h-9L607.3,74.1z"/>
	<path class="st0" d="M633.7,67.5c1.9,0,3.6,0.4,5.1,1.2c1.5,0.8,2.7,1.9,3.5,3.4c0.8,1.5,1.2,3.1,1.2,4.9s-0.4,3.5-1.2,4.9
		c-0.8,1.5-1.9,2.6-3.3,3.4c-1.4,0.8-2.9,1.2-4.7,1.2c-1.7,0-3.3-0.4-4.7-1.2c-1.4-0.8-2.5-1.9-3.2-3.4c-0.8-1.5-1.2-3.1-1.2-5
		l0-0.8H641c-0.1-1.9-0.9-3.5-2.2-4.7c-1.4-1.2-3.1-1.8-5.1-1.8c-1.2,0-2.2,0.2-3.2,0.6c-1,0.4-1.8,1-2.5,1.8l-1.4-1.6
		c0.8-1,1.9-1.8,3.1-2.3C630.9,67.7,632.2,67.5,633.7,67.5z M634.4,84.4c1.8,0,3.3-0.6,4.5-1.7c1.2-1.2,1.9-2.7,2.1-4.5h-13.3
		c0.2,1.9,0.9,3.4,2.1,4.5C631,83.8,632.6,84.4,634.4,84.4z"/>
	<path class="st0" d="M658.6,67.5c1.8,0,3.4,0.4,4.8,1.2c1.4,0.8,2.5,1.9,3.4,3.4c0.8,1.5,1.2,3.1,1.2,5c0,1.9-0.4,3.5-1.2,5
		c-0.8,1.5-1.9,2.6-3.4,3.4c-1.4,0.8-3,1.2-4.8,1.2c-1.5,0-2.9-0.3-4.1-0.9c-1.2-0.6-2.2-1.6-3-2.8v10.5H649V67.6h2.4v3.7
		c0.8-1.2,1.8-2.2,3-2.9C655.7,67.8,657.1,67.5,658.6,67.5z M658.5,84.3c1.3,0,2.5-0.3,3.6-0.9c1.1-0.6,1.9-1.5,2.5-2.6
		c0.6-1.1,0.9-2.4,0.9-3.8c0-1.4-0.3-2.7-0.9-3.8c-0.6-1.1-1.4-2-2.5-2.6c-1.1-0.6-2.3-0.9-3.6-0.9c-1.3,0-2.5,0.3-3.6,0.9
		c-1,0.6-1.9,1.5-2.5,2.6c-0.6,1.1-0.9,2.4-0.9,3.8c0,1.4,0.3,2.7,0.9,3.8c0.6,1.1,1.5,2,2.5,2.6C655.9,84,657.1,84.3,658.5,84.3z"
		/>
	<path class="st0" d="M673.4,67.6h2.5v18.8h-2.5V67.6z M674.7,63.5c-0.5,0-1-0.2-1.3-0.5c-0.4-0.4-0.5-0.8-0.5-1.3
		c0-0.5,0.2-0.9,0.5-1.2c0.4-0.4,0.8-0.5,1.3-0.5c0.5,0,1,0.2,1.3,0.5c0.4,0.3,0.5,0.7,0.5,1.2c0,0.5-0.2,1-0.5,1.3
		C675.7,63.4,675.2,63.5,674.7,63.5z"/>
	<path class="st0" d="M696.4,69.9h-10.7v16.5h-2.5V67.6h13.3V69.9z"/>
	<path class="st0" d="M715.6,77.8h-15.7c0.1,2,0.9,3.5,2.2,4.7c1.4,1.2,3.1,1.8,5.1,1.8c1.2,0,2.2-0.2,3.2-0.6c1-0.4,1.8-1,2.5-1.9
		l1.4,1.6c-0.8,1-1.9,1.8-3.1,2.3c-1.2,0.5-2.6,0.8-4.1,0.8c-1.9,0-3.6-0.4-5.1-1.2c-1.5-0.8-2.6-2-3.5-3.4
		c-0.8-1.5-1.2-3.1-1.2-4.9s0.4-3.5,1.2-4.9c0.8-1.5,1.9-2.6,3.3-3.4c1.4-0.8,3-1.2,4.7-1.2s3.3,0.4,4.7,1.2
		c1.4,0.8,2.5,1.9,3.2,3.4c0.8,1.4,1.2,3.1,1.2,4.9L715.6,77.8z M706.6,69.7c-1.8,0-3.3,0.6-4.6,1.7c-1.2,1.1-1.9,2.6-2.1,4.5h13.3
		c-0.2-1.9-0.9-3.4-2.1-4.5C709.9,70.3,708.4,69.7,706.6,69.7z"/>
	<path class="st0" d="M731,67.5c1.8,0,3.4,0.4,4.8,1.2c1.4,0.8,2.5,1.9,3.4,3.4c0.8,1.5,1.2,3.1,1.2,5c0,1.9-0.4,3.5-1.2,5
		c-0.8,1.5-1.9,2.6-3.4,3.4c-1.4,0.8-3,1.2-4.8,1.2c-1.5,0-2.9-0.3-4.1-0.9c-1.2-0.6-2.2-1.6-3-2.8v10.5h-2.5V67.6h2.4v3.7
		c0.8-1.2,1.8-2.2,3-2.9C728,67.8,729.4,67.5,731,67.5z M730.8,84.3c1.3,0,2.5-0.3,3.6-0.9c1.1-0.6,1.9-1.5,2.5-2.6
		c0.6-1.1,0.9-2.4,0.9-3.8c0-1.4-0.3-2.7-0.9-3.8c-0.6-1.1-1.4-2-2.5-2.6c-1.1-0.6-2.3-0.9-3.6-0.9c-1.3,0-2.5,0.3-3.6,0.9
		c-1,0.6-1.9,1.5-2.5,2.6c-0.6,1.1-0.9,2.4-0.9,3.8c0,1.4,0.3,2.7,0.9,3.8c0.6,1.1,1.5,2,2.5,2.6C728.2,84,729.4,84.3,730.8,84.3z"
		/>
	<path class="st0" d="M766.7,67.6v18.8h-2.3V71.6l-7.6,12.6h-1.1l-7.6-12.6v14.9h-2.3V67.6h2.6l8,13.5l8.1-13.5H766.7z"/>
	<path class="st0" d="M790.3,77.8h-15.7c0.1,2,0.9,3.5,2.2,4.7c1.4,1.2,3.1,1.8,5.1,1.8c1.2,0,2.2-0.2,3.2-0.6c1-0.4,1.8-1,2.5-1.9
		l1.4,1.6c-0.8,1-1.9,1.8-3.1,2.3c-1.2,0.5-2.6,0.8-4.1,0.8c-1.9,0-3.6-0.4-5.1-1.2c-1.5-0.8-2.6-2-3.5-3.4
		c-0.8-1.5-1.2-3.1-1.2-4.9s0.4-3.5,1.2-4.9c0.8-1.5,1.9-2.6,3.3-3.4c1.4-0.8,3-1.2,4.7-1.2c1.7,0,3.3,0.4,4.7,1.2
		c1.4,0.8,2.5,1.9,3.2,3.4c0.8,1.4,1.2,3.1,1.2,4.9L790.3,77.8z M781.3,69.7c-1.8,0-3.3,0.6-4.6,1.7c-1.2,1.1-1.9,2.6-2.1,4.5h13.3
		c-0.2-1.9-0.9-3.4-2.1-4.5C784.6,70.3,783.1,69.7,781.3,69.7z"/>
	<path class="st0" d="M796,67.6h2.5V76h11.8v-8.3h2.5v18.8h-2.5v-8.3h-11.8v8.3H796V67.6z"/>
	<path class="st0" d="M836.2,78.1h-4.3v8.3h-2.5V67.6h2.5v8.2h4.3l6.6-8.2h2.7l-7.4,9.1l7.9,9.7h-3L836.2,78.1z"/>
	<path class="st0" d="M865.8,77.8h-15.7c0.1,2,0.9,3.5,2.2,4.7c1.4,1.2,3.1,1.8,5.1,1.8c1.2,0,2.2-0.2,3.2-0.6c1-0.4,1.8-1,2.5-1.9
		l1.4,1.6c-0.8,1-1.9,1.8-3.1,2.3c-1.2,0.5-2.6,0.8-4.1,0.8c-1.9,0-3.6-0.4-5.1-1.2c-1.5-0.8-2.6-2-3.5-3.4
		c-0.8-1.5-1.2-3.1-1.2-4.9s0.4-3.5,1.2-4.9c0.8-1.5,1.9-2.6,3.3-3.4c1.4-0.8,3-1.2,4.7-1.2c1.7,0,3.3,0.4,4.7,1.2
		c1.4,0.8,2.5,1.9,3.2,3.4c0.8,1.4,1.2,3.1,1.2,4.9L865.8,77.8z M856.8,69.7c-1.8,0-3.3,0.6-4.6,1.7c-1.2,1.1-1.9,2.6-2.1,4.5h13.3
		c-0.2-1.9-0.9-3.4-2.1-4.5C860.1,70.3,858.6,69.7,856.8,69.7z"/>
	<path class="st0" d="M871.5,67.6h2.5V76h11.8v-8.3h2.5v18.8h-2.5v-8.3H874v8.3h-2.5V67.6z M891.4,84.2v6.3H889v-4.1h-3.2v-2.2
		H891.4z"/>
	<path class="st0" d="M912.7,77.8H897c0.1,2,0.9,3.5,2.2,4.7c1.4,1.2,3.1,1.8,5.1,1.8c1.2,0,2.2-0.2,3.2-0.6c1-0.4,1.8-1,2.5-1.9
		l1.4,1.6c-0.8,1-1.9,1.8-3.1,2.3c-1.2,0.5-2.6,0.8-4.1,0.8c-1.9,0-3.6-0.4-5.1-1.2c-1.5-0.8-2.6-2-3.5-3.4
		c-0.8-1.5-1.2-3.1-1.2-4.9s0.4-3.5,1.2-4.9c0.8-1.5,1.9-2.6,3.3-3.4c1.4-0.8,3-1.2,4.7-1.2c1.7,0,3.3,0.4,4.7,1.2
		c1.4,0.8,2.5,1.9,3.2,3.4c0.8,1.4,1.2,3.1,1.2,4.9L912.7,77.8z M903.6,69.7c-1.8,0-3.3,0.6-4.6,1.7c-1.2,1.1-1.9,2.6-2.1,4.5h13.3
		c-0.2-1.9-0.9-3.4-2.1-4.5C907,70.3,905.4,69.7,903.6,69.7z"/>
	<path class="st0" d="M926.1,86.6c-1.9,0-3.5-0.4-5-1.2c-1.5-0.8-2.6-1.9-3.4-3.4c-0.8-1.5-1.2-3.1-1.2-5s0.4-3.5,1.2-4.9
		c0.8-1.5,2-2.6,3.4-3.4c1.5-0.8,3.1-1.2,5-1.2c1.6,0,3.1,0.3,4.3,1c1.3,0.6,2.3,1.5,3,2.7l-1.9,1.3c-0.6-0.9-1.4-1.6-2.4-2.1
		c-1-0.5-2-0.7-3.1-0.7c-1.4,0-2.6,0.3-3.7,0.9c-1.1,0.6-1.9,1.5-2.5,2.6c-0.6,1.1-0.9,2.4-0.9,3.8c0,1.5,0.3,2.7,0.9,3.9
		c0.6,1.1,1.5,2,2.5,2.6c1.1,0.6,2.3,0.9,3.7,0.9c1.1,0,2.2-0.2,3.1-0.7c1-0.5,1.7-1.1,2.4-2.1l1.9,1.3c-0.7,1.2-1.7,2.1-3,2.8
		C929.2,86.3,927.7,86.6,926.1,86.6z"/>
	<path class="st0" d="M945.2,78.1h-4.3v8.3h-2.5V67.6h2.5v8.2h4.3l6.6-8.2h2.7l-7.4,9.1l7.9,9.7h-3L945.2,78.1z"/>
	<path class="st0" d="M974.9,77.8h-15.7c0.1,2,0.9,3.5,2.2,4.7c1.4,1.2,3.1,1.8,5.1,1.8c1.2,0,2.2-0.2,3.2-0.6c1-0.4,1.8-1,2.5-1.9
		l1.4,1.6c-0.8,1-1.9,1.8-3.1,2.3c-1.2,0.5-2.6,0.8-4.1,0.8c-1.9,0-3.6-0.4-5.1-1.2c-1.5-0.8-2.6-2-3.5-3.4
		c-0.8-1.5-1.2-3.1-1.2-4.9s0.4-3.5,1.2-4.9c0.8-1.5,1.9-2.6,3.3-3.4c1.4-0.8,3-1.2,4.7-1.2c1.7,0,3.3,0.4,4.7,1.2
		c1.4,0.8,2.5,1.9,3.2,3.4c0.8,1.4,1.2,3.1,1.2,4.9L974.9,77.8z M965.8,69.7c-1.8,0-3.3,0.6-4.6,1.7c-1.2,1.1-1.9,2.6-2.1,4.5h13.3
		c-0.2-1.9-0.9-3.4-2.1-4.5C969.2,70.3,967.6,69.7,965.8,69.7z"/>
	<path class="st0" d="M980.5,67.6h2.5V76h11.8v-8.3h2.5v18.8h-2.5v-8.3H983v8.3h-2.5V67.6z"/>
	<path class="st0" d="M1030.4,78.1h-4.1v8.3h-2.5v-8.3h-4.1l-5.7,8.3h-3l6.7-9.7l-6.2-9.1h2.7l5.5,8.2h4.1v-8.2h2.5v8.2h4.1l5.5-8.2
		h2.7l-6.2,9.1l6.7,9.6h-3L1030.4,78.1z"/>
	<path class="st0" d="M1050.6,67.5c1.9,0,3.5,0.4,5,1.2c1.5,0.8,2.6,1.9,3.5,3.4c0.9,1.5,1.3,3.1,1.3,4.9s-0.4,3.5-1.3,4.9
		c-0.8,1.5-2,2.6-3.5,3.4c-1.5,0.8-3.1,1.2-5,1.2c-1.9,0-3.5-0.4-5-1.2c-1.5-0.8-2.6-2-3.5-3.4c-0.8-1.5-1.2-3.1-1.2-4.9
		s0.4-3.5,1.2-4.9c0.8-1.5,2-2.6,3.5-3.4C1047.1,67.9,1048.8,67.5,1050.6,67.5z M1050.6,69.5c-2,0-3.6,0.6-5,1.8
		c-1.3,1.2-2.1,2.8-2.3,4.7h14.6c-0.2-2-1-3.6-2.3-4.7C1054.3,70.1,1052.6,69.5,1050.6,69.5z M1050.6,84.5c2,0,3.6-0.6,5-1.8
		c1.4-1.2,2.1-2.8,2.3-4.8h-14.6c0.2,2,1,3.6,2.3,4.8C1047,83.9,1048.7,84.5,1050.6,84.5z"/>
	<path class="st0" d="M1065.8,67.6h2.5V76h11.8v-8.3h2.5v18.8h-2.5v-8.3h-11.8v8.3h-2.5V67.6z"/>
</g>
</svg>
