<svg version="1.1" id="Layer_1" xmlns="http://www.w3.org/2000/svg" x="0" y="0" viewBox="0 0 262.8 72.7" style="enable-background:new 0 0 262.8 72.7" xml:space="preserve"><style>.st0{fill:#060315}</style><path class="st0" d="M90.7 48.1c-1.2-.7-2.5-1.1-3.9-1.1-1.1 0-2 .2-2.7.6-.7.3-1.3.8-1.7 1.3-.5.5-.8.9-1 1.4h-.3v-3.1h-4.3v25.6h4.6v-9.9h.2c.3.4.6.9 1 1.4.4.5 1 .9 1.7 1.3.7.3 1.5.5 2.6.5 1.4 0 2.7-.4 3.9-1.1 1.1-.8 2-1.9 2.7-3.3s1-3.2 1-5.2-.3-3.8-1-5.2c-.7-1.4-1.6-2.5-2.8-3.2zm-1.3 11.5c-.4.9-.8 1.6-1.5 2.1-.6.5-1.4.8-2.4.8s-1.7-.2-2.4-.7c-.7-.5-1.2-1.2-1.5-2.1-.3-1-.5-2-.5-3.2s.1-2.3.5-3.2c.4-.9.8-1.6 1.5-2.1s1.5-.7 2.4-.7 1.7.3 2.4.8 1.2 1.2 1.5 2.1c.3.9.5 1.9.5 3.1s-.2 2.2-.5 3.1zM36.3 7.2c-.7-.4-1.5-.8-2.4-1-.9-.2-1.8-.3-2.7-.3-1.2 0-2.4.2-3.5.6-1.1.4-2 .9-2.7 1.7s-1.2 1.7-1.5 3l4.1.6c.3-.7.7-1.2 1.3-1.7.6-.5 1.4-.7 2.5-.7 1 0 1.8.2 2.3.7s.8 1.2.8 2.1v.1c0 .4-.2.7-.5.9s-.8.3-1.5.4c-.6.1-1.5.2-2.6.3-.9.1-1.8.3-2.6.5-.9.2-1.6.5-2.3.9-.7.4-1.2.9-1.6 1.6-.4.7-.6 1.6-.6 2.6 0 1.2.3 2.3.8 3.1.5.8 1.3 1.5 2.2 1.9 1 .4 2 .6 3.2.6 1 0 1.8-.1 2.6-.5.7-.3 1.3-.7 1.8-1.1.5-.4.8-.9 1.1-1.4h.1v2.5h4.2V12.2c0-1.3-.2-2.3-.7-3.1-.5-.8-1.1-1.4-1.8-1.9zm-1.8 10.9c0 .7-.1 1.3-.5 1.9-.4.6-.9 1-1.5 1.4-.7.3-1.4.5-2.3.5-.9 0-1.7-.2-2.2-.7-.6-.4-.9-1-.9-1.8 0-.6.1-1 .4-1.4.3-.3.7-.6 1.2-.8.6-.2 1.1-.3 1.8-.4.3 0 .6 0 1-.1s.8-.1 1.2-.2c.4-.1.8-.2 1.1-.3s.6-.2.7-.3v2.2zM109.5 24.7h12.1v5.4h4.2v-9h-2.9V6.2h-13.4l-.5 6.5c-.1 1-.2 2-.3 2.9-.1.9-.2 1.7-.4 2.4s-.4 1.4-.7 1.9c-.3.5-.6.9-1 1.2h-1.5v9h4.4v-5.4zm2.8-7c.2-1.4.4-3 .6-5l.3-3h5.4v11.4H111c.6-.8 1-2 1.3-3.4zM67.1 24.8h4.2v-15h6V6.2H61.1v3.6h6zM59.2 20.7c.7-1.4 1-3.2 1-5.2s-.3-3.8-1-5.2c-.7-1.4-1.6-2.5-2.8-3.2-1.2-.7-2.5-1.1-3.9-1.1-1.1 0-2 .2-2.7.6-.7.3-1.3.8-1.7 1.3-.5.5-.8.9-1 1.4h-.3V6.2h-4.3v25.6h4.6v-9.9h.2c.3.4.6.9 1 1.4.4.5 1 .9 1.7 1.3.7.3 1.5.5 2.6.5 1.4 0 2.7-.4 3.9-1.1 1.1-.8 2-1.9 2.7-3.3zm-4.1-2.1c-.4.9-.8 1.6-1.5 2.1-.6.5-1.4.8-2.4.8s-1.7-.2-2.4-.7-1.2-1.2-1.5-2.1c-.3-1-.5-2-.5-3.2s.2-2.3.5-3.2c.4-.9.8-1.6 1.5-2.1s1.5-.7 2.4-.7c.9 0 1.7.3 2.4.8s1.2 1.2 1.5 2.1c.3.9.5 1.9.5 3.1s-.2 2.2-.5 3.1zM98.8 22.3l.1 2.5h4.2V12.4c0-1.3-.3-2.3-.7-3.1-.5-.8-1.1-1.4-1.8-1.9-.7-.4-1.5-.8-2.4-1-.9-.2-1.8-.3-2.7-.3-1.2 0-2.4.2-3.5.6-1.1.4-2 .9-2.7 1.7-.7.7-1.3 1.7-1.6 2.8l4.1.6c.3-.7.7-1.2 1.3-1.7.6-.5 1.4-.7 2.5-.7 1 0 1.8.2 2.3.7s.8 1.2.8 2.1v.1c0 .4-.2.7-.5.9s-.8.3-1.5.4c-.6.1-1.5.2-2.6.3-.9.1-1.8.3-2.6.5-.9.2-1.6.5-2.3.9-.7.4-1.2.9-1.6 1.6-.4.7-.6 1.6-.6 2.6 0 1.2.3 2.3.8 3.1.5.8 1.3 1.5 2.2 1.9 1 .4 2 .6 3.2.6 1 0 1.8-.1 2.7-.3.7-.3 1.3-.7 1.8-1.1s.8-.9 1.1-1.4zm-2.2-.9c-.7.3-1.4.5-2.3.5-.9 0-1.6-.3-2.2-.7-.6-.4-.9-1-.9-1.8 0-.6.1-1 .4-1.4.3-.3.7-.6 1.2-.8.6-.2 1.1-.3 1.8-.4.3 0 .6 0 1-.1s.8-.1 1.2-.2c.4-.1.8-.2 1.1-.3s.6-.2.7-.3v2.2c0 .7-.1 1.3-.5 1.9-.4.6-.9 1-1.5 1.4zM70.7 48.4c-.7-.4-1.5-.8-2.4-1-.9-.2-1.8-.3-2.7-.3-1.2 0-2.4.2-3.5.6-1.1.4-2 .9-2.7 1.7-.7.7-1.3 1.7-1.6 2.8l4.1.6c.3-.7.7-1.2 1.3-1.7.6-.5 1.4-.7 2.5-.7 1 0 1.8.2 2.3.7s.8 1.2.8 2.1v.1c0 .4-.2.7-.5.9s-.8.3-1.5.4c-.6.1-1.5.2-2.6.3-.9.1-1.8.3-2.6.5-.9.2-1.6.5-2.3.9-.7.4-1.2.9-1.6 1.6-.4.7-.6 1.6-.6 2.6 0 1.2.3 2.3.8 3.1.5.8 1.3 1.5 2.2 1.9 1 .4 2 .6 3.2.6.9 0 1.8-.1 2.7-.3.7-.3 1.3-.7 1.8-1.1s.8-.9 1.1-1.4h.1v2.5h4.2V53.4c0-1.3-.2-2.3-.7-3.1-.5-.8-1.1-1.4-1.8-1.9zm-2 10.7c0 .7-.1 1.3-.5 1.9-.4.6-.9 1-1.5 1.4-.7.3-1.4.5-2.3.5-.9 0-1.7-.2-2.2-.7-.6-.4-.9-1-.9-1.8 0-.6.1-1 .4-1.4.3-.3.7-.6 1.2-.8.6-.2 1.1-.3 1.8-.4.3 0 .6 0 1-.1s.8-.1 1.2-.2c.4-.1.8-.2 1.1-.3s.6-.2.7-.3v2.2zM10.1 11.3 19.9 0h-5.5L5.6 10.2H4.5V0H0v24.7h4.5V13.9h2.2l8.1 10.8v.1h1.8v5.7h4.3v-9.2h-3.2zM226.7 7.1c-1.2-.7-2.5-1.1-3.9-1.1-1.1 0-2 .2-2.7.6-.7.3-1.3.8-1.7 1.3-.5.5-.8.9-1 1.4h-.3V6.2h-4.3v25.6h4.6v-9.9h.2c.3.4.6.9 1 1.4.4.5 1 .9 1.7 1.3.7.3 1.5.5 2.6.5 1.4 0 2.8-.3 3.9-1.1s2-1.9 2.7-3.3 1-3.2 1-5.2-.3-3.8-1-5.2c-.7-1.4-1.6-2.5-2.8-3.2zm-1.3 11.5c-.4.9-.8 1.6-1.5 2.1-.6.5-1.4.8-2.4.8s-1.7-.2-2.4-.7c-.7-.5-1.2-1.2-1.5-2.1-.3-1-.5-2-.5-3.2s.1-2.3.5-3.2c.4-.9.8-1.6 1.5-2.1s1.5-.7 2.4-.7c.9 0 1.7.3 2.4.8s1.2 1.2 1.5 2.1c.3.9.5 1.9.5 3.1s-.2 2.2-.5 3.1zM206.8 7.4c-.7-.4-1.5-.8-2.4-1-.9-.2-1.8-.3-2.7-.3-1.3 0-2.5.2-3.6.6s-2 .9-2.7 1.7c-.7.7-1.3 1.7-1.6 2.8l4.1.6c.3-.7.7-1.2 1.3-1.7.6-.5 1.4-.7 2.5-.7 1 0 1.8.2 2.3.7s.8 1.2.8 2.1v.1c0 .4-.2.7-.5.9s-.8.3-1.5.4c-.6.1-1.5.2-2.6.3-.9.1-1.8.3-2.6.5-.9.2-1.6.5-2.3.9-.7.4-1.2.9-1.6 1.6s-.6 1.6-.6 2.6c0 1.2.3 2.3.8 3.1.5.8 1.3 1.5 2.2 1.9 1 .4 2 .6 3.2.6 1 0 1.8-.1 2.8-.3.7-.3 1.3-.7 1.8-1.1s.8-.9 1.1-1.4h.1v2.5h4.2V12.4c0-1.3-.2-2.3-.7-3.1-.5-.8-1.1-1.4-1.8-1.9zm-2.1 10.7c0 .7-.1 1.3-.5 1.9-.4.6-.9 1-1.5 1.4-.7.3-1.4.5-2.3.5-.9 0-1.6-.2-2.2-.7-.6-.4-.9-1-.9-1.8 0-.6.1-1 .4-1.4.3-.3.7-.6 1.2-.8.6-.2 1.1-.3 1.8-.4.3 0 .6 0 1-.1s.8-.1 1.2-.2c.4-.1.8-.2 1.1-.3s.6-.2.7-.3v2.2zM199.8 54.6h-7.2v-7.4h-4.2v18.5h4.2v-7.5h7.2v7.5h4.2V47.2h-4.2zM262.3 9.3c-.5-.8-1.1-1.4-1.8-1.9-.7-.4-1.5-.8-2.4-1-.9-.2-1.8-.3-2.7-.3-1.3 0-2.5.2-3.6.6s-2 .9-2.7 1.7c-.7.7-1.3 1.7-1.6 2.8l4.1.6c.3-.7.7-1.2 1.3-1.7.6-.5 1.4-.7 2.5-.7 1 0 1.8.2 2.3.7s.8 1.2.8 2.1v.1c0 .4-.2.7-.5.9s-.8.3-1.5.4c-.6.1-1.5.2-2.6.3-.9.1-1.8.3-2.6.5-.9.2-1.6.5-2.3.9-.7.4-1.2.9-1.6 1.6-.4.7-.6 1.6-.6 2.6 0 1.2.3 2.3.8 3.1.5.8 1.3 1.5 2.2 1.9 1 .4 2 .6 3.2.6 1 0 1.8-.1 2.8-.3.7-.3 1.3-.7 1.8-1.1s.8-.9 1.1-1.4h.1v2.5h4.2V12.4c0-1.3-.2-2.3-.7-3.1zm-3.8 8.8c0 .7-.1 1.3-.5 1.9-.4.6-.9 1-1.5 1.4-.7.3-1.4.5-2.3.5-.9 0-1.7-.2-2.2-.7-.6-.4-.9-1-.9-1.8 0-.6.1-1 .4-1.4.3-.3.7-.6 1.2-.8.6-.2 1.1-.3 1.8-.4.3 0 .6 0 1-.1s.8-.1 1.2-.2c.4-.1.8-.2 1.1-.3.3-.1.6-.2.7-.3v2.2zM238.8 9.8h8V6.2h-12.3v7.3h-3.2v2.8h3.2v8.5h4.3v-8.5h4.1v-2.8h-4.1zM191.4 30.1v-9h-2.9V6.2h-13.4l-.5 6.5c-.1 1-.2 2-.3 2.9-.1.9-.2 1.7-.4 2.4s-.4 1.4-.7 1.9-.6.9-1 1.2h-1.5v9h4.3v-5.4h12.2v5.4h4.2zm-7.1-9h-7.6c.6-.8 1-2 1.3-3.4.2-1.4.4-3 .6-5l.3-3h5.4v11.4zM182.4 48.4c-.7-.4-1.5-.8-2.4-1-.9-.2-1.8-.3-2.7-.3-1.3 0-2.5.2-3.6.6-1.1.4-2 .9-2.7 1.7-.7.7-1.3 1.7-1.6 2.8l4.1.6c.3-.7.7-1.2 1.3-1.7.6-.5 1.4-.7 2.5-.7 1 0 1.8.2 2.3.7s.8 1.2.8 2.1v.1c0 .4-.2.7-.5.9s-.8.3-1.5.4c-.6.1-1.5.2-2.6.3-.9.1-1.8.3-2.6.5-.9.2-1.6.5-2.3.9-.7.4-1.2.9-1.6 1.6-.4.7-.6 1.6-.6 2.6 0 1.2.3 2.3.8 3.1.5.8 1.3 1.5 2.2 1.9 1 .4 2 .6 3.2.6 1 0 1.8-.1 2.8-.3.7-.3 1.3-.7 1.8-1.1s.8-.9 1.1-1.4h.1v2.5h4.2V53.4c0-1.3-.2-2.3-.7-3.1-.5-.8-1.1-1.4-1.8-1.9zm-2.1 10.7c0 .7-.1 1.3-.5 1.9-.4.6-.9 1-1.5 1.4-.7.3-1.4.5-2.3.5-.9 0-1.6-.2-2.2-.7-.6-.4-.9-1-.9-1.8 0-.6.1-1 .4-1.4.3-.3.7-.6 1.2-.8.6-.2 1.1-.3 1.8-.4.3 0 .6 0 1-.1s.8-.1 1.2-.2c.4-.1.8-.2 1.1-.3.3-.1.6-.2.7-.3v2.2zM138.1 23.7c.5-.4.8-.9 1.1-1.4h.1v2.5h4.2V12.4c0-1.3-.2-2.3-.7-3.1-.5-.8-1.1-1.4-1.8-1.9-.7-.4-1.5-.8-2.4-1-.9-.2-1.8-.3-2.7-.3-1.2 0-2.4.2-3.5.6-1.1.4-2 .9-2.7 1.7-.7.7-1.3 1.7-1.6 2.8l4.1.6c.3-.7.7-1.2 1.3-1.7.6-.5 1.4-.7 2.5-.7 1 0 1.8.2 2.3.7s.8 1.2.8 2.1v.1c0 .4-.2.7-.5.9s-.8.3-1.5.4c-.6.1-1.5.2-2.6.3-.9.1-1.8.3-2.6.5-.9.2-1.6.5-2.3.9-.7.4-1.2.9-1.6 1.6-.4.7-.6 1.6-.6 2.6 0 1.2.3 2.3.8 3.1.5.8 1.3 1.5 2.2 1.9 1 .4 2 .6 3.2.6 1 0 1.8-.1 2.7-.3.7-.3 1.3-.7 1.8-1.1zm-5.5-2.5c-.6-.4-.9-1-.9-1.8 0-.6.1-1 .4-1.4.3-.3.7-.6 1.2-.8.6-.2 1.1-.3 1.8-.4.3 0 .6 0 1-.1s.8-.1 1.2-.2c.4-.1.8-.2 1.1-.3s.6-.2.7-.3v2.2c0 .7-.1 1.3-.5 1.9-.4.6-.9 1-1.5 1.4-.7.3-1.4.5-2.3.5-.9 0-1.7-.2-2.2-.7zM129.5 48.4c-.7-.4-1.5-.8-2.4-1-.9-.2-1.8-.3-2.7-.3-1.3 0-2.5.2-3.6.6s-2 .9-2.7 1.7c-.7.7-1.3 1.7-1.6 2.8l4.1.6c.3-.7.7-1.2 1.3-1.7.6-.5 1.4-.7 2.5-.7 1 0 1.8.2 2.3.7s.8 1.2.8 2.1v.1c0 .4-.2.7-.5.9s-.8.3-1.5.4c-.6.1-1.5.2-2.6.3-.9.1-1.8.3-2.6.5-.9.2-1.6.5-2.3.9-.7.4-1.2.9-1.6 1.6-.4.7-.6 1.6-.6 2.6 0 1.2.3 2.3.8 3.1.5.8 1.3 1.5 2.2 1.9 1 .4 2 .6 3.2.6 1 0 1.8-.1 2.8-.3.7-.3 1.3-.7 1.8-1.1s.8-.9 1.1-1.4h.1v2.5h4.2V53.4c0-1.3-.2-2.3-.7-3.1-.5-.8-1.1-1.4-1.8-1.9zm-2.1 10.7c0 .7-.1 1.3-.5 1.9-.4.6-.9 1-1.5 1.4-.7.3-1.4.5-2.3.5-.9 0-1.6-.2-2.2-.7-.6-.4-.9-1-.9-1.8 0-.6.1-1 .4-1.4.3-.3.7-.6 1.2-.8.6-.2 1.1-.3 1.8-.4.3 0 .6 0 1-.1s.8-.1 1.2-.2c.4-.1.8-.2 1.1-.3s.6-.2.7-.3v2.2zM137.6 55.4c-.1 1.2-.2 2.3-.3 3.2-.1.9-.3 1.6-.5 2.1s-.5.9-.8 1.1c-.3.2-.7.3-1.2.3h-.6v3.5h1.5c1 0 1.9-.1 2.6-.5.7-.3 1.3-.9 1.8-1.6s.8-1.7 1.1-2.8.4-2.5.5-4l.3-6h5.2v15h4.2V47.2h-13.5l-.3 8.2zM108.7 54.6h-7.1v-7.4h-4.2v18.5h4.2v-7.5h7.1v7.5h4.2V47.2h-4.2zM155.5 54.5h-3.1v2.8h3.1v8.5h4.3v-8.5h4.2v-2.8h-4.2v-3.7h8v-3.6h-12.3zM166.8 6.1h-3.5l-5.5 13.5-5.3-13.4h-5.4v18.5h4.2V12.1l4.9 12.5h3.1l5.1-12.6v12.7h4.2V6.2h-1.8z"/></svg>